<svg width="24" height="24" viewBox="0 0 24 24" xmlns="http://www.w3.org/2000/svg"><path d="M12.2789 15.724C14.1815 15.724 15.7239 14.1816 15.7239 12.279C15.7239 10.3764 14.1815 8.83398 12.2789 8.83398C10.3762 8.83398 8.83386 10.3764 8.83386 12.279C8.83386 14.1816 10.3762 15.724 12.2789 15.724Z" fill="currentColor"/><path d="M22.5489 8.02136C22.6392 6.40072 22.0349 4.81834 20.8871 3.6706C19.7394 2.52286 18.157 1.91848 16.5364 2.00886H12.2789H8.02136C6.40072 1.91848 4.81834 2.52286 3.6706 3.6706C2.52286 4.81834 1.91848 6.40072 2.00886 8.02136V12.2789V16.5364C1.91848 18.157 2.52286 19.7394 3.6706 20.8871C4.81834 22.0349 6.40072 22.6392 8.02136 22.5489H12.2789H16.5364C18.157 22.6392 19.7394 22.0349 20.8871 20.8871C22.0349 19.7394 22.6392 18.157 22.5489 16.5364V12.2789C22.5489 11.0949 22.5575 10.349 22.5639 9.79971V9.79964C22.5726 9.04468 22.5771 8.66097 22.5489 8.02136ZM12.2789 17.9014C9.17364 17.9014 6.65636 15.3841 6.65636 12.2789C6.65636 9.17364 9.17364 6.65636 12.2789 6.65636C15.3841 6.65636 17.9014 9.17364 17.9014 12.2789C17.9014 13.77 17.309 15.2001 16.2546 16.2546C15.2001 17.309 13.77 17.9014 12.2789 17.9014ZM16.9716 6.93397C17.1628 7.39546 17.6131 7.69636 18.1126 7.69636C18.7947 7.69636 19.3476 7.14343 19.3476 6.46136C19.3476 5.96185 19.0467 5.51152 18.5852 5.32037C18.1237 5.12921 17.5925 5.23488 17.2393 5.58808C16.8861 5.94129 16.7805 6.47249 16.9716 6.93397Z" fill="currentColor"/></svg>
