<svg xmlns="http://www.w3.org/2000/svg" width="24" height="24" viewBox="0 0 24 24"><path d="M22.748 5.267a8.861 8.861 0 01-2.548.705 4.449 4.449 0 001.962-2.468 8.88 8.88 0 01-2.817 1.074 4.44 4.44 0 00-5.356-.897 4.452 4.452 0 00-2.224 4.96 12.604 12.604 0 01-9.138-4.65 4.453 4.453 0 001.375 5.944 4.422 4.422 0 01-2.013-.554 4.448 4.448 0 003.555 4.416 4.438 4.438 0 01-1.995.15 4.444 4.444 0 004.142 3.09 8.912 8.912 0 01-6.574 1.847 12.612 12.612 0 0013.16.28 12.648 12.648 0 006.258-11.597 9.045 9.045 0 002.213-2.3z" fill="currentColor"></path></svg>
