<svg xmlns="http://www.w3.org/2000/svg" width="24" height="24" viewBox="0 0 24 24"><path d="M22.748 5.267a8.861 8.861 0 0 1-2.548.705 4.449 4.449 0 0 0 1.962-2.468 8.88 8.88 0 0 1-2.817 1.074 4.44 4.44 0 0 0-5.356-.897 4.452 4.452 0 0 0-2.224 4.96 12.604 12.604 0 0 1-9.138-4.65 4.453 4.453 0 0 0 1.375 5.944 4.422 4.422 0 0 1-2.013-.554 4.448 4.448 0 0 0 3.555 4.416 4.438 4.438 0 0 1-1.995.15 4.444 4.444 0 0 0 4.142 3.09 8.912 8.912 0 0 1-6.574 1.847 12.612 12.612 0 0 0 13.16.28 12.648 12.648 0 0 0 6.258-11.597 9.045 9.045 0 0 0 2.213-2.3z" fill="currentColor"/></svg>