<svg xmlns="http://www.w3.org/2000/svg" width="24" height="24" viewBox="0 0 24 24"><path d="M17.638 2.04c-.43 0-.619.268-.768.545 0 0-6.206 10.933-6.385 11.29l4.07 7.46c.14.258.36.546.798.546h2.874c.18 0 .309-.07.379-.179.08-.129.08-.287 0-.446l-4.06-7.39L20.92 2.664a.474.474 0 00.01-.447.458.458 0 00-.389-.178M5.546 5.958c-.17 0-.319.05-.389.179-.08.129-.07.278.02.436l1.936 3.373-3.053 5.358a.576.576 0 000 .446c.07.119.2.179.369.179h2.883c.43 0 .639-.278.788-.546 0 0 2.983-5.248 3.103-5.456L9.228 6.504c-.14-.258-.36-.546-.808-.546" fill="currentColor"></path></svg>
