<svg fill="none" height="128" viewBox="0 0 128 128" width="128" xmlns="http://www.w3.org/2000/svg"><path d="m34.4574 43.4159c6.1628-1.0867 10.2779-6.9636 9.1912-13.1264-1.0867-6.1629-6.9636-10.2779-13.1264-9.1912-6.1629 1.0866-10.2779 6.9635-9.1912 13.1264 1.0866 6.1628 6.9635 10.2779 13.1264 9.1912z" fill="#333"/><path d="m22.2474 44.4635c6.7414 5.6566 16.7921 4.7773 22.4487-1.9641 5.6567-6.7413 4.7774-16.792-1.964-22.4486-6.7413-5.6567-16.792-4.7774-22.4487 1.964-5.6566 6.7413-4.7773 16.792 1.964 22.4487z" stroke="#4976ba" stroke-width="1.64169"/><path d="m22.2474 44.4635c6.7414 5.6566 16.7921 4.7773 22.4487-1.9641 5.6567-6.7413 4.7774-16.792-1.964-22.4486-6.7413-5.6567-16.792-4.7774-22.4487 1.964-5.6566 6.7413-4.7773 16.792 1.964 22.4487z" stroke="#333" stroke-width="1.64169"/><path d="m34.458 75.6045c6.1628-1.0867 10.2779-6.9636 9.1912-13.1264-1.0867-6.1629-6.9636-10.2779-13.1264-9.1912-6.1629 1.0866-10.2779 6.9635-9.1912 13.1264 1.0866 6.1628 6.9635 10.2779 13.1264 9.1912z" fill="#333"/><path d="m22.248 76.6521c6.7414 5.6566 16.792 4.7773 22.4487-1.9641 5.6567-6.7413 4.7774-16.792-1.964-22.4486-6.7414-5.6567-16.792-4.7774-22.4487 1.964-5.6567 6.7413-4.7774 16.792 1.964 22.4487z" stroke="#4976ba" stroke-width="1.64169"/><path d="m22.248 76.6521c6.7414 5.6566 16.792 4.7773 22.4487-1.9641 5.6567-6.7413 4.7774-16.792-1.964-22.4486-6.7414-5.6567-16.792-4.7774-22.4487 1.964-5.6567 6.7413-4.7774 16.792 1.964 22.4487z" stroke="#333" stroke-width="1.64169"/><path d="m34.4577 107.542c6.1628-1.087 10.2779-6.964 9.1912-13.1266-1.0867-6.1629-6.9636-10.2779-13.1264-9.1912-6.1629 1.0866-10.2779 6.9635-9.1913 13.1264 1.0867 6.1624 6.9636 10.2774 13.1265 9.1914z" fill="#333"/><path d="m22.2477 108.589c6.7414 5.657 16.792 4.778 22.4487-1.964 5.6567-6.741 4.7774-16.7916-1.964-22.4483s-16.792-4.7774-22.4487 1.964-4.7774 16.7923 1.964 22.4483z" stroke="#4976ba" stroke-width="1.64169"/><path d="m22.2477 108.589c6.7414 5.657 16.792 4.778 22.4487-1.964 5.6567-6.741 4.7774-16.7916-1.964-22.4483s-16.792-4.7774-22.4487 1.964-4.7774 16.7923 1.964 22.4483z" stroke="#333" stroke-width="1.64169"/><path d="m64.3577 43.5876c-6.2579 0-11.3309-5.073-11.3309-11.3309s5.073-11.331 11.3309-11.331 11.331 5.0731 11.331 11.331-5.0731 11.3309-11.331 11.3309z" fill="#333"/><path d="m95.9715 43.5868c-6.2579 0-11.331-5.073-11.331-11.3309s5.0731-11.331 11.331-11.331c6.2575 0 11.3305 5.0731 11.3305 11.331s-5.073 11.3309-11.3305 11.3309z" fill="#333"/><path d="m58.9079 47.23c-8.2695-3.0099-12.5333-12.1536-9.5235-20.4232 3.0099-8.2695 12.1536-12.5333 20.4232-9.5234 8.2695 3.0098 12.5333 12.1536 9.5234 20.4231-3.0098 8.2695-12.1536 12.5333-20.4231 9.5235z" stroke="#4976ba" stroke-width="1.64169"/><path d="m58.9079 47.23c-8.2695-3.0099-12.5333-12.1536-9.5235-20.4232 3.0099-8.2695 12.1536-12.5333 20.4232-9.5234 8.2695 3.0098 12.5333 12.1536 9.5234 20.4231-3.0098 8.2695-12.1536 12.5333-20.4231 9.5235z" stroke="#333" stroke-width="1.64169"/><path d="m90.5217 47.2292c-8.2696-3.0099-12.5334-12.1536-9.5235-20.4231 3.0099-8.2696 12.1536-12.5334 20.4228-9.5235 8.27 3.0098 12.534 12.1536 9.524 20.4231-3.01 8.2696-12.1538 12.5334-20.4233 9.5235z" stroke="#333" stroke-width="1.64169"/><path d="m47.4783 34.5781c-1.4699-.535-2.2279-2.1604-1.6928-3.6304.535-1.47 2.1604-2.2279 3.6304-1.6929s2.2279 2.1604 1.6929 3.6304c-.5351 1.47-2.1605 2.2279-3.6305 1.6929z" fill="#333"/><path d="m79.0921 34.5774c-1.47-.5351-2.2279-2.1604-1.6929-3.6304.5351-1.47 2.1605-2.228 3.6304-1.6929 1.47.535 2.228 2.1604 1.6929 3.6304-.535 1.47-2.1604 2.2279-3.6304 1.6929z" fill="#333"/><path d="m64.3578 75.7765c-6.2579 0-11.3309-5.0731-11.3309-11.331s5.073-11.3309 11.3309-11.3309 11.331 5.073 11.331 11.3309-5.0731 11.331-11.331 11.331z" fill="#333"/><path d="m95.9712 75.7768c-6.2579 0-11.331-5.0731-11.331-11.331s5.0731-11.3309 11.331-11.3309c6.2578 0 11.3308 5.073 11.3308 11.3309s-5.073 11.331-11.3308 11.331z" fill="#333"/><path d="m58.908 79.4188c-8.2695-3.0098-12.5333-12.1536-9.5235-20.4231 3.0099-8.2695 12.1536-12.5333 20.4232-9.5235 8.2695 3.0099 12.5333 12.1536 9.5234 20.4232-3.0098 8.2695-12.1536 12.5333-20.4231 9.5234z" stroke="#4976ba" stroke-width="1.64169"/><path d="m58.908 79.4188c-8.2695-3.0098-12.5333-12.1536-9.5235-20.4231 3.0099-8.2695 12.1536-12.5333 20.4232-9.5235 8.2695 3.0099 12.5333 12.1536 9.5234 20.4232-3.0098 8.2695-12.1536 12.5333-20.4231 9.5234z" stroke="#333" stroke-width="1.64169"/><path d="m90.5214 79.4191c-8.2696-3.0098-12.5334-12.1536-9.5235-20.4231s12.1536-12.5333 20.4231-9.5235c8.27 3.0099 12.533 12.1536 9.524 20.4232-3.01 8.2695-12.1541 12.5333-20.4236 9.5234z" stroke="#333" stroke-width="1.64169"/><g fill="#333"><path d="m47.4784 66.767c-1.4699-.535-2.2279-2.1604-1.6929-3.6304.5351-1.47 2.1605-2.2279 3.6305-1.6929 1.4699.535 2.2279 2.1604 1.6928 3.6304-.535 1.47-2.1604 2.2279-3.6304 1.6929z"/><path d="m79.0918 66.7673c-1.47-.5351-2.2279-2.1605-1.6929-3.6305.5351-1.4699 2.1604-2.2279 3.6304-1.6928 1.47.535 2.228 2.1604 1.6929 3.6304-.535 1.47-2.1604 2.2279-3.6304 1.6929z"/><path d="m94.7622 51.1661c-1.47-.5351-2.228-2.1605-1.6929-3.6305.535-1.4699 2.1604-2.2279 3.6304-1.6928 1.47.535 2.2279 2.1604 1.6929 3.6304-.5351 1.47-2.1605 2.2279-3.6304 1.6929z"/><path d="m63.9568 51.1664c-1.47-.535-2.2279-2.1604-1.6929-3.6304.5351-1.47 2.1605-2.2279 3.6305-1.6929 1.4699.5351 2.2279 2.1604 1.6928 3.6304-.535 1.47-2.1604 2.228-3.6304 1.6929z"/><path d="m31.7344 51.1658c-1.47-.535-2.2279-2.1604-1.6929-3.6304.5351-1.47 2.1605-2.2279 3.6304-1.6929 1.47.5351 2.228 2.1604 1.6929 3.6304-.535 1.47-2.1604 2.2279-3.6304 1.6929z"/><path d="m64.2981 107.819c-6.2579 0-11.3309-5.073-11.3309-11.3307 0-6.2579 5.073-11.331 11.3309-11.331s11.331 5.0731 11.331 11.331c0 6.2577-5.0731 11.3307-11.331 11.3307z"/><path d="m95.9115 107.82c-6.2579 0-11.331-5.073-11.331-11.3314 0-6.2579 5.0731-11.3309 11.331-11.3309 6.2575 0 11.3305 5.073 11.3305 11.3309 0 6.2584-5.073 11.3314-11.3305 11.3314z"/></g><path d="m58.8483 111.462c-8.2695-3.01-12.5333-12.154-9.5235-20.4235 3.0099-8.2696 12.1536-12.5334 20.4232-9.5235 8.2695 3.0099 12.5333 12.1536 9.5234 20.423-3.0098 8.27-12.1536 12.533-20.4231 9.524z" stroke="#4976ba" stroke-width="1.64169"/><path d="m58.8483 111.462c-8.2695-3.01-12.5333-12.154-9.5235-20.4235 3.0099-8.2696 12.1536-12.5334 20.4232-9.5235 8.2695 3.0099 12.5333 12.1536 9.5234 20.423-3.0098 8.27-12.1536 12.533-20.4231 9.524z" stroke="#333" stroke-width="1.64169"/><path d="m90.4617 111.462c-8.2696-3.01-12.5334-12.1537-9.5235-20.4232s12.1536-12.5334 20.4228-9.5235c8.27 3.0099 12.534 12.1536 9.524 20.4227-3.01 8.27-12.1538 12.534-20.4233 9.524z" stroke="#333" stroke-width="1.64169"/><path d="m47.4187 98.8098c-1.4699-.535-2.2279-2.1604-1.6928-3.6304.535-1.47 2.1604-2.2279 3.6304-1.6929s2.2279 2.1604 1.6929 3.6304c-.5351 1.47-2.1605 2.2279-3.6305 1.6929z" fill="#333"/><path d="m79.0321 98.81c-1.47-.535-2.2279-2.1604-1.6929-3.6304.5351-1.47 2.1605-2.2279 3.6304-1.6929 1.47.5351 2.228 2.1605 1.6929 3.6305-.535 1.4699-2.1604 2.2279-3.6304 1.6928z" fill="#333"/><path d="m94.7025 83.2088c-1.47-.535-2.2279-2.1604-1.6929-3.6304s2.1604-2.2279 3.6304-1.6929c1.47.5351 2.2279 2.1605 1.6929 3.6305-.5351 1.4699-2.1604 2.2279-3.6304 1.6928z" fill="#333"/><path d="m63.8971 83.2092c-1.4699-.535-2.2279-2.1604-1.6928-3.6304.535-1.47 2.1604-2.2279 3.6304-1.6929 1.4699.535 2.2279 2.1604 1.6928 3.6304-.535 1.47-2.1604 2.2279-3.6304 1.6929z" fill="#333"/><path d="m31.6747 83.2086c-1.47-.535-2.2279-2.1604-1.6929-3.6304.5351-1.47 2.1605-2.2279 3.6305-1.6929 1.4699.535 2.2279 2.1604 1.6928 3.6304-.535 1.47-2.1604 2.2279-3.6304 1.6929z" fill="#333"/></svg>