<?xml version="1.0" encoding="utf-8"?><svg xmlns="http://www.w3.org/2000/svg" xmlns:xlink="http://www.w3.org/1999/xlink"><symbol viewBox="0 0 32 32" id="src--assets--icons--angle-bracket-right" xmlns="http://www.w3.org/2000/svg"><path fill="currentColor" d="M16 28.067c-.533 0-1-.2-1.4-.6l-14-14c-1.8-1.8 1-4.667 2.8-2.8L16 23.2l12.6-12.533c1.8-1.8 4.667 1 2.8 2.8l-14 14c-.333.4-.867.6-1.4.6z"/></symbol><symbol class="bicon" viewBox="0 0 32 32" id="src--assets--icons--arrow" xmlns="http://www.w3.org/2000/svg"><path fill="currentColor" d="M30.533 16.8c.333-.533.267-1.267-.2-1.667l-11.4-11.4c-1.2-1.2-3.133.667-1.867 1.867l9.133 9.133H2.666c-1.733 0-1.733 2.667 0 2.667h23.533l-9.133 9.133c-1.2 1.2.667 3.133 1.867 1.867l11.4-11.4.2-.2z"/></symbol><symbol viewBox="0 0 32 32" id="src--assets--icons--cross-gap" xmlns="http://www.w3.org/2000/svg"><path fill="currentColor" d="M12 13.333c-.333 0-.667-.133-.933-.4L1.734 3.6c-1.2-1.2.667-3.133 1.867-1.867l9.333 9.333c.8.8.2 2.267-.933 2.267zM29.333 30.667c-.333 0-.667-.133-.933-.4l-9.333-9.333c-1.2-1.2.667-3.133 1.867-1.867l9.333 9.333c.8.8.2 2.267-.933 2.267zM2.667 30.667c-1.133 0-1.733-1.467-.933-2.267L28.401 1.733c1.2-1.2 3.133.667 1.867 1.867L3.601 30.267c-.267.267-.6.4-.933.4z"/></symbol><symbol viewBox="0 0 14 17" id="src--assets--icons--download" xmlns="http://www.w3.org/2000/svg"><path fill="currentColor" d="M0 17h14v-2H0v2zM14 6h-4V0H4v6H0l7 7 7-7z"/></symbol><symbol viewBox="0 0 16 16" id="src--assets--icons--facebook" xmlns="http://www.w3.org/2000/svg"><title>axa_icon_16</title><path fill="currentColor" d="M6.39 5.88H4.77v2.17h1.62v6.51h2.72V8.05h2l.19-2.17H9.11V5c0-.52.1-.72.6-.72h1.57V1.54H9.21c-2 0-2.82.86-2.82 2.5z"/></symbol><symbol viewBox="0 0 16 16" id="src--assets--icons--instagram" xmlns="http://www.w3.org/2000/svg"><circle fill="currentColor" cx="8" cy="8" r="2.12"/><path fill="currentColor" d="M14.32 5.38a3.51 3.51 0 0 0-3.7-3.7H5.38a3.51 3.51 0 0 0-3.7 3.7v5.24a3.51 3.51 0 0 0 3.7 3.7h5.24a3.51 3.51 0 0 0 3.7-3.7V8c0-1.73.03-1.94 0-2.62zM8 11.46A3.46 3.46 0 1 1 11.46 8 3.46 3.46 0 0 1 8 11.46zm3.59-6.28a.76.76 0 1 1 .76-.76.76.76 0 0 1-.76.76z"/></symbol><symbol viewBox="0 0 16 16" id="src--assets--icons--linkedin" xmlns="http://www.w3.org/2000/svg"><title>axa_icon_16</title><path fill="currentColor" d="M4.36 3.31A1.29 1.29 0 1 1 3.07 2a1.29 1.29 0 0 1 1.29 1.31zm0 2.34H1.77V14h2.6zm4.14 0H5.93V14h2.58V9.62c0-2.43 3.13-2.63 3.13 0V14h2.59V8.71c0-4.1-4.63-4-5.72-1.93z"/></symbol><symbol viewBox="0 0 283.46698 283.46699" id="src--assets--icons--logo-AXA" xmlns="http://www.w3.org/2000/svg"><title>AXA_Logo_Solid_RGB</title><path fill="#00008f" d="M.003.003h283.464v283.464H.003z"/><path fill="#ff1721" d="M175.659 139.99L283.467 0h-15.923L159.38 139.99h16.279z"/><path fill="#fff" d="M216.597 202.461c4.941 13.823 15.122 49.795 19.17 52.661h-26.729a44.571 44.571 0 0 0-1.254-9.434c-1.153-4.111-10.821-35.214-10.821-35.214h-42.456l-6.675 9.463s8.018 25.097 8.515 26.327c.865 2.217 4.693 8.858 4.693 8.858h-25.615s-.664-3.833-.913-5.43c-.2-1.289-2.427-8.349-2.427-8.349s-5.806 6.362-7.388 9.312c-1.596 2.943-2.304 4.467-2.304 4.467h-20.04s-.668-3.833-.917-5.43c-.196-1.289-2.647-8.916-2.647-8.916s-5.61 6.812-7.207 9.756c-1.587 2.95-2.27 4.59-2.27 4.59h-19.82s5.601-5.332 7.559-7.622c3.3-3.882 15.6-19.956 15.6-19.956l-4.931-17.07H45.586s-24.023 31.567-24.97 32.543c-.957.962-7.96 11.011-8.116 12.105H0v-7.949a5.987 5.987 0 0 1 .493-.479c.386-.283 18.213-22.412 34.59-44.233 14.717-19.029 28.526-37.535 29.737-39.297 2.934-4.263 7.163-13.467 7.163-13.467h21.781s.675 8.467 1.31 10.522c.565 1.817 13.837 45.362 14.15 45.831l7.338-9.385-12.543-38.614s-2.94-7.265-3.897-8.354h25.445a22.166 22.166 0 0 0 .83 6.919c1.034 3.184 6.489 22.866 6.489 22.866s17.354-21.753 18.369-23.315a14.1 14.1 0 0 0 2.143-6.47H174.6s-3.881 2.837-10.683 11.44c-2.285 2.896-24.673 31.348-24.673 31.348s1.953 6.66 2.905 9.976c.26.952.44 1.597.44 1.665 0 .03.493-.576 1.343-1.665 5.776-7.32 32.05-41.772 33.643-44.722 1.284-2.382 3.173-5.092 4.282-8.041h20.683s.478 6.176 1.109 7.885zm-31.475-32.612c-3.037 6.533-20.913 28.296-20.913 28.296h28.31s-5.488-16.9-6.445-20.709a30.233 30.233 0 0 1-.557-7.402c0-.346-.063-.908-.395-.185zm-108.775 0c-3.036 6.533-20.912 28.296-20.912 28.296h28.31s-5.483-16.9-6.44-20.709a30.233 30.233 0 0 1-.557-7.402c0-.346-.068-.908-.4-.185zm42.623 65.986l7.793-10.703c-.718-.772-5.107-14.082-5.107-14.082l-7.535 9.775z"/></symbol><symbol viewBox="0 0 32 32" id="src--assets--icons--menu" xmlns="http://www.w3.org/2000/svg"><path fill="currentColor" d="M30.667 6.667H1.334C-.399 6.667-.399 4 1.334 4h29.333c1.733 0 1.733 2.667 0 2.667zM30.667 17.333H1.334c-1.733 0-1.733-2.667 0-2.667h29.333c1.733 0 1.733 2.667 0 2.667zM30.667 28H1.334c-1.733 0-1.733-2.667 0-2.667h29.333c1.733 0 1.733 2.667 0 2.667z"/></symbol><symbol viewBox="0 0 32 32" id="src--assets--icons--search-left" xmlns="http://www.w3.org/2000/svg"><path fill="currentColor" d="M18.2 0C10.333 0 3.867 6.867 4.4 14.733c.2 2.667 1.133 5.2 2.733 7.333l-6.6 6.6c-1.8 1.8 1 4.6 2.8 2.8l6.6-6.6c6 4.467 14.6 3.267 19.133-2.6 4.133-5.333 3.733-13.133-1-18-2.533-2.733-6.133-4.267-9.867-4.267zm0 23.667c-4.067 0-7.867-2.667-9.267-6.467-1.4-3.867-.2-8.333 3-11s7.867-3 11.4-.8c3.467 2.133 5.333 6.333 4.533 10.333-.933 4.533-5 7.933-9.667 7.933z"/></symbol><symbol viewBox="0 0 16 16" id="src--assets--icons--twitter" xmlns="http://www.w3.org/2000/svg"><path fill="currentColor" d="M14.45 4.83a5.29 5.29 0 0 1-1.52.42 2.65 2.65 0 0 0 1.17-1.47 5.3 5.3 0 0 1-1.68.64A2.65 2.65 0 0 0 7.9 6.84a7.52 7.52 0 0 1-5.45-2.77 2.65 2.65 0 0 0 .82 3.54 2.64 2.64 0 0 1-1.2-.33 2.65 2.65 0 0 0 2.12 2.63A2.65 2.65 0 0 1 3 10a2.65 2.65 0 0 0 2.47 1.84 5.32 5.32 0 0 1-3.92 1.1A7.53 7.53 0 0 0 13.13 6.2a5.39 5.39 0 0 0 1.32-1.37z"/></symbol><symbol viewBox="0 0 24 24" id="src--assets--icons--xing" xmlns="http://www.w3.org/2000/svg"><path fill="currentColor" d="M17.67 2c-.43 0-.62.27-.77.55 0 0-6.22 11.02-6.4 11.38l4.08 7.52c.14.26.36.55.8.55h2.88c.18 0 .31-.07.38-.18.08-.13.08-.29 0-.45l-4.07-7.45 6.39-11.29a.48.48 0 0 0 .01-.45.458.458 0 0 0-.39-.18M5.55 5.95c-.17 0-.32.05-.39.18-.08.13-.07.28.02.44l1.94 3.4-3.06 5.4c-.06.16-.06.32 0 .45.07.12.2.18.37.18h2.89c.43 0 .64-.28.79-.55 0 0 2.99-5.29 3.11-5.5L9.24 6.5c-.14-.26-.36-.55-.81-.55"/></symbol><symbol viewBox="0 0 16 16" id="src--assets--icons--youtube" xmlns="http://www.w3.org/2000/svg"><title>axa_icon_16</title><path fill="currentColor" d="M12.39 2.92c-2.08-.14-6.7-.14-8.78 0C1.36 3.07 1.1 4.43 1.08 8s.28 4.93 2.53 5.08c2.07.14 6.7.14 8.78 0 2.25-.15 2.51-1.51 2.53-5.08s-.28-4.93-2.53-5.08zm-6.12 7.39V5.69L10.88 8z"/></symbol></svg>