<svg xmlns="http://www.w3.org/2000/svg" viewBox="0 0 96 96"><defs><style>.cls-2{fill:none;stroke:#00008f;stroke-linecap:round;stroke-linejoin:round;stroke-width:2px}</style></defs><g id="Layer_2" data-name="Layer 2"><g id="icons"><path fill="currentColor" d="M0 0h96v96H0z"/><path class="cls-2" d="M42 16.5L24.98 69M71.02 69L54 16.5M71 69c0 3.87-10.31 7-23 7s-23-3.13-23-7"/><ellipse class="cls-2" cx="48" cy="16.5" rx="6" ry="2.5"/><path class="cls-2" d="M27.55 61h-4.64a3 3 0 0 0-2.73 1.76l-7 16.46A2 2 0 0 0 15 82h66a2 2 0 0 0 1.84-2.78l-7-16.46A3 3 0 0 0 73.09 61h-4.67M63.82 46.79C61.32 49.25 55.18 51 48 51s-13.33-1.74-15.82-4.21M58.38 30c-2.08 1.78-6 3-10.38 3s-8.3-1.2-10.38-3"/><path class="cls-2" d="M68.39 60.91C65.11 63.89 57.22 66 48 66s-17.11-2.11-20.39-5.09"/></g></g></svg>