<svg xmlns="http://www.w3.org/2000/svg" viewBox="0 0 96 96"><defs><style>.cls-1{fill:#fff;}.cls-2{fill:none;stroke:#00008f;stroke-linecap:round;stroke-linejoin:round;stroke-width:2px;}</style></defs><title>Accident</title><g id="Layer_2" data-name="Layer 2"><g id="icons"><rect class="cls-1" width="96" height="96"/><line class="cls-2" x1="42" y1="16.5" x2="24.98" y2="69"/><line class="cls-2" x1="71.02" y1="69" x2="54" y2="16.5"/><path class="cls-2" d="M71,69c0,3.87-10.31,7-23,7s-23-3.13-23-7"/><ellipse class="cls-2" cx="48" cy="16.5" rx="6" ry="2.5"/><path class="cls-2" d="M27.55,61H22.91a3,3,0,0,0-2.73,1.76l-7,16.46A2,2,0,0,0,15,82H81a2,2,0,0,0,1.84-2.78l-7-16.46A3,3,0,0,0,73.09,61H68.42"/><path class="cls-2" d="M63.82,46.79C61.32,49.25,55.18,51,48,51s-13.33-1.74-15.82-4.21"/><path class="cls-2" d="M58.38,30c-2.08,1.78-6,3-10.38,3s-8.3-1.2-10.38-3"/><path class="cls-2" d="M68.39,60.91C65.11,63.89,57.22,66,48,66s-17.11-2.11-20.39-5.09"/></g></g></svg>