<svg xmlns="http://www.w3.org/2000/svg" viewBox="0 0 96 96"><defs><style>.cls-2{fill:none;stroke:#00008f;stroke-linecap:round;stroke-linejoin:round;stroke-width:2px}</style></defs><g id="Layer_2" data-name="Layer 2"><g id="icons"><path fill="currentColor" d="M0 0h96v96H0z"/><path class="cls-2" d="M24 68l1-30M31 38l1 30M51 38l1 30M44 68l1-30M19 73v-5h58v5"/><circle class="cls-2" cx="48" cy="25" r="3"/><path class="cls-2" d="M15 73h66v5H15zM19 33v5h40.29"/><circle class="cls-2" cx="71" cy="32" r="13"/><path class="cls-2" d="M64 30h7M64 34h7M75 26.56A4.84 4.84 0 0 0 71.54 25C68.48 25 66 28.13 66 32s2.48 7 5.54 7A4.84 4.84 0 0 0 75 37.44M58 32a13 13 0 0 1 3-8.35L48 16 19 33h39.05c-.05-.33-.05-.66-.05-1zM72 68l-.9-23.01M65.02 43.55L64 68"/></g></g></svg>