<svg xmlns="http://www.w3.org/2000/svg" viewBox="0 0 96 96"><defs><style>.cls-1{fill:#fff;}.cls-2{fill:none;stroke:#00008f;stroke-linecap:round;stroke-linejoin:round;stroke-width:2px;}</style></defs><title>Bank Yen</title><g id="Layer_2" data-name="Layer 2"><g id="icons"><rect class="cls-1" width="96" height="96"/><line class="cls-2" x1="24" y1="68" x2="25" y2="38"/><line class="cls-2" x1="31" y1="38" x2="32" y2="68"/><line class="cls-2" x1="51" y1="38" x2="52" y2="68"/><line class="cls-2" x1="44" y1="68" x2="45" y2="38"/><polyline class="cls-2" points="19 73 19 68 77 68 77 73"/><circle class="cls-2" cx="48" cy="25" r="3"/><rect class="cls-2" x="15" y="73" width="66" height="5"/><polyline class="cls-2" points="19 33 19 38 59 38"/><polyline class="cls-2" points="61.05 23.65 48 16 19 33 58.05 33"/><line class="cls-2" x1="72" y1="68" x2="71.1" y2="44.99"/><line class="cls-2" x1="65.02" y1="43.54" x2="64" y2="68"/><circle class="cls-2" cx="71" cy="32" r="13"/><line class="cls-2" x1="71" y1="31" x2="71" y2="41"/><polyline class="cls-2" points="66 25 71 31 76 25"/><line class="cls-2" x1="66" y1="32" x2="76" y2="32"/><line class="cls-2" x1="66" y1="37" x2="76" y2="37"/></g></g></svg>