<svg xmlns="http://www.w3.org/2000/svg" viewBox="0 0 96 96"><defs><style>.cls-1{fill:#fff;}.cls-2{fill:none;stroke:#00008f;stroke-linecap:round;stroke-linejoin:round;stroke-width:2px;}</style></defs><title>Bank Dollar</title><g id="Layer_2" data-name="Layer 2"><g id="icons"><rect class="cls-1" width="96" height="96"/><line class="cls-2" x1="24" y1="68" x2="25" y2="38"/><line class="cls-2" x1="31" y1="38" x2="32" y2="68"/><line class="cls-2" x1="51" y1="38" x2="52" y2="68"/><line class="cls-2" x1="44" y1="68" x2="45" y2="38"/><polyline class="cls-2" points="19 73 19 68 77 68 77 73"/><circle class="cls-2" cx="48" cy="25" r="3"/><rect class="cls-2" x="15" y="73" width="66" height="5"/><polyline class="cls-2" points="19 33 19 38 59 38"/><circle class="cls-2" cx="71" cy="32" r="13"/><path class="cls-2" d="M58,32a13,13,0,0,1,3-8.35L48,16,19,33H58.05C58,32.67,58,32.34,58,32Z"/><line class="cls-2" x1="72" y1="68" x2="71.1" y2="44.99"/><line class="cls-2" x1="65.02" y1="43.54" x2="64" y2="68"/><line class="cls-2" x1="71" y1="23" x2="71" y2="41"/><path class="cls-2" d="M67.07,36.38A3.84,3.84,0,0,0,71,39c2.21,0,4-1.41,4-3.15a2,2,0,0,0-.18-.8,3.19,3.19,0,0,0-1.2-1.33L71,32l-2.62-1.72A3.19,3.19,0,0,1,67.18,29a2,2,0,0,1-.18-.8C67,26.41,68.79,25,71,25a3.83,3.83,0,0,1,3.93,2.63"/></g></g></svg>