<svg xmlns="http://www.w3.org/2000/svg" viewBox="0 0 96 96"><defs><style>.cls-2{fill:none;stroke:#00008f;stroke-linecap:round;stroke-linejoin:round;stroke-width:2px}</style></defs><g id="Layer_2" data-name="Layer 2"><g id="icons"><path fill="currentColor" d="M0 0h96v96H0z"/><path class="cls-2" d="M24 68l1-30M31 38l1 30M51 38l1 30M44 68l1-30M19 73v-5h58v5"/><circle class="cls-2" cx="48" cy="25" r="3"/><path class="cls-2" d="M15 73h66v5H15zM19 33v5h40"/><circle class="cls-2" cx="71" cy="32" r="13"/><path class="cls-2" d="M58 32a13 13 0 0 1 3-8.35L48 16 19 33h39.05c-.05-.33-.05-.66-.05-1zM72 68l-.9-23.01M65.02 43.54L64 68M71 23v18M67.07 36.38A3.84 3.84 0 0 0 71 39c2.21 0 4-1.41 4-3.15a2 2 0 0 0-.18-.8 3.19 3.19 0 0 0-1.2-1.33L71 32l-2.62-1.72a3.19 3.19 0 0 1-1.2-1.28 2 2 0 0 1-.18-.8c0-1.79 1.79-3.2 4-3.2a3.83 3.83 0 0 1 3.93 2.63"/></g></g></svg>