<svg xmlns="http://www.w3.org/2000/svg" viewBox="0 0 96 96"><defs><style>.cls-2{fill:none;stroke:#00008f;stroke-linecap:round;stroke-linejoin:round;stroke-width:2px}</style></defs><g id="Layer_2" ><g id="icons"><path class="cls-2" d="M24 68l1-30M31 38l1 30M51 38l1 30M44 68l1-30M19 73v-5h58v5"/><circle class="cls-2" cx="48" cy="25" r="3"/><path class="cls-2" d="M15 73h66v5H15zM19 33v5h40M61.05 23.65L48 16 19 33h39.05M72 68l-.9-23.01M65.02 43.54L64 68"/><circle class="cls-2" cx="71" cy="32" r="13"/><path class="cls-2" d="M71 31v10M66 25l5 6 5-6M66 32h10M66 37h10"/></g></g></svg>