<svg xmlns="http://www.w3.org/2000/svg" viewBox="0 0 96 96"><defs><style>.cls-1{fill:#fff;}.cls-2{fill:none;stroke:#00008f;stroke-linecap:round;stroke-linejoin:round;stroke-width:2px;}</style></defs><title>Bank Euro</title><g id="Layer_2" data-name="Layer 2"><g id="icons"><rect class="cls-1" width="96" height="96"/><line class="cls-2" x1="24" y1="68" x2="25" y2="38"/><line class="cls-2" x1="31" y1="38" x2="32" y2="68"/><line class="cls-2" x1="51" y1="38" x2="52" y2="68"/><line class="cls-2" x1="44" y1="68" x2="45" y2="38"/><polyline class="cls-2" points="19 73 19 68 77 68 77 73"/><circle class="cls-2" cx="48" cy="25" r="3"/><rect class="cls-2" x="15" y="73" width="66" height="5"/><polyline class="cls-2" points="19 33 19 38 59.29 38"/><circle class="cls-2" cx="71" cy="32" r="13"/><line class="cls-2" x1="64" y1="30" x2="71" y2="30"/><line class="cls-2" x1="64" y1="34" x2="71" y2="34"/><path class="cls-2" d="M75,26.56A4.84,4.84,0,0,0,71.54,25C68.48,25,66,28.13,66,32s2.48,7,5.54,7A4.84,4.84,0,0,0,75,37.44"/><path class="cls-2" d="M58,32a13,13,0,0,1,3-8.35L48,16,19,33H58.05C58,32.67,58,32.34,58,32Z"/><line class="cls-2" x1="72" y1="68" x2="71.1" y2="44.99"/><line class="cls-2" x1="65.02" y1="43.55" x2="64" y2="68"/></g></g></svg>