<svg xmlns="http://www.w3.org/2000/svg" viewBox="0 0 96 96"><g fill="none" stroke="currentColor" stroke-linecap="round" stroke-linejoin="round" stroke-width="2"><rect x="10" y="35" width="66" height="36" rx="1"/><path d="M15 35v-4a1 1 0 0 1 1-1h64a1 1 0 0 1 1 1v34a1 1 0 0 1-1 1h-4"/><path d="M20 30v-4a1 1 0 0 1 1-1h64a1 1 0 0 1 1 1v34a1 1 0 0 1-1 1h-4"/><path d="M67 40H19a4 4 0 0 1-4 4v18a4 4 0 0 1 4 4h48a4 4 0 0 1 4-4V44a4 4 0 0 1-4-4z"/><circle cx="43" cy="53" r="13"/><path d="M65 53h-4m-36 0h-4m15-2h7m-7 4h7m4-7.44A4.84 4.84 0 0 0 43.54 46C40.48 46 38 49.13 38 53s2.48 7 5.54 7A4.84 4.84 0 0 0 47 58.44"/></g></svg>