<svg xmlns="http://www.w3.org/2000/svg" viewBox="0 0 96 96"><defs><style>.cls-1{fill:#fff;}.cls-2{fill:none;stroke:#00008f;stroke-linecap:round;stroke-linejoin:round;stroke-width:2px;}</style></defs><title>Bills Dollar</title><g id="Layer_2" data-name="Layer 2"><g id="icons"><rect class="cls-1" width="96" height="96"/><rect class="cls-2" x="10" y="35" width="66" height="36" rx="1"/><path class="cls-2" d="M15,35V31a1,1,0,0,1,1-1H80a1,1,0,0,1,1,1V65a1,1,0,0,1-1,1H76"/><path class="cls-2" d="M20,30V26a1,1,0,0,1,1-1H85a1,1,0,0,1,1,1V60a1,1,0,0,1-1,1H81"/><path class="cls-2" d="M67,40H19a4,4,0,0,1-4,4V62a4,4,0,0,1,4,4H67a4,4,0,0,1,4-4V44A4,4,0,0,1,67,40Z"/><circle class="cls-2" cx="43" cy="53" r="13"/><line class="cls-2" x1="65" y1="53" x2="61" y2="53"/><line class="cls-2" x1="25" y1="53" x2="21" y2="53"/><line class="cls-2" x1="43" y1="44" x2="43" y2="62"/><path class="cls-2" d="M39.07,57.38A3.84,3.84,0,0,0,43,60c2.21,0,4-1.41,4-3.15a2,2,0,0,0-.18-.8,3.19,3.19,0,0,0-1.2-1.33L43,53l-2.62-1.72A3.19,3.19,0,0,1,39.18,50a2,2,0,0,1-.18-.8C39,47.41,40.79,46,43,46a3.83,3.83,0,0,1,3.93,2.63"/></g></g></svg>