<svg xmlns="http://www.w3.org/2000/svg" viewBox="0 0 96 96"><g fill="none" stroke="#00008f" stroke-linecap="round" stroke-linejoin="round" stroke-width="2"><rect x="10" y="35" width="66" height="36" rx="1"/><path d="M15 35v-4a1 1 0 0 1 1-1h64a1 1 0 0 1 1 1v34a1 1 0 0 1-1 1h-4"/><path d="M20 30v-4a1 1 0 0 1 1-1h64a1 1 0 0 1 1 1v34a1 1 0 0 1-1 1h-4"/><path d="M67 40H19a4 4 0 0 1-4 4v18a4 4 0 0 1 4 4h48a4 4 0 0 1 4-4V44a4 4 0 0 1-4-4z"/><circle cx="43" cy="53" r="13"/><path d="M65 53h-4m-36 0h-4m22-9v18m-3.93-4.62A3.84 3.84 0 0 0 43 60c2.21 0 4-1.41 4-3.15a2 2 0 0 0-.18-.8 3.19 3.19 0 0 0-1.2-1.33L43 53l-2.62-1.72a3.19 3.19 0 0 1-1.2-1.28 2 2 0 0 1-.18-.8c0-1.79 1.79-3.2 4-3.2a3.83 3.83 0 0 1 3.93 2.63"/></g></svg>