<svg xmlns="http://www.w3.org/2000/svg" viewBox="0 0 96 96"><g fill="none" stroke="#00008f" stroke-linecap="round" stroke-linejoin="round" stroke-width="2"><rect x="10" y="35" width="66" height="36" rx="1"/><path d="M15 35v-4a1 1 0 0 1 1-1h64a1 1 0 0 1 1 1v34a1 1 0 0 1-1 1h-4"/><path d="M20 30v-4a1 1 0 0 1 1-1h64a1 1 0 0 1 1 1v34a1 1 0 0 1-1 1h-4"/><path d="M67 40H19a4 4 0 0 1-4 4v18a4 4 0 0 1 4 4h48a4 4 0 0 1 4-4V44a4 4 0 0 1-4-4zm-2 13h-4m-36 0h-4"/><circle cx="43" cy="53" r="13"/><path d="M40 49v3.88a10.33 10.33 0 0 1-1.73 5.72L38 59h9m-9-6h6m-4-4a3 3 0 0 1 6 0"/></g></svg>