<svg xmlns="http://www.w3.org/2000/svg" viewBox="0 0 96 96"><defs><style>.cls-1{fill:#fff;}.cls-2{fill:none;stroke:#00008f;stroke-linecap:round;stroke-linejoin:round;stroke-width:2px;}</style></defs><title>Change Investments</title><g id="Layer_2" data-name="Layer 2"><g id="icons"><rect class="cls-1" width="96" height="96"/><path class="cls-2" d="M52.92,14.88a27,27,0,1,0,3.74,6"/><path class="cls-2" d="M43.08,81.12A27,27,0,1,0,64,36.94a26.71,26.71,0,0,0-5.47.56,27,27,0,0,1-21,21,27.07,27.07,0,0,0,1.84,16.62"/><polyline class="cls-2" points="43.09 88.54 43.09 81.17 50.46 81.17"/><polyline class="cls-2" points="52.91 7.46 52.91 14.83 45.54 14.83"/><line class="cls-2" x1="32.03" y1="14.83" x2="32.03" y2="49.23"/><path class="cls-2" d="M24.51,40.39c.61,2.84,3.73,5,7.52,5,4.22,0,7.64-2.7,7.64-6a3.92,3.92,0,0,0-.34-1.54A6.15,6.15,0,0,0,37,35.31L32,32l-5-3.28a6.08,6.08,0,0,1-2.3-2.54,3.93,3.93,0,0,1-.35-1.54c0-3.32,3.43-6,7.65-6,3.78,0,6.91,2.17,7.51,5"/><line class="cls-2" x1="63.97" y1="50.21" x2="63.97" y2="77.73"/><path class="cls-2" d="M58,70.66c.49,2.28,3,4,6,4,3.38,0,6.12-2.15,6.12-4.81a3.07,3.07,0,0,0-.28-1.23,4.78,4.78,0,0,0-1.84-2L64,64l-4-2.62a4.92,4.92,0,0,1-1.84-2,3,3,0,0,1-.27-1.22c0-2.66,2.73-4.82,6.11-4.82,3,0,5.53,1.74,6,4"/></g></g></svg>