<svg xmlns="http://www.w3.org/2000/svg" viewBox="0 0 96 96"><defs><style>.cls-1{fill:#fff;}.cls-2{fill:none;stroke:#00008f;stroke-linecap:round;stroke-linejoin:round;stroke-width:2px;}</style></defs><title>Coins Dollar</title><g id="Layer_2" data-name="Layer 2"><g id="icons"><rect class="cls-1" width="96" height="96"/><path class="cls-2" d="M77,29V22a1,1,0,0,0-1-1H36a1,1,0,0,0-1,1v6a1,1,0,0,0,1,1h3"/><path class="cls-2" d="M38,33V30a1,1,0,0,1,1-1H79a1,1,0,0,1,1,1v6a1,1,0,0,1-1,1H47.65"/><line class="cls-2" x1="75" y1="37" x2="75" y2="45"/><path class="cls-2" d="M54.6,45H79a1.08,1.08,0,0,1,1,1.14v5.72A1.08,1.08,0,0,1,79,53H57"/><path class="cls-2" d="M77,53v6.86A1.08,1.08,0,0,1,76,61H56.17"/><line class="cls-2" x1="75" y1="61" x2="75" y2="69"/><path class="cls-2" d="M52,69H77a1.08,1.08,0,0,1,1,1.14v5.72A1.08,1.08,0,0,1,77,77H35"/><circle class="cls-2" cx="35" cy="55" r="22"/><circle class="cls-2" cx="35" cy="55" r="17"/><line class="cls-2" x1="35" y1="44" x2="35" y2="66"/><path class="cls-2" d="M30.08,60c.4,1.7,2.44,3,4.92,3,2.76,0,5-1.61,5-3.6a2.16,2.16,0,0,0-.23-.92A3.77,3.77,0,0,0,38.27,57L35,55l-3.27-2a3.77,3.77,0,0,1-1.5-1.52A2.16,2.16,0,0,1,30,50.6c0-2,2.24-3.6,5-3.6,2.48,0,4.52,1.3,4.92,3"/></g></g></svg>