<svg xmlns="http://www.w3.org/2000/svg" viewBox="0 0 96 96"><defs><style>.cls-1{fill:#fff;}.cls-2{fill:none;stroke:#00008f;stroke-linecap:round;stroke-linejoin:round;stroke-width:2px;}</style></defs><title>Coins Pound</title><g id="Layer_2" data-name="Layer 2"><g id="icons"><rect class="cls-1" width="96" height="96"/><path class="cls-2" d="M77,29V22a1,1,0,0,0-1-1H36a1,1,0,0,0-1,1v6a1,1,0,0,0,1,1h3"/><path class="cls-2" d="M38,33.2V30a1,1,0,0,1,1-1H79a1,1,0,0,1,1,1v6a1,1,0,0,1-1,1H47.65"/><line class="cls-2" x1="75" y1="37" x2="75" y2="45"/><path class="cls-2" d="M54.6,45H79a1.08,1.08,0,0,1,1,1.14v5.72A1.08,1.08,0,0,1,79,53H57"/><path class="cls-2" d="M77,53v6.86A1.08,1.08,0,0,1,76,61H57"/><line class="cls-2" x1="75" y1="61" x2="75" y2="69"/><path class="cls-2" d="M52,69H77a1.08,1.08,0,0,1,1,1.14v5.72A1.08,1.08,0,0,1,77,77H35"/><circle class="cls-2" cx="35" cy="55" r="22"/><circle class="cls-2" cx="35" cy="55" r="17"/><path class="cls-2" d="M31,50v6.88a10.33,10.33,0,0,1-1.73,5.72L29,63H41"/><line class="cls-2" x1="28" y1="55" x2="36" y2="55"/><path class="cls-2" d="M31,50a4.77,4.77,0,0,1,4.5-5A4.77,4.77,0,0,1,40,50"/></g></g></svg>