<svg xmlns="http://www.w3.org/2000/svg" viewBox="0 0 96 96"><g fill="none" stroke="currentColor" stroke-linecap="round" stroke-linejoin="round" stroke-width="2"><path d="M77 29v-7a1 1 0 0 0-1-1H36a1 1 0 0 0-1 1v6a1 1 0 0 0 1 1h3m-1 4v-3a1 1 0 0 1 1-1h40a1 1 0 0 1 1 1v6a1 1 0 0 1-1 1H47.58M75 37v8m-20.4 0H79a1.08 1.08 0 0 1 1 1.14v5.72A1.08 1.08 0 0 1 79 53H57m20 0v6.86A1.08 1.08 0 0 1 76 61H56.12M75 61v8m-23 0h25a1.08 1.08 0 0 1 1 1.14v5.72A1.08 1.08 0 0 1 77 77H35"/><circle cx="35" cy="55" r="22"/><circle cx="35" cy="55" r="17"/><path d="M27 53h8m-8 4h8m4-8.22A5.3 5.3 0 0 0 35.15 47C31.76 47 29 50.58 29 55s2.76 8 6.15 8A5.3 5.3 0 0 0 39 61.22"/></g></svg>