<svg xmlns="http://www.w3.org/2000/svg" viewBox="0 0 96 96"><g fill="none" stroke="#00008f" stroke-linecap="round" stroke-linejoin="round" stroke-width="2"><path d="M77 29v-7a1 1 0 0 0-1-1H36a1 1 0 0 0-1 1v6a1 1 0 0 0 1 1h3m-1 4v-3a1 1 0 0 1 1-1h40a1 1 0 0 1 1 1v6a1 1 0 0 1-1 1H47.65M75 37v8m-20.4 0H79a1.08 1.08 0 0 1 1 1.14v5.72A1.08 1.08 0 0 1 79 53H57m20 0v6.86A1.08 1.08 0 0 1 76 61H56.17M75 61v8m-23 0h25a1.08 1.08 0 0 1 1 1.14v5.72A1.08 1.08 0 0 1 77 77H35"/><circle cx="35" cy="55" r="22"/><circle cx="35" cy="55" r="17"/><path d="M35 44v22m-4.92-6c.4 1.7 2.44 3 4.92 3 2.76 0 5-1.61 5-3.6a2.16 2.16 0 0 0-.23-.92 3.77 3.77 0 0 0-1.5-1.48L35 55l-3.27-2a3.77 3.77 0 0 1-1.5-1.52 2.16 2.16 0 0 1-.23-.88c0-2 2.24-3.6 5-3.6 2.48 0 4.52 1.3 4.92 3"/></g></svg>