<svg xmlns="http://www.w3.org/2000/svg" viewBox="0 0 96 96"><g fill="none" stroke="currentColor" stroke-linecap="round" stroke-linejoin="round" stroke-width="2"><path d="M77 29v-7a1 1 0 0 0-1-1H36a1 1 0 0 0-1 1v6a1 1 0 0 0 1 1h3m-1 4.2V30a1 1 0 0 1 1-1h40a1 1 0 0 1 1 1v6a1 1 0 0 1-1 1H47.65M75 37v8m-20.4 0H79a1.08 1.08 0 0 1 1 1.14v5.72A1.08 1.08 0 0 1 79 53H57m20 0v6.86A1.08 1.08 0 0 1 76 61H57m18 0v8m-23 0h25a1.08 1.08 0 0 1 1 1.14v5.72A1.08 1.08 0 0 1 77 77H35"/><circle cx="35" cy="55" r="22"/><circle cx="35" cy="55" r="17"/><path d="M31 50v6.88a10.33 10.33 0 0 1-1.73 5.72L29 63h12m-13-8h8m-5-5a4.77 4.77 0 0 1 4.5-5 4.77 4.77 0 0 1 4.5 5"/></g></svg>