<svg xmlns="http://www.w3.org/2000/svg" viewBox="0 0 96 96"><defs><style>.cls-2{fill:none;stroke:#00008f;stroke-linecap:round;stroke-linejoin:round;stroke-width:2px}</style></defs><g id="Layer_2" ><g id="icons"><path fill="currentColor" d="M0 0h96v96H0z"/><path class="cls-2" d="M77 29v-7a1 1 0 0 0-1-1H36a1 1 0 0 0-1 1v6a1 1 0 0 0 1 1h3M38 33v-3a1 1 0 0 1 1-1h40a1 1 0 0 1 1 1v6a1 1 0 0 1-1 1H47.65M75 37v8M54.6 45H79a1.08 1.08 0 0 1 1 1.14v5.72A1.08 1.08 0 0 1 79 53H57M77 53v6.86A1.08 1.08 0 0 1 76 61H56.17M75 61v8M52 69h25a1.08 1.08 0 0 1 1 1.14v5.72A1.08 1.08 0 0 1 77 77H35"/><circle class="cls-2" cx="35" cy="55" r="22"/><circle class="cls-2" cx="35" cy="55" r="17"/><path class="cls-2" d="M35 44v22M30.08 60c.4 1.7 2.44 3 4.92 3 2.76 0 5-1.61 5-3.6a2.16 2.16 0 0 0-.23-.92 3.77 3.77 0 0 0-1.5-1.48L35 55l-3.27-2a3.77 3.77 0 0 1-1.5-1.52 2.16 2.16 0 0 1-.23-.88c0-2 2.24-3.6 5-3.6 2.48 0 4.52 1.3 4.92 3"/></g></g></svg>