<svg xmlns="http://www.w3.org/2000/svg" viewBox="0 0 96 96"><defs><style>.cls-2{fill:none;stroke:#00008f;stroke-linecap:round;stroke-linejoin:round;stroke-width:2px}</style></defs><g id="Layer_2" data-name="Layer 2"><g id="icons"><path fill="#fff" d="M0 0h96v96H0z"/><path class="cls-2" d="M77 29v-7a1 1 0 0 0-1-1H36a1 1 0 0 0-1 1v6a1 1 0 0 0 1 1h3M38 33v-3a1 1 0 0 1 1-1h40a1 1 0 0 1 1 1v6a1 1 0 0 1-1 1H47.58M75 37v8M54.6 45H79a1.08 1.08 0 0 1 1 1.14v5.72A1.08 1.08 0 0 1 79 53H57M77 53v6.86A1.08 1.08 0 0 1 76 61H56.12M75 61v8M52 69h25a1.08 1.08 0 0 1 1 1.14v5.72A1.08 1.08 0 0 1 77 77H35"/><circle class="cls-2" cx="35" cy="55" r="22"/><circle class="cls-2" cx="35" cy="55" r="17"/><path class="cls-2" d="M27 53h8M27 57h8M39 48.78A5.3 5.3 0 0 0 35.15 47C31.76 47 29 50.58 29 55s2.76 8 6.15 8A5.3 5.3 0 0 0 39 61.22"/></g></g></svg>