<svg xmlns="http://www.w3.org/2000/svg" viewBox="0 0 96 96"><defs><style>.cls-2{fill:none;stroke:#00008f;stroke-linecap:round;stroke-linejoin:round;stroke-width:2px}</style></defs><g id="Layer_2" data-name="Layer 2"><g id="icons"><path fill="currentColor" d="M0 0h96v96H0z"/><path class="cls-2" d="M77 29v-7a1 1 0 0 0-1-1H36a1 1 0 0 0-1 1v6a1 1 0 0 0 1 1h3M38 33.2V30a1 1 0 0 1 1-1h40a1 1 0 0 1 1 1v6a1 1 0 0 1-1 1H47.65M75 37v8M54.6 45H79a1.08 1.08 0 0 1 1 1.14v5.72A1.08 1.08 0 0 1 79 53H57M77 53v6.86A1.08 1.08 0 0 1 76 61H57M75 61v8M52 69h25a1.08 1.08 0 0 1 1 1.14v5.72A1.08 1.08 0 0 1 77 77H35"/><circle class="cls-2" cx="35" cy="55" r="22"/><circle class="cls-2" cx="35" cy="55" r="17"/><path class="cls-2" d="M31 50v6.88a10.33 10.33 0 0 1-1.73 5.72L29 63h12M28 55h8M31 50a4.77 4.77 0 0 1 4.5-5 4.77 4.77 0 0 1 4.5 5"/></g></g></svg>