<svg xmlns="http://www.w3.org/2000/svg" viewBox="0 0 96 96"><defs><style>.cls-2{fill:none;stroke:#00008f;stroke-linecap:round;stroke-linejoin:round;stroke-width:2px}</style></defs><g id="Layer_2" ><g id="icons"><path class="cls-2" d="M76.16 20.43v21.96M16.52 57.93v-37.5"/><rect class="cls-2" x="11" y="14.91" width="70.69" height="5.51" rx="2.5"/><path class="cls-2" d="M58.45 63.44H13.76A2.76 2.76 0 0 1 11 60.68a2.76 2.76 0 0 1 2.76-2.75h42.69M46.34 14.91V10.5M46.34 85.5V63.44M22.04 85.5l23.2-22.06M70.64 85.5L47.45 63.44M21 26.15l13.61 13.23 6.07-5.51L54.7 47.31"/><path class="cls-2" d="M46.97 47.31h7.73v-7.72"/><ellipse class="cls-2" cx="70.64" cy="55.72" rx="14.36" ry="14.34"/><path class="cls-2" d="M62.91 53.51h7.73M62.91 57.93h7.73M75.06 49.72A5.35 5.35 0 0 0 71.24 48c-3.38 0-6.12 3.46-6.12 7.72s2.74 7.72 6.12 7.72a5.37 5.37 0 0 0 3.82-1.71"/></g></g></svg>