<svg xmlns="http://www.w3.org/2000/svg" viewBox="0 0 96 96"><g fill="none" stroke="currentColor" stroke-linecap="round" stroke-linejoin="round" stroke-width="2"><path d="M76.16 20.43v21.96M16.52 57.93v-37.5"/><rect x="11" y="14.91" width="70.69" height="5.51" rx="2.5"/><path d="M58.45 63.44H13.76A2.76 2.76 0 0 1 11 60.68a2.76 2.76 0 0 1 2.76-2.75h42.69M46.34 14.91V10.5m0 75V63.44M22.04 85.5l23.2-22.06m25.4 22.06L47.45 63.44M21 26.15l13.61 13.23 6.07-5.51L54.7 47.31"/><path d="M46.97 47.31h7.73v-7.72"/><ellipse cx="70.64" cy="55.72" rx="14.36" ry="14.34"/><path d="M62.91 53.51h7.73m-7.73 4.42h7.73m4.42-8.21A5.35 5.35 0 0 0 71.24 48c-3.38 0-6.12 3.46-6.12 7.72s2.74 7.72 6.12 7.72a5.37 5.37 0 0 0 3.82-1.71"/></g></svg>