<svg xmlns="http://www.w3.org/2000/svg" viewBox="0 0 96 96"><defs><style>.cls-1{fill:#fff;}.cls-2{fill:none;stroke:#00008f;stroke-linecap:round;stroke-linejoin:round;stroke-width:2px;}</style></defs><title>Financial Loss 2</title><g id="Layer_2" data-name="Layer 2"><g id="icons"><rect class="cls-1" width="96" height="96"/><line class="cls-2" x1="79.07" y1="15.8" x2="79.07" y2="56.52"/><line class="cls-2" x1="16.41" y1="68.13" x2="16.43" y2="15.8"/><rect class="cls-2" x="10.91" y="10.29" width="74.19" height="5.51" rx="2.5"/><path class="cls-2" d="M68.35,74.07H13.67a2.76,2.76,0,0,1-2.76-2.76h0a2.76,2.76,0,0,1,2.76-2.76H64.36"/><line class="cls-2" x1="47.75" y1="10.29" x2="47.75" y2="5.88"/><line class="cls-2" x1="47.75" y1="90.12" x2="47.75" y2="74.07"/><line class="cls-2" x1="23.45" y1="90.12" x2="46.65" y2="74.07"/><line class="cls-2" x1="72.05" y1="90.13" x2="48.85" y2="74.07"/><polyline class="cls-2" points="43.41 31.77 55.02 43.01 61.09 37.49 75.11 50.93"/><polyline class="cls-2" points="67.38 50.93 75.11 50.93 75.11 43.21"/><ellipse class="cls-2" cx="74.96" cy="66.35" rx="10.03" ry="10.22"/><line class="cls-2" x1="69.55" y1="64.77" x2="74.96" y2="64.77"/><line class="cls-2" x1="69.55" y1="67.92" x2="74.96" y2="67.92"/><path class="cls-2" d="M78,62.07a3.66,3.66,0,0,0-2.67-1.23c-2.36,0-4.27,2.47-4.27,5.51s1.91,5.5,4.27,5.5A3.69,3.69,0,0,0,78,70.63"/><rect class="cls-2" x="20.91" y="27.14" width="18.2" height="41.4"/><line class="cls-2" x1="25.46" y1="59.08" x2="34.56" y2="59.08"/><line class="cls-2" x1="27.38" y1="68.18" x2="27.38" y2="59.08"/><line class="cls-2" x1="32.63" y1="68.18" x2="32.63" y2="59.08"/><rect class="cls-2" x="24.06" y="22.68" width="11.9" height="4.45"/><line class="cls-2" x1="30.01" y1="19.53" x2="30.01" y2="22.33"/><circle class="cls-2" cx="25.35" cy="31.68" r="1.4"/><circle class="cls-2" cx="30.07" cy="31.68" r="1.4"/><circle class="cls-2" cx="34.8" cy="31.68" r="1.4"/><circle class="cls-2" cx="25.35" cy="38.57" r="1.4"/><circle class="cls-2" cx="30.07" cy="38.57" r="1.4"/><circle class="cls-2" cx="34.8" cy="38.57" r="1.4"/><circle class="cls-2" cx="25.35" cy="45.45" r="1.4"/><circle class="cls-2" cx="30.07" cy="45.45" r="1.4"/><circle class="cls-2" cx="34.8" cy="45.45" r="1.4"/><circle class="cls-2" cx="25.35" cy="52.33" r="1.4"/><circle class="cls-2" cx="30.07" cy="52.33" r="1.4"/><circle class="cls-2" cx="34.8" cy="52.33" r="1.4"/></g></g></svg>