<svg xmlns="http://www.w3.org/2000/svg" viewBox="0 0 96 96"><defs><style>.cls-1{fill:#fff;}.cls-2{fill:none;stroke:#00008f;stroke-linecap:round;stroke-linejoin:round;stroke-width:2px;}</style></defs><title>Financial Loss</title><g id="Layer_2" data-name="Layer 2"><g id="icons"><rect class="cls-1" width="96" height="96"/><line class="cls-2" x1="76.16" y1="20.43" x2="76.16" y2="42.39"/><line class="cls-2" x1="16.52" y1="57.93" x2="16.52" y2="20.43"/><rect class="cls-2" x="11" y="14.91" width="70.69" height="5.51" rx="2.5"/><path class="cls-2" d="M58.45,63.44H13.76A2.76,2.76,0,0,1,11,60.68h0a2.76,2.76,0,0,1,2.76-2.75H56.45"/><line class="cls-2" x1="46.34" y1="14.91" x2="46.34" y2="10.5"/><line class="cls-2" x1="46.34" y1="85.5" x2="46.34" y2="63.44"/><line class="cls-2" x1="22.04" y1="85.5" x2="45.24" y2="63.44"/><line class="cls-2" x1="70.64" y1="85.5" x2="47.45" y2="63.44"/><polyline class="cls-2" points="21 26.15 34.61 39.38 40.68 33.87 54.7 47.31"/><polyline class="cls-2" points="46.97 47.31 54.7 47.31 54.7 39.59"/><ellipse class="cls-2" cx="70.64" cy="55.72" rx="14.36" ry="14.34"/><line class="cls-2" x1="62.91" y1="53.51" x2="70.64" y2="53.51"/><line class="cls-2" x1="62.91" y1="57.93" x2="70.64" y2="57.93"/><path class="cls-2" d="M75.06,49.72A5.35,5.35,0,0,0,71.24,48c-3.38,0-6.12,3.46-6.12,7.72s2.74,7.72,6.12,7.72a5.37,5.37,0,0,0,3.82-1.71"/></g></g></svg>