<svg xmlns="http://www.w3.org/2000/svg" viewBox="0 0 96 96"><defs><style>.cls-2{fill:none;stroke:#00008f;stroke-linecap:round;stroke-linejoin:round;stroke-width:2px}</style></defs><g id="Layer_2" data-name="Layer 2"><g id="icons"><path fill="currentColor" d="M0 0h96v96H0z"/><path class="cls-2" d="M75 23v19.92M21 57V23"/><rect class="cls-2" x="16" y="18" width="64" height="5" rx="2.5"/><path class="cls-2" d="M59 62H18.5a2.5 2.5 0 0 1-2.5-2.5 2.5 2.5 0 0 1 2.5-2.5h38.65M48 18v-4M48 82V62M26 82l21-20M70 82L49 62M28 51l13-12 5.49 5L61 30"/><path class="cls-2" d="M54 30h7v7"/><circle class="cls-2" cx="70" cy="55" r="13"/><path class="cls-2" d="M70 54v10M65 48l5 6 5-6M65 55h10M65 60h10"/></g></g></svg>