<svg xmlns="http://www.w3.org/2000/svg" viewBox="0 0 96 96"><defs><style>.cls-1{fill:#fff;}.cls-2{fill:none;stroke:#00008f;stroke-linecap:round;stroke-linejoin:round;stroke-width:2px;}</style></defs><title>Growth Euro</title><g id="Layer_2" data-name="Layer 2"><g id="icons"><rect class="cls-1" width="96" height="96"/><line class="cls-2" x1="75" y1="23" x2="75" y2="42.92"/><line class="cls-2" x1="21" y1="57" x2="21" y2="23"/><rect class="cls-2" x="16" y="18" width="64" height="5" rx="2.5"/><path class="cls-2" d="M59,62H18.5A2.5,2.5,0,0,1,16,59.5h0A2.5,2.5,0,0,1,18.5,57H57.15"/><line class="cls-2" x1="48" y1="18" x2="48" y2="14"/><line class="cls-2" x1="48" y1="82" x2="48" y2="62"/><line class="cls-2" x1="26" y1="82" x2="47" y2="62"/><line class="cls-2" x1="70" y1="82" x2="49" y2="62"/><polyline class="cls-2" points="28 51 41 39 46.49 44 61 30"/><polyline class="cls-2" points="54 30 61 30 61 37"/><circle class="cls-2" cx="70" cy="55" r="13"/><line class="cls-2" x1="63" y1="53" x2="70" y2="53"/><line class="cls-2" x1="63" y1="57" x2="70" y2="57"/><path class="cls-2" d="M74,49.56A4.84,4.84,0,0,0,70.54,48C67.48,48,65,51.13,65,55s2.48,7,5.54,7A4.84,4.84,0,0,0,74,60.44"/></g></g></svg>