<svg xmlns="http://www.w3.org/2000/svg" viewBox="0 0 96 96"><defs><style>.cls-2{fill:none;stroke:#00008f;stroke-linecap:round;stroke-linejoin:round;stroke-width:2px}</style></defs><g id="Layer_2" ><g id="icons"><path fill="currentColor" d="M0 0h96v96H0z"/><path class="cls-2" d="M75 23v19.92M21 57V23"/><rect class="cls-2" x="16" y="18" width="64" height="5" rx="2.5"/><path class="cls-2" d="M59 62H18.5a2.5 2.5 0 0 1-2.5-2.5 2.5 2.5 0 0 1 2.5-2.5h38.65M48 18v-4M48 82V62M26 82l21-20M70 82L49 62M28 51l13-12 5.49 5L61 30"/><path class="cls-2" d="M54 30h7v7"/><circle class="cls-2" cx="70" cy="55" r="13"/><path class="cls-2" d="M70 46v18M66.07 59.38A3.84 3.84 0 0 0 70 62c2.21 0 4-1.41 4-3.15a2 2 0 0 0-.18-.8 3.19 3.19 0 0 0-1.2-1.33L70 55l-2.62-1.72a3.19 3.19 0 0 1-1.2-1.28 2 2 0 0 1-.18-.8c0-1.79 1.79-3.2 4-3.2a3.83 3.83 0 0 1 3.93 2.63"/></g></g></svg>