<svg xmlns="http://www.w3.org/2000/svg" viewBox="0 0 96 96"><g fill="none" stroke="currentColor" stroke-linecap="round" stroke-linejoin="round" stroke-width="2"><path d="M75 23v19.92M21 57V23"/><rect x="16" y="18" width="64" height="5" rx="2.5"/><path d="M59 62H18.5a2.5 2.5 0 0 1-2.5-2.5 2.5 2.5 0 0 1 2.5-2.5h38.65M48 18v-4m0 68V62M26 82l21-20m23 20L49 62M28 51l13-12 5.49 5L61 30"/><path d="M54 30h7v7"/><circle cx="70" cy="55" r="13"/><path d="M70 46v18m-3.93-4.62A3.84 3.84 0 0 0 70 62c2.21 0 4-1.41 4-3.15a2 2 0 0 0-.18-.8 3.19 3.19 0 0 0-1.2-1.33L70 55l-2.62-1.72a3.19 3.19 0 0 1-1.2-1.28 2 2 0 0 1-.18-.8c0-1.79 1.79-3.2 4-3.2a3.83 3.83 0 0 1 3.93 2.63"/></g></svg>