<svg xmlns="http://www.w3.org/2000/svg" viewBox="0 0 96 96"><g fill="none" stroke="currentColor" stroke-linecap="round" stroke-linejoin="round" stroke-width="2"><path d="M21 77h26.7a6 6 0 0 1 6 6H15a6 6 0 0 1 6-6zm2.1-6.05h22.5a2 2 0 0 1 2 2v4H21.1v-4a2 2 0 0 1 2-2zm37.78-36.28l-15.49-17.1L24.21 36.5 39.7 53.6l21.18-18.93z"/><path d="M80.23 72.71l-27.67-30.6-4.54 4 27.67 30.6A3.05 3.05 0 0 0 80 77a3 3 0 0 0 .23-4.29zM40 54L23.87 36.13A2.55 2.55 0 0 0 20.3 36a2.5 2.5 0 0 0-.21 3.54l16.16 17.81a2.54 2.54 0 0 0 3.58.17A2.5 2.5 0 0 0 40 54zm25-22.33L48.84 13.82a2.56 2.56 0 0 0-3.58-.17 2.49 2.49 0 0 0-.2 3.54L61.22 35a2.53 2.53 0 0 0 3.57.17 2.49 2.49 0 0 0 .21-3.5zm-9.57 22.67l4.54-4.05"/></g></svg>