<svg xmlns="http://www.w3.org/2000/svg" viewBox="0 0 96 96"><defs><style>.cls-1{fill:#fff;}.cls-2{fill:none;stroke:#00008f;stroke-linecap:round;stroke-linejoin:round;stroke-width:2px;}</style></defs><title>Legal</title><g id="Layer_2" data-name="Layer 2"><g id="icons"><rect class="cls-1" width="96" height="96"/><path class="cls-2" d="M21,77H47.7a6,6,0,0,1,6,6v0a0,0,0,0,1,0,0H15a0,0,0,0,1,0,0v0A6,6,0,0,1,21,77Z"/><path class="cls-2" d="M23.1,70.95H45.6a2,2,0,0,1,2,2v4a0,0,0,0,1,0,0H21.1a0,0,0,0,1,0,0v-4A2,2,0,0,1,23.1,70.95Z"/><polygon class="cls-2" points="60.88 34.67 45.39 17.57 24.21 36.5 39.7 53.6 60.88 34.67"/><path class="cls-2" d="M80.23,72.71,52.56,42.11l-4.54,4,27.67,30.6A3.05,3.05,0,0,0,80,77h0A3,3,0,0,0,80.23,72.71Z"/><path class="cls-2" d="M40,54,23.87,36.13A2.55,2.55,0,0,0,20.3,36h0a2.5,2.5,0,0,0-.21,3.54L36.25,57.35a2.54,2.54,0,0,0,3.58.17h0A2.5,2.5,0,0,0,40,54Z"/><path class="cls-2" d="M65,31.67,48.84,13.82a2.56,2.56,0,0,0-3.58-.17h0a2.49,2.49,0,0,0-.2,3.54L61.22,35a2.53,2.53,0,0,0,3.57.17h0A2.49,2.49,0,0,0,65,31.67Z"/><line class="cls-2" x1="55.43" y1="54.34" x2="59.97" y2="50.29"/></g></g></svg>