<svg xmlns="http://www.w3.org/2000/svg" viewBox="0 0 72.99 77"><defs><style>.cls-1{fill:none;stroke:#00008f;stroke-linecap:round;stroke-linejoin:round;stroke-width:2px;}</style></defs><title>Major Crisis</title><g id="Layer_2" data-name="Layer 2"><g id="icons"><polyline class="cls-1" points="12.09 17.51 37.93 31.54 44.24 28.28 60.9 37.42"/><polyline class="cls-1" points="52.86 37.42 60.9 37.42 60.9 32.85"/><path class="cls-1" d="M18.45,21V41.11c0,.48-.7.88-1.55.88H14.76c-.85,0-1.55-.4-1.55-.88v-23"/><path class="cls-1" d="M28.19,26.26V41.11c0,.48-.7.88-1.55.88H24.5c-.86,0-1.55-.4-1.55-.88v-17a.69.69,0,0,1,.33-.55"/><path class="cls-1" d="M37.93,31.54v9.57c0,.48-.7.88-1.55.88H34.24c-.86,0-1.55-.4-1.55-.88V28.82a.49.49,0,0,1,0-.12"/><path class="cls-1" d="M44.05,32.62h2a1.63,1.63,0,0,1,1.63,1.63v6.11A1.62,1.62,0,0,1,46,42h-2a1.63,1.63,0,0,1-1.63-1.63V34.25A1.63,1.63,0,0,1,44.05,32.62Z"/><line class="cls-1" x1="66.16" y1="10.93" x2="66.16" y2="48.43"/><line class="cls-1" x1="6.52" y1="48.43" x2="6.52" y2="10.93"/><rect class="cls-1" x="1" y="5.41" width="70.69" height="5.51" rx="2.5"/><line class="cls-1" x1="36.34" y1="5.41" x2="36.34" y2="1"/><line class="cls-1" x1="36.34" y1="76" x2="36.34" y2="53.94"/><line class="cls-1" x1="12.04" y1="76" x2="35.24" y2="53.94"/><line class="cls-1" x1="60.64" y1="76" x2="37.45" y2="53.94"/><rect class="cls-1" x="1" y="48.43" width="70.99" height="5.51" rx="2.76"/></g></g></svg>