<svg xmlns="http://www.w3.org/2000/svg" viewBox="0 0 72.99 77"><g fill="none" stroke="currentColor" stroke-linecap="round" stroke-linejoin="round" stroke-width="2"><path d="M12.09 17.51l25.84 14.03 6.31-3.26 16.66 9.14"/><path d="M52.86 37.42h8.04v-4.57M18.45 21v20.11c0 .48-.7.88-1.55.88h-2.14c-.85 0-1.55-.4-1.55-.88v-23m14.98 8.15v14.85c0 .48-.7.88-1.55.88H24.5c-.86 0-1.55-.4-1.55-.88v-17a.69.69 0 0 1 .33-.55m14.65 7.98v9.57c0 .48-.7.88-1.55.88h-2.14c-.86 0-1.55-.4-1.55-.88V28.82a.49.49 0 0 1 0-.12m11.36 3.92h2a1.63 1.63 0 0 1 1.63 1.63v6.11A1.62 1.62 0 0 1 46 42h-2a1.63 1.63 0 0 1-1.63-1.63v-6.12a1.63 1.63 0 0 1 1.68-1.63zm22.11-21.69v37.5m-59.64 0v-37.5"/><rect x="1" y="5.41" width="70.69" height="5.51" rx="2.5"/><path d="M36.34 5.41V1m0 75V53.94M12.04 76l23.2-22.06M60.64 76L37.45 53.94"/><rect x="1" y="48.43" width="70.99" height="5.51" rx="2.76"/></g></svg>