<svg xmlns="http://www.w3.org/2000/svg" viewBox="0 0 72.99 77"><defs><style>.cls-1{fill:none;stroke:#00008f;stroke-linecap:round;stroke-linejoin:round;stroke-width:2px}</style></defs><g id="Layer_2" data-name="Layer 2"><g id="icons"><path class="cls-1" d="M12.09 17.51l25.84 14.03 6.31-3.26 16.66 9.14"/><path class="cls-1" d="M52.86 37.42h8.04v-4.57M18.45 21v20.11c0 .48-.7.88-1.55.88h-2.14c-.85 0-1.55-.4-1.55-.88v-23M28.19 26.26v14.85c0 .48-.7.88-1.55.88H24.5c-.86 0-1.55-.4-1.55-.88v-17a.69.69 0 0 1 .33-.55M37.93 31.54v9.57c0 .48-.7.88-1.55.88h-2.14c-.86 0-1.55-.4-1.55-.88V28.82a.49.49 0 0 1 0-.12M44.05 32.62h2a1.63 1.63 0 0 1 1.63 1.63v6.11A1.62 1.62 0 0 1 46 42h-2a1.63 1.63 0 0 1-1.63-1.63v-6.12a1.63 1.63 0 0 1 1.68-1.63zM66.16 10.93v37.5M6.52 48.43v-37.5"/><rect class="cls-1" x="1" y="5.41" width="70.69" height="5.51" rx="2.5"/><path class="cls-1" d="M36.34 5.41V1M36.34 76V53.94M12.04 76l23.2-22.06M60.64 76L37.45 53.94"/><rect class="cls-1" x="1" y="48.43" width="70.99" height="5.51" rx="2.76"/></g></g></svg>