<svg xmlns="http://www.w3.org/2000/svg" viewBox="0 0 96 96"><defs><style>.cls-1{fill:#fff;}.cls-2{fill:none;stroke:#00008f;stroke-linecap:round;stroke-linejoin:round;stroke-width:2px;}</style></defs><title>Piggy Bank</title><g id="Layer_2" data-name="Layer 2"><g id="icons"><rect class="cls-1" width="96" height="96"/><circle class="cls-2" cx="25" cy="46" r="3"/><ellipse class="cls-2" cx="12" cy="51" rx="4" ry="10"/><path class="cls-2" d="M91,43a9,9,0,0,1-9,9"/><polyline class="cls-2" points="20 35.76 20 27 28.33 29.08"/><circle class="cls-2" cx="48" cy="26" r="13"/><path class="cls-2" d="M12,61h4.37C25,71,38,74,48,74c20,0,34-12,34-23,0-11.26-8.67-20.9-21-24.95"/><path class="cls-2" d="M35,26.11C26.6,28.94,19.83,34.36,16.37,41H12"/><path class="cls-2" d="M37.77,34H32.5a2.5,2.5,0,0,0,0,5h31a2.5,2.5,0,0,0,0-5H58.23"/><circle class="cls-2" cx="48" cy="26" r="8"/><path class="cls-2" d="M29,70.19V77a2,2,0,0,0,2,2h5a2,2,0,0,0,2-2V73"/><path class="cls-2" d="M59,73v4a2,2,0,0,0,2,2h5a2,2,0,0,0,2-2V69.39"/></g></g></svg>