<svg xmlns="http://www.w3.org/2000/svg" viewBox="0 0 96 96"><g fill="none" stroke="currentColor" stroke-linecap="round" stroke-linejoin="round" stroke-width="2"><path d="M19.69 73.24a2.34 2.34 0 0 0 .55 3.76C27.18 80.68 37 83 48 83s20.84-2.32 27.78-6a2.35 2.35 0 0 0 .58-3.71 2.36 2.36 0 0 0-2.76-.44C67.53 76 58.31 78 48 78s-19.55-2-25.6-5.18a2.31 2.31 0 0 0-2.71.42zM32 51.91h34.5a3.5 3.5 0 0 1 3.5 3.5 3.51 3.51 0 0 1-3.5 3.51H31.75M67 75.1a55.23 55.23 0 0 1-3.78-16.17M30.49 36.87l36.51.05"/><path d="M38 51.91c-.1-15.19-4.19-28.75-10.56-37.73a2.85 2.85 0 0 0-4-.6 2.86 2.86 0 0 0-.65 3.93c5.61 8 9.25 20.64 9.25 34.94a61.56 61.56 0 0 1-4 22.66M63 51.95V36.92m-9 15.03V36.92m-9 15.03V36.92"/></g></svg>