<svg xmlns="http://www.w3.org/2000/svg" viewBox="0 0 96 96"><defs><style>.cls-1{fill:#fff;}.cls-2{fill:none;stroke:#00008f;stroke-linecap:round;stroke-linejoin:round;stroke-width:2px;}</style></defs><title>Rocking Chair</title><g id="Layer_2" data-name="Layer 2"><g id="icons"><rect class="cls-1" width="96" height="96"/><path class="cls-2" d="M19.69,73.24A2.34,2.34,0,0,0,20.24,77C27.18,80.68,37,83,48,83s20.84-2.32,27.78-6a2.35,2.35,0,0,0,.58-3.71h0a2.36,2.36,0,0,0-2.76-.44C67.53,76,58.31,78,48,78S28.45,76,22.4,72.82a2.31,2.31,0,0,0-2.71.42Z"/><path class="cls-2" d="M32,51.91H66.5a3.5,3.5,0,0,1,3.5,3.5h0a3.51,3.51,0,0,1-3.5,3.51H31.75"/><path class="cls-2" d="M67,75.1a55.23,55.23,0,0,1-3.78-16.17"/><line class="cls-2" x1="30.49" y1="36.87" x2="67" y2="36.92"/><path class="cls-2" d="M38,51.91c-.1-15.19-4.19-28.75-10.56-37.73a2.85,2.85,0,0,0-4-.6h0a2.86,2.86,0,0,0-.65,3.93c5.61,8,9.25,20.64,9.25,34.94a61.56,61.56,0,0,1-4,22.66"/><line class="cls-2" x1="63" y1="51.95" x2="63" y2="36.92"/><line class="cls-2" x1="54" y1="51.95" x2="54" y2="36.92"/><line class="cls-2" x1="45" y1="51.95" x2="45" y2="36.92"/></g></g></svg>