<svg xmlns="http://www.w3.org/2000/svg" viewBox="0 0 96 96"><g fill="none" stroke="currentColor" stroke-linecap="round" stroke-linejoin="round" stroke-width="2"><path d="M14 33v-9a4 4 0 0 1 4-4h60a4 4 0 0 1 4 4v44a4 4 0 0 1-4 4H18a4 4 0 0 1-4-4V33zm9 21V38"/><path d="M23 33v-7a1 1 0 0 1 1-1h52a1 1 0 0 1 1 1v40a1 1 0 0 1-1 1H24a1 1 0 0 1-1-1v-7"/><rect x="18" y="33" width="10" height="5" rx="2.5"/><rect x="18" y="54" width="10" height="5" rx="2.5"/><path d="M23 72h9v5h-9zm41 0h9v5h-9zm6-39v26"/><circle cx="48" cy="46" r="13"/><path d="M45 42v3.88a10.33 10.33 0 0 1-1.73 5.72L43 52h9m-9-6h6m-4-4a3 3 0 0 1 6 0"/></g></svg>