<svg xmlns="http://www.w3.org/2000/svg" viewBox="0 0 96 96"><g fill="none" stroke="#00008f" stroke-linecap="round" stroke-linejoin="round" stroke-width="2"><path d="M14 33v-9a4 4 0 0 1 4-4h60a4 4 0 0 1 4 4v44a4 4 0 0 1-4 4H18a4 4 0 0 1-4-4V33zm9 21V38"/><path d="M23 33v-7a1 1 0 0 1 1-1h52a1 1 0 0 1 1 1v40a1 1 0 0 1-1 1H24a1 1 0 0 1-1-1v-7"/><rect x="18" y="33" width="10" height="5" rx="2.5"/><rect x="18" y="54" width="10" height="5" rx="2.5"/><path d="M23 72h9v5h-9zm41 0h9v5h-9zm6-39v26"/><circle cx="48" cy="46" r="13"/><path d="M48 37v18m-3.93-4.62A3.84 3.84 0 0 0 48 53c2.21 0 4-1.41 4-3.15a2 2 0 0 0-.18-.8 3.19 3.19 0 0 0-1.2-1.33L48 46l-2.62-1.72a3.19 3.19 0 0 1-1.2-1.28 2 2 0 0 1-.18-.8c0-1.79 1.79-3.2 4-3.2a3.83 3.83 0 0 1 3.93 2.63"/></g></svg>