<svg xmlns="http://www.w3.org/2000/svg" viewBox="0 0 96 96"><defs><style>.cls-1{fill:#fff;}.cls-2{fill:none;stroke:#00008f;stroke-linecap:round;stroke-linejoin:round;stroke-width:2px;}</style></defs><title>Savings Dollar</title><g id="Layer_2" data-name="Layer 2"><g id="icons"><rect class="cls-1" width="96" height="96"/><path class="cls-2" d="M14,33V24a4,4,0,0,1,4-4H78a4,4,0,0,1,4,4V68a4,4,0,0,1-4,4H18a4,4,0,0,1-4-4V33Z"/><line class="cls-2" x1="23" y1="54" x2="23" y2="38"/><path class="cls-2" d="M23,33V26a1,1,0,0,1,1-1H76a1,1,0,0,1,1,1V66a1,1,0,0,1-1,1H24a1,1,0,0,1-1-1V59"/><rect class="cls-2" x="18" y="33" width="10" height="5" rx="2.5"/><rect class="cls-2" x="18" y="54" width="10" height="5" rx="2.5"/><rect class="cls-2" x="23" y="72" width="9" height="5"/><rect class="cls-2" x="64" y="72" width="9" height="5"/><line class="cls-2" x1="70" y1="33" x2="70" y2="59"/><circle class="cls-2" cx="48" cy="46" r="13"/><line class="cls-2" x1="48" y1="37" x2="48" y2="55"/><path class="cls-2" d="M44.07,50.38A3.84,3.84,0,0,0,48,53c2.21,0,4-1.41,4-3.15a2,2,0,0,0-.18-.8,3.19,3.19,0,0,0-1.2-1.33L48,46l-2.62-1.72A3.19,3.19,0,0,1,44.18,43a2,2,0,0,1-.18-.8C44,40.41,45.79,39,48,39a3.83,3.83,0,0,1,3.93,2.63"/></g></g></svg>