<svg xmlns="http://www.w3.org/2000/svg" viewBox="0 0 96 96"><defs><style>.cls-2{fill:none;stroke:#00008f;stroke-linecap:round;stroke-linejoin:round;stroke-width:2px}</style></defs><g id="Layer_2" data-name="Layer 2"><g id="icons"><path fill="#fff" d="M0 0h96v96H0z"/><path class="cls-2" d="M14 33v-9a4 4 0 0 1 4-4h60a4 4 0 0 1 4 4v44a4 4 0 0 1-4 4H18a4 4 0 0 1-4-4V33zM23 54V38"/><path class="cls-2" d="M23 33v-7a1 1 0 0 1 1-1h52a1 1 0 0 1 1 1v40a1 1 0 0 1-1 1H24a1 1 0 0 1-1-1v-7"/><rect class="cls-2" x="18" y="33" width="10" height="5" rx="2.5"/><rect class="cls-2" x="18" y="54" width="10" height="5" rx="2.5"/><path class="cls-2" d="M23 72h9v5h-9zM64 72h9v5h-9zM70 33v26"/><circle class="cls-2" cx="48" cy="46" r="13"/><path class="cls-2" d="M41 44h7M41 48h7M52 40.56A4.84 4.84 0 0 0 48.54 39C45.48 39 43 42.13 43 46s2.48 7 5.54 7A4.84 4.84 0 0 0 52 51.44"/></g></g></svg>