<svg xmlns="http://www.w3.org/2000/svg" viewBox="0 0 96 96"><g fill="none" stroke="#00008f" stroke-linecap="round" stroke-linejoin="round" stroke-width="2"><path d="M14 33v-9a4 4 0 0 1 4-4h60a4 4 0 0 1 4 4v44a4 4 0 0 1-4 4H18a4 4 0 0 1-4-4V33zm9 21V38"/><path d="M23 33v-7a1 1 0 0 1 1-1h52a1 1 0 0 1 1 1v40a1 1 0 0 1-1 1H24a1 1 0 0 1-1-1v-7"/><rect x="18" y="33" width="10" height="5" rx="2.5"/><rect x="18" y="54" width="10" height="5" rx="2.5"/><path d="M23 72h9v5h-9zm41 0h9v5h-9zm6-39v26"/><circle cx="48" cy="46" r="13"/><path d="M41 44h7m-7 4h7m4-7.44A4.84 4.84 0 0 0 48.54 39C45.48 39 43 42.13 43 46s2.48 7 5.54 7A4.84 4.84 0 0 0 52 51.44"/></g></svg>