<svg xmlns="http://www.w3.org/2000/svg" viewBox="0 0 96 96"><defs><style>.cls-1{fill:#fff;}.cls-2{fill:none;stroke:#00008f;stroke-linecap:round;stroke-linejoin:round;stroke-width:2px;}</style></defs><title>Savings Pound</title><g id="Layer_2" data-name="Layer 2"><g id="icons"><rect class="cls-1" width="96" height="96"/><path class="cls-2" d="M14,33V24a4,4,0,0,1,4-4H78a4,4,0,0,1,4,4V68a4,4,0,0,1-4,4H18a4,4,0,0,1-4-4V33Z"/><line class="cls-2" x1="23" y1="54" x2="23" y2="38"/><path class="cls-2" d="M23,33V26a1,1,0,0,1,1-1H76a1,1,0,0,1,1,1V66a1,1,0,0,1-1,1H24a1,1,0,0,1-1-1V59"/><rect class="cls-2" x="18" y="33" width="10" height="5" rx="2.5"/><rect class="cls-2" x="18" y="54" width="10" height="5" rx="2.5"/><rect class="cls-2" x="23" y="72" width="9" height="5"/><rect class="cls-2" x="64" y="72" width="9" height="5"/><line class="cls-2" x1="70" y1="33" x2="70" y2="59"/><circle class="cls-2" cx="48" cy="46" r="13"/><path class="cls-2" d="M45,42v3.88a10.33,10.33,0,0,1-1.73,5.72L43,52h9"/><line class="cls-2" x1="43" y1="46" x2="49" y2="46"/><path class="cls-2" d="M45,42a3,3,0,0,1,6,0"/></g></g></svg>