<svg xmlns="http://www.w3.org/2000/svg" viewBox="0 0 96 96"><g fill="none" stroke="#00008f" stroke-linecap="round" stroke-linejoin="round" stroke-width="2"><path d="M14 33v-9a4 4 0 0 1 4-4h60a4 4 0 0 1 4 4v44a4 4 0 0 1-4 4H18a4 4 0 0 1-4-4V33zm9 21V38"/><path d="M23 33v-7a1 1 0 0 1 1-1h52a1 1 0 0 1 1 1v40a1 1 0 0 1-1 1H24a1 1 0 0 1-1-1v-7"/><rect x="18" y="33" width="10" height="5" rx="2.5"/><rect x="18" y="54" width="10" height="5" rx="2.5"/><path d="M23 72h9v5h-9zm41 0h9v5h-9zm6-39v26"/><circle cx="48" cy="46" r="13"/><path d="M48 45v10m-5-16l5 6 5-6m-10 7h10m-10 5h10"/></g></svg>