<svg xmlns="http://www.w3.org/2000/svg" viewBox="0 0 96 96"><defs><style>.cls-1{fill:#fff;}.cls-2{fill:none;stroke:#00008f;stroke-linecap:round;stroke-linejoin:round;stroke-width:2px;}</style></defs><title>Shield</title><g id="Layer_2" data-name="Layer 2"><g id="icons"><rect class="cls-1" width="96" height="96"/><path class="cls-2" d="M77,37c0,32-25,46-29,46S19,69,19,37V22c9,0,17-1,29-8,12,7,20,8,29,8Z"/><path class="cls-2" d="M26,28.72V37c0,25,17.18,36.62,22,38.76C52.82,73.62,70,62,70,37V28.72A55.72,55.72,0,0,1,48,22,55.72,55.72,0,0,1,26,28.72Z"/><line class="cls-2" x1="33.68" y1="62.89" x2="69.88" y2="40.42"/><line class="cls-2" x1="69.48" y1="28.67" x2="28.96" y2="53.82"/></g></g></svg>