<svg xmlns="http://www.w3.org/2000/svg" viewBox="0 0 96 96"><defs><style>.cls-2{fill:none;stroke:#00008f;stroke-linecap:round;stroke-linejoin:round;stroke-width:2px}</style></defs><g id="Layer_2" data-name="Layer 2"><g id="icons"><path fill="currentColor" d="M0 0h96v96H0z"/><path class="cls-2" d="M77 37c0 32-25 46-29 46S19 69 19 37V22c9 0 17-1 29-8 12 7 20 8 29 8z"/><path class="cls-2" d="M26 28.72V37c0 25 17.18 36.62 22 38.76C52.82 73.62 70 62 70 37v-8.28A55.72 55.72 0 0 1 48 22a55.72 55.72 0 0 1-22 6.72zM33.68 62.89l36.2-22.47M69.48 28.67L28.96 53.82"/></g></g></svg>