<svg xmlns="http://www.w3.org/2000/svg" viewBox="0 0 96 96"><defs><style>.cls-1{fill:#fff;}.cls-2{fill:none;stroke:#00008f;stroke-linecap:round;stroke-linejoin:round;stroke-width:2px;}</style></defs><title>Symbol Yen</title><g id="Layer_2" data-name="Layer 2"><g id="icons"><rect class="cls-1" width="96" height="96"/><path class="cls-2" d="M68,49a3,3,0,0,0,0-6H53v-.64L69.68,25.57a5,5,0,1,0-7.07-7.07L48.11,33h0L33.57,18.5a5,5,0,0,0-7.07,7.07L43,42.18V43H28a3,3,0,0,0,0,6H43v8H28a3,3,0,0,0,0,6H43V77a5,5,0,0,0,10,0V63H68a3,3,0,0,0,0-6H53V49Z"/></g></g></svg>