<svg xmlns="http://www.w3.org/2000/svg" viewBox="0 0 96 96"><g data-name="Layer 2"><path fill="#fff" d="M0 0h96v96H0z"/><path d="M61.36 65a13 13 0 0 1-9.18 4.29c-6.08 0-11.48-5.11-14-12.31H52a3 3 0 0 0 0-6H36.83a28.2 28.2 0 0 1 0-6H52a3 3 0 0 0 0-6H38.18c2.52-7.2 7.92-12.31 14-12.31A13 13 0 0 1 61.36 31a5.11 5.11 0 0 0 7.07.2 4.73 4.73 0 0 0 .21-6.84A23 23 0 0 0 52.18 17C40.69 17 31 26.28 27.77 39H24a3 3 0 0 0 0 6h2.79q-.12 1.48-.12 3t.12 3H24a3 3 0 0 0 0 6h3.77C31 69.72 40.69 79 52.18 79a23 23 0 0 0 16.46-7.34 4.73 4.73 0 0 0-.21-6.84 5.12 5.12 0 0 0-7.07.18z" fill="none" stroke="#00008f" stroke-miterlimit="10" stroke-width="2"/></g></svg>