<svg xmlns="http://www.w3.org/2000/svg" viewBox="0 0 96 96"><defs><style>.cls-1{fill:#fff;}.cls-2{fill:none;stroke:#00008f;stroke-linecap:round;stroke-linejoin:round;stroke-width:2px;}</style></defs><title>Symbol Dollar</title><g id="Layer_2" data-name="Layer 2"><g id="icons"><rect class="cls-1" width="96" height="96"/><path class="cls-2" d="M69,61.2a11,11,0,0,0-1.27-5,16.25,16.25,0,0,0-6.81-6.65L51,44V29.24c4.34.72,7.37,2.91,7.88,5a5,5,0,1,0,9.7-2.42C66.89,25,59.85,20.09,51,19.17V15a3,3,0,0,0-6,0v4.17C34.7,20.24,27,26.71,27,34.8a11,11,0,0,0,1.27,5,16.29,16.29,0,0,0,6.81,6.64L45,52.05V66.76c-4.34-.72-7.37-2.91-7.88-5a5,5,0,1,0-9.7,2.42C29.11,71,36.15,75.91,45,76.83V81a3,3,0,0,0,6,0V76.83C61.3,75.76,69,69.29,69,61.2ZM40,37.75a7,7,0,0,1-2.8-2.47A1.45,1.45,0,0,1,37,34.8c0-2.23,3.32-4.75,8-5.54V40.58Zm11,29V55.42l5,2.83a7,7,0,0,1,2.8,2.47,1.45,1.45,0,0,1,.18.48C59,63.43,55.68,66,51,66.74Z"/></g></g></svg>