<svg xmlns="http://www.w3.org/2000/svg" viewBox="0 0 96 96"><defs><style>.cls-2{fill:none;stroke:#00008f;stroke-linecap:round;stroke-linejoin:round;stroke-width:2px}</style></defs><g id="Layer_2" data-name="Layer 2"><g id="icons"><path fill="#fff" d="M0 0h96v96H0z"/><path class="cls-2" d="M71.34 46.83c-5.22 0-9.7 2.54-11.67 6.17-2-3.63-6.45-6.17-11.67-6.17S38.29 49.37 36.33 53c-2-3.63-6.45-6.17-11.67-6.17S15 49.35 13 53c.35-20.48 15.88-37 35-37s34.65 16.49 35 37c-2-3.65-6.44-6.17-11.66-6.17zM59.67 53C59.46 27.22 48 16 48 16M48 16S36.54 27.22 36.34 53M48 47v30M48 77a6 6 0 0 1-12 0M48 16v-3"/></g></g></svg>