<svg xmlns="http://www.w3.org/2000/svg" viewBox="0 0 96 96"><defs><style>.cls-1{fill:#fff;}.cls-2{fill:none;stroke:#00008f;stroke-linecap:round;stroke-linejoin:round;stroke-width:2px;}</style></defs><title>Umbrella</title><g id="Layer_2" data-name="Layer 2"><g id="icons"><rect class="cls-1" width="96" height="96"/><path class="cls-2" d="M71.34,46.83c-5.22,0-9.7,2.54-11.67,6.17-2-3.63-6.45-6.17-11.67-6.17S38.29,49.37,36.33,53c-2-3.63-6.45-6.17-11.67-6.17S15,49.35,13,53c.35-20.48,15.88-37,35-37S82.65,32.49,83,53C81,49.35,76.56,46.83,71.34,46.83Z"/><path class="cls-2" d="M59.67,53h0C59.46,27.22,48,16,48,16"/><path class="cls-2" d="M48,16S36.54,27.22,36.34,53h0"/><line class="cls-2" x1="48" y1="47" x2="48" y2="77"/><path class="cls-2" d="M48,77a6,6,0,0,1-12,0"/><line class="cls-2" x1="48" y1="16" x2="48" y2="13"/></g></g></svg>