<svg xmlns="http://www.w3.org/2000/svg" viewBox="0 0 96 96"><path d="M84 25.87a29.8 29.8 0 0 1-8.48 2.3 14.68 14.68 0 0 0 6.48-8.1 29.43 29.43 0 0 1-9.38 3.55A14.78 14.78 0 0 0 47.46 37 42.06 42.06 0 0 1 17 21.68a14.59 14.59 0 0 0 4.57 19.55 14.94 14.94 0 0 1-6.69-1.83 14.69 14.69 0 0 0 11.86 14.54 14.91 14.91 0 0 1-6.67.25 14.77 14.77 0 0 0 13.8 10.17A29.89 29.89 0 0 1 12 70.42 42 42 0 0 0 34.64 77c27.43 0 42.93-23 42-43.55A30 30 0 0 0 84 25.87z" fill="none" stroke="currentColor" stroke-linecap="round" stroke-linejoin="round" stroke-width="2"/></svg>