<svg height="311" viewBox="0 0 681 311" width="681" xmlns="http://www.w3.org/2000/svg"><g fill="none" fill-rule="evenodd"><path d="m0 0h681v311h-681z" fill="#333"/><path d="m170 0h85v77h-85z" fill="#ccc"/><path d="m340 0h85v77h-85z" fill="#fafafa"/><path d="m510 0h85v77h-85zm-425 0h85v77h-85z" fill="#999"/><path d="m255 0h85v77h-85z" fill="#e5e5e5"/><path d="m595 0h86v77h-86z" fill="#ccc"/><path d="m0 77h85v77h-85z" fill="#e5e5e5"/><path d="m340 77h85v77h-85z" fill="#ccc"/><path d="m170 77h85v77h-85z" fill="#fafafa"/><path d="m255 77h85v77h-85z" fill="#999"/><path d="m425 77h85v77h-85zm170 0h86v77h-86z" fill="#e5e5e5"/><path d="m0 154h85v77h-85z" fill="#999"/><path d="m340 154h85v77h-85zm170 0h85v77h-85zm-425 0h85v77h-85zm170 0h85v77h-85z" fill="#e5e5e5"/><path d="m425 154h85v77h-85z" fill="#fafafa"/><path d="m595 154h86v77h-86zm-425 77h85v80h-85zm340 0h85v80h-85z" fill="#999"/><path d="m85 231h85v80h-85z" fill="#e5e5e5"/><path d="m255 231h85v80h-85z" fill="#fafafa"/><path d="m425 231h85v80h-85zm170 0h86v80h-86z" fill="#e5e5e5"/></g></svg>