<svg fill="none" height="128" viewBox="0 0 128 128" width="128" xmlns="http://www.w3.org/2000/svg"><path d="m63.5 89.0338c13.5496 0 24.5338-10.9842 24.5338-24.5338 0-13.5497-10.9842-24.5339-24.5338-24.5339-13.5497 0-24.5339 10.9842-24.5339 24.5339 0 13.5496 10.9842 24.5338 24.5339 24.5338z" fill="#333"/><path d="m63.5 99c19.0538 0 34.5-15.4462 34.5-34.5s-15.4462-34.5-34.5-34.5-34.5 15.4462-34.5 34.5 15.4462 34.5 34.5 34.5z" stroke="#333" stroke-width="1.88182"/><path d="m88.0339 46.0996c3.3874 0 6.1334-2.7461 6.1334-6.1335s-2.746-6.1335-6.1334-6.1335c-3.3875 0-6.1335 2.7461-6.1335 6.1335s2.746 6.1335 6.1335 6.1335z" fill="#333"/></svg>