<svg id="blue_svg_2px" data-name="blue_svg 2px" xmlns="http://www.w3.org/2000/svg" viewBox="0 0 96 96"><defs><style>.cls-1{fill:#00008f;}</style></defs><title>company</title><path class="cls-1" d="M35.1,84.08H60.9a1,1,0,0,0,1-1V21.47a1,1,0,0,0-1-1H57.4v-3a1,1,0,0,0-1-1H49V12.92a1,1,0,0,0-2,0v3.59H39.6a1,1,0,0,0-1,1v3H35.1a1,1,0,0,0-1,1V83.08A1,1,0,0,0,35.1,84.08Zm5.5-65.57H55.4v2H40.6ZM50.75,70.63V82.08H45.26V70.63ZM36.1,22.47H59.9V82.08H52.75V70.63h1.81a1,1,0,0,0,0-2H41.45a1,1,0,0,0,0,2h1.81V82.08H36.1Z"/><path class="cls-1" d="M54.82,30.5a3,3,0,1,0-3-3A3,3,0,0,0,54.82,30.5Zm0-4a1,1,0,1,1-1,1A1,1,0,0,1,54.82,26.52Z"/><path class="cls-1" d="M48,30.5a3,3,0,1,0-3-3A3,3,0,0,0,48,30.5Zm0-4a1,1,0,1,1-1,1A1,1,0,0,1,48,26.52Z"/><path class="cls-1" d="M41,30.49h.17a3,3,0,0,0,3-2.82,3,3,0,0,0-2.82-3.15,2.91,2.91,0,0,0-2.16.75A3,3,0,0,0,41,30.49Zm-.82-3a1,1,0,0,1,1-.93h.06a1,1,0,0,1,.6,1.73.94.94,0,0,1-.71.25,1,1,0,0,1-.93-1Z"/><path class="cls-1" d="M54.82,40.41a3,3,0,1,0-3-3A3,3,0,0,0,54.82,40.41Zm0-4a1,1,0,1,1-1,1A1,1,0,0,1,54.82,36.43Z"/><path class="cls-1" d="M48,40.41a3,3,0,1,0-3-3A3,3,0,0,0,48,40.41Zm0-4a1,1,0,1,1-1,1A1,1,0,0,1,48,36.43Z"/><path class="cls-1" d="M41.35,34.43a3,3,0,0,0-3.15,2.82h0A3,3,0,0,0,41,40.4h.17a3,3,0,0,0,.16-6Zm.49,3.72a1,1,0,1,1,.33-.68A1,1,0,0,1,41.84,38.15Z"/><path class="cls-1" d="M54.82,50.32a3,3,0,1,0-3-3A3,3,0,0,0,54.82,50.32Zm0-4a1,1,0,1,1-1,1A1,1,0,0,1,54.82,46.34Z"/><path class="cls-1" d="M48,50.32a3,3,0,1,0-3-3A3,3,0,0,0,48,50.32Zm0-4a1,1,0,1,1-1,1A1,1,0,0,1,48,46.34Z"/><path class="cls-1" d="M41.35,44.34a3,3,0,0,0-.34,6h.17a3,3,0,0,0,.17-6Zm-.22,4a1,1,0,0,1-.93-1h0a1,1,0,0,1,1-.93h.06a1,1,0,1,1-.11,2Z"/><path class="cls-1" d="M54.82,60.23a3,3,0,1,0-3-3A3,3,0,0,0,54.82,60.23Zm0-4a1,1,0,1,1-1,1A1,1,0,0,1,54.82,56.25Z"/><path class="cls-1" d="M48,60.23a3,3,0,1,0-3-3A3,3,0,0,0,48,60.23Zm0-4a1,1,0,1,1-1,1A1,1,0,0,1,48,56.25Z"/><path class="cls-1" d="M41.18,60.22a3,3,0,0,0,.17-6,2.91,2.91,0,0,0-2.16.75A3,3,0,0,0,41,60.22Zm-1-3h0a1,1,0,0,1,1-.93h.06a1,1,0,0,1,.93,1,1,1,0,0,1-1,.93A1,1,0,0,1,40.19,57.18Z"/></svg>