<svg id="blue_svg_2px" xmlns="http://www.w3.org/2000/svg" viewBox="0 0 96 96"><defs><style>.cls-1{fill:#00008f;}</style></defs><title>house</title><path class="cls-1" d="M86.3,31.58,51.46,5.16a5.74,5.74,0,0,0-6.92,0L9.67,31.61A4.18,4.18,0,0,0,8,35a4.3,4.3,0,0,0,4.73,4.28V81a1,1,0,0,0,1,1H82.27a1,1,0,0,0,1-1V39.28a4.24,4.24,0,0,0,.42,0A4.31,4.31,0,0,0,88,35,4.21,4.21,0,0,0,86.3,31.58ZM57.64,80H38.36V48.88H57.64Zm23.64,0H59.64V47.88a1,1,0,0,0-1-1H37.36a1,1,0,0,0-1,1V80H14.73V38.54l.17-.11,33-25a.18.18,0,0,1,.22,0l33,25,.17.11Zm3.45-42.93a2.25,2.25,0,0,1-2.41-.23l-33-25a2.19,2.19,0,0,0-2.64,0l-33,25A2.3,2.3,0,0,1,10,35a2.18,2.18,0,0,1,.91-1.83L45.75,6.76a3.74,3.74,0,0,1,4.5,0L85.06,33.15A2.19,2.19,0,0,1,86,35,2.26,2.26,0,0,1,84.72,37.07Z"/><path class="cls-1" d="M48,26.45a5.73,5.73,0,1,0,5.73,5.73A5.74,5.74,0,0,0,48,26.45Zm0,9.46a3.73,3.73,0,1,1,3.73-3.73A3.73,3.73,0,0,1,48,35.92Z"/><path class="cls-1" d="M43.27,65.44h2.36a1,1,0,0,0,0-2H43.27a1,1,0,0,0,0,2Z"/></svg>