<svg id="blue_svg_2px" data-name="blue_svg 2px" xmlns="http://www.w3.org/2000/svg" viewBox="0 0 96 96"><defs><style>.cls-1{fill:#00008f;}</style></defs><title>industry</title><path class="cls-1" d="M78.31,43.41,76.78,17.48a1,1,0,0,0-1-.94H69.86a1,1,0,0,0-1,.94l-1.47,25H18.7a1,1,0,0,0-1,1V74.71c0,3.4,2.36,6.16,5.25,6.16H73.07c2.89,0,5.25-2.76,5.25-6.16V43.46s0,0,0,0S78.32,43.42,78.31,43.41ZM70.48,23.9h4.68l.09,1.55H70.39Zm4.36-5.36L75,21.9H70.6l.2-3.36Zm-4.57,8.91h5.1l.89,15H69.39Zm-50.58,17H76.32V54H19.7ZM58.23,78.88V70h8.6v8.92Zm18.09-4.16c0,2.29-1.46,4.16-3.25,4.16H68.83V69a1,1,0,0,0-1-1H57.23a1,1,0,0,0-1,1v9.92H22.95c-1.79,0-3.25-1.87-3.25-4.16V56H76.32Z"/><path class="cls-1" d="M18.66,19.64a2.52,2.52,0,0,0,1.57.55H33a2.56,2.56,0,0,0,2.53,2.34H54.73a2.55,2.55,0,0,0,0-5.09H42a2.56,2.56,0,0,0-2.53-2.31H20.22a2.54,2.54,0,0,0-1.78,4.35A1,1,0,0,0,18.66,19.64Zm1.58-2.51H39.42a.55.55,0,0,1,.55.54.51.51,0,0,1-.07.26,1,1,0,0,0,.86,1.51h14a.55.55,0,0,1,0,1.09H35.54a.57.57,0,0,1-.55-.6.52.52,0,0,1,.06-.27,1,1,0,0,0-.89-1.46H20.23a.53.53,0,0,1-.38-.16L19.77,18a.54.54,0,0,1-.08-.29A.59.59,0,0,1,20.24,17.13Z"/><path class="cls-1" d="M31.31,74a4.36,4.36,0,1,0-4.36-4.36A4.37,4.37,0,0,0,31.31,74Zm0-6.72a2.36,2.36,0,1,1-2.36,2.36A2.36,2.36,0,0,1,31.31,67.29Z"/><path class="cls-1" d="M44.62,74a4.36,4.36,0,1,0-4.36-4.36A4.37,4.37,0,0,0,44.62,74Zm0-6.72a2.36,2.36,0,1,1-2.36,2.36A2.36,2.36,0,0,1,44.62,67.29Z"/></svg>