<svg id="instagram" xmlns="http://www.w3.org/2000/svg" width="32" height="32" viewBox="0 0 16 16"><circle cx="8" cy="8" r="2.12"/><path d="M14.32,5.38a3.51,3.51,0,0,0-3.7-3.7c-.68,0-.89,0-2.62,0s-1.94,0-2.62,0a3.51,3.51,0,0,0-3.7,3.7c0,.68,0,.89,0,2.62s0,1.94,0,2.62a3.51,3.51,0,0,0,3.7,3.7c.68,0,.89,0,2.62,0s1.94,0,2.62,0a3.51,3.51,0,0,0,3.7-3.7c0-.68,0-.89,0-2.62S14.35,6.06,14.32,5.38ZM8,11.46A3.46,3.46,0,1,1,11.46,8,3.46,3.46,0,0,1,8,11.46Zm3.59-6.28a.76.76,0,1,1,.76-.76A.76.76,0,0,1,11.59,5.18Z"/></svg>
