<svg fill="none" height="128" viewBox="0 0 128 128" width="128" xmlns="http://www.w3.org/2000/svg"><path d="m45.576 97.8177c8.9657-1.5809 14.9536-10.123 13.3743-19.0792-1.5792-8.9563-10.1275-14.9352-19.0932-13.3543s-14.9537 10.123-13.3744 19.0792c1.5792 8.9563 10.1276 14.9352 19.0933 13.3543z" fill="#333"/><path d="m27.7801 99.4014c9.7732 8.2006 24.3832 6.8796 32.6324-2.9518 8.2491-9.831 7.0136-24.4485-2.7596-32.6492s-24.3832-6.8791-32.6324 2.9518c-8.2491 9.831-7.0136 24.4485 2.7596 32.6492z" stroke="#333" stroke-width="2.00652"/><path d="m67.251 57.6943c-9.0892.7953-17.0986-5.8878-17.8894-14.927-.7909-9.0392 5.9363-17.0116 15.0256-17.8068 9.0892-.7952 17.0986 5.8879 17.8894 14.9271s-5.9363 17.0115-15.0256 17.8067z" fill="#333"/><path d="m88.2642 35.3133c3.302 12.3233-4.0702 25.006-16.4663 28.3275s-25.1219-3.9759-28.4239-16.2992 4.0702-25.0059 16.4663-28.3274c12.3961-3.3216 25.1219 3.9758 28.4239 16.2991z" stroke="#333" stroke-width="2.00652"/><path d="m58.0994 60.4022c.587 2.1908-.7235 4.4454-2.9272 5.0359-2.2036.5904-4.4658-.7069-5.0529-2.8977-.587-2.1908.7235-4.4454 2.9272-5.0359 2.2036-.5904 4.4659.7069 5.0529 2.8977z" fill="#333"/><path d="m88.9184 98.1107c-9.0789 0-16.4388-7.3929-16.4388-16.5124s7.3599-16.5124 16.4388-16.5124 16.4386 7.3929 16.4386 16.5124-7.3597 16.5124-16.4386 16.5124z" fill="#333"/><path d="m80.9709 103.434c-11.9886-4.3637-18.1491-17.6771-13.7598-29.7365 4.3892-12.0595 17.6661-18.2982 29.6548-13.9347 11.9881 4.3635 18.1491 17.6769 13.7601 29.7363-4.39 12.0599-17.6665 18.2979-29.6551 13.9349z" stroke="#333" stroke-width="2.00652"/><g fill="#333"><path d="m77.7212 64.3338c-2.1313-.7757-3.2265-3.1424-2.4463-5.2862.7803-2.1438 3.1406-3.2528 5.2719-2.4771 2.1312.7758 3.2265 3.1425 2.4462 5.2862-.7803 2.1438-3.1406 3.2528-5.2718 2.4771z"/><path d="m64.4282 82.9625c-2.1313-.7757-3.2265-3.1424-2.4462-5.2862.7803-2.1437 3.1406-3.2528 5.2718-2.477 2.1313.7757 3.2265 3.1424 2.4462 5.2862-.7802 2.1437-3.1405 3.2528-5.2718 2.477z"/></g></svg>