<svg version="1.1" xmlns="http://www.w3.org/2000/svg" xmlns:xlink="http://www.w3.org/1999/xlink" width="32" height="32" viewBox="0 0 32 32">
<path d="M18.2 0c-7.867 0-14.333 6.867-13.8 14.733 0.2 2.667 1.133 5.2 2.733 7.333l-6.6 6.6c-1.8 1.8 1 4.6 2.8 2.8l6.6-6.6c6 4.467 14.6 3.267 19.133-2.6 4.133-5.333 3.733-13.133-1-18-2.533-2.733-6.133-4.267-9.867-4.267zM18.2 23.667c-4.067 0-7.867-2.667-9.267-6.467-1.4-3.867-0.2-8.333 3-11s7.867-3 11.4-0.8c3.467 2.133 5.333 6.333 4.533 10.333-0.933 4.533-5 7.933-9.667 7.933z"></path>
</svg>
