<svg xmlns="http://www.w3.org/2000/svg" viewBox="0 0 96 96"><path d="M19.6 25.83v20c0 6.55 3 11.68 9.39 11.68s10.39-4.13 10.39-10.68v-8.16l-6.25 9.09h2.67M19.6 11.63v8" fill="none" stroke="currentColor" stroke-width="2" stroke-linecap="round" stroke-linejoin="round"/><path d="M49.54 16.66c3.72.3 12.72 2 20.94 11.15 7 7.77 6.86 22.5 5.61 27.05a48.41 48.41 0 0 1-4 10.16 2 2 0 0 0 1.77 3 1.92 1.92 0 0 0 .74-.15 13.12 13.12 0 0 0 2.49-1.31 5.87 5.87 0 0 1-.7 4.55 3.71 3.71 0 0 1-2.77 2.13 28.67 28.67 0 0 1-5.51-.58 1.84 1.84 0 0 0-.41 0 2 2 0 0 0-1.45.62 28.17 28.17 0 0 1-20.44 9.19 16.11 16.11 0 0 1-7.61-2 8.64 8.64 0 0 0 .65-1 2 2 0 0 0-.93-2.8 9.91 9.91 0 0 0-1.66-.53c1-3.46 3.39-9.76 8-14a2 2 0 0 0 .61-1.84 13.23 13.23 0 0 1-.16-5.6l1 .79C48 57.24 49 57.8 49.92 57.8a2.31 2.31 0 0 0 .46 0 1.8 1.8 0 0 0 .56-.21l.18-.1h.06C57.24 53.89 64.12 49.89 67 39a1.88 1.88 0 0 0 .07-.53c0-3-1.08-7.11-3.4-9.44a5.71 5.71 0 0 0-4.07-1.79c-2.14 0-7.53 1.09-10.95 1.82a16.36 16.36 0 0 1 3.5-4.06 2 2 0 0 0 .4-2.82 24 24 0 0 1-3-5.49m-1.41-2.1H48a1 1 0 0 0-.77.41 1 1 0 0 0-.13.88 27.66 27.66 0 0 0 3.9 7.48c-2.46 1.82-4.52 5.43-5.24 6.69a1 1 0 0 0 .85 1.47h.22c4.87-1.11 10.81-2.29 12.83-2.29a3.69 3.69 0 0 1 2.65 1.2c1.92 1.93 2.8 5.5 2.82 8.05-2.73 10.1-8.93 13.7-14.96 17.2l-.19.11h-.06c-.55 0-2.16-1.3-3-1.93a18.92 18.92 0 0 0-1.85-1.39l-.2-.12h-.23a1.87 1.87 0 0 0-1.4.73c-1.36 1.72-.6 6.34-.38 7.5-5.54 5.09-8 12.85-8.9 16.17a.81.81 0 0 0 .09.59.83.83 0 0 0 .52.37 13 13 0 0 1 2.51.68 9.4 9.4 0 0 1-.9 1.27c-.26.34-.66.67-.6 1.14a.81.81 0 0 0 .35.56 18.5 18.5 0 0 0 9.85 3 30.16 30.16 0 0 0 21.89-9.81 29.89 29.89 0 0 0 5.92.63c1.68 0 3.36-1.17 4.5-3.13a7.41 7.41 0 0 0 .43-7.2 1.24 1.24 0 0 0-.84-.6 1.1 1.1 0 0 0-.31 0 1.67 1.67 0 0 0-1 .33A12.09 12.09 0 0 1 73.88 66 50.54 50.54 0 0 0 78 55.39c1.37-5 1.57-20.46-6-28.92-10.22-11.3-21.45-11.88-23.86-11.88z" fill="currentColor"/><path d="M51.62 69a1.64 1.64 0 0 1 0 3.27 1.64 1.64 0 1 1 0-3.27m0-2a3.64 3.64 0 1 0 3.63 3.63A3.63 3.63 0 0 0 51.62 67z" fill="currentColor"/><circle cx="19.52" cy="22.76" r="2.83" stroke-miterlimit="10" fill="none" stroke="currentColor" stroke-width="2"/></svg>