<svg xmlns="http://www.w3.org/2000/svg" viewBox="0 0 96 96"><g fill="none"><path d="M75.92 47.65a80.8 80.8 0 0 0 15-19.4v-.1a121.48 121.48 0 0 0-1.82 18.31A121 121 0 0 0 91 67.85a78.5 78.5 0 0 0-15.08-20.2zM24.78 35.11a50.32 50.32 0 0 1 1.56 12.54 50.34 50.34 0 0 1-1.56 12.55m0-25.09A56.39 56.39 0 0 0 5 47.65 55.63 55.63 0 0 0 24.78 60.2m-3.75-16.63L17.6 47m0-3.43L21.03 47m13.18-5.2a13.54 13.54 0 0 0-1.11 5.33 14 14 0 0 0 1.53 6.26M41 39.86a23.45 23.45 0 0 0 .42 15.46" stroke="currentColor" stroke-linecap="round" stroke-linejoin="round" stroke-width="2"/><path d="M41.41 55.36A23.93 23.93 0 0 1 39.88 47 23.64 23.64 0 0 1 41 39.9"/><path d="M47.77 37.92a36.28 36.28 0 0 0 .42 19.33" stroke="currentColor" stroke-linecap="round" stroke-linejoin="round" stroke-width="2"/><path d="M48.19 57.3a36.28 36.28 0 0 1-.42-19.3"/><path d="M54.55 37A43.74 43.74 0 0 0 55 58.21" stroke="currentColor" stroke-linecap="round" stroke-linejoin="round" stroke-width="2"/><path d="M55 58.27A43.74 43.74 0 0 1 54.55 37"/><path d="M61.34 35a60.1 60.1 0 0 0-1.12 11.56 60.92 60.92 0 0 0 1.53 13.56" stroke="currentColor" stroke-linecap="round" stroke-linejoin="round" stroke-width="2"/><path d="M61.75 60.2a60.81 60.81 0 0 1-.42-25.12"/><path d="M68.12 37.44A39.66 39.66 0 0 0 67 46.78a40.22 40.22 0 0 0 1.52 10.95" stroke="currentColor" stroke-linecap="round" stroke-linejoin="round" stroke-width="2"/><path d="M68.54 57.78a40.06 40.06 0 0 1-.43-20.29"/><path d="M27.07 47.61h49.12" stroke="currentColor" stroke-linecap="round" stroke-linejoin="round" stroke-width="2"/></g></svg>