<svg xmlns="http://www.w3.org/2000/svg" viewBox="0 0 96 96"><g fill="none" stroke="currentColor" stroke-linecap="round" stroke-linejoin="round" stroke-width="2"><path d="M26.81 17h40.37A11.82 11.82 0 0 1 79 28.82v40.36A11.82 11.82 0 0 1 67.18 81H26.81A11.81 11.81 0 0 1 15 69.19V28.81A11.81 11.81 0 0 1 26.81 17z"/><path d="M72.07 72a3 3 0 1 1-3-3 3 3 0 0 1 3 3zm-50.14 1.14h3.71"/><rect x="26.88" y="28.89" width="40.23" height="40.23" rx="12.38"/><rect x="32.04" y="34.04" width="29.91" height="29.91" rx="9.2"/><path d="M43.21 39.14h7.58a6.07 6.07 0 0 1 6.07 6.07v7.58a6.07 6.07 0 0 1-6.07 6.07h-7.58a6.06 6.06 0 0 1-6.06-6.06v-7.59a6.06 6.06 0 0 1 6.06-6.07zM47 28.89v40.22M67.11 49H26.88"/></g></svg>