<svg height="218" viewBox="0 0 153 218" width="153" xmlns="http://www.w3.org/2000/svg"><g fill="none" fill-rule="evenodd"><path d="m.5.5h151v217h-151z" stroke="#333" transform="translate(.333)"/><g transform="matrix(.76604444 .64278761 -.64278761 .76604444 57.834796 97.936825)"><ellipse cx="17.414" cy="17.507" fill="#333" rx="12.323" ry="12.31" transform="matrix(.64278761 -.76604444 .76604444 .64278761 -7.190644 19.593615)"/><ellipse cx="17.414" cy="17.507" rx="17.269" ry="17.371" stroke="#333" stroke-width="1.5"/></g><g transform="matrix(.25881905 .96592583 .96592583 -.25881905 55.68721 79.973877)"><ellipse cx="17.602" cy="17.547" fill="#333" rx="12.35" ry="12.282" transform="matrix(-.17364818 -.98480775 .98480775 -.17364818 3.378134 37.928591)"/><ellipse cx="17.602" cy="17.547" rx="17.269" ry="17.371" stroke="#333" stroke-width="1.5"/><ellipse cx="29.882" cy="5.194" fill="#333" rx="3.07" ry="3.088"/></g><g transform="matrix(-.93969262 -.34202014 -.34202014 .93969262 116.689097 112.132644)"><ellipse cx="17.329" cy="17.382" fill="#333" rx="12.289" ry="12.344" transform="matrix(.93969262 .34202014 -.34202014 .93969262 6.990061 -4.878604)"/><ellipse cx="17.329" cy="17.382" rx="17.269" ry="17.371" stroke="#333" stroke-width="1.5"/><g fill="#333"><ellipse cx="29.609" cy="5.029" rx="3.07" ry="3.088"/><ellipse cx="34.184" cy="21.514" rx="3.07" ry="3.088"/></g></g></g></svg>