<svg height="218" viewBox="0 0 152 218" width="152" xmlns="http://www.w3.org/2000/svg"><g fill="none" fill-rule="evenodd"><path d="m.5.5h151v217h-151z" stroke="#333"/><g transform="matrix(.76604444 .64278761 -.64278761 .76604444 46.200419 60.135805)"><circle cx="14.844" cy="14.645" fill="#333" r="10.353" transform="matrix(.64278761 -.76604444 .76604444 .64278761 -5.91626 16.602539)"/><g stroke-width="1.5"><circle cx="14.844" cy="14.645" r="14.559" stroke="#4976ba"/><circle cx="14.844" cy="14.645" r="14.559" stroke="#333"/></g></g><g transform="matrix(.76604444 .64278761 -.64278761 .76604444 46.200981 89.546261)"><circle cx="14.844" cy="14.645" fill="#333" r="10.353" transform="matrix(.64278761 -.76604444 .76604444 .64278761 -5.91626 16.602539)"/><g stroke-width="1.5"><circle cx="14.844" cy="14.645" r="14.559" stroke="#4976ba"/><circle cx="14.844" cy="14.645" r="14.559" stroke="#333"/></g></g><g transform="matrix(.76604444 .64278761 -.64278761 .76604444 46.200676 118.727099)"><circle cx="14.844" cy="14.645" fill="#333" r="10.353" transform="matrix(.64278761 -.76604444 .76604444 .64278761 -5.91626 16.602539)"/><g stroke-width="1.5"><circle cx="14.844" cy="14.645" r="14.559" stroke="#4976ba"/><circle cx="14.844" cy="14.645" r="14.559" stroke="#333"/></g></g><g transform="matrix(-.93969262 -.34202014 -.34202014 .93969262 125.039328 72.012062)"><circle cx="41.845" cy="24.684" fill="#333" r="10.353" transform="matrix(.93969262 .34202014 -.34202014 .93969262 10.965988 -12.823206)"/><circle cx="14.702" cy="14.804" fill="#333" r="10.353" transform="matrix(.93969262 .34202014 -.34202014 .93969262 5.949905 -4.13559)"/><g stroke-width="1.5"><circle cx="41.845" cy="24.684" r="14.559" stroke="#4976ba"/><circle cx="41.845" cy="24.684" r="14.559" stroke="#333"/><circle cx="14.702" cy="14.804" r="14.559" stroke="#333"/></g><circle cx="55.612" cy="29.364" fill="#333" r="2.588"/><circle cx="28.469" cy="19.484" fill="#333" r="2.588"/></g><g transform="matrix(-.93969262 -.34202014 -.34202014 .93969262 125.592423 99.903305)"><circle cx="41.845" cy="26.301" fill="#333" r="10.353" transform="matrix(.93969262 .34202014 -.34202014 .93969262 11.519034 -12.725689)"/><circle cx="14.702" cy="16.422" fill="#333" r="10.353" transform="matrix(.93969262 .34202014 -.34202014 .93969262 6.503294 -4.038012)"/><circle cx="41.845" cy="26.301" r="14.559" stroke="#4976ba" stroke-width="1.5"/><circle cx="41.845" cy="26.301" r="14.559" stroke="#333" stroke-width="1.5"/><circle cx="14.702" cy="16.422" r="14.559" stroke="#333" stroke-width="1.5"/><g fill="#333"><circle cx="55.612" cy="30.981" r="2.588"/><circle cx="28.469" cy="21.102" r="2.588"/><circle cx="19.89" cy="2.81" r="2.588"/><circle cx="46.339" cy="12.437" r="2.588"/><circle cx="74.005" cy="22.506" r="2.588"/></g></g><g transform="matrix(-.93969262 -.34202014 -.34202014 .93969262 125.537895 129.180544)"><circle cx="41.845" cy="26.301" fill="#333" r="10.353" transform="matrix(.93969262 .34202014 -.34202014 .93969262 11.519034 -12.725689)"/><circle cx="14.702" cy="16.422" fill="#333" r="10.353" transform="matrix(.93969262 .34202014 -.34202014 .93969262 6.503294 -4.038012)"/><circle cx="41.845" cy="26.301" r="14.559" stroke="#4976ba" stroke-width="1.5"/><circle cx="41.845" cy="26.301" r="14.559" stroke="#333" stroke-width="1.5"/><circle cx="14.702" cy="16.422" r="14.559" stroke="#333" stroke-width="1.5"/><g fill="#333"><circle cx="55.612" cy="30.981" r="2.588"/><circle cx="28.469" cy="21.102" r="2.588"/><circle cx="19.89" cy="2.81" r="2.588"/><circle cx="46.339" cy="12.437" r="2.588"/><circle cx="74.005" cy="22.506" r="2.588"/></g></g></g></svg>