<svg xmlns="http://www.w3.org/2000/svg" viewBox="0 0 96 96"><defs><style>.cls-2{fill:none;stroke:#00008f;stroke-width:2px;stroke-miterlimit:10}</style></defs><g id="Layer_2" data-name="Layer 2"><g id="icons"><path fill="currentColor" d="M0 0h96v96H0z"/><path class="cls-2" d="M41.5 53.4a2.6 2.6 0 1 1-2.6 2.6 2.61 2.61 0 0 1 2.6-2.6M33.5 64.4a2.6 2.6 0 1 1-2.6 2.6 2.61 2.61 0 0 1 2.6-2.6M49.5 64.4a2.6 2.6 0 1 1-2.6 2.6 2.61 2.61 0 0 1 2.6-2.6"/><path d="M22.21 63.93c1 13.81 8.24 16.64 18.84 16.64 7.29 0 13.8-3.56 17-9.3v-.08c.47-.76 1.72-2.72 3.17-5 2.65-4.16 6.65-10.44 7.11-11.31a16 16 0 0 1 3.77-4.94 7 7 0 0 0 1.59-2.13 2.57 2.57 0 0 0-.17-1.6.66.66 0 0 0-.67-.33 9.68 9.68 0 0 0-5 1.67 18.53 18.53 0 0 0-5.58 6.2c-.69 1.19-.86 2-2.14 2.23a2 2 0 0 1-2.33-2v-.61-28.13c0-1.47-2.19-1.66-3.67-1.66a2.66 2.66 0 0 0-2.66 2.66v18.21a2.61 2.61 0 0 1-2.61 2.6c-1.43 0-1.6-1.17-1.6-2.6V17.1c0-1.47-2.19-1.67-3.67-1.67A2.67 2.67 0 0 0 41 18.1v26.35a2.61 2.61 0 0 1-2.61 2.6c-1.43 0-1.6-1.17-1.6-2.6V22.37c0-1.15-1.93-1.09-3.08-1.09a2.09 2.09 0 0 0-2.08 2.09v23.42a2.6 2.6 0 0 1-2.63 2.6c-1.43 0-1.6-1.16-1.6-2.6V31.15c0-1.15-1.94-1.08-3.09-1.08a2.08 2.08 0 0 0-2.08 2.08z" stroke-linecap="round" stroke-linejoin="round" fill="none" stroke="#00008f" stroke-width="2"/></g></g></svg>