<svg xmlns="http://www.w3.org/2000/svg" viewBox="0 0 96 96"><g fill="none" stroke="#00008f" stroke-linecap="round" stroke-linejoin="round" stroke-width="2"><path d="M32 72h29m-30.76-5h32.52"/><circle cx="24" cy="72" r="8"/><circle cx="24" cy="72" r="3"/><circle cx="69" cy="72" r="8"/><circle cx="69" cy="72" r="3"/><path d="M77 72h9.5a2.5 2.5 0 0 0 2.5-2.5 2.5 2.5 0 0 0-2.5-2.5H75.24M16 72h-5.5A2.5 2.5 0 0 1 8 69.5a2.5 2.5 0 0 1 2.5-2.5h7.26M87 67V54l-5.36-17.42A12.15 12.15 0 0 0 70 28H57v39"/><path d="M84.85 49h-16A4.8 4.8 0 0 1 64 44.2V36a2 2 0 0 1 2-2h14.5M65 54h2M10 67V28a5 5 0 0 1 5-5h37a5 5 0 0 1 5 5m30 28h-3a3 3 0 0 0-3 3 3 3 0 0 0 3 3h3"/><path d="M44 41h-6v-6a1 1 0 0 0-1-1h-6a1 1 0 0 0-1 1v6h-6a1 1 0 0 0-1 1v6a1 1 0 0 0 1 1h6v6a1 1 0 0 0 1 1h6a1 1 0 0 0 1-1v-6h6a1 1 0 0 0 1-1v-6a1 1 0 0 0-1-1zm19-13v-1a4 4 0 0 1 4-4 4 4 0 0 1 4 4v1"/></g></svg>