<svg xmlns="http://www.w3.org/2000/svg" viewBox="0 0 96 96"><g data-name="Layer 2"><path fill="currentColor" d="M0 0h96v96H0z"/><path d="M48.44 11a6.92 6.92 0 1 0 6.75 7.07A6.92 6.92 0 0 0 48.44 11z" stroke-miterlimit="10" fill="none" stroke="#00008f" stroke-width="2"/><path d="M57.9 29H38.66a3.47 3.47 0 0 0-3.44 2.92l-4 18.29a.9.9 0 0 0 0 .43 3.88 3.88 0 0 0 0 .48 3.51 3.51 0 0 0 7 .62l2.73-13.58v29a3.51 3.51 0 1 0 7 0v-7.11h.84V81.5a3.51 3.51 0 0 0 7 0V38.19l2.18 13.59a3.5 3.5 0 0 0 7-.63 4 4 0 0 0 0-.49.89.89 0 0 0 0-.43L61.35 32a3.48 3.48 0 0 0-3.45-3z" stroke-linecap="round" stroke-linejoin="round" fill="none" stroke="#00008f" stroke-width="2"/></g></svg>