<svg xmlns="http://www.w3.org/2000/svg" viewBox="0 0 96 96"><defs><style>.cls-1{fill:#fff;}.cls-2,.cls-3{fill:none;stroke:#00008f;stroke-width:2px;}.cls-2{stroke-miterlimit:10;}.cls-3{stroke-linecap:round;stroke-linejoin:round;}</style></defs><title>Amputation</title><g id="Layer_2" data-name="Layer 2"><g id="icons"><rect class="cls-1" width="96" height="96"/><path class="cls-2" d="M48.44,11a6.92,6.92,0,1,0,6.75,7.07A6.92,6.92,0,0,0,48.44,11Z"/><path class="cls-3" d="M57.9,29H38.66a3.47,3.47,0,0,0-3.44,2.92l-4,18.29a.9.9,0,0,0,0,.43,3.88,3.88,0,0,0,0,.48,3.51,3.51,0,0,0,7,.62l2.73-13.58,0,29a3.51,3.51,0,1,0,7,0V60.05h.84V81.5a3.51,3.51,0,0,0,7,0l0-43.31,2.18,13.59a3.5,3.5,0,0,0,7-.63,4,4,0,0,0,0-.49.89.89,0,0,0,0-.43L61.35,32A3.48,3.48,0,0,0,57.9,29Z"/></g></g></svg>