<svg xmlns="http://www.w3.org/2000/svg" viewBox="0 0 96 96"><defs><style>.cls-1{fill:#fff;}.cls-2{fill:none;stroke:#00008f;stroke-linecap:round;stroke-linejoin:round;stroke-width:2px;}</style></defs><title>Back Pain</title><g id="Layer_2" data-name="Layer 2"><g id="icons"><rect class="cls-1" width="96" height="96"/><path class="cls-2" d="M51.2,30a6.42,6.42,0,0,0-3.06.82c-4,2.15-8,4.37-12,6.49a5.6,5.6,0,0,0-3.27,5.4c0,10.59,0,21.18,0,31.77a5.19,5.19,0,0,0,.51,2.3,4.14,4.14,0,0,0,3.72,2.14,4.53,4.53,0,0,0,1.09-.14,4.23,4.23,0,0,0,3.08-4.2c0-8.61,0-17.21,0-25.82A2.25,2.25,0,0,1,42.1,47c2.61-1.63,5.28-3.15,8.2-4.84a.48.48,0,0,1,.26-.07.54.54,0,0,1,.53.54c0,1.45,0,2.73,0,4a2.75,2.75,0,0,0,.47,1.6c2,2.25,4,4.45,6.08,6.61a2.54,2.54,0,0,0,1.84.82,2.7,2.7,0,0,0,1.77-.7,2.34,2.34,0,0,0,.27-3.53c-1.34-1.67-2.8-3.25-4.07-5a4.6,4.6,0,0,1-.9-2.42c-.11-2.78,0-5.56,0-8.34C56.48,32.26,54.11,30,51.2,30Z"/><path class="cls-2" d="M61.83,19.86A5.56,5.56,0,1,0,61.71,31h0a5.53,5.53,0,0,0,5.51-5.5,5.41,5.41,0,0,0-5.33-5.61Z"/><line class="cls-2" x1="32.98" y1="17.84" x2="38.22" y2="26.83"/><line class="cls-2" x1="40.39" y1="17.14" x2="43.44" y2="25.97"/><line class="cls-2" x1="28.73" y1="23.93" x2="35.09" y2="31.17"/></g></g></svg>