<svg xmlns="http://www.w3.org/2000/svg" viewBox="0 0 96 96"><g data-name="Layer 2"><path fill="#fff" d="M0 0h96v96H0z"/><path d="M79.86 35.19a64.43 64.43 0 0 0-2.68 8.69c-.9 4.12-1.54 8.44-2.18 12.66-1 7.55-2.18 15.22-5.25 22.38l-.12.13c-.9 2-1.67 3.7-4.1 5.11a4.86 4.86 0 0 1-4.22.38 6.32 6.32 0 0 1-3.58-3.45c-1-2.55-.64-5.88-.25-8.82.13-1.15.25-2.3.38-3.33v-1.15c.26-5.75.64-13.68-6.9-15.85a11.31 11.31 0 0 0-5.89 0c-7.54 2.17-7.16 10.1-6.9 15.85v1.15a16 16 0 0 0 .38 3.33c.39 2.94.77 6.27-.25 8.82a6.32 6.32 0 0 1-3.58 3.45 4.86 4.86 0 0 1-4.22-.38c-2.56-1.41-3.2-3.07-4.09-5.11l-.13-.26C23.09 71.63 22.07 64 21 56.41c-.63-4.22-1.15-8.44-2.17-12.53a43.32 43.32 0 0 0-2.68-8.69c-2.43-5.76-2.18-12.41.38-17.14 2.43-4.34 7.54-6.9 13.94-6.9a57.67 57.67 0 0 1 8.18.89 42.47 42.47 0 0 0 9 .9c2.69-.13 5.37-.51 8.19-.9a61.07 61.07 0 0 1 9.71-.89c6.4 0 11.51 2.56 13.94 6.9h0c2.51 4.73 2.68 11.38.37 17.14z" stroke-miterlimit="10" fill="none" stroke="#00008f" stroke-width="2"/><path d="M57.45 27.66h-5.4v-5.4a.67.67 0 0 0-.68-.67h-6.74a.67.67 0 0 0-.68.67v5.4h-5.4a.67.67 0 0 0-.67.68v6.75a.67.67 0 0 0 .67.67H44v5.4a.67.67 0 0 0 .68.67h6.74a.67.67 0 0 0 .68-.67v-5.4h5.4a.67.67 0 0 0 .67-.67v-6.75a.67.67 0 0 0-.72-.68z" stroke-linecap="round" stroke-linejoin="round" fill="none" stroke="#00008f" stroke-width="2"/></g></svg>