<svg xmlns="http://www.w3.org/2000/svg" viewBox="0 0 96 96"><defs><style>.cls-2{fill:#00008f}.cls-3{fill:none;stroke:#00008f;stroke-linecap:round;stroke-linejoin:round;stroke-width:2px}</style></defs><g id="Layer_2" ><g id="icons"><path class="cls-2" d="M46 33.33c9.58 0 27.15 2.21 37.78 16.93C74.76 62.9 61.74 70.14 48 70.14S21.24 62.9 12.19 50.26c8.4-11.7 18.86-16.93 33.81-16.93m0-2c-14.55 0-26.35 4.76-35.82 18.25a1.16 1.16 0 0 0 0 1.34C19.65 64.41 33.43 72.14 48 72.14s28.36-7.74 37.8-21.23a1.22 1.22 0 0 0-.08-1.41C76.29 36.07 60.58 31.33 46 31.33z"/><path class="cls-3" d="M17.34 33.86c7.92-6.87 17.18-10 27.93-10a52.81 52.81 0 0 1 28.44 8.06"/><path class="cls-3" d="M66.33 41.87a20.93 20.93 0 0 0-4.5-6.68c-1.9-1.91-9.06-2.83-15.6-2.78s-13.7.87-15.6 2.78a21 21 0 0 0 0 29.7 22.83 22.83 0 0 0 31.2 0 21 21 0 0 0 4.5-23z"/><path class="cls-2" d="M47.23 41.41a8.29 8.29 0 0 1 2.27.31 4.9 4.9 0 0 0-.36 1.81 5.57 5.57 0 0 0 5.56 5.56 4.47 4.47 0 0 0 .75-.06v.63a8.25 8.25 0 1 1-8.25-8.25m0-2a10.25 10.25 0 1 0 10.28 10.25 10.68 10.68 0 0 0-.2-2 1.07 1.07 0 0 0-.52-.72 1 1 0 0 0-.54-.15 1 1 0 0 0-.35.06 3.69 3.69 0 0 1-1.17.24 3.56 3.56 0 0 1-3.56-3.56 3.43 3.43 0 0 1 .57-1.78 1.11 1.11 0 0 0 .1-.89 1.13 1.13 0 0 0-.61-.66 10.38 10.38 0 0 0-4-.79z"/></g></g></svg>