<svg xmlns="http://www.w3.org/2000/svg" viewBox="0 0 96 96"><defs><style>.cls-2{fill:none;stroke:#00008f;stroke-linecap:round;stroke-linejoin:round;stroke-width:2px}</style></defs><g id="Layer_2" ><g id="icons"><path class="cls-2" d="M47.62 44.84a.54.54 0 0 0 .76 0L61.66 31a10.37 10.37 0 0 0-.2-14A9.37 9.37 0 0 0 48 16.74a9.37 9.37 0 0 0-13.46.26 10.37 10.37 0 0 0-.2 14zM43.36 61.39l9.32 1.3a8.6 8.6 0 0 0 2.21 0h.4a4 4 0 0 0 2.78-3.48 4 4 0 0 0-3.68-4.29l-12.85-1.66a15.28 15.28 0 0 0-12.28 3.91l-7.78 7.15-.57.43"/><path class="cls-2" d="M38.61 72.69c.68 0 15.58 2.89 15.58 2.89a6.76 6.76 0 0 0 4.81-.87l11.74-7.21 11.55-10.9a2.27 2.27 0 0 0 .23-3.05 4 4 0 0 0-5.64-.7l-9.55 7.44-12 2.38M38.61 72.69a4.86 4.86 0 0 0-3.22 1.13l-3.86 3.28M19.94 63.62a2 2 0 0 0-2.82-.22l-3.42 2.9a2 2 0 0 0-.22 2.81L25.54 83.3a2 2 0 0 0 2.82.22l3.42-2.9a2 2 0 0 0 .22-2.81zM55 26h-8l-3.06 6.11-3.29-12.16L37.3 26H27"/></g></g></svg>