<svg xmlns="http://www.w3.org/2000/svg" viewBox="0 0 96 96"><defs><style>.cls-2{fill:none;stroke:#00008f;stroke-linecap:round;stroke-linejoin:round;stroke-width:2px}</style></defs><g id="Layer_2" ><g id="icons"><path fill="currentColor" d="M0 0h96v96H0z"/><path class="cls-2" d="M62 23h-8v-8a1 1 0 0 0-1-1H43a1 1 0 0 0-1 1v8h-8a1 1 0 0 0-1 1v10a1 1 0 0 0 1 1h8v8a1 1 0 0 0 1 1h10a1 1 0 0 0 1-1v-8h8a1 1 0 0 0 1-1V24a1 1 0 0 0-1-1zM43.36 61.39l9.32 1.3a8.6 8.6 0 0 0 2.21 0h.4a4 4 0 0 0 2.78-3.48 4 4 0 0 0-3.68-4.29l-12.85-1.66a15.28 15.28 0 0 0-12.28 3.91l-7.78 7.15-.57.43"/><path class="cls-2" d="M38.61 72.69c.68 0 15.58 2.89 15.58 2.89a6.76 6.76 0 0 0 4.81-.87l11.74-7.21 11.55-10.9a2.27 2.27 0 0 0 .23-3.05 4 4 0 0 0-5.64-.7l-9.55 7.44-12 2.38M38.61 72.69a4.86 4.86 0 0 0-3.22 1.13l-3.86 3.28M19.94 63.62a2 2 0 0 0-2.82-.22l-3.42 2.9a2 2 0 0 0-.22 2.81L25.54 83.3a2 2 0 0 0 2.82.22l3.42-2.9a2 2 0 0 0 .22-2.81z"/></g></g></svg>