<svg xmlns="http://www.w3.org/2000/svg" viewBox="0 0 96 96"><defs><style>.cls-2{fill:none;stroke:#00008f;stroke-linecap:round;stroke-linejoin:round;stroke-width:2px}</style></defs><g id="Layer_2" ><g id="icons"><path fill="currentColor" d="M0 0h96v96H0z"/><path class="cls-2" d="M61 24l-3-3.5c-1.62-1.92-2.6-2.5-5.39-2.5h-9.22c-2.79 0-3.77.58-5.39 2.5L35 24M60 43h-7v-7a1 1 0 0 0-1-1h-8a1 1 0 0 0-1 1v7h-7a1 1 0 0 0-1 1v8a1 1 0 0 0 1 1h7v7a1 1 0 0 0 1 1h8a1 1 0 0 0 1-1v-7h7a1 1 0 0 0 1-1v-8a1 1 0 0 0-1-1z"/><rect class="cls-2" x="16" y="24" width="64" height="48" rx="5"/><path class="cls-2" d="M34 24v3a3 3 0 0 1-3 3h-4a3 3 0 0 1-3-3v-3M72 24v3a3 3 0 0 1-3 3h-4a3 3 0 0 1-3-3v-3M34 72v5H24v-5M72 72v5H62v-5"/></g></g></svg>