<svg xmlns="http://www.w3.org/2000/svg" viewBox="0 0 96 96"><defs><style>.cls-2{fill:none;stroke:#00008f;stroke-linecap:round;stroke-linejoin:round;stroke-width:2px}</style></defs><g id="Layer_2" data-name="Layer 2"><g id="icons"><path fill="#fff" d="M0 0h96v96H0z"/><path class="cls-2" d="M46 57.11a5.12 5.12 0 0 0 2.21.42 5 5 0 0 0 2.79-.79 3.5 3.5 0 0 0 1.3-2.26 8.42 8.42 0 0 0 .11-1.1v-2.11a1.59 1.59 0 0 1 .11-.83 4.09 4.09 0 0 1 .5-.68l.14-.16a1.19 1.19 0 0 0 .15-.18c.18-.22.37-.48.58-.79s.39-.6.56-.89.39-.64.57-1a.89.89 0 0 0 .14-.24 7.88 7.88 0 0 0 .46-2.66 7.48 7.48 0 0 0-.6-3A7.69 7.69 0 0 0 51 36.75a7.63 7.63 0 0 0-5.93 0 7.65 7.65 0 0 0-2.42 1.65A7.91 7.91 0 0 0 41 40.84a7.65 7.65 0 0 0-.59 3M65.02 26.53l6-6M25.02 64.53l7.97-7.62"/><path class="cls-2" d="M44.36 73.32a7.23 7.23 0 0 0 4.08 1c1.56 0 4.87-.6 6.43-1.79a7.94 7.94 0 0 0 2.94-5.16 15.81 15.81 0 0 0 .25-2.5c0-1 0-2.63-.06-4.78a3.73 3.73 0 0 1 .25-1.9c.23-.42 5.16-6.6 6-9a15.68 15.68 0 0 0 1-6A17.25 17.25 0 0 0 64 36.32a17.77 17.77 0 0 0-3.71-5.55A17.3 17.3 0 0 0 54.76 27a17.38 17.38 0 0 0-13.48 0 17.23 17.23 0 0 0-5.51 3.74 18 18 0 0 0-3.7 5.55 17.25 17.25 0 0 0-1.36 6.78"/></g></g></svg>