<svg xmlns="http://www.w3.org/2000/svg" viewBox="0 0 96 96"><defs><style>.cls-2{fill:none;stroke:#00008f;stroke-linecap:round;stroke-linejoin:round;stroke-width:2px}</style></defs><g id="Layer_2" data-name="Layer 2"><g id="icons"><path fill="#fff" d="M0 0h96v96H0z"/><path class="cls-2" d="M74 51.3a19.76 19.76 0 0 0-.38-26.69A17.85 17.85 0 0 0 48 24.22a17.85 17.85 0 0 0-25.6.39A19.76 19.76 0 0 0 22 51.3l25.28 26.39a1 1 0 0 0 1.44 0zM37.38 24.49a12.65 12.65 0 0 0-3.93.2M35.98 57.19l2.39 2.49"/><path class="cls-2" d="M29.58 26.2a12.72 12.72 0 0 0-2.76 2.2 14 14 0 0 0-.27 18.94l6.23 6.51"/></g></g></svg>