<svg xmlns="http://www.w3.org/2000/svg" viewBox="0 0 96 96"><defs><style>.cls-1{fill:#fff;}.cls-2{fill:none;stroke:#00008f;stroke-linecap:round;stroke-linejoin:round;stroke-width:2px;}</style></defs><title>Heart</title><g id="Layer_2" data-name="Layer 2"><g id="icons"><rect class="cls-1" width="96" height="96"/><path class="cls-2" d="M74,51.3a19.76,19.76,0,0,0-.38-26.69A17.85,17.85,0,0,0,48,24.22l0,0,0,0a17.85,17.85,0,0,0-25.6.39A19.76,19.76,0,0,0,22,51.3L47.28,77.69a1,1,0,0,0,1.44,0Z"/><path class="cls-2" d="M37.38,24.49a12.65,12.65,0,0,0-3.93.2"/><line class="cls-2" x1="35.98" y1="57.19" x2="38.37" y2="59.68"/><path class="cls-2" d="M29.58,26.2a12.72,12.72,0,0,0-2.76,2.2,14,14,0,0,0-.27,18.94l6.23,6.51"/></g></g></svg>