<svg xmlns="http://www.w3.org/2000/svg" viewBox="0 0 96 96"><defs><style>.cls-1{fill:#fff;}.cls-2{fill:none;stroke:#00008f;stroke-linecap:round;stroke-linejoin:round;stroke-width:2px;}</style></defs><title>Hospital Bed</title><g id="Layer_2" data-name="Layer 2"><g id="icons"><rect class="cls-1" width="96" height="96"/><path class="cls-2" d="M15,31h0a3,3,0,0,1,3,3V77a2,2,0,0,1-2,2H14a2,2,0,0,1-2-2V34a3,3,0,0,1,3-3Z"/><path class="cls-2" d="M78,67h6a0,0,0,0,1,0,0V77a2,2,0,0,1-2,2H80a2,2,0,0,1-2-2V67A0,0,0,0,1,78,67Z"/><path class="cls-2" d="M18,51H74A10,10,0,0,1,84,61v0a0,0,0,0,1,0,0H18a0,0,0,0,1,0,0V51A0,0,0,0,1,18,51Z"/><line class="cls-2" x1="78" y1="67" x2="18" y2="67"/><line class="cls-2" x1="84" y1="67" x2="84" y2="61"/><path class="cls-2" d="M18,41c9.94,0,18,4.48,18,10"/><line class="cls-2" x1="60" y1="67" x2="60" y2="79"/><line class="cls-2" x1="60" y1="17" x2="60" y2="51"/><line class="cls-2" x1="51" y1="79" x2="69" y2="79"/><path class="cls-2" d="M49,25V20a3,3,0,0,1,3-3H68a3,3,0,0,1,3,3v5"/><path class="cls-2" d="M45,25h8a0,0,0,0,1,0,0v9a4,4,0,0,1-4,4h0a4,4,0,0,1-4-4V25a0,0,0,0,1,0,0Z"/><path class="cls-2" d="M67,25h8a0,0,0,0,1,0,0v9a4,4,0,0,1-4,4h0a4,4,0,0,1-4-4V25A0,0,0,0,1,67,25Z"/></g></g></svg>