<svg xmlns="http://www.w3.org/2000/svg" viewBox="0 0 96 96"><g fill="none" stroke="#00008f" stroke-linecap="round" stroke-linejoin="round" stroke-width="2"><path d="M57 25h-5v-5a1 1 0 0 0-1-1h-6a1 1 0 0 0-1 1v5h-5a1 1 0 0 0-1 1v6a1 1 0 0 0 1 1h5v5a1 1 0 0 0 1 1h6a1 1 0 0 0 1-1v-5h5a1 1 0 0 0 1-1v-6a1 1 0 0 0-1-1z"/><path d="M65 38h7a2 2 0 0 1 2 2v43H22V40a2 2 0 0 1 2-2h7V19.05a3 3 0 0 1 .66-1.87l2.44-3A3 3 0 0 1 36.44 13h23.12a3 3 0 0 1 2.34 1.13l2.44 3a3 3 0 0 1 .66 1.92zM23 83h-7m64 0h-7"/><path d="M44 58h8v6h-8zm15 0h8v6h-8zm-30 0h8v6h-8zm15-12h8v6h-8zm15 0h8v6h-8zm-30 0h8v6h-8zm5 37V70h28v13M48 70v13"/></g></svg>