<svg xmlns="http://www.w3.org/2000/svg" viewBox="0 0 96 96"><defs><style>.cls-2{fill:none;stroke:#00008f;stroke-linecap:round;stroke-linejoin:round;stroke-width:2px}</style></defs><g id="Layer_2" data-name="Layer 2"><g id="icons"><path fill="#fff" d="M0 0h96v96H0z"/><path class="cls-2" d="M57 25h-5v-5a1 1 0 0 0-1-1h-6a1 1 0 0 0-1 1v5h-5a1 1 0 0 0-1 1v6a1 1 0 0 0 1 1h5v5a1 1 0 0 0 1 1h6a1 1 0 0 0 1-1v-5h5a1 1 0 0 0 1-1v-6a1 1 0 0 0-1-1z"/><path class="cls-2" d="M65 38h7a2 2 0 0 1 2 2v43H22V40a2 2 0 0 1 2-2h7V19.05a3 3 0 0 1 .66-1.87l2.44-3A3 3 0 0 1 36.44 13h23.12a3 3 0 0 1 2.34 1.13l2.44 3a3 3 0 0 1 .66 1.92zM23 83h-7M80 83h-7"/><path class="cls-2" d="M44 58h8v6h-8zM59 58h8v6h-8zM29 58h8v6h-8zM44 46h8v6h-8zM59 46h8v6h-8zM29 46h8v6h-8zM34 83V70h28v13M48 70v13"/></g></g></svg>