<svg xmlns="http://www.w3.org/2000/svg" viewBox="0 0 96 96"><defs><style>.cls-2{fill:none;stroke:#00008f;stroke-linecap:round;stroke-linejoin:round;stroke-width:2px}</style></defs><g id="Layer_2" ><g id="icons"><path fill="currentColor" d="M0 0h96v96H0z"/><path class="cls-2" d="M15 31a3 3 0 0 1 3 3v43a2 2 0 0 1-2 2h-2a2 2 0 0 1-2-2V34a3 3 0 0 1 3-3zM78 67h6v10a2 2 0 0 1-2 2h-2a2 2 0 0 1-2-2V67zM18 51h56a10 10 0 0 1 10 10H18V51zM78 67H18M84 67v-6M18 41c9.94 0 18 4.48 18 10M60 67v12M60 17v34M51 79h18M49 25v-5a3 3 0 0 1 3-3h16a3 3 0 0 1 3 3v5M45 25h8v9a4 4 0 0 1-4 4 4 4 0 0 1-4-4v-9zM67 25h8v9a4 4 0 0 1-4 4 4 4 0 0 1-4-4v-9z"/></g></g></svg>