<svg xmlns="http://www.w3.org/2000/svg" viewBox="0 0 96 96"><defs><style>.cls-1{fill:#fff;}.cls-2{fill:none;stroke:#00008f;stroke-linecap:round;stroke-linejoin:round;stroke-width:2px;}</style></defs><title>Hospital</title><g id="Layer_2" data-name="Layer 2"><g id="icons"><rect class="cls-1" width="96" height="96"/><path class="cls-2" d="M57,25H52V20a1,1,0,0,0-1-1H45a1,1,0,0,0-1,1v5H39a1,1,0,0,0-1,1v6a1,1,0,0,0,1,1h5v5a1,1,0,0,0,1,1h6a1,1,0,0,0,1-1V33h5a1,1,0,0,0,1-1V26A1,1,0,0,0,57,25Z"/><path class="cls-2" d="M65,38h7a2,2,0,0,1,2,2V83H22V40a2,2,0,0,1,2-2h7V19.05a3,3,0,0,1,.66-1.87l2.44-3A3,3,0,0,1,36.44,13H59.56a3,3,0,0,1,2.34,1.13l2.44,3A3,3,0,0,1,65,19.05Z"/><line class="cls-2" x1="23" y1="83" x2="16" y2="83"/><line class="cls-2" x1="80" y1="83" x2="73" y2="83"/><rect class="cls-2" x="44" y="58" width="8" height="6"/><rect class="cls-2" x="59" y="58" width="8" height="6"/><rect class="cls-2" x="29" y="58" width="8" height="6"/><rect class="cls-2" x="44" y="46" width="8" height="6"/><rect class="cls-2" x="59" y="46" width="8" height="6"/><rect class="cls-2" x="29" y="46" width="8" height="6"/><polyline class="cls-2" points="34 83 34 70 62 70 62 83"/><line class="cls-2" x1="48" y1="70" x2="48" y2="83"/></g></g></svg>