<svg xmlns="http://www.w3.org/2000/svg" viewBox="0 0 96 96"><defs><style>.cls-1{fill:#fff;}.cls-2{fill:none;stroke:#00008f;stroke-linejoin:round;stroke-width:2px;}</style></defs><title>Injection</title><g id="Layer_2" data-name="Layer 2"><g id="icons"><rect class="cls-1" width="96" height="96"/></g><g id="stroke_blue_2px" data-name="stroke blue 2px"><line class="cls-2" x1="41.71" y1="9.54" x2="54.01" y2="9.54"/><path class="cls-2" d="M35.46,28.85a1.26,1.26,0,0,1-1.23-1.23V23.74a1.26,1.26,0,0,1,1.23-1.23h6.25v-13H40.57A2.25,2.25,0,0,1,38.3,7.27,2.3,2.3,0,0,1,40.57,5H55.14a2.27,2.27,0,1,1,0,4.54H54v13h6.53a1.26,1.26,0,0,1,1.23,1.23v3.88a1.26,1.26,0,0,1-1.23,1.23Zm22.71,0v31.4a6.43,6.43,0,0,1-5.11,6.29,27.75,27.75,0,0,1-5,.24,30.51,30.51,0,0,1-5.36-.37,6.15,6.15,0,0,1-4.86-6.16V28.85"/><line class="cls-2" x1="41.71" y1="22.51" x2="54.01" y2="22.51"/><path class="cls-2" d="M37.83,54H49.47c.75,0,1.32.5,1.32,2s-.66,2-1.32,2H37.83"/><path class="cls-2" d="M37.83,45.06H49.47c.75,0,1.32.5,1.32,2s-.66,2-1.32,2H37.83"/><path class="cls-2" d="M37.83,36.08H49.47c.75,0,1.32.5,1.32,2s-.66,2-1.32,2H37.83"/><path class="cls-2" d="M42.8,66.54,42.89,72a.64.64,0,0,0,.66.66h1V78a.65.65,0,0,0,.67.66h1.23V89.86A1.09,1.09,0,0,0,47.62,91h.72a1.09,1.09,0,0,0,1.13-1.14V78.64H50.7a.68.68,0,0,0,.47-.19.73.73,0,0,0,.19-.47v-5.3h1A.65.65,0,0,0,53,72V66.56"/><line class="cls-2" x1="51.36" y1="72.68" x2="44.59" y2="72.68"/><line class="cls-2" x1="49.47" y1="78.64" x2="46.49" y2="78.64"/></g></g></svg>