<svg xmlns="http://www.w3.org/2000/svg" viewBox="0 0 96 96"><g data-name="stroke blue 2px" fill="none" stroke="currentColor" stroke-linejoin="round" stroke-width="2"><path d="M41.71 9.54h12.3M35.46 28.85a1.26 1.26 0 0 1-1.23-1.23v-3.88a1.26 1.26 0 0 1 1.23-1.23h6.25v-13h-1.14a2.25 2.25 0 0 1-2.27-2.24A2.3 2.3 0 0 1 40.57 5h14.57a2.27 2.27 0 1 1 0 4.54H54v13h6.53a1.26 1.26 0 0 1 1.23 1.23v3.88a1.26 1.26 0 0 1-1.23 1.23zm22.71 0v31.4a6.43 6.43 0 0 1-5.11 6.29 27.75 27.75 0 0 1-5 .24 30.51 30.51 0 0 1-5.36-.37 6.15 6.15 0 0 1-4.86-6.16v-31.4m3.87-6.34h12.3"/><path d="M37.83 54h11.64c.75 0 1.32.5 1.32 2s-.66 2-1.32 2H37.83m0-12.94h11.64c.75 0 1.32.5 1.32 2s-.66 2-1.32 2H37.83m0-12.98h11.64c.75 0 1.32.5 1.32 2s-.66 2-1.32 2H37.83m4.97 26.46l.09 5.46a.64.64 0 0 0 .66.66h1V78a.65.65 0 0 0 .67.66h1.23v11.2A1.09 1.09 0 0 0 47.62 91h.72a1.09 1.09 0 0 0 1.13-1.14V78.64h1.23a.68.68 0 0 0 .47-.19.73.73 0 0 0 .19-.47v-5.3h1A.65.65 0 0 0 53 72v-5.44m-1.64 6.12h-6.77m4.88 5.96h-2.98"/></g></svg>