<svg xmlns="http://www.w3.org/2000/svg" viewBox="0 0 96 96"><defs><style>.cls-1{fill:#fff;}.cls-2{fill:none;stroke:#00008f;stroke-linecap:round;stroke-linejoin:round;stroke-width:2px;}</style></defs><title>Medical Assistance</title><g id="Layer_2" data-name="Layer 2"><g id="icons"><rect class="cls-1" width="96" height="96"/><path class="cls-2" d="M62.54,41.82H55.2V34.48a.92.92,0,0,0-.91-.92H45.12a.92.92,0,0,0-.92.92v7.34H36.86a.91.91,0,0,0-.91.91V51.9a.92.92,0,0,0,.91.92H44.2v7.34a.92.92,0,0,0,.92.91h9.17a.91.91,0,0,0,.91-.91V52.82h7.34a.92.92,0,0,0,.92-.92V42.73A.92.92,0,0,0,62.54,41.82Z"/><path class="cls-2" d="M15.26,37l1.9-1.36a2.34,2.34,0,0,1,3.26.54l7.23,10.14a2.34,2.34,0,0,1-.54,3.26l-1.9,1.36"/><path class="cls-2" d="M38.77,70l1.91-1.35a2.32,2.32,0,0,1,3.25.54l7.24,10.14a2.34,2.34,0,0,1-.54,3.26L48.72,83.9"/><path class="cls-2" d="M38.79,70a8,8,0,0,0-3,6A24.85,24.85,0,0,1,18.5,51.81a8,8,0,0,0,6.69-.89L15.27,37a8,8,0,0,0-2.94,5.16A32.66,32.66,0,0,0,42.88,85a8,8,0,0,0,5.83-1.11Z"/><path class="cls-2" d="M16.46,30a36.14,36.14,0,0,1,30.26-19l.75,0A36.18,36.18,0,0,1,85.22,45.43l0,.74A36.17,36.17,0,0,1,57.24,83"/></g></g></svg>