<svg xmlns="http://www.w3.org/2000/svg" viewBox="0 0 96 96"><defs><style>.cls-2{fill:none;stroke:#00008f;stroke-linecap:round;stroke-linejoin:round;stroke-width:2px}</style></defs><g id="Layer_2" ><g id="icons"><path fill="currentColor" d="M0 0h96v96H0z"/><path class="cls-2" d="M62.54 41.82H55.2v-7.34a.92.92 0 0 0-.91-.92h-9.17a.92.92 0 0 0-.92.92v7.34h-7.34a.91.91 0 0 0-.91.91v9.17a.92.92 0 0 0 .91.92h7.34v7.34a.92.92 0 0 0 .92.91h9.17a.91.91 0 0 0 .91-.91v-7.34h7.34a.92.92 0 0 0 .92-.92v-9.17a.92.92 0 0 0-.92-.91zM15.26 37l1.9-1.36a2.34 2.34 0 0 1 3.26.54l7.23 10.14a2.34 2.34 0 0 1-.54 3.26l-1.9 1.36M38.77 70l1.91-1.35a2.32 2.32 0 0 1 3.25.54l7.24 10.14a2.34 2.34 0 0 1-.54 3.26l-1.91 1.31"/><path class="cls-2" d="M38.79 70a8 8 0 0 0-3 6A24.85 24.85 0 0 1 18.5 51.81a8 8 0 0 0 6.69-.89L15.27 37a8 8 0 0 0-2.94 5.16A32.66 32.66 0 0 0 42.88 85a8 8 0 0 0 5.83-1.11zM16.46 30a36.14 36.14 0 0 1 30.26-19h.75a36.18 36.18 0 0 1 37.75 34.43v.74A36.17 36.17 0 0 1 57.24 83"/></g></g></svg>