<svg xmlns="http://www.w3.org/2000/svg" viewBox="0 0 96 96"><defs><style>.cls-1{fill:#fff;}.cls-2,.cls-4{fill:none;stroke-linecap:round;}.cls-2,.cls-3,.cls-4{stroke:#00008f;stroke-width:2px;}.cls-2{stroke-linejoin:round;}.cls-3{fill:#312780;}.cls-3,.cls-4{stroke-miterlimit:10;}</style></defs><title>Mental Disability</title><g id="Layer_2" data-name="Layer 2"><g id="icons"><rect class="cls-1" width="96" height="96"/><path class="cls-2" d="M40.83,74.46c2.92,2.8,7.5,4,11.43,4a15.81,15.81,0,0,0,8.21-2.08C68.14,72.09,72,64.77,73.67,60.78a14.47,14.47,0,0,0,1.07-5.49V50a6.82,6.82,0,0,0,2.32-5.84l-.25-2.59a6,6,0,0,1,0-1.47l1.09-6.74a3.16,3.16,0,0,0-2.58-3.59c-.12-6.15-1.15-9.64-2-11.44H49.11"/><path class="cls-3" d="M75.36,30.21Z"/><path class="cls-2" d="M17.49,16.41A1.51,1.51,0,0,0,16,17.91V66.39a1.55,1.55,0,0,0,.71,1.26S26.44,75.92,37,75.92a5.14,5.14,0,0,0,4.22-1.81A5.93,5.93,0,0,0,42.76,70V64.75a.63.63,0,0,1,.52-.63,1.49,1.49,0,0,0,1.15-1,1.47,1.47,0,0,0-.54-1.65l-4.22-3.07a.77.77,0,0,1-.29-.89.8.8,0,0,1,.77-.56H46a1.5,1.5,0,0,0,1.51-1.5V53.93l.29-.21L53,50.79a2.37,2.37,0,0,0,.79-3.14l-4.64-8.49V17.91a1.51,1.51,0,0,0-1.51-1.5Z"/><path class="cls-4" d="M48,62.07c.06,0,6.64,3.16,12.86,0"/><ellipse class="cls-2" cx="37.33" cy="36.54" rx="3.38" ry="3.36"/><ellipse class="cls-2" cx="60.91" cy="36.54" rx="3.38" ry="3.36"/></g></g></svg>