<svg xmlns="http://www.w3.org/2000/svg" viewBox="0 0 96 96"><defs><style>.cls-2{fill:none;stroke-linecap:round;stroke:#00008f;stroke-width:2px;stroke-linejoin:round}</style></defs><g id="Layer_2" data-name="Layer 2"><g id="icons"><path fill="#fff" d="M0 0h96v96H0z"/><path class="cls-2" d="M40.83 74.46c2.92 2.8 7.5 4 11.43 4a15.81 15.81 0 0 0 8.21-2.08c7.67-4.29 11.53-11.61 13.2-15.6a14.47 14.47 0 0 0 1.07-5.49V50a6.82 6.82 0 0 0 2.32-5.84l-.25-2.59a6 6 0 0 1 0-1.47l1.09-6.74a3.16 3.16 0 0 0-2.58-3.59c-.12-6.15-1.15-9.64-2-11.44H49.11"/><path class="cls-2" d="M17.49 16.41a1.51 1.51 0 0 0-1.49 1.5v48.48a1.55 1.55 0 0 0 .71 1.26s9.73 8.27 20.29 8.27a5.14 5.14 0 0 0 4.22-1.81A5.93 5.93 0 0 0 42.76 70v-5.25a.63.63 0 0 1 .52-.63 1.49 1.49 0 0 0 1.15-1 1.47 1.47 0 0 0-.54-1.65l-4.22-3.07a.77.77 0 0 1-.29-.89.8.8 0 0 1 .77-.56H46a1.5 1.5 0 0 0 1.51-1.5v-1.52l.29-.21 5.2-2.93a2.37 2.37 0 0 0 .79-3.14l-4.64-8.49V17.91a1.51 1.51 0 0 0-1.51-1.5z"/><path d="M48 62.07c.06 0 6.64 3.16 12.86 0" stroke-miterlimit="10" stroke="#00008f" stroke-width="2" fill="none" stroke-linecap="round"/><ellipse class="cls-2" cx="37.33" cy="36.54" rx="3.38" ry="3.36"/><ellipse class="cls-2" cx="60.91" cy="36.54" rx="3.38" ry="3.36"/></g></g></svg>