<svg xmlns="http://www.w3.org/2000/svg" viewBox="0 0 96 96"><defs><style>.cls-2{fill:none;stroke:#00008f;stroke-linecap:round;stroke-linejoin:round;stroke-width:2px}</style></defs><g id="Layer_2" data-name="Layer 2"><g id="icons"><path fill="currentColor" d="M0 0h96v96H0z"/><path class="cls-2" d="M47 27.46A6.43 6.43 0 1 0 40.55 21 6.43 6.43 0 0 0 47 27.46zM33.79 51.81a3.27 3.27 0 0 0 4.28-2.41l2.1-7.8-3.48 16.84a3.32 3.32 0 0 0-.23 1.2 3.26 3.26 0 0 0 3.26 3.26h.36v15.23a3.26 3.26 0 1 0 6.51 0V62.9h.78v15.23a3.26 3.26 0 0 0 6.52 0V62.9h.35a3.26 3.26 0 0 0 3-4.46L53.8 41.6l2.08 7.74a3.25 3.25 0 0 0 3.2 2.66 3.21 3.21 0 0 0 3.22-4.18l-4.86-16.94a3.25 3.25 0 0 0-3.2-2.69H39.72a3.25 3.25 0 0 0-3.2 2.69s-4 13.78-4.86 16.94 1.45 3.76 2.13 3.99zM32.83 51.43v29.96"/></g></g></svg>