<svg xmlns="http://www.w3.org/2000/svg" viewBox="0 0 96 96"><defs><style>.cls-1{fill:#fff;}.cls-2{fill:none;stroke:#00008f;stroke-linecap:round;stroke-linejoin:round;stroke-width:2px;}</style></defs><title>Motor Disability</title><g id="Layer_2" data-name="Layer 2"><g id="icons"><rect class="cls-1" width="96" height="96"/><path class="cls-2" d="M47,27.46A6.43,6.43,0,1,0,40.55,21,6.43,6.43,0,0,0,47,27.46Z"/><path class="cls-2" d="M33.79,51.81a3.27,3.27,0,0,0,4.28-2.41l2.1-7.8L36.69,58.44a3.32,3.32,0,0,0-.23,1.2,3.26,3.26,0,0,0,3.26,3.26h.36V78.13a3.26,3.26,0,1,0,6.51,0V62.9h.78V78.13a3.26,3.26,0,0,0,6.52,0V62.9h.35a3.26,3.26,0,0,0,3-4.46L53.8,41.6l2.08,7.74A3.25,3.25,0,0,0,59.08,52a3.21,3.21,0,0,0,3.22-4.18L57.44,30.88a3.25,3.25,0,0,0-3.2-2.69H39.72a3.25,3.25,0,0,0-3.2,2.69s-4,13.78-4.86,16.94S33.11,51.58,33.79,51.81Z"/><line class="cls-2" x1="32.83" y1="51.43" x2="32.83" y2="81.39"/></g></g></svg>