<svg xmlns="http://www.w3.org/2000/svg" viewBox="0 0 96 96"><g ><path d="M58.81 81.12a9.9 9.9 0 0 1-5.51-2 9.87 9.87 0 0 0-5.4-1.65 9.66 9.66 0 0 0-5.42 1.67A9.93 9.93 0 0 1 37 81.12c-4.58 0-9.71-4.79-14.07-13.14-3.8-7.27-6.36-16-6.36-21.73 0-10.86 9.25-19.69 20.63-19.69 1.67 0 3.5.69 6.74 2.54a8.24 8.24 0 0 0 3.25 1c.83 0 .77-.64.77-.64A14.32 14.32 0 0 0 46.37 22a13.67 13.67 0 0 0-6.86-6.51.3.3 0 0 1 .12-.58.28.28 0 0 1 .13 0 14.36 14.36 0 0 1 7.15 6.79 15 15 0 0 1 1.65 7.66.82.82 0 0 0 .79.74 8.79 8.79 0 0 0 3-1l1.38-.73A21 21 0 0 1 57 27a6.89 6.89 0 0 1 2.18-.39c11 0 20.23 9 20.23 19.69 0 5.74-2.57 14.48-6.38 21.73-4.37 8.3-9.56 13.09-14.22 13.09zM39.75 52.73a7.21 7.21 0 0 0 4 3.37m8.25-.29a8.26 8.26 0 0 0 3.32-3" fill="none" stroke="#00008f" stroke-linecap="round" stroke-linejoin="round" stroke-width="2" data-name="stroke blue 2px"/></g></svg>