<svg xmlns="http://www.w3.org/2000/svg" viewBox="0 0 96 96"><defs><style>.cls-2{fill:none;stroke:#00008f;stroke-linecap:round;stroke-linejoin:round;stroke-width:2px}</style></defs><g id="Layer_2" ><g id="icons"><path fill="currentColor" d="M0 0h96v96H0z"/><path class="cls-2" d="M57.92 28.12a6.62 6.62 0 0 1-6.2-3.72c-1.66 3.41-3.63 6.2-8.68 6.2h-5V38c0 5.79 3.49 11.16 9.92 11.16s9.96-5.33 9.96-11.16z"/><path class="cls-2" d="M57.92 40.52s6.2-2.48 6.2-11.16v-2.48c0-3.72 0-8.68-5-8.68C56.84 14.33 54.2 12 48 12h-1.24a15.08 15.08 0 0 0-14.88 14.88v2.48c0 8.68 6.2 11.16 6.2 11.16M40.56 45.82v5.86M55.44 45.71v5.97M59 82c9-1 16-4 16-10v-7c0-5.58-4.61-10.71-10.59-11.56l-9-1.76M65 74v6.72M31 63v3M21 72l34-20M62 53L42 85M40.56 51.68l3.91 6.52"/><path class="cls-2" d="M40.56 51.68l-9 1.76C25.61 54.29 21 59.42 21 65v7c0 6 4 13 13 13h19.5a6.5 6.5 0 0 0 6.5-6.5 6.5 6.5 0 0 0-6.5-6.5h-3.37"/></g></g></svg>