<svg xmlns="http://www.w3.org/2000/svg" viewBox="0 0 96 96"><defs><style>.cls-1{fill:#fff;}.cls-2{fill:none;stroke:#00008f;stroke-linecap:round;stroke-linejoin:round;stroke-width:2px;}</style></defs><title>Plaster Crutch</title><g id="Layer_2" data-name="Layer 2"><g id="icons"><rect class="cls-1" width="96" height="96"/><path class="cls-2" d="M57.92,28.12a6.62,6.62,0,0,1-6.2-3.72c-1.66,3.41-3.63,6.2-8.68,6.2h-5V38c0,5.79,3.49,11.16,9.92,11.16S57.92,43.83,57.92,38Z"/><path class="cls-2" d="M57.92,40.52s6.2-2.48,6.2-11.16V26.88c0-3.72,0-8.68-5-8.68C56.84,14.33,54.2,12,48,12H46.76A15.08,15.08,0,0,0,31.88,26.88v2.48c0,8.68,6.2,11.16,6.2,11.16"/><line class="cls-2" x1="40.56" y1="45.82" x2="40.56" y2="51.68"/><line class="cls-2" x1="55.44" y1="45.71" x2="55.44" y2="51.68"/><path class="cls-2" d="M59,82c9-1,16-4,16-10V65c0-5.58-4.61-10.71-10.59-11.56l-9-1.76"/><line class="cls-2" x1="65" y1="74" x2="65" y2="80.72"/><line class="cls-2" x1="31" y1="63" x2="31" y2="66"/><line class="cls-2" x1="21" y1="72" x2="55" y2="52"/><line class="cls-2" x1="62" y1="53" x2="42" y2="85"/><line class="cls-2" x1="40.56" y1="51.68" x2="44.47" y2="58.2"/><path class="cls-2" d="M40.56,51.68l-9,1.76C25.61,54.29,21,59.42,21,65v7c0,6,4,13,13,13H53.5A6.5,6.5,0,0,0,60,78.5h0A6.5,6.5,0,0,0,53.5,72H50.13"/></g></g></svg>