<svg xmlns="http://www.w3.org/2000/svg" viewBox="0 0 96 96"><defs><style>.cls-2,.cls-3{fill:none;stroke:#00008f;stroke-width:2px}.cls-2{stroke-linecap:round;stroke-linejoin:round}.cls-3{stroke-miterlimit:10}</style></defs><g id="Layer_2" ><g id="icons"><path class="cls-2" d="M45 67.72a2.58 2.58 0 0 0 2 0l7.34-2.94.49 4.72a5.25 5.25 0 0 0 1.4 3.06l5.8 6.11a.16.16 0 0 1 0 .19.19.19 0 0 1-.16.1H31.44a.23.23 0 0 1-.22-.15.22.22 0 0 1 0-.26L37 72a3.39 3.39 0 0 0 .83-2.23v-5.25zM33.18 31.61a30.57 30.57 0 0 0-1.36 9.11c0 12 6.64 21.75 14.83 21.75C52.19 62.47 57 58 59.56 51.4z"/><path class="cls-3" d="M33.17 25.9l30.65 22.73M64.81 39.74l-17.3-13.49M47 17a10.08 10.08 0 0 0-4 .85l17.94 14.08C58.86 23.22 53.41 17 47 17z"/><path stroke-linejoin="round" fill="none" stroke="#00008f" stroke-width="2" d="M46.52 31.2l18.29 13.34"/><path class="cls-2" d="M19.42 61.89l-.69-5a4.75 4.75 0 0 1 0-1.19v-.22a2.14 2.14 0 0 1 4.17.49l.89 6.9a8.2 8.2 0 0 1-2.1 6.6l-3.85 4.18-.23.31"/><path class="cls-2" d="M13.35 64.45c0-.37-1.55-8.38-1.55-8.38a3.6 3.6 0 0 1 .47-2.56l3.87-6.34L22 41a1.23 1.23 0 0 1 1.64-.13 2.18 2.18 0 0 1 .38 3L20 49l-1.28 6.47M13.35 64.45a2.56 2.56 0 0 1-.6 1.72L11 68.25M18.23 74.48a1.09 1.09 0 0 1 .12 1.52l-1.56 1.83a1.06 1.06 0 0 1-1.51.12l-7.63-6.48A1.09 1.09 0 0 1 7.53 70l1.56-1.83A1.06 1.06 0 0 1 10.6 68zM76.58 61.89l.69-5a4.75 4.75 0 0 0 0-1.19v-.22a2.14 2.14 0 0 0-4.17.49l-.89 6.9a8.2 8.2 0 0 0 2.1 6.6l3.85 4.18.23.31"/><path class="cls-2" d="M82.65 64.45c0-.37 1.55-8.38 1.55-8.38a3.6 3.6 0 0 0-.47-2.56l-3.87-6.34L74 41a1.23 1.23 0 0 0-1.64-.13 2.18 2.18 0 0 0-.38 3L76 49l1.28 6.47M82.65 64.45a2.56 2.56 0 0 0 .6 1.72L85 68.25M77.77 74.48a1.09 1.09 0 0 0-.12 1.52l1.56 1.83a1.06 1.06 0 0 0 1.51.12l7.63-6.48a1.09 1.09 0 0 0 .12-1.47l-1.56-1.83A1.06 1.06 0 0 0 85.4 68z"/></g></g></svg>