<svg xmlns="http://www.w3.org/2000/svg" viewBox="0 0 96 96"><g fill="none" stroke="currentColor" stroke-width="2"><path d="M45 67.72a2.58 2.58 0 0 0 2 0l7.34-2.94.49 4.72a5.25 5.25 0 0 0 1.4 3.06l5.8 6.11a.16.16 0 0 1 0 .19.19.19 0 0 1-.16.1H31.44a.23.23 0 0 1-.22-.15.22.22 0 0 1 0-.26L37 72a3.39 3.39 0 0 0 .83-2.23v-5.25zM33.18 31.61a30.57 30.57 0 0 0-1.36 9.11c0 12 6.64 21.75 14.83 21.75C52.19 62.47 57 58 59.56 51.4z" stroke-linecap="round" stroke-linejoin="round"/><path d="M33.17 25.9l30.65 22.73m.99-8.89l-17.3-13.49M47 17a10.08 10.08 0 0 0-4 .85l17.94 14.08C58.86 23.22 53.41 17 47 17z" stroke-miterlimit="10"/><path stroke-linejoin="round" d="M46.52 31.2l18.29 13.34"/><path d="M19.42 61.89l-.69-5a4.75 4.75 0 0 1 0-1.19v-.22a2.14 2.14 0 0 1 4.17.49l.89 6.9a8.2 8.2 0 0 1-2.1 6.6l-3.85 4.18-.23.31" stroke-linecap="round" stroke-linejoin="round"/><path d="M13.35 64.45c0-.37-1.55-8.38-1.55-8.38a3.6 3.6 0 0 1 .47-2.56l3.87-6.34L22 41a1.23 1.23 0 0 1 1.64-.13 2.18 2.18 0 0 1 .38 3L20 49l-1.28 6.47m-5.37 8.98a2.56 2.56 0 0 1-.6 1.72L11 68.25m7.23 6.23a1.09 1.09 0 0 1 .12 1.52l-1.56 1.83a1.06 1.06 0 0 1-1.51.12l-7.63-6.48A1.09 1.09 0 0 1 7.53 70l1.56-1.83A1.06 1.06 0 0 1 10.6 68zm58.35-12.59l.69-5a4.75 4.75 0 0 0 0-1.19v-.22a2.14 2.14 0 0 0-4.17.49l-.89 6.9a8.2 8.2 0 0 0 2.1 6.6l3.85 4.18.23.31" stroke-linecap="round" stroke-linejoin="round"/><path d="M82.65 64.45c0-.37 1.55-8.38 1.55-8.38a3.6 3.6 0 0 0-.47-2.56l-3.87-6.34L74 41a1.23 1.23 0 0 0-1.64-.13 2.18 2.18 0 0 0-.38 3L76 49l1.28 6.47m5.37 8.98a2.56 2.56 0 0 0 .6 1.72L85 68.25m-7.23 6.23a1.09 1.09 0 0 0-.12 1.52l1.56 1.83a1.06 1.06 0 0 0 1.51.12l7.63-6.48a1.09 1.09 0 0 0 .12-1.47l-1.56-1.83A1.06 1.06 0 0 0 85.4 68z" stroke-linecap="round" stroke-linejoin="round"/></g></svg>