<svg xmlns="http://www.w3.org/2000/svg" viewBox="0 0 96 96"><defs><style>.cls-2{fill:none;stroke:#00008f;stroke-linecap:round;stroke-linejoin:round;stroke-width:2px}</style></defs><g id="Layer_2" ><g id="icons"><circle class="cls-2" cx="23" cy="21" r="4"/><circle class="cls-2" cx="39" cy="21" r="4"/><circle class="cls-2" cx="71" cy="67" r="8"/><circle class="cls-2" cx="71" cy="67" r="3"/><path class="cls-2" d="M36 59l-.51 3.06C35.21 63.75 33 65 31 65s-4.21-1.25-4.49-2.94L26 59M43 48c0 3.31-5.37 6-12 6s-12-2.69-12-6"/><path class="cls-2" d="M20.32 24A10.2 10.2 0 0 0 19 29v20c0 6.08 5.37 11 12 11s12-4.92 12-11V29a10.2 10.2 0 0 0-1.32-5M74 59.58V57a3 3 0 0 0-3-3 3 3 0 0 0-3 3v2.58"/><path class="cls-2" d="M31 65c0 9 5.54 14 12.38 14C49.67 79 55 75 55 65V41a8 8 0 0 1 7.88-8.19A8.12 8.12 0 0 1 71 40.92v13"/></g></g></svg>