<svg xmlns="http://www.w3.org/2000/svg" viewBox="0 0 96 96"><defs><style>.cls-1{fill:#fff;}.cls-2{fill:none;stroke:#00008f;stroke-linecap:round;stroke-linejoin:round;stroke-width:2px;}</style></defs><title>Wheelchair Man</title><g id="Layer_2" data-name="Layer 2"><g id="icons"><rect class="cls-1" width="96" height="96"/><path class="cls-2" d="M58.39,59c3.76-.19,7.15-.35,7.71-.35l3.72,11.62A4.22,4.22,0,0,0,75.44,73a4.39,4.39,0,0,0,2.4-5.35s-5-16.26-5-16.45c-.47-2.06-1.64-3.61-6.29-3.61H48.22s0,0,0,0l-1.6-7.31a0,0,0,0,1,.05,0h7.63a4.38,4.38,0,0,0,4.43-3.85,4.23,4.23,0,0,0-4.21-4.6H44.76s0,0,0,0l-1-4.58a7.13,7.13,0,0,0-8.49-5.45l-.8.18A7.13,7.13,0,0,0,29,30.32L32.6,46.88"/><path class="cls-2" d="M31.14,40.17h23.7a7.43,7.43,0,0,1,7.09,5.25l8.9,28.13"/><line class="cls-2" x1="28.85" y1="28.15" x2="20.59" y2="28.15"/><path class="cls-2" d="M27,11a8.27,8.27,0,1,0,16,4.34h0a8.23,8.23,0,0,0-5.85-10A8,8,0,0,0,27,10.89L27,11Z"/><ellipse class="cls-2" cx="38.19" cy="68.94" rx="22.01" ry="22.06"/><ellipse class="cls-2" cx="73.01" cy="82.1" rx="8.8" ry="8.82"/></g></g></svg>