<svg xmlns="http://www.w3.org/2000/svg" viewBox="0 0 96 96"><g fill="none" stroke="#00008f" stroke-linecap="round" stroke-linejoin="round" stroke-width="2"><circle cx="37" cy="60" r="20"/><circle cx="37" cy="60" r="15"/><circle cx="37" cy="60" r="5"/><circle cx="37" cy="60" r="5"/><circle cx="72" cy="71" r="3"/><circle cx="72" cy="71" r="8"/><path d="M37 55V45m0 30V65m5-5h10m-30 0h10m8.54-3.54l7.07-7.07M26.39 70.61l7.07-7.07m7.08 0l7.07 7.07M26.39 49.39l7.07 7.07M52.2 47h16.3a2.5 2.5 0 0 0 2.5-2.5 2.5 2.5 0 0 0-2.5-2.5H45.73M34 40l-6-22h6l6 22"/><path d="M61 42l-2.53-8.24A6.76 6.76 0 0 0 52 29H37m33 34l-2-7m-3 0l-3-9M28 18h-7m36 38h19"/></g></svg>