<svg xmlns="http://www.w3.org/2000/svg" viewBox="0 0 96 96"><defs><style>.cls-1{fill:#fff;}.cls-2{fill:none;stroke:#00008f;stroke-linecap:round;stroke-linejoin:round;stroke-width:2px;}</style></defs><title>Wheelchair</title><g id="Layer_2" data-name="Layer 2"><g id="icons"><rect class="cls-1" width="96" height="96"/><circle class="cls-2" cx="37" cy="60" r="20"/><circle class="cls-2" cx="37" cy="60" r="15"/><circle class="cls-2" cx="37" cy="60" r="5"/><circle class="cls-2" cx="37" cy="60" r="5"/><circle class="cls-2" cx="72" cy="71" r="3"/><circle class="cls-2" cx="72" cy="71" r="8"/><line class="cls-2" x1="37" y1="55" x2="37" y2="45"/><line class="cls-2" x1="37" y1="75" x2="37" y2="65"/><line class="cls-2" x1="42" y1="60" x2="52" y2="60"/><line class="cls-2" x1="22" y1="60" x2="32" y2="60"/><line class="cls-2" x1="40.54" y1="56.46" x2="47.61" y2="49.39"/><line class="cls-2" x1="26.39" y1="70.61" x2="33.46" y2="63.54"/><line class="cls-2" x1="40.54" y1="63.54" x2="47.61" y2="70.61"/><line class="cls-2" x1="26.39" y1="49.39" x2="33.46" y2="56.46"/><path class="cls-2" d="M52.2,47H68.5A2.5,2.5,0,0,0,71,44.5h0A2.5,2.5,0,0,0,68.5,42H45.73"/><polyline class="cls-2" points="34 40 28 18 34 18 40 40"/><path class="cls-2" d="M61,42l-2.53-8.24A6.76,6.76,0,0,0,52,29h-15"/><line class="cls-2" x1="70" y1="63" x2="68" y2="56"/><line class="cls-2" x1="65" y1="56" x2="62" y2="47"/><line class="cls-2" x1="28" y1="18" x2="21" y2="18"/><line class="cls-2" x1="57" y1="56" x2="76" y2="56"/></g></g></svg>