<svg xmlns="http://www.w3.org/2000/svg" viewBox="0 0 96 96"><defs><style>.cls-2{fill:none;stroke:#00008f;stroke-linecap:round;stroke-linejoin:round;stroke-width:2px}</style></defs><g id="Layer_2" data-name="Layer 2"><g id="icons"><path fill="#fff" d="M0 0h96v96H0z"/><circle class="cls-2" cx="37" cy="60" r="20"/><circle class="cls-2" cx="37" cy="60" r="15"/><circle class="cls-2" cx="37" cy="60" r="5"/><circle class="cls-2" cx="37" cy="60" r="5"/><circle class="cls-2" cx="72" cy="71" r="3"/><circle class="cls-2" cx="72" cy="71" r="8"/><path class="cls-2" d="M37 55V45M37 75V65M42 60h10M22 60h10M40.54 56.46l7.07-7.07M26.39 70.61l7.07-7.07M40.54 63.54l7.07 7.07M26.39 49.39l7.07 7.07M52.2 47h16.3a2.5 2.5 0 0 0 2.5-2.5 2.5 2.5 0 0 0-2.5-2.5H45.73M34 40l-6-22h6l6 22"/><path class="cls-2" d="M61 42l-2.53-8.24A6.76 6.76 0 0 0 52 29H37M70 63l-2-7M65 56l-3-9M28 18h-7M57 56h19"/></g></g></svg>