<svg xmlns="http://www.w3.org/2000/svg" data-name="AXA Logo Open Colour RGB" viewBox="0 0 283.46 283.46">
  <path fill="#ff1721" d="M174.042 140.072L276.715 6.748h-15.164L158.537 140.072h15.505z"/>
  <path fill="#00008f" d="M0 0v283.465h283.465V0zm276.715 276.717H6.75V249.72h11.903c.149-1.041 6.817-10.612 7.729-11.528.902-.93 23.781-30.994 23.781-30.994H90.29l4.696 16.258s-11.714 15.308-14.857 19.005c-1.865 2.181-7.199 7.26-7.199 7.26h18.875s.651-1.563 2.163-4.372c1.52-2.804 6.864-9.291 6.864-9.291s2.334 7.264 2.52 8.491c.237 1.52.874 5.171.874 5.171h19.085s.674-1.45 2.195-4.254c1.507-2.81 7.036-8.869 7.036-8.869s2.12 6.725 2.311 7.952c.238 1.52.87 5.171.87 5.171h24.395s-3.645-6.324-4.469-8.435c-.474-1.172-8.11-25.075-8.11-25.075l6.357-9.012h40.435s9.207 29.622 10.305 33.538a42.449 42.449 0 0 1 1.195 8.984h25.455c-3.854-2.73-13.55-36.988-18.256-50.153l-12.333-42.741c-.6-1.628-1.056-7.51-1.056-7.51h-19.698c-1.056 2.809-2.856 5.39-4.079 7.659-1.516 2.809-26.54 35.621-32.04 42.592-.81 1.037-1.28 1.614-1.28 1.586 0-.066-.171-.68-.418-1.586-.906-3.158-2.767-9.5-2.767-9.5s21.322-27.098 23.498-29.856c6.478-8.194 10.175-10.895 10.175-10.895h-20.191a13.43 13.43 0 0 1-2.042 6.161c-.967 1.489-17.494 22.206-17.494 22.206s-5.195-18.746-6.18-21.778a21.111 21.111 0 0 1-.791-6.589H102.1c.912 1.037 3.711 7.956 3.711 7.956l11.947 36.775-6.99 8.938c-.297-.447-12.937-41.918-13.476-43.648-.605-1.958-1.247-10.02-1.247-10.02H75.302s-4.028 8.765-6.822 12.824c-1.154 1.679-14.305 19.304-28.32 37.426-15.598 20.782-32.576 41.857-32.944 42.127a5.68 5.68 0 0 0-.467.453V6.75h269.966zM80.371 175.735c.911 3.627 6.133 19.722 6.133 19.722H59.542s17.024-20.726 19.917-26.949c.316-.688.381-.153.381.177a28.793 28.793 0 0 0 .53 7.05zm35.062 41.322l7.176-9.309s4.18 12.677 4.864 13.411l-7.421 10.194zm68.528-41.322c.911 3.627 6.138 19.722 6.138 19.722h-26.963s17.025-20.726 19.917-26.949c.317-.688.377-.153.377.177a28.794 28.794 0 0 0 .53 7.05z"/>
</svg>
