<svg xmlns="http://www.w3.org/2000/svg" viewBox="0 0 96 96"><defs><style>.cls-2{fill:none;stroke:#00008f;stroke-linecap:round;stroke-linejoin:round;stroke-width:2px}</style></defs><g id="Layer_2" ><g id="icons"><path class="cls-2" d="M74.41 60.78h16.43V41.76M90.84 55.97H72.99M90.84 33.11V28.3h-5.19c-3.84 0-6.91.36-11.28 4.38l-7.5 6.8-11.57 4a4.13 4.13 0 0 0-3.36 4.07v7.75"/><circle class="cls-2" cx="67.5" cy="60.78" r="6.92"/><circle class="cls-2" cx="67.5" cy="60.78" r="2.59"/><path class="cls-2" d="M60.58 60.78h-8.21a2.51 2.51 0 0 1 0-5h10M51.94 49.54a6.26 6.26 0 0 0 4.32-2 15.07 15.07 0 0 0 2.59-4.94M90.84 33.12h-5.17A11.25 11.25 0 0 0 78.11 36l-6.29 5.72M71.75 41.76h19.09M85.65 46.08h1.73M47.61 33.12l-.07 6.05M54.05 35.71l-3.26 3.79M41.03 35.71l3.25 3.79M21.59 60.78H5.16V41.76M5.16 55.97h17.85M5.16 33.11V28.3h5.19c3.84 0 6.91.36 11.28 4.38l7.5 6.8 11.57 4a4.13 4.13 0 0 1 3.36 4.07v7.75"/><circle class="cls-2" cx="28.5" cy="60.78" r="6.92"/><circle class="cls-2" cx="28.5" cy="60.78" r="2.59"/><path class="cls-2" d="M35.42 60.78h8.21a2.51 2.51 0 0 0 0-5h-10M44.06 49.54a6.26 6.26 0 0 1-4.32-2 15.07 15.07 0 0 1-2.59-4.94M5.16 33.12h5.17A11.25 11.25 0 0 1 17.89 36l6.29 5.72M23.88 41.76H5.16M10.35 46.08H8.62"/></g></g></svg>