<svg xmlns="http://www.w3.org/2000/svg" viewBox="0 0 96 96"><g fill="none" stroke="currentColor" stroke-linecap="round" stroke-linejoin="round" stroke-width="2"><path d="M74.41 60.78h16.43V41.76m0 14.21H72.99m17.85-22.86V28.3h-5.19c-3.84 0-6.91.36-11.28 4.38l-7.5 6.8-11.57 4a4.13 4.13 0 0 0-3.36 4.07v7.75"/><circle cx="67.5" cy="60.78" r="6.92"/><circle cx="67.5" cy="60.78" r="2.59"/><path d="M60.58 60.78h-8.21a2.51 2.51 0 0 1 0-5h10m-10.43-6.24a6.26 6.26 0 0 0 4.32-2 15.07 15.07 0 0 0 2.59-4.94m31.99-9.48h-5.17A11.25 11.25 0 0 0 78.11 36l-6.29 5.72m-.07.04h19.09m-5.19 4.32h1.73M47.61 33.12l-.07 6.05m6.51-3.46l-3.26 3.79m-9.76-3.79l3.25 3.79M21.59 60.78H5.16V41.76m0 14.21h17.85M5.16 33.11V28.3h5.19c3.84 0 6.91.36 11.28 4.38l7.5 6.8 11.57 4a4.13 4.13 0 0 1 3.36 4.07v7.75"/><circle cx="28.5" cy="60.78" r="6.92"/><circle cx="28.5" cy="60.78" r="2.59"/><path d="M35.42 60.78h8.21a2.51 2.51 0 0 0 0-5h-10m10.43-6.24a6.26 6.26 0 0 1-4.32-2 15.07 15.07 0 0 1-2.59-4.94M5.16 33.12h5.17A11.25 11.25 0 0 1 17.89 36l6.29 5.72m-.3.04H5.16m5.19 4.32H8.62"/></g></svg>