<svg xmlns="http://www.w3.org/2000/svg" viewBox="0 0 96 96"><defs><style>.cls-1{fill:#fff;}.cls-2{fill:none;stroke:#00008f;stroke-linecap:round;stroke-linejoin:round;stroke-width:2px;}</style></defs><title>Accidents</title><g id="Layer_2" data-name="Layer 2"><g id="icons"><rect class="cls-1" width="96" height="96"/><polyline class="cls-2" points="74.41 60.78 90.84 60.78 90.84 56.46 90.84 41.76"/><line class="cls-2" x1="90.84" y1="55.97" x2="72.99" y2="55.97"/><path class="cls-2" d="M90.84,33.11V28.3H85.65c-3.84,0-6.91.36-11.28,4.38l-7.5,6.8-11.57,4a4.13,4.13,0,0,0-3.36,4.07V55.3"/><circle class="cls-2" cx="67.5" cy="60.78" r="6.92"/><circle class="cls-2" cx="67.5" cy="60.78" r="2.59"/><path class="cls-2" d="M60.58,60.78H52.37a2.51,2.51,0,0,1,0-5h10"/><path class="cls-2" d="M51.94,49.54a6.26,6.26,0,0,0,4.32-2,15.07,15.07,0,0,0,2.59-4.94"/><path class="cls-2" d="M90.84,33.12H85.67A11.25,11.25,0,0,0,78.11,36l-6.29,5.72"/><line class="cls-2" x1="71.75" y1="41.76" x2="90.84" y2="41.76"/><line class="cls-2" x1="85.65" y1="46.08" x2="87.38" y2="46.08"/><line class="cls-2" x1="47.61" y1="33.12" x2="47.54" y2="39.17"/><line class="cls-2" x1="54.05" y1="35.71" x2="50.79" y2="39.5"/><line class="cls-2" x1="41.03" y1="35.71" x2="44.28" y2="39.5"/><polyline class="cls-2" points="21.59 60.78 5.16 60.78 5.16 56.46 5.16 41.76"/><line class="cls-2" x1="5.16" y1="55.97" x2="23.01" y2="55.97"/><path class="cls-2" d="M5.16,33.11V28.3h5.19c3.84,0,6.91.36,11.28,4.38l7.5,6.8,11.57,4a4.13,4.13,0,0,1,3.36,4.07V55.3"/><circle class="cls-2" cx="28.5" cy="60.78" r="6.92"/><circle class="cls-2" cx="28.5" cy="60.78" r="2.59"/><path class="cls-2" d="M35.42,60.78h8.21a2.51,2.51,0,0,0,0-5h-10"/><path class="cls-2" d="M44.06,49.54a6.26,6.26,0,0,1-4.32-2,15.07,15.07,0,0,1-2.59-4.94"/><path class="cls-2" d="M5.16,33.12h5.17A11.25,11.25,0,0,1,17.89,36l6.29,5.72"/><line class="cls-2" x1="23.88" y1="41.76" x2="5.16" y2="41.76"/><line class="cls-2" x1="10.35" y1="46.08" x2="8.62" y2="46.08"/></g></g></svg>