<svg xmlns="http://www.w3.org/2000/svg" viewBox="0 0 96 96"><defs><style>.cls-2{fill:none;stroke:#00008f;stroke-linecap:round;stroke-linejoin:round;stroke-width:2px}.cls-3{fill:#00008f}</style></defs><g id="Layer_2" ><g id="icons"><path class="cls-2" d="M30.48 69.77h30.79M28.62 64.46h34.52"/><circle class="cls-2" cx="21.99" cy="69.77" r="8.49"/><circle class="cls-2" cx="21.99" cy="69.77" r="3.19"/><circle class="cls-2" cx="69.77" cy="69.77" r="8.49"/><circle class="cls-2" cx="69.77" cy="69.77" r="3.19"/><path class="cls-2" d="M78.26 69.77h10.09A2.66 2.66 0 0 0 91 67.11a2.65 2.65 0 0 0-2.65-2.65h-12M13.49 69.77H7.65A2.66 2.66 0 0 1 5 67.11a2.65 2.65 0 0 1 2.65-2.65h7.71M88.88 64.46V50.65l-5.69-18.49a12.9 12.9 0 0 0-12.34-9.11H57v41.41"/><path class="cls-2" d="M86.59 45.35h-17a5.1 5.1 0 0 1-5.09-5.1v-8.71a2.12 2.12 0 0 1 2.12-2.12H82M7.12 64.46V23.05a5.31 5.31 0 0 1 5.31-5.31h39.29A5.3 5.3 0 0 1 57 23.05M88.88 52.78h-3.19A3.18 3.18 0 0 0 82.51 56a3.18 3.18 0 0 0 3.18 3.19h3.19"/><path class="cls-3" d="M11.89 48.62V33.25h5.29a11.29 11.29 0 0 1 2.38.24 5.36 5.36 0 0 1 1.93.83 4 4 0 0 1 1.31 1.53 5.21 5.21 0 0 1 .48 2.35 5.3 5.3 0 0 1-.48 2.33 4.48 4.48 0 0 1-1.31 1.63 5.59 5.59 0 0 1-1.91.94 8.21 8.21 0 0 1-2.31.31h-1.91v5.21zm3.47-8h1.7c1.88 0 2.83-.82 2.83-2.45a1.87 1.87 0 0 0-.76-1.7A3.93 3.93 0 0 0 17 36h-1.6zM32 48.9a5.86 5.86 0 0 1-4.58-1.76c-1.05-1.19-1.58-3.06-1.58-5.64v-8.25h3.49v8.6A5.34 5.34 0 0 0 30 45a2.32 2.32 0 0 0 2 .9 2.4 2.4 0 0 0 2-.9 5.25 5.25 0 0 0 .71-3.16v-8.6h3.35v8.26c0 2.58-.52 4.45-1.55 5.64A5.69 5.69 0 0 1 32 48.9zM41.63 48.62V33.25h5.26a13 13 0 0 1 2.23.17 5.34 5.34 0 0 1 1.79.63 3.31 3.31 0 0 1 1.2 1.18 3.53 3.53 0 0 1 .44 1.84 3.67 3.67 0 0 1-.15 1 3.61 3.61 0 0 1-.4 1 3.5 3.5 0 0 1-.62.8 2.16 2.16 0 0 1-.84.52v.1a4 4 0 0 1 1.09.43 3.63 3.63 0 0 1 .87.74 3.36 3.36 0 0 1 .59 1.05 4.68 4.68 0 0 1-.25 3.41 4 4 0 0 1-1.27 1.4 5.86 5.86 0 0 1-1.9.83 9.63 9.63 0 0 1-2.34.27zm3.46-9.22h1.63a2.8 2.8 0 0 0 1.85-.5 1.64 1.64 0 0 0 .58-1.32 1.4 1.4 0 0 0-.59-1.27 3.44 3.44 0 0 0-1.81-.38h-1.66zm0 6.53h2c1.9 0 2.86-.69 2.86-2.07a1.57 1.57 0 0 0-.71-1.45 4.19 4.19 0 0 0-2.19-.41h-2z"/></g></g></svg>