<svg xmlns="http://www.w3.org/2000/svg" viewBox="0 0 96 96"><defs><style>.cls-1{fill:#fff;}.cls-2{fill:none;stroke:#00008f;stroke-linecap:round;stroke-linejoin:round;stroke-width:2px;}</style></defs><title>Aircraft</title><g id="Layer_2" data-name="Layer 2"><g id="icons"><rect class="cls-1" width="96" height="96"/><line class="cls-2" x1="91" y1="30.43" x2="57.71" y2="30.43"/><line class="cls-2" x1="74.35" y1="26.73" x2="74.35" y2="43.38"/><rect class="cls-2" x="70.66" y="43.38" width="7.4" height="16.65" rx="1.79" transform="translate(148.71 103.4) rotate(180)"/><line class="cls-2" x1="5" y1="30.43" x2="38.29" y2="30.43"/><line class="cls-2" x1="21.65" y1="26.73" x2="21.65" y2="43.38"/><rect class="cls-2" x="17.95" y="43.38" width="7.4" height="16.65" rx="1.79"/><path class="cls-2" d="M60.48,67.42h0c0-4.07-3.33-11.1-7.39-11.1"/><line class="cls-2" x1="62.33" y1="67.48" x2="58.63" y2="67.48"/><path class="cls-2" d="M35.52,67.42h0c0-4.07,3.33-11.1,7.39-11.1"/><line class="cls-2" x1="33.67" y1="67.48" x2="37.37" y2="67.48"/><rect class="cls-2" x="34.59" y="47.08" width="26.82" height="9.25" rx="0.9"/><circle class="cls-2" cx="48" cy="65.57" r="3.7"/><line class="cls-2" x1="48" y1="56.32" x2="48" y2="61.87"/><line class="cls-2" x1="25.34" y1="51.7" x2="34.59" y2="51.7"/><line class="cls-2" x1="61.41" y1="51.7" x2="70.66" y2="51.7"/></g></g></svg>