<svg xmlns="http://www.w3.org/2000/svg" viewBox="0 0 96 96"><defs><style>.cls-2{fill:none;stroke:#00008f;stroke-linecap:round;stroke-linejoin:round;stroke-width:2px}</style></defs><g id="Layer_2" data-name="Layer 2"><g id="icons"><path fill="currentColor" d="M0 0h96v96H0z"/><path class="cls-2" d="M91 30.43H57.71M74.35 26.73v16.65"/><rect class="cls-2" x="70.66" y="43.38" width="7.4" height="16.65" rx="1.79" transform="rotate(180 74.355 51.7)"/><path class="cls-2" d="M5 30.43h33.29M21.65 26.73v16.65"/><rect class="cls-2" x="17.95" y="43.38" width="7.4" height="16.65" rx="1.79"/><path class="cls-2" d="M60.48 67.42c0-4.07-3.33-11.1-7.39-11.1M62.33 67.48h-3.7M35.52 67.42c0-4.07 3.33-11.1 7.39-11.1M33.67 67.48h3.7"/><rect class="cls-2" x="34.59" y="47.08" width="26.82" height="9.25" rx=".9"/><circle class="cls-2" cx="48" cy="65.57" r="3.7"/><path class="cls-2" d="M48 56.32v5.55M25.34 51.7h9.25M61.41 51.7h9.25"/></g></g></svg>