<svg xmlns="http://www.w3.org/2000/svg" viewBox="0 0 96 96"><g fill="none" stroke="#00008f" stroke-linecap="round" stroke-linejoin="round" stroke-width="2"><path d="M91 30.43H57.71m16.64-3.7v16.65"/><rect x="70.66" y="43.38" width="7.4" height="16.65" rx="1.79" transform="rotate(180 74.355 51.7)"/><path d="M5 30.43h33.29m-16.64-3.7v16.65"/><rect x="17.95" y="43.38" width="7.4" height="16.65" rx="1.79"/><path d="M60.48 67.42c0-4.07-3.33-11.1-7.39-11.1m9.24 11.16h-3.7m-23.11-.06c0-4.07 3.33-11.1 7.39-11.1m-9.24 11.16h3.7"/><rect x="34.59" y="47.08" width="26.82" height="9.25" rx=".9"/><circle cx="48" cy="65.57" r="3.7"/><path d="M48 56.32v5.55M25.34 51.7h9.25m26.82 0h9.25"/></g></svg>