<svg xmlns="http://www.w3.org/2000/svg" viewBox="0 0 96 96"><path d="M56 52.1a.77.77 0 1 1-.77.77.77.77 0 0 1 .77-.77m0-2a2.77 2.77 0 1 0 2.77 2.77A2.77 2.77 0 0 0 56 50.1z" fill="#00008f"/><path d="M55.7 66.46a5.61 5.61 0 0 0 .63-1.1h0a.17.17 0 0 0 0-.12s-7.86-.85-7.63-6.21c2 7.59 19.83 5.17 24.33 4.65s4.17-7.75 2.85-7.72c-.71 0-11.46-5.65-22.57-9a62.41 62.41 0 0 1-5.82-5.28 14.09 14.09 0 0 1-3.56-11.55c.24-1.22-.41-4-1.15-.34a39.61 39.61 0 0 0-.78 6.55 37.82 37.82 0 0 1-3.69-5A25.33 25.33 0 0 1 35 23.08c-1.35-7-.17-12.9 3.39-16.14.92-.77 2.15-3.31-.66-1-3.33 2.76-5.1 6.25-6.44 10.39 0 .14-.1.29-.14.43A15.46 15.46 0 0 0 30.4 20a6.9 6.9 0 0 1-1.62-6.25c1-3.17-1.38-.87-1.52 2.16s.62 5.25 3.07 9.81a22.85 22.85 0 0 1 1 2.58 37 37 0 0 0 3.14 6.21c-1.87.06-6.06-.17-8.27-3-2.88-3.73-2.63-6.66-3.71-6.89s.47 4.62 2 7.72 6 5.68 12.17 6.09c1.59 1.18 3.07 2.82 4.18 3.54.6.58 1.24 1.16 1.9 1.75-4.49-1.38-8.09-2.54-9.69-3.13-1.41 5.78 3.32 11.08 12.2 9.7-1.07 3.11-4.24 7.3-6.61 11.39-7.16 10.84-13.55 16.65-19.38 19.9A45.44 45.44 0 0 0 47 91a46 46 0 0 0 11.08-1.36 26.61 26.61 0 0 0-1.31-5.06c-2.5-6.84-4.03-12.4-1.07-18.12z" fill="none" stroke="#00008f" stroke-linecap="round" stroke-linejoin="round" stroke-width="2"/></svg>