<svg xmlns="http://www.w3.org/2000/svg" viewBox="0 0 96 96"><g fill="none" stroke="#00008f" stroke-linecap="round" stroke-linejoin="round" stroke-width="2"><path d="M32 72h29m-30.76-5h32.52"/><circle cx="24" cy="72" r="8"/><circle cx="24" cy="72" r="3"/><circle cx="69" cy="72" r="8"/><circle cx="69" cy="72" r="3"/><path d="M77 72h9.5a2.5 2.5 0 0 0 2.5-2.5 2.5 2.5 0 0 0-2.5-2.5H75.24M16 72h-5.5A2.5 2.5 0 0 1 8 69.5a2.5 2.5 0 0 1 2.5-2.5h7.26M87 67V54l-7.23-28a4 4 0 0 0-3.87-3H61a4 4 0 0 0-4 4v40"/><path d="M85.19 47H65V34a4 4 0 0 1 4-4h11.81M65 52h2m-10 6H13a3 3 0 0 0-3 3v6m30-9L20 16h3.24a5 5 0 0 1 4.23 2.34L53 58M20 41V16m67 40h-3a3 3 0 0 0-3 3 3 3 0 0 0 3 3h3M20 41a4 4 0 1 1-3.46 6"/></g></svg>