<svg xmlns="http://www.w3.org/2000/svg" viewBox="0 0 96 96"><defs><style>.cls-1{fill:#fff;}.cls-2{fill:none;stroke:#00008f;stroke-linecap:round;stroke-linejoin:round;stroke-width:2px;}</style></defs><title>Breakdown Truck</title><g id="Layer_2" data-name="Layer 2"><g id="icons"><rect class="cls-1" width="96" height="96"/><line class="cls-2" x1="32" y1="72" x2="61" y2="72"/><line class="cls-2" x1="30.24" y1="67" x2="62.76" y2="67"/><circle class="cls-2" cx="24" cy="72" r="8"/><circle class="cls-2" cx="24" cy="72" r="3"/><circle class="cls-2" cx="69" cy="72" r="8"/><circle class="cls-2" cx="69" cy="72" r="3"/><path class="cls-2" d="M77,72h9.5A2.5,2.5,0,0,0,89,69.5h0A2.5,2.5,0,0,0,86.5,67H75.24"/><path class="cls-2" d="M16,72H10.5A2.5,2.5,0,0,1,8,69.5H8A2.5,2.5,0,0,1,10.5,67h7.26"/><path class="cls-2" d="M87,67V54L79.77,26a4,4,0,0,0-3.87-3H61a4,4,0,0,0-4,4V67"/><path class="cls-2" d="M85.19,47H65V34a4,4,0,0,1,4-4H80.81"/><line class="cls-2" x1="65" y1="52" x2="67" y2="52"/><path class="cls-2" d="M57,58H13a3,3,0,0,0-3,3v6"/><path class="cls-2" d="M40,58,20,16h3.24a5,5,0,0,1,4.23,2.34L53,58"/><line class="cls-2" x1="20" y1="41" x2="20" y2="16"/><path class="cls-2" d="M87,56H84a3,3,0,0,0-3,3h0a3,3,0,0,0,3,3h3"/><path class="cls-2" d="M20,41a4,4,0,1,1-3.46,6"/></g></g></svg>