<svg xmlns="http://www.w3.org/2000/svg" viewBox="0 0 96 96"><defs><style>.cls-2{fill:none;stroke:#00008f;stroke-linecap:round;stroke-linejoin:round;stroke-width:2px}</style></defs><g id="Layer_2" data-name="Layer 2"><g id="icons"><path fill="#fff" d="M0 0h96v96H0z"/><path class="cls-2" d="M32 72h29M30.24 67h32.52"/><circle class="cls-2" cx="24" cy="72" r="8"/><circle class="cls-2" cx="24" cy="72" r="3"/><circle class="cls-2" cx="69" cy="72" r="8"/><circle class="cls-2" cx="69" cy="72" r="3"/><path class="cls-2" d="M77 72h9.5a2.5 2.5 0 0 0 2.5-2.5 2.5 2.5 0 0 0-2.5-2.5H75.24M16 72h-5.5A2.5 2.5 0 0 1 8 69.5a2.5 2.5 0 0 1 2.5-2.5h7.26M87 67V54l-7.23-28a4 4 0 0 0-3.87-3H61a4 4 0 0 0-4 4v40"/><path class="cls-2" d="M85.19 47H65V34a4 4 0 0 1 4-4h11.81M65 52h2M57 58H13a3 3 0 0 0-3 3v6M40 58L20 16h3.24a5 5 0 0 1 4.23 2.34L53 58M20 41V16M87 56h-3a3 3 0 0 0-3 3 3 3 0 0 0 3 3h3M20 41a4 4 0 1 1-3.46 6"/></g></g></svg>