<svg xmlns="http://www.w3.org/2000/svg" viewBox="0 0 96 96"><defs><style>.cls-1{fill:#fff;}.cls-2{fill:none;stroke:#00008f;stroke-linecap:round;stroke-linejoin:round;stroke-width:2px;}</style></defs><title>Broken Bottle</title><g id="Layer_2" data-name="Layer 2"><g id="icons"><rect class="cls-1" width="96" height="96"/><polygon class="cls-2" points="56.18 67.25 52.83 72.04 51.87 71.09 50.42 68.21 48.98 65.81 46.59 68.69 44.19 65.33 40.35 68.21 40.35 66.3 38.44 67.74 37 66.58 37.01 85 59.07 84.99 59.06 67.05 57.62 69.64 56.18 67.25"/><path class="cls-2" d="M48.81,28.7,45.76,11,38.2,12.31l3,17.69a11.08,11.08,0,0,0-5.33,11.41l2.5,14.46,1.61.89L41.68,55,42,56.91l3.3-3.49,2.93,2.9,1.87-3.25,1.83,2.12,2-11,1,14.43,2.5-5.3,1.82,2.12,1-2.8L57.66,37.66A11.06,11.06,0,0,0,48.81,28.7Z"/></g></g></svg>