<svg xmlns="http://www.w3.org/2000/svg" viewBox="0 0 70.99 69.05"><g fill="none" stroke="#00008f" stroke-linecap="round" stroke-linejoin="round" stroke-width="2"><path d="M47.43 48.34H20.52c-1.92 0-3.74-1.08-4.07-2.47l-5.12-21.38c-.58-2.42 1.12-4.49 3.81-4.49h37.67c2.69 0 4.39 2.06 3.81 4.48L51.5 45.87c-.33 1.39-2.15 2.47-4.07 2.47zM62.86 67.1a3.44 3.44 0 1 1 2-4.44 3.44 3.44 0 0 1-2 4.44zm1.72-1.17l5.41-4.25M3.82 31a3.44 3.44 0 1 0 4.86 0 3.44 3.44 0 0 0-4.86 0zm-.67.91L1 39.15m4.6-9.28l6.08-3.21m17.6 21.68h9.39v7.39h-9.39zm-2.77 16.43a7.51 7.51 0 0 1 2.77.5V52.65h-5.54v12.62a7.51 7.51 0 0 1 2.77-.5z"/><path d="M26.51 64.77c-2.79 0-5.07 1.36-5.23 3.09v.19h10.46c0-1.81-2.34-3.28-5.23-3.28zm14.93 0a7.51 7.51 0 0 1 2.77.5V52.65h-5.54v12.62a7.55 7.55 0 0 1 2.77-.5z"/><path d="M41.44 64.77c-2.79 0-5.06 1.36-5.22 3.09a1.21 1.21 0 0 0 0 .19h10.46c0-1.81-2.35-3.28-5.24-3.28zM15.58 20C15.58 9.85 23.82 1 34 1s18.37 8.85 18.37 19"/><path d="M24.74 9.58h18.48v4.93H24.74z"/></g></svg>