<svg xmlns="http://www.w3.org/2000/svg" viewBox="0 0 96 96"><defs><style>.cls-1{fill:#fff;}.cls-2{fill:none;stroke:#00008f;stroke-linecap:round;stroke-linejoin:round;stroke-width:2px;}</style></defs><title>Broken Glass</title><g id="Layer_2" data-name="Layer 2"><g id="icons"><rect class="cls-1" width="96" height="96"/><polyline class="cls-2" points="72 18 51 43 49 38 52 12"/><polyline class="cls-2" points="40 14 43 26 39 30 23 23"/><polyline class="cls-2" points="14 15 42 40 32 46 28 46 6 37"/><polyline class="cls-2" points="34.53 44.48 39 55 9 82"/><polyline class="cls-2" points="32 84 43 62 51 53 54 65 78 81"/><polyline class="cls-2" points="71 60 62 53 60 47 65 41 85 51"/><polyline class="cls-2" points="60 32.29 59 42 90 36"/><line class="cls-2" x1="50.36" y1="26.19" x2="57.76" y2="34.95"/><polyline class="cls-2" points="41.8 21.18 46 23 50.86 21.87"/><line class="cls-2" x1="17.75" y1="41.81" x2="27.47" y2="65.38"/><line class="cls-2" x1="32.42" y1="60.92" x2="41.76" y2="64.48"/><polyline class="cls-2" points="64.21 71.81 58 61 59 59 68.49 58.05"/></g></g></svg>