<svg xmlns="http://www.w3.org/2000/svg" viewBox="0 0 96 96"><defs><style>.cls-2{fill:none;stroke:#00008f;stroke-linecap:round;stroke-linejoin:round;stroke-width:2px}</style></defs><g id="Layer_2" ><g id="icons"><path class="cls-2" d="M72 18L51 43l-2-5 3-26M40 14l3 12-4 4-16-7M14 15l28 25-10 6h-4L6 37"/><path class="cls-2" d="M34.53 44.48L39 55 9 82M32 84l11-22 8-9 3 12 24 16M71 60l-9-7-2-6 5-6 20 10M60 32.29L59 42l31-6M50.36 26.19l7.4 8.76M41.8 21.18L46 23l4.86-1.13M17.75 41.81l9.72 23.57M32.42 60.92l9.34 3.56"/><path class="cls-2" d="M64.21 71.81L58 61l1-2 9.49-.95"/></g></g></svg>