<svg xmlns="http://www.w3.org/2000/svg" viewBox="0 0 96 96"><defs><style>.cls-1{fill:#fff;}.cls-2{fill:none;stroke:#00008f;stroke-linecap:round;stroke-linejoin:round;stroke-width:2px;}</style></defs><title>Building</title><g id="Layer_2" data-name="Layer 2"><g id="icons"><rect class="cls-1" width="96" height="96"/><rect class="cls-2" x="27.9" y="17.2" width="25.8" height="61.6"/><circle class="cls-2" cx="47.6" cy="23.2" r="2"/><circle class="cls-2" cx="40.8" cy="23.2" r="2"/><circle class="cls-2" cx="33.92" cy="23.18" r="2"/><circle class="cls-2" cx="47.6" cy="33.2" r="2"/><circle class="cls-2" cx="40.8" cy="33.2" r="2"/><circle class="cls-2" cx="33.92" cy="33.1" r="2"/><circle class="cls-2" cx="47.6" cy="43.1" r="2"/><circle class="cls-2" cx="40.8" cy="43.1" r="2"/><circle class="cls-2" cx="33.91" cy="43.09" r="2"/><circle class="cls-2" cx="47.6" cy="53" r="2"/><circle class="cls-2" cx="40.8" cy="53" r="2"/><circle class="cls-2" cx="33.89" cy="52.99" r="2"/><line class="cls-2" x1="44.5" y1="65.3" x2="44.5" y2="78.5"/><line class="cls-2" x1="37" y1="65.3" x2="37" y2="78.5"/><line class="cls-2" x1="47.3" y1="65.3" x2="34.2" y2="65.3"/><polygon class="cls-2" points="53.7 78.8 68.1 78.8 68.1 43.1 53.7 32.2 53.7 78.8"/><circle class="cls-2" cx="60.9" cy="47.3" r="1.5"/><circle class="cls-2" cx="60.9" cy="54.8" r="1.5"/><circle class="cls-2" cx="60.9" cy="62.3" r="1.5"/><line class="cls-2" x1="53.7" y1="69.4" x2="68.1" y2="69.4"/></g></g></svg>