<svg xmlns="http://www.w3.org/2000/svg" viewBox="0 0 96 96"><defs><style>.cls-2{fill:none;stroke:#00008f;stroke-linecap:round;stroke-linejoin:round;stroke-width:2px}</style></defs><g id="Layer_2" data-name="Layer 2"><g id="icons"><path fill="currentColor" d="M0 0h96v96H0z"/><path class="cls-2" d="M27.9 17.2h25.8v61.6H27.9z"/><circle class="cls-2" cx="47.6" cy="23.2" r="2"/><circle class="cls-2" cx="40.8" cy="23.2" r="2"/><circle class="cls-2" cx="33.92" cy="23.18" r="2"/><circle class="cls-2" cx="47.6" cy="33.2" r="2"/><circle class="cls-2" cx="40.8" cy="33.2" r="2"/><circle class="cls-2" cx="33.92" cy="33.1" r="2"/><circle class="cls-2" cx="47.6" cy="43.1" r="2"/><circle class="cls-2" cx="40.8" cy="43.1" r="2"/><circle class="cls-2" cx="33.91" cy="43.09" r="2"/><circle class="cls-2" cx="47.6" cy="53" r="2"/><circle class="cls-2" cx="40.8" cy="53" r="2"/><circle class="cls-2" cx="33.89" cy="52.99" r="2"/><path class="cls-2" d="M44.5 65.3v13.2M37 65.3v13.2M47.3 65.3H34.2M53.7 78.8h14.4V43.1L53.7 32.2v46.6z"/><circle class="cls-2" cx="60.9" cy="47.3" r="1.5"/><circle class="cls-2" cx="60.9" cy="54.8" r="1.5"/><circle class="cls-2" cx="60.9" cy="62.3" r="1.5"/><path class="cls-2" d="M53.7 69.4h14.4"/></g></g></svg>