<svg xmlns="http://www.w3.org/2000/svg" viewBox="0 0 96 96"><g fill="none" stroke="#00008f" stroke-linecap="round" stroke-linejoin="round" stroke-width="2"><path d="M43.17 45.7c-4.85-1.34-7.68-9-9.36-8.43-1 .35.53 4 .53 4M61.41 40s-8.33-13.64-10-12.43c-1.48 1.1 4.23 14.22 5.37 16.8"/><path d="M8.08 60.46v-.05S5 57.66 5 51.32c0-2.54 2.32-7.22 6.82-7.9l19.56-4.17s9.07 7.49 17.81 7.49A13.75 13.75 0 0 0 61.41 40L83 44.67c6.82 1 8.69 6.07 7.69 10s-1.69 5.85-5.44 5.89m-43.46-.13V45.22m4.9 5.37H45"/><path d="M23.63 51.33a8.68 8.68 0 0 0-8.79 8.58 8.55 8.55 0 0 0 .16 1.68 8.44 8.44 0 0 0 1.27 3 8.88 8.88 0 0 0 14.69 0 8.27 8.27 0 0 0 1.27-3 8.55 8.55 0 0 0 .17-1.68 8.68 8.68 0 0 0-8.77-8.58z"/><path d="M23.63 63.81a4 4 0 0 1-3.72-2.51 3.78 3.78 0 0 1-.27-1.39 4 4 0 0 1 8 0 3.77 3.77 0 0 1-.26 1.39 4 4 0 0 1-3.75 2.51zm45.7-12.48a8.67 8.67 0 0 0-8.78 8.58 9.38 9.38 0 0 0 .16 1.68 8.44 8.44 0 0 0 1.27 3 8.89 8.89 0 0 0 14.7 0 8.42 8.42 0 0 0 1.26-3 8.55 8.55 0 0 0 .17-1.68 8.68 8.68 0 0 0-8.78-8.58z"/><path d="M69.31 63.81a3.91 3.91 0 0 1-4-3.9 4 4 0 0 1 8 0A3.77 3.77 0 0 1 73 61.3a4 4 0 0 1-3.69 2.51zm-36.76-3.25h27.79M77.1 64H89a1.74 1.74 0 0 0 0-3.48H78.26m-46.82 3.52h30.21m-46.82-3.48H8.59a1.74 1.74 0 1 0 0 3.48h7M5.25 50.88c6.09.95 7.49-5.06 3.15-5.72"/></g></svg>