<svg xmlns="http://www.w3.org/2000/svg" viewBox="0 0 96 96"><defs><style>.cls-1{fill:#fff;}.cls-2{fill:none;stroke:#00008f;stroke-linecap:round;stroke-linejoin:round;stroke-width:2px;}</style></defs><title>Camping Car</title><g id="Layer_2" data-name="Layer 2"><g id="icons"><rect class="cls-1" width="96" height="96"/></g><g id="stroke_blue_2px" data-name="stroke blue 2px"><path class="cls-2" d="M10.2,55.21l1.18-20.32S12.8,25.67,21.77,25H75.06s4.36-.05,4.36,5.87c0,1.48-.94,5.58-4.47,5.58l-63.66,0"/><path class="cls-2" d="M10.27,54C5.07,53.79,5,50.48,5,50.48L5.71,38c.71-3.55,5.67-3.07,5.67-3.07"/><circle class="cls-2" cx="26.85" cy="62.29" r="8.74"/><circle class="cls-2" cx="26.85" cy="62.29" r="3.78"/><circle class="cls-2" cx="71.63" cy="62.29" r="8.74"/><circle class="cls-2" cx="71.63" cy="62.29" r="3.78"/><path class="cls-2" d="M7.13,53.3S6,64,10.67,64.42h7.72"/><line class="cls-2" x1="35.39" y1="64.18" x2="63.09" y2="64.18"/><path class="cls-2" d="M80.16,64.18h9.42S91,62.77,91,61.59l-.24-6.38h-14"/><line class="cls-2" x1="37.9" y1="55.21" x2="60.18" y2="55.21"/><path class="cls-2" d="M67.85,36.38S76.19,47.33,78.4,47.49c0,0,10.71.51,10.71,7.72"/><path class="cls-2" d="M59.34,41.5v7.25h12S68.94,41.5,59.34,41.5Z"/><rect class="cls-2" x="32.46" y="41.5" width="20.26" height="7.72"/><polygon class="cls-2" points="15.92 41.5 15.69 49.22 25.44 49.22 25.44 41.5 15.92 41.5"/></g></g></svg>