<svg xmlns="http://www.w3.org/2000/svg" viewBox="0 0 96 96"><defs><style>.cls-2{fill:none;stroke:#00008f;stroke-linecap:round;stroke-linejoin:round;stroke-width:2px}</style></defs><g id="Layer_2" ><path fill="currentColor" d="M0 0h96v96H0z" id="icons"/><g id="stroke_blue_2px" data-name="stroke blue 2px"><path class="cls-2" d="M10.2 55.21l1.18-20.32S12.8 25.67 21.77 25h53.29s4.36-.05 4.36 5.87c0 1.48-.94 5.58-4.47 5.58H11.29"/><path class="cls-2" d="M10.27 54C5.07 53.79 5 50.48 5 50.48L5.71 38c.71-3.55 5.67-3.07 5.67-3.07"/><circle class="cls-2" cx="26.85" cy="62.29" r="8.74"/><circle class="cls-2" cx="26.85" cy="62.29" r="3.78"/><circle class="cls-2" cx="71.63" cy="62.29" r="8.74"/><circle class="cls-2" cx="71.63" cy="62.29" r="3.78"/><path class="cls-2" d="M7.13 53.3S6 64 10.67 64.42h7.72M35.39 64.18h27.7M80.16 64.18h9.42S91 62.77 91 61.59l-.24-6.38h-14M37.9 55.21h22.28M67.85 36.38s8.34 10.95 10.55 11.11c0 0 10.71.51 10.71 7.72M59.34 41.5v7.25h12s-2.4-7.25-12-7.25zM32.46 41.5h20.26v7.72H32.46zM15.92 41.5l-.23 7.72h9.75V41.5h-9.52z"/></g></g></svg>