<svg xmlns="http://www.w3.org/2000/svg" viewBox="0 0 96 96"><defs><style>.cls-1{fill:#fff;}.cls-2{fill:none;stroke:#00008f;stroke-linecap:round;stroke-linejoin:round;stroke-width:2px;}</style></defs><title>Cancellation</title><g id="Layer_2" data-name="Layer 2"><g id="icons"><rect class="cls-1" width="96" height="96"/><path class="cls-2" d="M32.75,23.48a3.81,3.81,0,1,1-7.62,0V13.31a3.81,3.81,0,1,1,7.62,0ZM70,13.31a3.81,3.81,0,0,0-7.62,0V23.48a3.81,3.81,0,0,0,7.62,0ZM86.12,23V82.35a4.17,4.17,0,0,1-4.24,4.15H14.12a4.17,4.17,0,0,1-4.24-4.15V23a4.17,4.17,0,0,1,4.24-4.15h6.77v4.66c0,3.64.89,8.21,8.05,8.21S37,27,37,23.48V18.82H58.16v4.66c0,3.64,1.34,8.21,8,8.21s8.05-4.66,8.05-8.21V18.82H81.8A4.3,4.3,0,0,1,86.12,23ZM71.18,79.81h6.47a1.63,1.63,0,0,0,1.69-1.61V39.06a1.69,1.69,0,0,0-1.69-1.61H70.3M36.08,79.81H59.71M25.55,37.45h-7.2a1.63,1.63,0,0,0-1.69,1.61V78.2a1.68,1.68,0,0,0,1.69,1.61h6.7M61.26,37.45H34.63"/><line class="cls-2" x1="29.74" y1="69.1" x2="29.74" y2="49.17"/><line class="cls-2" x1="65.91" y1="69.1" x2="65.91" y2="49.54"/><line class="cls-2" x1="74.8" y1="68.13" x2="66.22" y2="68.13"/><line class="cls-2" x1="48.99" y1="68.57" x2="46.86" y2="68.57"/><line class="cls-2" x1="74.8" y1="59.67" x2="57.22" y2="59.38"/><line class="cls-2" x1="74.8" y1="50.35" x2="65.99" y2="50.35"/><line class="cls-2" x1="29.22" y1="68.56" x2="20.86" y2="68.56"/><line class="cls-2" x1="39.22" y1="59.38" x2="20.86" y2="59.38"/><line class="cls-2" x1="29.36" y1="49.93" x2="20.86" y2="49.93"/><line class="cls-2" x1="48.86" y1="49.93" x2="46.9" y2="49.93"/><line class="cls-2" x1="48" y1="50.67" x2="48" y2="42.3"/><line class="cls-2" x1="48" y1="75.1" x2="48" y2="68.3"/><path class="cls-2" d="M61.76,37.39,48,51.15,34.24,37.39a5.72,5.72,0,0,0-8.09,8.1L39.91,59.24,26.15,73a5.72,5.72,0,0,0,8.09,8.09L48,67.34,61.76,81.09A5.72,5.72,0,0,0,69.85,73L56.09,59.24,69.85,45.49a5.72,5.72,0,1,0-8.09-8.1Z"/></g></g></svg>