<svg xmlns="http://www.w3.org/2000/svg" viewBox="0 0 96 96"><defs><style>.cls-1{fill:#fff;}.cls-2,.cls-3{fill:none;stroke:#00008f;stroke-linecap:round;stroke-linejoin:round;}.cls-2{stroke-width:2px;}.cls-3{stroke-width:1.82px;}</style></defs><title>Cancelation</title><g id="Layer_2" data-name="Layer 2"><g id="icons"><rect class="cls-1" width="96" height="96"/><path class="cls-2" d="M65,38.85V76.43a4.2,4.2,0,0,1-4.34,4H28.82a4.21,4.21,0,0,1-4.34-4V73.5"/><path class="cls-2" d="M24.48,23.48v-4.1a4.21,4.21,0,0,1,4.34-4H60.65a4.4,4.4,0,0,1,3.9,2.25V18"/><rect class="cls-2" x="41.31" y="41.3" width="16.39" height="19.4" rx="2"/><line class="cls-3" x1="45.75" y1="46.15" x2="53.25" y2="46.15"/><line class="cls-3" x1="45.75" y1="51" x2="53.25" y2="51"/><line class="cls-3" x1="45.75" y1="55.85" x2="53.25" y2="55.85"/><line class="cls-2" x1="34.41" y1="15.36" x2="34.41" y2="80"/><path class="cls-2" d="M21,27.48a3.49,3.49,0,1,1,7,0"/><path class="cls-2" d="M21,34.54a3.49,3.49,0,1,1,7,0"/><path class="cls-2" d="M21,41.61a3.49,3.49,0,1,1,7,0"/><path class="cls-2" d="M21,48.67a3.49,3.49,0,1,1,7,0"/><path class="cls-2" d="M21,55.74a3.49,3.49,0,1,1,7,0"/><path class="cls-2" d="M21,62.8a3.49,3.49,0,1,1,7,0"/><path class="cls-2" d="M24.48,73.5A3.54,3.54,0,1,1,28,70"/><path class="cls-2" d="M65.16,38.86h-.44a10.47,10.47,0,1,1,.44,0"/><line class="cls-2" x1="60.83" y1="24.53" x2="68.61" y2="32.31"/><line class="cls-2" x1="60.83" y1="32.31" x2="68.61" y2="24.53"/></g></g></svg>