<svg xmlns="http://www.w3.org/2000/svg" viewBox="0 0 96 96"><defs><style>.cls-2{fill:none;stroke:#00008f;stroke-linecap:round;stroke-linejoin:round;stroke-width:2px}</style></defs><g id="Layer_2" ><g id="icons"><path fill="currentColor" d="M0 0h96v96H0z"/><path class="cls-2" d="M32.75 23.48a3.81 3.81 0 1 1-7.62 0V13.31a3.81 3.81 0 1 1 7.62 0zM70 13.31a3.81 3.81 0 0 0-7.62 0v10.17a3.81 3.81 0 0 0 7.62 0zM86.12 23v59.35a4.17 4.17 0 0 1-4.24 4.15H14.12a4.17 4.17 0 0 1-4.24-4.15V23a4.17 4.17 0 0 1 4.24-4.15h6.77v4.66c0 3.64.89 8.21 8.05 8.21S37 27 37 23.48v-4.66h21.16v4.66c0 3.64 1.34 8.21 8 8.21s8.05-4.66 8.05-8.21v-4.66h7.59A4.3 4.3 0 0 1 86.12 23zM71.18 79.81h6.47a1.63 1.63 0 0 0 1.69-1.61V39.06a1.69 1.69 0 0 0-1.69-1.61H70.3M36.08 79.81h23.63M25.55 37.45h-7.2a1.63 1.63 0 0 0-1.69 1.61V78.2a1.68 1.68 0 0 0 1.69 1.61h6.7m36.21-42.36H34.63M29.74 69.1V49.17M65.91 69.1V49.54M74.8 68.13h-8.58M48.99 68.57h-2.13M74.8 59.67l-17.58-.29M74.8 50.35h-8.81M29.22 68.56h-8.36M39.22 59.38H20.86M29.36 49.93h-8.5M48.86 49.93H46.9M48 50.67V42.3M48 75.1v-6.8"/><path class="cls-2" d="M61.76 37.39L48 51.15 34.24 37.39a5.72 5.72 0 0 0-8.09 8.1l13.76 13.75L26.15 73a5.72 5.72 0 0 0 8.09 8.09L48 67.34l13.76 13.75A5.72 5.72 0 0 0 69.85 73L56.09 59.24l13.76-13.75a5.72 5.72 0 1 0-8.09-8.1z"/></g></g></svg>