<svg xmlns="http://www.w3.org/2000/svg" viewBox="0 0 96 96"><defs><style>.cls-1{fill:#fff;}.cls-2{fill:none;stroke:#00008f;stroke-linecap:round;stroke-linejoin:round;stroke-width:2px;}</style></defs><title>Cancellation_1</title><g id="Layer_2" data-name="Layer 2"><g id="icons"><rect class="cls-1" width="96" height="96"/><path class="cls-2" d="M61.55,70.77c-3.79,1.08-5.43.38-6.16.19a2.74,2.74,0,0,1-.4-.15c-.8-.38-3.17-.48-7-7.41"/><path class="cls-2" d="M67.47,68.35c6.07-3.86,14.15-12.45,20.65-29.73a2.17,2.17,0,0,0-2.25-2.92,45.4,45.4,0,0,1-18-2.44,45.57,45.57,0,0,1-15.79-8.95,2.19,2.19,0,0,0-3.29.4"/><path class="cls-2" d="M58.18,59.31l7.18,2.52A2.18,2.18,0,0,0,67.9,58.6a13.27,13.27,0,0,0-7-5.41,15.46,15.46,0,0,0-2.44-.59"/><path class="cls-2" d="M73.08,46.37a5.15,5.15,0,0,0-3.2,0,1.93,1.93,0,0,0,0,3.66l3.56,1.2a1.93,1.93,0,0,0,2.2-2.92A5.15,5.15,0,0,0,73.08,46.37Z"/><path class="cls-2" d="M51.51,44.1l2,0a2.17,2.17,0,0,0,1.28-3.85c-.11-.09-.23-.15-.34-.23a5.75,5.75,0,0,0-3-1.08"/><path class="cls-2" d="M40.3,50.1,28.74,53.9A2.18,2.18,0,0,0,28.65,58a13.28,13.28,0,0,0,8.81.16,12.33,12.33,0,0,0,6.43-4.65"/><path class="cls-2" d="M26,42.36a5.18,5.18,0,0,0-2.62.17A5.3,5.3,0,0,0,21.12,44a2.18,2.18,0,0,0,2.26,3.58l2.88-1A2.17,2.17,0,0,0,26,42.36Z"/><path class="cls-2" d="M51.32,45.12a42.29,42.29,0,0,1-.52,6.63"/><path class="cls-2" d="M40.47,41.77l1.5-.42a2.18,2.18,0,0,0-.38-4.23,5.17,5.17,0,0,0-2.17.22,5.1,5.1,0,0,0-1.79,1,1.31,1.31,0,0,0-.2.21"/><path class="cls-2" d="M51.12,40.11a88.29,88.29,0,0,0-2.68-14.86"/><path class="cls-2" d="M48.44,25.25c-.28-1.05-.57-2.12-.89-3.22A2.18,2.18,0,0,0,44,21a45.41,45.41,0,0,1-15.85,8.85,45.44,45.44,0,0,1-18,2.31,2.18,2.18,0,0,0-2.26,2.94C17.45,60.89,29,66.43,35.47,67.48"/><path class="cls-2" d="M51.12,40.11c.14,1.78.21,3.44.2,5"/><path class="cls-2" d="M44.56,46,40.89,42.4l-3.08-3-1.56-1.54a2.76,2.76,0,1,0-3.87,3.93L41,50.19l3.22,3.17.67.66L47,56.18l-1.5,1.52L36.39,67l-3.78,3.83a2.75,2.75,0,0,0,2,4.69,2.73,2.73,0,0,0,2-.82L47.64,63.42,51,60.05,61.47,70.4l4.15,4.08a2.75,2.75,0,0,0,3.89,0,2.75,2.75,0,0,0,0-3.9l-2.65-2.61-8.33-8.2-3.67-3.62L58,53,69.26,41.47a2.76,2.76,0,1,0-3.93-3.87L50.9,52.25Z"/></g></g></svg>