<svg xmlns="http://www.w3.org/2000/svg" viewBox="0 0 96 96"><g fill="none" stroke="#00008f" stroke-linecap="round" stroke-linejoin="round" stroke-width="2"><path d="M32.75 23.48a3.81 3.81 0 1 1-7.62 0V13.31a3.81 3.81 0 1 1 7.62 0zM70 13.31a3.81 3.81 0 0 0-7.62 0v10.17a3.81 3.81 0 0 0 7.62 0zM86.12 23v59.35a4.17 4.17 0 0 1-4.24 4.15H14.12a4.17 4.17 0 0 1-4.24-4.15V23a4.17 4.17 0 0 1 4.24-4.15h6.77v4.66c0 3.64.89 8.21 8.05 8.21S37 27 37 23.48v-4.66h21.16v4.66c0 3.64 1.34 8.21 8 8.21s8.05-4.66 8.05-8.21v-4.66h7.59A4.3 4.3 0 0 1 86.12 23zM71.18 79.81h6.47a1.63 1.63 0 0 0 1.69-1.61V39.06a1.69 1.69 0 0 0-1.69-1.61H70.3M36.08 79.81h23.63M25.55 37.45h-7.2a1.63 1.63 0 0 0-1.69 1.61V78.2a1.68 1.68 0 0 0 1.69 1.61h6.7m36.21-42.36H34.63M29.74 69.1V49.17M65.91 69.1V49.54m8.89 18.59h-8.58m-17.23.44h-2.13m27.94-8.9l-17.58-.29m17.58-9.03h-8.81M29.22 68.56h-8.36m18.36-9.18H20.86m8.5-9.45h-8.5m28 0H46.9m1.1.74V42.3m0 32.8v-6.8"/><path d="M61.76 37.39L48 51.15 34.24 37.39a5.72 5.72 0 0 0-8.09 8.1l13.76 13.75L26.15 73a5.72 5.72 0 0 0 8.09 8.09L48 67.34l13.76 13.75A5.72 5.72 0 0 0 69.85 73L56.09 59.24l13.76-13.75a5.72 5.72 0 1 0-8.09-8.1z"/></g></svg>