<svg xmlns="http://www.w3.org/2000/svg" viewBox="0 0 96 96"><defs><style>.cls-1{fill:#fff;}.cls-2{fill:none;stroke:#00008f;stroke-linecap:round;stroke-linejoin:round;stroke-width:2px;}</style></defs><title>Car Substitution</title><g id="Layer_2" data-name="Layer 2"><g id="icons"><rect class="cls-1" width="96" height="96"/><line class="cls-2" x1="17.92" y1="61.49" x2="36.12" y2="61.49"/><line class="cls-2" x1="16.94" y1="57.92" x2="37.09" y2="57.92"/><path class="cls-2" d="M51.39,57.92V52.49a2.81,2.81,0,0,0-2.29-2.76l-7.86-2-5.09-4.62c-3-2.73-5-4.32-7.66-4.32H16.7c-1.53,0-3.42,2.38-4.41,3.56L7.64,48.25a2,2,0,0,1-.62.47,1.65,1.65,0,0,0-.85,1.44v7.12"/><circle class="cls-2" cx="13.22" cy="61.49" r="4.7"/><circle class="cls-2" cx="13.22" cy="61.49" r="1"/><circle class="cls-2" cx="40.82" cy="61.49" r="4.7"/><circle class="cls-2" cx="40.82" cy="61.49" r="1"/><path class="cls-2" d="M45.51,61.49h5.58A1.47,1.47,0,0,0,52.56,60h0c0-.81-.66-2-1.47-2H44.48"/><path class="cls-2" d="M8.52,61.49h-2A1.47,1.47,0,0,1,5,60v-.29A1.72,1.72,0,0,1,6.47,58H9.55"/><path class="cls-2" d="M51.39,53.86a4.23,4.23,0,0,1-2.94-1.35,10.31,10.31,0,0,1-1.76-3.35"/><path class="cls-2" d="M13.22,48.28,17.12,44a2.59,2.59,0,0,1,1.93-.86h7.66a6.73,6.73,0,0,1,4.54,1.75L35,48.28"/><line class="cls-2" x1="35.04" y1="48.28" x2="13.22" y2="48.28"/><line class="cls-2" x1="23.61" y1="57.92" x2="23.61" y2="43.09"/><line class="cls-2" x1="28.49" y1="52.51" x2="27.31" y2="52.51"/><path class="cls-2" d="M6.17,52.68c3.29,0,4.09-4.11,1.1-4.11"/><line class="cls-2" x1="52.54" y1="59.2" x2="69.52" y2="59.2"/><line class="cls-2" x1="52.22" y1="55.36" x2="70.78" y2="55.36"/><path class="cls-2" d="M89.47,55.22V47.44a3.67,3.67,0,0,0-3-3.61L76.22,40.18l-6.66-6c-3.87-3.57-6.6-4.34-10-4.34H44.15C40.27,29.81,34,40.7,34,40.7"/><circle class="cls-2" cx="75.66" cy="59.2" r="6.14"/><circle class="cls-2" cx="75.66" cy="59.2" r="2.3"/><path class="cls-2" d="M81.79,59.2h7.29A1.92,1.92,0,0,0,91,57.28h0a1.92,1.92,0,0,0-1.92-1.92H80.45"/><path class="cls-2" d="M89.47,49.22a5.56,5.56,0,0,1-3.84-1.75,13.44,13.44,0,0,1-2.3-4.38"/><path class="cls-2" d="M40.27,42.32l4.1-6.4a3.81,3.81,0,0,1,2.85-1.27H58.53a10,10,0,0,1,6.71,2.59l5.58,5.08"/><line class="cls-2" x1="70.82" y1="42.32" x2="40.27" y2="42.32"/><line class="cls-2" x1="54.72" y1="55.36" x2="54.72" y2="34.65"/><line class="cls-2" x1="59.55" y1="46.16" x2="58.01" y2="46.16"/></g></g></svg>