<svg xmlns="http://www.w3.org/2000/svg" viewBox="0 0 96 96"><defs><style>.cls-2{fill:none;stroke:#00008f;stroke-linecap:round;stroke-linejoin:round;stroke-width:2px}</style></defs><g id="Layer_2" data-name="Layer 2"><g id="icons"><path fill="currentColor" d="M0 0h96v96H0z"/><path class="cls-2" d="M28.36 69.4h32.91M26.59 64.1h36.43M88.88 63.9V53.14a5.08 5.08 0 0 0-4.14-5l-14.2-3.66-9.22-8.35c-5.36-4.94-9.13-6-13.85-6H26.16c-2.77 0-5.4 2.29-7.19 4.42L9.78 45.46a4.08 4.08 0 0 1-1.12.86 3 3 0 0 0-1.54 2.6v15"/><circle class="cls-2" cx="19.86" cy="69.4" r="8.49"/><circle class="cls-2" cx="19.86" cy="69.4" r="3.19"/><circle class="cls-2" cx="69.77" cy="69.4" r="8.49"/><circle class="cls-2" cx="69.77" cy="69.4" r="3.19"/><path class="cls-2" d="M78.26 69.4h10.09A2.65 2.65 0 0 0 91 66.75a2.65 2.65 0 0 0-2.65-2.65H76.4M11.37 69.4H7.65A2.65 2.65 0 0 1 5 66.75a2.65 2.65 0 0 1 2.65-2.65h5.58M19.86 46.05l8-8.86a5.29 5.29 0 0 1 3.94-1.76h15.64A13.8 13.8 0 0 1 56.73 39l7.73 7M64.46 46.05h-44.6M41.1 64.1V35.43M47.47 51.35h-2.12M7.12 53.48c5.94 0 7.39-7.43 2-7.43"/><circle class="cls-2" cx="69.92" cy="23.27" r="3.02"/><circle class="cls-2" cx="82.52" cy="20.76" r="2.65"/><circle class="cls-2" cx="85.53" cy="33.61" r="3.02"/></g></g></svg>