<svg xmlns="http://www.w3.org/2000/svg" viewBox="0 0 96 96"><defs><style>.cls-2{fill:none;stroke:#00008f;stroke-linecap:round;stroke-linejoin:round;stroke-width:2px}</style></defs><g id="Layer_2" data-name="Layer 2"><g id="icons"><path fill="currentColor" d="M0 0h96v96H0z"/><path class="cls-2" d="M17.92 61.49h18.2M16.94 57.92h20.15M51.39 57.92v-5.43a2.81 2.81 0 0 0-2.29-2.76l-7.86-2-5.09-4.62c-3-2.73-5-4.32-7.66-4.32H16.7c-1.53 0-3.42 2.38-4.41 3.56l-4.65 5.9a2 2 0 0 1-.62.47 1.65 1.65 0 0 0-.85 1.44v7.12"/><circle class="cls-2" cx="13.22" cy="61.49" r="4.7"/><circle class="cls-2" cx="13.22" cy="61.49" r="1"/><circle class="cls-2" cx="40.82" cy="61.49" r="4.7"/><circle class="cls-2" cx="40.82" cy="61.49" r="1"/><path class="cls-2" d="M45.51 61.49h5.58A1.47 1.47 0 0 0 52.56 60c0-.81-.66-2-1.47-2h-6.61M8.52 61.49h-2A1.47 1.47 0 0 1 5 60v-.29A1.72 1.72 0 0 1 6.47 58h3.08M51.39 53.86a4.23 4.23 0 0 1-2.94-1.35 10.31 10.31 0 0 1-1.76-3.35M13.22 48.28l3.9-4.28a2.59 2.59 0 0 1 1.93-.86h7.66a6.73 6.73 0 0 1 4.54 1.75L35 48.28M35.04 48.28H13.22M23.61 57.92V43.09M28.49 52.51h-1.18M6.17 52.68c3.29 0 4.09-4.11 1.1-4.11M52.54 59.2h16.98M52.22 55.36h18.56M89.47 55.22v-7.78a3.67 3.67 0 0 0-3-3.61l-10.25-3.65-6.66-6c-3.87-3.57-6.6-4.34-10-4.34H44.15C40.27 29.81 34 40.7 34 40.7"/><circle class="cls-2" cx="75.66" cy="59.2" r="6.14"/><circle class="cls-2" cx="75.66" cy="59.2" r="2.3"/><path class="cls-2" d="M81.79 59.2h7.29A1.92 1.92 0 0 0 91 57.28a1.92 1.92 0 0 0-1.92-1.92h-8.63M89.47 49.22a5.56 5.56 0 0 1-3.84-1.75 13.44 13.44 0 0 1-2.3-4.38M40.27 42.32l4.1-6.4a3.81 3.81 0 0 1 2.85-1.27h11.31a10 10 0 0 1 6.71 2.59l5.58 5.08M70.82 42.32H40.27M54.72 55.36V34.65M59.55 46.16h-1.54"/></g></g></svg>