<svg xmlns="http://www.w3.org/2000/svg" viewBox="0 0 96 96"><g fill="none" stroke="#00008f" stroke-linecap="round" stroke-linejoin="round" stroke-width="2"><path d="M28.36 69.4h32.91m-34.68-5.3h36.43m25.86-.2V53.14a5.08 5.08 0 0 0-4.14-5l-14.2-3.66-9.22-8.35c-5.36-4.94-9.13-6-13.85-6H26.16c-2.77 0-5.4 2.29-7.19 4.42L9.78 45.46a4.08 4.08 0 0 1-1.12.86 3 3 0 0 0-1.54 2.6v15"/><circle cx="19.86" cy="69.4" r="8.49"/><circle cx="19.86" cy="69.4" r="3.19"/><circle cx="69.77" cy="69.4" r="8.49"/><circle cx="69.77" cy="69.4" r="3.19"/><path d="M78.26 69.4h10.09A2.65 2.65 0 0 0 91 66.75a2.65 2.65 0 0 0-2.65-2.65H76.4m-65.03 5.3H7.65A2.65 2.65 0 0 1 5 66.75a2.65 2.65 0 0 1 2.65-2.65h5.58m6.63-18.05l8-8.86a5.29 5.29 0 0 1 3.94-1.76h15.64A13.8 13.8 0 0 1 56.73 39l7.73 7m0 .05h-44.6M41.1 64.1V35.43m6.37 15.92h-2.12M7.12 53.48c5.94 0 7.39-7.43 2-7.43"/><circle cx="69.92" cy="23.27" r="3.02"/><circle cx="82.52" cy="20.76" r="2.65"/><circle cx="85.53" cy="33.61" r="3.02"/></g></svg>