<svg xmlns="http://www.w3.org/2000/svg" viewBox="0 0 96 96"><defs><style>.cls-1{fill:#fff;}.cls-2{fill:none;stroke:#00008f;stroke-linecap:round;stroke-linejoin:round;stroke-width:2px;}</style></defs><title>Car</title><g id="Layer_2" data-name="Layer 2"><g id="icons"><rect class="cls-1" width="96" height="96"/><line class="cls-2" x1="30" y1="66" x2="61" y2="66"/><line class="cls-2" x1="28.33" y1="61" x2="62.65" y2="61"/><path class="cls-2" d="M87,60.82V50.68A4.78,4.78,0,0,0,83.11,46L69.73,42.52l-8.68-7.87C56,30,52.45,29,48,29H27.93c-2.61,0-5.08,2.16-6.77,4.16L12.5,43.45a3.69,3.69,0,0,1-1.06.81A2.79,2.79,0,0,0,10,46.7V60.82"/><circle class="cls-2" cx="22" cy="66" r="8"/><circle class="cls-2" cx="22" cy="66" r="3"/><circle class="cls-2" cx="69" cy="66" r="8"/><circle class="cls-2" cx="69" cy="66" r="3"/><path class="cls-2" d="M77,66h9.5A2.5,2.5,0,0,0,89,63.5h0A2.5,2.5,0,0,0,86.5,61H75.25"/><path class="cls-2" d="M14,66H10.5A2.5,2.5,0,0,1,8,63.5H8A2.5,2.5,0,0,1,10.5,61h5.26"/><path class="cls-2" d="M87,53a7.23,7.23,0,0,1-5-2.29A17.4,17.4,0,0,1,79,45"/><path class="cls-2" d="M22,44l7.51-8.34A5,5,0,0,1,33.23,34H48a13,13,0,0,1,8.75,3.38L64,44"/><line class="cls-2" x1="64" y1="44" x2="22" y2="44"/><line class="cls-2" x1="42" y1="61" x2="42" y2="34"/><line class="cls-2" x1="48" y1="49" x2="46" y2="49"/><path class="cls-2" d="M10,51c5.6,0,7-7,1.87-7"/></g></g></svg>