<svg xmlns="http://www.w3.org/2000/svg" viewBox="0 0 96 96"><defs><style>.cls-2{fill:none;stroke:#00008f;stroke-linecap:round;stroke-linejoin:round;stroke-width:2px}</style></defs><g id="Layer_2" ><g id="icons"><path fill="currentColor" d="M0 0h96v96H0z"/><path class="cls-2" d="M15.78 28.73h30.27A1.93 1.93 0 0 1 48 30.66V46.4a2.24 2.24 0 0 1-2.24 2.24H15.38a2.52 2.52 0 0 1-2.52-2.52V31.64a2.91 2.91 0 0 1 2.92-2.91zM55 28.73h12.39a4.11 4.11 0 0 1 4.11 4.11v26.87H55v-31 .02z"/><path class="cls-2" d="M41.2 66.71h44.47v-3H93v-5h-7.33v-12.5a25.39 25.39 0 0 0-25.39-25.39H14.4A7.4 7.4 0 0 0 7 28.23v38.48h16"/><circle class="cls-2" cx="32.02" cy="66.73" r="4"/><circle class="cls-2" cx="32.08" cy="66.75" r="9"/></g></g></svg>