<svg xmlns="http://www.w3.org/2000/svg" viewBox="0 0 96 96"><defs><style>.cls-1{fill:#fff;}.cls-2{fill:#00008f;}</style></defs><title>Cars</title><g id="Layer_2" data-name="Layer 2"><g id="cases"><rect class="cls-1" width="96" height="96"/><path class="cls-2" d="M58.93,54.07,58.85,54c-.33-.22-1.46-1-3.13-2-5.12-3.11-15.34-8.57-23.32-8.1h-.06c-2.63.17-6.42.5-9.59.79l-2,.19L17,45.25a1,1,0,0,0-.9,1v5.34a4.31,4.31,0,0,0,4.3,4.31h38a1,1,0,0,0,.57-1.82Zm-36.52-.18h-2a2.31,2.31,0,0,1-2.3-2.31V47.15l2.65-.26,2-.18c1.33-.13,2.79-.26,4.22-.38L31.4,46v7.91h-9Zm11,0v-8a19.24,19.24,0,0,1,3.56.35c5.12.92,10.65,3.53,14.74,5.78,1.23.68,2.34,1.32,3.25,1.88Z"/><path class="cls-2" d="M64.1,64.62a4.05,4.05,0,0,0-4,3.9,1.21,1.21,0,0,0,0,.19,4.28,4.28,0,0,0,.08.81,3.39,3.39,0,0,0,.35,1A4,4,0,0,0,64.1,72.8a4.05,4.05,0,0,0,3.62-2.27,3.77,3.77,0,0,0,.35-1,4.28,4.28,0,0,0,.08-.81,1.09,1.09,0,0,0,0-.18A4.06,4.06,0,0,0,64.1,64.62ZM66,69.52a2.2,2.2,0,0,1-.87,1,2.07,2.07,0,0,1-1,.27,2,2,0,0,1-1-.27,2.12,2.12,0,0,1-1-1.82,1.09,1.09,0,0,1,0-.18,2,2,0,0,1,4.07,0,1.09,1.09,0,0,1,0,.18A2.17,2.17,0,0,1,66,69.52Z"/><path class="cls-2" d="M83.89,38.32a15.46,15.46,0,0,1,5.26,3.06,9.27,9.27,0,0,1-7.4-3.69A18.3,18.3,0,0,1,83.89,38.32Zm-53.95-8.8v6.54H26.88A23.75,23.75,0,0,1,29.94,29.52ZM11.44,46v6.54H8.38A23.75,23.75,0,0,1,11.44,46Zm58.3,23.51a4.68,4.68,0,0,1-.22,1,5.67,5.67,0,0,1-10.83,0,4.79,4.79,0,0,1-.23-1,5.29,5.29,0,0,1-.06-.8,1.21,1.21,0,0,1,0-.19,5.7,5.7,0,0,1,11.39,0,1.09,1.09,0,0,1,0,.18A4.47,4.47,0,0,1,69.74,69.53Zm.91-11.65a9.27,9.27,0,0,1-7.4-3.69,18.3,18.3,0,0,1,2.14.63A15.46,15.46,0,0,1,70.65,57.88ZM14.1,64.62a4.05,4.05,0,0,0-4,3.9,1.21,1.21,0,0,0,0,.19,4.28,4.28,0,0,0,.08.81,3.39,3.39,0,0,0,.35,1A4,4,0,0,0,14.1,72.8a4.05,4.05,0,0,0,3.62-2.27,3.77,3.77,0,0,0,.35-1,4.28,4.28,0,0,0,.08-.81,1.09,1.09,0,0,0,0-.18A4.06,4.06,0,0,0,14.1,64.62ZM16,69.52a2.2,2.2,0,0,1-.87,1,2.07,2.07,0,0,1-1,.27,2,2,0,0,1-1-.27,2.12,2.12,0,0,1-1-1.82,1.09,1.09,0,0,1,0-.18,2,2,0,0,1,4.07,0,1.09,1.09,0,0,1,0,.18A2.17,2.17,0,0,1,16,69.52Zm40.62,1a7.68,7.68,0,0,0,15,0h2.06a3,3,0,0,0,3-3,14.75,14.75,0,0,0-3-9.39L73.51,58a15.44,15.44,0,0,0-5-4h6.55a7.68,7.68,0,0,0,15,0h2.06a3,3,0,0,0,3-3,14.75,14.75,0,0,0-3-9.39L92,41.49c-3.91-4.84-10.15-5.89-11.49-6.07-1.83-1.15-15-9.37-21.43-10.65l-.34-.07a32.09,32.09,0,0,0-7.85-.62,127.64,127.64,0,0,0-20.12,2h0a.66.66,0,0,0-.2.06,1.18,1.18,0,0,0-.19.11l-.13.1c-3.93,2.93-6,11.14-6.67,14.5a3.11,3.11,0,0,0-.68.27q-4.86.49-10.6,1.45h0a.66.66,0,0,0-.2.06,1.18,1.18,0,0,0-.19.11l-.13.1C7.8,45.8,5.75,54,5.06,57.37a3.84,3.84,0,0,0-2.81,3.7v7.05a2.45,2.45,0,0,0,2.49,2.41H6.61a7.68,7.68,0,0,0,15,0H56.66m-36.92-1a4.68,4.68,0,0,1-.22,1,5.67,5.67,0,0,1-10.83,0,4.79,4.79,0,0,1-.23-1,5.29,5.29,0,0,1-.06-.8,1.21,1.21,0,0,1,0-.19,5.7,5.7,0,0,1,11.39,0,1.09,1.09,0,0,1,0,.18A4.47,4.47,0,0,1,19.74,69.53Zm36.92-1H21.81a7.71,7.71,0,0,0-15.41,0H4.74a.46.46,0,0,1-.49-.41V61.07A1.82,1.82,0,0,1,6,59.23a1,1,0,0,0,.87-.64,1.27,1.27,0,0,0,.06-.28c.12-.66.42-2.06.88-3.75h4.65a1,1,0,0,0,1-1V44.43q4-.65,7.51-1.07c.88-.11,1.72-.2,2.55-.28h0c3.31-.33,6.28-.5,8.89-.5a31.13,31.13,0,0,1,7.43.57l.36.08c4.67.94,13.62,6.06,18.16,8.78l2,1.23q.18.4.39.78a11.26,11.26,0,0,0,9.91,5.86,11.83,11.83,0,0,0,1.67-.12,13,13,0,0,1,2.32,7.77,1,1,0,0,1-.3.71,1,1,0,0,1-.7.29H71.81a7.71,7.71,0,0,0-15.41,0H21.29M88.24,53A4.68,4.68,0,0,1,88,54a5.67,5.67,0,0,1-10.83,0A4.79,4.79,0,0,1,77,53a5.29,5.29,0,0,1-.06-.8,1.21,1.21,0,0,1,0-.19A5.7,5.7,0,0,1,88.3,52a1.09,1.09,0,0,1,0,.18A4.47,4.47,0,0,1,88.24,53Zm4.62-1.29a1,1,0,0,1-.7.29H90.31A7.71,7.71,0,0,0,74.9,52H62.64l-.62-.1c-1.83-1.15-15-9.37-21.43-10.65l-.34-.07a32.09,32.09,0,0,0-7.85-.62q-3.09,0-6.8.31c.15-.73.39-1.72.69-2.83h4.65a1,1,0,0,0,1-1V27.93a122.26,122.26,0,0,1,19-1.85,31.13,31.13,0,0,1,7.43.57l.36.08c5.54,1.11,17.1,8.11,20.18,10a11.27,11.27,0,0,0,10.3,6.64,11.83,11.83,0,0,0,1.67-.12A13,13,0,0,1,93.16,51,1,1,0,0,1,92.86,51.74Z"/><path class="cls-2" d="M77.43,37.57c-.64-.44-15.66-10.8-26.53-10.16h-.06c-5.27.33-15.24,1.33-15.34,1.34a1,1,0,0,0-.9,1v5.34a4.31,4.31,0,0,0,4.3,4.31h38a1,1,0,0,0,.57-1.82ZM49.9,37.39h-11a2.31,2.31,0,0,1-2.3-2.31V30.65c2.38-.24,8.93-.86,13.3-1.17Zm2,0v-8c7.4,0,16.88,5.17,21.55,8Z"/><path class="cls-2" d="M82.6,48.12a4.05,4.05,0,0,0-4,3.9,1.21,1.21,0,0,0,0,.19,4.28,4.28,0,0,0,.08.81A3.39,3.39,0,0,0,79,54,4,4,0,0,0,82.6,56.3,4.05,4.05,0,0,0,86.22,54a3.77,3.77,0,0,0,.35-1,4.28,4.28,0,0,0,.08-.81,1.09,1.09,0,0,0,0-.18A4.06,4.06,0,0,0,82.6,48.12ZM84.49,53a2.2,2.2,0,0,1-.87,1,2.07,2.07,0,0,1-1,.27,2,2,0,0,1-1-.27,2.12,2.12,0,0,1-1-1.82,1.09,1.09,0,0,1,0-.18,2,2,0,0,1,4.07,0,1.09,1.09,0,0,1,0,.18A2.17,2.17,0,0,1,84.49,53Z"/></g></g></svg>