<svg xmlns="http://www.w3.org/2000/svg" viewBox="0 0 96 96"><defs><style>.cls-2{fill:#00008f}</style></defs><g id="Layer_2" data-name="Layer 2"><g id="icons"><path fill="currentColor" d="M0 0h96v96H0z"/><path class="cls-2" d="M38.89 44.22v11.83h-5.24V44.22h5.24m1.89-1.89h-9V58h9V42.33zM50.56 44.22v11.83h-5.24V44.22h5.24m1.9-1.89h-9V58h9V42.33zM62.25 44.22v11.83H57V44.22h5.23m1.9-1.89h-9V58h9V42.33z"/><path class="cls-2" d="M78.36 14L67.21 32v2L49.9 20.83a2.3 2.3 0 0 0-1.83-.89 2.35 2.35 0 0 0-1.73.77l-17.55 13V32L17.64 14 6.49 32v46h83V32zM26.89 35.17V76.1H8.39V32.51l9.25-14.91 9.25 14.91zm25.49 40.89H43.5v-8.6c0-2.8 2-5.08 4.44-5.08s4.44 2.28 4.44 5.08zm14.83 0H54.28v-8.6c0-3.84-2.84-7-6.34-7s-6.34 3.14-6.34 7v8.64H28.79v-40l18.68-13.86a1.73 1.73 0 0 0 .28-.26.46.46 0 0 1 .32-.14.42.42 0 0 1 .34.16 1.88 1.88 0 0 0 .35.34l18.45 14zm20.4 0h-18.5V32.51l9.25-14.91 9.25 14.91z"/><path class="cls-2" d="M20.15 44.22v11.83h-5.24V44.22h5.24M22 42.33h-9V58h9V42.33zM81.42 44.22v11.83h-5.23V44.22h5.23m1.9-1.89h-9V58h9V42.33z"/></g></g></svg>