<svg xmlns="http://www.w3.org/2000/svg" viewBox="0 0 96 96"><defs><style>.cls-1{fill:#fff;}.cls-2{fill:#00008f;}</style></defs><title>Castel</title><g id="Layer_2" data-name="Layer 2"><g id="icons"><rect class="cls-1" width="96" height="96"/><path class="cls-2" d="M38.89,44.22V56.05H33.65V44.22h5.24m1.89-1.89h-9V58h9V42.33Z"/><path class="cls-2" d="M50.56,44.22V56.05H45.32V44.22h5.24m1.9-1.89h-9V58h9V42.33Z"/><path class="cls-2" d="M62.25,44.22V56.05H57V44.22h5.23m1.9-1.89h-9V58h9V42.33Z"/><path class="cls-2" d="M78.36,14,67.21,32v2L49.9,20.83a2.3,2.3,0,0,0-1.83-.89,2.35,2.35,0,0,0-1.73.77l-17.55,13V32L17.64,14,6.49,32V78h83V32ZM26.89,35.17V76.1H8.39V32.51L17.64,17.6l9.25,14.91ZM52.38,76.06H43.5v-8.6c0-2.8,2-5.08,4.44-5.08s4.44,2.28,4.44,5.08Zm14.83,0H54.28V67.46c0-3.84-2.84-7-6.34-7s-6.34,3.14-6.34,7V76.1H28.79v-40L47.47,22.24a1.73,1.73,0,0,0,.28-.26.46.46,0,0,1,.32-.14.42.42,0,0,1,.34.16,1.88,1.88,0,0,0,.35.34l18.45,14Zm20.4,0H69.11V32.51L78.36,17.6l9.25,14.91Z"/><path class="cls-2" d="M20.15,44.22V56.05H14.91V44.22h5.24M22,42.33H13V58h9V42.33Z"/><path class="cls-2" d="M81.42,44.22V56.05H76.19V44.22h5.23m1.9-1.89h-9V58h9V42.33Z"/></g></g></svg>