<svg xmlns="http://www.w3.org/2000/svg" viewBox="0 0 96 96"><defs><style>.cls-2{fill:none;stroke:#00008f;stroke-linecap:round;stroke-linejoin:round;stroke-width:2px}</style></defs><g id="Layer_2" data-name="Layer 2"><g id="icons"><path fill="#fff" d="M0 0h96v96H0z"/><ellipse class="cls-2" cx="16.79" cy="64.92" rx="9" ry="9.08"/><ellipse class="cls-2" cx="16.79" cy="64.92" rx="4.08" ry="4.12"/><ellipse class="cls-2" cx="77.5" cy="64.92" rx="9" ry="9.08"/><ellipse class="cls-2" cx="77.5" cy="64.92" rx="4.08" ry="4.12"/><path class="cls-2" d="M31.4 65.99h37.1M35.86 56.25h28.57"/><ellipse class="cls-2" cx="77.5" cy="64.92" rx="9" ry="9.08"/><path class="cls-2" d="M7.3 66H5a2 2 0 0 1-2-1.88v-9.4a3.81 3.81 0 0 1 3.83-3.8h9.25c11.14 0 15.15 8.49 15.15 15.08H26"/><path class="cls-2" d="M6.57 50.93c.67-3.41 3.4-21.46 8.76-25.27C26 23.89 32.29 23 39.44 23s9 .54 10.71.89C59.08 25.66 76 40.08 76 40.08S93 42 93 63.35A2.67 2.67 0 0 1 90.32 66h-3.83"/><path class="cls-2" d="M15.33 25.66v16.19H8.82M89.13 49.55a13.86 13.86 0 0 1-2.83.28c-5.73 0-8.86-5.23-11-10.17M69.79 42.74H26a4.42 4.42 0 0 1-4.43-4.41v-9.12s10.73-1.33 17.86-1.77c14.29-.89 30.36 15.3 30.36 15.3zM39.44 27.44v15.3"/></g></g></svg>