<svg xmlns="http://www.w3.org/2000/svg" viewBox="0 0 96 96"><defs><style>.cls-1{fill:#fff;}.cls-2{fill:none;stroke:#00008f;stroke-linecap:round;stroke-linejoin:round;stroke-width:2px;}</style></defs><title>Cocktail</title><g id="Layer_2" data-name="Layer 2"><g id="icons"><rect class="cls-1" width="96" height="96"/><path class="cls-2" d="M47.07,52.92,82,16.37a1.12,1.12,0,0,0-.06-1.58,1.09,1.09,0,0,0-.76-.3H12.88a1.11,1.11,0,0,0-1.15,1.09,1.16,1.16,0,0,0,.31.81l35,36.54m0,0V87.63"/><path class="cls-2" d="M40.58,43.29a6.51,6.51,0,1,0,13,.14h0A6.48,6.48,0,0,0,47.16,37a6.35,6.35,0,0,0-6.58,6.25Z"/><line class="cls-2" x1="31.05" y1="87.72" x2="63.05" y2="87.72"/><line class="cls-2" x1="50.66" y1="37.92" x2="79.61" y2="6.28"/><line class="cls-2" x1="67.76" y1="31" x2="26.05" y2="31"/></g></g></svg>