<svg xmlns="http://www.w3.org/2000/svg" viewBox="0 0 96 96"><defs><style>.cls-2{fill:none;stroke:#00008f;stroke-linecap:round;stroke-linejoin:round;stroke-width:2px}</style></defs><g id="Layer_2" ><g id="icons"><path fill="currentColor" d="M0 0h96v96H0z"/><path class="cls-2" d="M47.07 52.92L82 16.37a1.12 1.12 0 0 0-.06-1.58 1.09 1.09 0 0 0-.76-.3h-68.3a1.11 1.11 0 0 0-1.15 1.09 1.16 1.16 0 0 0 .31.81l35 36.54m0 0v34.7"/><path class="cls-2" d="M40.58 43.29a6.51 6.51 0 1 0 13 .14A6.48 6.48 0 0 0 47.16 37a6.35 6.35 0 0 0-6.58 6.25zM31.05 87.72h32M50.66 37.92L79.61 6.28M67.76 31H26.05"/></g></g></svg>