<svg xmlns="http://www.w3.org/2000/svg" viewBox="0 0 96 96"><defs><style>.cls-2{fill:none;stroke:#00008f;stroke-linecap:round;stroke-linejoin:round;stroke-width:2px}</style></defs><g id="Layer_2" data-name="Layer 2"><path fill="currentColor" d="M0 0h96v96H0z" id="icons"/><g id="stroke_blue_2px" data-name="stroke blue 2px"><path class="cls-2" d="M25 15h46a10 10 0 0 1 10 10v16.19H15V25a10 10 0 0 1 10-10z"/><path class="cls-2" d="M18.21 71.33h59.58A3.21 3.21 0 0 1 81 74.55V81H15v-6.45a3.21 3.21 0 0 1 3.21-3.21z" transform="rotate(180 48 76.16)"/><path class="cls-2" d="M59.6 67.45v.72a3.21 3.21 0 0 1-3.31 3.12h-17.1a3.22 3.22 0 0 1-3.31-3.12V52.91H59.6v2.91"/><path class="cls-2" d="M22.73 41.22h50.53v30.11H22.73z"/><path class="cls-2" d="M39.23 41.22h17.53v5.85H39.23zM59.6 59.15v-3.33a5.83 5.83 0 1 1 0 11.63v-9.69M23.51 23.26v9.69M31.76 23.26v9.69M73.01 23.74h-8.25M73.01 32.47h-8.25"/><ellipse class="cls-2" cx="48.26" cy="28.1" rx="7.22" ry="6.79"/></g></g></svg>