<svg xmlns="http://www.w3.org/2000/svg" viewBox="0 0 96 96"><path fill="currentColor" d="M0 0h96v96H0z"/><g data-name="stroke blue 2px" fill="none" stroke="#00008f" stroke-linecap="round" stroke-linejoin="round" stroke-width="2"><path d="M25 15h46a10 10 0 0 1 10 10v16.19H15V25a10 10 0 0 1 10-10zM77.79 80.99H18.21A3.21 3.21 0 0 1 15 77.77v-6.45h66v6.45a3.21 3.21 0 0 1-3.21 3.21zM59.6 67.45v.72a3.21 3.21 0 0 1-3.31 3.12h-17.1a3.22 3.22 0 0 1-3.31-3.12V52.91H59.6v2.91"/><path d="M22.73 41.22h50.53v30.11H22.73z"/><path d="M39.23 41.22h17.53v5.85H39.23zM59.6 59.15v-3.33a5.83 5.83 0 1 1 0 11.63v-9.69m-36.09-34.5v9.69m8.25-9.69v9.69m41.25-9.21h-8.25m8.25 8.73h-8.25"/><ellipse cx="48.26" cy="28.1" rx="7.22" ry="6.79"/></g></svg>