<svg xmlns="http://www.w3.org/2000/svg" viewBox="0 0 96 96"><defs><style>.cls-1{fill:#fff;}.cls-2{fill:none;stroke:#00008f;stroke-linecap:round;stroke-linejoin:round;stroke-width:2px;}</style></defs><title>Coffee Machine</title><g id="Layer_2" data-name="Layer 2"><g id="icons"><rect class="cls-1" width="96" height="96"/></g><g id="stroke_blue_2px" data-name="stroke blue 2px"><path class="cls-2" d="M25,15H71A10,10,0,0,1,81,25V41.19a0,0,0,0,1,0,0H15a0,0,0,0,1,0,0V25A10,10,0,0,1,25,15Z"/><path class="cls-2" d="M18.21,71.33H77.79A3.21,3.21,0,0,1,81,74.55V81a0,0,0,0,1,0,0H15a0,0,0,0,1,0,0V74.55a3.21,3.21,0,0,1,3.21-3.21Z" transform="translate(96 152.32) rotate(180)"/><path class="cls-2" d="M59.6,67.45v.72a3.21,3.21,0,0,1-3.31,3.12H39.19a3.22,3.22,0,0,1-3.31-3.12V52.91H59.6v2.91"/><rect class="cls-2" x="22.73" y="41.22" width="50.53" height="30.11"/><rect class="cls-2" x="39.23" y="41.22" width="17.53" height="5.85"/><path class="cls-2" d="M59.6,59.15V55.82a5.83,5.83,0,1,1,0,11.63V57.76"/><line class="cls-2" x1="23.51" y1="23.26" x2="23.51" y2="32.95"/><line class="cls-2" x1="31.76" y1="23.26" x2="31.76" y2="32.95"/><line class="cls-2" x1="73.01" y1="23.74" x2="64.76" y2="23.74"/><line class="cls-2" x1="73.01" y1="32.47" x2="64.76" y2="32.47"/><ellipse class="cls-2" cx="48.26" cy="28.1" rx="7.22" ry="6.79"/></g></g></svg>