<svg xmlns="http://www.w3.org/2000/svg" viewBox="0 0 96 96"><defs><style>.cls-2{fill:none;stroke:#00008f;stroke-linecap:round;stroke-linejoin:round;stroke-width:2px}</style></defs><g id="Layer_2" data-name="Layer 2"><g id="icons"><path fill="#fff" d="M0 0h96v96H0z"/><path class="cls-2" d="M68.75 25.29v52a3.38 3.38 0 0 1-3.37 3.36H30.62a3.38 3.38 0 0 1-3.37-3.36V18.7a3.38 3.38 0 0 1 3.37-3.36h28"/><path class="cls-2" d="M68.75 25.29h-8.31a1.79 1.79 0 0 1-1.79-1.79v-8.16zM32.07 23.94h14.11M50.51 30.01h14.11M31.38 43.75h33.24M31.38 48h33.24M31.38 52.72h33.24M61.72 68.86L55.58 75M61.72 75l-6.14-6.14"/></g></g></svg>