<svg xmlns="http://www.w3.org/2000/svg" viewBox="0 0 96 96"><defs><style>.cls-1{fill:#fff;}.cls-2{fill:none;stroke:#00008f;stroke-linecap:round;stroke-linejoin:round;stroke-width:2px;}</style></defs><title>Contamination</title><g id="Layer_2" data-name="Layer 2"><g id="icons"><rect class="cls-1" width="96" height="96"/><circle class="cls-2" cx="47.86" cy="49.23" r="6.1"/><path class="cls-2" d="M60.52,17.67a33.89,33.89,0,0,0-26,.29l8.56,20a12.18,12.18,0,0,1,9.35-.1Z"/><path class="cls-2" d="M36.64,54l-20,8.57A33.89,33.89,0,0,0,35.21,80.78l8.11-20.23A12.14,12.14,0,0,1,36.64,54Z"/><path class="cls-2" d="M59.36,54l20,8.57A33.89,33.89,0,0,1,60.79,80.78L52.68,60.55A12.14,12.14,0,0,0,59.36,54Z"/></g></g></svg>