<svg xmlns="http://www.w3.org/2000/svg" viewBox="0 0 96 96"><defs><style>.cls-1{fill:#fff;}.cls-2{fill:none;stroke:#00008f;stroke-linecap:round;stroke-linejoin:round;stroke-width:2px;}</style></defs><title>Contract Termination</title><g id="Layer_2" data-name="Layer 2"><g id="icons"><rect class="cls-1" width="96" height="96"/><path class="cls-2" d="M68.75,25.29v52a3.38,3.38,0,0,1-3.37,3.36H30.62a3.38,3.38,0,0,1-3.37-3.36V18.7a3.38,3.38,0,0,1,3.37-3.36h28"/><path class="cls-2" d="M68.75,25.29H60.44a1.79,1.79,0,0,1-1.79-1.79V15.34Z"/><line class="cls-2" x1="32.07" y1="23.94" x2="46.18" y2="23.94"/><line class="cls-2" x1="50.51" y1="30.01" x2="64.62" y2="30.01"/><line class="cls-2" x1="31.38" y1="43.75" x2="64.62" y2="43.75"/><line class="cls-2" x1="31.38" y1="48" x2="64.62" y2="48"/><line class="cls-2" x1="31.38" y1="52.72" x2="64.62" y2="52.72"/><line class="cls-2" x1="61.72" y1="68.86" x2="55.58" y2="75"/><line class="cls-2" x1="61.72" y1="75" x2="55.58" y2="68.86"/></g></g></svg>