<svg xmlns="http://www.w3.org/2000/svg" viewBox="0 0 96 96"><g fill="none" stroke="currentColor" stroke-linecap="round" stroke-linejoin="round" stroke-width="2"><path d="M34.64 29.27a16.11 16.11 0 0 1 32.19 1.1"/><circle cx="64.82" cy="57.57" r="18.13"/><path d="M77.91 37.25v-4.79a2.1 2.1 0 0 0-2.09-2.09h-22a2.1 2.1 0 0 0-2.1 2.09v4.79a24.18 24.18 0 1 0 26.19 0zm-7.05-2.85h2.02m-32.2 24.41a15.31 15.31 0 1 1 1.74-10.4"/><path d="M46.69 57.8l.11-.33a20.49 20.49 0 0 0 1-6.13m-1.95-8.75a20.64 20.64 0 0 0-2.7-4.29l1.24-3.84a1.78 1.78 0 0 0-1.14-2.22l-17.66-5.68a1.76 1.76 0 0 0-2.22 1.14l-1.24 3.84A20.38 20.38 0 1 0 42 65.48m-3.77-31.29l1.61.52"/></g></svg>