<svg xmlns="http://www.w3.org/2000/svg" viewBox="0 0 96 96"><defs><style>.cls-2{fill:none;stroke:#00008f;stroke-linecap:round;stroke-linejoin:round;stroke-width:2px}</style></defs><g id="Layer_2" ><path fill="currentColor" d="M0 0h96v96H0z" id="cases"/><g id="icons"><path class="cls-2" d="M34.64 29.27a16.11 16.11 0 0 1 32.19 1.1"/><circle class="cls-2" cx="64.82" cy="57.57" r="18.13"/><path class="cls-2" d="M77.91 37.25v-4.79a2.1 2.1 0 0 0-2.09-2.09h-22a2.1 2.1 0 0 0-2.1 2.09v4.79a24.18 24.18 0 1 0 26.19 0zM70.86 34.4h2.02M40.68 58.81a15.31 15.31 0 1 1 1.74-10.4"/><path class="cls-2" d="M46.69 57.8l.11-.33a20.49 20.49 0 0 0 1-6.13M45.85 42.59a20.64 20.64 0 0 0-2.7-4.29l1.24-3.84a1.78 1.78 0 0 0-1.14-2.22l-17.66-5.68a1.76 1.76 0 0 0-2.22 1.14l-1.24 3.84A20.38 20.38 0 1 0 42 65.48M38.23 34.19l1.61.52"/></g></g></svg>