<svg xmlns="http://www.w3.org/2000/svg" viewBox="0 0 96 96"><defs><style>.cls-1{fill:#fff;}.cls-2{fill:none;stroke:#00008f;stroke-linecap:round;stroke-linejoin:round;stroke-width:2px;}</style></defs><title>Custody</title><g id="Layer_2" data-name="Layer 2"><g id="cases"><rect class="cls-1" width="96" height="96"/></g><g id="icons"><path class="cls-2" d="M34.64,29.27a16.11,16.11,0,0,1,32.19,1.1"/><circle class="cls-2" cx="64.82" cy="57.57" r="18.13"/><path class="cls-2" d="M77.91,37.25V32.46a2.1,2.1,0,0,0-2.09-2.09h-22a2.1,2.1,0,0,0-2.1,2.09v4.79a24.18,24.18,0,1,0,26.19,0Z"/><line class="cls-2" x1="70.86" y1="34.4" x2="72.88" y2="34.4"/><path class="cls-2" d="M40.68,58.81a15.31,15.31,0,1,1,1.74-10.4"/><path class="cls-2" d="M46.69,57.8l.11-.33a20.49,20.49,0,0,0,1-6.13"/><path class="cls-2" d="M45.85,42.59a20.64,20.64,0,0,0-2.7-4.29l1.24-3.84a1.78,1.78,0,0,0-1.14-2.22L25.59,26.56a1.76,1.76,0,0,0-2.22,1.14l-1.24,3.84A20.38,20.38,0,1,0,42,65.48"/><line class="cls-2" x1="38.23" y1="34.19" x2="39.84" y2="34.71"/></g></g></svg>