<svg xmlns="http://www.w3.org/2000/svg" viewBox="0 0 96 96"><defs><style>.cls-1{fill:#fff;}.cls-2{fill:none;stroke:#00008f;stroke-linecap:round;stroke-linejoin:round;stroke-width:2px;}</style></defs><title>Death</title><g id="Layer_2" data-name="Layer 2"><g id="icons"><rect class="cls-1" width="96" height="96"/><path class="cls-2" d="M66.6,29.24h-11v-11a2.8,2.8,0,0,0-2.79-2.79l-9.72,0a2.79,2.79,0,0,0-2.79,2.79l0,11-11,0a2.79,2.79,0,0,0-2.78,2.79V41.8a2.79,2.79,0,0,0,2.79,2.78h11l0,33.15a2.8,2.8,0,0,0,2.79,2.79l9.72,0a2.79,2.79,0,0,0,2.79-2.79l0-33.15,11,0a2.78,2.78,0,0,0,2.78-2.79V32A2.8,2.8,0,0,0,66.6,29.24Z"/></g></g></svg>