<svg xmlns="http://www.w3.org/2000/svg" viewBox="0 0 96 96"><defs><style>.cls-1{fill:#fff;}.cls-2,.cls-3{fill:none;stroke:#00008f;stroke-linejoin:round;stroke-width:2px;}.cls-2{stroke-linecap:round;}.cls-3{stroke-linecap:square;}</style></defs><title>Desk</title><g id="Layer_2" data-name="Layer 2"><g id="icons"><rect class="cls-1" width="96" height="96"/></g><g id="stroke_blue_2px" data-name="stroke blue 2px"><polygon class="cls-2" points="87.5 42.73 87.5 84.87 76.97 84.87 75.83 77.49 20.17 77.49 19.03 84.87 8.5 84.87 8.5 42.73 87.5 42.73"/><rect class="cls-2" x="8.5" y="42.73" width="79" height="7.37"/><path class="cls-2" d="M79,42.73H75.59a2.75,2.75,0,0,1-2.73-2.4l-.77-6.09a2.74,2.74,0,0,1,2.73-3.09H80a2.75,2.75,0,0,1,2.71,3.21l-1,6.09A2.75,2.75,0,0,1,79,42.73Z"/><line class="cls-3" x1="8.5" y1="77.49" x2="87.5" y2="77.49"/><path class="cls-2" d="M31.25,24.43l.57-5.72c0-4.18,4.53-7.58,10.1-7.58h9.9c5.58,0,10.1,3.4,10.1,7.58l2.41,24H29.42"/><rect class="cls-2" x="12.5" y="24.43" width="26.54" height="18.31"/></g></g></svg>