<svg xmlns="http://www.w3.org/2000/svg" viewBox="0 0 96 96"><defs><style>.cls-1{fill:#fff;}.cls-2,.cls-3{fill:none;stroke:#00008f;stroke-width:2px;}.cls-2{stroke-linecap:round;stroke-linejoin:round;}.cls-3{stroke-miterlimit:10;}</style></defs><title>Dog</title><g id="Layer_2" data-name="Layer 2"><g id="icons"><rect class="cls-1" width="96" height="96"/><path class="cls-2" d="M57,6.45A17.44,17.44,0,0,1,67.16,5.3a8.22,8.22,0,0,1,5.71,4.84l7.53,1.51a2,2,0,0,1,1.24.71,1.72,1.72,0,0,1,.49,1.29,10.32,10.32,0,0,1-4.4,8.73,16.47,16.47,0,0,1-6.94,2.86,2.05,2.05,0,0,0-1.21.69,2,2,0,0,0-.4.53,1.69,1.69,0,0,0-.18.7v.06l-.72,7.24a9.69,9.69,0,0,0,2,4.18c4.83,8.77-2.6,19.65-4,21.83a16.12,16.12,0,0,0-.94,1.76c0,.44-.07.87-.09,1.3A67.47,67.47,0,0,0,65,71.3,15.14,15.14,0,0,0,68.94,81c2.23,2.09,4,5.2,3.8,7-.36,1.47-1.12,2.31-3.44,2.35-1.79-.16-2.53-1.31-5-4.92-2.63-3.88-6.94-10.22-7-10.42M41.12,69.35a9.82,9.82,0,0,1,9.39-3.43c5,.79,8.66,5.52,5.76,14.36a40.26,40.26,0,0,1-1.56,4.18c2.9-.13,9.89-2.54,10.1,2.89a3.72,3.72,0,0,1-.46,1.83c-1.86,3.07-13.42,1.55-21.39.52a82.81,82.81,0,0,0-9.5-.52c-7.35-.05-11.37-.49-17-4.77S9.09,69.88,10.16,64.06c1.2-6.51,8-13.36,9-16.05,1.49-4,1.29-7.91-1.6-13.19Q30.4,41.23,21,58.48,15.82,69.16,20,77.21q2.37,4.52,4.91,6.16,0-16.17,6-27.52,2.13-4,7.86-12.66,6.21-8.47,7.5-10.07a16.51,16.51,0,0,0,3.54-8.47c.14-.83.53-4.16.56-5.55"/><path class="cls-2" d="M52.05,11.23l1.22-1.87A10.43,10.43,0,0,1,57,6.45,49,49,0,0,1,61.14,13q2.72,5.26,2.67,9a1,1,0,0,1-.18.41,1.11,1.11,0,0,1-.33.31,11.94,11.94,0,0,1-5.56.72,11.56,11.56,0,0,1-7.35-4.27A22.16,22.16,0,0,1,52.05,11.23Z"/><path class="cls-2" d="M68.28,34.77A30.21,30.21,0,0,1,56.15,36a32.09,32.09,0,0,1-9.86-2.9"/><path class="cls-2" d="M49.07,28S59.28,33,68.81,29.15"/><circle class="cls-3" cx="68.56" cy="12.77" r="0.6"/></g></g></svg>