<svg xmlns="http://www.w3.org/2000/svg" viewBox="0 0 96 96"><defs><style>.cls-1{fill:#fff;}.cls-2{fill:none;stroke:#00008f;stroke-linecap:round;stroke-linejoin:round;stroke-width:2px;}</style></defs><title>Electric Car</title><g id="Layer_2" data-name="Layer 2"><g id="icons"><rect class="cls-1" width="96" height="96"/><line class="cls-2" x1="30" y1="73" x2="61" y2="73"/><line class="cls-2" x1="28.24" y1="68" x2="62.76" y2="68"/><path class="cls-2" d="M87,67.82V57.68A4.78,4.78,0,0,0,83.11,53L69.73,49.52l-8.68-7.87C56,37,52.45,36,48,36H27.93c-2.61,0-5.08,2.16-6.77,4.16L12.5,50.45a3.69,3.69,0,0,1-1.06.81A2.79,2.79,0,0,0,10,53.7V67.82"/><circle class="cls-2" cx="22" cy="73" r="8"/><circle class="cls-2" cx="22" cy="73" r="3"/><circle class="cls-2" cx="69" cy="73" r="8"/><circle class="cls-2" cx="69" cy="73" r="3"/><path class="cls-2" d="M77,73h9.5A2.5,2.5,0,0,0,89,70.5h0A2.5,2.5,0,0,0,86.5,68H75.24"/><path class="cls-2" d="M14,73H10.5A2.5,2.5,0,0,1,8,70.5H8A2.5,2.5,0,0,1,10.5,68h5.26"/><path class="cls-2" d="M87,60a7.23,7.23,0,0,1-5-2.29A17.4,17.4,0,0,1,79,52"/><path class="cls-2" d="M22,51l7.51-8.34A5,5,0,0,1,33.23,41H48a13,13,0,0,1,8.75,3.38L64,51"/><line class="cls-2" x1="64" y1="51" x2="22" y2="51"/><line class="cls-2" x1="42" y1="68" x2="42" y2="41"/><line class="cls-2" x1="48" y1="56" x2="46" y2="56"/><path class="cls-2" d="M10,58c5.6,0,7-7,1.87-7"/><path class="cls-2" d="M16,46a8,8,0,0,1-8-8H8a8,8,0,0,1,8-8H37.45A4.55,4.55,0,0,0,42,25.45V23"/><path class="cls-2" d="M37,16v2a5,5,0,0,0,5,5h0a5,5,0,0,0,5-5V16Z"/><line class="cls-2" x1="39" y1="11" x2="39" y2="16"/><line class="cls-2" x1="45" y1="11" x2="45" y2="16"/></g></g></svg>