<svg xmlns="http://www.w3.org/2000/svg" viewBox="0 0 96 96"><defs><style>.cls-1{fill:#fff;}.cls-2{fill:none;stroke:#00008f;stroke-linecap:round;stroke-linejoin:round;stroke-width:2px;}</style></defs><title>Electric Damages</title><g id="Layer_2" data-name="Layer 2"><g id="icons"><rect class="cls-1" width="96" height="96"/><path class="cls-2" d="M31.17,83.46a.87.87,0,0,1-.56-.11A1.11,1.11,0,0,1,30.17,82L42.66,52.22H31.17a1.31,1.31,0,0,1-1-.56,1,1,0,0,1,0-1.11L46.9,17.08a1.18,1.18,0,0,1,1-.56H65.76a1.16,1.16,0,0,1,1,.56,1,1,0,0,1,0,1.11L53.71,38.83H66.87a1.08,1.08,0,0,1,1,.67,1.21,1.21,0,0,1-.11,1.23L32.06,83.13A1.26,1.26,0,0,1,31.17,83.46Z"/></g></g></svg>