<svg xmlns="http://www.w3.org/2000/svg" viewBox="0 0 96 96"><defs><style>.cls-2{fill:none;stroke:#00008f;stroke-linecap:round;stroke-linejoin:round;stroke-width:2px}</style></defs><g id="Layer_2" ><g id="icons"><path class="cls-2" d="M30 73h31M28.24 68h34.52M87 67.82V57.68A4.78 4.78 0 0 0 83.11 53l-13.38-3.48-8.68-7.87C56 37 52.45 36 48 36H27.93c-2.61 0-5.08 2.16-6.77 4.16L12.5 50.45a3.69 3.69 0 0 1-1.06.81A2.79 2.79 0 0 0 10 53.7v14.12"/><circle class="cls-2" cx="22" cy="73" r="8"/><circle class="cls-2" cx="22" cy="73" r="3"/><circle class="cls-2" cx="69" cy="73" r="8"/><circle class="cls-2" cx="69" cy="73" r="3"/><path class="cls-2" d="M77 73h9.5a2.5 2.5 0 0 0 2.5-2.5 2.5 2.5 0 0 0-2.5-2.5H75.24M14 73h-3.5A2.5 2.5 0 0 1 8 70.5a2.5 2.5 0 0 1 2.5-2.5h5.26M87 60a7.23 7.23 0 0 1-5-2.29A17.4 17.4 0 0 1 79 52M22 51l7.51-8.34A5 5 0 0 1 33.23 41H48a13 13 0 0 1 8.75 3.38L64 51M64 51H22M42 68V41M48 56h-2M10 58c5.6 0 7-7 1.87-7M16 46a8 8 0 0 1-8-8 8 8 0 0 1 8-8h21.45A4.55 4.55 0 0 0 42 25.45V23M37 16v2a5 5 0 0 0 5 5 5 5 0 0 0 5-5v-2zM39 11v5M45 11v5"/></g></g></svg>