<svg xmlns="http://www.w3.org/2000/svg" viewBox="0 0 96 96"><defs><style>.cls-1{fill:#fff;}.cls-2{fill:none;stroke:#00008f;stroke-linecap:round;stroke-linejoin:round;stroke-width:2px;}</style></defs><title>Electric Repairing</title><g id="Layer_2" data-name="Layer 2"><g id="icons"><rect class="cls-1" width="96" height="96"/><line class="cls-2" x1="47" y1="74.04" x2="47" y2="91"/><path class="cls-2" d="M20.26,27V47.48A26.65,26.65,0,0,0,47,74h0A26.65,26.65,0,0,0,73.74,47.48V27Z"/><line class="cls-2" x1="30.96" y1="5" x2="30.96" y2="26.96"/><line class="cls-2" x1="63.04" y1="5" x2="63.04" y2="26.96"/><path class="cls-2" d="M39.15,64.86a.35.35,0,0,1-.24,0,.49.49,0,0,1-.2-.59L44.18,51h-5a.58.58,0,0,1-.44-.25.44.44,0,0,1,0-.49L46,35.44a.51.51,0,0,1,.44-.24h7.81a.51.51,0,0,1,.44.24.45.45,0,0,1,0,.5L49,45.08h5.76a.48.48,0,0,1,.44.3.54.54,0,0,1-.05.54L39.54,64.71A.54.54,0,0,1,39.15,64.86Z"/></g></g></svg>