<svg xmlns="http://www.w3.org/2000/svg" viewBox="0 0 96 96"><defs><style>.cls-2{fill:none;stroke:#00008f;stroke-linecap:round;stroke-linejoin:round;stroke-width:2px}</style></defs><g id="Layer_2" data-name="Layer 2"><g id="icons"><path fill="currentColor" d="M0 0h96v96H0z"/><path class="cls-2" d="M47 74.04V91M20.26 27v20.48A26.65 26.65 0 0 0 47 74a26.65 26.65 0 0 0 26.74-26.52V27zM30.96 5v21.96M63.04 5v21.96"/><path class="cls-2" d="M39.15 64.86a.35.35 0 0 1-.24 0 .49.49 0 0 1-.2-.59L44.18 51h-5a.58.58 0 0 1-.44-.25.44.44 0 0 1 0-.49L46 35.44a.51.51 0 0 1 .44-.24h7.81a.51.51 0 0 1 .44.24.45.45 0 0 1 0 .5L49 45.08h5.76a.48.48 0 0 1 .44.3.54.54 0 0 1-.05.54L39.54 64.71a.54.54 0 0 1-.39.15z"/></g></g></svg>