<svg xmlns="http://www.w3.org/2000/svg" viewBox="0 0 96 96"><defs><style>.cls-1{fill:#fff;}.cls-2{fill:none;stroke:#00008f;stroke-linecap:round;stroke-linejoin:round;stroke-width:2px;}</style></defs><title>Environment</title><g id="Layer_2" data-name="Layer 2"><g id="icons"><rect class="cls-1" width="96" height="96"/><path class="cls-2" d="M45.75,21.5c3.28,3.82,8.33,5.62,14.18,2.11a8.41,8.41,0,0,0,3-11.48c-2.35-3.92-6.6-4.27-11.26-3.86-7.55.67-15.58,5.49-15.58,5.49S39.18,13.86,45.75,21.5Z"/><path class="cls-2" d="M52.21,15.38a18.73,18.73,0,0,1,15.93,6.17"/><polygon class="cls-2" points="77.31 51.45 68.32 51.45 69.85 25.52 75.78 25.52 77.31 51.45"/><path class="cls-2" d="M77.31,63V82.7c0,2.84-1.91,5.16-4.25,5.16H22.94c-2.34,0-4.25-2.32-4.25-5.16V63Z"/><circle class="cls-2" cx="31.3" cy="77.63" r="3.36"/><circle class="cls-2" cx="44.61" cy="77.63" r="3.36"/><rect class="cls-2" x="18.69" y="51.45" width="58.62" height="11.58"/></g></g></svg>