<svg xmlns="http://www.w3.org/2000/svg" viewBox="0 0 96 96"><defs><style>.cls-2{fill:none;stroke:#00008f;stroke-linecap:round;stroke-linejoin:round;stroke-width:2px}</style></defs><g id="Layer_2" data-name="Layer 2"><g id="icons"><path fill="currentColor" d="M0 0h96v96H0z"/><path class="cls-2" d="M45.75 21.5c3.28 3.82 8.33 5.62 14.18 2.11a8.41 8.41 0 0 0 3-11.48c-2.35-3.92-6.6-4.27-11.26-3.86-7.55.67-15.58 5.49-15.58 5.49s3.09.1 9.66 7.74zM52.21 15.38a18.73 18.73 0 0 1 15.93 6.17M77.31 51.45h-8.99l1.53-25.93h5.93l1.53 25.93zM77.31 63v19.7c0 2.84-1.91 5.16-4.25 5.16H22.94c-2.34 0-4.25-2.32-4.25-5.16V63z"/><circle class="cls-2" cx="31.3" cy="77.63" r="3.36"/><circle class="cls-2" cx="44.61" cy="77.63" r="3.36"/><path class="cls-2" d="M18.69 51.45h58.62v11.58H18.69z"/></g></g></svg>