<svg xmlns="http://www.w3.org/2000/svg" viewBox="0 0 96 96"><defs><style>.cls-2{fill:none;stroke:#00008f;stroke-linecap:round;stroke-linejoin:round;stroke-width:2px}</style></defs><g id="Layer_2" ><g id="icons"><path fill="currentColor" d="M0 0h96v96H0z"/><path class="cls-2" d="M41 72.38c2.5 0 2.5.61 5 .61s2.5-.61 5-.61 2.5.61 5 .61M41 76.71c2.5 0 2.5.6 5 .6s2.5-.6 5-.6 2.5.6 5 .6M32.7 12.66h30.61v29.51H32.7zM79.46 67.48L63.3 42.17H32.69L16.54 67.48M64.56 74.55a2.17 2.17 0 1 1-2.17-2.17 2.17 2.17 0 0 1 2.17 2.17zM72.32 74.55a2.17 2.17 0 1 1-2.17-2.17 2.17 2.17 0 0 1 2.17 2.17zM80.08 74.55a2.17 2.17 0 1 1-2.17-2.17 2.17 2.17 0 0 1 2.17 2.17z"/><path class="cls-2" d="M11.23 67.75h73.55v13.59H11.23z"/></g></g></svg>