<svg xmlns="http://www.w3.org/2000/svg" viewBox="0 0 96 96"><defs><style>.cls-1{fill:#fff;}.cls-2{fill:none;stroke:#00008f;stroke-linecap:round;stroke-linejoin:round;stroke-width:2px;}</style></defs><title>Extractor Hood</title><g id="Layer_2" data-name="Layer 2"><g id="icons"><rect class="cls-1" width="96" height="96"/><path class="cls-2" d="M41,72.38c2.5,0,2.5.61,5,.61s2.5-.61,5-.61,2.5.61,5,.61"/><path class="cls-2" d="M41,76.71c2.5,0,2.5.6,5,.6s2.5-.6,5-.6,2.5.6,5,.6"/><rect class="cls-2" x="32.7" y="12.66" width="30.61" height="29.51"/><polyline class="cls-2" points="79.46 67.48 63.3 42.17 32.69 42.17 16.54 67.48"/><path class="cls-2" d="M64.56,74.55a2.17,2.17,0,1,1-2.17-2.17A2.17,2.17,0,0,1,64.56,74.55Z"/><path class="cls-2" d="M72.32,74.55a2.17,2.17,0,1,1-2.17-2.17A2.17,2.17,0,0,1,72.32,74.55Z"/><path class="cls-2" d="M80.08,74.55a2.17,2.17,0,1,1-2.17-2.17A2.17,2.17,0,0,1,80.08,74.55Z"/><rect class="cls-2" x="11.23" y="67.75" width="73.55" height="13.59"/></g></g></svg>