<svg xmlns="http://www.w3.org/2000/svg" viewBox="0 0 96 96"><defs><style>.cls-1{fill:#fff;}.cls-2,.cls-3{fill:none;stroke:#00008f;stroke-width:2px;}.cls-2{stroke-miterlimit:10;}.cls-3{stroke-linecap:round;stroke-linejoin:round;}</style></defs><title>Farm</title><g id="Layer_2" data-name="Layer 2"><g id="icons"><rect class="cls-1" width="96" height="96"/><line class="cls-2" x1="66.16" y1="79" x2="86.41" y2="79"/><line class="cls-2" x1="86.41" y1="74.4" x2="66.16" y2="74.4"/><polyline class="cls-2" points="13.96 42.6 13.96 79 66.16 79 66.16 42.27"/><polyline class="cls-2" points="20.41 79 20.41 57.25 40.06 57.25 40.06 79"/><line class="cls-2" x1="20.41" y1="57.25" x2="40.06" y2="79"/><line class="cls-2" x1="40.06" y1="57.25" x2="59.7" y2="79"/><line class="cls-2" x1="59.7" y1="57.25" x2="40.06" y2="79"/><line class="cls-2" x1="40.06" y1="57.25" x2="20.41" y2="79"/><rect class="cls-2" x="23.73" y="42.48" width="7.71" height="9.31"/><rect class="cls-2" x="36.47" y="42.45" width="7.71" height="9.31"/><rect class="cls-2" x="49" y="42.45" width="7.71" height="9.31"/><path class="cls-2" d="M43.61,33.56A3.56,3.56,0,1,1,40.06,30,3.55,3.55,0,0,1,43.61,33.56Z"/><rect class="cls-2" x="71.21" y="63.36" width="5.04" height="15.64"/><rect class="cls-2" x="81.37" y="63.36" width="5.04" height="15.64"/><line class="cls-2" x1="86.41" y1="68.26" x2="66.16" y2="68.26"/><path class="cls-3" d="M9.59,40.43h0a2.5,2.5,0,0,1,1-2.06L37.82,17.75a3.71,3.71,0,0,1,4.47,0L69.5,38.37a2.51,2.51,0,0,1,1,2.06,2.57,2.57,0,0,1-4.13,2L40.61,23a.92.92,0,0,0-1.11,0L13.72,42.48A2.57,2.57,0,0,1,9.59,40.43Z"/></g></g></svg>