<svg xmlns="http://www.w3.org/2000/svg" viewBox="0 0 96 96"><g fill="none" stroke="#00008f" stroke-width="2"><path d="M66.16 79h20.25m0-4.6H66.16m-52.2-31.8V79h52.2V42.27" stroke-miterlimit="10"/><path d="M20.41 79V57.25h19.65V79M20.41 57.25L40.06 79m0-21.75L59.7 79m0-21.75L40.06 79m0-21.75L20.41 79m3.32-36.52h7.71v9.31h-7.71zm12.74-.03h7.71v9.31h-7.71zm12.53 0h7.71v9.31H49zm-5.39-8.89A3.56 3.56 0 1 1 40.06 30a3.55 3.55 0 0 1 3.55 3.56zm27.6 29.8h5.04V79h-5.04zm10.16 0h5.04V79h-5.04zm5.04 4.9H66.16" stroke-miterlimit="10"/><path d="M9.59 40.43h0a2.5 2.5 0 0 1 1-2.06l27.23-20.62a3.71 3.71 0 0 1 4.47 0L69.5 38.37a2.51 2.51 0 0 1 1 2.06 2.57 2.57 0 0 1-4.13 2L40.61 23a.92.92 0 0 0-1.11 0L13.72 42.48a2.57 2.57 0 0 1-4.13-2.05z" stroke-linecap="round" stroke-linejoin="round"/></g></svg>