<svg xmlns="http://www.w3.org/2000/svg" viewBox="0 0 96 96"><defs><style>.cls-2{fill:none;stroke:#00008f;stroke-linecap:round;stroke-linejoin:round;stroke-width:2px}</style></defs><g id="Layer_2" data-name="Layer 2"><g id="icons"><path fill="#fff" d="M0 0h96v96H0z"/><path class="cls-2" d="M62 85c-3-2-6-6-6-14a27.46 27.46 0 0 1 6.13-17.54S61.66 69.52 66 71c4 1 2-10 2-10s7 3.28 7 11c-.16 4.72-1 9-5 13 11 0 17-15 17-28 0 0-4 8-6 6s2-6 2-12a21 21 0 0 0-5.67-13.75C79 46.45 69 53 69 53s5-19-7.46-29c2.46 16-6.2 16.06-7.78 25.47 0 0-4.25-3.39-4.84-10.62C39 50 52 72 48 70c-2-1-4-3-6-7-.94 17 16 22 20 22"/><path class="cls-2" d="M12.64 40.39V75h32.24"/><path class="cls-2" d="M60.2 36.56L39.55 20.94a.9.9 0 0 0-1.1 0L13.12 40.1A2.57 2.57 0 0 1 9 38.05a2.59 2.59 0 0 1 1-2l26.8-20.31a3.63 3.63 0 0 1 4.4 0l20.37 15.41M30.82 75V48.58h13.79"/><ellipse class="cls-2" cx="39" cy="35.96" rx="3.64" ry="3.63"/></g></g></svg>