<svg xmlns="http://www.w3.org/2000/svg" viewBox="0 0 96 96"><defs><style>.cls-1{fill:#fff;}.cls-2{fill:none;stroke:#00008f;stroke-linecap:round;stroke-linejoin:round;stroke-width:2px;}</style></defs><title>Flood House</title><g id="Layer_2" data-name="Layer 2"><g id="icons"><rect class="cls-1" width="96" height="96"/><line class="cls-2" x1="74.36" y1="62.13" x2="74.36" y2="37.2"/><line class="cls-2" x1="21.64" y1="37.23" x2="21.64" y2="62.13"/><path class="cls-2" d="M18,34.86a2.49,2.49,0,0,1,1-2L45.8,12.73a3.69,3.69,0,0,1,4.4,0L77,32.87a2.49,2.49,0,0,1,1,2h0a2.58,2.58,0,0,1-4.14,2l-25.31-19a.9.9,0,0,0-1.1,0L22,37a2.52,2.52,0,0,1-4-2Z"/><polyline class="cls-2" points="39.82 63.67 39.82 45.34 56.18 45.34 56.18 63.67"/><ellipse class="cls-2" cx="48" cy="32.82" rx="3.64" ry="3.61" transform="translate(-6.75 13.25) rotate(-14.69)"/><path class="cls-2" d="M86,61.48a8.83,8.83,0,0,1-12.35,0L71,58.74a2.58,2.58,0,0,0-3.62,0l-2.63,2.74a8.83,8.83,0,0,1-12.35,0l-2.62-2.74a2.58,2.58,0,0,0-3.62,0l-2.62,2.74a8.83,8.83,0,0,1-12.35,0l-2.63-2.74a2.58,2.58,0,0,0-3.62,0l-2.62,2.74a8.83,8.83,0,0,1-12.35,0"/><path class="cls-2" d="M86,70.48a8.83,8.83,0,0,1-12.35,0L71,67.74a2.58,2.58,0,0,0-3.62,0l-2.63,2.74a8.83,8.83,0,0,1-12.35,0l-2.62-2.74a2.58,2.58,0,0,0-3.62,0l-2.62,2.74a8.83,8.83,0,0,1-12.35,0l-2.63-2.74a2.58,2.58,0,0,0-3.62,0l-2.62,2.74a8.83,8.83,0,0,1-12.35,0"/><path class="cls-2" d="M86,79.48a8.83,8.83,0,0,1-12.35,0L71,76.74a2.58,2.58,0,0,0-3.62,0l-2.63,2.74a8.83,8.83,0,0,1-12.35,0l-2.62-2.74a2.58,2.58,0,0,0-3.62,0l-2.62,2.74a8.83,8.83,0,0,1-12.35,0l-2.63-2.74a2.58,2.58,0,0,0-3.62,0l-2.62,2.74a8.83,8.83,0,0,1-12.35,0"/></g></g></svg>