<svg xmlns="http://www.w3.org/2000/svg" viewBox="0 0 96 96"><g fill="none" stroke="currentColor" stroke-linecap="round" stroke-linejoin="round" stroke-width="2"><path d="M74.36 62.13V37.2m-52.72.03v24.9M18 34.86a2.49 2.49 0 0 1 1-2l26.8-20.13a3.69 3.69 0 0 1 4.4 0L77 32.87a2.49 2.49 0 0 1 1 2 2.58 2.58 0 0 1-4.14 2l-25.31-19a.9.9 0 0 0-1.1 0L22 37a2.52 2.52 0 0 1-4-2zm21.82 28.81V45.34h16.36v18.33"/><ellipse cx="48" cy="32.82" rx="3.64" ry="3.61" transform="rotate(-14.69 48.02 32.808)"/><path d="M86 61.48a8.83 8.83 0 0 1-12.35 0L71 58.74a2.58 2.58 0 0 0-3.62 0l-2.63 2.74a8.83 8.83 0 0 1-12.35 0l-2.62-2.74a2.58 2.58 0 0 0-3.62 0l-2.62 2.74a8.83 8.83 0 0 1-12.35 0l-2.63-2.74a2.58 2.58 0 0 0-3.62 0l-2.62 2.74a8.83 8.83 0 0 1-12.35 0m76.03 9a8.83 8.83 0 0 1-12.35 0L71 67.74a2.58 2.58 0 0 0-3.62 0l-2.63 2.74a8.83 8.83 0 0 1-12.35 0l-2.62-2.74a2.58 2.58 0 0 0-3.62 0l-2.62 2.74a8.83 8.83 0 0 1-12.35 0l-2.63-2.74a2.58 2.58 0 0 0-3.62 0l-2.62 2.74a8.83 8.83 0 0 1-12.35 0m76.03 9a8.83 8.83 0 0 1-12.35 0L71 76.74a2.58 2.58 0 0 0-3.62 0l-2.63 2.74a8.83 8.83 0 0 1-12.35 0l-2.62-2.74a2.58 2.58 0 0 0-3.62 0l-2.62 2.74a8.83 8.83 0 0 1-12.35 0l-2.63-2.74a2.58 2.58 0 0 0-3.62 0l-2.62 2.74a8.83 8.83 0 0 1-12.35 0"/></g></svg>