<svg xmlns="http://www.w3.org/2000/svg" viewBox="0 0 96 96"><defs><style>.cls-2,.cls-3{fill:none}.cls-2{stroke:#00008f;stroke-linecap:round;stroke-linejoin:round;stroke-width:2px}</style></defs><g id="Layer_2" ><g id="icons"><path fill="currentColor" d="M0 0h96v96H0z"/><path class="cls-2" d="M75.92 47.65a80.8 80.8 0 0 0 15-19.4v-.1a121.48 121.48 0 0 0-1.82 18.31A121 121 0 0 0 91 67.85a78.5 78.5 0 0 0-15.08-20.2zM24.78 35.11a50.32 50.32 0 0 1 1.56 12.54 50.34 50.34 0 0 1-1.56 12.55M24.78 35.11A56.39 56.39 0 0 0 5 47.65 55.63 55.63 0 0 0 24.78 60.2M21.03 43.57L17.6 47M17.6 43.57L21.03 47M34.21 41.8a13.54 13.54 0 0 0-1.11 5.33 14 14 0 0 0 1.53 6.26M41 39.86a23.45 23.45 0 0 0 .42 15.46"/><path class="cls-3" d="M41.41 55.36A23.93 23.93 0 0 1 39.88 47 23.64 23.64 0 0 1 41 39.9"/><path class="cls-2" d="M47.77 37.92a36.28 36.28 0 0 0 .42 19.33"/><path class="cls-3" d="M48.19 57.3a36.28 36.28 0 0 1-.42-19.3"/><path class="cls-2" d="M54.55 37A43.74 43.74 0 0 0 55 58.21"/><path class="cls-3" d="M55 58.27A43.74 43.74 0 0 1 54.55 37"/><path class="cls-2" d="M61.34 35a60.1 60.1 0 0 0-1.12 11.56 60.92 60.92 0 0 0 1.53 13.56"/><path class="cls-3" d="M61.75 60.2a60.81 60.81 0 0 1-.42-25.12"/><path class="cls-2" d="M68.12 37.44A39.66 39.66 0 0 0 67 46.78a40.22 40.22 0 0 0 1.52 10.95"/><path class="cls-3" d="M68.54 57.78a40.06 40.06 0 0 1-.43-20.29"/><path class="cls-2" d="M27.07 47.61h49.12"/></g></g></svg>