<svg xmlns="http://www.w3.org/2000/svg" viewBox="0 0 96 96"><defs><style>.cls-1{fill:#fff;}.cls-2{fill:none;stroke:#00008f;stroke-linecap:round;stroke-linejoin:round;stroke-width:2px;}</style></defs><title>Frost</title><g id="Layer_2" data-name="Layer 2"><g id="icons"><rect class="cls-1" width="96" height="96"/><line class="cls-2" x1="47.92" y1="81.01" x2="47.94" y2="72.01"/><line class="cls-2" x1="47.92" y1="81.01" x2="48.08" y2="14.97"/><polyline class="cls-2" points="36.06 17.94 48.05 26.98 60.08 18"/><line class="cls-2" x1="48.05" y1="26.98" x2="60.08" y2="18"/><polyline class="cls-2" points="59.94 78.04 47.95 69 35.92 77.98"/><line class="cls-2" x1="47.95" y1="69.01" x2="35.92" y2="77.98"/><line class="cls-2" x1="76.56" y1="64.57" x2="19.44" y2="31.41"/><polyline class="cls-2" points="16.01 43.3 29.83 37.44 28.07 22.53"/><line class="cls-2" x1="29.83" y1="37.44" x2="28.07" y2="22.53"/><polyline class="cls-2" points="79.99 52.68 66.17 58.54 67.93 73.45"/><line class="cls-2" x1="66.17" y1="58.54" x2="67.93" y2="73.45"/><line class="cls-2" x1="76.64" y1="31.55" x2="19.36" y2="64.43"/><polyline class="cls-2" points="27.94 73.35 29.77 58.45 15.98 52.52"/><line class="cls-2" x1="29.77" y1="58.45" x2="15.99" y2="52.52"/><polyline class="cls-2" points="68.06 22.63 66.22 37.53 80.02 43.46"/><line class="cls-2" x1="66.23" y1="37.53" x2="80.01" y2="43.46"/></g></g></svg>