<svg xmlns="http://www.w3.org/2000/svg" viewBox="0 0 96 96"><defs><style>.cls-1{fill:#fff;}.cls-2{fill:none;stroke:#00008f;stroke-linecap:round;stroke-linejoin:round;stroke-width:2px;}</style></defs><title>Fryer</title><g id="Layer_2" data-name="Layer 2"><g id="icons"><rect class="cls-1" width="96" height="96"/><rect class="cls-2" x="12.17" y="42.39" width="71.67" height="38.52" rx="11.73"/><line class="cls-2" x1="83.83" y1="53.14" x2="91" y2="53.14"/><line class="cls-2" x1="5" y1="53.14" x2="12.17" y2="53.14"/><path class="cls-2" d="M24.94,74.07a2.36,2.36,0,1,1-2.35-2.36A2.36,2.36,0,0,1,24.94,74.07Z"/><path class="cls-2" d="M34.38,74.07A2.36,2.36,0,1,1,32,71.71,2.36,2.36,0,0,1,34.38,74.07Z"/><polyline class="cls-2" points="19.33 42.88 19.33 37.27 76.67 37.27 76.67 43.32"/><rect class="cls-2" x="19.33" y="27.05" width="57.33" height="5.11"/><rect class="cls-2" x="19.33" y="32.16" width="57.33" height="5.11"/><rect class="cls-2" x="19.33" y="21.94" width="57.33" height="5.11"/><line class="cls-2" x1="26.5" y1="21.94" x2="26.5" y2="42.39"/><line class="cls-2" x1="33.67" y1="21.94" x2="33.67" y2="42.39"/><line class="cls-2" x1="40.83" y1="21.94" x2="40.83" y2="42.39"/><line class="cls-2" x1="48" y1="21.94" x2="48" y2="42.39"/><line class="cls-2" x1="55.17" y1="15.09" x2="55.17" y2="42.39"/><line class="cls-2" x1="62.33" y1="15.09" x2="62.33" y2="42.39"/><line class="cls-2" x1="69.5" y1="21.94" x2="69.5" y2="42.39"/><line class="cls-2" x1="55.17" y1="15.09" x2="84.63" y2="15.09"/></g></g></svg>