<svg xmlns="http://www.w3.org/2000/svg" viewBox="0 0 96 96"><defs><style>.cls-2{fill:none;stroke:#00008f;stroke-linecap:round;stroke-linejoin:round;stroke-width:2px}</style></defs><g id="Layer_2" ><g id="icons"><path fill="currentColor" d="M0 0h96v96H0z"/><rect class="cls-2" x="32.79" y="14" width="30.44" height="38.49" rx="2"/><path class="cls-2" d="M63.23 66.6v-3.85a2.57 2.57 0 0 0-2.57-2.56h-25.3a2.57 2.57 0 0 0-2.57 2.56v3.85zM25.73 51.21v9a2.57 2.57 0 0 0 2.57 2.56h4.3M63.4 62.75h4.32a2.56 2.56 0 0 0 2.56-2.56v-9M32.79 82v-1.28a2.58 2.58 0 0 1 2.57-2.57h25.3a2.58 2.58 0 0 1 2.57 2.57V82M47.76 66.6V82M48 60.19v-7.7M23.62 50.57h2.57M69.81 50.57h2.57"/></g></g></svg>