<svg xmlns="http://www.w3.org/2000/svg" viewBox="0 0 96 96"><defs><style>.cls-1{fill:#fff;}.cls-2{fill:none;stroke:#00008f;stroke-linecap:round;stroke-linejoin:round;stroke-width:2px;}</style></defs><title>Furniture</title><g id="Layer_2" data-name="Layer 2"><g id="icons"><rect class="cls-1" width="96" height="96"/><rect class="cls-2" x="32.79" y="14" width="30.44" height="38.49" rx="2"/><path class="cls-2" d="M63.23,66.6V62.75a2.57,2.57,0,0,0-2.57-2.56H35.36a2.57,2.57,0,0,0-2.57,2.56V66.6Z"/><path class="cls-2" d="M25.73,51.21v9a2.57,2.57,0,0,0,2.57,2.56h4.3"/><path class="cls-2" d="M63.4,62.75h4.32a2.56,2.56,0,0,0,2.56-2.56v-9"/><path class="cls-2" d="M32.79,82V80.72a2.58,2.58,0,0,1,2.57-2.57h25.3a2.58,2.58,0,0,1,2.57,2.57V82"/><line class="cls-2" x1="47.76" y1="66.6" x2="47.76" y2="82"/><line class="cls-2" x1="48" y1="60.19" x2="48" y2="52.49"/><line class="cls-2" x1="23.62" y1="50.57" x2="26.19" y2="50.57"/><line class="cls-2" x1="69.81" y1="50.57" x2="72.38" y2="50.57"/></g></g></svg>