<svg xmlns="http://www.w3.org/2000/svg" viewBox="0 0 96 96"><g fill="none" stroke="currentColor" stroke-linecap="round" stroke-linejoin="round" stroke-width="2"><rect x="32.79" y="14" width="30.44" height="38.49" rx="2"/><path d="M63.23 66.6v-3.85a2.57 2.57 0 0 0-2.57-2.56h-25.3a2.57 2.57 0 0 0-2.57 2.56v3.85zm-37.5-15.39v9a2.57 2.57 0 0 0 2.57 2.56h4.3m30.8-.02h4.32a2.56 2.56 0 0 0 2.56-2.56v-9M32.79 82v-1.28a2.58 2.58 0 0 1 2.57-2.57h25.3a2.58 2.58 0 0 1 2.57 2.57V82M47.76 66.6V82M48 60.19v-7.7m-24.38-1.92h2.57m43.62 0h2.57"/></g></svg>