<svg xmlns="http://www.w3.org/2000/svg" viewBox="0 0 96 96"><g fill="none" stroke="currentColor" stroke-linecap="round" stroke-linejoin="round" stroke-width="2"><path d="M35.8 74.06h24.06m-24.09-4.97h25m20.14-.36v-7a3.86 3.86 0 0 0-3.1-3.83l-10.63-2.85-6.89-6.4c-4-3.79-6.83-4.6-10.37-4.6H37.54"/><circle cx="66.61" cy="73.34" r="6.75"/><circle cx="66.61" cy="73.34" r="2.5"/><path d="M74 74.06h6.49a2 2 0 0 0 2-2v-1a2 2 0 0 0-2-2h-8.11m8.53-5.32a5.75 5.75 0 0 1-4-1.82 13.75 13.75 0 0 1-2.38-4.54m-38.15-8.74H48.9a10.33 10.33 0 0 1 7 2.69l5.78 5.26m-.05 0H35.95m9.21 12.5V48.64"/><path d="M35.66 69.12V44.91a15.82 15.82 0 0 0 0-29v12.92H23V15.91a15.82 15.82 0 0 0 0 29v28.91a6.34 6.34 0 0 0 12.68 0v-4.7z"/></g></svg>