<svg xmlns="http://www.w3.org/2000/svg" viewBox="0 0 96 96"><defs><style>.cls-2{fill:none;stroke:#00008f;stroke-linecap:round;stroke-linejoin:round;stroke-width:2px}</style></defs><g id="Layer_2" data-name="Layer 2"><g id="icons"><path fill="#fff" d="M0 0h96v96H0z"/><path class="cls-2" d="M35.8 74.06h24.06M35.77 69.09h25M80.91 68.73v-7a3.86 3.86 0 0 0-3.1-3.83l-10.63-2.85-6.89-6.4c-4-3.79-6.83-4.6-10.37-4.6H37.54"/><circle class="cls-2" cx="66.61" cy="73.34" r="6.75"/><circle class="cls-2" cx="66.61" cy="73.34" r="2.5"/><path class="cls-2" d="M74 74.06h6.49a2 2 0 0 0 2-2v-1a2 2 0 0 0-2-2h-8.11M80.91 63.74a5.75 5.75 0 0 1-4-1.82 13.75 13.75 0 0 1-2.38-4.54M36.38 48.64H48.9a10.33 10.33 0 0 1 7 2.69l5.78 5.26M61.63 56.59H35.95M45.16 69.09V48.64"/><path class="cls-2" d="M35.66 69.12V44.91a15.82 15.82 0 0 0 0-29v12.92H23V15.91a15.82 15.82 0 0 0 0 29v28.91a6.34 6.34 0 0 0 12.68 0v-4.7z"/></g></g></svg>