<svg xmlns="http://www.w3.org/2000/svg" viewBox="0 0 96 96"><defs><style>.cls-1{fill:#fff;}.cls-2{fill:none;stroke:#00008f;stroke-linecap:round;stroke-linejoin:round;stroke-width:2px;}</style></defs><title>Garage</title><g id="Layer_2" data-name="Layer 2"><g id="icons"><rect class="cls-1" width="96" height="96"/><line class="cls-2" x1="35.8" y1="74.06" x2="59.86" y2="74.06"/><line class="cls-2" x1="35.77" y1="69.09" x2="60.77" y2="69.09"/><path class="cls-2" d="M80.91,68.73v-7a3.86,3.86,0,0,0-3.1-3.83L67.18,55.05l-6.89-6.4c-4-3.79-6.83-4.6-10.37-4.6H37.54"/><circle class="cls-2" cx="66.61" cy="73.34" r="6.75"/><circle class="cls-2" cx="66.61" cy="73.34" r="2.5"/><path class="cls-2" d="M74,74.06h6.49a2,2,0,0,0,2-2v-1a2,2,0,0,0-2-2H72.38"/><path class="cls-2" d="M80.91,63.74a5.75,5.75,0,0,1-4-1.82,13.75,13.75,0,0,1-2.38-4.54"/><path class="cls-2" d="M36.38,48.64H48.9a10.33,10.33,0,0,1,7,2.69l5.78,5.26"/><line class="cls-2" x1="61.63" y1="56.59" x2="35.95" y2="56.59"/><line class="cls-2" x1="45.16" y1="69.09" x2="45.16" y2="48.64"/><path class="cls-2" d="M35.66,69.12V44.91a15.82,15.82,0,0,0,0-29V28.83H23V15.91a15.82,15.82,0,0,0,0,29V69.12h0v4.7a6.34,6.34,0,0,0,12.68,0v-4.7Z"/></g></g></svg>