<svg xmlns="http://www.w3.org/2000/svg" viewBox="0 0 96 96"><defs><style>.cls-1{fill:#fff;}.cls-2{fill:none;stroke:#00008f;stroke-linecap:round;stroke-linejoin:round;stroke-width:2px;}.cls-3{fill:#00008f;}</style></defs><title>Glossary</title><g id="Layer_2" data-name="Layer 2"><g id="icons"><rect class="cls-1" width="96" height="96"/><path class="cls-2" d="M70.82,16.93v0l-.19-.27c-.11-.15-.23-.29-.35-.43l-.3-.29-.3-.24-.34-.24c-.11-.06-.2-.13-.31-.18a4,4,0,0,0-.67-.3l-.33-.1a3.92,3.92,0,0,0-.49-.13l-.36-.07c-.22,0-.43,0-.65-.05l-.2,0-36.69,0c-2.75,0-5,1.86-5,4.13l0,38.56v20a3.47,3.47,0,0,0,.51,1.78v0a4.21,4.21,0,0,0,.92,1.06l.11.09a5.39,5.39,0,0,0,.63.43l.06,0a5.5,5.5,0,0,0,.82.36l.05,0a5.3,5.3,0,0,0,.83.21l.12,0a6,6,0,0,0,1,.09l36.69,0c2.75,0,5-1.86,5-4.13V71.45l0-50.74v-2A3.48,3.48,0,0,0,70.82,16.93Z"/><line class="cls-2" x1="34.82" y1="14.61" x2="34.85" y2="80.59"/><path class="cls-3" d="M47,41.4H43.35l-.84,2.92H40.57l3.5-10.77h2.24l3.52,10.77h-2Zm-.42-1.5-.38-1.32c-.18-.57-.35-1.15-.51-1.76s-.31-1.2-.47-1.79h-.06c-.16.6-.31,1.2-.46,1.8s-.32,1.18-.5,1.75L43.8,39.9Z"/><path class="cls-3" d="M51.56,39.47h3.92v1.38H51.56Z"/><path class="cls-3" d="M57.58,43.16l5.2-8H58.06V33.54h7.1v1.15l-5.21,8h5.25v1.62H57.58Z"/></g></g></svg>