<svg xmlns="http://www.w3.org/2000/svg" viewBox="0 0 96 96"><defs><style>.cls-2{fill:none;stroke:#00008f;stroke-linecap:round;stroke-linejoin:round;stroke-width:2px}.cls-3{fill:#00008f}</style></defs><g id="Layer_2" data-name="Layer 2"><g id="icons"><path fill="currentColor" d="M0 0h96v96H0z"/><path class="cls-2" d="M70.82 16.93l-.19-.27c-.11-.15-.23-.29-.35-.43l-.3-.29-.3-.24-.34-.24c-.11-.06-.2-.13-.31-.18a4 4 0 0 0-.67-.3l-.33-.1a3.92 3.92 0 0 0-.49-.13l-.36-.07c-.22 0-.43 0-.65-.05H29.64c-2.75 0-5 1.86-5 4.13v58.56a3.47 3.47 0 0 0 .51 1.78 4.21 4.21 0 0 0 .92 1.06l.11.09a5.39 5.39 0 0 0 .63.43h.06a5.5 5.5 0 0 0 .82.36h.05a5.3 5.3 0 0 0 .83.21h.12a6 6 0 0 0 1 .09h36.69c2.75 0 5-1.86 5-4.13v-58.5a3.48 3.48 0 0 0-.56-1.78zM34.82 14.61l.03 65.98"/><path class="cls-3" d="M47 41.4h-3.65l-.84 2.92h-1.94l3.5-10.77h2.24l3.52 10.77h-2zm-.42-1.5l-.38-1.32c-.18-.57-.35-1.15-.51-1.76s-.31-1.2-.47-1.79h-.06c-.16.6-.31 1.2-.46 1.8s-.32 1.18-.5 1.75l-.4 1.32zM51.56 39.47h3.92v1.38h-3.92zM57.58 43.16l5.2-8h-4.72v-1.62h7.1v1.15l-5.21 8h5.25v1.62h-7.62z"/></g></g></svg>