<svg xmlns="http://www.w3.org/2000/svg" viewBox="0 0 96 96"><defs><style>.cls-1{fill:#fff;}.cls-2{fill:none;stroke:#00008f;stroke-linecap:round;stroke-linejoin:round;stroke-width:2px;}</style></defs><title>Goods Transport</title><g id="Layer_2" data-name="Layer 2"><g id="icons"><rect class="cls-1" width="96" height="96"/><line class="cls-2" x1="30.48" y1="69.77" x2="61.27" y2="69.77"/><line class="cls-2" x1="28.62" y1="64.46" x2="63.14" y2="64.46"/><circle class="cls-2" cx="21.99" cy="69.77" r="8.49"/><circle class="cls-2" cx="21.99" cy="69.77" r="3.19"/><circle class="cls-2" cx="69.77" cy="69.77" r="8.49"/><circle class="cls-2" cx="69.77" cy="69.77" r="3.19"/><path class="cls-2" d="M78.26,69.77H88.35A2.66,2.66,0,0,0,91,67.11h0a2.65,2.65,0,0,0-2.65-2.65h-12"/><path class="cls-2" d="M13.49,69.77H7.65A2.66,2.66,0,0,1,5,67.11H5a2.65,2.65,0,0,1,2.65-2.65h7.71"/><path class="cls-2" d="M88.88,64.46V50.65L83.19,32.16a12.9,12.9,0,0,0-12.34-9.11H57V64.46"/><path class="cls-2" d="M86.59,45.35h-17a5.1,5.1,0,0,1-5.09-5.1V31.54a2.12,2.12,0,0,1,2.12-2.12H82"/><path class="cls-2" d="M7.12,64.46V23.05a5.31,5.31,0,0,1,5.31-5.31H51.72A5.3,5.3,0,0,1,57,23.05h0"/><path class="cls-2" d="M88.88,52.78H85.69A3.18,3.18,0,0,0,82.51,56h0a3.18,3.18,0,0,0,3.18,3.19h3.19"/></g></g></svg>