<svg xmlns="http://www.w3.org/2000/svg" viewBox="0 0 96 96"><g fill="none" stroke="#00008f" stroke-linecap="round" stroke-linejoin="round" stroke-width="2"><path d="M30.48 69.77h30.79m-32.65-5.31h34.52"/><circle cx="21.99" cy="69.77" r="8.49"/><circle cx="21.99" cy="69.77" r="3.19"/><circle cx="69.77" cy="69.77" r="8.49"/><circle cx="69.77" cy="69.77" r="3.19"/><path d="M78.26 69.77h10.09A2.66 2.66 0 0 0 91 67.11a2.65 2.65 0 0 0-2.65-2.65h-12m-62.86 5.31H7.65A2.66 2.66 0 0 1 5 67.11a2.65 2.65 0 0 1 2.65-2.65h7.71m73.52 0V50.65l-5.69-18.49a12.9 12.9 0 0 0-12.34-9.11H57v41.41"/><path d="M86.59 45.35h-17a5.1 5.1 0 0 1-5.09-5.1v-8.71a2.12 2.12 0 0 1 2.12-2.12H82M7.12 64.46V23.05a5.31 5.31 0 0 1 5.31-5.31h39.29A5.3 5.3 0 0 1 57 23.05m31.88 29.73h-3.19A3.18 3.18 0 0 0 82.51 56a3.18 3.18 0 0 0 3.18 3.19h3.19"/></g></svg>