<svg xmlns="http://www.w3.org/2000/svg" viewBox="0 0 96 96"><defs><style>.cls-2{fill:none;stroke:#00008f;stroke-linecap:round;stroke-linejoin:round;stroke-width:2px}</style></defs><g id="Layer_2" data-name="Layer 2"><g id="icons"><path fill="currentColor" d="M0 0h96v96H0z"/><path class="cls-2" d="M30.48 69.77h30.79M28.62 64.46h34.52"/><circle class="cls-2" cx="21.99" cy="69.77" r="8.49"/><circle class="cls-2" cx="21.99" cy="69.77" r="3.19"/><circle class="cls-2" cx="69.77" cy="69.77" r="8.49"/><circle class="cls-2" cx="69.77" cy="69.77" r="3.19"/><path class="cls-2" d="M78.26 69.77h10.09A2.66 2.66 0 0 0 91 67.11a2.65 2.65 0 0 0-2.65-2.65h-12M13.49 69.77H7.65A2.66 2.66 0 0 1 5 67.11a2.65 2.65 0 0 1 2.65-2.65h7.71M88.88 64.46V50.65l-5.69-18.49a12.9 12.9 0 0 0-12.34-9.11H57v41.41"/><path class="cls-2" d="M86.59 45.35h-17a5.1 5.1 0 0 1-5.09-5.1v-8.71a2.12 2.12 0 0 1 2.12-2.12H82M7.12 64.46V23.05a5.31 5.31 0 0 1 5.31-5.31h39.29A5.3 5.3 0 0 1 57 23.05M88.88 52.78h-3.19A3.18 3.18 0 0 0 82.51 56a3.18 3.18 0 0 0 3.18 3.19h3.19"/></g></g></svg>