<svg xmlns="http://www.w3.org/2000/svg" viewBox="0 0 96 96"><g fill="none" stroke="#00008f" stroke-width="2"><path d="M16 40.83a2.53 2.53 0 0 1 1-2.08l27.69-21a3.78 3.78 0 0 1 4.54 0l27.69 21a2.52 2.52 0 0 1 1 2.08 2.62 2.62 0 0 1-4.2 2.09L47.54 23.05a.94.94 0 0 0-1.13 0L20.18 42.92A2.62 2.62 0 0 1 16 40.83z" stroke-linecap="round" stroke-linejoin="round"/><path d="M75.15 43.46V79v-.01H18.79V43.45" stroke-linecap="round" stroke-linejoin="round"/><path d="M52.9 59.13S42 52 58.78 40.11c0 0 10.73 17.22-5.56 19m-11.54 3.24s10-9.84-7.65-13.08c0 0-4.43 13.75 7.27 12.87" stroke-miterlimit="10"/><path d="M47 68.24a38 38 0 0 0 6.72-11 40.07 40.07 0 0 0 1.84-6m-8.56 17a30.72 30.72 0 0 1-6.28-7.37 32.09 32.09 0 0 1-2.17-4.21M47 72.51v-4.27M33 78.9s13.63-14.39 28 0" stroke-linecap="round" stroke-linejoin="round"/></g></svg>