<svg xmlns="http://www.w3.org/2000/svg" viewBox="0 0 96 96"><defs><style>.cls-1{fill:#fff;}.cls-2,.cls-3{fill:none;stroke:#00008f;stroke-width:2px;}.cls-2{stroke-linecap:round;stroke-linejoin:round;}.cls-3{stroke-miterlimit:10;}</style></defs><title>Greenhouse</title><g id="Layer_2" data-name="Layer 2"><g id="icons"><rect class="cls-1" width="96" height="96"/><path class="cls-2" d="M16,40.83h0a2.53,2.53,0,0,1,1-2.08l27.69-21a3.78,3.78,0,0,1,4.54,0l27.69,21a2.52,2.52,0,0,1,1,2.08,2.62,2.62,0,0,1-4.2,2.09L47.54,23.05a.94.94,0,0,0-1.13,0L20.18,42.92A2.62,2.62,0,0,1,16,40.83Z"/><polyline class="cls-2" points="75.15 43.46 75.15 79 75.15 78.99 18.79 78.99 18.79 43.45"/><path class="cls-3" d="M52.9,59.13S42,52,58.78,40.11c0,0,10.73,17.22-5.56,19"/><path class="cls-3" d="M41.68,62.35s10-9.84-7.65-13.08c0,0-4.43,13.75,7.27,12.87"/><path class="cls-2" d="M47,68.24a38,38,0,0,0,6.72-11,40.07,40.07,0,0,0,1.84-6"/><path class="cls-2" d="M47,68.24a30.72,30.72,0,0,1-6.28-7.37,32.09,32.09,0,0,1-2.17-4.21"/><line class="cls-2" x1="47" y1="72.51" x2="47" y2="68.24"/><path class="cls-2" d="M33,78.9s13.63-14.39,28,0"/></g></g></svg>