<svg xmlns="http://www.w3.org/2000/svg" viewBox="0 0 96 96"><defs><style>.cls-1{fill:#fff;}.cls-2{fill:none;stroke:#00008f;stroke-linecap:round;stroke-linejoin:round;stroke-width:2px;}</style></defs><title>Hand Leaf</title><g id="Layer_2" data-name="Layer 2"><g id="icons"><rect class="cls-1" width="96" height="96"/><path class="cls-2" d="M43.36,61.39l9.32,1.3a8.6,8.6,0,0,0,2.21,0l.4,0a4,4,0,0,0,2.78-3.48,4,4,0,0,0-3.68-4.29L41.54,53.26a15.28,15.28,0,0,0-12.28,3.91l-7.78,7.15-.57.43"/><path class="cls-2" d="M38.61,72.69c.68,0,15.58,2.89,15.58,2.89A6.76,6.76,0,0,0,59,74.71L70.74,67.5,82.29,56.6a2.27,2.27,0,0,0,.23-3.05h0a4,4,0,0,0-5.64-.7l-9.55,7.44-12,2.38"/><path class="cls-2" d="M38.61,72.69a4.86,4.86,0,0,0-3.22,1.13L31.53,77.1"/><path class="cls-2" d="M19.94,63.62a2,2,0,0,0-2.82-.22L13.7,66.3a2,2,0,0,0-.22,2.81L25.54,83.3a2,2,0,0,0,2.82.22l3.42-2.9A2,2,0,0,0,32,77.81Z"/><path class="cls-2" d="M59.64,30.51c-1.07,6.22-5.35,11.41-13.93,11.41A10.55,10.55,0,0,1,35,31.55c0-5.73,4.35-8.84,9.64-11.4C53.21,16,65,16,65,16S61.79,18.07,59.64,30.51Z"/><path class="cls-2" d="M48.72,28.1A23.45,23.45,0,0,0,35.53,45"/></g></g></svg>