<svg xmlns="http://www.w3.org/2000/svg" viewBox="0 0 96 96"><defs><style>.cls-1{fill:#fff;}.cls-2{fill:none;stroke:#00008f;stroke-linecap:round;stroke-linejoin:round;stroke-width:2px;}</style></defs><title>Hotel Bed</title><g id="Layer_2" data-name="Layer 2"><g id="icons"><rect class="cls-1" width="96" height="96"/><path class="cls-2" d="M11,26.9h.67a3,3,0,0,1,3,3V79.1a2,2,0,0,1-2,2H10a2,2,0,0,1-2-2V29.9A3,3,0,0,1,11,26.9Z"/><path class="cls-2" d="M81.33,67.55H88a0,0,0,0,1,0,0V79.1a2,2,0,0,1-2,2H83.33a2,2,0,0,1-2-2V67.55A0,0,0,0,1,81.33,67.55Z"/><line class="cls-2" x1="88" y1="60.77" x2="14.67" y2="60.77"/><line class="cls-2" x1="81.33" y1="67.55" x2="14.67" y2="67.55"/><line class="cls-2" x1="88" y1="67.55" x2="88" y2="60.77"/><path class="cls-2" d="M14.8,38.92c7.51,0,14.84,2.16,18.16,5.59m13.62-.13,30.49,1.33c8.54,1.2,10.93,9,10.93,15.06M14.8,49.85H34"/><path class="cls-2" d="M26.89,37.27a5.33,5.33,0,1,0,10.65.12h0a5.3,5.3,0,0,0-5.27-5.28,5.18,5.18,0,0,0-5.38,5.11Z"/><path class="cls-2" d="M52.71,49.83,34,49.85a2.23,2.23,0,0,1-.46,0,2.78,2.78,0,0,1-2.24-3.21,2.7,2.7,0,0,1,2.82-2.19l12.5-.07Z"/><path class="cls-2" d="M46.58,44.38S43.27,40,39.57,40c-3.07,0-5.16,1.85-5.49,4.31"/></g></g></svg>