<svg xmlns="http://www.w3.org/2000/svg" viewBox="0 0 96 96"><defs><style>.cls-2{fill:none;stroke:#00008f;stroke-linecap:round;stroke-linejoin:round;stroke-width:2px}</style></defs><g id="Layer_2" ><g id="icons"><path class="cls-2" d="M11 26.9h.67a3 3 0 0 1 3 3v49.2a2 2 0 0 1-2 2H10a2 2 0 0 1-2-2V29.9a3 3 0 0 1 3-3zM81.33 67.55H88V79.1a2 2 0 0 1-2 2h-2.67a2 2 0 0 1-2-2V67.55zM88 60.77H14.67M81.33 67.55H14.67M88 67.55v-6.78M14.8 38.92c7.51 0 14.84 2.16 18.16 5.59m13.62-.13l30.49 1.33c8.54 1.2 10.93 9 10.93 15.06M14.8 49.85H34"/><path class="cls-2" d="M26.89 37.27a5.33 5.33 0 1 0 10.65.12 5.3 5.3 0 0 0-5.27-5.28 5.18 5.18 0 0 0-5.38 5.11zM52.71 49.83L34 49.85a2.23 2.23 0 0 1-.46 0 2.78 2.78 0 0 1-2.24-3.21 2.7 2.7 0 0 1 2.82-2.19l12.5-.07z"/><path class="cls-2" d="M46.58 44.38S43.27 40 39.57 40c-3.07 0-5.16 1.85-5.49 4.31"/></g></g></svg>