<svg xmlns="http://www.w3.org/2000/svg" viewBox="0 0 96 96"><defs><style>.cls-1{fill:#fff;}.cls-2{fill:none;stroke:#00008f;stroke-linecap:round;stroke-linejoin:round;stroke-width:2px;}</style></defs><title>House</title><g id="Layer_2" data-name="Layer 2"><g id="icons"><rect class="cls-1" width="96" height="96"/><polyline class="cls-2" points="19 41.99 19 80 77 80 77 41.99"/><path class="cls-2" d="M15,39.38h0a2.71,2.71,0,0,1,1.11-2.23L45.58,14.81a4,4,0,0,1,4.84,0L79.89,37.15A2.7,2.7,0,0,1,81,39.38h0a2.79,2.79,0,0,1-4.48,2.22L48.6,20.44a1,1,0,0,0-1.2,0L19.48,41.6A2.79,2.79,0,0,1,15,39.38Z"/><polyline class="cls-2" points="39 80 39 51.99 57 51.99 57 80"/><circle class="cls-2" cx="48" cy="36.99" r="4"/><line class="cls-2" x1="46" y1="66" x2="44" y2="66"/></g></g></svg>