<svg xmlns="http://www.w3.org/2000/svg" viewBox="0 0 96 96"><defs><style>.cls-2{fill:none;stroke:#00008f;stroke-linecap:round;stroke-linejoin:round;stroke-width:2px}</style></defs><g id="Layer_2" data-name="Layer 2"><g id="icons"><path fill="currentColor" d="M0 0h96v96H0z"/><path class="cls-2" d="M19 41.99V80h58V41.99"/><path class="cls-2" d="M15 39.38a2.71 2.71 0 0 1 1.11-2.23l29.47-22.34a4 4 0 0 1 4.84 0l29.47 22.34A2.7 2.7 0 0 1 81 39.38a2.79 2.79 0 0 1-4.48 2.22L48.6 20.44a1 1 0 0 0-1.2 0L19.48 41.6A2.79 2.79 0 0 1 15 39.38zM39 80V51.99h18V80"/><circle class="cls-2" cx="48" cy="36.99" r="4"/><path class="cls-2" d="M46 66h-2"/></g></g></svg>