<svg xmlns="http://www.w3.org/2000/svg" viewBox="0 0 96 96"><defs><style>.cls-1{fill:#fff;}.cls-2{fill:none;stroke:#00008f;stroke-linecap:round;stroke-linejoin:round;stroke-width:2px;}</style></defs><title>Inflammable Liquid</title><g id="Layer_2" data-name="Layer 2"><g id="icons"><rect class="cls-1" width="96" height="96"/><path class="cls-2" d="M50.63,25.61a2,2,0,0,0,.31-1.08V23.45a2.05,2.05,0,0,0,1.18-1.86V13.06A2.07,2.07,0,0,0,50.06,11H45.94a2.07,2.07,0,0,0-2.06,2.06v8.53a2.05,2.05,0,0,0,1.18,1.86v1.08a2,2,0,0,0,.31,1.08c-9.16.29-16.2,2.33-16.2,10.27V80.5c0,2.48,3.18,4.5,7.06,4.5H59.77c3.88,0,7.06-2,7.06-4.5V35.88C66.83,27.94,59.79,25.9,50.63,25.61Z"/><path class="cls-2" d="M46.54,73.41C44.78,72.23,43,69.88,43,65.17a16.14,16.14,0,0,1,3.61-10.32s-.28,9.45,2.27,10.32c2.36.59,1.18-5.88,1.18-5.88a7.51,7.51,0,0,1,4.12,6.47c-.09,2.78-.59,5.29-2.94,7.65,6.47,0,10-8.85,10-16.48,0,0-2.35,4.71-3.53,3.53s1.18-3.53,1.18-7.06a12.35,12.35,0,0,0-3.34-8.08c1,5.41-4.9,9.26-4.9,9.26S53.6,43.4,46.27,37.52c1.45,9.41-3.65,9.45-4.58,15a9.16,9.16,0,0,1-2.84-6.25c-5.84,6.56,1.81,19.5-.55,18.32C37.13,64,36,62.82,34.77,60.46c-.55,10,9.42,12.95,11.77,12.95"/></g></g></svg>