<svg xmlns="http://www.w3.org/2000/svg" viewBox="0 0 96 96"><defs><style>.cls-1{fill:#fff;}.cls-2{fill:none;stroke:#00008f;stroke-linecap:round;stroke-linejoin:round;stroke-width:2px;}</style></defs><title>Keys</title><g id="Layer_2" data-name="Layer 2"><g id="icons"><rect class="cls-1" width="96" height="96"/><ellipse class="cls-2" cx="42.8" cy="24.75" rx="4.14" ry="4.14" transform="translate(17.55 67.25) rotate(-89.32)"/><path class="cls-2" d="M28.66,43.42l-4.8,6.32L27.11,59l-4.33,2.83,3,7.05L20,72.6,24.72,82l7.59-3.86L43.21,48a17.58,17.58,0,1,0-14.55-4.56Z"/><line class="cls-2" x1="31.05" y1="66.4" x2="38.01" y2="47.14"/><path class="cls-2" d="M43.69,47.91a17.76,17.76,0,0,0,4.53,1.68A18.55,18.55,0,0,0,51,50l.37,7.88,8.42,5L58.3,67.8l6.77,3.5-2,6.49L72.66,82,76,74.18l-10.94-30a17.5,17.5,0,0,0-15.79-29"/><line class="cls-2" x1="67.53" y1="66.02" x2="60.54" y2="46.87"/></g></g></svg>