<svg xmlns="http://www.w3.org/2000/svg" viewBox="0 0 96 96"><defs><style>.cls-2{fill:none;stroke:#00008f;stroke-linecap:round;stroke-linejoin:round;stroke-width:2px}</style></defs><g id="Layer_2" ><g id="icons"><path fill="currentColor" d="M0 0h96v96H0z"/><ellipse class="cls-2" cx="42.8" cy="24.75" rx="4.14" ry="4.14" transform="rotate(-89.32 42.801 24.745)"/><path class="cls-2" d="M28.66 43.42l-4.8 6.32L27.11 59l-4.33 2.83 3 7.05L20 72.6l4.72 9.4 7.59-3.86L43.21 48a17.58 17.58 0 1 0-14.55-4.56zM31.05 66.4l6.96-19.26"/><path class="cls-2" d="M43.69 47.91a17.76 17.76 0 0 0 4.53 1.68A18.55 18.55 0 0 0 51 50l.37 7.88 8.42 5-1.49 4.92 6.77 3.5-2 6.49L72.66 82 76 74.18l-10.94-30a17.5 17.5 0 0 0-15.79-29M67.53 66.02l-6.99-19.15"/></g></g></svg>