<svg xmlns="http://www.w3.org/2000/svg" viewBox="0 0 96 96"><path fill="currentColor" d="M0 0h96v96H0z"/><g data-name="stroke blue 2px" fill="none" stroke="currentColor" stroke-linecap="round" stroke-linejoin="round" stroke-width="2"><path d="M11.81 59.73V17.45a5 5 0 0 1 5-5h56.86a6 6 0 0 1 6 6v6.36M8.44 59.73h55a.86.86 0 0 1 .86.86v4.55a.86.86 0 0 1-.86.86H3.89a.86.86 0 0 1-.89-.86 5.41 5.41 0 0 1 5.41-5.41z"/><path d="M64.32 53.59H18.8a.86.86 0 0 1-.86-.86V19.51a.87.87 0 0 1 .86-.87h53.85a.87.87 0 0 1 .86.87v5.84"/><rect x="64.32" y="25.35" width="24.65" height="44.11" rx="3.46"/><path d="M88.97 62.97H64.32m24.65-31.41H64.32m13.62 34.65h-2.59m1.94-37.24H76M47.27 15.62h-2.6M7 81.26c0-4 2.28-8.26 7.25-8.26h21.4a.87.87 0 0 1 .87.86v14.79a.87.87 0 0 1-.87.87H14.22C9.25 89.52 7 85.26 7 81.26z"/><path d="M36.49 84H72a.86.86 0 0 1 .39.09l4.89 2.43a.87.87 0 0 0 .77 0l6.46-3.19a.86.86 0 0 0 .48-.78V80a.88.88 0 0 0-.48-.78L78 76a.87.87 0 0 0-.77 0l-4.81 2.43a.89.89 0 0 1-.39.09H36.49m-5.97.02h-16.3m16.3 5.44h-16.3"/></g></svg>