<svg xmlns="http://www.w3.org/2000/svg" viewBox="0 0 96 96"><defs><style>.cls-1{fill:#fff;}.cls-2{fill:none;stroke:#00008f;stroke-linecap:round;stroke-linejoin:round;stroke-width:2px;}</style></defs><title>laptop Repair</title><g id="Layer_2" data-name="Layer 2"><g id="icons"><rect class="cls-1" width="96" height="96"/></g><g id="stroke_blue_2px" data-name="stroke blue 2px"><path class="cls-2" d="M11.81,59.73V17.45a5,5,0,0,1,5-5H73.67a6,6,0,0,1,6,6v6.36"/><path class="cls-2" d="M8.44,59.73h55a.86.86,0,0,1,.86.86v4.55a.86.86,0,0,1-.86.86H3.89A.86.86,0,0,1,3,65.14v0a5.41,5.41,0,0,1,5.41-5.41Z"/><path class="cls-2" d="M64.32,53.59H18.8a.86.86,0,0,1-.86-.86V19.51a.87.87,0,0,1,.86-.87H72.65a.87.87,0,0,1,.86.87v5.84"/><rect class="cls-2" x="64.32" y="25.35" width="24.65" height="44.11" rx="3.46"/><line class="cls-2" x1="88.97" y1="62.97" x2="64.32" y2="62.97"/><line class="cls-2" x1="88.97" y1="31.56" x2="64.32" y2="31.56"/><line class="cls-2" x1="77.94" y1="66.21" x2="75.35" y2="66.21"/><line class="cls-2" x1="77.29" y1="28.97" x2="76" y2="28.97"/><line class="cls-2" x1="47.27" y1="15.62" x2="44.67" y2="15.62"/><path class="cls-2" d="M7,81.26H7c0-4,2.28-8.26,7.25-8.26h21.4a.87.87,0,0,1,.87.86V88.65a.87.87,0,0,1-.87.87H14.22C9.25,89.52,7,85.26,7,81.26Z"/><path class="cls-2" d="M36.49,84H72a.86.86,0,0,1,.39.09l4.89,2.43a.87.87,0,0,0,.77,0l6.46-3.19a.86.86,0,0,0,.48-.78V80a.88.88,0,0,0-.48-.78L78,76a.87.87,0,0,0-.77,0l-4.81,2.43a.89.89,0,0,1-.39.09H36.49"/><line class="cls-2" x1="30.52" y1="78.54" x2="14.22" y2="78.54"/><line class="cls-2" x1="30.52" y1="83.98" x2="14.22" y2="83.98"/></g></g></svg>