<svg xmlns="http://www.w3.org/2000/svg" viewBox="0 0 96 96"><defs><style>.cls-1{fill:#fff;}.cls-2{fill:none;stroke:#00008f;stroke-linecap:round;stroke-linejoin:round;stroke-width:2px;}</style></defs><title>Legal Services</title><g id="Layer_2" data-name="Layer 2"><g id="icons"><rect class="cls-1" width="96" height="96"/><circle class="cls-2" cx="48" cy="18.66" r="5.84"/><path class="cls-2" d="M72.17,78.49H53a6.43,6.43,0,0,0-2.61-10V26.92A2.42,2.42,0,0,0,48,24.51h0a2.41,2.41,0,0,0-2.41,2.41V68.49a6.43,6.43,0,0,0-2.61,10H23.83a2.42,2.42,0,0,0,0,4.83H72.17a2.42,2.42,0,1,0,0-4.83Z"/><line class="cls-2" x1="23.03" y1="24.11" x2="41.58" y2="20.06"/><line class="cls-2" x1="54.43" y1="17.26" x2="73.23" y2="12.82"/><polyline class="cls-2" points="18.85 43.81 28.59 23.11 37.11 43.81"/><path class="cls-2" d="M38.93,45A11,11,0,1,1,17,45Z"/><polyline class="cls-2" points="58.85 34.99 68.59 14.3 77.11 34.99"/><path class="cls-2" d="M78.93,36.21a11,11,0,1,1-21.91,0Z"/></g></g></svg>