<svg xmlns="http://www.w3.org/2000/svg" viewBox="0 0 96 96"><defs><style>.cls-2{fill:none;stroke:#00008f;stroke-linecap:round;stroke-linejoin:round;stroke-width:2px}</style></defs><g id="Layer_2" ><g id="icons"><circle class="cls-2" cx="48" cy="18.66" r="5.84"/><path class="cls-2" d="M72.17 78.49H53a6.43 6.43 0 0 0-2.61-10V26.92A2.42 2.42 0 0 0 48 24.51a2.41 2.41 0 0 0-2.41 2.41v41.57a6.43 6.43 0 0 0-2.61 10H23.83a2.42 2.42 0 0 0 0 4.83h48.34a2.42 2.42 0 1 0 0-4.83zM23.03 24.11l18.55-4.05M54.43 17.26l18.8-4.44M18.85 43.81l9.74-20.7 8.52 20.7"/><path class="cls-2" d="M38.93 45A11 11 0 1 1 17 45zM58.85 34.99l9.74-20.69 8.52 20.69M78.93 36.21a11 11 0 1 1-21.91 0z"/></g></g></svg>