<svg xmlns="http://www.w3.org/2000/svg" viewBox="0 0 96 96"><g fill="none" stroke="#00008f" stroke-linecap="round" stroke-linejoin="round" stroke-width="2"><circle cx="48" cy="18.66" r="5.84"/><path d="M72.17 78.49H53a6.43 6.43 0 0 0-2.61-10V26.92A2.42 2.42 0 0 0 48 24.51a2.41 2.41 0 0 0-2.41 2.41v41.57a6.43 6.43 0 0 0-2.61 10H23.83a2.42 2.42 0 0 0 0 4.83h48.34a2.42 2.42 0 1 0 0-4.83zM23.03 24.11l18.55-4.05m12.85-2.8l18.8-4.44M18.85 43.81l9.74-20.7 8.52 20.7"/><path d="M38.93 45A11 11 0 1 1 17 45zm19.92-10.01l9.74-20.69 8.52 20.69m1.82 1.22a11 11 0 1 1-21.91 0z"/></g></svg>