<svg xmlns="http://www.w3.org/2000/svg" viewBox="0 0 96 96"><defs><style>.cls-2{fill:none;stroke:#00008f;stroke-linecap:round;stroke-linejoin:round;stroke-width:2px}</style></defs><g id="Layer_2" data-name="Layer 2"><g id="icons"><path fill="#fff" d="M0 0h96v96H0z"/><path class="cls-2" d="M42.79 42.45a10.4 10.4 0 0 1-6.68-10.11c0-3.18 1.63-6.13 3.23-8.57a.56.56 0 0 1 .48-.27.63.63 0 0 1 .53.25c.27.36.52.75.76 1.14a8.76 8.76 0 0 0 2.67 2.95 14.52 14.52 0 0 1 5.46-13.75.69.69 0 0 1 .64 0 .59.59 0 0 1 .34.54c-.06 4.67 2 7.22 4 9.66 1.8 2.19 3.65 4.45 3.65 8.08a10.58 10.58 0 0 1-6.69 10"/><path class="cls-2" d="M47.3 34h-.6a3.48 3.48 0 0 0-3.54 3.41V41h7.68v-3.58A3.48 3.48 0 0 0 47.3 34z"/><path class="cls-2" d="M43.16 40.98h7.69V80h-7.69z"/></g></g></svg>