<svg xmlns="http://www.w3.org/2000/svg" viewBox="0 0 96 96"><defs><style>.cls-2,.cls-5{fill:none;stroke:#00008f;stroke-width:2px;stroke-miterlimit:10}.cls-3{fill:#00008f}.cls-5{stroke-linecap:round}</style></defs><g id="Layer_2" ><g id="icons"><path fill="currentColor" d="M0 0h96v96H0z"/><rect class="cls-2" x="13" y="31.99" width="43.16" height="32.02" rx="2"/><rect class="cls-2" x="69.17" y="27.04" width="16.7" height="20" rx="1"/><path class="cls-3" d="M75.54 31h-1.93a.5.5 0 0 0-.5.5v.95a.5.5 0 0 0 .5.5h1.93a.5.5 0 0 0 .5-.5v-.95a.5.5 0 0 0-.5-.5zM81.48 31h-1.93a.5.5 0 0 0-.5.5v.95a.5.5 0 0 0 .5.5h1.93a.5.5 0 0 0 .5-.5v-.95a.5.5 0 0 0-.5-.5zM75.54 35.83h-1.93a.5.5 0 0 0-.5.5v1a.5.5 0 0 0 .5.5h1.93a.51.51 0 0 0 .5-.5v-1a.51.51 0 0 0-.5-.5zM81.48 35.83h-1.93a.5.5 0 0 0-.5.5v1a.5.5 0 0 0 .5.5h1.93a.5.5 0 0 0 .5-.5v-1a.5.5 0 0 0-.5-.5zM75.54 40.84h-1.93a.5.5 0 0 0-.5.5v1a.5.5 0 0 0 .5.5h1.93a.51.51 0 0 0 .5-.5v-1a.51.51 0 0 0-.5-.5zM81.48 40.84h-1.93a.5.5 0 0 0-.5.5v1a.5.5 0 0 0 .5.5h1.93a.5.5 0 0 0 .5-.5v-1a.5.5 0 0 0-.5-.5z"/><circle cx="78.52" cy="55.96" r="4" stroke-linejoin="round" fill="none" stroke="#00008f" stroke-width="2"/><rect class="cls-2" x="71.06" y="65.19" width="14.92" height="3.92" rx=".25"/><rect class="cls-2" x="5" y="22.08" width="86" height="51.89" rx="2"/><path class="cls-2" d="M64.06 22.11v51.88"/><path class="cls-5" d="M12.77 75.92h7.25M72.99 75.92h7.25"/></g></g></svg>