<svg xmlns="http://www.w3.org/2000/svg" viewBox="0 0 96 96"><defs><style>.cls-1{fill:#fff;}.cls-2,.cls-4,.cls-5{fill:none;stroke:#00008f;stroke-width:2px;}.cls-2,.cls-5{stroke-miterlimit:10;}.cls-3{fill:#00008f;}.cls-4{stroke-linejoin:round;}.cls-5{stroke-linecap:round;}</style></defs><title>Microwave</title><g id="Layer_2" data-name="Layer 2"><g id="icons"><rect class="cls-1" width="96" height="96"/><rect class="cls-2" x="13" y="31.99" width="43.16" height="32.02" rx="2"/><rect class="cls-2" x="69.17" y="27.04" width="16.7" height="20" rx="1"/><path class="cls-3" d="M75.54,31H73.61a.5.5,0,0,0-.5.5v.95a.5.5,0,0,0,.5.5h1.93a.5.5,0,0,0,.5-.5v-.95a.5.5,0,0,0-.5-.5Z"/><path class="cls-3" d="M81.48,31H79.55a.5.5,0,0,0-.5.5v.95a.5.5,0,0,0,.5.5h1.93a.5.5,0,0,0,.5-.5v-.95a.5.5,0,0,0-.5-.5Z"/><path class="cls-3" d="M75.54,35.83H73.61a.5.5,0,0,0-.5.5v1a.5.5,0,0,0,.5.5h1.93a.51.51,0,0,0,.5-.5v-1a.51.51,0,0,0-.5-.5Z"/><path class="cls-3" d="M81.48,35.83H79.55a.5.5,0,0,0-.5.5v1a.5.5,0,0,0,.5.5h1.93a.5.5,0,0,0,.5-.5v-1a.5.5,0,0,0-.5-.5Z"/><path class="cls-3" d="M75.54,40.84H73.61a.5.5,0,0,0-.5.5v1a.5.5,0,0,0,.5.5h1.93a.51.51,0,0,0,.5-.5v-1a.51.51,0,0,0-.5-.5Z"/><path class="cls-3" d="M81.48,40.84H79.55a.5.5,0,0,0-.5.5v1a.5.5,0,0,0,.5.5h1.93a.5.5,0,0,0,.5-.5v-1a.5.5,0,0,0-.5-.5Z"/><circle class="cls-4" cx="78.52" cy="55.96" r="4"/><rect class="cls-2" x="71.06" y="65.19" width="14.92" height="3.92" rx="0.25"/><rect class="cls-2" x="5" y="22.08" width="86" height="51.89" rx="2"/><line class="cls-2" x1="64.06" y1="22.11" x2="64.06" y2="73.99"/><line class="cls-5" x1="12.77" y1="75.92" x2="20.02" y2="75.92"/><line class="cls-5" x1="72.99" y1="75.92" x2="80.24" y2="75.92"/></g></g></svg>