<svg xmlns="http://www.w3.org/2000/svg" viewBox="0 0 96 96"><rect x="13" y="31.99" width="43.16" height="32.02" rx="2" fill="none" stroke="currentColor" stroke-width="2" stroke-miterlimit="10"/><rect x="69.17" y="27.04" width="16.7" height="20" rx="1" fill="none" stroke="currentColor" stroke-width="2" stroke-miterlimit="10"/><path d="M75.54 31h-1.93a.5.5 0 0 0-.5.5v.95a.5.5 0 0 0 .5.5h1.93a.5.5 0 0 0 .5-.5v-.95a.5.5 0 0 0-.5-.5zm5.94 0h-1.93a.5.5 0 0 0-.5.5v.95a.5.5 0 0 0 .5.5h1.93a.5.5 0 0 0 .5-.5v-.95a.5.5 0 0 0-.5-.5zm-5.94 4.83h-1.93a.5.5 0 0 0-.5.5v1a.5.5 0 0 0 .5.5h1.93a.51.51 0 0 0 .5-.5v-1a.51.51 0 0 0-.5-.5zm5.94 0h-1.93a.5.5 0 0 0-.5.5v1a.5.5 0 0 0 .5.5h1.93a.5.5 0 0 0 .5-.5v-1a.5.5 0 0 0-.5-.5zm-5.94 5.01h-1.93a.5.5 0 0 0-.5.5v1a.5.5 0 0 0 .5.5h1.93a.51.51 0 0 0 .5-.5v-1a.51.51 0 0 0-.5-.5zm5.94 0h-1.93a.5.5 0 0 0-.5.5v1a.5.5 0 0 0 .5.5h1.93a.5.5 0 0 0 .5-.5v-1a.5.5 0 0 0-.5-.5z" fill="currentColor"/><circle cx="78.52" cy="55.96" r="4" stroke-linejoin="round" fill="none" stroke="currentColor" stroke-width="2"/><rect x="71.06" y="65.19" width="14.92" height="3.92" rx=".25" fill="none" stroke="currentColor" stroke-width="2" stroke-miterlimit="10"/><rect x="5" y="22.08" width="86" height="51.89" rx="2" fill="none" stroke="currentColor" stroke-width="2" stroke-miterlimit="10"/><path d="M64.06 22.11v51.88" fill="none" stroke="currentColor" stroke-width="2" stroke-miterlimit="10"/><path d="M12.77 75.92h7.25m52.97 0h7.25" stroke-linecap="round" fill="none" stroke="currentColor" stroke-width="2" stroke-miterlimit="10"/></svg>