<svg xmlns="http://www.w3.org/2000/svg" viewBox="0 0 96 96"><defs><style>.cls-2{fill:none;stroke:#00008f;stroke-miterlimit:10;stroke-width:2px}</style></defs><g id="Layer_2" data-name="Layer 2"><g id="icons"><path fill="#fff" d="M0 0h96v96H0z"/><path class="cls-2" d="M22.41 44.55l-.25-.07a13.76 13.76 0 0 0-3.59-.48 13.59 13.59 0 1 0 12.6 18.61"/><path class="cls-2" d="M29.56 52.91l-6.81-7.39a1.14 1.14 0 0 1 .9-2l10.35.24a8.22 8.22 0 0 1 8.29 8.16v.63M17.74 34.35h15.5a7.54 7.54 0 0 1 7.54 7.54v.9a.58.58 0 0 1-.58.58H14.59a2.07 2.07 0 0 1-2.07-2.07v-1.73a5.22 5.22 0 0 1 5.22-5.22zM22.51 62.13a6 6 0 1 1-4-10.53 6 6 0 0 1 4 1.5M73.3 45.06a13.34 13.34 0 0 1 4.17-.66 13.54 13.54 0 1 1-8.66 3.14"/><path class="cls-2" d="M78.3 54a3.91 3.91 0 1 1-4.79 4.21 3.22 3.22 0 0 1 .36-2L65.16 40.8l-11.35 19a.72.72 0 0 1-.26.23.41.41 0 0 1-.19.08h-5.28a4.69 4.69 0 0 1-4.59 3.2l-21-1.2a4.89 4.89 0 0 1-4.88-4.9c0-2.61 2.19-4.14 4.81-4.14L44 52.5a4.34 4.34 0 0 1 4.12 3l2.6.06 11.54-19.65L57.78 28l-5.41.06a1.54 1.54 0 0 1-1.57-1.54v-.67a1.37 1.37 0 0 1 1.37-1.37h9c.07 0 1 1.59 2.49 4a4.3 4.3 0 0 1 4.35-4h2.86v8.43H68a4.44 4.44 0 0 1-2-.49C71.06 41.13 78.3 54 78.3 54z"/></g></g></svg>