<svg xmlns="http://www.w3.org/2000/svg" viewBox="0 0 96 96"><defs><style>.cls-2{fill:none;stroke:#00008f;stroke-linecap:round;stroke-linejoin:round;stroke-width:2px}</style></defs><g id="Layer_2" data-name="Layer 2"><g id="icons"><path fill="#fff" d="M0 0h96v96H0z"/><circle class="cls-2" cx="21" cy="62" r="13"/><circle class="cls-2" cx="21" cy="62" r="7"/><circle class="cls-2" cx="75" cy="62" r="13"/><path class="cls-2" d="M82.28 45.53A18 18 0 0 0 75 44a17.79 17.79 0 0 0-5.86 1"/><circle class="cls-2" cx="75" cy="62" r="7"/><path class="cls-2" d="M10 36v4s7.37 1.27 11 2c10 2 18 10 18 20v3h18v-3a17.82 17.82 0 0 1 12-17l-5-14c-12 0-17 10-22 10s-11-8-17-8H13a3 3 0 0 0-3 3zM69 45l6 17"/><path class="cls-2" d="M30.75 46.4L21 62h17.92M73 44v-6a3 3 0 0 0-3-3h-4.58M64 31l-2-6h-6M50 48h13.68M52 53h7.38"/></g></g></svg>