<svg xmlns="http://www.w3.org/2000/svg" viewBox="0 0 96 96"><defs><style>.cls-1{fill:#fff;}.cls-2{fill:none;stroke:#00008f;stroke-linecap:round;stroke-linejoin:round;stroke-width:2px;}</style></defs><title>Motorcycle</title><g id="Layer_2" data-name="Layer 2"><g id="icons"><rect class="cls-1" width="96" height="96"/><circle class="cls-2" cx="21" cy="62" r="13"/><circle class="cls-2" cx="21" cy="62" r="7"/><circle class="cls-2" cx="75" cy="62" r="13"/><path class="cls-2" d="M82.28,45.53A18,18,0,0,0,75,44a17.79,17.79,0,0,0-5.86,1"/><circle class="cls-2" cx="75" cy="62" r="7"/><path class="cls-2" d="M10,36v4s7.37,1.27,11,2c10,2,18,10,18,20v3H57V62a17.82,17.82,0,0,1,12-17L64,31C52,31,47,41,42,41s-11-8-17-8H13A3,3,0,0,0,10,36Z"/><line class="cls-2" x1="69" y1="45" x2="75" y2="62"/><polyline class="cls-2" points="30.75 46.4 21 62 38.92 62"/><path class="cls-2" d="M73,44V38a3,3,0,0,0-3-3H65.42"/><polyline class="cls-2" points="64 31 62 25 56 25"/><line class="cls-2" x1="50" y1="48" x2="63.68" y2="48"/><line class="cls-2" x1="52" y1="53" x2="59.38" y2="53"/></g></g></svg>