<svg xmlns="http://www.w3.org/2000/svg" viewBox="0 0 96 96"><g fill="none" stroke="#00008f" stroke-linecap="round" stroke-linejoin="round" stroke-width="2"><circle cx="21" cy="62" r="13"/><circle cx="21" cy="62" r="7"/><circle cx="75" cy="62" r="13"/><path d="M82.28 45.53A18 18 0 0 0 75 44a17.79 17.79 0 0 0-5.86 1"/><circle cx="75" cy="62" r="7"/><path d="M10 36v4s7.37 1.27 11 2c10 2 18 10 18 20v3h18v-3a17.82 17.82 0 0 1 12-17l-5-14c-12 0-17 10-22 10s-11-8-17-8H13a3 3 0 0 0-3 3zm59 9l6 17"/><path d="M30.75 46.4L21 62h17.92M73 44v-6a3 3 0 0 0-3-3h-4.58M64 31l-2-6h-6m-6 23h13.68M52 53h7.38"/></g></svg>