<svg xmlns="http://www.w3.org/2000/svg" viewBox="0 0 96 96"><defs><style>.cls-2{fill:none;stroke:#00008f;stroke-linecap:round;stroke-linejoin:round;stroke-width:2px}</style></defs><g id="Layer_2" data-name="Layer 2"><g id="icons"><path fill="#fff" d="M0 0h96v96H0z"/><ellipse class="cls-2" cx="71.79" cy="64.13" rx="9.15" ry="9.29"/><ellipse class="cls-2" cx="71.79" cy="64.13" rx="4.15" ry="4.22"/><ellipse class="cls-2" cx="20.84" cy="64.25" rx="9.15" ry="9.29" transform="rotate(-.19 21.004 63.362)"/><ellipse class="cls-2" cx="20.84" cy="64.25" rx="4.15" ry="4.22" transform="rotate(-.19 21.004 63.362)"/><path class="cls-2" d="M62.6 65.17l-32.68.17M78.65 58h11.67A2.69 2.69 0 0 1 93 60.67v1.9a2.7 2.7 0 0 1-2.68 2.69h-9.45M27.68 58.09l37.03-.19M11.69 65.4h-6A2.68 2.68 0 0 1 3 62.75v-1.9a2.69 2.69 0 0 1 2.67-2.69h8.08M90.31 57.82s1.87-8-3.57-14.35c-2.33-2.72-7-10.21-15.58-15.63-6-3-14.59-5.56-27.66-6.26-6.51 0-20.66-.8-29.71 6.5-2.69 2.16-4.8 6.07-6.2 8.35a13 13 0 0 0-1.92 6.83v14.9"/><path class="cls-2" d="M6.56 41.81l41.85-.17-.04-11.89-36.09.14M84.83 41.65H54.7v-11.9h18.69M25.41 29.85l.03 11.89M54.7 41.65v16.34M11.1 41.8c0 4.51-2.41 8.18-5.42 8.19M89.37 50.73h-4.25c-2.17 0-3.92 2.44-3.92 4.34V58"/></g></g></svg>