<svg xmlns="http://www.w3.org/2000/svg" viewBox="0 0 96 96"><defs><style>.cls-1{fill:#fff;}.cls-2{fill:none;stroke:#00008f;stroke-linecap:round;stroke-linejoin:round;stroke-width:2px;}</style></defs><title>MPV</title><g id="Layer_2" data-name="Layer 2"><g id="icons"><rect class="cls-1" width="96" height="96"/><ellipse class="cls-2" cx="71.79" cy="64.13" rx="9.15" ry="9.29"/><ellipse class="cls-2" cx="71.79" cy="64.13" rx="4.15" ry="4.22"/><ellipse class="cls-2" cx="20.84" cy="64.25" rx="9.15" ry="9.29" transform="translate(-0.21 0.07) rotate(-0.19)"/><ellipse class="cls-2" cx="20.84" cy="64.25" rx="4.15" ry="4.22" transform="translate(-0.21 0.07) rotate(-0.19)"/><line class="cls-2" x1="62.6" y1="65.17" x2="29.92" y2="65.34"/><path class="cls-2" d="M78.65,58H90.32A2.69,2.69,0,0,1,93,60.67v1.9a2.7,2.7,0,0,1-2.68,2.69H80.87"/><line class="cls-2" x1="27.68" y1="58.09" x2="64.71" y2="57.9"/><path class="cls-2" d="M11.69,65.4l-6,0A2.68,2.68,0,0,1,3,62.75v-1.9a2.69,2.69,0,0,1,2.67-2.69l8.08,0"/><path class="cls-2" d="M90.31,57.82s1.87-8-3.57-14.35c-2.33-2.72-7-10.21-15.58-15.63-6-3-14.59-5.56-27.66-6.26-6.51,0-20.66-.8-29.71,6.5-2.69,2.16-4.8,6.07-6.2,8.35a13,13,0,0,0-1.92,6.83l0,14.9"/><polyline class="cls-2" points="6.56 41.81 48.41 41.64 48.37 29.75 12.28 29.89"/><polyline class="cls-2" points="84.83 41.65 54.7 41.65 54.7 29.75 73.39 29.75"/><line class="cls-2" x1="25.41" y1="29.85" x2="25.44" y2="41.74"/><line class="cls-2" x1="54.7" y1="41.65" x2="54.7" y2="57.99"/><path class="cls-2" d="M11.1,41.8c0,4.51-2.41,8.18-5.42,8.19"/><path class="cls-2" d="M89.37,50.73H85.12c-2.17,0-3.92,2.44-3.92,4.34V58"/></g></g></svg>