<svg xmlns="http://www.w3.org/2000/svg" viewBox="0 0 96 96"><defs><style>.cls-1{fill:#fff;}.cls-2{fill:none;stroke:#00008f;stroke-linecap:round;stroke-linejoin:round;stroke-width:2px;}</style></defs><title>On Board Device</title><g id="Layer_2" data-name="Layer 2"><g id="icons"><rect class="cls-1" width="96" height="96"/><rect class="cls-2" x="5" y="20.24" width="86" height="60.86" rx="11.6"/><circle class="cls-2" cx="70.26" cy="73.08" r="3.01"/><circle class="cls-2" cx="80.3" cy="73.08" r="3.01"/><circle class="cls-2" cx="68.92" cy="45.04" r="3"/><path class="cls-2" d="M76,45c0,3.92-7.09,15.35-7.09,15.35S61.84,48.9,61.84,45A7.09,7.09,0,0,1,76,45Z"/><rect class="cls-2" x="11.52" y="27.27" width="72.96" height="37.78"/><polygon class="cls-2" points="78 27.27 42.8 33.58 42.28 27.27 37.26 27.27 36.43 34.51 36.43 34.51 11.52 39.16 11.52 43.97 36.92 39.31 35.57 65.05 43.93 65.05 42.49 38.49 84.48 30.03 84.48 27.27 78 27.27"/><path class="cls-2" d="M33,19.29c0-1.87,1.21-4.4,3.9-4.4H59.08c2.69,0,3.9,2.53,3.9,4.4"/></g></g></svg>