<svg xmlns="http://www.w3.org/2000/svg" viewBox="0 0 96 96"><defs><style>.cls-2{fill:none;stroke:#00008f;stroke-linecap:round;stroke-linejoin:round;stroke-width:2px}</style></defs><g id="Layer_2" data-name="Layer 2"><g id="icons"><path fill="#fff" d="M0 0h96v96H0z"/><rect class="cls-2" x="5" y="20.24" width="86" height="60.86" rx="11.6"/><circle class="cls-2" cx="70.26" cy="73.08" r="3.01"/><circle class="cls-2" cx="80.3" cy="73.08" r="3.01"/><circle class="cls-2" cx="68.92" cy="45.04" r="3"/><path class="cls-2" d="M76 45c0 3.92-7.09 15.35-7.09 15.35S61.84 48.9 61.84 45A7.09 7.09 0 0 1 76 45z"/><path class="cls-2" d="M11.52 27.27h72.96v37.78H11.52z"/><path class="cls-2" d="M78 27.27l-35.2 6.31-.52-6.31h-5.02l-.83 7.24-24.91 4.65v4.81l25.4-4.66-1.35 25.74h8.36l-1.44-26.56 41.99-8.46v-2.76H78zM33 19.29c0-1.87 1.21-4.4 3.9-4.4h22.18c2.69 0 3.9 2.53 3.9 4.4"/></g></g></svg>