<svg xmlns="http://www.w3.org/2000/svg" viewBox="0 0 96 96"><defs><style>.cls-2{fill:none;stroke:#00008f;stroke-linecap:round;stroke-linejoin:round;stroke-width:2px}</style></defs><g id="Layer_2" data-name="Layer 2"><g id="icons"><path fill="currentColor" d="M0 0h96v96H0z"/><circle class="cls-2" cx="42.25" cy="55.29" r="21.25"/><path class="cls-2" d="M78.72 15.6a2.72 2.72 0 0 0-3.67.22l-17.95 18c-4.4-3.53-8.77-4.22-14.85-4.22A25.72 25.72 0 1 0 68 55.29a27.33 27.33 0 0 0-7-18L78.89 19.1a2.63 2.63 0 0 0-.17-3.5z"/><circle class="cls-2" cx="39.06" cy="53.47" r="4.56"/><path class="cls-2" d="M51.81 54.85a6.49 6.49 0 0 0 .88-3.28 6.6 6.6 0 0 0-6.6-6.57 6.52 6.52 0 0 0-2.34.43A6.59 6.59 0 0 0 31.65 48a6.59 6.59 0 0 0 .93 13v.62a6.59 6.59 0 0 0 11.83 4 6.59 6.59 0 1 0 7.43-10.79z"/></g></g></svg>