<svg xmlns="http://www.w3.org/2000/svg" viewBox="0 0 96 96"><defs><style>.cls-1{fill:#fff;}.cls-2,.cls-3{fill:none;stroke:#00008f;stroke-width:2px;}.cls-2{stroke-linecap:round;stroke-linejoin:round;}.cls-3{stroke-miterlimit:10;}</style></defs><title>Parking</title><g id="Layer_2" data-name="Layer 2"><g id="icons"><rect class="cls-1" width="96" height="96"/></g><g id="stroke_blue_2px" data-name="stroke blue 2px"><rect class="cls-2" x="44.5" y="65.17" width="7" height="17.65"/><path class="cls-2" d="M37,23.68h10.4a21.67,21.67,0,0,1,4.71.47,9.84,9.84,0,0,1,3.71,1.6,7.92,7.92,0,0,1,2.46,3,10.09,10.09,0,0,1,.9,4.51,10.23,10.23,0,0,1-.9,4.44,8.63,8.63,0,0,1-2.48,3.15,10.35,10.35,0,0,1-3.73,1.84,17.21,17.21,0,0,1-4.65.6H42.49V54.59H37ZM47,38.31q6.81,0,6.8-5.07a3.84,3.84,0,0,0-1.71-3.63,10.23,10.23,0,0,0-5.1-1H42.48v9.7Z"/><rect class="cls-2" x="22" y="13.17" width="52" height="52" rx="6.13"/><circle class="cls-3" cx="67" cy="20.17" r="1"/><circle class="cls-3" cx="28" cy="20.17" r="1"/><circle class="cls-3" cx="67" cy="59.05" r="1"/><circle class="cls-3" cx="28" cy="59.05" r="1"/></g></g></svg>