<svg xmlns="http://www.w3.org/2000/svg" viewBox="0 0 96 96"><defs><style>.cls-1{fill:#fff;}.cls-2{fill:#00008f;}</style></defs><title>Penalty</title><g id="Layer_2" data-name="Layer 2"><g id="cases"><rect class="cls-1" width="96" height="96"/><path class="cls-2" d="M16.87,65A5.12,5.12,0,1,0,22,70.07,5.11,5.11,0,0,0,16.87,65Zm0,8.24A3.12,3.12,0,1,1,20,70.07,3.1,3.1,0,0,1,16.87,73.19Z"/><path class="cls-2" d="M77.58,65a5.12,5.12,0,1,0,5.08,5.12A5.11,5.11,0,0,0,77.58,65Zm0,8.24a3.12,3.12,0,1,1,3.08-3.12A3.1,3.1,0,0,1,77.58,73.19Z"/><path class="cls-2" d="M64.51,60.41H35.94a1,1,0,0,0,0,2H64.51a1,1,0,0,0,0-2Z"/><path class="cls-2" d="M79.09,44.94h.31a5,5,0,0,0,4.17-7.83.18.18,0,0,1,0-.22,5,5,0,0,0,0-5.6.17.17,0,0,1,0-.21,5,5,0,0,0,.85-2.8,5.07,5.07,0,0,0-.74-2.63.09.09,0,0,1,0-.12,5,5,0,0,0,.74-2.47A4.91,4.91,0,0,0,83,19.5a5.43,5.43,0,0,0-3.88-1.64H67.76a13.65,13.65,0,0,0-8.48,3.56.22.22,0,0,1-.12,0H50.54a2.12,2.12,0,0,0-2.12,2.12v4.09a55.56,55.56,0,0,0-8.9-.51c-7,0-12.86.79-24.21,2.67h-.06a.73.73,0,0,0-.21.06h0a1.18,1.18,0,0,0-.19.11l-.15.11c-4.53,3.43-7.17,15.54-8.76,24.4,0,.26-.09.5-.13.71h0a4.79,4.79,0,0,0-3.7,4.66v9.39a3,3,0,0,0,3,2.89h2a10,10,0,0,0,19.57,0h4.66a.7.7,0,0,0,.14,0H67.79a10,10,0,0,0,19.57,0h3a3.67,3.67,0,0,0,3.68-3.66C94.08,52,84.13,46.61,79.09,44.94ZM88,53.87a13.08,13.08,0,0,1-1.65.12c-4.49,0-7.22-3.67-9.1-7.51A19,19,0,0,1,88,53.87Zm-49.52-7H26.09a3.42,3.42,0,0,1-3.43-3.41V35.25c2.53-.31,10.1-1.19,15.85-1.59Zm2-13.34h0A23.4,23.4,0,0,1,48.42,35v3.8a2.12,2.12,0,0,0,2.12,2.12h6.81a1.15,1.15,0,0,1,1.08.73l2.14,5.26H40.51ZM71.06,54a6.84,6.84,0,0,1-4,3.42.14.14,0,0,1-.14-.08l-3.44-8.49-.81-2-2.2-5.43-.23-.58a3.15,3.15,0,0,0-2.94-2H50.54a.12.12,0,0,1-.12-.12V23.57a.12.12,0,0,1,.12-.12h8.62a2.11,2.11,0,0,0,1.56-.66,11.78,11.78,0,0,1,7-2.93H79.13a3.48,3.48,0,0,1,2.45,1,3,3,0,0,1,.84,2.1A2.89,2.89,0,0,1,82,24.47a2.11,2.11,0,0,0,0,2.22,2.93,2.93,0,0,1,.45,1.58A3,3,0,0,1,81.91,30a2.19,2.19,0,0,0,0,2.45,3,3,0,0,1,.51,1.68,2.92,2.92,0,0,1-.51,1.68,2.2,2.2,0,0,0,0,2.46,3,3,0,0,1,.51,1.68,3,3,0,0,1-3.07,3c-.93,0-2.73,0-4.4,0H72.52a2.09,2.09,0,0,0-.67.11,2,2,0,0,0-1,.77,2.1,2.1,0,0,0-.24,1.93C71.86,49.16,72,52,71.06,54ZM14.41,33.31h0V46H9.68C10.82,41.31,12.39,36.18,14.41,33.31Zm2.46,44.84a8.08,8.08,0,1,1,8-8.08A8,8,0,0,1,16.87,78.15Zm10-8h0v-.09a10,10,0,1,0-20,0v.09H5.08a1,1,0,0,1-1-.89V59.89A2.81,2.81,0,0,1,6.9,57.08h9.26c10.48,0,13.75,7.81,14.11,13.09Zm50.72,8a8.08,8.08,0,1,1,8-8.08A8,8,0,0,1,77.58,78.15Zm12.82-8H87.57v-.09a10,10,0,1,0-20,0v.07H32.27a17,17,0,0,0-3.59-9.62c-2.89-3.56-7.22-5.44-12.52-5.44H7.85c0-.07,0-.14,0-.22.28-1.54.73-4,1.35-6.86h6.17a1,1,0,0,0,1-1V31.66c10.73-1.77,16.43-2.51,23.11-2.51a49.59,49.59,0,0,1,8.9.54v3.17a24.6,24.6,0,0,0-8.89-1.27h-.08c-7.07.44-17.81,1.77-17.91,1.78a1,1,0,0,0-.88,1v9.12a5.43,5.43,0,0,0,5.43,5.41H61.38l3.74,9.24a2.1,2.1,0,0,0,2,1.33,2.15,2.15,0,0,0,.7-.12,8.74,8.74,0,0,0,5.09-4.46c1.2-2.6,1.06-5.91-.44-9.83l-.92.36,1-.46,1.72,0,.27.21h0a0,0,0,0,0,0,0C76.46,49.83,79.84,56,86.38,56a15.25,15.25,0,0,0,2.79-.27h0a26.1,26.1,0,0,1,2.9,12.78A1.67,1.67,0,0,1,90.4,70.16Z"/></g></g></svg>