<svg xmlns="http://www.w3.org/2000/svg" viewBox="0 0 96 96"><defs><style>.cls-2{fill:none;stroke:#00008f;stroke-linecap:round;stroke-linejoin:round;stroke-width:2px}</style></defs><g id="Layer_2" data-name="Layer 2"><g id="icons"><path fill="#fff" d="M0 0h96v96H0z"/><path class="cls-2" d="M28 39h-3.11a7 7 0 0 1-4.95-2l-5.77-6.58a4 4 0 0 0-3-1.37H8l3 12.87"/><path class="cls-2" d="M58 58h26.06A4.94 4.94 0 0 0 89 53.06a4.3 4.3 0 0 0-1.61-3.35L78 42.19A14.53 14.53 0 0 0 68.89 39H26l-13.7 2.42A4 4 0 0 0 9 45.36a5.82 5.82 0 0 0 3.3 5.24c4.69 2.25 13 6.14 15.66 6.72a28.45 28.45 0 0 0 6.17.68H40"/><path class="cls-2" d="M41 50l-4 32h3.49a6 6 0 0 0 5.23-3.06L62 50zM82.68 46H73l-4.12-7M27 45h2M34 45h2M41 45h2M48 45h2M55 45h2M62 45h2M56 39L45.72 22.06A6 6 0 0 0 40.49 19H37l3 20z"/><path class="cls-2" d="M60.31 53H81.9c3.1 0 4.89-.79 6.29-2.19M10 48l17.29 4.52a31.22 31.22 0 0 0 5.46.48h7.88"/></g></g></svg>