<svg xmlns="http://www.w3.org/2000/svg" viewBox="0 0 96 96"><defs><style>.cls-1{fill:#fff;}.cls-2{fill:none;stroke:#00008f;stroke-linecap:round;stroke-linejoin:round;stroke-width:2px;}</style></defs><title>Plane</title><g id="Layer_2" data-name="Layer 2"><g id="icons"><rect class="cls-1" width="96" height="96"/><path class="cls-2" d="M28,39H24.89a7,7,0,0,1-4.95-2l-5.77-6.58a4,4,0,0,0-3-1.37H8S11,41.92,11,41.92"/><path class="cls-2" d="M58,58H84.06A4.94,4.94,0,0,0,89,53.06h0a4.3,4.3,0,0,0-1.61-3.35L78,42.19A14.53,14.53,0,0,0,68.89,39H26L12.3,41.42A4,4,0,0,0,9,45.36H9a5.82,5.82,0,0,0,3.3,5.24c4.69,2.25,13,6.14,15.66,6.72a28.45,28.45,0,0,0,6.17.68H40"/><path class="cls-2" d="M41,50,37,82h3.49a6,6,0,0,0,5.23-3.06L62,50Z"/><polyline class="cls-2" points="82.68 46 73 46 68.88 39"/><line class="cls-2" x1="27" y1="45" x2="29" y2="45"/><line class="cls-2" x1="34" y1="45" x2="36" y2="45"/><line class="cls-2" x1="41" y1="45" x2="43" y2="45"/><line class="cls-2" x1="48" y1="45" x2="50" y2="45"/><line class="cls-2" x1="55" y1="45" x2="57" y2="45"/><line class="cls-2" x1="62" y1="45" x2="64" y2="45"/><path class="cls-2" d="M56,39,45.72,22.06A6,6,0,0,0,40.49,19H37l3,20Z"/><path class="cls-2" d="M60.31,53H81.9c3.1,0,4.89-.79,6.29-2.19"/><path class="cls-2" d="M10,48l17.29,4.52a31.22,31.22,0,0,0,5.46.48h7.88"/></g></g></svg>