<svg xmlns="http://www.w3.org/2000/svg" viewBox="0 0 96 96"><defs><style>.cls-1{fill:#fff;}.cls-2{fill:#00008f;}</style></defs><title>Private Mansion</title><g id="Layer_2" data-name="Layer 2"><g id="icons"><rect class="cls-1" width="96" height="96"/><path class="cls-2" d="M36.75,41.29V57.77H28.92V41.29h7.83m2-2H26.92V59.77H38.75V39.29Z"/><path class="cls-2" d="M52.05,41.29V57.77H44.22V41.29h7.83m2-2H42.22V59.77H54.05V39.29Z"/><path class="cls-2" d="M67.39,41.29V57.77H59.55V41.29h7.84m2-2H57.55V59.77H69.39V39.29Z"/><path class="cls-2" d="M48.31,12a1,1,0,0,1,.83.4,1.71,1.71,0,0,0,.36.35L76.71,33.3h-.6a2,2,0,0,0-2,2V84.05H22.16V35.3a2,2,0,0,0-2-2h-.84L47.23,12.57a1.93,1.93,0,0,0,.3-.27,1,1,0,0,1,.78-.35m0-2A3,3,0,0,0,46,11L16.74,32.73A1.7,1.7,0,0,0,18.2,35.3h2V84.08a1.74,1.74,0,0,0,1.7,2H74.41a1.7,1.7,0,0,0,1.7-1.69V35.3H77.8a1.7,1.7,0,0,0,1.46-2.57L50.71,11.11A3.06,3.06,0,0,0,48.31,10Z"/><path class="cls-2" d="M48.13,65.08c3.48,0,6.31,3.21,6.31,7.15V84H41.82V72.23c0-3.94,2.84-7.15,6.31-7.15m0-2c-4.58,0-8.31,4.12-8.31,9.15V86H56.44V72.23c0-5-3.72-9.15-8.31-9.15Z"/></g></g></svg>