<svg xmlns="http://www.w3.org/2000/svg" viewBox="0 0 96 96"><defs><style>.cls-2{fill:#00008f}</style></defs><g id="Layer_2" data-name="Layer 2"><g id="icons"><path fill="#fff" d="M0 0h96v96H0z"/><path class="cls-2" d="M36.75 41.29v16.48h-7.83V41.29h7.83m2-2H26.92v20.48h11.83V39.29zM52.05 41.29v16.48h-7.83V41.29h7.83m2-2H42.22v20.48h11.83V39.29zM67.39 41.29v16.48h-7.84V41.29h7.84m2-2H57.55v20.48h11.84V39.29z"/><path class="cls-2" d="M48.31 12a1 1 0 0 1 .83.4 1.71 1.71 0 0 0 .36.35L76.71 33.3h-.6a2 2 0 0 0-2 2v48.75H22.16V35.3a2 2 0 0 0-2-2h-.84l27.91-20.73a1.93 1.93 0 0 0 .3-.27 1 1 0 0 1 .78-.35m0-2A3 3 0 0 0 46 11L16.74 32.73a1.7 1.7 0 0 0 1.46 2.57h2v48.78a1.74 1.74 0 0 0 1.7 2h52.51a1.7 1.7 0 0 0 1.7-1.69V35.3h1.69a1.7 1.7 0 0 0 1.46-2.57L50.71 11.11a3.06 3.06 0 0 0-2.4-1.11z"/><path class="cls-2" d="M48.13 65.08c3.48 0 6.31 3.21 6.31 7.15V84H41.82V72.23c0-3.94 2.84-7.15 6.31-7.15m0-2c-4.58 0-8.31 4.12-8.31 9.15V86h16.62V72.23c0-5-3.72-9.15-8.31-9.15z"/></g></g></svg>