<svg xmlns="http://www.w3.org/2000/svg" viewBox="0 0 96 96"><defs><style>.cls-2{fill:none;stroke:#00008f;stroke-linecap:round;stroke-linejoin:round;stroke-width:2px}</style></defs><g id="Layer_2" data-name="Layer 2"><g id="icons"><path fill="currentColor" d="M0 0h96v96H0z"/><path class="cls-2" d="M16.13 58.63h11.53v3.55M27.66 62.18h12.05v3.56M39.71 65.74h12.05v3.55M51.76 69.29h12.06v3.56M63.82 72.85h12.05v3.56M31.56 33.36c-1.29 2.65 0 5.32 2.33 6.76L46.78 48a3.94 3.94 0 0 0 2.38.53C54.56 51 57.91 55.07 60.1 61c1.33 3.6 6.93 1.59 5.6-2-2.18-5.88-5.51-10.6-10.34-13.81a12.11 12.11 0 0 1 5.64-4.8 3 3 0 0 0 .83-.55 20.17 20.17 0 0 1 5.4.46 2.88 2.88 0 1 0 1.61-5.54 25.46 25.46 0 0 0-7.73-.64 3.33 3.33 0 0 0-2.21 1 3.18 3.18 0 0 0-.62.2 17 17 0 0 0-6 4.4 6.78 6.78 0 0 0-1-.79l-4.36-2.67a17.33 17.33 0 0 0 2.34-9c0-3.85-6-3.47-5.94.34a10.69 10.69 0 0 1-1.47 5.54l-2.45-1.45a69.1 69.1 0 0 0 5.11-10.57c1.31-3.48-4.24-5.12-5.51-1.61a65.8 65.8 0 0 1-6.85 13 4.33 4.33 0 0 0-.55.86zM71.76 61.6c.17.43-.1 1-.69 1.56a7.63 7.63 0 0 1-1.81 1.26l-.17.09c-.29.14-.59.28-.91.4M75.05 64.12c.23.61-.15 1.39-1 2.19a11.07 11.07 0 0 1-2.52 1.75l-.24.12c-.4.2-.82.39-1.26.56"/><circle class="cls-2" cx="26.71" cy="29.21" r="5.69"/></g></g></svg>