<svg xmlns="http://www.w3.org/2000/svg" viewBox="0 0 96 96"><defs><style>.cls-1{fill:#fff;}.cls-2{fill:none;stroke:#00008f;stroke-linecap:round;stroke-linejoin:round;stroke-width:2px;}</style></defs><title>Reffrigerator</title><g id="Layer_2" data-name="Layer 2"><g id="icons"><rect class="cls-1" width="96" height="96"/><line class="cls-2" x1="34.88" y1="81.34" x2="37.91" y2="81.34"/><line class="cls-2" x1="56.09" y1="81.34" x2="59.12" y2="81.34"/><path class="cls-2" d="M35,55.84h0a1.76,1.76,0,0,1-1.76-1.76V46a1.77,1.77,0,0,1,3.53,0v8.08A1.77,1.77,0,0,1,35,55.84Z"/><path class="cls-2" d="M35,34.31h0a1.77,1.77,0,0,1-1.76-1.77V24.47a1.77,1.77,0,1,1,3.53,0v8.07A1.78,1.78,0,0,1,35,34.31Z"/><line class="cls-2" x1="28.14" y1="39.27" x2="65.86" y2="39.27"/><path class="cls-2" d="M65.44,17.32v0a3.64,3.64,0,0,0-.23-.39,1.63,1.63,0,0,0-.11-.17,3.16,3.16,0,0,0-.37-.45l-.16-.16c-.13-.11-.26-.22-.4-.32A.83.83,0,0,0,64,15.7a3.08,3.08,0,0,0-.59-.33l-.16-.06a3.24,3.24,0,0,0-.53-.16l-.2-.05a4.39,4.39,0,0,0-.72-.07H32.18a4.05,4.05,0,0,0-4,4V76.38a3.92,3.92,0,0,0,.42,1.74v0a3,3,0,0,0,.22.39l.12.17a4.94,4.94,0,0,0,.36.44l.17.17.39.32.15.11a3.51,3.51,0,0,0,.6.33l.16,0a3.27,3.27,0,0,0,.53.17l.2,0a4.18,4.18,0,0,0,.72.07H61.82a4.05,4.05,0,0,0,4-4V19.07A4,4,0,0,0,65.44,17.32Z"/></g></g></svg>