<svg xmlns="http://www.w3.org/2000/svg" viewBox="0 0 96 96"><g fill="none" stroke="currentColor" stroke-linecap="round" stroke-linejoin="round" stroke-width="2"><path d="M34.88 81.34h3.03m18.18 0h3.03M35 55.84a1.76 1.76 0 0 1-1.76-1.76V46a1.77 1.77 0 0 1 3.53 0v8.08A1.77 1.77 0 0 1 35 55.84zm0-21.53a1.77 1.77 0 0 1-1.76-1.77v-8.07a1.77 1.77 0 1 1 3.53 0v8.07A1.78 1.78 0 0 1 35 34.31zm-6.86 4.96h37.72"/><path d="M65.44 17.32a3.64 3.64 0 0 0-.23-.39 1.63 1.63 0 0 0-.11-.17 3.16 3.16 0 0 0-.37-.45l-.16-.16c-.13-.11-.26-.22-.4-.32a.83.83 0 0 0-.17-.13 3.08 3.08 0 0 0-.59-.33l-.16-.06a3.24 3.24 0 0 0-.53-.16l-.2-.05a4.39 4.39 0 0 0-.72-.07H32.18a4.05 4.05 0 0 0-4 4v57.35a3.92 3.92 0 0 0 .42 1.74 3 3 0 0 0 .22.39l.12.17a4.94 4.94 0 0 0 .36.44l.17.17.39.32.15.11a3.51 3.51 0 0 0 .6.33h.16a3.27 3.27 0 0 0 .53.17h.2a4.18 4.18 0 0 0 .72.07h29.6a4.05 4.05 0 0 0 4-4V19.07a4 4 0 0 0-.38-1.75z"/></g></svg>