<svg xmlns="http://www.w3.org/2000/svg" viewBox="0 0 96 96"><defs><style>.cls-1{fill:#fff;}.cls-2{fill:none;stroke:#00008f;stroke-linecap:round;stroke-linejoin:round;stroke-width:2px;}</style></defs><title>Repairs 2</title><g id="Layer_2" data-name="Layer 2"><g id="icons"><rect class="cls-1" width="96" height="96"/><path class="cls-2" d="M19,79.85a2.49,2.49,0,0,1-3.51-3.53,2.46,2.46,0,0,1,3.51,0A2.5,2.5,0,0,1,19,79.85Z"/><path class="cls-2" d="M83.63,73.44,66.74,56.54a.59.59,0,0,0-.83,0c-.68.68-3.14-1.78-2.47-2.46a.58.58,0,0,0,0-.85L61.14,51a.57.57,0,0,0-.71-.09l-8.81,8.8a.59.59,0,0,0,.09.71l2.3,2.3a.58.58,0,0,0,.84,0c.67-.67,3.13,1.79,2.46,2.47a.59.59,0,0,0,0,.82l16.91,16.9a6.67,6.67,0,0,0,9.42-9.43Z"/><path class="cls-2" d="M67.06,34.89a12.23,12.23,0,0,0,5.38.81A12.5,12.5,0,0,0,83.92,22.25a5.59,5.59,0,0,0-.41-2.37L76.22,29,68,28l-1-9,9.08-7.29a5.62,5.62,0,0,0-2.37-.42A12.52,12.52,0,0,0,60.26,22.78a12.25,12.25,0,0,0,.81,5.38l-15,14L27.14,23.27l-1.28-4.14-8.24-6L13.4,17.32l6.25,8.12,4.26,1.17L42.68,45.39l-30.3,28.4a6.53,6.53,0,0,0,.17,9.34c2.62,2.6,6.64,1.88,9.24-.85L50,52.73,53.28,56l3.25-3.36-3.29-3.28Z"/></g></g></svg>