<svg xmlns="http://www.w3.org/2000/svg" viewBox="0 0 76 76"><path d="M74.93 21a21.21 21.21 0 0 0-.53-3.22L62.92 31.6l-15.54-.43-5.19-16.47L55.8 1.15a22.21 22.21 0 0 0-4.32-.08 21.72 21.72 0 0 0-20 23.34 21.49 21.49 0 0 0 2.29 8.1L1.91 64.2a3.11 3.11 0 0 0 0 4.39l5.52 5.5a3.14 3.14 0 0 0 4.42 0L43.7 42.38s.06-.08.1-.11A21.78 21.78 0 0 0 74.93 21zm-63.6 47.07a2.38 2.38 0 0 1-3.37 0 2.36 2.36 0 0 1 0-3.35 2.4 2.4 0 0 1 3.37 0 2.36 2.36 0 0 1 0 3.35z" fill="none" stroke="#00008f" stroke-linecap="round" stroke-linejoin="round" stroke-width="2" fill-rule="evenodd" data-name="Layer 2"/></svg>