<svg xmlns="http://www.w3.org/2000/svg" viewBox="0 0 96 96"><defs><style>.cls-1{fill:#fff;}.cls-2{fill:none;stroke:#00008f;stroke-linecap:round;stroke-linejoin:round;stroke-width:2px;}</style></defs><title>Repair 2</title><g id="Layer_2" data-name="Layer 2"><g id="icons"><rect class="cls-1" width="96" height="96"/></g><g id="stroke_blue_2px" data-name="stroke blue 2px"><circle class="cls-2" cx="26.5" cy="73.75" r="2.5"/><path class="cls-2" d="M74.53,25.58a12,12,0,0,0-8-11.3v8h-8v-8a12,12,0,0,0-2,21.68V46.58h12V36A12,12,0,0,0,74.53,25.58Z"/><path class="cls-2" d="M56.56,36v6.76l0,3.86H71c2,0,3.65,1.71,3.84,6.92a7.08,7.08,0,0,1-1.08,3.9,4.66,4.66,0,0,1,.07,6.33,5.9,5.9,0,0,1-.75.75,4.74,4.74,0,0,1-.23,6,5.1,5.1,0,0,1-.81.8,4.94,4.94,0,0,1-1.42,5.14c-.83.8-1.55,1.89-4.67,1.89H34"/><path class="cls-2" d="M34.21,45.68h4.12c9.79,0,9.45-9.44,9.45-9.44V30.11a4.38,4.38,0,0,1,2.68-4"/><rect class="cls-2" x="19" y="42.72" width="15" height="39"/></g></g></svg>