<svg xmlns="http://www.w3.org/2000/svg" viewBox="0 0 96 96"><defs><style>.cls-2{fill:none;stroke:#00008f;stroke-linecap:round;stroke-linejoin:round;stroke-width:2px}</style></defs><g id="Layer_2" ><g id="icons"><path fill="currentColor" d="M0 0h96v96H0z"/><path class="cls-2" d="M56.85 35.34A20.41 20.41 0 1 1 39 35.4M35.6 31.77a25.24 25.24 0 1 0 24.69-.07"/><path class="cls-2" d="M29.26 25.07l6.34 6.7L39 35.4l9 9.32h.13l8.77-9.38 3.44-3.64 6.44-6.81a.37.37 0 0 0 0-.47L62 17.06a.21.21 0 0 0-.12-.06H34.21c-.06 0-.13.06-.19.06l-4.93 7.58a.2.2 0 0 0 0 .25l.17.18"/><path class="cls-2" d="M48.42 17.57l6.44 7.07 6.5-7.07M34.71 17.57l6.51 7.07 6.44-7.07M41.53 25.21l1.66 4.82 1.31 3.83 3.52 10.86 3.55-10.84 1.41-4.13 1.56-4.54M29.26 25.07h-.02M65.72 25.07H29.26"/></g></g></svg>