<svg xmlns="http://www.w3.org/2000/svg" viewBox="0 0 96 96"><defs><style>.cls-1{fill:#fff;}.cls-2{fill:none;stroke:#00008f;stroke-linecap:round;stroke-linejoin:round;stroke-width:2px;}</style></defs><title>Ring</title><g id="Layer_2" data-name="Layer 2"><g id="icons"><rect class="cls-1" width="96" height="96"/><path class="cls-2" d="M56.85,35.34A20.41,20.41,0,1,1,39,35.4"/><path class="cls-2" d="M35.6,31.77a25.24,25.24,0,1,0,24.69-.07"/><path class="cls-2" d="M29.26,25.07l6.34,6.7L39,35.4,48,44.72h.13l8.77-9.38,3.44-3.64,6.44-6.81a.37.37,0,0,0,0-.47L62,17.06a.21.21,0,0,0-.12-.06H34.21c-.06,0-.13.06-.19.06l-4.93,7.58a.2.2,0,0,0,0,.25l.17.18"/><polyline class="cls-2" points="48.42 17.57 54.86 24.64 61.36 17.57"/><polyline class="cls-2" points="34.71 17.57 41.22 24.64 47.66 17.57"/><polyline class="cls-2" points="41.53 25.21 43.19 30.03 44.5 33.86 48.02 44.72 51.57 33.88 52.98 29.75 54.54 25.21"/><line class="cls-2" x1="29.26" y1="25.07" x2="29.24" y2="25.07"/><line class="cls-2" x1="65.72" y1="25.07" x2="29.26" y2="25.07"/></g></g></svg>