<svg xmlns="http://www.w3.org/2000/svg" viewBox="0 0 96 96"><defs><style>.cls-2{fill:none;stroke:#00008f;stroke-linecap:round;stroke-linejoin:round;stroke-width:2px}</style></defs><g id="Layer_2" ><g id="icons"><path class="cls-2" d="M34.86 80.85L14.94 60.93"/><path class="cls-2" transform="rotate(135 18.988 76.982)" d="M10.5 69.31h16.98v15.35H10.5z"/><path class="cls-2" d="M22.95 76.03l-4.91 4.91M17.27 75.69l.04-.04M19.94 73.02l-2.67 2.67"/><path class="cls-2" transform="rotate(135 77.01 19.017)" d="M68.52 11.35H85.5V26.7H68.52z"/><path class="cls-2" d="M80.97 18.07l-4.91 4.91M75.29 17.73l.04-.04M77.96 15.06l-2.67 2.67M34.86 80.85l3.72-9.73 13.9-13.91-13.9-13.9-13.91 13.9-9.73 3.72"/><path class="cls-2" transform="rotate(-45 39.185 56.65)" d="M35.73 52.04h6.9v9.22h-6.9z"/><path class="cls-2" transform="rotate(-45 64.318 31.719)" d="M59.96 27.21h8.71v9h-8.71z"/><path class="cls-2" transform="rotate(-45 64.318 31.719)" d="M54.85 21.84h18.93v19.75H54.85z"/><path class="cls-2" transform="rotate(-45 30.632 65.212)" d="M27.76 60.6h5.72v9.22h-5.72z"/></g></g></svg>