<svg xmlns="http://www.w3.org/2000/svg" viewBox="0 0 96 96"><g fill="none" stroke="currentColor" stroke-linecap="round" stroke-linejoin="round" stroke-width="2"><path d="M34.86 80.85L14.94 60.93M30.415 76.405L18.408 88.412 7.554 77.558 19.561 65.55zM22.95 76.03l-4.91 4.91m-.77-5.25l.04-.04m2.63-2.63l-2.67 2.67M88.435 18.435L76.428 30.442 65.574 19.588 77.581 7.58z"/><path d="M80.97 18.07l-4.91 4.91m-.77-5.25l.04-.04m2.63-2.63l-2.67 2.67M34.86 80.85l3.72-9.73 13.9-13.91-13.9-13.9-13.91 13.9-9.73 3.72"/><path d="M33.482 55.833l4.88-4.879 6.519 6.52L40 62.353zM58.048 31.612l6.159-6.159 6.364 6.364-6.159 6.16z"/><path d="M50.638 31.428l13.385-13.385 13.965 13.965-13.385 13.386zM25.34 63.982l4.045-4.045 6.52 6.52L31.86 70.5z"/></g></svg>