<svg xmlns="http://www.w3.org/2000/svg" viewBox="0 0 96 96"><defs><style>.cls-1{fill:#fff;}.cls-2{fill:none;stroke:#00008f;stroke-linecap:round;stroke-linejoin:round;stroke-width:2px;}</style></defs><title>Road Safety</title><g id="Layer_2" data-name="Layer 2"><g id="icons"><rect class="cls-1" width="96" height="96"/><line class="cls-2" x1="34.86" y1="80.85" x2="14.94" y2="60.93"/><rect class="cls-2" x="10.5" y="69.31" width="16.98" height="15.35" transform="translate(86.85 117.99) rotate(135)"/><line class="cls-2" x1="22.95" y1="76.03" x2="18.04" y2="80.94"/><line class="cls-2" x1="17.27" y1="75.69" x2="17.31" y2="75.65"/><line class="cls-2" x1="19.94" y1="73.02" x2="17.27" y2="75.69"/><rect class="cls-2" x="68.52" y="11.35" width="16.98" height="15.35" transform="translate(144.91 -21.99) rotate(135)"/><line class="cls-2" x1="80.97" y1="18.07" x2="76.06" y2="22.98"/><line class="cls-2" x1="75.29" y1="17.73" x2="75.33" y2="17.69"/><line class="cls-2" x1="77.96" y1="15.06" x2="75.29" y2="17.73"/><polyline class="cls-2" points="34.86 80.85 38.58 71.12 52.48 57.21 38.58 43.31 24.67 57.21 14.94 60.93"/><rect class="cls-2" x="35.73" y="52.04" width="6.9" height="9.22" transform="translate(-28.58 44.3) rotate(-45)"/><rect class="cls-2" x="59.96" y="27.21" width="8.71" height="9" transform="translate(-3.59 54.77) rotate(-45)"/><rect class="cls-2" x="54.85" y="21.84" width="18.93" height="19.75" transform="translate(-3.59 54.77) rotate(-45)"/><rect class="cls-2" x="27.76" y="60.6" width="5.72" height="9.22" transform="translate(-37.14 40.76) rotate(-45)"/></g></g></svg>