<svg xmlns="http://www.w3.org/2000/svg" viewBox="0 0 96 96"><defs><style>.cls-1{fill:#fff;}.cls-2{fill:none;stroke:#00008f;stroke-linecap:round;stroke-linejoin:round;stroke-width:2px;}</style></defs><title>Safety Belt</title><g id="Layer_2" data-name="Layer 2"><g id="icons"><rect class="cls-1" width="96" height="96"/><path class="cls-2" d="M48.13,21.53c-3.09,0-6.07-2.37-7.27-5.17-1.94,4-4.28,7.23-10.17,7.23H24.81v8.27c0,6.84,4.28,12.39,11.77,12.39S48.35,38.7,48.35,31.86V21.53Z"/><path class="cls-2" d="M48.35,32.89a12.1,12.1,0,0,0,5.36-10.33v-6.2a4.21,4.21,0,0,0-4.29-4.13A15.46,15.46,0,0,0,36,5H34.73A15,15,0,0,0,19.46,19.74v2.54c0,4,2.14,8.55,5.35,10.61"/><line class="cls-2" x1="29.09" y1="41.77" x2="29.09" y2="47.25"/><line class="cls-2" x1="44.07" y1="41.77" x2="44.07" y2="47.25"/><line class="cls-2" x1="51.87" y1="48.5" x2="44.07" y2="47.25"/><path class="cls-2" d="M44.62,73.63c1.94-.2,3.49-.44,5.4-.79l11.85-2.11a4.23,4.23,0,0,0,3.61-4.06V61.84a12.79,12.79,0,0,0-4.23-9.43"/><path class="cls-2" d="M29.09,47.25l-9.3,1.47c-7,1-12.11,6.57-12.11,13.12v4.83a4.24,4.24,0,0,0,3.61,4.06l11.85,2.11"/><path class="cls-2" d="M26.19,47.7l8.75,10a2.33,2.33,0,0,0,3.38.27"/><rect class="cls-2" x="41.52" y="50.52" width="15.22" height="14.82" transform="translate(55.36 -17.77) rotate(45)"/><rect class="cls-2" x="65.21" y="15.59" width="9.06" height="43.47" transform="translate(46.82 -38.38) rotate(45)"/><rect class="cls-2" x="17.67" y="80.73" width="9.06" height="8.28" transform="translate(66.51 9.16) rotate(45)"/><rect class="cls-2" x="46.59" y="55.46" width="5.07" height="4.94" transform="translate(55.36 -17.77) rotate(45)"/><polygon class="cls-2" points="34.16 62.68 44.93 73.44 34.43 83.94 32.18 89.04 17.91 74.77 23.67 73.17 34.16 62.68"/><rect class="cls-2" x="31.63" y="70.91" width="5.07" height="5.07" transform="translate(6.39 149.53) rotate(-135)"/></g></g></svg>