<svg xmlns="http://www.w3.org/2000/svg" viewBox="0 0 96 96"><defs><style>.cls-2{fill:none;stroke:#00008f;stroke-linecap:round;stroke-linejoin:round;stroke-width:2px}</style></defs><g id="Layer_2" data-name="Layer 2"><g id="icons"><path fill="#fff" d="M0 0h96v96H0z"/><path class="cls-2" d="M48.13 21.53c-3.09 0-6.07-2.37-7.27-5.17-1.94 4-4.28 7.23-10.17 7.23h-5.88v8.27c0 6.84 4.28 12.39 11.77 12.39s11.77-5.55 11.77-12.39V21.53z"/><path class="cls-2" d="M48.35 32.89a12.1 12.1 0 0 0 5.36-10.33v-6.2a4.21 4.21 0 0 0-4.29-4.13A15.46 15.46 0 0 0 36 5h-1.27a15 15 0 0 0-15.27 14.74v2.54c0 4 2.14 8.55 5.35 10.61M29.09 41.77v5.48M44.07 41.77v5.48M51.87 48.5l-7.8-1.25M44.62 73.63c1.94-.2 3.49-.44 5.4-.79l11.85-2.11a4.23 4.23 0 0 0 3.61-4.06v-4.83a12.79 12.79 0 0 0-4.23-9.43M29.09 47.25l-9.3 1.47c-7 1-12.11 6.57-12.11 13.12v4.83a4.24 4.24 0 0 0 3.61 4.06l11.85 2.11"/><path class="cls-2" d="M26.19 47.7l8.75 10a2.33 2.33 0 0 0 3.38.27"/><path class="cls-2" transform="rotate(45 49.13 57.94)" d="M41.52 50.52h15.22v14.82H41.52z"/><path class="cls-2" transform="rotate(45 69.739 37.327)" d="M65.21 15.59h9.06v43.47h-9.06z"/><path class="cls-2" transform="rotate(45 22.198 84.865)" d="M17.67 80.73h9.06v8.28h-9.06z"/><path class="cls-2" transform="rotate(45 49.13 57.94)" d="M46.59 55.46h5.07v4.94h-5.07z"/><path class="cls-2" d="M34.16 62.68l10.77 10.76-10.5 10.5-2.25 5.1-14.27-14.27 5.76-1.6 10.49-10.49z"/><path class="cls-2" transform="rotate(-135 34.164 73.442)" d="M31.63 70.91h5.07v5.07h-5.07z"/></g></g></svg>