<svg xmlns="http://www.w3.org/2000/svg" viewBox="0 0 96 96"><defs><style>.cls-1{fill:#fff;}.cls-2{fill:none;stroke:#00008f;stroke-linecap:round;stroke-linejoin:round;stroke-width:2px;}</style></defs><title>Sail Boat</title><g id="Layer_2" data-name="Layer 2"><g id="icons"><rect class="cls-1" width="96" height="96"/><path class="cls-2" d="M84,67H25l-2,2H18V72.1A7.76,7.76,0,0,0,25.73,80H68.78C75.29,80,84,74.66,84,68.14Z"/><path class="cls-2" d="M15,67h3a0,0,0,0,1,0,0v6.07a0,0,0,0,1,0,0H12a0,0,0,0,1,0,0V70A3,3,0,0,1,15,67Z"/><line class="cls-2" x1="14" y1="80" x2="14" y2="73.07"/><path class="cls-2" d="M41,17A110.27,110.27,0,0,1,31,35.49,169.06,169.06,0,0,1,18,53H41"/><path class="cls-2" d="M46,55H78A45.85,45.85,0,0,0,66.89,30.81C56.76,19.26,46,17,46,17"/><path class="cls-2" d="M29,67l6-7H53.53c9,0,12.71,4.2,15.47,7"/><line class="cls-2" x1="54" y1="60" x2="54" y2="67"/><path class="cls-2" d="M18.53,75h46.9c6.28,0,14.81.43,17.57-3"/><path class="cls-2" d="M41,60V16.5A2.5,2.5,0,0,1,43.5,14h0A2.5,2.5,0,0,1,46,16.5V60"/></g></g></svg>