<svg xmlns="http://www.w3.org/2000/svg" viewBox="0 0 96 96"><g fill="none" stroke="#00008f" stroke-linecap="round" stroke-linejoin="round" stroke-width="2"><path d="M84 67H25l-2 2h-5v3.1a7.76 7.76 0 0 0 7.73 7.9h43.05C75.29 80 84 74.66 84 68.14z"/><path d="M15 67h3v6.07h-6V70a3 3 0 0 1 3-3zm-1 13v-6.93M41 17a110.27 110.27 0 0 1-10 18.49A169.06 169.06 0 0 1 18 53h23m5 2h32a45.85 45.85 0 0 0-11.11-24.19C56.76 19.26 46 17 46 17M29 67l6-7h18.53c9 0 12.71 4.2 15.47 7m-15-7v7m-35.47 8h46.9c6.28 0 14.81.43 17.57-3M41 60V16.5a2.5 2.5 0 0 1 2.5-2.5 2.5 2.5 0 0 1 2.5 2.5V60"/></g></svg>