<svg xmlns="http://www.w3.org/2000/svg" viewBox="0 0 96 96"><g fill="none" stroke="currentColor" stroke-linecap="round" stroke-linejoin="round" stroke-width="2"><ellipse cx="21.79" cy="63.49" rx="8.5" ry="8.64"/><ellipse cx="21.79" cy="63.49" rx="3.86" ry="3.92"/><ellipse cx="72.91" cy="63.49" rx="8.5" ry="8.64"/><ellipse cx="72.91" cy="63.49" rx="3.86" ry="3.92"/><path d="M30.53 65.35h33.41m18.32.02h7.09A3.65 3.65 0 0 0 93 61.72v-8.47c0-1.87-.67-3.38-2.53-3.38 0-3-2-6.39-4.92-7.09L69.31 37.9S58 28 52.33 25.39 35 25 26 26.46C22 29 11.44 38.75 5.53 38.75v7.59A2.53 2.53 0 0 0 3 48.87V60.8a3 3 0 0 0 1.89 2.8l4.39 1.77h3.53M82 42.28c.85 3.37 3 7.59 8.44 7.59"/><path d="M66.78 44.12H18.72A163.5 163.5 0 0 1 30 32c8.79-1.48 16.94-2.29 20-1a158.64 158.64 0 0 1 16.78 13.12zM30 60h35M3 60h11m67 0h12M5.53 38.75v7.59h5.06c0-5.06-5.06-7.59-5.06-7.59zM41 31v29M27 35v9.12"/></g></svg>