<svg xmlns="http://www.w3.org/2000/svg" viewBox="0 0 96 96"><defs><style>.cls-1{fill:#fff;}.cls-2{fill:none;stroke:#00008f;stroke-linecap:round;stroke-linejoin:round;stroke-width:2px;}</style></defs><title>Salooncar</title><g id="Layer_2" data-name="Layer 2"><g id="icons"><rect class="cls-1" width="96" height="96"/><ellipse class="cls-2" cx="21.79" cy="63.49" rx="8.5" ry="8.64"/><ellipse class="cls-2" cx="21.79" cy="63.49" rx="3.86" ry="3.92"/><ellipse class="cls-2" cx="72.91" cy="63.49" rx="8.5" ry="8.64"/><ellipse class="cls-2" cx="72.91" cy="63.49" rx="3.86" ry="3.92"/><line class="cls-2" x1="30.53" y1="65.35" x2="63.94" y2="65.35"/><path class="cls-2" d="M82.26,65.37h7.09A3.65,3.65,0,0,0,93,61.72V53.25c0-1.87-.67-3.38-2.53-3.38h0c0-3-2-6.39-4.92-7.09L69.31,37.9S58,28,52.33,25.39,35,25,26,26.46C22,29,11.44,38.75,5.53,38.75v7.59h0A2.53,2.53,0,0,0,3,48.87V60.8a3,3,0,0,0,1.89,2.8l4.39,1.77h3.53"/><path class="cls-2" d="M82,42.28c.85,3.37,3,7.59,8.44,7.59"/><path class="cls-2" d="M66.78,44.12H18.72A163.5,163.5,0,0,1,30,32c8.79-1.48,16.94-2.29,20-1A158.64,158.64,0,0,1,66.78,44.12Z"/><line class="cls-2" x1="30" y1="60" x2="65" y2="60"/><line class="cls-2" x1="3" y1="60" x2="14" y2="60"/><line class="cls-2" x1="81" y1="60" x2="93" y2="60"/><path class="cls-2" d="M5.53,38.75v7.59h5.06C10.59,41.28,5.53,38.75,5.53,38.75Z"/><line class="cls-2" x1="41" y1="31" x2="41" y2="60"/><line class="cls-2" x1="27" y1="35" x2="27" y2="44.12"/></g></g></svg>