<svg xmlns="http://www.w3.org/2000/svg" viewBox="0 0 96 96"><defs><style>.cls-1{fill:#fff;}.cls-2{fill:none;stroke:#00008f;stroke-linecap:round;stroke-linejoin:round;stroke-width:2px;}</style></defs><title>Security Cam</title><g id="Layer_2" data-name="Layer 2"><g id="icons"><rect class="cls-1" width="96" height="96"/><path class="cls-2" d="M61.78,49.88,23.62,43.67a6,6,0,0,1-4.95-6.84L20.62,25a6,6,0,0,1,6.89-4.92L75,27.81l-11.13,21A2,2,0,0,1,61.78,49.88Z"/><path class="cls-2" d="M49.36,47.86l-.33,2a4,4,0,0,1-4.6,3.29l-7.91-1.29a4,4,0,0,1-3.31-4.58l.32-2"/><line class="cls-2" x1="40.39" y1="22.17" x2="38.77" y2="32.01"/><line class="cls-2" x1="46.32" y1="23.14" x2="45.35" y2="29.04"/><line class="cls-2" x1="24.61" y1="37.78" x2="26.59" y2="38.1"/><line class="cls-2" x1="31.53" y1="38.9" x2="33.51" y2="39.23"/><path class="cls-2" d="M73,31.53l5.28.86A2,2,0,0,1,80,34.67L78.35,44.5a2,2,0,0,1-2.3,1.65l-9.89-1.61"/><path class="cls-2" d="M15,58.13h.57A9.43,9.43,0,0,1,25,67.57v0A9.43,9.43,0,0,1,15.57,77H15a0,0,0,0,1,0,0V58.13A0,0,0,0,1,15,58.13Z"/><path class="cls-2" d="M24.67,70.05h13.6l.25,0,.25,0,.19,0,.28-.1.12-.07a1.46,1.46,0,0,0,.3-.17l.09-.07a2.1,2.1,0,0,0,.27-.24l.07-.08a1.6,1.6,0,0,0,.23-.3.56.56,0,0,0,0-.08,2.31,2.31,0,0,0,.18-.35s0-.06,0-.09a1.6,1.6,0,0,0,.11-.39v0l2.31-15-4.94-.8-1.94,13H24.67"/></g></g></svg>