<svg xmlns="http://www.w3.org/2000/svg" viewBox="0 0 96 96"><defs><style>.cls-2{fill:none;stroke:#00008f;stroke-linecap:round;stroke-linejoin:round;stroke-width:2px}</style></defs><g id="Layer_2" data-name="Layer 2"><g id="icons"><path fill="#fff" d="M0 0h96v96H0z"/><path class="cls-2" d="M61.78 49.88l-38.16-6.21a6 6 0 0 1-4.95-6.84L20.62 25a6 6 0 0 1 6.89-4.92L75 27.81l-11.13 21a2 2 0 0 1-2.09 1.07z"/><path class="cls-2" d="M49.36 47.86l-.33 2a4 4 0 0 1-4.6 3.29l-7.91-1.29a4 4 0 0 1-3.31-4.58l.32-2M40.39 22.17l-1.62 9.84M46.32 23.14l-.97 5.9M24.61 37.78l1.98.32M31.53 38.9l1.98.33M73 31.53l5.28.86A2 2 0 0 1 80 34.67l-1.65 9.83a2 2 0 0 1-2.3 1.65l-9.89-1.61M15 58.13h.57A9.43 9.43 0 0 1 25 67.57 9.43 9.43 0 0 1 15.57 77H15V58.13z"/><path class="cls-2" d="M24.67 70.05h14.29l.28-.1.12-.07a1.46 1.46 0 0 0 .3-.17l.09-.07a2.1 2.1 0 0 0 .27-.24l.07-.08a1.6 1.6 0 0 0 .23-.3.56.56 0 0 0 0-.08 2.31 2.31 0 0 0 .18-.35v-.09a1.6 1.6 0 0 0 .11-.39l2.31-15-4.94-.8-1.94 13H24.67"/></g></g></svg>