<svg xmlns="http://www.w3.org/2000/svg" viewBox="0 0 96 96"><g fill="none" stroke="currentColor" stroke-linecap="round" stroke-linejoin="round" stroke-width="2"><path d="M90.44 25.82a3.73 3.73 0 0 0-3-1.79L27.7 21.29l-2.84-6.24h-7.74L29.4 58.33l-2.81 9.78h7.84l2-6.48 37.8-1.79a3.82 3.82 0 0 0 3.21-2.17l13.19-28.35a3.6 3.6 0 0 0-.19-3.5z"/><path d="M37.45 32.64a2.48 2.48 0 0 0-2.58-2.47 2.58 2.58 0 0 0-2.36 2.63v14.49a2.58 2.58 0 0 0 2.36 2.63 2.48 2.48 0 0 0 2.58-2.47zM25.11 15.05a2.47 2.47 0 0 0 2.47-2.57A2.58 2.58 0 0 0 25 10.12H7.63A2.58 2.58 0 0 0 5 12.48a2.47 2.47 0 0 0 2.47 2.57zM76.08 73h3.38a2.46 2.46 0 0 0 2.46-2.57 2.56 2.56 0 0 0-2.62-2.36H22.64a2.56 2.56 0 0 0-2.64 2.4A2.46 2.46 0 0 0 22.48 73h2.13m8.83.04h33.81m-19.93-40.4a2.47 2.47 0 0 0-2.58-2.47 2.58 2.58 0 0 0-2.36 2.63v14.49a2.58 2.58 0 0 0 2.36 2.63 2.47 2.47 0 0 0 2.58-2.47zm9.87 0a2.47 2.47 0 0 0-2.57-2.47 2.58 2.58 0 0 0-2.36 2.63v14.49a2.58 2.58 0 0 0 2.36 2.63 2.47 2.47 0 0 0 2.57-2.47zm9.88 0a2.48 2.48 0 0 0-2.58-2.47 2.58 2.58 0 0 0-2.36 2.63v14.49a2.58 2.58 0 0 0 2.36 2.63 2.48 2.48 0 0 0 2.58-2.47zm9.5 0A2.47 2.47 0 0 0 74 30.17a2.58 2.58 0 0 0-2.36 2.63v14.49A2.58 2.58 0 0 0 74 49.92a2.47 2.47 0 0 0 2.57-2.47z"/><circle cx="29.12" cy="78.8" r="7.09"/><circle cx="71.64" cy="78.8" r="7.09"/></g></svg>