<svg xmlns="http://www.w3.org/2000/svg" viewBox="0 0 96 96"><defs><style>.cls-1{fill:#fff;}.cls-2{fill:none;stroke:#00008f;stroke-linecap:round;stroke-linejoin:round;stroke-width:2px;}</style></defs><title>Shopping Trolley</title><g id="Layer_2" data-name="Layer 2"><g id="icons"><rect class="cls-1" width="96" height="96"/><path class="cls-2" d="M90.44,25.82a3.73,3.73,0,0,0-3-1.79L27.7,21.29l-2.84-6.24H17.12L29.4,58.33l-2.81,9.78h7.84l2-6.48,37.8-1.79a3.82,3.82,0,0,0,3.21-2.17L90.63,29.32A3.6,3.6,0,0,0,90.44,25.82Z"/><path class="cls-2" d="M37.45,32.64a2.48,2.48,0,0,0-2.58-2.47,2.58,2.58,0,0,0-2.36,2.63V47.29a2.58,2.58,0,0,0,2.36,2.63,2.48,2.48,0,0,0,2.58-2.47Z"/><path class="cls-2" d="M25.11,15.05a2.47,2.47,0,0,0,2.47-2.57A2.58,2.58,0,0,0,25,10.12H7.63A2.58,2.58,0,0,0,5,12.48a2.47,2.47,0,0,0,2.47,2.57Z"/><path class="cls-2" d="M76.08,73h3.38a2.46,2.46,0,0,0,2.46-2.57,2.56,2.56,0,0,0-2.62-2.36H22.64A2.56,2.56,0,0,0,20,70.47,2.46,2.46,0,0,0,22.48,73h2.13"/><line class="cls-2" x1="33.44" y1="73.04" x2="67.25" y2="73.04"/><path class="cls-2" d="M47.32,32.64a2.47,2.47,0,0,0-2.58-2.47,2.58,2.58,0,0,0-2.36,2.63V47.29a2.58,2.58,0,0,0,2.36,2.63,2.47,2.47,0,0,0,2.58-2.47Z"/><path class="cls-2" d="M57.19,32.64a2.47,2.47,0,0,0-2.57-2.47,2.58,2.58,0,0,0-2.36,2.63V47.29a2.58,2.58,0,0,0,2.36,2.63,2.47,2.47,0,0,0,2.57-2.47Z"/><path class="cls-2" d="M67.07,32.64a2.48,2.48,0,0,0-2.58-2.47,2.58,2.58,0,0,0-2.36,2.63V47.29a2.58,2.58,0,0,0,2.36,2.63,2.48,2.48,0,0,0,2.58-2.47Z"/><path class="cls-2" d="M76.57,32.64A2.47,2.47,0,0,0,74,30.17a2.58,2.58,0,0,0-2.36,2.63V47.29A2.58,2.58,0,0,0,74,49.92a2.47,2.47,0,0,0,2.57-2.47Z"/><circle class="cls-2" cx="29.12" cy="78.8" r="7.09"/><circle class="cls-2" cx="71.64" cy="78.8" r="7.09"/></g></g></svg>