<svg xmlns="http://www.w3.org/2000/svg" viewBox="0 0 55.53 88"><defs><style>.cls-1{fill:none;}.cls-1,.cls-2{stroke:#00008f;stroke-linecap:round;stroke-linejoin:round;stroke-width:2px;}.cls-2{fill:#00008f;}</style></defs><title>Ski</title><g id="Layer_2" data-name="Layer 2"><g id="icons"><path class="cls-1" d="M17.94,31.69c.72-.21,1.93-1.48,1.17-8.67-.13-1.32,1.26-2.05.77-2.08a3.7,3.7,0,0,0-2.31.34c-1.5.54-3.28.24-3.59,3.41,1.39,4.47-1.32,11.06.16,7.5,1.34-3.21.61-7.5.61-7.5-.61-4,2.64-2.53,2.9-1.55l-.16,7.16s.56.47-1.11,1.35Z"/><line class="cls-1" x1="17.02" y1="84.78" x2="18.44" y2="31.71"/><path class="cls-2" d="M5.69,27.06c.69-.29,1.75-1.68.23-8.75-.28-1.29,1-2.17.54-2.14a3.7,3.7,0,0,0-2.27.58c-1.42.7-3.23.59-3.19,3.78C2.86,24.82.87,31.67,2,28c1-3.33-.21-7.52-.21-7.52-1-3.86,2.35-2.79,2.72-1.85l.61,7.14s.6.4-1,1.46Z"/><line class="cls-1" x1="10.49" y1="79.94" x2="6.18" y2="27.02"/><path class="cls-1" d="M48,1c-1.57-.1-3.15,2.09-4.46,4.22-2,3.22-1.93,6.39-2.09,10.36-.08,1.89-.91,18.26-3,34.56C36.2,68.88,36.17,68.89,33.41,86L41,87c1.6-17.3,1.57-17.31,4-36,2.09-16.3,5.36-32.35,5.76-34.21.83-3.88,1.67-6.94.55-10.55C50.58,3.81,49.59,1.29,48,1Z"/><path class="cls-1" d="M38.27,51c-4.16-15.64-9.37-30.71-10-32.47-1.34-3.75-2.56-6.67-1.93-10.39.42-2.47,1.06-5.09,2.56-5.58h0c1.55-.31,3.4,1.66,5,3.6,2.38,2.93,2.75,6.08,3.43,10,.19,1.11,1.31,7.24,3,15.35"/><path class="cls-1" d="M45,51c4.62,17.67,4.61,17.5,9.53,33.95l-7.43,2C45,77.54,44,73.34,42.81,68.41"/></g></g></svg>