<svg xmlns="http://www.w3.org/2000/svg" viewBox="0 0 96 96"><defs><style>.cls-2{fill:none;stroke:#00008f;stroke-linecap:round;stroke-linejoin:round;stroke-width:2px}</style></defs><g id="Layer_2" ><g id="icons"><path fill="currentColor" d="M0 0h96v96H0z"/><path class="cls-2" d="M41.41 75.23l.06 7.41a3.21 3.21 0 0 1-1.3 2.64 3.3 3.3 0 0 1-5.3-2.62V71.52M16.12 60.78l40.57 23.14a5.73 5.73 0 0 0 8.15-2.81l15.5-37.85a5.74 5.74 0 0 0-2.45-7.15L37.25 12.72a5.74 5.74 0 0 0-8.18 2.83L13.65 53.64a5.74 5.74 0 0 0 2.47 7.14zM16 47.84L66.57 76.9M19.73 38.62l50.6 29.09M23.44 29.44l50.65 29.1M27.56 19.27l50.55 29.05m-4.5-14.68L53.87 82.31m11.27-53.54l-19.76 48.7M57 24.11L37.27 72.85M48.4 19.14L28.62 67.91M40.15 14.4L20.36 63.2"/></g></g></svg>