<svg xmlns="http://www.w3.org/2000/svg" viewBox="0 0 96 96"><defs><style>.cls-1{fill:#fff;}.cls-2{fill:none;stroke:#00008f;stroke-linecap:round;stroke-linejoin:round;stroke-width:2px;}</style></defs><title>Solar Panel</title><g id="Layer_2" data-name="Layer 2"><g id="icons"><rect class="cls-1" width="96" height="96"/><path class="cls-2" d="M41.41,75.23l.06,7.41a3.21,3.21,0,0,1-1.3,2.64h0a3.3,3.3,0,0,1-5.3-2.62l0-11.14"/><path class="cls-2" d="M16.12,60.78,56.69,83.92a5.73,5.73,0,0,0,8.15-2.81l15.5-37.85a5.74,5.74,0,0,0-2.45-7.15L37.25,12.72a5.74,5.74,0,0,0-8.18,2.83L13.65,53.64A5.74,5.74,0,0,0,16.12,60.78Z"/><path class="cls-2" d="M16,47.84,66.57,76.9M19.73,38.62l50.6,29.09M23.44,29.44l50.65,29.1M27.56,19.27,78.11,48.32m-4.5-14.68L53.87,82.31M65.14,28.77,45.38,77.47M57,24.11,37.27,72.85M48.4,19.14,28.62,67.91M40.15,14.4,20.36,63.2"/></g></g></svg>