<svg xmlns="http://www.w3.org/2000/svg" viewBox="0 0 96 96"><defs><style>.cls-1{fill:#fff;}.cls-2{fill:none;stroke:#00008f;stroke-linecap:round;stroke-linejoin:round;stroke-width:2px;}</style></defs><title>Store</title><g id="Layer_2" data-name="Layer 2"><g id="icons"><rect class="cls-1" width="96" height="96"/><path class="cls-2" d="M82.79,11H13.21L9,26.46v11a6.45,6.45,0,0,0,6.42,6.62A6.87,6.87,0,0,0,22,37.51a6.63,6.63,0,0,0,13.26,0,6.63,6.63,0,0,0,13.25,0,6.63,6.63,0,0,0,13.26,0,6.63,6.63,0,0,0,13.25,0,6.62,6.62,0,0,0,6.63,6.62A6.36,6.36,0,0,0,88,37.51v-11Z"/><line class="cls-2" x1="82" y1="80" x2="82" y2="45"/><line class="cls-2" x1="13" y1="44" x2="13" y2="80"/><polyline class="cls-2" points="41 80 41 50 20 50 20 80"/><rect class="cls-2" x="51" y="50" width="24" height="13"/><rect class="cls-2" x="8" y="80" width="79" height="5"/><line class="cls-2" x1="29" y1="65" x2="25" y2="65"/></g></g></svg>