<svg xmlns="http://www.w3.org/2000/svg" viewBox="0 0 96 96"><defs><style>.cls-2{fill:none;stroke:#00008f;stroke-linecap:round;stroke-linejoin:round;stroke-width:2px}</style></defs><g id="Layer_2" data-name="Layer 2"><g id="icons"><path fill="#fff" d="M0 0h96v96H0z"/><path class="cls-2" d="M82.79 11H13.21L9 26.46v11a6.45 6.45 0 0 0 6.42 6.62A6.87 6.87 0 0 0 22 37.51a6.63 6.63 0 0 0 13.26 0 6.63 6.63 0 0 0 13.25 0 6.63 6.63 0 0 0 13.26 0 6.63 6.63 0 0 0 13.25 0 6.62 6.62 0 0 0 6.63 6.62A6.36 6.36 0 0 0 88 37.51v-11zM82 80V45M13 44v36M41 80V50H20v30M51 50h24v13H51zM8 80h79v5H8zM29 65h-4"/></g></g></svg>