<svg xmlns="http://www.w3.org/2000/svg" viewBox="0 0 96 96"><defs><style>.cls-2{fill:none;stroke:#00008f;stroke-linecap:round;stroke-linejoin:round;stroke-width:2px}</style></defs><g id="Layer_2" ><g id="icons"><path class="cls-2" d="M20 51v24a4 4 0 0 0 4 4h48a4 4 0 0 0 4-4V51M63 22l-2-2.5c-1.62-1.92-2.6-2.5-5.39-2.5H40.39c-2.79 0-3.77.58-5.39 2.5L33 22M33 22l-4 5M63 22l4 5M54 33H42M69 73H27M33 22h30M55.86 51H40"/><path class="cls-2" d="M28 51h-7a4 4 0 0 1-4-4V31a4 4 0 0 1 4-4h54a4 4 0 0 1 4 4v16a4 4 0 0 1-4 4h-6.14"/><rect class="cls-2" x="30" y="45" width="8" height="12" rx="2" transform="rotate(-90 34 51)"/><rect class="cls-2" x="58.02" y="45" width="8" height="12" rx="2" transform="rotate(-90 62.02 51)"/></g></g></svg>