<svg xmlns="http://www.w3.org/2000/svg" viewBox="0 0 96 96"><g fill="none" stroke="currentColor" stroke-linecap="round" stroke-linejoin="round" stroke-width="2"><path d="M20 51v24a4 4 0 0 0 4 4h48a4 4 0 0 0 4-4V51M63 22l-2-2.5c-1.62-1.92-2.6-2.5-5.39-2.5H40.39c-2.79 0-3.77.58-5.39 2.5L33 22m0 0l-4 5m34-5l4 5m-13 6H42m27 40H27m6-51h30m-7.14 29H40"/><path d="M28 51h-7a4 4 0 0 1-4-4V31a4 4 0 0 1 4-4h54a4 4 0 0 1 4 4v16a4 4 0 0 1-4 4h-6.14"/><rect x="30" y="45" width="8" height="12" rx="2" transform="rotate(-90 34 51)"/><rect x="58.02" y="45" width="8" height="12" rx="2" transform="rotate(-90 62.02 51)"/></g></svg>