<svg xmlns="http://www.w3.org/2000/svg" viewBox="0 0 96 96"><defs><style>.cls-1{fill:#fff;}.cls-2{fill:none;stroke:#00008f;stroke-linecap:round;stroke-linejoin:round;stroke-width:2px;}</style></defs><title>Suitcase_1</title><g id="Layer_2" data-name="Layer 2"><g id="icons"><rect class="cls-1" width="96" height="96"/><path class="cls-2" d="M20,51V75a4,4,0,0,0,4,4H72a4,4,0,0,0,4-4V51"/><path class="cls-2" d="M63,22l-2-2.5c-1.62-1.92-2.6-2.5-5.39-2.5H40.39c-2.79,0-3.77.58-5.39,2.5L33,22"/><line class="cls-2" x1="33" y1="22" x2="29" y2="27"/><line class="cls-2" x1="63" y1="22" x2="67" y2="27"/><line class="cls-2" x1="54" y1="33" x2="42" y2="33"/><line class="cls-2" x1="69" y1="73" x2="27" y2="73"/><line class="cls-2" x1="33" y1="22" x2="63" y2="22"/><line class="cls-2" x1="55.86" y1="51" x2="40" y2="51"/><path class="cls-2" d="M28,51H21a4,4,0,0,1-4-4V31a4,4,0,0,1,4-4H75a4,4,0,0,1,4,4V47a4,4,0,0,1-4,4H68.86"/><rect class="cls-2" x="30" y="45" width="8" height="12" rx="2" transform="translate(-17 85) rotate(-90)"/><rect class="cls-2" x="58.02" y="45" width="8" height="12" rx="2" transform="translate(11.02 113.02) rotate(-90)"/></g></g></svg>