<svg xmlns="http://www.w3.org/2000/svg" viewBox="0 0 96 96"><defs><style>.cls-1{fill:#fff;}.cls-2{fill:none;stroke:#00008f;stroke-linecap:round;stroke-linejoin:round;stroke-width:2px;}</style></defs><title>Sun</title><g id="Layer_2" data-name="Layer 2"><g id="icons"><rect class="cls-1" width="96" height="96"/><circle class="cls-2" cx="48" cy="48" r="20.31"/><line class="cls-2" x1="48" y1="15.5" x2="48" y2="22.61"/><line class="cls-2" x1="48" y1="73.39" x2="48" y2="80.5"/><line class="cls-2" x1="34.26" y1="18.54" x2="37.27" y2="24.99"/><line class="cls-2" x1="58.73" y1="71.01" x2="61.74" y2="77.46"/><line class="cls-2" x1="23.1" y1="27.11" x2="28.55" y2="31.68"/><line class="cls-2" x1="67.45" y1="64.32" x2="72.9" y2="68.89"/><line class="cls-2" x1="16.61" y1="39.59" x2="23.47" y2="41.43"/><line class="cls-2" x1="72.53" y1="54.57" x2="79.39" y2="56.41"/><line class="cls-2" x1="15.99" y1="53.64" x2="23" y2="52.41"/><line class="cls-2" x1="73" y1="43.59" x2="80.01" y2="42.36"/><line class="cls-2" x1="21.38" y1="66.64" x2="27.2" y2="62.56"/><line class="cls-2" x1="68.8" y1="33.44" x2="74.62" y2="29.36"/><line class="cls-2" x1="31.75" y1="76.15" x2="35.3" y2="69.99"/><line class="cls-2" x1="60.7" y1="26.01" x2="64.25" y2="19.85"/></g></g></svg>