<svg xmlns="http://www.w3.org/2000/svg" viewBox="0 0 96 96"><g fill="none" stroke="currentColor" stroke-linecap="round" stroke-linejoin="round" stroke-width="2"><ellipse cx="72.5" cy="66.96" rx="8.57" ry="8.7"/><ellipse cx="72.5" cy="66.96" rx="8.57" ry="8.7"/><ellipse cx="72.5" cy="66.96" rx="3.89" ry="3.95"/><ellipse cx="22.87" cy="66.96" rx="8.57" ry="8.7"/><ellipse cx="22.87" cy="66.96" rx="3.89" ry="3.95"/><path d="M31.69 66.31h31.77m17.86 0H90a3 3 0 0 0 3-3 3 3 0 0 0-3-3h-5.74a13 13 0 0 0-23.52 0H34.63a13 13 0 0 0-23.52 0H7.6a3 3 0 0 0-3 3 3 3 0 0 0 3 3h6.23"/><path d="M6.33 60.35v-11.5a4.25 4.25 0 0 1 4.25-4.25v-6.8c4.42-7.8 7.5-11.06 7.5-11.06s5.92-3.4 21.81-3.4C53 23.34 64 33 69.08 36.34A25.11 25.11 0 0 0 72.63 38l11.09 3.2c6.76 1.85 7.5 7.65 7.5 7.65v11.5"/><path d="M10.58 37.57a3.19 3.19 0 0 0-3.18-3.18H6.1a3.19 3.19 0 0 0-3.18 3.18v11.51a3.18 3.18 0 0 0 3.18 3.17h.23m84.89-2.55h-6.65v-3a2.92 2.92 0 0 1 2.87-3h.88M22.63 31a127.65 127.65 0 0 1 17.86-1.55c13.51 0 25.89 12.71 26 12.91H27.58C21.63 42.35 22.63 31 22.63 31zm20.07-.71v30.06M29.99 30.29l-5.96 9.36"/></g></svg>