<svg xmlns="http://www.w3.org/2000/svg" viewBox="0 0 96 96"><defs><style>.cls-1{fill:#fff;}.cls-2{fill:none;stroke:#00008f;stroke-linecap:round;stroke-linejoin:round;stroke-width:2px;}</style></defs><title>SUV</title><g id="Layer_2" data-name="Layer 2"><g id="icons"><rect class="cls-1" width="96" height="96"/><ellipse class="cls-2" cx="72.5" cy="66.96" rx="8.57" ry="8.7"/><ellipse class="cls-2" cx="72.5" cy="66.96" rx="8.57" ry="8.7"/><ellipse class="cls-2" cx="72.5" cy="66.96" rx="3.89" ry="3.95"/><ellipse class="cls-2" cx="22.87" cy="66.96" rx="8.57" ry="8.7"/><ellipse class="cls-2" cx="22.87" cy="66.96" rx="3.89" ry="3.95"/><line class="cls-2" x1="31.69" y1="66.31" x2="63.46" y2="66.31"/><path class="cls-2" d="M81.32,66.31H90a3,3,0,0,0,3-3h0a3,3,0,0,0-3-3H84.26a13,13,0,0,0-23.52,0H34.63a13,13,0,0,0-23.52,0H7.6a3,3,0,0,0-3,3h0a3,3,0,0,0,3,3h6.23"/><path class="cls-2" d="M6.33,60.35V48.85a4.25,4.25,0,0,1,4.25-4.25h0V37.8c4.42-7.8,7.5-11.06,7.5-11.06s5.92-3.4,21.81-3.4C53,23.34,64,33,69.08,36.34A25.11,25.11,0,0,0,72.63,38L83.72,41.2c6.76,1.85,7.5,7.65,7.5,7.65v11.5"/><path class="cls-2" d="M10.58,37.57A3.19,3.19,0,0,0,7.4,34.39H6.1a3.19,3.19,0,0,0-3.18,3.18V49.08A3.18,3.18,0,0,0,6.1,52.25h.23"/><path class="cls-2" d="M91.22,49.7H84.57v-3h0a2.92,2.92,0,0,1,2.87-3h.88"/><path class="cls-2" d="M22.63,31a127.65,127.65,0,0,1,17.86-1.55c13.51,0,25.89,12.71,26,12.91H27.58C21.63,42.35,22.63,31,22.63,31Z"/><line class="cls-2" x1="42.7" y1="30.29" x2="42.7" y2="60.35"/><line class="cls-2" x1="29.99" y1="30.29" x2="24.03" y2="39.65"/></g></g></svg>