<svg xmlns="http://www.w3.org/2000/svg" viewBox="0 0 96 96"><g fill="none" stroke="#00008f" stroke-miterlimit="10" stroke-width="2"><ellipse cx="40" cy="49.96" rx="4.63" ry="6.75" transform="rotate(-.36 39.634 49.463)"/><ellipse cx="40" cy="49.96" rx="11.42" ry="16.66" transform="translate(-.31 .25)"/><ellipse cx="40" cy="49.96" rx="18.21" ry="26.56" transform="rotate(-.36 39.634 49.463)"/><ellipse cx="40" cy="49.96" rx="25" ry="36.46" transform="rotate(-.36 39.634 49.463)"/><path d="M40.63 86.42l-10.38.08C16.44 86.6 5.14 70.36 5 50.23s10.94-36.55 24.75-36.65l10.38-.08"/><path stroke-linecap="round" d="M91 22.74L39.82 50.05"/><path d="M80.6 35.1c-2.65 1.42-5.36.6-7.24-2.93s-1.06-6.24 1.58-7.65l8.82-4.71 5.66 10.58z"/></g></svg>