<svg xmlns="http://www.w3.org/2000/svg" viewBox="0 0 96 96"><defs><style>.cls-1{fill:#fff;}.cls-2,.cls-3{fill:none;stroke:#00008f;stroke-miterlimit:10;stroke-width:2px;}.cls-3{stroke-linecap:round;}</style></defs><title>Target</title><g id="Layer_2" data-name="Layer 2"><g id="icons"><rect class="cls-1" width="96" height="96"/><ellipse class="cls-2" cx="40" cy="49.96" rx="4.63" ry="6.75" transform="translate(-0.31 0.25) rotate(-0.36)"/><ellipse class="cls-2" cx="40" cy="49.96" rx="11.42" ry="16.66" transform="matrix(1, -0.01, 0.01, 1, -0.31, 0.25)"/><ellipse class="cls-2" cx="40" cy="49.96" rx="18.21" ry="26.56" transform="translate(-0.31 0.25) rotate(-0.36)"/><ellipse class="cls-2" cx="40" cy="49.96" rx="25" ry="36.46" transform="translate(-0.31 0.25) rotate(-0.36)"/><path class="cls-2" d="M40.63,86.42l-10.38.08C16.44,86.6,5.14,70.36,5,50.23S15.94,13.68,29.75,13.58l10.38-.08"/><line class="cls-3" x1="91" y1="22.74" x2="39.82" y2="50.05"/><path class="cls-2" d="M80.6,35.1c-2.65,1.42-5.36.6-7.24-2.93s-1.06-6.24,1.58-7.65l8.82-4.71,5.66,10.58Z"/></g></g></svg>