<svg xmlns="http://www.w3.org/2000/svg" viewBox="0 0 96 96"><defs><style>.cls-2{fill:none;stroke:#00008f;stroke-linecap:round;stroke-linejoin:round;stroke-width:2px}</style></defs><g id="Layer_2" ><g id="icons"><path fill="currentColor" d="M0 0h96v96H0z"/><path class="cls-2" d="M30 66h31M28.33 61h34.32M87 60.82V50.68A4.78 4.78 0 0 0 83.11 46l-13.38-3.48-8.68-7.87C56 30 52.45 29 48 29H27.93c-2.61 0-5.08 2.16-6.77 4.16L12.5 43.45a3.69 3.69 0 0 1-1.06.81A2.79 2.79 0 0 0 10 46.7v14.12"/><circle class="cls-2" cx="22" cy="66" r="8"/><circle class="cls-2" cx="22" cy="66" r="3"/><circle class="cls-2" cx="69" cy="66" r="8"/><circle class="cls-2" cx="69" cy="66" r="3"/><path class="cls-2" d="M77 66h9.5a2.5 2.5 0 0 0 2.5-2.5 2.5 2.5 0 0 0-2.5-2.5H75.25M14 66h-3.5A2.5 2.5 0 0 1 8 63.5a2.5 2.5 0 0 1 2.5-2.5h5.26M87 53a7.23 7.23 0 0 1-5-2.29A17.4 17.4 0 0 1 79 45M22 44l7.51-8.34A5 5 0 0 1 33.23 34H48a13 13 0 0 1 8.75 3.38L64 44M64 44H22M42 44V34M35 51h-3M43 51h-3M51 51h-3M59 51h-3M39 55h-3M47 55h-3M55 55h-3M10 51c5.6 0 7-7 1.87-7M33 29l3-6h12l3 6"/></g></g></svg>