<svg xmlns="http://www.w3.org/2000/svg" viewBox="0 0 96 96"><defs><style>.cls-2{fill:none;stroke:#00008f;stroke-linecap:round;stroke-linejoin:round;stroke-width:2px}</style></defs><g id="Layer_2" data-name="Layer 2"><path fill="currentColor" d="M0 0h96v96H0z" id="icons"/><g id="stroke_blue_2px" data-name="stroke blue 2px"><path class="cls-2" d="M22.42 77.82l1.06-31.98M29.88 45.84l1.07 31.98M65.05 77.82l1.07-31.98M72.52 45.84l1.06 31.98M17.09 83.15v-5.33h61.82v5.33"/><circle class="cls-2" cx="48" cy="31.98" r="3.2"/><path class="cls-2" d="M12.83 83.15h70.35v5.33H12.83zM17.09 40.51v5.33h61.82v-5.33M48 22.39L17.09 40.51h61.82L48 22.39zM48 22.29v-6.58M48 8.22s2.07-1.56 6 0 4.67-.35 4.67-.35V15"/><path class="cls-2" d="M58.72 15s-2.08 1.55-6 0-4.67.34-4.67.34V8.28M37.7 77.82V59.15h20.6v18.67M48 59.15v17.49"/></g></g></svg>