<svg xmlns="http://www.w3.org/2000/svg" viewBox="0 0 96 96"><defs><style>.cls-1{fill:#fff;}.cls-2{fill:none;stroke:#00008f;stroke-linecap:round;stroke-linejoin:round;stroke-width:2px;}</style></defs><title>Town Hall</title><g id="Layer_2" data-name="Layer 2"><g id="icons"><rect class="cls-1" width="96" height="96"/></g><g id="stroke_blue_2px" data-name="stroke blue 2px"><line class="cls-2" x1="22.42" y1="77.82" x2="23.48" y2="45.84"/><line class="cls-2" x1="29.88" y1="45.84" x2="30.95" y2="77.82"/><line class="cls-2" x1="65.05" y1="77.82" x2="66.12" y2="45.84"/><line class="cls-2" x1="72.52" y1="45.84" x2="73.58" y2="77.82"/><polyline class="cls-2" points="17.09 83.15 17.09 77.82 78.91 77.82 78.91 83.15"/><circle class="cls-2" cx="48" cy="31.98" r="3.2"/><rect class="cls-2" x="12.83" y="83.15" width="70.35" height="5.33"/><polyline class="cls-2" points="17.09 40.51 17.09 45.84 78.91 45.84 78.91 40.51"/><polygon class="cls-2" points="48 22.39 17.09 40.51 48 40.51 78.91 40.51 48 22.39"/><line class="cls-2" x1="48" y1="22.29" x2="48" y2="15.71"/><path class="cls-2" d="M48,8.22s2.07-1.56,6,0,4.67-.35,4.67-.35V15"/><path class="cls-2" d="M58.72,15s-2.08,1.55-6,0-4.67.34-4.67.34V8.28"/><polyline class="cls-2" points="37.7 77.82 37.7 59.15 58.3 59.15 58.3 77.82"/><line class="cls-2" x1="48" y1="59.15" x2="48" y2="76.64"/></g></g></svg>