<svg xmlns="http://www.w3.org/2000/svg" viewBox="0 0 96 96"><g data-name="stroke blue 2px" fill="none" stroke="currentColor" stroke-linecap="round" stroke-linejoin="round" stroke-width="2"><path d="M22.42 77.82l1.06-31.98m6.4 0l1.07 31.98m34.1 0l1.07-31.98m6.4 0l1.06 31.98m-56.49 5.33v-5.33h61.82v5.33"/><circle cx="48" cy="31.98" r="3.2"/><path d="M12.83 83.15h70.35v5.33H12.83zm4.26-42.64v5.33h61.82v-5.33M48 22.39L17.09 40.51h61.82L48 22.39zm0-.1v-6.58m0-7.49s2.07-1.56 6 0 4.67-.35 4.67-.35V15"/><path d="M58.72 15s-2.08 1.55-6 0-4.67.34-4.67.34V8.28M37.7 77.82V59.15h20.6v18.67M48 59.15v17.49"/></g></svg>