<svg xmlns="http://www.w3.org/2000/svg" viewBox="0 0 96 96"><defs><style>.cls-2,.cls-3{fill:none;stroke:#00008f;stroke-linejoin:round;stroke-width:2px}.cls-3{stroke-linecap:round}</style></defs><g id="Layer_2" ><g id="icons"><path fill="currentColor" d="M0 0h96v96H0z"/><path class="cls-2" d="M7.45 65.8A17.35 17.35 0 1 0 24.8 48.45 17.38 17.38 0 0 0 7.45 65.8zm7.59 0a9.76 9.76 0 1 1 9.76 9.76A9.76 9.76 0 0 1 15 65.8z"/><path class="cls-2" d="M6 49.7l3.32 2.39a19 19 0 0 1 14-7.79l1-.1c12-.73 21.06 9.06 21.61 21.19h11.59c1.87-5.72 7.16-9.31 13.5-9.31s11.74 3.59 13.5 9.31h2.6c4.88 0 4.88-.73 4.88-1.87l-.21-17.45c-.31-3.43-1.24-5.92-5.19-5.92H76.52v-9.57a1.56 1.56 0 0 0-3.11 0v9.57H56.89L54.3 15h.52a2.08 2.08 0 0 0 0-4.15h-32.1a2.08 2.08 0 1 0 0 4.15h1.14l-2.59 25.25A22.75 22.75 0 0 0 6 49.7z"/><path class="cls-3" d="M45.85 69H57M83.07 48.37h8.52M83.07 51.66h8.52M83.07 55h8.52"/><path class="cls-2" d="M60 72a11.14 11.14 0 1 0 11.12-11.13A11 11 0 0 0 60 72zm4.84 0a6.3 6.3 0 1 1 6.29 6.29 6.28 6.28 0 0 1-6.3-6.29z"/><circle class="cls-2" cx="71.12" cy="72.01" r="2.23"/><circle class="cls-2" cx="24.8" cy="65.8" r="3.22"/><path class="cls-2" d="M27.17 39.79L29.61 15h20.53l2.6 25.66v11.22h-6.49c-4.33-7.47-10.12-11.42-19.08-12.09z"/><path class="cls-2" d="M52.74 43.47l-6.54-5.92c-1.67 1.35-3.33 1.87-4 1.14-.83-.83 0-2.91 1.76-4.67s3.85-2.6 4.68-1.77c.73.63.21 2.29-1 3.85"/></g></g></svg>