<svg xmlns="http://www.w3.org/2000/svg" viewBox="0 0 96 96"><defs><style>.cls-1{fill:#fff;}.cls-2{fill:none;stroke:#00008f;stroke-linecap:round;stroke-linejoin:round;stroke-width:2px;}</style></defs><title>Travel Case</title><g id="Layer_2" data-name="Layer 2"><g id="icons"><rect class="cls-1" width="96" height="96"/><rect class="cls-2" x="14" y="31" width="68" height="44" rx="5"/><line class="cls-2" x1="22" y1="31" x2="22" y2="75"/><line class="cls-2" x1="27" y1="31" x2="27" y2="75"/><line class="cls-2" x1="69" y1="31" x2="69" y2="75"/><line class="cls-2" x1="74" y1="31" x2="74" y2="75"/><line class="cls-2" x1="59.82" y1="25.43" x2="63" y2="31"/><line class="cls-2" x1="36.18" y1="25.43" x2="33" y2="31"/><rect class="cls-2" x="35" y="40" width="12" height="10"/><rect class="cls-2" x="52" y="46" width="9" height="5"/><rect class="cls-2" x="42" y="56" width="9" height="8"/><path class="cls-2" d="M35,23.22a2.48,2.48,0,0,0,2.74,2.47C40.52,25.4,44.85,25,48,25s7.48.4,10.26.69A2.48,2.48,0,0,0,61,23.22h0a2.47,2.47,0,0,0-2.21-2.47C56.06,20.45,51.35,20,48,20s-8.06.45-10.79.75A2.47,2.47,0,0,0,35,23.22Z"/></g></g></svg>