<svg xmlns="http://www.w3.org/2000/svg" viewBox="0 0 96 96"><g fill="none" stroke="#00008f" stroke-linecap="round" stroke-linejoin="round" stroke-width="2"><rect x="14" y="31" width="68" height="44" rx="5"/><path d="M22 31v44m5-44v44m42-44v44m5-44v44M59.82 25.43L63 31m-26.82-5.57L33 31m2 9h12v10H35zm17 6h9v5h-9zM42 56h9v8h-9zm-7-32.78a2.48 2.48 0 0 0 2.74 2.47C40.52 25.4 44.85 25 48 25s7.48.4 10.26.69A2.48 2.48 0 0 0 61 23.22a2.47 2.47 0 0 0-2.21-2.47C56.06 20.45 51.35 20 48 20s-8.06.45-10.79.75A2.47 2.47 0 0 0 35 23.22z"/></g></svg>