<svg xmlns="http://www.w3.org/2000/svg" viewBox="0 0 96 96"><defs><style>.cls-2{fill:none;stroke:#00008f;stroke-linecap:round;stroke-linejoin:round;stroke-width:2px}</style></defs><g id="Layer_2" data-name="Layer 2"><g id="icons"><path fill="#fff" d="M0 0h96v96H0z"/><rect class="cls-2" x="14" y="31" width="68" height="44" rx="5"/><path class="cls-2" d="M22 31v44M27 31v44M69 31v44M74 31v44M59.82 25.43L63 31M36.18 25.43L33 31M35 40h12v10H35zM52 46h9v5h-9zM42 56h9v8h-9zM35 23.22a2.48 2.48 0 0 0 2.74 2.47C40.52 25.4 44.85 25 48 25s7.48.4 10.26.69A2.48 2.48 0 0 0 61 23.22a2.47 2.47 0 0 0-2.21-2.47C56.06 20.45 51.35 20 48 20s-8.06.45-10.79.75A2.47 2.47 0 0 0 35 23.22z"/></g></g></svg>