<svg xmlns="http://www.w3.org/2000/svg" viewBox="0 0 96 96"><defs><style>.cls-2{fill:none;stroke:#00008f;stroke-linecap:round;stroke-linejoin:round;stroke-width:2px}</style></defs><g id="Layer_2" ><g id="icons"><path fill="currentColor" d="M0 0h96v96H0z"/><path class="cls-2" d="M13 71H7a4 4 0 0 1-4-4v-2a2 2 0 0 1 2-2h10M64.23 71H32M81.44 63h10a2 2 0 0 1 2 2v2a4 4 0 0 1-4 4h-6.55M30 63h36.73M91.42 63V48.56A9.77 9.77 0 0 0 88 41.09l-17.63-13.2-.85-.7C65.07 23.74 61.53 22 55.9 22H19.07C10.36 22 8.6 23.9 8 26.55L5 41v22"/><path class="cls-2" d="M79.42 42v3h-26V28h4.17a10.83 10.83 0 0 1 6.81 2.41l14.28 10a2 2 0 0 1 .74 1.59zM6 37h2.5a2.5 2.5 0 0 1 2.5 2.5v6A2.5 2.5 0 0 1 8.5 48H5M91.42 52h-3.5a2.5 2.5 0 0 1-2.5-2.5V39.35M53.42 45v17M47.42 53h-33M45.42 40v4"/><ellipse class="cls-2" cx="22.79" cy="69.13" rx="9.15" ry="9.29"/><ellipse class="cls-2" cx="22.79" cy="69.13" rx="4.15" ry="4.22"/><ellipse class="cls-2" cx="73.79" cy="69.13" rx="9.15" ry="9.29"/><ellipse class="cls-2" cx="73.79" cy="69.13" rx="4.15" ry="4.22"/></g></g></svg>