<svg xmlns="http://www.w3.org/2000/svg" viewBox="0 0 96 96"><defs><style>.cls-1{fill:#fff;}.cls-2{fill:none;stroke:#00008f;stroke-linecap:round;stroke-linejoin:round;stroke-width:2px;}</style></defs><title>VAN</title><g id="Layer_2" data-name="Layer 2"><g id="icons"><rect class="cls-1" width="96" height="96"/><path class="cls-2" d="M13,71H7a4,4,0,0,1-4-4V65a2,2,0,0,1,2-2H15"/><line class="cls-2" x1="64.23" y1="71" x2="32" y2="71"/><path class="cls-2" d="M81.44,63h10a2,2,0,0,1,2,2v2a4,4,0,0,1-4,4H82.89"/><line class="cls-2" x1="30" y1="63" x2="66.73" y2="63"/><path class="cls-2" d="M91.42,63V48.56A9.77,9.77,0,0,0,88,41.09L70.37,27.89l-.85-.7C65.07,23.74,61.53,22,55.9,22H19.07C10.36,22,8.6,23.9,8,26.55L5,41V63"/><path class="cls-2" d="M79.42,42v3h-26V28h4.17a10.83,10.83,0,0,1,6.81,2.41l14.28,10A2,2,0,0,1,79.42,42Z"/><path class="cls-2" d="M6,37H8.5A2.5,2.5,0,0,1,11,39.5v6A2.5,2.5,0,0,1,8.5,48H5"/><path class="cls-2" d="M91.42,52h-3.5a2.5,2.5,0,0,1-2.5-2.5V39.35"/><line class="cls-2" x1="53.42" y1="45" x2="53.42" y2="62"/><line class="cls-2" x1="47.42" y1="53" x2="14.42" y2="53"/><line class="cls-2" x1="45.42" y1="40" x2="45.42" y2="44"/><ellipse class="cls-2" cx="22.79" cy="69.13" rx="9.15" ry="9.29"/><ellipse class="cls-2" cx="22.79" cy="69.13" rx="4.15" ry="4.22"/><ellipse class="cls-2" cx="73.79" cy="69.13" rx="9.15" ry="9.29"/><ellipse class="cls-2" cx="73.79" cy="69.13" rx="4.15" ry="4.22"/></g></g></svg>