<svg xmlns="http://www.w3.org/2000/svg" viewBox="0 0 96 96"><defs><style>.cls-1{fill:#fff;}.cls-2{fill:none;stroke:#00008f;stroke-linecap:round;stroke-linejoin:round;stroke-width:2px;}</style></defs><title>Ventilation</title><g id="Layer_2" data-name="Layer 2"><g id="icons"><rect class="cls-1" width="96" height="96"/><path class="cls-2" d="M26.81,17H67.18A11.82,11.82,0,0,1,79,28.82V69.18A11.82,11.82,0,0,1,67.18,81H26.81A11.81,11.81,0,0,1,15,69.19V28.81A11.81,11.81,0,0,1,26.81,17Z"/><path class="cls-2" d="M72.07,72a3,3,0,1,1-3-3A3,3,0,0,1,72.07,72Z"/><line class="cls-2" x1="21.93" y1="73.14" x2="25.64" y2="73.14"/><rect class="cls-2" x="26.88" y="28.89" width="40.23" height="40.23" rx="12.38"/><rect class="cls-2" x="32.04" y="34.04" width="29.91" height="29.91" rx="9.2"/><path class="cls-2" d="M43.21,39.14h7.58a6.07,6.07,0,0,1,6.07,6.07v7.58a6.07,6.07,0,0,1-6.07,6.07H43.21a6.06,6.06,0,0,1-6.06-6.06V45.21A6.06,6.06,0,0,1,43.21,39.14Z"/><line class="cls-2" x1="47" y1="28.89" x2="47" y2="69.11"/><line class="cls-2" x1="67.11" y1="49" x2="26.88" y2="49"/></g></g></svg>