<svg xmlns="http://www.w3.org/2000/svg" viewBox="0 0 96 96"><defs><style>.cls-2{fill:none;stroke:#00008f;stroke-linecap:round;stroke-linejoin:round;stroke-width:2px}</style></defs><g id="Layer_2" data-name="Layer 2"><g id="icons"><path fill="currentColor" d="M0 0h96v96H0z"/><path class="cls-2" d="M37.92 46.66a9.05 9.05 0 1 1-9-9 9 9 0 0 1 9 9z"/><path class="cls-2" d="M56.06 46.7A9 9 0 1 1 47 37.65a9.05 9.05 0 0 1 9.06 9.05z"/><path class="cls-2" d="M74.18 46.7a9.05 9.05 0 1 1-9.05-9.05 9.06 9.06 0 0 1 9.05 9.05zM47 62.31a9 9 0 1 1-9-9.05 9 9 0 0 1 9 9.05z"/><path class="cls-2" d="M65.06 62.41a9 9 0 1 1-9.05-9 9 9 0 0 1 9.05 9z"/><path class="cls-2" d="M55.94 78a9 9 0 1 1-9-9.05 9 9 0 0 1 9 9.05zM47 37.65a52.32 52.32 0 0 0 2.2-16.46 55.76 55.76 0 0 0-.79-8.14M46.59 37.5s.57-16.68-20.92-24.59c0 0-.28 19.79 20.92 24.59z"/></g></g></svg>