<svg xmlns="http://www.w3.org/2000/svg" viewBox="0 0 96 96"><defs><style>.cls-1{fill:#fff;}.cls-2{fill:none;stroke:#00008f;stroke-linecap:round;stroke-linejoin:round;stroke-width:2px;}</style></defs><title>Warehouse Fire</title><g id="Layer_2" data-name="Layer 2"><g id="icons"><rect class="cls-1" width="96" height="96"/><path class="cls-2" d="M58.19,71.37H11V27.24a1.9,1.9,0,0,1,2.06-1.87H68.4"/><line class="cls-2" x1="11" y1="71.37" x2="5" y2="71.37"/><rect class="cls-2" x="18" y="33.37" width="8" height="6"/><rect class="cls-2" x="32" y="33.37" width="8" height="6"/><rect class="cls-2" x="46" y="33.37" width="8" height="6"/><polyline class="cls-2" points="62 39.37 62 33.37 66 33.37"/><rect class="cls-2" x="18" y="45.37" width="8" height="6"/><rect class="cls-2" x="32" y="45.37" width="8" height="6"/><polyline class="cls-2" points="54.45 51.37 46 51.37 46 45.37 53.64 45.37"/><rect class="cls-2" x="22" y="58.36" width="15" height="13"/><path class="cls-2" d="M68.8,75.38c-2.67-1.8-5.33-5.39-5.33-12.57a24.8,24.8,0,0,1,5.44-15.74s-.42,14.41,3.44,15.74c3.55.9,1.77-9,1.77-9s6.22,3,6.22,9.88c-.14,4.23-.89,8.08-4.44,11.67,9.77,0,15.1-13.5,15.1-25.14,0,0-3.55,7.18-5.33,5.39s1.78-5.39,1.78-10.77a18.94,18.94,0,0,0-5-12.34C83.9,40.77,75,46.65,75,46.65s4.44-17-6.62-26C70.57,35,62.88,35,61.47,43.49c0,0-3.76-3.05-4.29-9.54-8.81,10,2.73,29.76-.82,28C54.59,61,52.81,59.22,51,55.63,50.19,70.88,65.24,75.38,68.8,75.38"/></g></g></svg>