<svg xmlns="http://www.w3.org/2000/svg" viewBox="0 0 80 78"><defs><style>.cls-1{fill:none;stroke:#00008f;stroke-linecap:round;stroke-linejoin:round;stroke-width:2px}</style></defs><g id="Layer_2" ><g id="icons"><path class="cls-1" d="M5.73 34.1V77h68.54V34.1"/><path class="cls-1" d="M1 31a3.2 3.2 0 0 1 1.31-2.63L37.15 2a4.71 4.71 0 0 1 5.7 0l34.84 26.38A3.19 3.19 0 0 1 79 31a3.3 3.3 0 0 1-5.29 2.63l-33-25a1.17 1.17 0 0 0-1.42 0l-33 25A3.3 3.3 0 0 1 1 31zM19 77V47.88h42V77"/><path class="cls-1" d="M19 33h10v10H19zM35 33h10v10H35zM51 33h10v10H51zM25 77v-7h10v7M35 77v-7h10v7M45 77v-7h10v7M25 70v-7h10v7M25 63v-7h10v7"/></g></g></svg>