<svg xmlns="http://www.w3.org/2000/svg" viewBox="0 0 96 96"><g fill="none" stroke="#00008f" stroke-linecap="round" stroke-linejoin="round" stroke-width="2"><path d="M58.19 71.37H11V27.24a1.9 1.9 0 0 1 2.06-1.87H68.4m-57.4 46H5"/><path d="M18 33.37h8v6h-8zm14 0h8v6h-8zm14 0h8v6h-8zm16 6v-6h4m-48 12h8v6h-8zm14 0h8v6h-8zm22.45 6H46v-6h7.64M22 58.36h15v13H22z"/><path d="M68.8 75.38c-2.67-1.8-5.33-5.39-5.33-12.57a24.8 24.8 0 0 1 5.44-15.74s-.42 14.41 3.44 15.74c3.55.9 1.77-9 1.77-9s6.22 3 6.22 9.88c-.14 4.23-.89 8.08-4.44 11.67 9.77 0 15.1-13.5 15.1-25.14 0 0-3.55 7.18-5.33 5.39s1.78-5.39 1.78-10.77a18.94 18.94 0 0 0-5-12.34C83.9 40.77 75 46.65 75 46.65s4.44-17-6.62-26C70.57 35 62.88 35 61.47 43.49c0 0-3.76-3.05-4.29-9.54-8.81 10 2.73 29.76-.82 28-1.77-.95-3.55-2.73-5.36-6.32-.81 15.25 14.24 19.75 17.8 19.75"/></g></svg>