<svg xmlns="http://www.w3.org/2000/svg" viewBox="0 0 80 78"><defs><style>.cls-1{fill:none;stroke:#00008f;stroke-linecap:round;stroke-linejoin:round;stroke-width:2px;}</style></defs><title>Warenhouse</title><g id="Layer_2" data-name="Layer 2"><g id="icons"><polyline class="cls-1" points="5.73 34.1 5.73 77 74.27 77 74.27 34.1"/><path class="cls-1" d="M1,31H1a3.2,3.2,0,0,1,1.31-2.63L37.15,2a4.71,4.71,0,0,1,5.7,0L77.69,28.38A3.19,3.19,0,0,1,79,31h0a3.3,3.3,0,0,1-5.29,2.63l-33-25a1.17,1.17,0,0,0-1.42,0l-33,25A3.3,3.3,0,0,1,1,31Z"/><polyline class="cls-1" points="19 77 19 47.88 61 47.88 61 77"/><rect class="cls-1" x="19" y="33" width="10" height="10"/><rect class="cls-1" x="35" y="33" width="10" height="10"/><rect class="cls-1" x="51" y="33" width="10" height="10"/><polyline class="cls-1" points="25 77 25 70 35 70 35 77"/><polyline class="cls-1" points="35 77 35 70 45 70 45 77"/><polyline class="cls-1" points="45 77 45 70 55 70 55 77"/><polyline class="cls-1" points="25 70 25 63 35 63 35 70"/><polyline class="cls-1" points="25 63 25 56 35 56 35 63"/></g></g></svg>