<svg xmlns="http://www.w3.org/2000/svg" viewBox="0 0 80 78"><g fill="none" stroke="currentColor" stroke-linecap="round" stroke-linejoin="round" stroke-width="2"><path d="M5.73 34.1V77h68.54V34.1"/><path d="M1 31a3.2 3.2 0 0 1 1.31-2.63L37.15 2a4.71 4.71 0 0 1 5.7 0l34.84 26.38A3.19 3.19 0 0 1 79 31a3.3 3.3 0 0 1-5.29 2.63l-33-25a1.17 1.17 0 0 0-1.42 0l-33 25A3.3 3.3 0 0 1 1 31zm18 46V47.88h42V77"/><path d="M19 33h10v10H19zm16 0h10v10H35zm16 0h10v10H51zM25 77v-7h10v7m0 0v-7h10v7m0 0v-7h10v7m-30-7v-7h10v7m-10-7v-7h10v7"/></g></svg>