<svg xmlns="http://www.w3.org/2000/svg" viewBox="0 0 96 96"><defs><style>.cls-1{fill:#fff;}.cls-2{fill:none;stroke:#00008f;stroke-linecap:round;stroke-linejoin:round;stroke-width:2px;}</style></defs><title>Washing Machine</title><g id="Layer_2" data-name="Layer 2"><g id="icons"><rect class="cls-1" width="96" height="96"/><rect class="cls-2" x="21" y="15" width="54" height="66" rx="4" transform="matrix(1, 0, 0, 1, -0.18, 0.18)"/><line class="cls-2" x1="20.93" y1="28.1" x2="27.93" y2="28.07"/><line class="cls-2" x1="39.93" y1="28.03" x2="74.93" y2="27.9"/><line class="cls-2" x1="52.9" y1="21.98" x2="54.9" y2="21.97"/><line class="cls-2" x1="59.9" y1="21.96" x2="61.9" y2="21.95"/><line class="cls-2" x1="66.9" y1="21.93" x2="68.9" y2="21.92"/><circle class="cls-2" cx="33.93" cy="28.05" r="6"/><circle class="cls-2" cx="48.02" cy="54" r="17"/><circle class="cls-2" cx="48.02" cy="54" r="11"/><path class="cls-2" d="M37.18,55.84l.29-.27C40.62,52.7,44.52,52.12,48,54h0c3.5,1.88,7.4,1.3,10.55-1.57l.3-.27"/></g></g></svg>