<svg xmlns="http://www.w3.org/2000/svg" viewBox="0 0 96 96"><defs><style>.cls-2{fill:none;stroke:#00008f;stroke-linecap:round;stroke-linejoin:round;stroke-width:2px}</style></defs><g id="Layer_2" ><g id="icons"><path fill="currentColor" d="M0 0h96v96H0z"/><path class="cls-2" d="M40.27 67.44a3.62 3.62 0 0 0 .09.85l3.09 12.78a1.49 1.49 0 0 0 1.45.93h6.2a1.49 1.49 0 0 0 1.45-.93l3.09-12.78a3.62 3.62 0 0 0 .09-.85c4.81-2.07 8.07-6 8.07-10.53H32.2c0 4.52 3.26 8.46 8.07 10.53zM41.68 18.13h12.64a3 3 0 0 1 3 1.9l6.31 26.1c.78 3.24-.69 6.16-3.36 6.16h-24.5c-2.67 0-4.14-2.92-3.36-6.16L38.72 20a3 3 0 0 1 2.96-1.87zM44.45 17.55a3.55 3.55 0 0 1 7.1 0M30.34 56.91h35.32"/></g></g></svg>