<svg xmlns="http://www.w3.org/2000/svg" viewBox="0 0 96 96"><defs><style>.cls-1{fill:#fff;}.cls-2{fill:none;stroke:#00008f;stroke-linecap:round;stroke-linejoin:round;stroke-width:2px;}</style></defs><title>WC</title><g id="Layer_2" data-name="Layer 2"><g id="icons"><rect class="cls-1" width="96" height="96"/><path class="cls-2" d="M40.27,67.44a3.62,3.62,0,0,0,.09.85l3.09,12.78A1.49,1.49,0,0,0,44.9,82h6.2a1.49,1.49,0,0,0,1.45-.93l3.09-12.78a3.62,3.62,0,0,0,.09-.85c4.81-2.07,8.07-6,8.07-10.53H32.2C32.2,61.43,35.46,65.37,40.27,67.44Z"/><path class="cls-2" d="M41.68,18.13H54.32a3,3,0,0,1,3,1.9l6.31,26.1c.78,3.24-.69,6.16-3.36,6.16H35.77c-2.67,0-4.14-2.92-3.36-6.16L38.72,20A3,3,0,0,1,41.68,18.13Z"/><path class="cls-2" d="M44.45,17.55a3.55,3.55,0,0,1,7.1,0"/><line class="cls-2" x1="30.34" y1="56.91" x2="65.66" y2="56.91"/></g></g></svg>