<svg xmlns="http://www.w3.org/2000/svg" viewBox="0 0 96 96"><defs><style>.cls-2{fill:none;stroke:#00008f;stroke-linecap:round;stroke-linejoin:round;stroke-width:2px}</style></defs><g id="Layer_2" ><g id="icons"><path fill="currentColor" d="M0 0h96v96H0z"/><path class="cls-2" d="M21.67 35.39h-.08a11.45 11.45 0 0 0 0 22.89M62.1 55.42a15 15 0 1 0 11.27-26.87M70.89 28.34a15.66 15.66 0 0 1 2.48.21C69.22 21 59.69 15.72 48.59 15.72c-14.22 0-25.87 8.67-26.92 19.67M23.43 72.48l-3.3 7.8M30.69 55.34l-4.22 9.96M36.11 72.32l-3.37 7.96M43.31 55.34l-4.34 10.24M48.6 72.63l-3.24 7.65M55.92 55.34l-4.26 10.07"/></g></g></svg>