<svg xmlns="http://www.w3.org/2000/svg" viewBox="0 0 96 96"><defs><style>.cls-1{fill:#fff;}.cls-2{fill:none;stroke:#00008f;stroke-linecap:round;stroke-linejoin:round;stroke-width:2px;}</style></defs><title>Weather Warning</title><g id="Layer_2" data-name="Layer 2"><g id="icons"><rect class="cls-1" width="96" height="96"/><path class="cls-2" d="M21.67,35.39h-.08a11.45,11.45,0,0,0,0,22.89"/><path class="cls-2" d="M62.1,55.42A15,15,0,1,0,73.37,28.55"/><path class="cls-2" d="M70.89,28.34a15.66,15.66,0,0,1,2.48.21C69.22,21,59.69,15.72,48.59,15.72c-14.22,0-25.87,8.67-26.92,19.67"/><line class="cls-2" x1="23.43" y1="72.48" x2="20.13" y2="80.28"/><line class="cls-2" x1="30.69" y1="55.34" x2="26.47" y2="65.3"/><line class="cls-2" x1="36.11" y1="72.32" x2="32.74" y2="80.28"/><line class="cls-2" x1="43.31" y1="55.34" x2="38.97" y2="65.58"/><line class="cls-2" x1="48.6" y1="72.63" x2="45.36" y2="80.28"/><line class="cls-2" x1="55.92" y1="55.34" x2="51.66" y2="65.41"/></g></g></svg>