<svg xmlns="http://www.w3.org/2000/svg" viewBox="0 0 96 96"><defs><style>.cls-2,.cls-3{fill:none;stroke:#00008f;stroke-width:2px}.cls-2{stroke-miterlimit:10}.cls-3{stroke-linecap:round;stroke-linejoin:round}</style></defs><g id="Layer_2" ><g id="icons"><path class="cls-2" d="M28.79 68.45s-15.66-7.76-6.44-23.68c0 0 16.38 7.56 6.44 23.68zM20.06 85l29.89-52.98M29.55 69s14.72 9.43 23.61-6.68c0-.03-14.92-10.17-23.61 6.68z"/><path class="cls-2" d="M36.13 55.66S20.46 47.91 29.68 32c0 0 16.38 7.54 6.45 23.66zM36.88 56.19s14.72 9.42 23.61-6.68c0 0-14.92-10.14-23.61 6.68z"/><path class="cls-2" d="M43.42 42.73S27.75 35 37 19.06c0 0 16.35 7.56 6.42 23.67zM44.17 43.26s14.73 9.43 23.62-6.68c0 0-14.92-10.14-23.62 6.68zM49.71 32.34S66.81 28.71 61.83 11c0 0-17.74 3.26-12.12 21.34z"/><path class="cls-3" d="M50.06 32.72a60.75 60.75 0 0 0 18.34-5.8 67.78 67.78 0 0 0 8.16-4.84M49.54 32.57a40 40 0 0 1-4.08-12 43.26 43.26 0 0 1-.61-6.21"/></g></g></svg>