<svg xmlns="http://www.w3.org/2000/svg" viewBox="0 0 96 96"><defs><style>.cls-1{fill:#fff;}.cls-2,.cls-3{fill:none;stroke:#00008f;stroke-width:2px;}.cls-2{stroke-miterlimit:10;}.cls-3{stroke-linecap:round;stroke-linejoin:round;}</style></defs><title>Wheat</title><g id="Layer_2" data-name="Layer 2"><g id="icons"><rect class="cls-1" width="96" height="96"/><path class="cls-2" d="M28.79,68.45s-15.66-7.76-6.44-23.68C22.35,44.77,38.73,52.33,28.79,68.45Z"/><line class="cls-2" x1="20.06" y1="85" x2="49.95" y2="32.02"/><path class="cls-2" d="M29.55,69s14.72,9.43,23.61-6.68C53.16,62.29,38.24,52.15,29.55,69Z"/><path class="cls-2" d="M36.13,55.66S20.46,47.91,29.68,32C29.68,32,46.06,39.54,36.13,55.66Z"/><path class="cls-2" d="M36.88,56.19s14.72,9.42,23.61-6.68C60.49,49.51,45.57,39.37,36.88,56.19Z"/><path class="cls-2" d="M43.42,42.73S27.75,35,37,19.06C37,19.06,53.35,26.62,43.42,42.73Z"/><path class="cls-2" d="M44.17,43.26s14.73,9.43,23.62-6.68C67.79,36.58,52.87,26.44,44.17,43.26Z"/><path class="cls-2" d="M49.71,32.34S66.81,28.71,61.83,11C61.83,11,44.09,14.26,49.71,32.34Z"/><path class="cls-3" d="M50.06,32.72a60.75,60.75,0,0,0,18.34-5.8,67.78,67.78,0,0,0,8.16-4.84"/><path class="cls-3" d="M49.54,32.57a40,40,0,0,1-4.08-12,43.26,43.26,0,0,1-.61-6.21"/></g></g></svg>