<svg xmlns="http://www.w3.org/2000/svg" viewBox="0 0 96 96"><defs><style>.cls-1{fill:#fff;}.cls-2{fill:none;stroke:#00008f;stroke-linecap:round;stroke-linejoin:round;stroke-width:2px;}</style></defs><title>Wind Turbine</title><g id="Layer_2" data-name="Layer 2"><g id="icons"><rect class="cls-1" width="96" height="96"/><path class="cls-2" d="M27,84h8.78a6,6,0,0,0,5.94-5.17l3.66-26.34a7,7,0,0,0,5.24,0l3.66,26.34A6,6,0,0,0,60.22,84H69"/><circle class="cls-2" cx="48" cy="46" r="7"/><path class="cls-2" d="M53,41,50.21,14a2.22,2.22,0,0,0-4.42,0L43,41"/><path class="cls-2" d="M51.94,51.78l27.39,5.59a2.21,2.21,0,0,0,1.29-4.22L53.77,42.05"/><path class="cls-2" d="M42.3,41.94,15.55,53a2.21,2.21,0,0,0,1.29,4.22l27.09-5.53"/><line class="cls-2" x1="36" y1="84" x2="60" y2="84"/><path class="cls-2" d="M57.82,69a25.25,25.25,0,0,0,10.53-8.5"/><path class="cls-2" d="M27.65,60.5A25.05,25.05,0,0,0,38.19,69"/><path class="cls-2" d="M23.52,41A25.13,25.13,0,0,0,23,45"/><path class="cls-2" d="M40.27,22.23A25,25,0,0,0,25.19,35.8"/><path class="cls-2" d="M59.25,23.67a25.22,25.22,0,0,0-3.52-1.44"/><path class="cls-2" d="M73,45a24.94,24.94,0,0,0-9.75-18.83"/><path class="cls-2" d="M66.59,42.06a19.07,19.07,0,0,0-9.82-12.91"/><path class="cls-2" d="M57,62.73a19.08,19.08,0,0,0,4.1-2.95"/><path class="cls-2" d="M34,58.82a18.72,18.72,0,0,0,3.1,2.73"/><path class="cls-2" d="M39.23,29.16A19.07,19.07,0,0,0,31,37.53a18.86,18.86,0,0,0-1.12,2.75"/></g></g></svg>