<svg xmlns="http://www.w3.org/2000/svg" viewBox="0 0 96 96"><g fill="none" stroke="#00008f" stroke-linecap="round" stroke-linejoin="round" stroke-width="2"><path d="M27 84h8.78a6 6 0 0 0 5.94-5.17l3.66-26.34a7 7 0 0 0 5.24 0l3.66 26.34A6 6 0 0 0 60.22 84H69"/><circle cx="48" cy="46" r="7"/><path d="M53 41l-2.79-27a2.22 2.22 0 0 0-4.42 0L43 41m8.94 10.78l27.39 5.59a2.21 2.21 0 0 0 1.29-4.22l-26.85-11.1m-11.47-.11L15.55 53a2.21 2.21 0 0 0 1.29 4.22l27.09-5.53M36 84h24m-2.18-15a25.25 25.25 0 0 0 10.53-8.5m-40.7 0A25.05 25.05 0 0 0 38.19 69M23.52 41a25.13 25.13 0 0 0-.52 4m17.27-22.77A25 25 0 0 0 25.19 35.8m34.06-12.13a25.22 25.22 0 0 0-3.52-1.44M73 45a24.94 24.94 0 0 0-9.75-18.83m3.34 15.89a19.07 19.07 0 0 0-9.82-12.91M57 62.73a19.08 19.08 0 0 0 4.1-2.95M34 58.82a18.72 18.72 0 0 0 3.1 2.73m2.13-32.39A19.07 19.07 0 0 0 31 37.53a18.86 18.86 0 0 0-1.12 2.75"/></g></svg>