<svg xmlns="http://www.w3.org/2000/svg" viewBox="0 0 96 96"><defs><style>.cls-1{fill:#fff;}.cls-2{fill:none;stroke:#00008f;stroke-linecap:round;stroke-linejoin:round;stroke-width:2px;}</style></defs><title>Within 72 HRS</title><g id="Layer_2" data-name="Layer 2"><g id="icons"><rect class="cls-1" width="96" height="96"/><polyline class="cls-2" points="37 39 46 39 38 56"/><line class="cls-2" x1="47.99" y1="20.94" x2="47.96" y2="27.94"/><line class="cls-2" x1="47.79" y1="67.94" x2="47.76" y2="74.94"/><line class="cls-2" x1="27.88" y1="47.86" x2="20.88" y2="47.82"/><line class="cls-2" x1="74.87" y1="48.06" x2="67.87" y2="48.03"/><polyline class="cls-2" points="73.01 17.05 72.97 26.05 63.97 26.02"/><path class="cls-2" d="M72.56,26.05a33,33,0,1,0,4.77,7"/><line class="cls-2" x1="28.96" y1="28.86" x2="29.95" y2="29.86"/><line class="cls-2" x1="28.79" y1="66.86" x2="29.8" y2="65.86"/><line class="cls-2" x1="66.79" y1="67.03" x2="65.8" y2="66.02"/><line class="cls-2" x1="23.1" y1="37.55" x2="24.4" y2="38.1"/><line class="cls-2" x1="37.48" y1="72.72" x2="38.03" y2="71.42"/><line class="cls-2" x1="72.65" y1="58.34" x2="71.35" y2="57.79"/><line class="cls-2" x1="37.7" y1="23.07" x2="38.24" y2="24.38"/><line class="cls-2" x1="23.01" y1="58.12" x2="24.31" y2="57.58"/><line class="cls-2" x1="58.05" y1="72.81" x2="57.51" y2="71.51"/><path class="cls-2" d="M59,56H50l7.66-10.5A4.18,4.18,0,0,0,54.18,39h0A4.18,4.18,0,0,0,50,43.18"/></g></g></svg>