<svg xmlns="http://www.w3.org/2000/svg" viewBox="0 0 96 96"><defs><style>.cls-2{fill:none;stroke:#00008f;stroke-linecap:round;stroke-linejoin:round;stroke-width:2px}</style></defs><g id="Layer_2" ><g id="icons"><path class="cls-2" d="M47.99 20.94l-.03 7M47.79 67.94l-.03 7M27.88 47.86l-7-.04M74.87 48.06l-7-.03M73.01 17.05l-.04 9-9-.03M72.56 26.05a33 33 0 1 0 4.77 7M28.96 28.86l.99 1M28.79 66.86l1.01-1M66.79 67.03l-.99-1.01M23.1 37.55l1.3.55M37.48 72.72l.55-1.3M72.65 58.34l-1.3-.55M37.7 23.07l.54 1.31M23.01 58.12l1.3-.54M58.05 72.81l-.54-1.3"/><path class="cls-2" d="M56 56V39l-7 12h10M46 56h-9l7.66-10.5a4.18 4.18 0 0 0-3.48-6.5A4.18 4.18 0 0 0 37 43.18"/></g></g></svg>