<svg xmlns="http://www.w3.org/2000/svg" viewBox="0 0 96 96"><defs><style>.cls-1{fill:#fff;}.cls-2{fill:none;stroke:#00008f;stroke-linecap:round;stroke-linejoin:round;stroke-width:2px;}</style></defs><title>Within 1 HRS</title><g id="Layer_2" data-name="Layer 2"><g id="icons"><rect class="cls-1" width="96" height="96"/><line class="cls-2" x1="46.99" y1="20.94" x2="46.96" y2="27.94"/><line class="cls-2" x1="46.79" y1="67.94" x2="46.76" y2="74.94"/><line class="cls-2" x1="26.88" y1="47.86" x2="19.88" y2="47.82"/><line class="cls-2" x1="73.87" y1="48.06" x2="66.87" y2="48.03"/><polyline class="cls-2" points="72.01 17.05 71.97 26.05 62.97 26.02"/><path class="cls-2" d="M71.56,26.05a33,33,0,1,0,4.77,7"/><line class="cls-2" x1="27.96" y1="28.86" x2="28.95" y2="29.86"/><line class="cls-2" x1="27.79" y1="66.86" x2="28.8" y2="65.86"/><line class="cls-2" x1="65.79" y1="67.03" x2="64.8" y2="66.02"/><line class="cls-2" x1="22.1" y1="37.55" x2="23.4" y2="38.1"/><line class="cls-2" x1="36.48" y1="72.72" x2="37.03" y2="71.42"/><line class="cls-2" x1="71.65" y1="58.34" x2="70.35" y2="57.79"/><line class="cls-2" x1="36.7" y1="23.07" x2="37.24" y2="24.38"/><line class="cls-2" x1="22.01" y1="58.12" x2="23.31" y2="57.58"/><line class="cls-2" x1="57.05" y1="72.81" x2="56.51" y2="71.51"/><line class="cls-2" x1="52" y1="56" x2="42" y2="56"/><polyline class="cls-2" points="47 56 47 38 42 42"/></g></g></svg>