<svg xmlns="http://www.w3.org/2000/svg" viewBox="0 0 96 96"><defs><style>.cls-2{fill:none;stroke:#00008f;stroke-linecap:round;stroke-linejoin:round;stroke-width:2px}</style></defs><g id="Layer_2" data-name="Layer 2"><g id="icons"><path fill="currentColor" d="M0 0h96v96H0z"/><path class="cls-2" d="M46.99 20.94l-.03 7M46.79 67.94l-.03 7M26.88 47.86l-7-.04M73.87 48.06l-7-.03M72.01 17.05l-.04 9-9-.03M71.56 26.05a33 33 0 1 0 4.77 7M27.96 28.86l.99 1M27.79 66.86l1.01-1M65.79 67.03l-.99-1.01M22.1 37.55l1.3.55M36.48 72.72l.55-1.3M71.65 58.34l-1.3-.55M36.7 23.07l.54 1.31M22.01 58.12l1.3-.54M57.05 72.81l-.54-1.3M52 56H42"/><path class="cls-2" d="M47 56V38l-5 4"/></g></g></svg>