<svg xmlns="http://www.w3.org/2000/svg" viewBox="0 0 96 96"><g fill="none" stroke="currentColor" stroke-linecap="round" stroke-linejoin="round" stroke-width="2"><path d="M61 24l-3-3.5c-1.62-1.92-2.6-2.5-5.39-2.5h-9.22c-2.79 0-3.77.58-5.39 2.5L35 24m25 19h-7v-7a1 1 0 0 0-1-1h-8a1 1 0 0 0-1 1v7h-7a1 1 0 0 0-1 1v8a1 1 0 0 0 1 1h7v7a1 1 0 0 0 1 1h8a1 1 0 0 0 1-1v-7h7a1 1 0 0 0 1-1v-8a1 1 0 0 0-1-1z"/><rect x="16" y="24" width="64" height="48" rx="5"/><path d="M34 24v3a3 3 0 0 1-3 3h-4a3 3 0 0 1-3-3v-3m48 0v3a3 3 0 0 1-3 3h-4a3 3 0 0 1-3-3v-3M34 72v5H24v-5m48 0v5H62v-5"/></g></svg>