<svg xmlns="http://www.w3.org/2000/svg" viewBox="0 0 96 96"><path d="M15 31a3 3 0 0 1 3 3v43a2 2 0 0 1-2 2h-2a2 2 0 0 1-2-2V34a3 3 0 0 1 3-3zm63 36h6v10a2 2 0 0 1-2 2h-2a2 2 0 0 1-2-2V67zM18 51h56a10 10 0 0 1 10 10H18V51zm60 16H18m66 0v-6M18 41c9.94 0 18 4.48 18 10m24 16v12m0-62v34m-9 28h18M49 25v-5a3 3 0 0 1 3-3h16a3 3 0 0 1 3 3v5m-26 0h8v9a4 4 0 0 1-4 4 4 4 0 0 1-4-4v-9zm22 0h8v9a4 4 0 0 1-4 4 4 4 0 0 1-4-4v-9z" fill="none" stroke="currentColor" stroke-linecap="round" stroke-linejoin="round" stroke-width="2"/></svg>