<svg xmlns="http://www.w3.org/2000/svg" viewBox="0 0 96 96"><g fill="none" stroke="currentColor" stroke-linecap="round" stroke-linejoin="round" stroke-width="2"><path d="M32.15 48.2a17 17 0 0 0 31.78-.06m-32.44-9.59a4.88 4.88 0 0 0 .2 9.7 3.41 3.41 0 0 0 .46 0c-.44-1.2-.58-12.22-.74-18.36"/><path d="M64.51 38.55a4.88 4.88 0 0 1-.2 9.7 3.41 3.41 0 0 1-.46 0c.39-1.06.67-9.13.83-15.33m0-.02a1.78 1.78 0 0 0 1-1.59V20.19c0-.63-4.26-7.25-18.31-7.25-15.56 0-19.22 18.31-19.22 18.31a21.4 21.4 0 0 1 3.13-1.44"/><path d="M31.26 29.81a23.34 23.34 0 0 1 16.09-.39 15.08 15.08 0 0 0 11.91-.69v2.58A1.77 1.77 0 0 0 61 33.08h2.9a1.86 1.86 0 0 0 .78-.18M42.9 23c-8.92-.72-14.37 7.61-14.37 7.61m5.24 46.23v4.6M24 79.51L36.83 82a61.23 61.23 0 0 0 22.34 0L72 79.51m-9.77-2.67v4.6"/><path d="M24 79.51c0-13.27 10.76-20.46 24-20.46s24 7.19 24 20.46M54.23 59.94a6.23 6.23 0 0 1-12.46 0"/></g></svg>