<svg xmlns="http://www.w3.org/2000/svg" viewBox="0 0 96 96"><g fill="none" stroke="currentColor" stroke-linecap="round" stroke-linejoin="round" stroke-width="2"><path d="M41 53v-4.75m14 .17V53m-14.27.18l-8.42 1.25A13 13 0 0 0 21 67.16v6.69a4 4 0 0 0 3.37 3.94l11.07 2a68.43 68.43 0 0 0 25.12 0l11.07-2A4 4 0 0 0 75 73.85v-6.69a13 13 0 0 0-11.31-12.73l-8.42-1.25M29 55.36V78m5-23.82V79m33-23.64V78m-5-23.82V79m.08-59.87L56 17v2.29A4 4 0 0 0 58.51 23L61 24v12s5-2 5-6v-5a6.47 6.47 0 0 0-3.92-5.87zm-28.16 0L40 17v2.29A4 4 0 0 1 37.49 23L35 24v12s-5-2-5-6v-5a6.47 6.47 0 0 1 3.92-5.87zM35 36.07c0 6.64 4 13.93 13 14s13-7.39 13-14M56 17c-1.84-1.26-5.57-2-8-2s-6.15.74-8 2m8 42v22"/><path d="M55 53.1L48 59l8 4.13 2-9.02m-20 0l2 9.02L48 59l-7-5.9"/></g></svg>