<svg xmlns="http://www.w3.org/2000/svg" viewBox="0 0 96 96"><g fill="none" stroke="currentColor" stroke-linecap="round" stroke-linejoin="round" stroke-width="2"><path d="M24 68l1-30m6 0l1 30m19-30l1 30m-8 0l1-30M19 73v-5h58v5"/><circle cx="48" cy="25" r="3"/><path d="M15 73h66v5H15zm4-40v5h40"/><circle cx="71" cy="32" r="13"/><path d="M58 32a13 13 0 0 1 3-8.35L48 16 19 33h39.05c-.05-.33-.05-.66-.05-1zm14 36l-.9-23.01m-6.08-1.45L64 68m7-45v18m-3.93-4.62A3.84 3.84 0 0 0 71 39c2.21 0 4-1.41 4-3.15a2 2 0 0 0-.18-.8 3.19 3.19 0 0 0-1.2-1.33L71 32l-2.62-1.72a3.19 3.19 0 0 1-1.2-1.28 2 2 0 0 1-.18-.8c0-1.79 1.79-3.2 4-3.2a3.83 3.83 0 0 1 3.93 2.63"/></g></svg>