<svg xmlns="http://www.w3.org/2000/svg" viewBox="0 0 96 96"><g fill="none" stroke="currentColor" stroke-linecap="round" stroke-linejoin="round" stroke-width="2"><path d="M75 23v19.92M21 57V23"/><rect x="16" y="18" width="64" height="5" rx="2.5"/><path d="M59 62H18.5a2.5 2.5 0 0 1-2.5-2.5 2.5 2.5 0 0 1 2.5-2.5h38.65M48 18v-4m0 68V62M26 82l21-20m23 20L49 62M28 51l13-12 5.49 5L61 30"/><path d="M54 30h7v7"/><circle cx="70" cy="55" r="13"/><path d="M67 51v3.88a10.33 10.33 0 0 1-1.73 5.72L65 61h9m-9-6h6m-4-4a3 3 0 0 1 6 0"/></g></svg>