<svg xmlns="http://www.w3.org/2000/svg" viewBox="0 0 96 96"><defs><style>.cls-2{fill:none;stroke:#00008f;stroke-linecap:round;stroke-linejoin:round;stroke-width:2px}</style></defs><g id="Layer_2" ><g id="icons"><path fill="currentColor" d="M0 0h96v96H0z"/><path class="cls-2" d="M52 21a21.87 21.87 0 1 0 3 4.89M44 75a22 22 0 1 0 17-36 22.54 22.54 0 0 0-4.45.45 22 22 0 0 1-17.1 17.1A22.54 22.54 0 0 0 39 61a21.93 21.93 0 0 0 2 9.07"/><path class="cls-2" d="M44 81v-6h6M52 15v6h-6M43 43V26l-7 12h10M33 43h-9l7.66-10.5a4.18 4.18 0 0 0-3.48-6.5A4.18 4.18 0 0 0 24 30.18M57 54h9l-8 17"/></g></g></svg>