<svg xmlns="http://www.w3.org/2000/svg" viewBox="0 0 96 96"><defs><style>.cls-1{fill:#fff;}.cls-2{fill:none;stroke:#00008f;stroke-linecap:round;stroke-linejoin:round;stroke-width:2px;}</style></defs><title>24 x 7</title><g id="Layer_2" data-name="Layer 2"><g id="icons"><rect class="cls-1" width="96" height="96"/><path class="cls-2" d="M52,21a21.87,21.87,0,1,0,3,4.89"/><path class="cls-2" d="M44,75A22,22,0,1,0,61,39a22.54,22.54,0,0,0-4.45.45,22,22,0,0,1-17.1,17.1A22.54,22.54,0,0,0,39,61a21.93,21.93,0,0,0,2,9.07"/><polyline class="cls-2" points="44 81 44 75 50 75"/><polyline class="cls-2" points="52 15 52 21 46 21"/><polyline class="cls-2" points="43 43 43 26 36 38 46 38"/><path class="cls-2" d="M33,43H24l7.66-10.5A4.18,4.18,0,0,0,28.18,26h0A4.18,4.18,0,0,0,24,30.18"/><polyline class="cls-2" points="57 54 66 54 58 71"/></g></g></svg>