<svg xmlns="http://www.w3.org/2000/svg" viewBox="0 0 96 96"><defs><style>.cls-2{fill:none;stroke:#00008f;stroke-linecap:round;stroke-linejoin:round;stroke-width:2px}</style></defs><g id="Layer_2" ><g id="icons"><path fill="currentColor" d="M0 0h96v96H0z"/><path class="cls-2" d="M79.74 44.23L63.5 27.48a2.21 2.21 0 0 1 0-3l3.69-3.81a2.05 2.05 0 0 1 3 0l16.2 16.71a2.21 2.21 0 0 1 0 3l-3.69 3.85a2.05 2.05 0 0 1-2.96 0zM9.61 37.38l16.24-16.75a2.05 2.05 0 0 1 3 0l3.69 3.81a2.21 2.21 0 0 1 0 3L16.26 44.23a2.05 2.05 0 0 1-3 0l-3.65-3.81a2.21 2.21 0 0 1 0-3.04zM48 75.44l1 1a4.74 4.74 0 0 0 6.45.47 5 5 0 0 0 .34-7.17 4.61 4.61 0 0 0 6.65 0 5 5 0 0 0 0-6.85 4.61 4.61 0 0 0 6.95-.35 5.11 5.11 0 0 0-.45-6.65L57.6 44.23"/><path class="cls-2" d="M48 34.33c-3.41-3.51-8.07-4.13-12.55-2.28l-3.69-3.81L17 43.47l11.07 11.42"/><path class="cls-2" d="M27 56l1.48-1.52a4.58 4.58 0 0 1 6.64 0 4.94 4.94 0 0 1 0 6.85l-1.52 1.55a4.6 4.6 0 0 1-6.64 0A5 5 0 0 1 27 56z"/><path class="cls-2" d="M33.6 62.88l1.48-1.52a4.58 4.58 0 0 1 6.64 0 4.94 4.94 0 0 1 0 6.85l-1.47 1.52a4.61 4.61 0 0 1-6.65 0 5 5 0 0 1 0-6.85z"/><path class="cls-2" d="M40.25 69.73l1.47-1.52a4.61 4.61 0 0 1 6.65 0 5 5 0 0 1 0 6.85l-1.48 1.52a4.6 4.6 0 0 1-6.64 0 4.94 4.94 0 0 1 0-6.85zM79 43.47L64.24 28.24l-3.69 3.81a11.78 11.78 0 0 0-13 2.75l-7.16 7.38a5.1 5.1 0 0 0-.45 6.64 4.6 4.6 0 0 0 7 .36l5.54-5.71a3.07 3.07 0 0 1 4.43 0l11.02 11.42z"/></g></g></svg>