<svg xmlns="http://www.w3.org/2000/svg" viewBox="0 0 96 96"><defs><style>.cls-1{fill:#fff;}.cls-2{fill:none;stroke:#00008f;stroke-linecap:round;stroke-linejoin:round;stroke-width:2px;}</style></defs><title>Agreement</title><g id="Layer_2" data-name="Layer 2"><g id="icons"><rect class="cls-1" width="96" height="96"/><path class="cls-2" d="M79.74,44.23,63.5,27.48a2.21,2.21,0,0,1,0-3l3.69-3.81a2.05,2.05,0,0,1,3,0L86.39,37.38a2.21,2.21,0,0,1,0,3L82.7,44.23A2.05,2.05,0,0,1,79.74,44.23Z"/><path class="cls-2" d="M9.61,37.38,25.85,20.63a2.05,2.05,0,0,1,3,0l3.69,3.81a2.21,2.21,0,0,1,0,3L16.26,44.23a2.05,2.05,0,0,1-3,0L9.61,40.42A2.21,2.21,0,0,1,9.61,37.38Z"/><path class="cls-2" d="M48,75.44l1,1a4.74,4.74,0,0,0,6.45.47,5,5,0,0,0,.34-7.17,4.61,4.61,0,0,0,6.65,0,5,5,0,0,0,0-6.85,4.61,4.61,0,0,0,6.95-.35,5.11,5.11,0,0,0-.45-6.65L57.6,44.23"/><path class="cls-2" d="M48,34.33c-3.41-3.51-8.07-4.13-12.55-2.28h0l-3.69-3.81L17,43.47,28.07,54.89"/><path class="cls-2" d="M27,56l1.48-1.52a4.58,4.58,0,0,1,6.64,0h0a4.94,4.94,0,0,1,0,6.85L33.6,62.88a4.6,4.6,0,0,1-6.64,0h0A5,5,0,0,1,27,56Z"/><path class="cls-2" d="M33.6,62.88l1.48-1.52a4.58,4.58,0,0,1,6.64,0h0a4.94,4.94,0,0,1,0,6.85l-1.47,1.52a4.61,4.61,0,0,1-6.65,0h0A5,5,0,0,1,33.6,62.88Z"/><path class="cls-2" d="M40.25,69.73l1.47-1.52a4.61,4.61,0,0,1,6.65,0h0a5,5,0,0,1,0,6.85l-1.48,1.52a4.6,4.6,0,0,1-6.64,0h0A4.94,4.94,0,0,1,40.25,69.73Z"/><path class="cls-2" d="M79,43.47,64.24,28.24l-3.69,3.81h0a11.78,11.78,0,0,0-13,2.75l-7.16,7.38a5.1,5.1,0,0,0-.45,6.64,4.6,4.6,0,0,0,7,.36l5.54-5.71a3.07,3.07,0,0,1,4.43,0L67.93,54.89Z"/></g></g></svg>