<svg xmlns="http://www.w3.org/2000/svg" viewBox="0 0 96 96"><defs><style>.cls-2{fill:none;stroke:#00008f;stroke-linecap:round;stroke-linejoin:round;stroke-width:2px}</style></defs><g id="Layer_2" data-name="Layer 2"><g id="icons"><path fill="currentColor" d="M0 0h96v96H0z"/><path class="cls-2" d="M32.8 48h30.4M41.51 40.6h14.98M71.26 21.57a2.12 2.12 0 0 1 2.11 2.12v59.2A2.12 2.12 0 0 1 71.26 85H27.91a5.29 5.29 0 0 1-5.28-5.29V16.29"/><path class="cls-2" d="M71.85 21.57H27.91a5.29 5.29 0 0 1-5.28-5.28A5.29 5.29 0 0 1 27.91 11H66a11.07 11.07 0 0 0 5.88 10.66"/></g></g></svg>