<svg xmlns="http://www.w3.org/2000/svg" viewBox="0 0 96 96"><defs><style>.cls-2{fill:none;stroke:#00008f;stroke-linecap:round;stroke-linejoin:round;stroke-width:2px}</style></defs><g id="Layer_2" ><g id="icons"><path fill="currentColor" d="M0 0h96v96H0z"/><path class="cls-2" d="M41 57H8M41 62h-7M25 77c4.41 0 7-10 7-10M22 77h22"/><path class="cls-2" d="M41 67H12a4 4 0 0 1-4-4V24a4 4 0 0 1 4-4h52a4 4 0 0 1 4 4v3"/><path class="cls-2" d="M70 77H44a3 3 0 0 1-3-3V30a3 3 0 0 1 3-3h28a3 3 0 0 1 3 3v8M68 67H41M75 33H41M62 72h-8M88 69H68M88 43H68M79 73h-2"/><rect class="cls-2" x="68" y="38" width="20" height="39" rx="2"/></g></g></svg>