<svg xmlns="http://www.w3.org/2000/svg" viewBox="0 0 96 96"><defs><style>.cls-1{fill:#fff;}.cls-2{fill:none;stroke:#00008f;stroke-linecap:round;stroke-linejoin:round;stroke-width:2px;}</style></defs><title>Breakpoint</title><g id="Layer_2" data-name="Layer 2"><g id="icons"><rect class="cls-1" width="96" height="96"/><line class="cls-2" x1="41" y1="57" x2="8" y2="57"/><line class="cls-2" x1="41" y1="62" x2="34" y2="62"/><path class="cls-2" d="M25,77c4.41,0,7-10,7-10"/><line class="cls-2" x1="22" y1="77" x2="44" y2="77"/><path class="cls-2" d="M41,67H12a4,4,0,0,1-4-4V24a4,4,0,0,1,4-4H64a4,4,0,0,1,4,4v3"/><path class="cls-2" d="M70,77H44a3,3,0,0,1-3-3V30a3,3,0,0,1,3-3H72a3,3,0,0,1,3,3v8"/><line class="cls-2" x1="68" y1="67" x2="41" y2="67"/><line class="cls-2" x1="75" y1="33" x2="41" y2="33"/><line class="cls-2" x1="62" y1="72" x2="54" y2="72"/><line class="cls-2" x1="88" y1="69" x2="68" y2="69"/><line class="cls-2" x1="88" y1="43" x2="68" y2="43"/><line class="cls-2" x1="79" y1="73" x2="77" y2="73"/><rect class="cls-2" x="68" y="38" width="20" height="39" rx="2"/></g></g></svg>