<svg xmlns="http://www.w3.org/2000/svg" viewBox="0 0 96 96"><g fill="none" stroke="#00008f" stroke-linecap="round" stroke-linejoin="round" stroke-width="2"><path d="M69 80H18a2 2 0 0 1-2-2V20a2 2 0 0 1 2-2h11m38 0h11a2 2 0 0 1 2 2v49M35 18h26M16 30h64m-39-6h14"/><rect x="29" y="12" width="6" height="12" rx="3"/><rect x="61" y="12" width="6" height="12" rx="3"/><path d="M69 80v-9a2 2 0 0 1 2-2h9z"/><rect x="23" y="37" width="8" height="8" rx="4"/><rect x="37" y="37" width="8" height="8" rx="4"/><rect x="51" y="37" width="8" height="8" rx="4"/><rect x="65" y="37" width="8" height="8" rx="4"/><rect x="23" y="51" width="8" height="8" rx="4"/><rect x="37" y="51" width="8" height="8" rx="4"/><rect x="51" y="51" width="8" height="8" rx="4"/><rect x="65" y="51" width="8" height="8" rx="4"/><rect x="23" y="65" width="8" height="8" rx="4"/><rect x="37" y="65" width="8" height="8" rx="4"/><rect x="51" y="65" width="8" height="8" rx="4"/></g></svg>