<svg xmlns="http://www.w3.org/2000/svg" viewBox="0 0 96 96"><defs><style>.cls-2{fill:none;stroke:#00008f;stroke-linecap:round;stroke-linejoin:round;stroke-width:2px}</style></defs><g id="Layer_2" ><g id="icons"><path fill="currentColor" d="M0 0h96v96H0z"/><path class="cls-2" d="M69 80H18a2 2 0 0 1-2-2V20a2 2 0 0 1 2-2h11M67 18h11a2 2 0 0 1 2 2v49M35 18h26M16 30h64M41 24h14"/><rect class="cls-2" x="29" y="12" width="6" height="12" rx="3"/><rect class="cls-2" x="61" y="12" width="6" height="12" rx="3"/><path class="cls-2" d="M69 80v-9a2 2 0 0 1 2-2h9z"/><rect class="cls-2" x="23" y="37" width="8" height="8" rx="4"/><rect class="cls-2" x="37" y="37" width="8" height="8" rx="4"/><rect class="cls-2" x="51" y="37" width="8" height="8" rx="4"/><rect class="cls-2" x="65" y="37" width="8" height="8" rx="4"/><rect class="cls-2" x="23" y="51" width="8" height="8" rx="4"/><rect class="cls-2" x="37" y="51" width="8" height="8" rx="4"/><rect class="cls-2" x="51" y="51" width="8" height="8" rx="4"/><rect class="cls-2" x="65" y="51" width="8" height="8" rx="4"/><rect class="cls-2" x="23" y="65" width="8" height="8" rx="4"/><rect class="cls-2" x="37" y="65" width="8" height="8" rx="4"/><rect class="cls-2" x="51" y="65" width="8" height="8" rx="4"/></g></g></svg>