<svg xmlns="http://www.w3.org/2000/svg" viewBox="0 0 96 96"><defs><style>.cls-1{fill:#fff;}.cls-2{fill:none;stroke:#00008f;stroke-linecap:round;stroke-linejoin:round;stroke-width:2px;}</style></defs><title>Calendar</title><g id="Layer_2" data-name="Layer 2"><g id="icons"><rect class="cls-1" width="96" height="96"/><path class="cls-2" d="M69,80H18a2,2,0,0,1-2-2V20a2,2,0,0,1,2-2H29"/><path class="cls-2" d="M67,18H78a2,2,0,0,1,2,2V69"/><line class="cls-2" x1="35" y1="18" x2="61" y2="18"/><line class="cls-2" x1="16" y1="30" x2="80" y2="30"/><line class="cls-2" x1="41" y1="24" x2="55" y2="24"/><rect class="cls-2" x="29" y="12" width="6" height="12" rx="3"/><rect class="cls-2" x="61" y="12" width="6" height="12" rx="3"/><path class="cls-2" d="M69,80V71a2,2,0,0,1,2-2h9Z"/><rect class="cls-2" x="23" y="37" width="8" height="8" rx="4"/><rect class="cls-2" x="37" y="37" width="8" height="8" rx="4"/><rect class="cls-2" x="51" y="37" width="8" height="8" rx="4"/><rect class="cls-2" x="65" y="37" width="8" height="8" rx="4"/><rect class="cls-2" x="23" y="51" width="8" height="8" rx="4"/><rect class="cls-2" x="37" y="51" width="8" height="8" rx="4"/><rect class="cls-2" x="51" y="51" width="8" height="8" rx="4"/><rect class="cls-2" x="65" y="51" width="8" height="8" rx="4"/><rect class="cls-2" x="23" y="65" width="8" height="8" rx="4"/><rect class="cls-2" x="37" y="65" width="8" height="8" rx="4"/><rect class="cls-2" x="51" y="65" width="8" height="8" rx="4"/></g></g></svg>