<svg xmlns="http://www.w3.org/2000/svg" viewBox="0 0 96 96"><defs><style>.cls-1{fill:#fff;}.cls-2{fill:none;stroke:#00008f;stroke-linecap:round;stroke-linejoin:round;stroke-width:2px;}</style></defs><title>Check List</title><g id="Layer_2" data-name="Layer 2"><g id="icons"><rect class="cls-1" width="96" height="96"/><path class="cls-2" d="M62,20.47V9H22.33A2.31,2.31,0,0,0,20,11.29V84.71A2.31,2.31,0,0,0,22.33,87H73.67A2.32,2.32,0,0,0,76,84.71V22.76H64.33A2.3,2.3,0,0,1,62,20.47Z"/><line class="cls-2" x1="62" y1="9" x2="76" y2="22.76"/><line class="cls-2" x1="48.16" y1="30.44" x2="65.81" y2="30.44"/><polyline class="cls-2" points="39.16 27.59 33.01 33.29 30.18 29.66"/><line class="cls-2" x1="48.16" y1="41.07" x2="65.81" y2="41.07"/><polyline class="cls-2" points="39.16 38.21 33.01 43.92 30.18 40.29"/><line class="cls-2" x1="48.16" y1="51.69" x2="65.81" y2="51.69"/><polyline class="cls-2" points="39.16 48.84 33.01 54.54 30.18 50.91"/><line class="cls-2" x1="48.16" y1="63.44" x2="65.81" y2="63.44"/><polyline class="cls-2" points="39.16 60.59 33.01 66.29 30.18 62.66"/><line class="cls-2" x1="48.16" y1="75.19" x2="65.81" y2="75.19"/><polyline class="cls-2" points="39.16 72.34 33.01 78.04 30.18 74.42"/></g></g></svg>