<svg xmlns="http://www.w3.org/2000/svg" viewBox="0 0 96 96"><defs><style>.cls-1{fill:#fff;}.cls-2{fill:none;stroke:#00008f;stroke-linecap:round;stroke-linejoin:round;stroke-width:2px;}</style></defs><title>Clock</title><g id="Layer_2" data-name="Layer 2"><g id="icons"><rect class="cls-1" width="96" height="96"/><circle class="cls-2" cx="48" cy="48" r="33"/><circle class="cls-2" cx="48" cy="48" r="4"/><line class="cls-2" x1="48" y1="21" x2="48" y2="28"/><line class="cls-2" x1="38" y1="38" x2="45.17" y2="45.17"/><line class="cls-2" x1="29" y1="29" x2="30" y2="30"/><line class="cls-2" x1="67" y1="29" x2="66" y2="30"/><line class="cls-2" x1="29" y1="67" x2="30" y2="66"/><line class="cls-2" x1="67" y1="67" x2="66" y2="66"/><line class="cls-2" x1="23.18" y1="37.72" x2="24.48" y2="38.26"/><line class="cls-2" x1="58.28" y1="23.18" x2="57.74" y2="24.48"/><line class="cls-2" x1="37.72" y1="72.82" x2="38.26" y2="71.52"/><line class="cls-2" x1="72.82" y1="58.28" x2="71.52" y2="57.74"/><line class="cls-2" x1="37.72" y1="23.18" x2="38.26" y2="24.48"/><line class="cls-2" x1="72.82" y1="37.72" x2="71.52" y2="38.26"/><line class="cls-2" x1="23.18" y1="58.28" x2="24.48" y2="57.74"/><line class="cls-2" x1="58.28" y1="72.82" x2="57.74" y2="71.52"/><line class="cls-2" x1="61" y1="35" x2="50.83" y2="45.17"/><line class="cls-2" x1="48" y1="68" x2="48" y2="75"/><line class="cls-2" x1="28" y1="48" x2="21" y2="48"/><line class="cls-2" x1="75" y1="48" x2="68" y2="48"/></g></g></svg>