<svg xmlns="http://www.w3.org/2000/svg" viewBox="0 0 96 96"><g fill="none" stroke="currentColor" stroke-linecap="round" stroke-linejoin="round" stroke-width="2"><circle cx="48" cy="48" r="33"/><circle cx="48" cy="48" r="4"/><path d="M48 21v7M38 38l7.17 7.17M29 29l1 1m37-1l-1 1M29 67l1-1m37 1l-1-1M23.18 37.72l1.3.54m33.8-15.08l-.54 1.3M37.72 72.82l.54-1.3m34.56-13.24l-1.3-.54m-33.8-34.56l.54 1.3m34.56 13.24l-1.3.54M23.18 58.28l1.3-.54m33.8 15.08l-.54-1.3M61 35L50.83 45.17M48 68v7M28 48h-7m54 0h-7"/></g></svg>