<svg xmlns="http://www.w3.org/2000/svg" viewBox="0 0 96 96"><defs><style>.cls-2{fill:none;stroke:#00008f;stroke-linecap:round;stroke-linejoin:round;stroke-width:2px}</style></defs><g id="Layer_2" ><g id="icons"><circle class="cls-2" cx="48" cy="48" r="33"/><circle class="cls-2" cx="48" cy="48" r="4"/><path class="cls-2" d="M48 21v7M38 38l7.17 7.17M29 29l1 1M67 29l-1 1M29 67l1-1M67 67l-1-1M23.18 37.72l1.3.54M58.28 23.18l-.54 1.3M37.72 72.82l.54-1.3M72.82 58.28l-1.3-.54M37.72 23.18l.54 1.3M72.82 37.72l-1.3.54M23.18 58.28l1.3-.54M58.28 72.82l-.54-1.3M61 35L50.83 45.17M48 68v7M28 48h-7M75 48h-7"/></g></g></svg>