<svg xmlns="http://www.w3.org/2000/svg" viewBox="0 0 96 96"><defs><style>.cls-2{fill:none;stroke:#00008f;stroke-linecap:round;stroke-linejoin:round;stroke-width:2px}</style></defs><g id="Layer_2" data-name="Layer 2"><g id="icons"><path fill="currentColor" d="M0 0h96v96H0z"/><rect class="cls-2" x="33.89" y="32.07" width="28.21" height="18.8" rx="1.76"/><path class="cls-2" d="M39.13 31.2v-2.35a9.13 9.13 0 0 1 9.13-9.13 9.13 9.13 0 0 1 9.13 9.13v2.35M48 45.9v-3.31"/><circle class="cls-2" cx="48" cy="39.31" r="2.28"/><rect class="cls-2" x="8" y="14" width="80" height="54.88" rx="4"/><path class="cls-2" d="M88 56.95H8M51.53 62.91h-7.06M31.53 82c5.88 0 8.23-13.12 8.23-13.12M64.47 82c-5.88 0-8.23-13.12-8.23-13.12M26.82 82h42.36"/></g></g></svg>