<svg xmlns="http://www.w3.org/2000/svg" viewBox="0 0 96 96"><defs><style>.cls-2{fill:none;stroke:#00008f;stroke-linecap:round;stroke-linejoin:round;stroke-width:2px}</style></defs><g id="Layer_2" data-name="Layer 2"><g id="icons"><path fill="currentColor" d="M0 0h96v96H0z"/><path class="cls-2" d="M35.1 21.47h25.8v61.61H35.1z"/><circle class="cls-2" cx="54.82" cy="27.51" r="1.99"/><circle class="cls-2" cx="48" cy="27.51" r="1.99"/><circle class="cls-2" cx="41.18" cy="27.51" r="1.99"/><circle class="cls-2" cx="54.82" cy="37.42" r="1.99"/><circle class="cls-2" cx="48" cy="37.42" r="1.99"/><circle class="cls-2" cx="41.18" cy="37.41" r="1.99"/><circle class="cls-2" cx="54.82" cy="47.33" r="1.99"/><circle class="cls-2" cx="48" cy="47.33" r="1.99"/><circle class="cls-2" cx="41.19" cy="47.32" r="1.99"/><circle class="cls-2" cx="54.82" cy="57.24" r="1.99"/><circle class="cls-2" cx="48" cy="57.24" r="1.99"/><circle class="cls-2" cx="41.18" cy="57.23" r="1.99"/><path class="cls-2" d="M51.75 69.63v13.1M44.26 69.63v13.1M54.56 69.63H41.45M39.6 17.51h16.8v3.95H39.6zM48 12.92v4.31"/></g></g></svg>