<svg xmlns="http://www.w3.org/2000/svg" viewBox="0 0 96 96"><defs><style>.cls-1{fill:#fff;}.cls-2{fill:none;stroke:#00008f;stroke-linecap:round;stroke-linejoin:round;stroke-width:2px;}</style></defs><title>Company</title><g id="Layer_2" data-name="Layer 2"><g id="icons"><rect class="cls-1" width="96" height="96"/><rect class="cls-2" x="35.1" y="21.47" width="25.8" height="61.61"/><circle class="cls-2" cx="54.82" cy="27.51" r="1.99"/><circle class="cls-2" cx="48" cy="27.51" r="1.99"/><circle class="cls-2" cx="41.18" cy="27.51" r="1.99"/><circle class="cls-2" cx="54.82" cy="37.42" r="1.99"/><circle class="cls-2" cx="48" cy="37.42" r="1.99"/><circle class="cls-2" cx="41.18" cy="37.41" r="1.99"/><circle class="cls-2" cx="54.82" cy="47.33" r="1.99"/><circle class="cls-2" cx="48" cy="47.33" r="1.99"/><circle class="cls-2" cx="41.19" cy="47.32" r="1.99"/><circle class="cls-2" cx="54.82" cy="57.24" r="1.99"/><circle class="cls-2" cx="48" cy="57.24" r="1.99"/><circle class="cls-2" cx="41.18" cy="57.23" r="1.99"/><line class="cls-2" x1="51.75" y1="69.63" x2="51.75" y2="82.73"/><line class="cls-2" x1="44.26" y1="69.63" x2="44.26" y2="82.73"/><line class="cls-2" x1="54.56" y1="69.63" x2="41.45" y2="69.63"/><rect class="cls-2" x="39.6" y="17.51" width="16.8" height="3.95"/><line class="cls-2" x1="48" y1="12.92" x2="48" y2="17.23"/></g></g></svg>