<svg xmlns="http://www.w3.org/2000/svg" viewBox="0 0 96 96"><defs><style>.cls-1{fill:#fff;}.cls-2{fill:none;stroke:#00008f;stroke-linecap:round;stroke-linejoin:round;stroke-width:2px;}</style></defs><title>Computer Secure</title><g id="Layer_2" data-name="Layer 2"><g id="icons"><rect class="cls-1" width="96" height="96"/><rect class="cls-2" x="33.89" y="32.07" width="28.21" height="18.8" rx="1.76"/><path class="cls-2" d="M39.13,31.2V28.85a9.13,9.13,0,0,1,9.13-9.13h0a9.13,9.13,0,0,1,9.13,9.13V31.2"/><line class="cls-2" x1="48" y1="45.9" x2="48" y2="42.59"/><circle class="cls-2" cx="48" cy="39.31" r="2.28"/><rect class="cls-2" x="8" y="14" width="80" height="54.88" rx="4"/><line class="cls-2" x1="88" y1="56.95" x2="8" y2="56.95"/><line class="cls-2" x1="51.53" y1="62.91" x2="44.47" y2="62.91"/><path class="cls-2" d="M31.53,82c5.88,0,8.23-13.12,8.23-13.12"/><path class="cls-2" d="M64.47,82c-5.88,0-8.23-13.12-8.23-13.12"/><line class="cls-2" x1="26.82" y1="82" x2="69.18" y2="82"/></g></g></svg>