<svg xmlns="http://www.w3.org/2000/svg" viewBox="0 0 96 96"><g data-name="Calque 2"><g data-name="Emploi blanc cercle" fill="none" stroke="#00008f" stroke-linecap="round" stroke-linejoin="round" stroke-width="2"><path d="M69.49 24.47v53.88A3.5 3.5 0 0 1 66 81.84H30a3.5 3.5 0 0 1-3.49-3.49v-60.7A3.5 3.5 0 0 1 30 14.16h29"/><path d="M53.88 72.43l2.83 3.65a1.2 1.2 0 0 0 1.69.19 1.14 1.14 0 0 0 .19-.19l5.6-7m5.3-44.61h-8.6A1.86 1.86 0 0 1 59 22.64v-8.48zm-37.99-1.4h14.62m4.48 6.29h14.62M30.78 43.59h34.44M30.78 48h34.44m-34.44 4.89h34.44"/></g></g></svg>