<svg xmlns="http://www.w3.org/2000/svg" viewBox="0 0 96 96"><defs><style>.cls-1{fill:#fff;}.cls-2{fill:none;stroke:#00008f;stroke-linecap:round;stroke-linejoin:round;stroke-width:2px;}</style></defs><title>Contract</title><g id="Layer_2" data-name="Layer 2"><g id="icons"><rect class="cls-1" width="96" height="96"/><g id="Calque_2" data-name="Calque 2"><g id="Emploi_blanc_cercle" data-name="Emploi blanc cercle"><path class="cls-2" d="M69.49,24.47V78.35A3.5,3.5,0,0,1,66,81.84H30a3.5,3.5,0,0,1-3.49-3.49V17.65A3.5,3.5,0,0,1,30,14.16H59"/><path class="cls-2" d="M53.88,72.43l2.83,3.65a1.2,1.2,0,0,0,1.69.19,1.14,1.14,0,0,0,.19-.19l5.6-7"/><path class="cls-2" d="M69.49,24.47h-8.6A1.86,1.86,0,0,1,59,22.64V14.16Z"/><line class="cls-2" x1="31.5" y1="23.07" x2="46.12" y2="23.07"/><line class="cls-2" x1="50.6" y1="29.36" x2="65.22" y2="29.36"/><line class="cls-2" x1="30.78" y1="43.59" x2="65.22" y2="43.59"/><line class="cls-2" x1="30.78" y1="48" x2="65.22" y2="48"/><line class="cls-2" x1="30.78" y1="52.89" x2="65.22" y2="52.89"/></g></g></g></g></svg>