<svg xmlns="http://www.w3.org/2000/svg" viewBox="0 0 96 96"><defs><style>.cls-1{fill:#fff;}.cls-2{fill:none;stroke:#00008f;stroke-linecap:round;stroke-linejoin:round;stroke-width:2px;}</style></defs><title>Document</title><g id="Layer_2" data-name="Layer 2"><g id="icons"><rect class="cls-1" width="96" height="96"/><path class="cls-2" d="M60,24V14H26a2,2,0,0,0-2,2V80a2,2,0,0,0,2,2H70a2,2,0,0,0,2-2V26H62A2,2,0,0,1,60,24Z"/><line class="cls-2" x1="60" y1="14" x2="72" y2="26"/><line class="cls-2" x1="32" y1="23" x2="46" y2="23"/><line class="cls-2" x1="32" y1="29" x2="40" y2="29"/><line class="cls-2" x1="32" y1="43" x2="64" y2="43"/><line class="cls-2" x1="32" y1="49" x2="64" y2="49"/><line class="cls-2" x1="32" y1="55" x2="64" y2="55"/><line class="cls-2" x1="32" y1="61" x2="48" y2="61"/></g></g></svg>