<svg xmlns="http://www.w3.org/2000/svg" viewBox="0 0 96 96"><defs><style>.cls-2{fill:none;stroke:#00008f;stroke-linecap:round;stroke-linejoin:round;stroke-width:2px}</style></defs><g id="Layer_2" ><g id="icons"><path class="cls-2" d="M79 59.5v17a2.5 2.5 0 0 1-2.5 2.5h-57a2.5 2.5 0 0 1-2.5-2.5v-17a2.5 2.5 0 0 1 2.5-2.5 2.5 2.5 0 0 1 2.5 2.5V74h52V59.5a2.5 2.5 0 0 1 2.5-2.5 2.5 2.5 0 0 1 2.5 2.5z"/><path class="cls-2" d="M67.5 40.5a3.54 3.54 0 0 0-5 0L52 51V19a4 4 0 0 0-8 0v32L33.5 40.5a3.54 3.54 0 0 0-5 5l17 17a3.54 3.54 0 0 0 5 0l17-17a3.54 3.54 0 0 0 0-5z"/></g></g></svg>