<svg xmlns="http://www.w3.org/2000/svg" viewBox="0 0 96 96"><defs><style>.cls-2{fill:#00008f}</style></defs><g id="Layer_2" data-name="Layer 2"><g id="icons"><path fill="#fff" d="M0 0h96v96H0z"/><path class="cls-2" d="M35.54 90.28a1.12 1.12 0 0 1-1.12-1.11 1.1 1.1 0 0 1 .36-.83 48.07 48.07 0 0 0 15.67-29.75 1.12 1.12 0 0 1 1.12-1h.13a1.06 1.06 0 0 1 .75.42 1.13 1.13 0 0 1 .24.83 50.3 50.3 0 0 1-16.44 31.09 1 1 0 0 1-.62.35z"/><path class="cls-2" d="M28.31 87.45a1.12 1.12 0 0 1-.85-1.33v-.06a4.86 4.86 0 0 1 1.45-2.55c10.56-9.31 15.68-22.13 14.05-35.18a4.88 4.88 0 0 1 4.18-5.45 4.4 4.4 0 0 1 .62 0 4.89 4.89 0 0 1 4.83 4.22 49 49 0 0 1 .37 6.74 1.14 1.14 0 0 1-1.14 1.1 1.11 1.11 0 0 1-.79-.35 1.08 1.08 0 0 1-.31-.8 49.1 49.1 0 0 0-.36-6.41A2.67 2.67 0 0 0 47.68 45a1.83 1.83 0 0 0-.33 0A2.65 2.65 0 0 0 45 48c1.87 13.79-3.46 27.35-14.62 37.2a2.6 2.6 0 0 0-.83 1.39 1.1 1.1 0 0 1-1.07.88h-.21zM40.59 91.46a1.12 1.12 0 0 1-1.09-1.11 1.1 1.1 0 0 1 .32-.79A54.46 54.46 0 0 0 50.12 75a1.12 1.12 0 0 1 1-.63 1 1 0 0 1 .49.11 1.12 1.12 0 0 1 .52 1.5 56.81 56.81 0 0 1-10.71 15.2 1.19 1.19 0 0 1-.75.28z"/><path class="cls-2" d="M53.16 71.9a1.07 1.07 0 0 1-.79-.33 1.11 1.11 0 0 1-.33-.79 1 1 0 0 1 .07-.38 50.1 50.1 0 0 0 2.68-23.56 7 7 0 0 0-7-6.15 6.51 6.51 0 0 0-.88.06 7 7 0 0 0-6.1 7.83 36.88 36.88 0 0 1 0 9.62 1.12 1.12 0 0 1-1.11 1h-.16a1.13 1.13 0 0 1-1-1.27 35 35 0 0 0 0-9 9.28 9.28 0 0 1 8.05-10.34 8.88 8.88 0 0 1 1.15-.07A9.28 9.28 0 0 1 57 46.57a52.2 52.2 0 0 1-2.8 24.61 1.14 1.14 0 0 1-1 .72zM24.56 85.3a1.13 1.13 0 0 1-1.1-1.11 1.16 1.16 0 0 1 .08-.42A9.15 9.15 0 0 1 26 80.19a38.34 38.34 0 0 0 11.58-17.56 1.14 1.14 0 0 1 1.09-.82 1.55 1.55 0 0 1 .31 0 1.15 1.15 0 0 1 .69.55 1.1 1.1 0 0 1 .1.87 40.37 40.37 0 0 1-12.21 18.66 7 7 0 0 0-1.89 2.68 1.12 1.12 0 0 1-1.05.73zM46.11 92A1.12 1.12 0 0 1 45 90.87a1.09 1.09 0 0 1 .28-.73 59.3 59.3 0 0 0 4.54-5.84 1.15 1.15 0 0 1 .93-.49 1.17 1.17 0 0 1 .63.19 1.08 1.08 0 0 1 .47.72 1.09 1.09 0 0 1-.17.84A62.6 62.6 0 0 1 47 91.62a1.12 1.12 0 0 1-.84.38z"/><path class="cls-2" d="M53.24 82a1.34 1.34 0 0 1-.49-.15 1.14 1.14 0 0 1-.42-1.53 54.93 54.93 0 0 0 6.83-34 11.41 11.41 0 0 0-11.3-10 13.86 13.86 0 0 0-1.43.08 11.54 11.54 0 0 0-5.36 2.15 1.13 1.13 0 0 1-.72.26 1.13 1.13 0 0 1-1.12-1.17 1.16 1.16 0 0 1 .36-.78 1.1 1.1 0 0 1 .21-.14 13.4 13.4 0 0 1 8-2.64A13.64 13.64 0 0 1 61.39 46a57.18 57.18 0 0 1-7.1 35.43 1.11 1.11 0 0 1-1 .56zM21 82.6a1 1 0 0 1-.48-.12A1.12 1.12 0 0 1 20 81a13.58 13.58 0 0 1 3.14-4.06C28 72.62 36 63.32 34.24 49.41a13.61 13.61 0 0 1 1.88-8.79 1.11 1.11 0 0 1 1-.58 1.12 1.12 0 0 1 1.07.77 1.14 1.14 0 0 1-.06.85c0 .06-.07.11-.1.16a11.31 11.31 0 0 0-1.55 7.31C38.31 64 29.81 74 24.58 78.62A11.22 11.22 0 0 0 22 82a1.15 1.15 0 0 1-1 .57z"/><path class="cls-2" d="M51 92a1.13 1.13 0 0 1-.7-.25 1.12 1.12 0 0 1-.17-1.56 59.22 59.22 0 0 0 12.72-44.37 14.91 14.91 0 0 0-1.35-4.61 1.14 1.14 0 0 1 .62-1.49 1.15 1.15 0 0 1 .41-.08 1.13 1.13 0 0 1 1 .57 17.5 17.5 0 0 1 1.56 5.34 61.43 61.43 0 0 1-13.15 46 1.11 1.11 0 0 1-.87.41zM27.83 68.38a1.12 1.12 0 0 1-1.09-1.11 1.21 1.21 0 0 1 .16-.59 25.57 25.57 0 0 0 3.69-16.82 17.42 17.42 0 0 1 15.18-19.37 18.5 18.5 0 0 1 2.1-.13 17.48 17.48 0 0 1 12.66 5.47 1.13 1.13 0 0 1 0 1.57 1.12 1.12 0 0 1-1.58.05l-.1-.11a15.28 15.28 0 0 0-11.05-4.79 14.68 14.68 0 0 0-1.87.12 15.17 15.17 0 0 0-13.16 16.92 27.91 27.91 0 0 1-3.94 18.32 1.15 1.15 0 0 1-.92.48zM18.08 80.12a1.14 1.14 0 0 1-.57-.16 1.11 1.11 0 0 1-.4-1.52 17.36 17.36 0 0 1 3.54-4.32 33.38 33.38 0 0 0 3.62-3.71 1.13 1.13 0 0 1 .86-.4 1.12 1.12 0 0 1 .87 1.84 35.56 35.56 0 0 1-3.8 4 15.08 15.08 0 0 0-3.2 3.71 1.15 1.15 0 0 1-1 .56zM57.14 91.07a1.12 1.12 0 0 1-.87-1.77 63.55 63.55 0 0 0 9.63-21.22 1.14 1.14 0 0 1 1.1-.87.75.75 0 0 1 .26 0 1.14 1.14 0 0 1 .85 1.37 65.83 65.83 0 0 1-10 22 1.14 1.14 0 0 1-.92.47z"/><path class="cls-2" d="M67.86 64.78a1.14 1.14 0 0 1-1-1.3 63.08 63.08 0 0 0 .35-18.2 19.54 19.54 0 0 0-38.77.28 1.12 1.12 0 0 1-1.11 1h-.13a1.12 1.12 0 0 1-1-1.24A21.75 21.75 0 0 1 47.83 26a22.91 22.91 0 0 1 2.48.14 21.74 21.74 0 0 1 19.16 18.92 65.36 65.36 0 0 1-.37 18.84 1.13 1.13 0 0 1-1.09.88zM14.91 76.89a1.18 1.18 0 0 1-.61-.18 1.13 1.13 0 0 1-.3-1.55 21.32 21.32 0 0 1 3.77-4.32c3.69-3.28 9.71-10.29 8.45-20.41a1.11 1.11 0 0 1 1-1.25h.16a1.11 1.11 0 0 1 1.09.94c1.42 11.33-5.15 18.9-9.18 22.41a19.81 19.81 0 0 0-3.39 3.86 1.13 1.13 0 0 1-.91.51zM63.68 89.07a1.13 1.13 0 0 1-1.12-1.13 1.19 1.19 0 0 1 .15-.55 68.6 68.6 0 0 0 3.61-7.1 1.1 1.1 0 0 1 1.05-.74 1.2 1.2 0 0 1 .33 0 1.14 1.14 0 0 1 .74 1.45 1.47 1.47 0 0 1-.1.22 68.73 68.73 0 0 1-3.76 7.28 1.11 1.11 0 0 1-.85.56zM69.27 77a1.12 1.12 0 0 1-1.11-1.12 1.21 1.21 0 0 1 .06-.38 66.94 66.94 0 0 0 3.31-30.78 1.12 1.12 0 0 1 1-1.26h.14a1.13 1.13 0 0 1 1.12 1 69.22 69.22 0 0 1-3.41 31.82 1.1 1.1 0 0 1-1.06.76z"/><path class="cls-2" d="M71.21 39.89a1.12 1.12 0 0 1-1-.72 24 24 0 0 0-30.97-13.82 23.78 23.78 0 0 0-3.52 1.7 1.17 1.17 0 0 1-.51.12 1.12 1.12 0 0 1-.66-2 26.14 26.14 0 0 1 35.83 9.35 25.48 25.48 0 0 1 1.86 3.87 1.12 1.12 0 0 1-.64 1.45 1.36 1.36 0 0 1-.38.08zM12.15 73.22A1.12 1.12 0 0 1 11 72.1a1.07 1.07 0 0 1 .23-.67 26.2 26.2 0 0 1 3.6-3.84c3.72-3.33 8-8.92 7-16.57a26.09 26.09 0 0 1 7.79-22.15 1.1 1.1 0 0 1 .78-.32 1.12 1.12 0 0 1 .78 1.93 23.83 23.83 0 0 0-7.12 20.18c1.09 8.72-3.61 14.89-7.74 18.54A23.66 23.66 0 0 0 13 72.76a1.16 1.16 0 0 1-.87.46zM70.53 85.65a1.12 1.12 0 0 1-1.12-1.12 1.09 1.09 0 0 1 .11-.49 71.26 71.26 0 0 0 6.33-21 1.13 1.13 0 0 1 1.12-1h.12a1.14 1.14 0 0 1 1 1.26A73.49 73.49 0 0 1 71.54 85a1.13 1.13 0 0 1-1 .64z"/><path class="cls-2" d="M77.37 59.33a1.12 1.12 0 0 1-1-1.19A72.89 72.89 0 0 0 76 44.21 28.33 28.33 0 0 0 53.67 20a1.13 1.13 0 0 1 .23-2.24h.24a30.57 30.57 0 0 1 24 26.15 74.82 74.82 0 0 1 .4 14.35 1.11 1.11 0 0 1-1.12 1zM9.69 69.26a1.12 1.12 0 0 1-1.11-1.13 1.21 1.21 0 0 1 .26-.71A32.11 32.11 0 0 1 12 64.25c2.94-2.58 6.28-6.9 5.55-12.75A30.53 30.53 0 0 1 47.8 17.12h.82a1.13 1.13 0 0 1 .78.35 1.08 1.08 0 0 1 .31.8 1.1 1.1 0 0 1-1.07 1.1h-.73a27.09 27.09 0 0 0-3.6.23 28.33 28.33 0 0 0-24.64 31.55C20.53 58 16.73 63 13.38 65.93a30.17 30.17 0 0 0-2.83 2.93 1.11 1.11 0 0 1-.85.4z"/><path class="cls-2" d="M77.14 80.35h-.08a1.12 1.12 0 0 1-.63-.58 1.07 1.07 0 0 1 0-.86 75.65 75.65 0 0 0 3.87-35.2A32.54 32.54 0 0 0 73.16 27a1.12 1.12 0 1 1 1.75-1.41 34.85 34.85 0 0 1 7.62 17.81 77.88 77.88 0 0 1-4 36.22 1.13 1.13 0 0 1-1.06.73zM13.92 50.38a1.12 1.12 0 0 1-1-1.06A34.93 34.93 0 0 1 46.19 12.8h1.63a34.86 34.86 0 0 1 23.53 9.12 1.13 1.13 0 0 1 .15 1.56 1.14 1.14 0 0 1-.88.42 1.13 1.13 0 0 1-.7-.25l-.09-.08a32.66 32.66 0 0 0-46.15 2.09 32.9 32.9 0 0 0-8.52 23.61 1.11 1.11 0 0 1-1.07 1.17H14zM7.64 65a1.12 1.12 0 0 1-.78-.34 1.14 1.14 0 0 1 0-1.54c.7-.74 1.44-1.46 2.2-2.13 3.12-2.75 4.5-5.76 4.11-8.92a1.16 1.16 0 0 1 .23-.83 1.1 1.1 0 0 1 .75-.42h.14a1.11 1.11 0 0 1 1.11 1c.5 3.94-1.13 7.6-4.84 10.87-.71.62-1.4 1.29-2.06 2a1.14 1.14 0 0 1-.81.34zM84.25 71.84h-.06a1.12 1.12 0 0 1-.85-1.34v-.06a80.45 80.45 0 0 0 1.7-21.72 1.13 1.13 0 0 1 1-1.19 1.14 1.14 0 0 1 1.18 1A82.26 82.26 0 0 1 85.51 71a1.12 1.12 0 0 1-1 .88h-.25z"/><path class="cls-2" d="M85.71 44.09a1.12 1.12 0 0 1-1.11-1 37 37 0 0 0-24.71-30.44 1.12 1.12 0 0 1-.7-1.43 1.13 1.13 0 0 1 1.43-.7 39.31 39.31 0 0 1 26.2 32.32 1.12 1.12 0 0 1-1 1.25h-.14zM17.31 25.76a1.11 1.11 0 0 1-1.06-1.12 1.09 1.09 0 0 1 .23-.67A39.2 39.2 0 0 1 42.92 8.7a40 40 0 0 1 4.89-.31 39 39 0 0 1 5.4.38h.07a1.12 1.12 0 0 1 1.11 1 1.11 1.11 0 0 1-1 1.26h-.16a1 1 0 0 1-.42-.08 37 37 0 0 0-5-.34 37.94 37.94 0 0 0-4.65.29 37 37 0 0 0-24.83 14.43 1.13 1.13 0 0 1-.89.43zM6.11 60.35A1.13 1.13 0 0 1 5 59.23a1.15 1.15 0 0 1 .37-.84l.8-.72c3-2.64 2.74-4.49 2.66-5.09a39 39 0 0 1 3.93-22.65 1.14 1.14 0 0 1 1-.58 1.21 1.21 0 0 1 .58.16 1.13 1.13 0 0 1 .45 1.39A36.87 36.87 0 0 0 11 52.29c.11.92.44 3.67-3.39 7l-.78.7a1.12 1.12 0 0 1-.74.32z"/><path class="cls-2" d="M90.24 53.93v-.15a1.11 1.11 0 0 1-.62-1 87.09 87.09 0 0 0-.68-10.21A41.5 41.5 0 0 0 32.52 9.16a1.15 1.15 0 0 1-.41.08 1.13 1.13 0 0 1-1.05-.71 1.09 1.09 0 0 1 0-.85 1.06 1.06 0 0 1 .61-.6 44.07 44.07 0 0 1 10.7-2.74 43.66 43.66 0 0 1 48.77 38 91.09 91.09 0 0 1 .7 10.52 1.12 1.12 0 0 1-1.12 1.12zM5.57 54.35a1.24 1.24 0 0 1-.47-.11 1.19 1.19 0 0 1-.63-1v-.18a43.91 43.91 0 0 1 20.41-42.55 1.11 1.11 0 0 1 1.54.36 1.11 1.11 0 0 1-.36 1.54A41.71 41.71 0 0 0 6.68 52.85v.31a1.12 1.12 0 0 1-1 1.18h-.11zM32.16 88.27a1.13 1.13 0 0 1-1.11-1.14 1.1 1.1 0 0 1 .37-.81 48.85 48.85 0 0 0 8.68-10 1.11 1.11 0 0 1 1-.55 1.19 1.19 0 0 1 .55.15 1.12 1.12 0 0 1 .35 1.5l-.07.11A51 51 0 0 1 32.9 88a1.15 1.15 0 0 1-.73.27zM43.34 74.07a1.07 1.07 0 0 1-.52-.14 1.11 1.11 0 0 1-.48-1.49 41.33 41.33 0 0 0 4.36-24.58 1.1 1.1 0 0 1 .23-.84 1.14 1.14 0 0 1 .75-.42h.14a1.13 1.13 0 0 1 1.11 1 43.45 43.45 0 0 1-4.6 25.89 1.12 1.12 0 0 1-1 .6z"/></g></g></svg>