<svg xmlns="http://www.w3.org/2000/svg" viewBox="0 0 96 96"><defs><style>.cls-1{fill:#fff;}.cls-2{fill:#00008f;}</style></defs><title>Gauge</title><g id="Layer_2" data-name="Layer 2"><g id="cases"><rect class="cls-1" width="96" height="96"/><path class="cls-2" d="M87.48,61.62a38.48,38.48,0,0,0-76.22-.39A3.5,3.5,0,0,0,12.5,68h73a3.5,3.5,0,0,0,2-6.38ZM38.31,66H12.5a1.5,1.5,0,0,1,0-3H39A11.48,11.48,0,0,0,38.31,66Zm7.59,0a3.2,3.2,0,0,1,.36-.85,3.54,3.54,0,0,1,3.07-1.83h0a3.55,3.55,0,0,1,1.09.17,3.62,3.62,0,0,1,1.14.63A3.7,3.7,0,0,1,52.79,66Zm8.93,0a5.68,5.68,0,0,0-1.29-2.69L53.3,63a3.51,3.51,0,0,0-.5-.45,5.59,5.59,0,0,0-2-1h0a5.49,5.49,0,0,0-1.47-.2h0A5.53,5.53,0,0,0,45.39,63a5.22,5.22,0,0,0-1,1.49,4.86,4.86,0,0,0-.46,1.41.24.24,0,0,0,0,.08H40.32a9.1,9.1,0,0,1,.84-3,2.2,2.2,0,0,1,.15-.31,7.38,7.38,0,0,1,.63-1,6.14,6.14,0,0,1,.49-.65l.2-.25a9.05,9.05,0,0,1,5.26-2.9,9.24,9.24,0,0,1,1.18-.11h.27a9.28,9.28,0,0,1,1.06.06A9,9,0,0,1,56.25,61a8.41,8.41,0,0,1,1.28,2,8.89,8.89,0,0,1,.84,2.94ZM41.74,58.81,32.5,38.57s0,0,0,0l14,17.59A10.92,10.92,0,0,0,41.74,58.81Zm7.6-3.08h0l-.54,0L34.09,37.33a2.12,2.12,0,0,0-2.81-.7,2.08,2.08,0,0,0-.59,2.79l9.62,21.06A5.8,5.8,0,0,0,40,61H13.33a36.47,36.47,0,0,1,72,0H58.72A11,11,0,0,0,49.34,55.73ZM85.5,66H60.38a11.48,11.48,0,0,0-.67-3H85.5a1.5,1.5,0,0,1,0,3Z"/><path class="cls-2" d="M66.69,37.74a1,1,0,0,0-1.36.37l-2,3.46a1,1,0,0,0,.36,1.37,1,1,0,0,0,1.37-.37l2-3.46A1,1,0,0,0,66.69,37.74Z"/><path class="cls-2" d="M78.78,50.22a1,1,0,0,0-1.36-.37l-3.47,2a1,1,0,0,0,.5,1.87,1,1,0,0,0,.5-.14l3.47-2A1,1,0,0,0,78.78,50.22Z"/><path class="cls-2" d="M25.16,51.85l-3.47-2a1,1,0,0,0-1,1.74l3.47,2a1,1,0,0,0,1.37-.36A1,1,0,0,0,25.16,51.85Z"/></g></g></svg>