<svg xmlns="http://www.w3.org/2000/svg" viewBox="0 0 96 96"><defs><style>.cls-2{fill:none;stroke:#00008f;stroke-linecap:round;stroke-linejoin:round;stroke-width:2px}</style></defs><g id="Layer_2" ><path fill="currentColor" d="M0 0h96v96H0z" id="icons"/><g id="stroke_blue_2px" data-name="stroke blue 2px"><circle class="cls-2" cx="67" cy="44" r="9.45"/><path class="cls-2" d="M91 47v-6a1.45 1.45 0 0 0-1.33-1.44l-3.62-.31a19.72 19.72 0 0 0-2.2-5.31l2.34-2.77a1.46 1.46 0 0 0-.08-2l-4.28-4.28a1.46 1.46 0 0 0-2-.08l-2.77 2.34A19.72 19.72 0 0 0 71.78 25l-.31-3.62A1.45 1.45 0 0 0 70 20h-6a1.45 1.45 0 0 0-1.44 1.33L62.22 25a19.72 19.72 0 0 0-5.31 2.2l-2.77-2.34a1.46 1.46 0 0 0-2 .08l-4.28 4.28a1.46 1.46 0 0 0-.08 2l2.34 2.77A19.72 19.72 0 0 0 48 39.22l-3.62.31A1.45 1.45 0 0 0 43 41v6a1.45 1.45 0 0 0 1.33 1.44l3.62.31a19.72 19.72 0 0 0 2.2 5.31l-2.34 2.77a1.46 1.46 0 0 0 .08 2l4.28 4.28a1.46 1.46 0 0 0 2 .08l2.77-2.34a19.72 19.72 0 0 0 5.31 2.2l.31 3.62A1.45 1.45 0 0 0 64 68h6a1.45 1.45 0 0 0 1.44-1.33l.31-3.62a19.72 19.72 0 0 0 5.31-2.2l2.77 2.34a1.46 1.46 0 0 0 2-.08l4.28-4.28a1.46 1.46 0 0 0 .08-2l-2.34-2.77a19.72 19.72 0 0 0 2.2-5.31l3.62-.31A1.45 1.45 0 0 0 91 47z"/><circle class="cls-2" cx="23.35" cy="63.65" r="7.28"/><path class="cls-2" d="M40.21 71.55l1.44-4.43a1.12 1.12 0 0 0-.65-1.38l-2.58-1.08a14.77 14.77 0 0 0-.35-4.41l2.37-1.48a1.11 1.11 0 0 0 .41-1.46l-2.12-4.15a1.13 1.13 0 0 0-1.42-.52l-2.58 1.06a14.81 14.81 0 0 0-3.37-2.87l.64-2.72a1.13 1.13 0 0 0-.75-1.32l-4.43-1.44a1.12 1.12 0 0 0-1.38.64l-1.08 2.58a14.77 14.77 0 0 0-4.41.35l-1.48-2.37a1.11 1.11 0 0 0-1.47-.41l-4.14 2.12a1.12 1.12 0 0 0-.53 1.42l1.06 2.59a15.06 15.06 0 0 0-2.87 3.37L7.81 55a1.13 1.13 0 0 0-1.32.75l-1.44 4.43a1.13 1.13 0 0 0 .64 1.38l2.58 1.08a14.77 14.77 0 0 0 .35 4.41l-2.37 1.48A1.12 1.12 0 0 0 5.84 70L8 74.13a1.12 1.12 0 0 0 1.42.53L12 73.6a15.06 15.06 0 0 0 3.37 2.87l-.64 2.72a1.13 1.13 0 0 0 .75 1.32l4.4 1.49a1.13 1.13 0 0 0 1.38-.64l1.08-2.58a14.77 14.77 0 0 0 4.41-.35l1.48 2.37a1.12 1.12 0 0 0 1.46.41L33.84 79a1.13 1.13 0 0 0 .52-1.42L33.3 75a14.81 14.81 0 0 0 2.87-3.37l2.72.64a1.13 1.13 0 0 0 1.32-.72z"/></g></g></svg>