<svg xmlns="http://www.w3.org/2000/svg" viewBox="0 0 96 96"><defs><style>.cls-1{fill:#fff;}.cls-2{fill:none;stroke:#00008f;stroke-linecap:round;stroke-linejoin:round;stroke-width:2px;}</style></defs><title>Gear</title><g id="Layer_2" data-name="Layer 2"><g id="icons"><rect class="cls-1" width="96" height="96"/><path class="cls-2" d="M31.27,59A20,20,0,0,1,58.63,31.05"/><path class="cls-2" d="M67.57,43.86a20,20,0,0,1-23.7,23.71"/><circle class="cls-2" cx="48" cy="48" r="13"/><path class="cls-2" d="M81,52.16V43.84a2,2,0,0,0-1.83-2l-5-.42a26.88,26.88,0,0,0-3-7.31l3.23-3.81a2,2,0,0,0-.11-2.7l-5.89-5.89a2,2,0,0,0-2.7-.11l-3.81,3.23a26.88,26.88,0,0,0-7.31-3l-.42-5a2,2,0,0,0-2-1.83H43.84a2,2,0,0,0-2,1.83l-.42,5a26.88,26.88,0,0,0-7.31,3l-3.81-3.23a2,2,0,0,0-2.7.11l-5.89,5.89a2,2,0,0,0-.11,2.7l3.23,3.81a26.88,26.88,0,0,0-3,7.31l-5,.42a2,2,0,0,0-1.83,2v8.32a2,2,0,0,0,1.83,2l5,.42a26.88,26.88,0,0,0,3,7.31l-3.23,3.81a2,2,0,0,0,.11,2.7l5.89,5.89a2,2,0,0,0,2.7.11l3.81-3.23a26.88,26.88,0,0,0,7.31,3l.42,5a2,2,0,0,0,2,1.83h8.32a2,2,0,0,0,2-1.83l.42-5a26.88,26.88,0,0,0,7.31-3l3.81,3.23a2,2,0,0,0,2.7-.11l5.89-5.89a2,2,0,0,0,.11-2.7l-3.23-3.81a26.88,26.88,0,0,0,3-7.31l5-.42A2,2,0,0,0,81,52.16Z"/></g></g></svg>