<svg xmlns="http://www.w3.org/2000/svg" viewBox="0 0 96 96"><defs><style>.cls-1{fill:#fff;}.cls-2{fill:none;stroke:#00008f;stroke-linecap:round;stroke-linejoin:round;stroke-width:2px;}</style></defs><title>Inbox</title><g id="Layer_2" data-name="Layer 2"><g id="icons"><rect class="cls-1" width="96" height="96"/><line class="cls-2" x1="18" y1="67" x2="18" y2="60"/><path class="cls-2" d="M18.2,39.94A16.5,16.5,0,0,1,34.5,26h0A16.5,16.5,0,0,1,51,42.5V67"/><path class="cls-2" d="M34,26H67.5A16.5,16.5,0,0,1,84,42.5V72H51"/><line class="cls-2" x1="43" y1="81" x2="43" y2="72"/><line class="cls-2" x1="59" y1="72" x2="59" y2="81"/><line class="cls-2" x1="56" y1="21" x2="56" y2="31"/><rect class="cls-2" x="56" y="15" width="10" height="6"/><polyline class="cls-2" points="12 43 27 54 42 43"/><line class="cls-2" x1="12.65" y1="59.35" x2="21.81" y2="50.19"/><line class="cls-2" x1="41.36" y1="59.36" x2="32.19" y2="50.19"/><rect class="cls-2" x="12" y="40" width="30" height="20" rx="2"/><rect class="cls-2" x="15" y="67" width="39" height="5" rx="2.5"/></g></g></svg>