<svg xmlns="http://www.w3.org/2000/svg" viewBox="0 0 96 96"><defs><style>.cls-2{fill:none;stroke:#00008f;stroke-linecap:round;stroke-linejoin:round;stroke-width:2px}</style></defs><g id="Layer_2" ><g id="icons"><path fill="currentColor" d="M0 0h96v96H0z"/><path class="cls-2" d="M18 67v-7M18.2 39.94A16.5 16.5 0 0 1 34.5 26 16.5 16.5 0 0 1 51 42.5V67"/><path class="cls-2" d="M34 26h33.5A16.5 16.5 0 0 1 84 42.5V72H51M43 81v-9M59 72v9M56 21v10M56 15h10v6H56z"/><path class="cls-2" d="M12 43l15 11 15-11M12.65 59.35l9.16-9.16M41.36 59.36l-9.17-9.17"/><rect class="cls-2" x="12" y="40" width="30" height="20" rx="2"/><rect class="cls-2" x="15" y="67" width="39" height="5" rx="2.5"/></g></g></svg>