<svg xmlns="http://www.w3.org/2000/svg" viewBox="0 0 96 96"><defs><style>.cls-1{fill:#fff;}.cls-2{fill:none;stroke:#00008f;stroke-linecap:round;stroke-linejoin:round;stroke-width:2px;}</style></defs><title>Industry</title><g id="Layer_2" data-name="Layer 2"><g id="icons"><rect class="cls-1" width="96" height="96"/><g id="Calque_2" data-name="Calque 2"><g id="Entreprise_2_blanc_cercle" data-name="Entreprise 2 blanc cercle"><polygon class="cls-2" points="77.32 43.47 68.33 43.47 69.86 17.54 75.79 17.54 77.32 43.47"/><line class="cls-2" x1="69.64" y1="22.9" x2="76.01" y2="22.9"/><line class="cls-2" x1="69.64" y1="26.45" x2="76.01" y2="26.45"/><path class="cls-2" d="M19.15,18.74a1.58,1.58,0,0,0,1.09.45H34.17A1.47,1.47,0,0,0,34,20a1.55,1.55,0,0,0,1.54,1.54H54.73a1.55,1.55,0,0,0,0-3.09h-14a1.62,1.62,0,0,0,.21-.77,1.55,1.55,0,0,0-1.54-1.54H20.24a1.54,1.54,0,0,0-1.56,1.52,1.58,1.58,0,0,0,.47,1.12"/><path class="cls-2" d="M77.32,55.05V74.72c0,2.84-1.91,5.16-4.25,5.16H23c-2.34,0-4.25-2.32-4.25-5.16V55.05Z"/><rect class="cls-2" x="57.23" y="68.96" width="10.6" height="10.92"/><circle class="cls-2" cx="31.31" cy="69.65" r="3.36"/><circle class="cls-2" cx="44.62" cy="69.65" r="3.36"/><rect class="cls-2" x="18.7" y="43.47" width="58.62" height="11.58"/></g></g></g></g></svg>