<svg xmlns="http://www.w3.org/2000/svg" viewBox="0 0 96 96"><defs><style>.cls-2{fill:none;stroke:#00008f;stroke-linecap:round;stroke-linejoin:round;stroke-width:2px}</style></defs><g id="Layer_2" data-name="Layer 2"><g id="icons"><path fill="currentColor" d="M0 0h96v96H0z"/><g id="Calque_2" data-name="Calque 2"><g id="Entreprise_2_blanc_cercle" data-name="Entreprise 2 blanc cercle"><path class="cls-2" d="M77.32 43.47h-8.99l1.53-25.93h5.93l1.53 25.93zM69.64 22.9h6.37M69.64 26.45h6.37M19.15 18.74a1.58 1.58 0 0 0 1.09.45h13.93A1.47 1.47 0 0 0 34 20a1.55 1.55 0 0 0 1.54 1.54h19.19a1.55 1.55 0 0 0 0-3.09h-14a1.62 1.62 0 0 0 .21-.77 1.55 1.55 0 0 0-1.54-1.54H20.24a1.54 1.54 0 0 0-1.56 1.52 1.58 1.58 0 0 0 .47 1.12M77.32 55.05v19.67c0 2.84-1.91 5.16-4.25 5.16H23c-2.34 0-4.25-2.32-4.25-5.16V55.05z"/><path class="cls-2" d="M57.23 68.96h10.6v10.92h-10.6z"/><circle class="cls-2" cx="31.31" cy="69.65" r="3.36"/><circle class="cls-2" cx="44.62" cy="69.65" r="3.36"/><path class="cls-2" d="M18.7 43.47h58.62v11.58H18.7z"/></g></g></g></g></svg>