<svg xmlns="http://www.w3.org/2000/svg" viewBox="0 0 96 96"><defs><style>.cls-1{fill:#fff;}.cls-2{fill:none;stroke:#00008f;stroke-linecap:round;stroke-linejoin:round;stroke-width:2px;}</style></defs><title>Instagram</title><g id="Layer_2" data-name="Layer 2"><g id="icons"><rect class="cls-1" width="96" height="96"/><path class="cls-2" d="M48,14c-9.23,0-10.39,0-14,.2C21.64,14.77,14.77,21.62,14.21,34,14,37.61,14,38.77,14,48s0,10.39.2,14C14.77,74.37,21.62,81.23,34,81.8c3.63.16,4.79.2,14,.2s10.39,0,14-.2C74.36,81.23,81.23,74.38,81.79,62c.17-3.63.21-4.79.21-14s0-10.39-.2-14C81.24,21.65,74.38,14.77,62,14.21,58.39,14,57.23,14,48,14ZM66.15,25.77a4.08,4.08,0,1,0,4.08,4.08A4.08,4.08,0,0,0,66.15,25.77Z"/><path class="cls-2" d="M48,32A16,16,0,1,0,64,48,16,16,0,0,0,48,32Z"/><path class="cls-2" d="M48,38A10,10,0,1,0,58,48,10,10,0,0,0,48,38Z"/></g></g></svg>