<svg xmlns="http://www.w3.org/2000/svg" viewBox="0 0 96 96"><defs><style>.cls-1{fill:#fff;}.cls-2{fill:#00008f;}</style></defs><title>Light Bulb</title><g id="Layer_2" data-name="Layer 2"><g id="icons"><rect class="cls-1" width="96" height="96"/><path class="cls-2" d="M24.84,22.43a1,1,0,0,0,.59.19,1,1,0,0,0,.59-1.8l-6.5-4.75a1,1,0,0,0-1.18,1.62Z"/><path class="cls-2" d="M22.71,34.25a1,1,0,0,0-1-1H14.33a1,1,0,1,0,0,2h7.38A1,1,0,0,0,22.71,34.25Z"/><path class="cls-2" d="M25.53,46.15,18.35,51.2A1,1,0,0,0,18.93,53a.92.92,0,0,0,.57-.18l7.18-5a1,1,0,0,0,.24-1.4A1,1,0,0,0,25.53,46.15Z"/><path class="cls-2" d="M71,22.62a1,1,0,0,0,.59-.19l6.5-4.74a1,1,0,0,0-1.18-1.62l-6.5,4.75a1,1,0,0,0,.59,1.8Z"/><path class="cls-2" d="M82.1,33.25H74.72a1,1,0,0,0,0,2H82.1a1,1,0,0,0,0-2Z"/><path class="cls-2" d="M70.9,46.15a1,1,0,0,0-1.39.24,1,1,0,0,0,.24,1.4l7.17,5a1,1,0,0,0,.58.18,1,1,0,0,0,.57-1.81Z"/><path class="cls-2" d="M56.23,67.91H40.31a1,1,0,0,0,0,2H56.23a1,1,0,0,0,0-2Z"/><path class="cls-2" d="M56.23,71.91H40.31a1,1,0,0,0,0,2H56.23a1,1,0,0,0,0-2Z"/><path class="cls-2" d="M56.23,75.91H40.31a1,1,0,0,0,0,2H56.23a1,1,0,0,0,0-2Z"/><path class="cls-2" d="M53.23,79.91H43.31a1,1,0,0,0,0,2h9.92a1,1,0,0,0,0-2Z"/><path class="cls-2" d="M69.71,34.7a21.72,21.72,0,1,0-34.82,18c1.52,1.15,2.42,4.75,2.4,9.62a3,3,0,0,0,3,3.06H55.45a3,3,0,0,0,3-3.1c-.09-4.93.83-8.47,2.46-9.46C66.58,49.44,69.94,42.48,69.71,34.7Zm-9.8,16.46c-3,1.8-3.5,7.09-3.43,11.21a1.05,1.05,0,0,1-.3.75,1,1,0,0,1-.73.31H40.32a1,1,0,0,1-.73-.31,1,1,0,0,1-.3-.74c0-4-.53-9.2-3.2-11.23a19.59,19.59,0,0,1-7.81-15.72A19.84,19.84,0,0,1,47.52,15.71H48a19.72,19.72,0,0,1,19.71,19C67.92,41.83,64.93,48.11,59.91,51.16Z"/><path class="cls-2" d="M42,19.57C30.92,23,30.93,34.89,30.93,35a1,1,0,0,0,1,1h0a1,1,0,0,0,1-1c0-.43,0-10.51,9.67-13.51a1,1,0,0,0,.66-1.26A1,1,0,0,0,42,19.57Z"/><path class="cls-2" d="M49.79,18.63a9,9,0,0,0-4.17.15,1,1,0,0,0,.24,2,1,1,0,0,0,.24,0,7.14,7.14,0,0,1,3.18-.16,1,1,0,1,0,.51-1.93Z"/></g></g></svg>