<svg xmlns="http://www.w3.org/2000/svg" viewBox="0 0 96 96"><defs><style>.cls-2{fill:#00008f}</style></defs><g id="Layer_2" data-name="Layer 2"><g id="icons"><path fill="currentColor" d="M0 0h96v96H0z"/><path class="cls-2" d="M24.84 22.43a1 1 0 0 0 .59.19 1 1 0 0 0 .59-1.8l-6.5-4.75a1 1 0 0 0-1.18 1.62zM22.71 34.25a1 1 0 0 0-1-1h-7.38a1 1 0 1 0 0 2h7.38a1 1 0 0 0 1-1zM25.53 46.15l-7.18 5.05a1 1 0 0 0 .58 1.8.92.92 0 0 0 .57-.18l7.18-5a1 1 0 0 0 .24-1.4 1 1 0 0 0-1.39-.27zM71 22.62a1 1 0 0 0 .59-.19l6.5-4.74a1 1 0 0 0-1.18-1.62l-6.5 4.75a1 1 0 0 0 .59 1.8zM82.1 33.25h-7.38a1 1 0 0 0 0 2h7.38a1 1 0 0 0 0-2zM70.9 46.15a1 1 0 0 0-1.39.24 1 1 0 0 0 .24 1.4l7.17 5a1 1 0 0 0 .58.18 1 1 0 0 0 .57-1.81zM56.23 67.91H40.31a1 1 0 0 0 0 2h15.92a1 1 0 0 0 0-2zM56.23 71.91H40.31a1 1 0 0 0 0 2h15.92a1 1 0 0 0 0-2zM56.23 75.91H40.31a1 1 0 0 0 0 2h15.92a1 1 0 0 0 0-2zM53.23 79.91h-9.92a1 1 0 0 0 0 2h9.92a1 1 0 0 0 0-2zM69.71 34.7a21.72 21.72 0 1 0-34.82 18c1.52 1.15 2.42 4.75 2.4 9.62a3 3 0 0 0 3 3.06h15.16a3 3 0 0 0 3-3.1c-.09-4.93.83-8.47 2.46-9.46 5.67-3.38 9.03-10.34 8.8-18.12zm-9.8 16.46c-3 1.8-3.5 7.09-3.43 11.21a1.05 1.05 0 0 1-.3.75 1 1 0 0 1-.73.31H40.32a1 1 0 0 1-.73-.31 1 1 0 0 1-.3-.74c0-4-.53-9.2-3.2-11.23a19.59 19.59 0 0 1-7.81-15.72 19.84 19.84 0 0 1 19.24-19.72H48a19.72 19.72 0 0 1 19.71 19c.21 7.12-2.78 13.4-7.8 16.45z"/><path class="cls-2" d="M42 19.57C30.92 23 30.93 34.89 30.93 35a1 1 0 0 0 1 1 1 1 0 0 0 1-1c0-.43 0-10.51 9.67-13.51a1 1 0 0 0 .66-1.26 1 1 0 0 0-1.26-.66zM49.79 18.63a9 9 0 0 0-4.17.15 1 1 0 0 0 .24 2 1 1 0 0 0 .24 0 7.14 7.14 0 0 1 3.18-.16 1 1 0 1 0 .51-1.93z"/></g></g></svg>