<svg xmlns="http://www.w3.org/2000/svg" viewBox="0 0 96 96"><defs><style>.cls-1{fill:#fff;}.cls-2{fill:none;stroke:#00008f;stroke-linecap:round;stroke-linejoin:round;stroke-width:2px;}</style></defs><title>Map &amp;amp; Pin Locator</title><g id="Layer_2" data-name="Layer 2"><g id="icons"><rect class="cls-1" width="96" height="96"/><line class="cls-2" x1="36" y1="75.61" x2="39.8" y2="52.25"/><line class="cls-2" x1="60.05" y1="81.79" x2="58" y2="55"/><path class="cls-2" d="M66,31A18,18,0,0,0,46.42,13.07c-10.6.89-18,11.09-16.13,21.57A16.85,16.85,0,0,0,32.23,40h0L47.08,63.53a1.11,1.11,0,0,0,1.82,0L63.75,40h0A17.9,17.9,0,0,0,66,31Z"/><circle class="cls-2" cx="48" cy="31" r="8"/><path class="cls-2" d="M39.24,51.13l-16.11,2.8a1.81,1.81,0,0,0-1.41,1.15L14,80.37l20.83-4.51a5.05,5.05,0,0,1,2.32,0l21.61,5.72a5,5,0,0,0,2.48,0L82,76.4,74,51,58,55l-3.33-.61"/></g></g></svg>