<svg xmlns="http://www.w3.org/2000/svg" viewBox="0 0 96 96"><defs><style>.cls-2{fill:none;stroke:#00008f;stroke-linecap:round;stroke-linejoin:round;stroke-width:2px}</style></defs><g id="Layer_2" ><g id="icons"><path fill="currentColor" d="M0 0h96v96H0z"/><path class="cls-2" d="M36 75.61l3.8-23.36M60.05 81.79L58 55M66 31a18 18 0 0 0-19.58-17.93c-10.6.89-18 11.09-16.13 21.57A16.85 16.85 0 0 0 32.23 40l14.85 23.53a1.11 1.11 0 0 0 1.82 0L63.75 40A17.9 17.9 0 0 0 66 31z"/><circle class="cls-2" cx="48" cy="31" r="8"/><path class="cls-2" d="M39.24 51.13l-16.11 2.8a1.81 1.81 0 0 0-1.41 1.15L14 80.37l20.83-4.51a5.05 5.05 0 0 1 2.32 0l21.61 5.72a5 5 0 0 0 2.48 0L82 76.4 74 51l-16 4-3.33-.61"/></g></g></svg>