<svg xmlns="http://www.w3.org/2000/svg" viewBox="0 0 96 96"><defs><style>.cls-1{fill:#fff;}.cls-2{fill:none;stroke:#00008f;stroke-linecap:round;stroke-linejoin:round;stroke-width:2px;}</style></defs><title>Medal</title><g id="Layer_2" data-name="Layer 2"><g id="icons"><rect class="cls-1" width="96" height="96"/><circle class="cls-2" cx="48" cy="56.58" r="28"/><circle class="cls-2" cx="48" cy="56.58" r="22"/><polygon class="cls-2" points="48 44 51.59 50.96 59 52.4 53.82 58.15 54.8 66 48 62.59 41.2 66 42.18 58.15 37 52.4 44.41 50.96 48 44"/><path class="cls-2" d="M60.57,13,52.82,29a28,28,0,0,1,13.86,6.72L77.49,13Z"/><path class="cls-2" d="M18.67,13,28.73,36.27A28,28,0,0,1,43.44,29L36.42,13Z"/><line class="cls-2" x1="27" y1="13" x2="35.43" y2="31.55"/><line class="cls-2" x1="60.57" y1="31.55" x2="69" y2="13"/></g></g></svg>