<svg xmlns="http://www.w3.org/2000/svg" viewBox="0 0 96 96"><defs><style>.cls-2{fill:none;stroke:#00008f;stroke-linecap:round;stroke-linejoin:round;stroke-width:2px}</style></defs><g id="Layer_2" data-name="Layer 2"><g id="icons"><path fill="#fff" d="M0 0h96v96H0z"/><circle class="cls-2" cx="48" cy="56.58" r="28"/><circle class="cls-2" cx="48" cy="56.58" r="22"/><path class="cls-2" d="M48 44l3.59 6.96L59 52.4l-5.18 5.75.98 7.85-6.8-3.41L41.2 66l.98-7.85L37 52.4l7.41-1.44L48 44zM60.57 13l-7.75 16a28 28 0 0 1 13.86 6.72L77.49 13zM18.67 13l10.06 23.27A28 28 0 0 1 43.44 29l-7.02-16zM27 13l8.43 18.55M60.57 31.55L69 13"/></g></g></svg>