<svg xmlns="http://www.w3.org/2000/svg" viewBox="0 0 96 96"><defs><style>.cls-1{fill:#fff;}.cls-2{fill:none;stroke:#00008f;stroke-linecap:round;stroke-linejoin:round;stroke-width:2px;}</style></defs><title>Newspaper</title><g id="Layer_2" data-name="Layer 2"><g id="icons"><rect class="cls-1" width="96" height="96"/><path class="cls-2" d="M28,30V18a2,2,0,0,1,2-2H74a2,2,0,0,1,2,2V75a5,5,0,0,1-5,5H23"/><path class="cls-2" d="M20,30h8a0,0,0,0,1,0,0V75a5,5,0,0,1-5,5h0a5,5,0,0,1-5-5V32a2,2,0,0,1,2-2Z"/><line class="cls-2" x1="36" y1="24" x2="68" y2="24"/><line class="cls-2" x1="54" y1="30" x2="68" y2="30"/><line class="cls-2" x1="54" y1="36" x2="68" y2="36"/><line class="cls-2" x1="54" y1="42" x2="68" y2="42"/><rect class="cls-2" x="36" y="30" width="12" height="12"/><line class="cls-2" x1="36" y1="48" x2="68" y2="48"/><line class="cls-2" x1="36" y1="54" x2="68" y2="54"/><line class="cls-2" x1="54" y1="60" x2="68" y2="60"/><line class="cls-2" x1="54" y1="66" x2="68" y2="66"/><line class="cls-2" x1="54" y1="72" x2="68" y2="72"/><rect class="cls-2" x="36" y="60" width="12" height="12"/></g></g></svg>