<svg xmlns="http://www.w3.org/2000/svg" viewBox="0 0 96 96"><g fill="none" stroke="currentColor" stroke-linecap="round" stroke-linejoin="round" stroke-width="2"><path d="M42.97 47.19H19.05m31.62-9.62H19.05m23.92 19.24H19.05m28.59 9.62H19.05m42.31-29.64V21.2a2.2 2.2 0 0 0-2.2-2.2h-45.1a2.19 2.19 0 0 0-2.2 2.2v61.6a2.19 2.19 0 0 0 2.2 2.2h45.1a2.2 2.2 0 0 0 2.2-2.2V55.3"/><path d="M64.7 30l7.35 3.63-11.63 23.55-.11.23L53 63l-.08-9.11c.06-.11 0-.2.12-.23zm14.87-11.56L74.37 29 67 25.32l5.56-11.39c1.26-2.41 3.88-3.57 5.91-2.57s2.7 3.8 1.44 6.2l-.36.88 4.57 2.14-6.2 12.56"/></g></svg>