<svg xmlns="http://www.w3.org/2000/svg" viewBox="0 0 96 96"><defs><style>.cls-1{fill:#fff;}.cls-2{fill:none;stroke:#00008f;stroke-linecap:round;stroke-linejoin:round;stroke-width:2px;}</style></defs><title>Note Pen</title><g id="Layer_2" data-name="Layer 2"><g id="icons"><rect class="cls-1" width="96" height="96"/><line class="cls-2" x1="42.97" y1="47.19" x2="19.05" y2="47.19"/><line class="cls-2" x1="50.67" y1="37.57" x2="19.05" y2="37.57"/><line class="cls-2" x1="42.97" y1="56.81" x2="19.05" y2="56.81"/><line class="cls-2" x1="47.64" y1="66.43" x2="19.05" y2="66.43"/><path class="cls-2" d="M61.36,36.79V21.2a2.2,2.2,0,0,0-2.2-2.2H14.06a2.19,2.19,0,0,0-2.2,2.2V82.8a2.19,2.19,0,0,0,2.2,2.2h45.1a2.2,2.2,0,0,0,2.2-2.2V55.3"/><path class="cls-2" d="M64.7,30l7.35,3.63L60.42,57.18l-.11.23h0L53,63l-.08-9.11h0c.06-.11,0-.2.12-.23Z"/><path class="cls-2" d="M79.57,18.44,74.37,29,67,25.32l5.56-11.39c1.26-2.41,3.88-3.57,5.91-2.57s2.7,3.8,1.44,6.2l-.36.88,4.57,2.14-6.2,12.56"/></g></g></svg>