<svg xmlns="http://www.w3.org/2000/svg" viewBox="0 0 96 96"><path d="M22.2 19.47l2.12-2.12a3 3 0 0 1 4.24 0l11.32 11.32a3 3 0 0 1 0 4.24L37.76 35M59 56.24l2.12-2.12a3 3 0 0 1 4.24 0l11.29 11.32a3 3 0 0 1 0 4.24l-2.12 2.12M59 56.26a10.33 10.33 0 0 0-2.55 8.29 31.88 31.88 0 0 1-27-27A10.33 10.33 0 0 0 37.74 35L22.22 19.49a10.28 10.28 0 0 0-2.64 7.16 41.95 41.95 0 0 0 47.77 47.77 10.28 10.28 0 0 0 7.16-2.64z" fill="none" stroke="#00008f" stroke-linecap="round" stroke-linejoin="round" stroke-width="2"/></svg>