<svg xmlns="http://www.w3.org/2000/svg" viewBox="0 0 96 96"><defs><style>.cls-1{fill:#fff;}.cls-2{fill:none;stroke:#00008f;stroke-linecap:round;stroke-linejoin:round;stroke-width:2px;}</style></defs><title>Phone</title><g id="Layer_2" data-name="Layer 2"><g id="icons"><rect class="cls-1" width="96" height="96"/><path class="cls-2" d="M22.2,19.47l2.12-2.12a3,3,0,0,1,4.24,0L39.88,28.67a3,3,0,0,1,0,4.24L37.76,35"/><path class="cls-2" d="M59,56.24l2.12-2.12a3,3,0,0,1,4.24,0L76.65,65.44a3,3,0,0,1,0,4.24L74.53,71.8"/><path class="cls-2" d="M59,56.26a10.33,10.33,0,0,0-2.55,8.29,31.88,31.88,0,0,1-27-27A10.33,10.33,0,0,0,37.74,35L22.22,19.49a10.28,10.28,0,0,0-2.64,7.16A41.95,41.95,0,0,0,67.35,74.42a10.28,10.28,0,0,0,7.16-2.64Z"/></g></g></svg>