<svg xmlns="http://www.w3.org/2000/svg" viewBox="0 0 96 96"><defs><style>.cls-2{fill:none;stroke:#00008f;stroke-linecap:round;stroke-linejoin:round;stroke-width:2px}</style></defs><g id="Layer_2" data-name="Layer 2"><g id="icons"><path fill="#fff" d="M0 0h96v96H0z"/><path class="cls-2" d="M25 71h-6a6 6 0 0 1-6-6V43a6 6 0 0 1 6-6h58a6 6 0 0 1 6 6v22a6 6 0 0 1-6 6h-6"/><path class="cls-2" d="M71 58v19a2 2 0 0 1-2 2H27a2 2 0 0 1-2-2V58M21 58h54M20 43h8"/><circle class="cls-2" cx="51.5" cy="48.5" r="2.5"/><circle class="cls-2" cx="61.5" cy="48.5" r="2.5"/><circle class="cls-2" cx="71.5" cy="48.5" r="2.5"/><path class="cls-2" d="M33 65h30M33 70h15M71 37V27h-8a2 2 0 0 1-2-2v-8H27a2 2 0 0 0-2 2v18M61 17l10 10"/></g></g></svg>