<svg xmlns="http://www.w3.org/2000/svg" viewBox="0 0 96 96"><defs><style>.cls-1{fill:#fff;}.cls-2{fill:none;stroke:#00008f;stroke-linecap:round;stroke-linejoin:round;stroke-width:2px;}</style></defs><title>Print</title><g id="Layer_2" data-name="Layer 2"><g id="icons"><rect class="cls-1" width="96" height="96"/><path class="cls-2" d="M25,71H19a6,6,0,0,1-6-6V43a6,6,0,0,1,6-6H77a6,6,0,0,1,6,6V65a6,6,0,0,1-6,6H71"/><path class="cls-2" d="M71,58V77a2,2,0,0,1-2,2H27a2,2,0,0,1-2-2V58"/><line class="cls-2" x1="21" y1="58" x2="75" y2="58"/><line class="cls-2" x1="20" y1="43" x2="28" y2="43"/><circle class="cls-2" cx="51.5" cy="48.5" r="2.5"/><circle class="cls-2" cx="61.5" cy="48.5" r="2.5"/><circle class="cls-2" cx="71.5" cy="48.5" r="2.5"/><line class="cls-2" x1="33" y1="65" x2="63" y2="65"/><line class="cls-2" x1="33" y1="70" x2="48" y2="70"/><path class="cls-2" d="M71,37V27H63a2,2,0,0,1-2-2V17H27a2,2,0,0,0-2,2V37"/><line class="cls-2" x1="61" y1="17" x2="71" y2="27"/></g></g></svg>