<svg xmlns="http://www.w3.org/2000/svg" viewBox="0 0 96 96"><g fill="none" stroke="#00008f" stroke-linecap="round" stroke-linejoin="round" stroke-width="2"><path d="M25 71h-6a6 6 0 0 1-6-6V43a6 6 0 0 1 6-6h58a6 6 0 0 1 6 6v22a6 6 0 0 1-6 6h-6"/><path d="M71 58v19a2 2 0 0 1-2 2H27a2 2 0 0 1-2-2V58m-4 0h54M20 43h8"/><circle cx="51.5" cy="48.5" r="2.5"/><circle cx="61.5" cy="48.5" r="2.5"/><circle cx="71.5" cy="48.5" r="2.5"/><path d="M33 65h30m-30 5h15m23-33V27h-8a2 2 0 0 1-2-2v-8H27a2 2 0 0 0-2 2v18m36-20l10 10"/></g></svg>