<svg xmlns="http://www.w3.org/2000/svg" viewBox="0 0 96 96"><defs><style>.cls-1{fill:#fff;}.cls-2{fill:none;stroke:#00008f;stroke-linecap:round;stroke-linejoin:round;stroke-width:2px;}</style></defs><title>Register</title><g id="Layer_2" data-name="Layer 2"><g id="icons"><rect class="cls-1" width="96" height="96"/></g><g id="stroke_blue_2px" data-name="stroke blue 2px"><path class="cls-2" d="M60.55,21.31,43.34,43.08,35.46,32.83a3,3,0,0,0-4.4-.4h0A3.35,3.35,0,0,0,30.73,37L40.2,49.33a4,4,0,0,0,6.29,0L65.27,25.47a3.35,3.35,0,0,0-.34-4.54h0A3,3,0,0,0,60.55,21.31Z"/><rect class="cls-2" x="8" y="14" width="80" height="54.88" rx="4"/><line class="cls-2" x1="88" y1="56.95" x2="8" y2="56.95"/><line class="cls-2" x1="51.53" y1="62.91" x2="44.47" y2="62.91"/><path class="cls-2" d="M31.53,82c5.88,0,8.23-13.12,8.23-13.12"/><path class="cls-2" d="M64.47,82c-5.88,0-8.23-13.12-8.23-13.12"/><line class="cls-2" x1="26.82" y1="82" x2="69.18" y2="82"/></g></g></svg>