<svg xmlns="http://www.w3.org/2000/svg" viewBox="0 0 96 96"><defs><style>.cls-2{fill:none;stroke:#00008f;stroke-linecap:round;stroke-linejoin:round;stroke-width:2px}</style></defs><g id="Layer_2" data-name="Layer 2"><path fill="#fff" d="M0 0h96v96H0z" id="icons"/><g id="stroke_blue_2px" data-name="stroke blue 2px"><path class="cls-2" d="M60.55 21.31L43.34 43.08l-7.88-10.25a3 3 0 0 0-4.4-.4 3.35 3.35 0 0 0-.33 4.57l9.47 12.33a4 4 0 0 0 6.29 0l18.78-23.86a3.35 3.35 0 0 0-.34-4.54 3 3 0 0 0-4.38.38z"/><rect class="cls-2" x="8" y="14" width="80" height="54.88" rx="4"/><path class="cls-2" d="M88 56.95H8M51.53 62.91h-7.06M31.53 82c5.88 0 8.23-13.12 8.23-13.12M64.47 82c-5.88 0-8.23-13.12-8.23-13.12M26.82 82h42.36"/></g></g></svg>