<svg xmlns="http://www.w3.org/2000/svg" viewBox="0 0 96 96"><path fill="currentColor" d="M0 0h96v96H0z"/><g data-name="stroke blue 2px" fill="none" stroke="#00008f" stroke-linecap="round" stroke-linejoin="round" stroke-width="2"><path d="M60.55 21.31L43.34 43.08l-7.88-10.25a3 3 0 0 0-4.4-.4 3.35 3.35 0 0 0-.33 4.57l9.47 12.33a4 4 0 0 0 6.29 0l18.78-23.86a3.35 3.35 0 0 0-.34-4.54 3 3 0 0 0-4.38.38z"/><rect x="8" y="14" width="80" height="54.88" rx="4"/><path d="M88 56.95H8m43.53 5.96h-7.06M31.53 82c5.88 0 8.23-13.12 8.23-13.12M64.47 82c-5.88 0-8.23-13.12-8.23-13.12M26.82 82h42.36"/></g></svg>