<svg xmlns="http://www.w3.org/2000/svg" viewBox="0 0 96 96"><defs><style>.cls-2{fill:none;stroke:#00008f;stroke-linecap:round;stroke-linejoin:round;stroke-width:2px}</style></defs><g id="Layer_2" ><path fill="currentColor" d="M0 0h96v96H0z" id="icons"/><g id="blue_stroke_2px"><rect class="cls-2" x="17" y="20.27" width="11" height="32.07" rx="2.47"/><path class="cls-2" d="M48.1 23.97l9.9 5.94-9.9 5.94-9.89-5.94 9.89-5.94z"/><path class="cls-2" d="M58 29.91v13.85l-9.9 5.94V35.85l9.9-5.94zM38.21 29.91v13.85l9.89 5.94V35.85l-9.89-5.94z"/><rect class="cls-2" x="68" y="20" width="10.93" height="6.4" rx="2.31"/><rect class="cls-2" x="68.07" y="32.3" width="10.93" height="6.4" rx="2.31"/><rect class="cls-2" x="68" y="44.6" width="10.93" height="6.4" rx="2.31"/><rect class="cls-2" x="8" y="14" width="80" height="54.88" rx="4"/><path class="cls-2" d="M88 56.95H8M51.53 62.91h-7.06M31.53 82c5.88 0 8.23-13.12 8.23-13.12M64.47 82c-5.88 0-8.23-13.12-8.23-13.12M26.82 82h42.36"/></g></g></svg>