<svg xmlns="http://www.w3.org/2000/svg" viewBox="0 0 96 96"><path fill="currentColor" d="M0 0h96v96H0z"/><g fill="none" stroke="#00008f" stroke-linecap="round" stroke-linejoin="round" stroke-width="2"><rect x="17" y="20.27" width="11" height="32.07" rx="2.47"/><path d="M48.1 23.97l9.9 5.94-9.9 5.94-9.89-5.94 9.89-5.94z"/><path d="M58 29.91v13.85l-9.9 5.94V35.85l9.9-5.94zm-19.79 0v13.85l9.89 5.94V35.85l-9.89-5.94z"/><rect x="68" y="20" width="10.93" height="6.4" rx="2.31"/><rect x="68.07" y="32.3" width="10.93" height="6.4" rx="2.31"/><rect x="68" y="44.6" width="10.93" height="6.4" rx="2.31"/><rect x="8" y="14" width="80" height="54.88" rx="4"/><path d="M88 56.95H8m43.53 5.96h-7.06M31.53 82c5.88 0 8.23-13.12 8.23-13.12M64.47 82c-5.88 0-8.23-13.12-8.23-13.12M26.82 82h42.36"/></g></svg>