<svg xmlns="http://www.w3.org/2000/svg" viewBox="0 0 96 96"><defs><style>.cls-1{fill:#fff;}.cls-2{fill:none;stroke:#00008f;stroke-linecap:round;stroke-linejoin:round;stroke-width:2px;}</style></defs><title>Software</title><g id="Layer_2" data-name="Layer 2"><g id="icons"><rect class="cls-1" width="96" height="96"/></g><g id="blue_stroke_2px"><rect class="cls-2" x="17" y="20.27" width="11" height="32.07" rx="2.47"/><polygon class="cls-2" points="48.1 23.97 58 29.91 48.1 35.85 38.21 29.91 48.1 23.97"/><polygon class="cls-2" points="58 29.91 58 43.76 48.1 49.7 48.1 35.85 58 29.91"/><polygon class="cls-2" points="38.21 29.91 38.21 43.76 48.1 49.7 48.1 35.85 38.21 29.91"/><rect class="cls-2" x="68" y="20" width="10.93" height="6.4" rx="2.31"/><rect class="cls-2" x="68.07" y="32.3" width="10.93" height="6.4" rx="2.31"/><rect class="cls-2" x="68" y="44.6" width="10.93" height="6.4" rx="2.31"/><rect class="cls-2" x="8" y="14" width="80" height="54.88" rx="4"/><line class="cls-2" x1="88" y1="56.95" x2="8" y2="56.95"/><line class="cls-2" x1="51.53" y1="62.91" x2="44.47" y2="62.91"/><path class="cls-2" d="M31.53,82c5.88,0,8.23-13.12,8.23-13.12"/><path class="cls-2" d="M64.47,82c-5.88,0-8.23-13.12-8.23-13.12"/><line class="cls-2" x1="26.82" y1="82" x2="69.18" y2="82"/></g></g></svg>