<svg xmlns="http://www.w3.org/2000/svg" viewBox="0 0 96 96"><defs><style>.cls-2{fill:none;stroke:#00008f;stroke-linecap:round;stroke-linejoin:round;stroke-width:2px}</style></defs><g id="Layer_2" ><g id="icons"><path fill="currentColor" d="M0 0h96v96H0z"/><path class="cls-2" d="M35.21 40h8.91c9.79 0 9.45-9.45 9.45-9.45v-6.16a4.39 4.39 0 1 1 8.78 0v16.47H72c2 0 3.65 1.71 3.84 6.92a7 7 0 0 1-1.08 3.89A4.66 4.66 0 0 1 74.8 58a5.26 5.26 0 0 1-.74.75 4.77 4.77 0 0 1-.24 6 5.57 5.57 0 0 1-.81.8 4.94 4.94 0 0 1-1.42 5.14c-.83.8-1.55 1.89-4.67 1.89H35M20 37h15v39H20z"/></g></g></svg>