<svg xmlns="http://www.w3.org/2000/svg" viewBox="0 0 96 96"><defs><style>.cls-1{fill:#fff;}.cls-2{fill:none;stroke:#00008f;stroke-linecap:round;stroke-linejoin:round;stroke-width:2px;}</style></defs><title>Thumb</title><g id="Layer_2" data-name="Layer 2"><g id="icons"><rect class="cls-1" width="96" height="96"/><path class="cls-2" d="M35.21,40h8.91c9.79,0,9.45-9.45,9.45-9.45V24.39a4.39,4.39,0,1,1,8.78,0V37l0,3.86H72c2,0,3.65,1.71,3.84,6.92a7,7,0,0,1-1.08,3.89A4.66,4.66,0,0,1,74.8,58a5.26,5.26,0,0,1-.74.75,4.77,4.77,0,0,1-.24,6,5.57,5.57,0,0,1-.81.8,4.94,4.94,0,0,1-1.42,5.14c-.83.8-1.55,1.89-4.67,1.89H35"/><rect class="cls-2" x="20" y="37" width="15" height="39"/></g></g></svg>