<svg xmlns="http://www.w3.org/2000/svg" viewBox="0 0 96 96"><g fill="none" stroke="#00008f" stroke-linecap="round" stroke-linejoin="round" stroke-width="2"><circle cx="47.88" cy="47.94" r="4"/><path d="M47.99 20.94l-.03 7M37.92 37.9l7.14 7.2M60.93 35L50.72 45.13m-2.93 22.81l-.03 7M27.88 47.86l-7-.04m53.99.24l-7-.03m5.14-30.98l-.04 9-9-.03m8.59.03a33 33 0 1 0 4.77 7m-48.37-4.19l.99 1m-1.16 37l1.01-1m36.99 1.17l-.99-1.01M23.1 37.55l1.3.55m13.08 34.62l.55-1.3m34.62-13.08l-1.3-.55M37.7 23.07l.54 1.31M23.01 58.12l1.3-.54m33.74 15.23l-.54-1.3"/></g></svg>