<svg xmlns="http://www.w3.org/2000/svg" viewBox="0 0 96 96"><g fill="none" stroke="#00008f" stroke-linecap="round" stroke-linejoin="round" stroke-width="2"><path d="M18 77.55a8 8 0 0 1 0-11.31l17.33-17.39 11.32 11.32-17.39 17.38a8 8 0 0 1-11.26 0z"/><path d="M43.11 56.63l27.87-27.87 6.39-2.14 2.1-7.76-2.83-2.83-7.83 2.17-2.07 6.32-27.87 27.87m-4.66 4.66L21.48 69.77m16.97-8.48L25.73 74.02"/><path d="M49 42.3L36.09 29.44a10 10 0 0 0-13-13l5.77 5.77-5.66 5.66-5.77-5.77a10 10 0 0 0 13 13L43.3 48zm30.52 30.56a10 10 0 0 0-13-13L53.2 46.54l-5.66 5.66 13.37 13.36a10 10 0 0 0 13 13l-5.77-5.77 5.66-5.66z"/></g></svg>