<svg xmlns="http://www.w3.org/2000/svg" viewBox="0 0 96 96"><defs><style>.cls-2{fill:none;stroke:#00008f;stroke-linecap:round;stroke-linejoin:round;stroke-width:2px}</style></defs><g id="Layer_2" data-name="Layer 2"><g id="icons"><path fill="currentColor" d="M0 0h96v96H0z"/><path class="cls-2" d="M18 77.55a8 8 0 0 1 0-11.31l17.33-17.39 11.32 11.32-17.39 17.38a8 8 0 0 1-11.26 0z"/><path class="cls-2" d="M43.11 56.63l27.87-27.87 6.39-2.14 2.1-7.76-2.83-2.83-7.83 2.17-2.07 6.32-27.87 27.87M34.21 57.05L21.48 69.77M38.45 61.29L25.73 74.02"/><path class="cls-2" d="M49 42.3L36.09 29.44a10 10 0 0 0-13-13l5.77 5.77-5.66 5.66-5.77-5.77a10 10 0 0 0 13 13L43.3 48zM79.52 72.86a10 10 0 0 0-13-13L53.2 46.54l-5.66 5.66 13.37 13.36a10 10 0 0 0 13 13l-5.77-5.77 5.66-5.66z"/></g></g></svg>