<svg xmlns="http://www.w3.org/2000/svg" viewBox="0 0 96 96"><defs><style>.cls-1{fill:#fff;}.cls-2{fill:none;stroke:#00008f;stroke-linecap:round;stroke-linejoin:round;stroke-width:2px;}</style></defs><title>Tools</title><g id="Layer_2" data-name="Layer 2"><g id="icons"><rect class="cls-1" width="96" height="96"/><path class="cls-2" d="M18,77.55h0a8,8,0,0,1,0-11.31L35.33,48.85,46.65,60.17,29.26,77.55A8,8,0,0,1,18,77.55Z"/><polyline class="cls-2" points="43.11 56.63 70.98 28.76 77.37 26.62 79.47 18.86 76.64 16.03 68.81 18.2 66.74 24.52 38.87 52.39"/><line class="cls-2" x1="34.21" y1="57.05" x2="21.48" y2="69.77"/><line class="cls-2" x1="38.45" y1="61.29" x2="25.73" y2="74.02"/><path class="cls-2" d="M49,42.3,36.09,29.44a10,10,0,0,0-13-13l5.77,5.77-5.66,5.66-5.77-5.77a10,10,0,0,0,13,13L43.3,48Z"/><path class="cls-2" d="M79.52,72.86a10,10,0,0,0-13-13L53.2,46.54,47.54,52.2,60.91,65.56a10,10,0,0,0,13,13l-5.77-5.77,5.66-5.66Z"/></g></g></svg>