<svg xmlns="http://www.w3.org/2000/svg" viewBox="0 0 96 96"><g fill="none" stroke="#00008f" stroke-linecap="round" stroke-linejoin="round" stroke-width="2"><path d="M89 57.83C89 46.33 77.81 37 64 37s-25 9.33-25 20.83 11.19 20.84 25 20.84a29.45 29.45 0 0 0 9.46-1.55L82 82l-2-8.14c5.48-3.86 9-9.58 9-16.03z"/><circle cx="27" cy="31" r="4"/><circle cx="47" cy="31" r="4"/><circle cx="56" cy="52" r="3"/><circle cx="72" cy="52" r="3"/><path d="M66.8 37.13C65.1 24.67 52.4 15 37 15 20.43 15 7 26.19 7 40c0 7.6 4.08 14.41 10.5 19L15 69l10.4-5.94A35.11 35.11 0 0 0 37 65c1.17 0 2.32-.06 3.45-.16"/></g></svg>