<svg xmlns="http://www.w3.org/2000/svg" viewBox="0 0 96 96"><defs><style>.cls-1{fill:#fff;}.cls-2{fill:none;stroke:#00008f;stroke-linecap:round;stroke-linejoin:round;stroke-width:2px;}</style></defs><title>WeChat</title><g id="Layer_2" data-name="Layer 2"><g id="icons"><rect class="cls-1" width="96" height="96"/><path class="cls-2" d="M89,57.83C89,46.33,77.81,37,64,37S39,46.33,39,57.83,50.19,78.67,64,78.67a29.45,29.45,0,0,0,9.46-1.55L82,82l-2-8.14C85.48,70,89,64.28,89,57.83Z"/><circle class="cls-2" cx="27" cy="31" r="4"/><circle class="cls-2" cx="47" cy="31" r="4"/><circle class="cls-2" cx="56" cy="52" r="3"/><circle class="cls-2" cx="72" cy="52" r="3"/><path class="cls-2" d="M66.8,37.13C65.1,24.67,52.4,15,37,15,20.43,15,7,26.19,7,40c0,7.6,4.08,14.41,10.5,19L15,69l10.4-5.94A35.11,35.11,0,0,0,37,65c1.17,0,2.32-.06,3.45-.16"/></g></g></svg>