<svg xmlns="http://www.w3.org/2000/svg" viewBox="0 0 96 96"><defs><style>.cls-2{fill:none;stroke:#00008f;stroke-linecap:round;stroke-linejoin:round;stroke-width:2px}</style></defs><g id="Layer_2" data-name="Layer 2"><g id="icons"><path fill="#fff" d="M0 0h96v96H0z"/><circle class="cls-2" cx="48" cy="48" r="33"/><path class="cls-2" d="M68.5 22.14A23.36 23.36 0 0 0 62 25c-3 2-4 3-6 3s-8-2-10 3a1 1 0 0 1-1 1c-1 0-4-2-5 1s2 2 1 3c-2.46 2.46-2 5 2 3a3.53 3.53 0 0 1 4.72 0c2.49 2.09 3.59 1 4.34.6s3.1-.6 3.53 1.4.07 2.56-2.09 3.72a7.18 7.18 0 0 1-4.9.88 7.84 7.84 0 0 1-3-1.85c-1-.84-3.75-.53-5.22.28s-4.13 3.47-4.69 6.13a3.91 3.91 0 0 0 2.06 4.62c1.1.47 4.31.66 5.53.94A4.8 4.8 0 0 1 47.09 60c.29 2.91-.06 5.81.13 7.63s1 3.65 1.72 4.18 2.31 2.07 4.47-1.06a29.51 29.51 0 0 0 3.47-6.65c.53-1.35 2.81-5.44 3.43-7s1-3.9.35-5.28a20.43 20.43 0 0 0-1.13-2.09 13.54 13.54 0 0 0 2.81.06c1-.15 1.72-.56 1.57-2.28s-.32-3.19-.32-3.19a11.09 11.09 0 0 1 2.94 2.63 18.06 18.06 0 0 0 2.72 3.65c1.06.94 2.22 1.6 4.34-.15s3.22-2.66 3.6-3.5 1.69-4.72 3.19-5.35M61.74 70.13a3 3 0 0 1-.63-3.26c.6-1.52 1.56-3.09 2.79-3s2.31 1.08 1.6 2.9a10 10 0 0 1-1.11 2.52c-1.39 1.84-2.65.84-2.65.84zM30.37 20.1s1 1.74 1.37 2.3 1.33 1.8 1.18 2.54-1.77 1.06-2.06 2a3.31 3.31 0 0 0 .59 2.71 6.73 6.73 0 0 1 1 3.27c0 1.15-.2 3-1 3.9a24.56 24.56 0 0 0-2.29 2.46c-.41.65-1.71.68-3.12-.44s-2-2.06-3.16-.24-1.73 1.86-1.79 4.63.2 4.65 1.94 6.45 3.1 3.12 5 3.39 3.33-.15 4.06 1.79 1.18 3.15.42 5.25-3.11 4.66-3.74 6.24a9.91 9.91 0 0 0-.48 5.07c.27 1.47.59 3.49.59 3.49M37 25.88a11.35 11.35 0 0 1 .59-1.74 5.85 5.85 0 0 1 2.06-3 8 8 0 0 1 3.6-.71 1.83 1.83 0 0 1 1.47 2.7c-.83 1.57-2 1.69-2.8 2.19s-2.06 1.44-2.77 1.88-2.9 1.04-2.15-1.32z"/></g></g></svg>