<svg xmlns="http://www.w3.org/2000/svg" viewBox="0 0 65.15 88.05"><g fill="none" stroke="currentColor" stroke-width="2"><path d="M28.61 12.68h8l1.25-10.91A17.66 17.66 0 0 0 32.63 1a18 18 0 0 0-5.23.79zM32.63 1v6.76" stroke-linecap="round" stroke-linejoin="round"/><path d="M53.72 18.11H51.3A19 19 0 0 0 32.55 1a18.72 18.72 0 0 0-18.48 17.11h-2.42v4.62h42.07zm-34 4.78v12.77c0 7.79 4.69 14.1 12.89 14.1s12.9-6.31 12.9-14.1V23m-31.65-.06v1.82c0 4.54 2.34 9.72 5.86 12.07" stroke-linecap="round" stroke-linejoin="round"/><path d="M45.51 36.83a13.84 13.84 0 0 0 5.86-11.75v-2.35M24.41 46.94v6.23m16.41-6.23v6.23" stroke-linecap="round" stroke-linejoin="round"/><path d="M47 85.53l3.57-21.59a.68.68 0 0 1 .21-.38l2.87-4.25a.66.66 0 0 1 1 .21l1.38 4.93a.58.58 0 0 1 .05.39l-3.52 21.61a.66.66 0 0 1-.76.54l-4.24-.7a.67.67 0 0 1-.56-.76zm9-20.1l-5.97-.98m3.41 18.1l-5.94-.98" stroke-miterlimit="10"/><path d="M53.88 80.84l6.33-1a4.75 4.75 0 0 0 3.94-4.61v-5.45a15.24 15.24 0 0 0-13.23-14.89l-10.16-1.67m-16.37 0l-10.16 1.67A15.24 15.24 0 0 0 1 69.78v5.48a4.74 4.74 0 0 0 3.94 4.61" stroke-linecap="round" stroke-linejoin="round"/><path d="M21.22 53.73l9.56 11.39a2.35 2.35 0 0 0 3.59 0l9.55-11.38m5.9 13.39L5.89 76.46a1.56 1.56 0 0 0-1.2 1.83l1.55 7.52A1.53 1.53 0 0 0 8.06 87l40.06-8.16m-36.25 6.71l-.63-3.03m5.83 1.96l-.83-4.04m6.03 2.97l-.62-3.03m5.82 1.96l-.83-4.04m6.03 2.97l-.62-3.03m5.83 1.96l-.84-4.04m6.04 2.97l-.63-3.03m-30.8-57.99h42.07" stroke-linecap="round" stroke-linejoin="round"/></g></svg>