<svg xmlns="http://www.w3.org/2000/svg" viewBox="0 0 65.15 88.05"><defs><style>.cls-1,.cls-2{fill:none;stroke:#00008f;stroke-width:2px;}.cls-1{stroke-linecap:round;stroke-linejoin:round;}.cls-2{stroke-miterlimit:10;}</style></defs><title>Architect</title><g id="Layer_2" data-name="Layer 2"><g id="blue_stroke_2px"><path class="cls-1" d="M28.61,12.68h8L37.86,1.77A17.66,17.66,0,0,0,32.63,1a18,18,0,0,0-5.23.79Z"/><line class="cls-1" x1="32.63" y1="1" x2="32.63" y2="7.76"/><path class="cls-1" d="M53.72,18.11H51.3A19,19,0,0,0,32.55,1,18.72,18.72,0,0,0,14.07,18.11H11.65v4.62H53.72Z"/><path class="cls-1" d="M19.72,22.89V35.66c0,7.79,4.69,14.1,12.89,14.1s12.9-6.31,12.9-14.1V23"/><path class="cls-1" d="M13.86,22.94v1.82c0,4.54,2.34,9.72,5.86,12.07"/><path class="cls-1" d="M45.51,36.83a13.84,13.84,0,0,0,5.86-11.75V22.73"/><line class="cls-1" x1="24.41" y1="46.94" x2="24.41" y2="53.17"/><line class="cls-1" x1="40.82" y1="46.94" x2="40.82" y2="53.17"/><path class="cls-2" d="M47,85.53l3.57-21.59a.68.68,0,0,1,.21-.38l2.87-4.25a.66.66,0,0,1,1,.21l1.38,4.93a.58.58,0,0,1,.05.39L52.56,86.45a.66.66,0,0,1-.76.54l-4.24-.7A.67.67,0,0,1,47,85.53Z"/><line class="cls-2" x1="56" y1="65.43" x2="50.03" y2="64.45"/><line class="cls-2" x1="53.44" y1="82.55" x2="47.5" y2="81.57"/><path class="cls-1" d="M53.88,80.84l6.33-1a4.75,4.75,0,0,0,3.94-4.61V69.78A15.24,15.24,0,0,0,50.92,54.89L40.76,53.22"/><path class="cls-1" d="M24.39,53.22,14.23,54.89A15.24,15.24,0,0,0,1,69.78v5.48a4.74,4.74,0,0,0,3.94,4.61"/><path class="cls-1" d="M21.22,53.73l9.56,11.39a2.35,2.35,0,0,0,3.59,0l9.55-11.38"/><path class="cls-1" d="M49.82,67.13,5.89,76.46a1.56,1.56,0,0,0-1.2,1.83l1.55,7.52A1.53,1.53,0,0,0,8.06,87l40.06-8.16"/><line class="cls-1" x1="11.87" y1="85.55" x2="11.24" y2="82.52"/><line class="cls-1" x1="17.07" y1="84.48" x2="16.24" y2="80.44"/><line class="cls-1" x1="22.27" y1="83.41" x2="21.65" y2="80.38"/><line class="cls-1" x1="27.47" y1="82.34" x2="26.64" y2="78.3"/><line class="cls-1" x1="32.67" y1="81.27" x2="32.05" y2="78.24"/><line class="cls-1" x1="37.88" y1="80.2" x2="37.04" y2="76.16"/><line class="cls-1" x1="43.08" y1="79.13" x2="42.45" y2="76.1"/><line class="cls-1" x1="11.65" y1="18.11" x2="53.72" y2="18.11"/></g></g></svg>