<svg xmlns="http://www.w3.org/2000/svg" viewBox="0 0 65.15 88.05"><defs><style>.cls-1,.cls-2{fill:none;stroke:#00008f;stroke-width:2px}.cls-1{stroke-linecap:round;stroke-linejoin:round}.cls-2{stroke-miterlimit:10}</style></defs><g id="Layer_2" data-name="Layer 2"><g id="blue_stroke_2px"><path class="cls-1" d="M28.61 12.68h8l1.25-10.91A17.66 17.66 0 0 0 32.63 1a18 18 0 0 0-5.23.79zM32.63 1v6.76"/><path class="cls-1" d="M53.72 18.11H51.3A19 19 0 0 0 32.55 1a18.72 18.72 0 0 0-18.48 17.11h-2.42v4.62h42.07zM19.72 22.89v12.77c0 7.79 4.69 14.1 12.89 14.1s12.9-6.31 12.9-14.1V23M13.86 22.94v1.82c0 4.54 2.34 9.72 5.86 12.07"/><path class="cls-1" d="M45.51 36.83a13.84 13.84 0 0 0 5.86-11.75v-2.35M24.41 46.94v6.23M40.82 46.94v6.23"/><path class="cls-2" d="M47 85.53l3.57-21.59a.68.68 0 0 1 .21-.38l2.87-4.25a.66.66 0 0 1 1 .21l1.38 4.93a.58.58 0 0 1 .05.39l-3.52 21.61a.66.66 0 0 1-.76.54l-4.24-.7a.67.67 0 0 1-.56-.76zM56 65.43l-5.97-.98M53.44 82.55l-5.94-.98"/><path class="cls-1" d="M53.88 80.84l6.33-1a4.75 4.75 0 0 0 3.94-4.61v-5.45a15.24 15.24 0 0 0-13.23-14.89l-10.16-1.67M24.39 53.22l-10.16 1.67A15.24 15.24 0 0 0 1 69.78v5.48a4.74 4.74 0 0 0 3.94 4.61"/><path class="cls-1" d="M21.22 53.73l9.56 11.39a2.35 2.35 0 0 0 3.59 0l9.55-11.38M49.82 67.13L5.89 76.46a1.56 1.56 0 0 0-1.2 1.83l1.55 7.52A1.53 1.53 0 0 0 8.06 87l40.06-8.16M11.87 85.55l-.63-3.03M17.07 84.48l-.83-4.04M22.27 83.41l-.62-3.03M27.47 82.34l-.83-4.04M32.67 81.27l-.62-3.03M37.88 80.2l-.84-4.04M43.08 79.13l-.63-3.03M11.65 18.11h42.07"/></g></g></svg>