<svg xmlns="http://www.w3.org/2000/svg" viewBox="0 0 96 96"><defs><style>.cls-2{fill:none;stroke:#00008f;stroke-linecap:round;stroke-linejoin:round;stroke-width:2px}</style></defs><g id="Layer_2" ><g id="icons"><path class="cls-2" d="M34.11 74.27v4.6M68.61 30.64A21.21 21.21 0 0 0 48 15.5a21.23 21.23 0 0 0-20.53 15.07M27.9 42.8a21.61 21.61 0 0 0 40.29-.07M69.38 30.55a4.91 4.91 0 0 0-.77.09 19.36 19.36 0 0 1-.42 12.09 5.23 5.23 0 0 0 1.19.14A5.92 5.92 0 0 0 75 36.71a5.92 5.92 0 0 0-5.62-6.16zM68.19 42.73a19.36 19.36 0 0 0 .42-12.09"/><path class="cls-2" d="M27.31 42.87a4 4 0 0 0 .59-.07 19.34 19.34 0 0 1-.43-12.23h-.16M56.82 22.34c-2.77 0-5-3.45-5-6.47M54.31 26.45c-4.85 0-8.79-5.29-8.79-10.58M24.33 76.94l12.84 2.53a61.28 61.28 0 0 0 22.35 0l12.84-2.53M62.58 74.27v4.6"/><path class="cls-2" d="M24.33 76.94c0-13.26 10.75-20.46 24-20.46s24 7.2 24 20.46M54.57 57.37a6.23 6.23 0 1 1-12.45 0M27.81 42.73a5.23 5.23 0 0 1-1.19.14A5.92 5.92 0 0 1 21 36.71a5.92 5.92 0 0 1 5.65-6.16 4.91 4.91 0 0 1 .77.09"/></g></g></svg>