<svg xmlns="http://www.w3.org/2000/svg" viewBox="0 0 96 96"><defs><style>.cls-2{fill:none;stroke:#00008f;stroke-linecap:round;stroke-linejoin:round;stroke-width:2px}</style></defs><g id="Layer_2" ><path fill="currentColor" d="M0 0h96v96H0z" id="icons"/><g id="blue_stroke_2px"><path class="cls-2" d="M41.54 25.31h-9.43a11.56 11.56 0 0 0-7.33 3.14v7.36c0 7 4.19 12.6 11.52 12.6s11.52-5.64 11.52-12.6V22.16s-3.14 3.15-6.28 3.15z"/><path class="cls-2" d="M18.5 23.49a15 15 0 0 1 15-15h2.29a15 15 0 0 1 13.13 7.36 4.93 4.93 0 0 1 5.24 5.24v18.84a8.41 8.41 0 0 0 1.54 4.92M28.97 45.88v5.76M43.63 45.88v5.76M51.35 76.9l-2.35.57a67.08 67.08 0 0 1-25.34 0l-11.19-2.15a4.22 4.22 0 0 1-3.4-4.13v-4.91A13.48 13.48 0 0 1 20.48 53L29 51.64M43.63 51.64l4.62.71"/><path class="cls-2" d="M24.68 52.3l3.11 6.52a9.42 9.42 0 0 0 17 0l3.1-6.52M20.59 71.35v5.41M52.01 71.35l-.01 4.7M22.69 52.49L21 52.22a9.21 9.21 0 0 1-6.71-5 8.33 8.33 0 0 0 4.19-7.33V23.17M80.36 52a15.35 15.35 0 0 0-29.29-.05M51.38 60.61a15.39 15.39 0 0 0 28.68-.06"/><path class="cls-2" d="M80.91 51.89a3.31 3.31 0 0 0-.55.06 13.85 13.85 0 0 1 .55 3.83 14 14 0 0 1-.85 4.77 3.41 3.41 0 0 0 .85.1 4.4 4.4 0 0 0 0-8.76z"/><path class="cls-2" d="M80.06 60.55a14 14 0 0 0 .85-4.77 13.85 13.85 0 0 0-.55-3.78M51.38 60.61a13.79 13.79 0 0 1-.31-8.71M72 46c-2 0-3.58-2.46-3.58-4.61M70.18 49c-3.46 0-6.26-3.76-6.26-7.53M49 85l9.14 1.8a43.42 43.42 0 0 0 15.91 0l9.09-1.8M76.18 83.06v3.28"/><path class="cls-2" d="M49 85c0-9.44 7.65-14.56 17.1-14.56S83.14 75.52 83.14 85M70.48 70.79a4.44 4.44 0 1 1-8.87 0M51.36 60.54a4.23 4.23 0 0 1-.87.11 4.4 4.4 0 0 1 0-8.76A3.07 3.07 0 0 1 51 52"/></g></g></svg>