<svg xmlns="http://www.w3.org/2000/svg" viewBox="0 0 96 96"><defs><style>.cls-1{fill:#fff;}.cls-2{fill:none;stroke:#00008f;stroke-linecap:round;stroke-linejoin:round;stroke-width:2px;}</style></defs><title>Birthday</title><g id="Layer_2" data-name="Layer 2"><g id="icons"><rect class="cls-1" width="96" height="96"/></g><g id="stroke_blue_2px" data-name="stroke blue 2px"><path class="cls-2" d="M73.55,45.7A5.27,5.27,0,0,1,78.82,51v9.42a1,1,0,0,1-1,1H75.38V77.11A5.89,5.89,0,0,1,69.53,83H26a5.88,5.88,0,0,1-5.85-5.89v-16l-2,0a1,1,0,0,1-1-1V51a5.27,5.27,0,0,1,5.27-5.27Zm-30.1,0V35.25a1.06,1.06,0,0,1,.31-.77,5.18,5.18,0,0,1,7.38,0,1.1,1.1,0,0,1,.31.77V45.7M71,60.84l-.63-.34c-3.23-1.73-4.51-1.74-7.74,0a15.15,15.15,0,0,1-13.69,0,11.84,11.84,0,0,0-10.75,0l-.4.21a15.2,15.2,0,0,1-12.74.4l-4.92,0M47.76,13a.85.85,0,0,1,.8.52c2.47,5.19,3.7,8.87,3.7,11.17h0c0,2.78-1.73,3.73-4.47,2.81h-.06c-2.73.92-4.47,0-4.47-2.81h0c0-2.3,1.24-6,3.71-11.17A.84.84,0,0,1,47.76,13Z"/></g></g></svg>