<svg xmlns="http://www.w3.org/2000/svg" viewBox="0 0 96 96"><defs><style>.cls-1{fill:#fff;}.cls-2{fill:none;stroke:#00008f;stroke-linecap:round;stroke-linejoin:round;stroke-width:2px;}</style></defs><title>Boy</title><g id="Layer_2" data-name="Layer 2"><g id="icons"><rect class="cls-1" width="96" height="96"/><path class="cls-2" d="M32.15,48.2a17,17,0,0,0,31.78-.06"/><path class="cls-2" d="M31.49,38.55a4.88,4.88,0,0,0,.2,9.7,3.41,3.41,0,0,0,.46,0c-.44-1.2-.58-12.22-.74-18.36"/><path class="cls-2" d="M64.51,38.55a4.88,4.88,0,0,1-.2,9.7,3.41,3.41,0,0,1-.46,0c.39-1.06.67-9.13.83-15.33"/><path class="cls-2" d="M64.68,32.9a1.78,1.78,0,0,0,1-1.59V20.19c0-.63-4.26-7.25-18.31-7.25-15.56,0-19.22,18.31-19.22,18.31a21.4,21.4,0,0,1,3.13-1.44"/><path class="cls-2" d="M31.26,29.81a23.34,23.34,0,0,1,16.09-.39,15.08,15.08,0,0,0,11.91-.69v2.58A1.77,1.77,0,0,0,61,33.08H63.9a1.86,1.86,0,0,0,.78-.18"/><path class="cls-2" d="M42.9,23c-8.92-.72-14.37,7.61-14.37,7.61"/><line class="cls-2" x1="33.77" y1="76.84" x2="33.77" y2="81.44"/><path class="cls-2" d="M24,79.51,36.83,82a61.23,61.23,0,0,0,22.34,0L72,79.51"/><line class="cls-2" x1="62.23" y1="76.84" x2="62.23" y2="81.44"/><path class="cls-2" d="M24,79.51c0-13.27,10.76-20.46,24-20.46s24,7.19,24,20.46"/><path class="cls-2" d="M54.23,59.94a6.23,6.23,0,0,1-12.46,0"/></g></g></svg>