<svg xmlns="http://www.w3.org/2000/svg" viewBox="0 0 96 96"><g fill="none" stroke="currentColor" stroke-linecap="round" stroke-linejoin="round" stroke-width="2"><path d="M42 43c5 0 7-2 7-5"/><rect x="36" y="41" width="6" height="4" rx="2"/><circle cx="70" cy="51" r="2"/><circle cx="62" cy="51" r="2"/><circle cx="78" cy="51" r="2"/><path d="M70 35a16 16 0 0 0-14 23.82L54 67l8.18-2A16 16 0 1 0 70 35zM32 49v5m13-5v5M23 73v5.32M54 73v5.32"/><path d="M45 54l8.9 1.53.85.3M32 54l-8.9 1.53c-6.38.93-11.1 6.09-11.1 12.16v5.48a3.89 3.89 0 0 0 3.31 3.76l10.86 2a69.5 69.5 0 0 0 24.66 0l10.86-2A3.89 3.89 0 0 0 65 73.17v-7"/><path d="M28.46 54.61l7.68 10.09a2.9 2.9 0 0 0 2.41 1.3 2.91 2.91 0 0 0 2.32-1.16L48.5 54.6M43.27 29h-8.59A12.74 12.74 0 0 0 28 31v8c0 6.64 3.82 12 10.5 12S49 45.71 49 39.07V26s-2.86 3-5.73 3z"/><path d="M26 55l-1.59-.26A8.82 8.82 0 0 1 18 50a7.94 7.94 0 0 0 4-7V28.31A14.29 14.29 0 0 1 36.27 14h1.19A14.32 14.32 0 0 1 50 21a4.71 4.71 0 0 1 5 5v17a8.63 8.63 0 0 0 .21 1.9"/></g></svg>