<svg xmlns="http://www.w3.org/2000/svg" viewBox="0 0 96 96"><defs><style>.cls-2{fill:none;stroke:#00008f;stroke-linecap:round;stroke-linejoin:round;stroke-width:2px}</style></defs><g id="Layer_2" data-name="Layer 2"><path fill="#fff" d="M0 0h96v96H0z" id="icons"/><g id="blue_stroke_2px"><path class="cls-2" d="M46.74 28.72c-3.19 0-6.27-2.55-7.5-5.54-2 4.32-4.42 7.75-10.49 7.75h-6.08v8.86c0 7.34 4.42 13.29 12.15 13.29S47 47.13 47 39.79V28.72z"/><path class="cls-2" d="M47 40.9a13.06 13.06 0 0 0 5.52-11.08v-6.64a4.42 4.42 0 0 0-4.42-4.43A15.82 15.82 0 0 0 34.22 11h-1.31a15.79 15.79 0 0 0-15.76 15.8v2.72c0 4.28 2.21 9.16 5.52 11.38M27.09 50.42v5.86M42.55 50.42v5.86M27.09 56.28l-9.59 1.59A14.38 14.38 0 0 0 5 71.93v5.17a4.47 4.47 0 0 0 3.72 4.35L21 83.72a75.64 75.64 0 0 0 27.74 0l12.23-2.27a4.47 4.47 0 0 0 3.72-4.35v-5.17a14.37 14.37 0 0 0-12.54-14.06l-9.6-1.59M17.15 77.27v5.71M52.49 77.27v5.71"/><path class="cls-2" d="M24.1 56.77l9 10.75a2.21 2.21 0 0 0 3.38 0l9-10.74M65 33.16v18.42h26V33.16M65 26.66h26v6.5H65zM70.96 39.66h14.08M85.04 45.08h-8.66M73 29.14v-5M83 29.14v-5"/></g></g></svg>