<svg xmlns="http://www.w3.org/2000/svg" viewBox="0 0 96 96"><path fill="currentColor" d="M0 0h96v96H0z"/><g fill="none" stroke="currentColor" stroke-linecap="round" stroke-linejoin="round" stroke-width="2"><path d="M46.74 28.72c-3.19 0-6.27-2.55-7.5-5.54-2 4.32-4.42 7.75-10.49 7.75h-6.08v8.86c0 7.34 4.42 13.29 12.15 13.29S47 47.13 47 39.79V28.72z"/><path d="M47 40.9a13.06 13.06 0 0 0 5.52-11.08v-6.64a4.42 4.42 0 0 0-4.42-4.43A15.82 15.82 0 0 0 34.22 11h-1.31a15.79 15.79 0 0 0-15.76 15.8v2.72c0 4.28 2.21 9.16 5.52 11.38m4.42 9.52v5.86m15.46-5.86v5.86m-15.46 0l-9.59 1.59A14.38 14.38 0 0 0 5 71.93v5.17a4.47 4.47 0 0 0 3.72 4.35L21 83.72a75.64 75.64 0 0 0 27.74 0l12.23-2.27a4.47 4.47 0 0 0 3.72-4.35v-5.17a14.37 14.37 0 0 0-12.54-14.06l-9.6-1.59m-25.4 20.99v5.71m35.34-5.71v5.71"/><path d="M24.1 56.77l9 10.75a2.21 2.21 0 0 0 3.38 0l9-10.74M65 33.16v18.42h26V33.16m-26-6.5h26v6.5H65zm5.96 13h14.08m0 5.42h-8.66M73 29.14v-5m10 5v-5"/></g></svg>