<svg xmlns="http://www.w3.org/2000/svg" viewBox="0 0 96 96"><defs><style>.cls-1{fill:#fff;}.cls-2{fill:none;stroke:#00008f;stroke-linecap:round;stroke-linejoin:round;stroke-width:2px;}</style></defs><title>Contractor</title><g id="Layer_2" data-name="Layer 2"><g id="icons"><rect class="cls-1" width="96" height="96"/></g><g id="blue_stroke_2px"><path class="cls-2" d="M46.74,28.72c-3.19,0-6.27-2.55-7.5-5.54-2,4.32-4.42,7.75-10.49,7.75H22.67v8.86c0,7.34,4.42,13.29,12.15,13.29S47,47.13,47,39.79V28.72Z"/><path class="cls-2" d="M47,40.9a13.06,13.06,0,0,0,5.52-11.08V23.18a4.42,4.42,0,0,0-4.42-4.43A15.82,15.82,0,0,0,34.22,11H32.91A15.79,15.79,0,0,0,17.15,26.8v2.72c0,4.28,2.21,9.16,5.52,11.38"/><line class="cls-2" x1="27.09" y1="50.42" x2="27.09" y2="56.28"/><line class="cls-2" x1="42.55" y1="50.42" x2="42.55" y2="56.28"/><path class="cls-2" d="M27.09,56.28,17.5,57.87A14.38,14.38,0,0,0,5,71.93V77.1a4.47,4.47,0,0,0,3.72,4.35L21,83.72a75.64,75.64,0,0,0,27.74,0l12.23-2.27a4.47,4.47,0,0,0,3.72-4.35V71.93A14.37,14.37,0,0,0,52.15,57.87l-9.6-1.59"/><line class="cls-2" x1="17.15" y1="77.27" x2="17.15" y2="82.98"/><line class="cls-2" x1="52.49" y1="77.27" x2="52.49" y2="82.98"/><path class="cls-2" d="M24.1,56.77l9,10.75a2.21,2.21,0,0,0,3.38,0l9-10.74"/><polyline class="cls-2" points="65 33.16 65 51.58 91 51.58 91 33.16"/><rect class="cls-2" x="65" y="26.66" width="26" height="6.5"/><line class="cls-2" x1="70.96" y1="39.66" x2="85.04" y2="39.66"/><line class="cls-2" x1="85.04" y1="45.08" x2="76.38" y2="45.08"/><line class="cls-2" x1="73" y1="29.14" x2="73" y2="24.14"/><line class="cls-2" x1="83" y1="29.14" x2="83" y2="24.14"/></g></g></svg>