<svg xmlns="http://www.w3.org/2000/svg" viewBox="0 0 88 84"><defs><style>.cls-1{fill:none;stroke:#00008f;stroke-linecap:round;stroke-linejoin:round;stroke-width:2px;}</style></defs><title>Doctor Man</title><g id="Layer_2" data-name="Layer 2"><g id="stroke_blue_2px" data-name="stroke blue 2px"><path class="cls-1" d="M48.58,20.63c-3.65,0-7.15-2.82-8.56-6.13-2.28,4.79-5,8.59-12,8.59H21.14V32.9c0,8.13,5,14.73,13.85,14.73S48.84,41,48.84,32.9V20.63Z"/><path class="cls-1" d="M48.84,34.13a14.4,14.4,0,0,0,6.29-12.27V14.5a5,5,0,0,0-5-4.91A18.15,18.15,0,0,0,34.31,1H32.82a17.74,17.74,0,0,0-18,17.51v3c0,4.74,2.52,10.16,6.29,12.61"/><line class="cls-1" x1="26.18" y1="44.68" x2="26.18" y2="51.18"/><line class="cls-1" x1="43.8" y1="44.68" x2="43.8" y2="51.18"/><path class="cls-1" d="M26.18,51.18,15.24,52.93C7.05,54.12,1,60.73,1,68.51v5.74a5,5,0,0,0,4.24,4.82l13.94,2.52a89.34,89.34,0,0,0,31.62,0l13.94-2.52A5,5,0,0,0,69,74.25V68.51c0-7.78-6.05-14.39-14.24-15.58L43.8,51.18"/><polyline class="cls-1" points="51.24 52.37 53.72 62.71 48.29 67 52.66 69.54 46.59 81.74"/><line class="cls-1" x1="38.43" y1="82.82" x2="43.8" y2="51.18"/><polyline class="cls-1" points="18.82 52.36 16.31 62.8 21.74 67.09 17.36 69.63 23.44 81.83"/><line class="cls-1" x1="31.6" y1="82.91" x2="26.23" y2="51.27"/><path class="cls-1" d="M86.06,24.1H79.45V17.43a1,1,0,0,0-1-.95H71a.94.94,0,0,0-.94.95V24.1H63.4a1,1,0,0,0-.95,1v7.63a1,1,0,0,0,.95,1H70v6.67a1,1,0,0,0,.94,1H78.5a1,1,0,0,0,1-1V33.64h6.61a1,1,0,0,0,.94-1V25.06A1,1,0,0,0,86.06,24.1Z"/><line class="cls-1" x1="27.97" y1="61.54" x2="42.04" y2="61.54"/></g></g></svg>