<svg xmlns="http://www.w3.org/2000/svg" viewBox="0 0 88 84"><defs><style>.cls-1{fill:none;stroke:#00008f;stroke-linecap:round;stroke-linejoin:round;stroke-width:2px}</style></defs><g id="Layer_2" data-name="Layer 2"><g id="stroke_blue_2px" data-name="stroke blue 2px"><path class="cls-1" d="M48.58 20.63c-3.65 0-7.15-2.82-8.56-6.13-2.28 4.79-5 8.59-12 8.59h-6.88v9.81c0 8.13 5 14.73 13.85 14.73S48.84 41 48.84 32.9V20.63z"/><path class="cls-1" d="M48.84 34.13a14.4 14.4 0 0 0 6.29-12.27V14.5a5 5 0 0 0-5-4.91A18.15 18.15 0 0 0 34.31 1h-1.49a17.74 17.74 0 0 0-18 17.51v3c0 4.74 2.52 10.16 6.29 12.61M26.18 44.68v6.5M43.8 44.68v6.5M26.18 51.18l-10.94 1.75C7.05 54.12 1 60.73 1 68.51v5.74a5 5 0 0 0 4.24 4.82l13.94 2.52a89.34 89.34 0 0 0 31.62 0l13.94-2.52A5 5 0 0 0 69 74.25v-5.74c0-7.78-6.05-14.39-14.24-15.58L43.8 51.18"/><path class="cls-1" d="M51.24 52.37l2.48 10.34L48.29 67l4.37 2.54-6.07 12.2M38.43 82.82l5.37-31.64M18.82 52.36L16.31 62.8l5.43 4.29-4.38 2.54 6.08 12.2M31.6 82.91l-5.37-31.64M86.06 24.1h-6.61v-6.67a1 1 0 0 0-1-.95H71a.94.94 0 0 0-.94.95v6.67H63.4a1 1 0 0 0-.95 1v7.63a1 1 0 0 0 .95 1H70v6.67a1 1 0 0 0 .94 1h7.56a1 1 0 0 0 1-1v-6.76h6.61a1 1 0 0 0 .94-1v-7.58a1 1 0 0 0-.99-.96zM27.97 61.54h14.07"/></g></g></svg>