<svg xmlns="http://www.w3.org/2000/svg" viewBox="0 0 96 96"><defs><style>.cls-1{fill:#fff;}.cls-2{fill:none;stroke:#00008f;stroke-linecap:round;stroke-linejoin:round;stroke-width:2px;}</style></defs><title>Doctor Woman</title><g id="Layer_2" data-name="Layer 2"><g id="icons"><rect class="cls-1" width="96" height="96"/></g><g id="stroke_blue_2px" data-name="stroke blue 2px"><path class="cls-2" d="M90.06,31H83.45V24.47a.94.94,0,0,0-1-.94H75a.94.94,0,0,0-.94.94V31H67.4a.94.94,0,0,0-.94.94v7.49a.94.94,0,0,0,.94.94H74v6.55a.94.94,0,0,0,.94.94H82.5a.94.94,0,0,0,1-.94V40.39h6.61a.94.94,0,0,0,.94-.94V32A.94.94,0,0,0,90.06,31Z"/><polyline class="cls-2" points="53.44 58.53 55.98 68.93 50.55 73.15 54.92 75.65 48.85 87.63"/><line class="cls-2" x1="40.69" y1="88.68" x2="46.01" y2="57.4"/><polyline class="cls-2" points="21.14 58.54 18.58 69.02 24 73.24 19.63 75.73 25.7 87.71"/><line class="cls-2" x1="33.86" y1="88.77" x2="28.61" y2="57.4"/><line class="cls-2" x1="30.71" y1="67.79" x2="43.71" y2="67.79"/><path class="cls-2" d="M43.52,26.63H32.34c-5,0-8.7,3.68-8.7,3.68V38.9c0,8.13,5,14.73,13.67,14.73S51,47,51,38.9V23S47.25,26.63,43.52,26.63Z"/><path class="cls-2" d="M16.18,24.51A17.63,17.63,0,0,1,33.92,7h2.72c6.65,0,21.8,1.34,21.8,14.72v22a9.7,9.7,0,0,0,5,8.56h0a10.94,10.94,0,0,1-7.92,5.91l-2.05.34"/><line class="cls-2" x1="28.61" y1="50.68" x2="28.61" y2="57.31"/><line class="cls-2" x1="46.01" y1="50.68" x2="46.01" y2="57.31"/><path class="cls-2" d="M46,57.4l10.07,1.53A15.83,15.83,0,0,1,69.62,74.51v5.74a4.92,4.92,0,0,1-4,4.82L52.34,87.59a80.81,80.81,0,0,1-30.06,0L9,85.07a4.92,4.92,0,0,1-4-4.82V74.51A15.83,15.83,0,0,1,18.54,58.93L28.61,57.4"/><path class="cls-2" d="M21.15,58.54l-2-.33a11.07,11.07,0,0,1-8-5.93h0a9.7,9.7,0,0,0,5-8.56V24.13"/></g></g></svg>