<svg xmlns="http://www.w3.org/2000/svg" viewBox="0 0 96 96"><defs><style>.cls-2{fill:none;stroke:#00008f;stroke-linecap:round;stroke-linejoin:round;stroke-width:2px}</style></defs><g id="Layer_2" data-name="Layer 2"><path fill="#fff" d="M0 0h96v96H0z" id="icons"/><g id="blue_stroke_2px"><path class="cls-2" d="M49.29 28.72c-3.16 0-6.2-2.55-7.42-5.54-2 4.32-4.37 7.75-10.38 7.75h-6v8.86c0 7.34 4.37 13.29 12 13.29s12-5.95 12-13.29V28.72z"/><path class="cls-2" d="M49.52 40.9A13.08 13.08 0 0 0 55 29.82v-6.64a4.4 4.4 0 0 0-4.37-4.43A15.62 15.62 0 0 0 36.91 11h-1.3A15.7 15.7 0 0 0 20 26.8v2.72c0 4.28 2.18 9.16 5.46 11.38M29.85 50.42v5.98M45.15 50.42v5.98M29.85 56.4l-9.49 1.47A14.33 14.33 0 0 0 8 71.93v5.17a4.45 4.45 0 0 0 3.68 4.35l12.1 2.27a74 74 0 0 0 27.44 0l12.1-2.27A4.45 4.45 0 0 0 67 77.1v-5.17a14.33 14.33 0 0 0-12.36-14.06l-9.49-1.47"/><path class="cls-2" d="M45.15 56.4l-7.65 6.51 8.74 4.56 2.31-10.52M26.45 56.95l2.31 10.52 8.74-4.56-7.65-6.51M33.13 65.26l2.18 4.42-2.3 15.18M41.87 65.26l-2.18 4.42 2.3 15.18M35.31 69.68h4.38M20.02 77.27v5.71M54.98 77.27v5.71M88 32.52v5h-9.5v9.5h-5v-9.5H64v-5h9.5v-9.5h5v9.5H88z"/></g></g></svg>