<svg xmlns="http://www.w3.org/2000/svg" viewBox="0 0 96 96"><defs><style>.cls-1{fill:#fff;}.cls-2{fill:none;stroke:#00008f;stroke-linecap:round;stroke-linejoin:round;stroke-width:2px;}</style></defs><title>Employee</title><g id="Layer_2" data-name="Layer 2"><g id="icons"><rect class="cls-1" width="96" height="96"/><path class="cls-2" d="M45.79,31c-2.89,0-5.67-2.3-6.79-5-1.81,3.91-4,7-9.5,7H24v8c0,6.64,4,12,11,12s11-5.39,11-12V31Z"/><path class="cls-2" d="M46,42.07a11.83,11.83,0,0,0,5-10V26a4,4,0,0,0-4-4,14.32,14.32,0,0,0-12.54-7H33.27A14.29,14.29,0,0,0,19,29.31v2.46c0,3.87,2,8.29,5,10.3"/><line class="cls-2" x1="28" y1="50.69" x2="28" y2="56.1"/><line class="cls-2" x1="42" y1="50.69" x2="42" y2="56.1"/><path class="cls-2" d="M27.73,56.18l-8.42,1.25A13,13,0,0,0,8,70.16v4.69a4,4,0,0,0,3.37,3.94l11.07,2a68.43,68.43,0,0,0,25.12,0l11.07-2A4,4,0,0,0,62,74.85V70.16A13,13,0,0,0,50.69,57.43l-8.42-1.25"/><polyline class="cls-2" points="42 56.1 35 62 43 67.13 45.11 56.6"/><polyline class="cls-2" points="24.89 56.6 27 67.13 35 62 28 56.1"/><line class="cls-2" x1="19" y1="75" x2="19" y2="80.17"/><line class="cls-2" x1="51" y1="75" x2="51" y2="80.17"/><line class="cls-2" x1="35" y1="62" x2="35" y2="82"/><path class="cls-2" d="M76,36a5.33,5.33,0,0,1-5-3c-1.34,2.75-2.93,5-7,5H60v6c0,4.67,2.81,9,8,9s8-4.33,8-9Z"/><path class="cls-2" d="M76,46s5-2,5-9V35c0-3,0-7-4-7-1.87-3.12-4-5-9-5H67A12.16,12.16,0,0,0,55,35v2c0,7,5,9,5,9"/><line class="cls-2" x1="74.01" y1="50.27" x2="74.01" y2="55"/><line class="cls-2" x1="62.01" y1="50.18" x2="62.01" y2="55"/><path class="cls-2" d="M74,55l5.61.61c4.83.69,8.39,4.51,8.39,9v3.32a2.92,2.92,0,0,1-2.5,2.79l-8.2,1.45a53,53,0,0,1-14.83.53"/><path class="cls-2" d="M62,55l-5.62.61a10.29,10.29,0,0,0-4.77,2"/><line class="cls-2" x1="80.01" y1="67" x2="80.01" y2="71.7"/><polyline class="cls-2" points="74 55 68 61 62.01 55"/></g></g></svg>