<svg xmlns="http://www.w3.org/2000/svg" viewBox="0 0 96 96"><defs><style>.cls-2{fill:none;stroke:#00008f;stroke-linecap:round;stroke-linejoin:round;stroke-width:2px}</style></defs><g id="Layer_2" data-name="Layer 2"><g id="icons"><path fill="#fff" d="M0 0h96v96H0z"/><path class="cls-2" d="M45.79 31c-2.89 0-5.67-2.3-6.79-5-1.81 3.91-4 7-9.5 7H24v8c0 6.64 4 12 11 12s11-5.39 11-12V31z"/><path class="cls-2" d="M46 42.07a11.83 11.83 0 0 0 5-10V26a4 4 0 0 0-4-4 14.32 14.32 0 0 0-12.54-7h-1.19A14.29 14.29 0 0 0 19 29.31v2.46c0 3.87 2 8.29 5 10.3M28 50.69v5.41M42 50.69v5.41M27.73 56.18l-8.42 1.25A13 13 0 0 0 8 70.16v4.69a4 4 0 0 0 3.37 3.94l11.07 2a68.43 68.43 0 0 0 25.12 0l11.07-2A4 4 0 0 0 62 74.85v-4.69a13 13 0 0 0-11.31-12.73l-8.42-1.25"/><path class="cls-2" d="M42 56.1L35 62l8 5.13 2.11-10.53M24.89 56.6L27 67.13 35 62l-7-5.9M19 75v5.17M51 75v5.17M35 62v20M76 36a5.33 5.33 0 0 1-5-3c-1.34 2.75-2.93 5-7 5h-4v6c0 4.67 2.81 9 8 9s8-4.33 8-9z"/><path class="cls-2" d="M76 46s5-2 5-9v-2c0-3 0-7-4-7-1.87-3.12-4-5-9-5h-1a12.16 12.16 0 0 0-12 12v2c0 7 5 9 5 9M74.01 50.27V55M62.01 50.18V55M74 55l5.61.61c4.83.69 8.39 4.51 8.39 9v3.32a2.92 2.92 0 0 1-2.5 2.79l-8.2 1.45a53 53 0 0 1-14.83.53M62 55l-5.62.61a10.29 10.29 0 0 0-4.77 2M80.01 67v4.7M74 55l-6 6-5.99-6"/></g></g></svg>