<svg xmlns="http://www.w3.org/2000/svg" viewBox="0 0 96 96"><defs><style>.cls-1{fill:#fff;}.cls-2{fill:none;stroke:#00008f;stroke-linecap:round;stroke-linejoin:round;stroke-width:2px;}</style></defs><title>Employee Retired</title><g id="Layer_2" data-name="Layer 2"><g id="icons"><rect class="cls-1" width="96" height="96"/></g><g id="blue_stroke_2px"><rect class="cls-2" x="64" y="40" width="21" height="5"/><path class="cls-2" d="M52.29,28.72c-3.16,0-6.2-2.55-7.42-5.54-2,4.32-4.37,7.75-10.38,7.75h-6v8.86c0,7.34,4.37,13.29,12,13.29s12-5.95,12-13.29V28.72Z"/><path class="cls-2" d="M52.52,40.9A13.08,13.08,0,0,0,58,29.82V23.18a4.4,4.4,0,0,0-4.37-4.43A15.62,15.62,0,0,0,39.91,11h-1.3A15.7,15.7,0,0,0,23,26.8v2.72c0,4.28,2.18,9.16,5.46,11.38"/><line class="cls-2" x1="32.85" y1="50.42" x2="32.85" y2="56.4"/><line class="cls-2" x1="48.15" y1="50.42" x2="48.15" y2="56.4"/><path class="cls-2" d="M32.85,56.4l-9.49,1.47A14.33,14.33,0,0,0,11,71.93V77.1a4.45,4.45,0,0,0,3.68,4.35l12.1,2.27a74,74,0,0,0,27.44,0l12.1-2.27A4.45,4.45,0,0,0,70,77.1V71.93A14.33,14.33,0,0,0,57.64,57.87L48.15,56.4"/><polyline class="cls-2" points="48.15 56.4 40.5 62.91 49.24 67.47 51.55 56.95"/><polyline class="cls-2" points="29.45 56.95 31.76 67.47 40.5 62.91 32.85 56.4"/><polyline class="cls-2" points="36.13 65.26 38.31 69.68 36.01 84.86"/><polyline class="cls-2" points="44.87 65.26 42.69 69.68 44.99 84.86"/><line class="cls-2" x1="38.31" y1="69.68" x2="42.69" y2="69.68"/><line class="cls-2" x1="23.02" y1="77.27" x2="23.02" y2="82.98"/><line class="cls-2" x1="57.98" y1="77.27" x2="57.98" y2="82.98"/></g></g></svg>