<svg xmlns="http://www.w3.org/2000/svg" viewBox="0 0 96 96"><defs><style>.cls-1{fill:#fff;}.cls-2{fill:none;stroke:#00008f;stroke-linecap:round;stroke-linejoin:round;stroke-width:2px;}</style></defs><title>Employee Transition</title><g id="Layer_2" data-name="Layer 2"><g id="icons"><rect class="cls-1" width="96" height="96"/></g><g id="blue_stroke_2px"><path class="cls-2" d="M42,28.72H32.12c-4.39,0-7.68,3.32-7.68,3.32v7.75c0,7.34,4.39,13.29,12.06,13.29s12.06-5.95,12.06-13.29V25.39S45.27,28.72,42,28.72Z"/><path class="cls-2" d="M17.87,26.8A15.72,15.72,0,0,1,33.51,11h2.4a15.67,15.67,0,0,1,13.74,7.75,5.18,5.18,0,0,1,5.48,5.53V44.13a8.78,8.78,0,0,0,4.39,7.74h0a9.65,9.65,0,0,1-7,5.23l-1.74.29"/><line class="cls-2" x1="28.83" y1="50.42" x2="28.83" y2="56.4"/><line class="cls-2" x1="44.17" y1="50.42" x2="44.17" y2="56.4"/><path class="cls-2" d="M44.17,56.48l8.89,1.39A14.17,14.17,0,0,1,65,71.93V77.1a4.41,4.41,0,0,1-3.56,4.35L49.76,83.72a69.19,69.19,0,0,1-26.52,0L11.56,81.45A4.41,4.41,0,0,1,8,77.1V71.93A14.17,14.17,0,0,1,19.94,57.87l8.89-1.39"/><path class="cls-2" d="M24.44,57.17l3.15,6.89a9.83,9.83,0,0,0,17.82,0l3.34-6.86"/><line class="cls-2" x1="20.06" y1="77.27" x2="20.06" y2="82.98"/><line class="cls-2" x1="52.94" y1="77.27" x2="52.94" y2="82.98"/><path class="cls-2" d="M22.25,57.39l-1.74-.29a9.65,9.65,0,0,1-7-5.23h0a8.78,8.78,0,0,0,4.39-7.74V26.46"/><polygon class="cls-2" points="76 47 76 40.45 64 40.45 64 29.55 76 29.55 76 23 88 35 76 47"/></g></g></svg>