<svg xmlns="http://www.w3.org/2000/svg" viewBox="0 0 96 96"><defs><style>.cls-1{fill:#fff;}.cls-2{fill:none;stroke:#00008f;stroke-linecap:round;stroke-linejoin:round;stroke-width:2px;}</style></defs><title>Employee Hire</title><g id="Layer_2" data-name="Layer 2"><g id="icons"><rect class="cls-1" width="96" height="96"/></g><g id="blue_stroke_2px"><path class="cls-2" d="M49.29,28.72c-3.16,0-6.2-2.55-7.42-5.54-2,4.32-4.37,7.75-10.38,7.75h-6v8.86c0,7.34,4.37,13.29,12,13.29s12-5.95,12-13.29V28.72Z"/><path class="cls-2" d="M49.52,40.9A13.08,13.08,0,0,0,55,29.82V23.18a4.4,4.4,0,0,0-4.37-4.43A15.62,15.62,0,0,0,36.91,11h-1.3A15.7,15.7,0,0,0,20,26.8v2.72c0,4.28,2.18,9.16,5.46,11.38"/><line class="cls-2" x1="29.85" y1="50.42" x2="29.85" y2="56.4"/><line class="cls-2" x1="45.15" y1="50.42" x2="45.15" y2="56.4"/><path class="cls-2" d="M29.85,56.4l-9.49,1.47A14.33,14.33,0,0,0,8,71.93V77.1a4.45,4.45,0,0,0,3.68,4.35l12.1,2.27a74,74,0,0,0,27.44,0l12.1-2.27A4.45,4.45,0,0,0,67,77.1V71.93A14.33,14.33,0,0,0,54.64,57.87L45.15,56.4"/><polyline class="cls-2" points="45.15 56.4 37.5 62.91 46.24 67.47 48.55 56.95"/><polyline class="cls-2" points="26.45 56.95 28.76 67.47 37.5 62.91 29.85 56.4"/><polyline class="cls-2" points="33.13 65.26 35.31 69.68 33.01 84.86"/><polyline class="cls-2" points="41.87 65.26 39.69 69.68 41.99 84.86"/><line class="cls-2" x1="35.31" y1="69.68" x2="39.69" y2="69.68"/><line class="cls-2" x1="20.02" y1="77.27" x2="20.02" y2="82.98"/><line class="cls-2" x1="54.98" y1="77.27" x2="54.98" y2="82.98"/><polygon class="cls-2" points="88 32.52 88 37.52 78.5 37.52 78.5 47.02 73.5 47.02 73.5 37.52 64 37.52 64 32.52 73.5 32.52 73.5 23.02 78.5 23.02 78.5 32.52 88 32.52"/></g></g></svg>