<svg xmlns="http://www.w3.org/2000/svg" viewBox="0 0 96 96"><defs><style>.cls-2{fill:none;stroke:#00008f;stroke-linecap:round;stroke-linejoin:round;stroke-width:2px}</style></defs><g id="Layer_2" data-name="Layer 2"><path fill="currentColor" d="M0 0h96v96H0z" id="icons"/><g id="blue_stroke_2px"><path class="cls-2" d="M42 28.72h-9.88c-4.39 0-7.68 3.32-7.68 3.32v7.75c0 7.34 4.39 13.29 12.06 13.29s12.06-5.95 12.06-13.29v-14.4s-3.29 3.33-6.56 3.33z"/><path class="cls-2" d="M17.87 26.8A15.72 15.72 0 0 1 33.51 11h2.4a15.67 15.67 0 0 1 13.74 7.75 5.18 5.18 0 0 1 5.48 5.53v19.85a8.78 8.78 0 0 0 4.39 7.74 9.65 9.65 0 0 1-7 5.23l-1.74.29M28.83 50.42v5.98M44.17 50.42v5.98M44.17 56.48l8.89 1.39A14.17 14.17 0 0 1 65 71.93v5.17a4.41 4.41 0 0 1-3.56 4.35l-11.68 2.27a69.19 69.19 0 0 1-26.52 0l-11.68-2.27A4.41 4.41 0 0 1 8 77.1v-5.17a14.17 14.17 0 0 1 11.94-14.06l8.89-1.39"/><path class="cls-2" d="M24.44 57.17l3.15 6.89a9.83 9.83 0 0 0 17.82 0l3.34-6.86M20.06 77.27v5.71M52.94 77.27v5.71M22.25 57.39l-1.74-.29a9.65 9.65 0 0 1-7-5.23 8.78 8.78 0 0 0 4.39-7.74V26.46M76 47v-6.55H64v-10.9h12V23l12 12-12 12z"/></g></g></svg>