<svg xmlns="http://www.w3.org/2000/svg" viewBox="0 0 96 96"><g fill="none" stroke="currentColor" stroke-width="2"><path d="M72.77 49.11c-1.29 2.67-2.79 4.46-6.69 4.46h-4.46V58c0 4.53 2.84 8.91 7.8 8.91s7.8-4.38 7.8-8.91v-5.54a4.86 4.86 0 0 1-4.45-3.35z" stroke-linecap="round" stroke-linejoin="round"/><path d="M76.3 62.36a11.45 11.45 0 0 0 5.38-9.9v-1.12A11.42 11.42 0 0 0 70.54 40.2h-2.23a11.42 11.42 0 0 0-11.14 11.14v1.12a11.42 11.42 0 0 0 5.38 9.9m1.3 2.35v4.46m11.14-4.46v4.46m-11.14 0l-5.43 1.08a9 9 0 0 0-7.94 8.68v3.2a2.78 2.78 0 0 0 2.36 2.68l7.77 1.4a49.67 49.67 0 0 0 17.62 0l7.77-1.4a2.79 2.79 0 0 0 2.37-2.68v-3.2a9 9 0 0 0-7.94-8.68L75 69.17M58.28 81.43v4.36m22.29-4.36v4.36M75 69.17a5.57 5.57 0 1 1-11.14 0" stroke-linecap="round" stroke-linejoin="round"/><path d="M48.25 42.43c5.78 0 8.92-4.82 8.92-10v-8.94a6 6 0 0 1-5.58-3.35c-1.49 3.07-3.26 5.57-7.8 5.57h-4.45v6.69c0 5.21 3.13 10.03 8.91 10.03z" stroke-miterlimit="10"/><path d="M57.17 34.63s5.57-2.23 5.57-10v-2.26c0-3.34 0-7.8-4.46-7.8C56.2 11.1 53.82 9 48.25 9h-1.11a13.55 13.55 0 0 0-13.37 13.37v2.23c0 7.8 5.57 10 5.57 10m2.23 10.06v-5.27m13.37-.1v5.37m4.04.44l-4.04-.44M41.62 64.33a59.44 59.44 0 0 0 17-.53l4.12-.73M41.57 44.66l-4.11.45m17.48-.45l-4.78 8a2.22 2.22 0 0 1-3.82 0l-4.77-8m.05 19.67a6.71 6.71 0 0 1-2.79-5.19V48a3.07 3.07 0 0 0-1.37-2.89m4.16 19.22a5.6 5.6 0 0 0 .56.38c-1.43 2.85-4.67 4.33-6.82 5m2.1-24.6a3.76 3.76 0 0 0-2-.45c-1.81-3.15-4.46-4.46-8.88-4.46h-1.12a11.17 11.17 0 0 0-11.14 11.14v7.8c0 3.65-3.34 5.57-3.34 5.57 1.42 2.85 4.66 4.33 6.82 5" stroke-miterlimit="10"/><path d="M32.15 64.71v4.46m-11.15 0l-5.44 1.08a9 9 0 0 0-7.94 8.68v3.2A2.79 2.79 0 0 0 10 84.81l7.77 1.4a49.67 49.67 0 0 0 17.62 0l7.77-1.4a2.78 2.78 0 0 0 2.36-2.68v-3.2a9 9 0 0 0-7.94-8.68l-5.43-1.08m5.57 12.26v4.36" stroke-linecap="round" stroke-linejoin="round"/><path d="M17.91 69.78l2 5c2.37 5 11 5 13.37 0l2-5m-6.47-18.44h-5.58a5.88 5.88 0 0 0-4.45 2.23V58c0 4.46 2.83 8.91 7.8 8.91s7.8-4.45 7.8-8.91v-8.89a8.53 8.53 0 0 1-5.57 2.23zm-7.8 13.37v4.46m-5.58 12.26v4.36" stroke-linecap="round" stroke-linejoin="round"/></g></svg>