<svg xmlns="http://www.w3.org/2000/svg" viewBox="0 0 96 96"><defs><style>.cls-1{fill:#fff;}.cls-2{fill:none;stroke:#00008f;stroke-linecap:round;stroke-linejoin:round;stroke-width:2px;}</style></defs><title>Family G</title><g id="Layer_2" data-name="Layer 2"><g id="icons"><rect class="cls-1" width="96" height="96"/><path class="cls-2" d="M37,27a5.33,5.33,0,0,1-5-3c-1.34,2.75-2.93,5-7,5H21v6c0,4.67,2.81,9,8,9s8-4.33,8-9Z"/><path class="cls-2" d="M37,37s5-2,5-9V26c0-3,0-7-4-7-1.87-3.12-4-5-9-5H28A12.16,12.16,0,0,0,16,26v2c0,7,5,9,5,9"/><line class="cls-2" x1="23" y1="41.27" x2="23" y2="46"/><line class="cls-2" x1="35" y1="41.18" x2="35" y2="46"/><line class="cls-2" x1="38.63" y1="46.4" x2="35" y2="46"/><path class="cls-2" d="M23,46l-5.62.61a9.38,9.38,0,0,0-8.38,9v3.32a2.92,2.92,0,0,0,2.5,2.79l8.2,1.45a53.14,53.14,0,0,0,14.63.55"/><line class="cls-2" x1="17" y1="58" x2="17" y2="62.7"/><path class="cls-2" d="M23,46l4.29,7.14a2,2,0,0,0,3.42,0L35,46"/><path class="cls-2" d="M75,27a5.33,5.33,0,0,1-5-3c-1.34,2.75-2.93,5-7,5H59v6c0,4.67,2.81,9,8,9s8-4.33,8-9Z"/><path class="cls-2" d="M75,37s5-2,5-9V26c0-3,0-7-4-7-1.87-3.12-4-5-9-5H66A12.16,12.16,0,0,0,54,26v2c0,7,5,9,5,9"/><line class="cls-2" x1="73.01" y1="41.27" x2="73.01" y2="46"/><line class="cls-2" x1="61.01" y1="41.18" x2="61.01" y2="46"/><line class="cls-2" x1="57.84" y1="46.35" x2="61.01" y2="46"/><path class="cls-2" d="M73,46l5.61.61c4.83.69,8.39,4.51,8.39,9v3.32a2.92,2.92,0,0,1-2.5,2.79l-8.2,1.45a53,53,0,0,1-14.83.53"/><line class="cls-2" x1="79.01" y1="58" x2="79.01" y2="62.7"/><path class="cls-2" d="M73,46l-4.29,7.14a2,2,0,0,1-3.43,0L61,46"/><line class="cls-2" x1="43" y1="64" x2="43" y2="68"/><line class="cls-2" x1="53" y1="64" x2="53" y2="68"/><path class="cls-2" d="M43,68l-4.88,1A8.06,8.06,0,0,0,31,76.76v2.87A2.51,2.51,0,0,0,33.12,82l7,1.25a44.26,44.26,0,0,0,15.82,0l7-1.25A2.51,2.51,0,0,0,65,79.63V76.76A8.06,8.06,0,0,0,57.88,69L53,68"/><line class="cls-2" x1="38" y1="79" x2="38" y2="82.92"/><line class="cls-2" x1="58" y1="79" x2="58" y2="82.92"/><path class="cls-2" d="M50,52H45a5.27,5.27,0,0,0-4,2v4c0,4,2.55,8,7,8s7-4,7-8V50A7.65,7.65,0,0,1,50,52Z"/><path class="cls-2" d="M40.12,68.51c-1.93-.62-4.84-2-6.12-4.51a6.26,6.26,0,0,0,3-5V52A10,10,0,0,1,47,42h1c4,0,6.35,1.18,8,4a2.67,2.67,0,0,1,3,3V59a6.26,6.26,0,0,0,3,5c-1.28,2.55-4.19,3.89-6.12,4.51"/><path class="cls-2" d="M40.22,68.54,42,73c2.13,4.48,9.87,4.48,12,0l1.78-4.45"/></g></g></svg>