<svg xmlns="http://www.w3.org/2000/svg" viewBox="0 0 96 96"><defs><style>.cls-1{fill:#fff;}.cls-2,.cls-3{fill:none;stroke:#00008f;stroke-width:2px;}.cls-2{stroke-linecap:round;stroke-linejoin:round;}.cls-3{stroke-miterlimit:10;}</style></defs><title>Family Single M</title><g id="Layer_2" data-name="Layer 2"><g id="icons"><rect class="cls-1" width="96" height="96"/><path class="cls-2" d="M72.77,49.11c-1.29,2.67-2.79,4.46-6.69,4.46H61.62V58c0,4.53,2.84,8.91,7.8,8.91s7.8-4.38,7.8-8.91V52.46A4.86,4.86,0,0,1,72.77,49.11Z"/><path class="cls-2" d="M76.3,62.36a11.45,11.45,0,0,0,5.38-9.9V51.34A11.42,11.42,0,0,0,70.54,40.2H68.31A11.42,11.42,0,0,0,57.17,51.34v1.12a11.42,11.42,0,0,0,5.38,9.9"/><line class="cls-2" x1="63.85" y1="64.71" x2="63.85" y2="69.17"/><line class="cls-2" x1="74.99" y1="64.71" x2="74.99" y2="69.17"/><path class="cls-2" d="M63.85,69.17l-5.43,1.08a9,9,0,0,0-7.94,8.68v3.2a2.78,2.78,0,0,0,2.36,2.68l7.77,1.4a49.67,49.67,0,0,0,17.62,0L86,84.81a2.79,2.79,0,0,0,2.37-2.68v-3.2a9,9,0,0,0-7.94-8.68L75,69.17"/><line class="cls-2" x1="58.28" y1="81.43" x2="58.28" y2="85.79"/><line class="cls-2" x1="80.57" y1="81.43" x2="80.57" y2="85.79"/><path class="cls-2" d="M75,69.17a5.57,5.57,0,1,1-11.14,0"/><path class="cls-3" d="M48.25,42.43c5.78,0,8.92-4.82,8.92-10V23.49a6,6,0,0,1-5.58-3.35c-1.49,3.07-3.26,5.57-7.8,5.57H39.34V32.4C39.34,37.61,42.47,42.43,48.25,42.43Z"/><path class="cls-3" d="M57.17,34.63s5.57-2.23,5.57-10V22.37c0-3.34,0-7.8-4.46-7.8C56.2,11.1,53.82,9,48.25,9H47.14A13.55,13.55,0,0,0,33.77,22.37V24.6c0,7.8,5.57,10,5.57,10"/><line class="cls-3" x1="41.57" y1="44.66" x2="41.57" y2="39.39"/><line class="cls-3" x1="54.94" y1="39.29" x2="54.94" y2="44.66"/><line class="cls-3" x1="58.98" y1="45.1" x2="54.94" y2="44.66"/><path class="cls-3" d="M41.62,64.33a59.44,59.44,0,0,0,17-.53l4.12-.73"/><line class="cls-3" x1="41.57" y1="44.66" x2="37.46" y2="45.11"/><path class="cls-3" d="M54.94,44.66l-4.78,8a2.22,2.22,0,0,1-3.82,0l-4.77-8"/><path class="cls-3" d="M41.62,64.33a6.71,6.71,0,0,1-2.79-5.19V48a3.07,3.07,0,0,0-1.37-2.89"/><path class="cls-3" d="M41.62,64.33a5.6,5.6,0,0,0,.56.38c-1.43,2.85-4.67,4.33-6.82,5"/><path class="cls-3" d="M37.46,45.11a3.76,3.76,0,0,0-2-.45C33.65,41.51,31,40.2,26.58,40.2H25.46A11.17,11.17,0,0,0,14.32,51.34v7.8c0,3.65-3.34,5.57-3.34,5.57,1.42,2.85,4.66,4.33,6.82,5"/><line class="cls-2" x1="32.15" y1="64.71" x2="32.15" y2="69.17"/><path class="cls-2" d="M21,69.17l-5.44,1.08a9,9,0,0,0-7.94,8.68v3.2A2.79,2.79,0,0,0,10,84.81l7.77,1.4a49.67,49.67,0,0,0,17.62,0l7.77-1.4a2.78,2.78,0,0,0,2.36-2.68v-3.2a9,9,0,0,0-7.94-8.68l-5.43-1.08"/><line class="cls-2" x1="37.72" y1="81.43" x2="37.72" y2="85.79"/><path class="cls-2" d="M17.91,69.78l2,5c2.37,5,11,5,13.37,0l2-5"/><path class="cls-2" d="M28.81,51.34H23.23a5.88,5.88,0,0,0-4.45,2.23V58c0,4.46,2.83,8.91,7.8,8.91s7.8-4.45,7.8-8.91V49.11A8.53,8.53,0,0,1,28.81,51.34Z"/><line class="cls-2" x1="21.01" y1="64.71" x2="21.01" y2="69.17"/><line class="cls-2" x1="15.43" y1="81.43" x2="15.43" y2="85.79"/></g></g></svg>