<svg xmlns="http://www.w3.org/2000/svg" viewBox="0 0 96 96"><defs><style>.cls-1{fill:#fff;}.cls-2{fill:none;stroke:#00008f;stroke-linecap:round;stroke-linejoin:round;stroke-width:2px;}</style></defs><title>Family Single F</title><g id="Layer_2" data-name="Layer 2"><g id="icons"><rect class="cls-1" width="96" height="96"/><path class="cls-2" d="M48.13,41.78c5.87,0,9-4.89,9-10.17V20.3s-2.26,3.4-5.66,3.4H44.74c-4.52,0-5.65,2.26-5.65,2.26v5.65C39.09,36.89,42.27,41.78,48.13,41.78Z"/><line class="cls-2" x1="41.35" y1="44.04" x2="41.35" y2="38.7"/><line class="cls-2" x1="54.92" y1="38.6" x2="54.92" y2="44.04"/><path class="cls-2" d="M41.55,64a60.5,60.5,0,0,0,17.1-.55l4.46-.79"/><line class="cls-2" x1="59.34" y1="44.53" x2="54.92" y2="44.04"/><line class="cls-2" x1="37.29" y1="44.49" x2="41.35" y2="44.04"/><line class="cls-2" x1="61.7" y1="57.61" x2="61.7" y2="61.22"/><path class="cls-2" d="M30.29,39.74a7.58,7.58,0,0,0,3.15-5.87V23.7C33.44,15.78,39.09,9,47,9h1.13c6.79,0,9.17,3.29,11.31,6.78,2.26,0,3.39,2.26,3.39,4.52V33.87a7.61,7.61,0,0,0,3.27,6"/><path class="cls-2" d="M57.59,48.43A14.48,14.48,0,0,1,39,48.7"/><path class="cls-2" d="M57.59,48.43a10.11,10.11,0,0,0-.29,2.4V52a11.41,11.41,0,0,0,4.4,9.26"/><path class="cls-2" d="M76.71,62a11.61,11.61,0,0,0,5.46-10V50.83A11.59,11.59,0,0,0,70.86,39.52H68.6a10.9,10.9,0,0,0-2.5.31"/><path class="cls-2" d="M59.34,44.53a11.76,11.76,0,0,1,6.76-4.7"/><path class="cls-2" d="M57.59,48.43a11.44,11.44,0,0,1,1.75-3.9"/><path class="cls-2" d="M41.55,64c.32.24.54.37.54.37-1.44,2.89-4.73,4.39-6.92,5.1"/><path class="cls-2" d="M37.29,44.49a3.1,3.1,0,0,1,1.41,2.94V58.74A6.81,6.81,0,0,0,41.55,64"/><path class="cls-2" d="M37.29,44.49a4,4,0,0,0-2-.45c-1.87-3.19-4.52-4.52-9-4.52H25.14A11.33,11.33,0,0,0,13.83,50.83v7.91c0,3.69-3.39,5.65-3.39,5.65,1.44,2.89,4.73,4.39,6.92,5.1"/><line class="cls-2" x1="31.92" y1="68.91" x2="31.92" y2="64.39"/><path class="cls-2" d="M17.47,69.54,15.1,70a9.11,9.11,0,0,0-8,8.81v3.24a2.84,2.84,0,0,0,2.4,2.73l5.51,1"/><line class="cls-2" x1="17.47" y1="69.54" x2="20.61" y2="68.91"/><path class="cls-2" d="M31.92,68.91,37.43,70a9.11,9.11,0,0,1,8,8.81v3.24a2.83,2.83,0,0,1-2.39,2.73l-5.52,1"/><path class="cls-2" d="M37.57,85.77l-2.36.43a50.2,50.2,0,0,1-17.88,0L15,85.77"/><line class="cls-2" x1="37.57" y1="81.35" x2="37.57" y2="85.77"/><path class="cls-2" d="M35.06,69.54l-2,5c-2.41,5.06-11.16,5.06-13.57,0l-2-5"/><line class="cls-2" x1="17.47" y1="69.54" x2="17.47" y2="69.53"/><path class="cls-2" d="M18.35,57.61c0,4.52,2.88,9,7.92,9s7.91-4.52,7.91-9v-9a8.65,8.65,0,0,1-5.65,2.26H22.88a6,6,0,0,0-4.53,2.26Z"/><line class="cls-2" x1="20.61" y1="64.39" x2="20.61" y2="68.91"/><line class="cls-2" x1="14.96" y1="81.35" x2="14.96" y2="85.77"/><path class="cls-2" d="M70.32,52.12a7.93,7.93,0,0,0,2.8-3.55A5,5,0,0,0,77.65,52v5.65c0,4.6-2.88,9-7.92,9a7.4,7.4,0,0,1-6.62-4"/><path class="cls-2" d="M70.32,52.12a7.24,7.24,0,0,1-4,1H61.82v4.52a10.44,10.44,0,0,0,1.29,5.07"/><line class="cls-2" x1="64.08" y1="68.91" x2="64.08" y2="64.39"/><line class="cls-2" x1="75.39" y1="68.91" x2="75.39" y2="64.39"/><path class="cls-2" d="M64.08,68.91,58.57,70a9.11,9.11,0,0,0-8,8.81v3.24a2.83,2.83,0,0,0,2.39,2.73l5.52,1"/><path class="cls-2" d="M81,85.77l-2.37.43a50.2,50.2,0,0,1-17.88,0l-2.36-.43"/><path class="cls-2" d="M75.39,68.91,80.9,70a9.11,9.11,0,0,1,8,8.81v3.24a2.84,2.84,0,0,1-2.4,2.73l-5.51,1"/><line class="cls-2" x1="58.43" y1="81.35" x2="58.43" y2="85.77"/><line class="cls-2" x1="81.04" y1="81.35" x2="81.04" y2="85.77"/><path class="cls-2" d="M75.39,68.91a5.66,5.66,0,1,1-11.31,0"/></g></g></svg>