<svg xmlns="http://www.w3.org/2000/svg" viewBox="0 0 96 96"><defs><style>.cls-2{fill:none;stroke:#00008f;stroke-linecap:round;stroke-linejoin:round;stroke-width:2px}</style></defs><g id="Layer_2" data-name="Layer 2"><g id="icons"><path fill="#fff" d="M0 0h96v96H0z"/><path class="cls-2" d="M37 27a5.33 5.33 0 0 1-5-3c-1.34 2.75-2.93 5-7 5h-4v6c0 4.67 2.81 9 8 9s8-4.33 8-9z"/><path class="cls-2" d="M37 37s5-2 5-9v-2c0-3 0-7-4-7-1.87-3.12-4-5-9-5h-1a12.16 12.16 0 0 0-12 12v2c0 7 5 9 5 9M23 41.27V46M35 41.18V46M38.63 46.4L35 46M23 46l-5.62.61a9.38 9.38 0 0 0-8.38 9v3.32a2.92 2.92 0 0 0 2.5 2.79l8.2 1.45a53.14 53.14 0 0 0 14.63.55M17 58v4.7"/><path class="cls-2" d="M23 46l4.29 7.14a2 2 0 0 0 3.42 0L35 46M75 27a5.33 5.33 0 0 1-5-3c-1.34 2.75-2.93 5-7 5h-4v6c0 4.67 2.81 9 8 9s8-4.33 8-9z"/><path class="cls-2" d="M75 37s5-2 5-9v-2c0-3 0-7-4-7-1.87-3.12-4-5-9-5h-1a12.16 12.16 0 0 0-12 12v2c0 7 5 9 5 9M73.01 41.27V46M61.01 41.18V46M57.84 46.35l3.17-.35M73 46l5.61.61c4.83.69 8.39 4.51 8.39 9v3.32a2.92 2.92 0 0 1-2.5 2.79l-8.2 1.45a53 53 0 0 1-14.83.53M79.01 58v4.7"/><path class="cls-2" d="M73 46l-4.29 7.14a2 2 0 0 1-3.43 0L61 46M43 64v4M53 64v4M43 68l-4.88 1A8.06 8.06 0 0 0 31 76.76v2.87A2.51 2.51 0 0 0 33.12 82l7 1.25a44.26 44.26 0 0 0 15.82 0l7-1.25A2.51 2.51 0 0 0 65 79.63v-2.87A8.06 8.06 0 0 0 57.88 69L53 68M38 79v3.92M58 79v3.92M50 52h-5a5.27 5.27 0 0 0-4 2v4c0 4 2.55 8 7 8s7-4 7-8v-8a7.65 7.65 0 0 1-5 2z"/><path class="cls-2" d="M40.12 68.51c-1.93-.62-4.84-2-6.12-4.51a6.26 6.26 0 0 0 3-5v-7a10 10 0 0 1 10-10h1c4 0 6.35 1.18 8 4a2.67 2.67 0 0 1 3 3v10a6.26 6.26 0 0 0 3 5c-1.28 2.55-4.19 3.89-6.12 4.51M40.22 68.54L42 73c2.13 4.48 9.87 4.48 12 0l1.78-4.45"/></g></g></svg>