<svg xmlns="http://www.w3.org/2000/svg" viewBox="0 0 96 96"><defs><style>.cls-2{fill:none;stroke:#00008f;stroke-linecap:round;stroke-linejoin:round;stroke-width:2px}</style></defs><g id="Layer_2" data-name="Layer 2"><g id="icons"><path fill="currentColor" d="M0 0h96v96H0z"/><path class="cls-2" d="M59 32v3c0 4.67 2.81 9 8 9s8-4.33 8-9V25s-2 3-5 3h-6c-4 0-5 2-5 2zM61 41.27V46M73 41.18V46M54 62.53l3.71.65a53.31 53.31 0 0 0 18.6 0l8.2-1.45A2.92 2.92 0 0 0 87 58.94v-3.32a9.38 9.38 0 0 0-8.38-9L73 46M61 46l-3.63.4M79 58v4.7"/><path class="cls-2" d="M80 46.91c3.16-.6 4-3.91 4-3.91s-4-2-4-6V25c0-2-1-4-3-4-1.89-3.09-4-6-10-6h-1c-7 0-12 6-12 13v9a6.74 6.74 0 0 1-2.78 5.2"/><path class="cls-2" d="M77.6 46.5C76.32 50.25 72.06 53 67 53a12.32 12.32 0 0 1-8.12-2.88M21 32v3c0 4.67 2.81 9 8 9s8-4.33 8-9V25s-2 3-5 3h-6c-4 0-5 2-5 2zM35 41.27V46M23 41.18V46M42 62.53l-3.71.65a53.31 53.31 0 0 1-18.6 0l-8.2-1.45A2.92 2.92 0 0 1 9 58.94v-3.32a9.38 9.38 0 0 1 8.38-9L23 46M35 46l3.63.4M17 58v4.7"/><path class="cls-2" d="M16 46.91c-3.16-.6-4-3.91-4-3.91s4-2 4-6v-9c0-7 5-13 12-13h1c6 0 8.11 2.91 10 6 2 0 3 2 3 4v12a6.74 6.74 0 0 0 2.78 5.2"/><path class="cls-2" d="M18.4 46.5C19.68 50.25 23.94 53 29 53a12.32 12.32 0 0 0 8.12-2.88M51 50c-1.15 2.4-2.5 4-6 4h-4v4c0 4.07 2.55 8 7 8s7-3.93 7-8v-5a4.37 4.37 0 0 1-4-3z"/><path class="cls-2" d="M54.17 61.89A10.28 10.28 0 0 0 59 53v-1a10.24 10.24 0 0 0-10-10h-2a10.24 10.24 0 0 0-10 10v1a10.28 10.28 0 0 0 4.83 8.89M43 64v4M53 64v4M43 68l-4.88 1A8.06 8.06 0 0 0 31 76.76v2.87A2.51 2.51 0 0 0 33.12 82l7 1.25a44.26 44.26 0 0 0 15.82 0l7-1.25A2.51 2.51 0 0 0 65 79.63v-2.87A8.06 8.06 0 0 0 57.88 69L53 68M38 79v3.92M58 79v3.92M53 68a5 5 0 0 1-10 0"/></g></g></svg>