<svg xmlns="http://www.w3.org/2000/svg" viewBox="0 0 96 96"><defs><style>.cls-2{fill:none;stroke:#00008f;stroke-linecap:round;stroke-linejoin:round;stroke-width:2px}</style></defs><g id="Layer_2" data-name="Layer 2"><g id="icons"><path fill="currentColor" d="M0 0h96v96H0z"/><path class="cls-2" d="M7 38l39.39-17.29a4 4 0 0 1 3.22 0L89 38 49.61 55.29a4 4 0 0 1-3.22 0z"/><path class="cls-2" d="M22.09 45L20 59.65A2.91 2.91 0 0 0 21.07 62a41.32 41.32 0 0 0 53.86 0A2.91 2.91 0 0 0 76 59.65L73.91 45"/><path class="cls-2" d="M21 55c3.19 2.84 11.66 11 27 11s23.8-8.16 27-11"/><path class="cls-2" d="M48 38l-20 9v22M31 80a4.24 4.24 0 0 1-6 0l3-11z"/></g></g></svg>