<svg xmlns="http://www.w3.org/2000/svg" viewBox="0 0 96 96"><defs><style>.cls-1{fill:#fff;}.cls-2{fill:none;stroke:#00008f;stroke-linecap:round;stroke-linejoin:round;stroke-width:2px;}</style></defs><title>Help (Woman)</title><g id="Layer_2" data-name="Layer 2"><g id="icons"><rect class="cls-1" width="96" height="96"/><line class="cls-2" x1="32" y1="49" x2="32" y2="54"/><line class="cls-2" x1="45" y1="49" x2="45" y2="54"/><line class="cls-2" x1="23" y1="73" x2="23" y2="78.32"/><line class="cls-2" x1="54" y1="73" x2="54" y2="78.32"/><polyline class="cls-2" points="45 54 53.9 55.53 54.75 55.83"/><path class="cls-2" d="M32,54l-8.9,1.53C16.72,56.46,12,61.62,12,67.69v5.48a3.89,3.89,0,0,0,3.31,3.76l10.86,2a69.5,69.5,0,0,0,24.66,0l10.86-2A3.89,3.89,0,0,0,65,73.17v-7"/><path class="cls-2" d="M70,35a16,16,0,0,0-14,23.82L54,67l8.18-2A16,16,0,1,0,70,35Z"/><path class="cls-2" d="M66,47a4,4,0,0,1,8,0c0,2.21-2.44,3.44-4,5"/><line class="cls-2" x1="70" y1="55" x2="70" y2="52"/><line class="cls-2" x1="70" y1="60" x2="70" y2="59"/><path class="cls-2" d="M28.46,54.61,36.14,64.7A2.9,2.9,0,0,0,38.55,66h0a2.91,2.91,0,0,0,2.32-1.16L48.5,54.6"/><path class="cls-2" d="M43.27,29H34.68a12.74,12.74,0,0,0-6.68,2v8c0,6.64,3.82,12,10.5,12S49,45.71,49,39.07V26S46.14,29,43.27,29Z"/><path class="cls-2" d="M26,55l-1.59-.26A8.82,8.82,0,0,1,18,50h0a7.94,7.94,0,0,0,4-7V28.31A14.29,14.29,0,0,1,36.27,14h1.19A14.32,14.32,0,0,1,50,21a4.71,4.71,0,0,1,5,5V43a8.63,8.63,0,0,0,.21,1.9"/></g></g></svg>