<svg xmlns="http://www.w3.org/2000/svg" viewBox="0 0 96 96"><g fill="none" stroke="currentColor" stroke-linecap="round" stroke-linejoin="round" stroke-width="2"><path d="M49 30c-2.76 0-5.93-1.45-7-4-1.73 3.68-3.75 6-9 6h-5v7.68C28 45.93 31.82 51 38.5 51S49 45.93 49 39.68V30z"/><path d="M49 41a12.43 12.43 0 0 0 5-10v-5a4.09 4.09 0 0 0-4-4 13.91 13.91 0 0 0-12-7h-1c-7.74 0-14.2 6.12-14.2 13.67V31c0 3.7 2 7.92 4.9 9.84M32 49v5m13-5v5M23 73v5.32M54 73v5.32M45 54l8.9 1.53.85.3M32 54l-8.9 1.53c-6.38.93-11.1 6.09-11.1 12.16v5.48a3.89 3.89 0 0 0 3.31 3.76l10.86 2a69.5 69.5 0 0 0 24.66 0l10.86-2A3.89 3.89 0 0 0 65 73.17v-7"/><path d="M70 35a16 16 0 0 0-14 23.82L54 67l8.18-2A16 16 0 1 0 70 35z"/><path d="M66 47a4 4 0 0 1 8 0c0 2.21-2.44 3.44-4 5m0 3v-3m0 8v-1m-41.54-4.39l7.68 10.09a2.9 2.9 0 0 0 2.41 1.3 2.91 2.91 0 0 0 2.32-1.16L48.5 54.6"/></g></svg>