<svg xmlns="http://www.w3.org/2000/svg" viewBox="0 0 96 96"><defs><style>.cls-1{fill:#fff;}.cls-2,.cls-3{fill:none;stroke:#00008f;stroke-width:2px;}.cls-2{stroke-linecap:round;stroke-linejoin:round;}.cls-3{stroke-miterlimit:10;}</style></defs><title>Hotel Reception Woman</title><g id="Layer_2" data-name="Layer 2"><g id="icons"><rect class="cls-1" width="96" height="96"/></g><g id="names"><path class="cls-2" d="M77.16,59s7.44-.32,10.07,8.76c0,0,.33,2.41,1.31,2.62H65.78c1-.21,1.32-2.62,1.32-2.62C69.72,58.65,77.16,59,77.16,59V55.91"/><ellipse class="cls-3" cx="77.16" cy="54.41" rx="3.33" ry="1.5"/><polygon class="cls-2" points="65.56 73.97 64.25 79.01 90.95 79.01 89.64 73.97 65.56 73.97"/><path class="cls-2" d="M36.74,30.28h-9.2a11.33,11.33,0,0,0-7.16,3v7.13c0,6.74,4.09,12.21,11.25,12.21S42.87,47.2,42.87,40.46V27.23S39.8,30.28,36.74,30.28Z"/><path class="cls-2" d="M14.25,28.52A14.55,14.55,0,0,1,28.84,14h2.23a14.68,14.68,0,0,1,12.82,7.12A4.79,4.79,0,0,1,49,26.21V44.45a8.06,8.06,0,0,0,4.09,7.1h0a9,9,0,0,1-6.55,4.81l-1.63.27"/><line class="cls-2" x1="24.47" y1="50.22" x2="24.47" y2="55.8"/><line class="cls-2" x1="38.78" y1="50.17" x2="38.78" y2="55.8"/><path class="cls-2" d="M24.47,55.8l-8.28,1.27A13.08,13.08,0,0,0,5.05,70v4.75a4.07,4.07,0,0,0,3.32,4l10.89,2.09a65.92,65.92,0,0,0,24.73,0l10.89-2.09a4.07,4.07,0,0,0,3.32-4V70A13.08,13.08,0,0,0,47.07,57.07L38.78,55.8"/><line class="cls-2" x1="24.47" y1="55.8" x2="31.63" y2="74.03"/><polyline class="cls-2" points="21.64 56.23 16.3 67.93 23.45 65.89 31.63 74.03"/><polyline class="cls-2" points="41.62 56.23 46.96 67.93 39.8 65.89 31.63 74.03 38.78 55.8"/><line class="cls-2" x1="16.29" y1="74.9" x2="16.29" y2="80.26"/><line class="cls-2" x1="46.96" y1="74.9" x2="46.96" y2="80.26"/><path class="cls-2" d="M18.34,56.63l-1.62-.27a9,9,0,0,1-6.56-4.81h0a8.06,8.06,0,0,0,4.09-7.1V28.21"/></g></g></svg>