<svg xmlns="http://www.w3.org/2000/svg" viewBox="0 0 96 96"><g fill="none" stroke="currentColor" stroke-width="2"><path d="M77.16 59s7.44-.32 10.07 8.76c0 0 .33 2.41 1.31 2.62H65.78c1-.21 1.32-2.62 1.32-2.62C69.72 58.65 77.16 59 77.16 59v-3.09" stroke-linecap="round" stroke-linejoin="round"/><ellipse cx="77.16" cy="54.41" rx="3.33" ry="1.5" stroke-miterlimit="10"/><path d="M65.56 73.97l-1.31 5.04h26.7l-1.31-5.04H65.56zM36.74 30.28h-9.2a11.33 11.33 0 0 0-7.16 3v7.13c0 6.74 4.09 12.21 11.25 12.21s11.24-5.42 11.24-12.16V27.23s-3.07 3.05-6.13 3.05z" stroke-linecap="round" stroke-linejoin="round"/><path d="M14.25 28.52A14.55 14.55 0 0 1 28.84 14h2.23a14.68 14.68 0 0 1 12.82 7.12A4.79 4.79 0 0 1 49 26.21v18.24a8.06 8.06 0 0 0 4.09 7.1 9 9 0 0 1-6.55 4.81l-1.63.27m-20.44-6.41v5.58m14.31-5.63v5.63m-14.31 0l-8.28 1.27A13.08 13.08 0 0 0 5.05 70v4.75a4.07 4.07 0 0 0 3.32 4l10.89 2.09a65.92 65.92 0 0 0 24.73 0l10.89-2.09a4.07 4.07 0 0 0 3.32-4V70a13.08 13.08 0 0 0-11.13-12.93l-8.29-1.27m-14.31 0l7.16 18.23" stroke-linecap="round" stroke-linejoin="round"/><path d="M21.64 56.23l-5.34 11.7 7.15-2.04 8.18 8.14" stroke-linecap="round" stroke-linejoin="round"/><path d="M41.62 56.23l5.34 11.7-7.16-2.04-8.17 8.14 7.15-18.23M16.29 74.9v5.36m30.67-5.36v5.36M18.34 56.63l-1.62-.27a9 9 0 0 1-6.56-4.81 8.06 8.06 0 0 0 4.09-7.1V28.21" stroke-linecap="round" stroke-linejoin="round"/></g></svg>