<svg xmlns="http://www.w3.org/2000/svg" viewBox="0 0 96 96"><defs><style>.cls-1{fill:#fff;}.cls-2{fill:none;stroke:#00008f;stroke-linecap:round;stroke-miterlimit:10;stroke-width:2px;}</style></defs><title>IDCard</title><g id="Layer_2" data-name="Layer 2"><g id="icons"><rect class="cls-1" width="96" height="96"/></g><g id="stroke_blue_2px" data-name="stroke blue 2px"><path class="cls-2" d="M29.94,11A11.1,11.1,0,0,0,18.77,22V74A11.1,11.1,0,0,0,29.94,85H66.06A11.1,11.1,0,0,0,77.23,74V22A11.1,11.1,0,0,0,66.06,11ZM48.33,71H63.67M34.34,71H43M41.6,42.5A4.08,4.08,0,0,0,37.52,46L37,51a2.15,2.15,0,0,0,.53,1.76,2.21,2.21,0,0,0,1.67.74l17.56,0a2.26,2.26,0,0,0,1.68-.76A2.12,2.12,0,0,0,59,51l-.54-5a4.1,4.1,0,0,0-4.08-3.5ZM48,27.08a5,5,0,1,0,5,5A5,5,0,0,0,48,27.08Z"/></g></g></svg>