<svg xmlns="http://www.w3.org/2000/svg" viewBox="0 0 96 96"><g data-name="Layer 2"><path fill="currentColor" d="M0 0h96v96H0z"/><path d="M29.94 11a11.1 11.1 0 0 0-11.17 11v52a11.1 11.1 0 0 0 11.17 11h36.12a11.1 11.1 0 0 0 11.17-11V22a11.1 11.1 0 0 0-11.17-11zm18.39 60h15.34m-29.33 0H43m-1.4-28.5a4.08 4.08 0 0 0-4.08 3.5L37 51a2.15 2.15 0 0 0 .53 1.76 2.21 2.21 0 0 0 1.67.74h17.56a2.26 2.26 0 0 0 1.68-.76A2.12 2.12 0 0 0 59 51l-.54-5a4.1 4.1 0 0 0-4.08-3.5zM48 27.08a5 5 0 1 0 5 5 5 5 0 0 0-5-5z" fill="none" stroke="#00008f" stroke-linecap="round" stroke-miterlimit="10" stroke-width="2" data-name="stroke blue 2px"/></g></svg>