<svg xmlns="http://www.w3.org/2000/svg" viewBox="0 0 96 96"><defs><style>.cls-2{fill:none;stroke:#00008f;stroke-linecap:round;stroke-linejoin:round;stroke-width:2px}</style></defs><g id="Layer_2" ><g id="icons"><path fill="currentColor" d="M0 0h96v96H0z"/><path class="cls-2" d="M41 53v-4.75M55 48.42V53M40.73 53.18l-8.42 1.25A13 13 0 0 0 21 67.16v6.69a4 4 0 0 0 3.37 3.94l11.07 2a68.43 68.43 0 0 0 25.12 0l11.07-2A4 4 0 0 0 75 73.85v-6.69a13 13 0 0 0-11.31-12.73l-8.42-1.25M29 55.36V78M34 54.18V79M67 55.36V78M62 54.18V79M62.08 19.13L56 17v2.29A4 4 0 0 0 58.51 23L61 24v12s5-2 5-6v-5a6.47 6.47 0 0 0-3.92-5.87zM33.92 19.13L40 17v2.29A4 4 0 0 1 37.49 23L35 24v12s-5-2-5-6v-5a6.47 6.47 0 0 1 3.92-5.87zM35 36.07c0 6.64 4 13.93 13 14s13-7.39 13-14M56 17c-1.84-1.26-5.57-2-8-2s-6.15.74-8 2M48 59v22"/><path class="cls-2" d="M55 53.1L48 59l8 4.13 2-9.02M38 54.11l2 9.02L48 59l-7-5.9"/></g></g></svg>