<svg xmlns="http://www.w3.org/2000/svg" viewBox="0 0 96 96"><defs><style>.cls-2{fill:none;stroke:#00008f;stroke-linecap:round;stroke-linejoin:round;stroke-width:2px}</style></defs><g id="Layer_2" data-name="Layer 2"><path fill="#fff" d="M0 0h96v96H0z" id="icons"/><g id="blue_stroke_2px"><path class="cls-2" d="M39.71 31.84c-2.68 0-5.25-2.13-6.28-4.63-1.68 3.62-3.71 6.49-8.8 6.49h-5.09v7.42c0 6.15 3.71 11.13 10.18 11.13s10.18-5 10.18-11.13v-9.28z"/><path class="cls-2" d="M39.9 42.05a10.93 10.93 0 0 0 4.63-9.28v-5.56a3.72 3.72 0 0 0-3.7-3.72A13.27 13.27 0 0 0 29.22 17h-1.09a13.22 13.22 0 0 0-13.21 13.24v2.28c0 3.58 1.85 7.67 4.62 9.53M23.25 50.4v4.64M36.2 50.4v4.64M48.69 58a11.32 11.32 0 0 0-4.45-1.69l-7.79-1.16M23 55.11l-7.79 1.16A12 12 0 0 0 4.74 68.05v4.33A3.76 3.76 0 0 0 7.86 76l10.24 1.9a63.54 63.54 0 0 0 23.25 0l5.74-1.72"/><path class="cls-2" d="M36.2 55.04l-6.48 5.45 7.41 3.82 1.85-8.34M20.47 55.97l1.85 8.34 7.4-3.82-6.47-5.45M26.02 62.46l1.85 3.71-1.85 12.06M33.42 62.46l-1.85 3.71 1.85 12.06M27.87 66.17h3.7M14.92 72.52v4.79M71.83 31.84H63.5a10.23 10.23 0 0 0-6.5 2.78v6.5c0 6.15 3.7 11.13 10.18 11.13s10.18-5 10.18-11.13V29.06s-2.76 2.78-5.53 2.78z"/><path class="cls-2" d="M51.47 30.24A13.22 13.22 0 0 1 64.68 17h2a13.29 13.29 0 0 1 11.61 6.49 4.36 4.36 0 0 1 4.62 4.64v16.63a7.35 7.35 0 0 0 3.7 6.48 8.13 8.13 0 0 1-5.93 4.38l-1.47.25M60.72 50.03v5.01M73.68 50.03v5.01M73.68 55.11l7.5 1.16a11.9 11.9 0 0 1 10.08 11.78v4.33a3.72 3.72 0 0 1-3 3.65l-9.87 1.9a58.91 58.91 0 0 1-22.38 0L46.14 76a3.72 3.72 0 0 1-3-3.65v-4.3a11.9 11.9 0 0 1 10.08-11.78l7.5-1.16"/><path class="cls-2" d="M57 55.87l2.66 5.59a8.32 8.32 0 0 0 15 0l2.66-5.59M53.32 72.52v4.79M81.08 72.52v4.79M55.17 55.87l-1.47-.25a8.14 8.14 0 0 1-5.93-4.38 7.35 7.35 0 0 0 3.7-6.48V30"/></g></g></svg>