<svg xmlns="http://www.w3.org/2000/svg" viewBox="0 0 96 96"><defs><style>.cls-1{fill:#fff;}.cls-2{fill:none;stroke:#00008f;stroke-linecap:round;stroke-linejoin:round;stroke-width:2px;}</style></defs><title>Man Elderly</title><g id="Layer_2" data-name="Layer 2"><g id="icons"><rect class="cls-1" width="96" height="96"/><line class="cls-2" x1="41" y1="53" x2="41" y2="48.25"/><line class="cls-2" x1="55" y1="48.42" x2="55" y2="53"/><path class="cls-2" d="M40.73,53.18l-8.42,1.25A13,13,0,0,0,21,67.16v6.69a4,4,0,0,0,3.37,3.94l11.07,2a68.43,68.43,0,0,0,25.12,0l11.07-2A4,4,0,0,0,75,73.85V67.16A13,13,0,0,0,63.69,54.43l-8.42-1.25"/><line class="cls-2" x1="29" y1="55.36" x2="29" y2="78"/><line class="cls-2" x1="34" y1="54.18" x2="34" y2="79"/><line class="cls-2" x1="67" y1="55.36" x2="67" y2="78"/><line class="cls-2" x1="62" y1="54.18" x2="62" y2="79"/><path class="cls-2" d="M62.08,19.13,56,17v2.29A4,4,0,0,0,58.51,23L61,24V36s5-2,5-6V25A6.47,6.47,0,0,0,62.08,19.13Z"/><path class="cls-2" d="M33.92,19.13,40,17v2.29A4,4,0,0,1,37.49,23L35,24V36s-5-2-5-6V25A6.47,6.47,0,0,1,33.92,19.13Z"/><path class="cls-2" d="M35,36.07c0,6.64,4,13.93,13,14s13-7.39,13-14"/><path class="cls-2" d="M56,17c-1.84-1.26-5.57-2-8-2s-6.15.74-8,2"/><line class="cls-2" x1="48" y1="59" x2="48" y2="81"/><polyline class="cls-2" points="55 53.1 48 59 56 63.13 58 54.11"/><polyline class="cls-2" points="38 54.11 40 63.13 48 59 41 53.1"/></g></g></svg>