<svg xmlns="http://www.w3.org/2000/svg" viewBox="0 0 96 96"><defs><style>.cls-1{fill:#fff;}.cls-2{fill:none;stroke:#00008f;stroke-linecap:round;stroke-linejoin:round;stroke-width:2px;}</style></defs><title>Man Woman</title><g id="Layer_2" data-name="Layer 2"><g id="icons"><rect class="cls-1" width="96" height="96"/></g><g id="blue_stroke_2px"><path class="cls-2" d="M39.71,31.84c-2.68,0-5.25-2.13-6.28-4.63-1.68,3.62-3.71,6.49-8.8,6.49H19.54v7.42c0,6.15,3.71,11.13,10.18,11.13s10.18-5,10.18-11.13V31.84Z"/><path class="cls-2" d="M39.9,42.05a10.93,10.93,0,0,0,4.63-9.28V27.21a3.72,3.72,0,0,0-3.7-3.72A13.27,13.27,0,0,0,29.22,17H28.13A13.22,13.22,0,0,0,14.92,30.24v2.28c0,3.58,1.85,7.67,4.62,9.53"/><line class="cls-2" x1="23.25" y1="50.4" x2="23.25" y2="55.04"/><line class="cls-2" x1="36.2" y1="50.4" x2="36.2" y2="55.04"/><path class="cls-2" d="M48.69,58a11.32,11.32,0,0,0-4.45-1.69l-7.79-1.16"/><path class="cls-2" d="M23,55.11l-7.79,1.16A12,12,0,0,0,4.74,68.05v4.33A3.76,3.76,0,0,0,7.86,76l10.24,1.9a63.54,63.54,0,0,0,23.25,0l5.74-1.72"/><polyline class="cls-2" points="36.2 55.04 29.72 60.49 37.13 64.31 38.98 55.97"/><polyline class="cls-2" points="20.47 55.97 22.32 64.31 29.72 60.49 23.25 55.04"/><polyline class="cls-2" points="26.02 62.46 27.87 66.17 26.02 78.23"/><polyline class="cls-2" points="33.42 62.46 31.57 66.17 33.42 78.23"/><line class="cls-2" x1="27.87" y1="66.17" x2="31.57" y2="66.17"/><line class="cls-2" x1="14.92" y1="72.52" x2="14.92" y2="77.31"/><path class="cls-2" d="M71.83,31.84H63.5A10.23,10.23,0,0,0,57,34.62v6.5c0,6.15,3.7,11.13,10.18,11.13s10.18-5,10.18-11.13V29.06S74.6,31.84,71.83,31.84Z"/><path class="cls-2" d="M51.47,30.24A13.22,13.22,0,0,1,64.68,17h2a13.29,13.29,0,0,1,11.61,6.49,4.36,4.36,0,0,1,4.62,4.64V44.76a7.35,7.35,0,0,0,3.7,6.48h0a8.13,8.13,0,0,1-5.93,4.38l-1.47.25"/><line class="cls-2" x1="60.72" y1="50.03" x2="60.72" y2="55.04"/><line class="cls-2" x1="73.68" y1="50.03" x2="73.68" y2="55.04"/><path class="cls-2" d="M73.68,55.11l7.5,1.16A11.9,11.9,0,0,1,91.26,68.05v4.33a3.72,3.72,0,0,1-3,3.65l-9.87,1.9a58.91,58.91,0,0,1-22.38,0L46.14,76a3.72,3.72,0,0,1-3-3.65V68.05A11.9,11.9,0,0,1,53.22,56.27l7.5-1.16"/><path class="cls-2" d="M57,55.87l2.66,5.59a8.32,8.32,0,0,0,15,0l2.66-5.59"/><line class="cls-2" x1="53.32" y1="72.52" x2="53.32" y2="77.31"/><line class="cls-2" x1="81.08" y1="72.52" x2="81.08" y2="77.31"/><path class="cls-2" d="M55.17,55.87l-1.47-.25a8.14,8.14,0,0,1-5.93-4.38h0a7.35,7.35,0,0,0,3.7-6.48V30"/></g></g></svg>