<svg xmlns="http://www.w3.org/2000/svg" viewBox="0 0 96 96"><g fill="none" stroke="currentColor" stroke-linecap="round" stroke-linejoin="round" stroke-width="2"><path d="M39.71 31.84c-2.68 0-5.25-2.13-6.28-4.63-1.68 3.62-3.71 6.49-8.8 6.49h-5.09v7.42c0 6.15 3.71 11.13 10.18 11.13s10.18-5 10.18-11.13v-9.28z"/><path d="M39.9 42.05a10.93 10.93 0 0 0 4.63-9.28v-5.56a3.72 3.72 0 0 0-3.7-3.72A13.27 13.27 0 0 0 29.22 17h-1.09a13.22 13.22 0 0 0-13.21 13.24v2.28c0 3.58 1.85 7.67 4.62 9.53m3.71 8.35v4.64M36.2 50.4v4.64M48.69 58a11.32 11.32 0 0 0-4.45-1.69l-7.79-1.16M23 55.11l-7.79 1.16A12 12 0 0 0 4.74 68.05v4.33A3.76 3.76 0 0 0 7.86 76l10.24 1.9a63.54 63.54 0 0 0 23.25 0l5.74-1.72"/><path d="M36.2 55.04l-6.48 5.45 7.41 3.82 1.85-8.34m-18.51 0l1.85 8.34 7.4-3.82-6.47-5.45m2.77 7.42l1.85 3.71-1.85 12.06m7.4-15.77l-1.85 3.71 1.85 12.06m-5.55-12.06h3.7m-16.65 6.35v4.79m56.91-45.47H63.5a10.23 10.23 0 0 0-6.5 2.78v6.5c0 6.15 3.7 11.13 10.18 11.13s10.18-5 10.18-11.13V29.06s-2.76 2.78-5.53 2.78z"/><path d="M51.47 30.24A13.22 13.22 0 0 1 64.68 17h2a13.29 13.29 0 0 1 11.61 6.49 4.36 4.36 0 0 1 4.62 4.64v16.63a7.35 7.35 0 0 0 3.7 6.48 8.13 8.13 0 0 1-5.93 4.38l-1.47.25m-18.49-5.84v5.01m12.96-5.01v5.01m0 .07l7.5 1.16a11.9 11.9 0 0 1 10.08 11.78v4.33a3.72 3.72 0 0 1-3 3.65l-9.87 1.9a58.91 58.91 0 0 1-22.38 0L46.14 76a3.72 3.72 0 0 1-3-3.65v-4.3a11.9 11.9 0 0 1 10.08-11.78l7.5-1.16"/><path d="M57 55.87l2.66 5.59a8.32 8.32 0 0 0 15 0l2.66-5.59m-24 16.65v4.79m27.76-4.79v4.79M55.17 55.87l-1.47-.25a8.14 8.14 0 0 1-5.93-4.38 7.35 7.35 0 0 0 3.7-6.48V30"/></g></svg>