<svg xmlns="http://www.w3.org/2000/svg" viewBox="0 0 96 96"><g fill="none" stroke="#00008f" stroke-linecap="round" stroke-linejoin="round" stroke-width="2"><path d="M58.79 31c-2.89 0-5.67-2.3-6.79-5-1.81 3.91-4 7-9.5 7H37v8c0 6.64 4 12 11 12s11-5.39 11-12V31z"/><path d="M59 42.07a11.83 11.83 0 0 0 5-10V26a4 4 0 0 0-4-4 14.32 14.32 0 0 0-12.54-7h-1.19A14.29 14.29 0 0 0 32 29.31v2.46c0 3.87 2 8.29 5 10.3m4 8.62V56m14-5.31V56m-14 0l-8.69 1.43A13 13 0 0 0 21 70.16v4.69a4 4 0 0 0 3.37 3.94l11.07 2a68.43 68.43 0 0 0 25.12 0l11.07-2A4 4 0 0 0 75 74.85v-4.69a13 13 0 0 0-11.31-12.73L55 56M32 75v5.17M64 75v5.17"/><path d="M38.29 56.44l8.18 9.74a2 2 0 0 0 3.06 0l8.17-9.73"/></g></svg>