<svg xmlns="http://www.w3.org/2000/svg" viewBox="0 0 96 96"><defs><style>.cls-1{fill:#fff;}.cls-2{fill:none;stroke:#00008f;stroke-linecap:round;stroke-linejoin:round;stroke-width:2px;}</style></defs><title>Men</title><g id="Layer_2" data-name="Layer 2"><g id="icons"><rect class="cls-1" width="96" height="96"/><path class="cls-2" d="M58.79,31c-2.89,0-5.67-2.3-6.79-5-1.81,3.91-4,7-9.5,7H37v8c0,6.64,4,12,11,12s11-5.39,11-12V31Z"/><path class="cls-2" d="M59,42.07a11.83,11.83,0,0,0,5-10V26a4,4,0,0,0-4-4,14.32,14.32,0,0,0-12.54-7H46.27A14.29,14.29,0,0,0,32,29.31v2.46c0,3.87,2,8.29,5,10.3"/><line class="cls-2" x1="41" y1="50.69" x2="41" y2="56"/><line class="cls-2" x1="55" y1="50.69" x2="55" y2="56"/><path class="cls-2" d="M41,56l-8.69,1.43A13,13,0,0,0,21,70.16v4.69a4,4,0,0,0,3.37,3.94l11.07,2a68.43,68.43,0,0,0,25.12,0l11.07-2A4,4,0,0,0,75,74.85V70.16A13,13,0,0,0,63.69,57.43L55,56"/><line class="cls-2" x1="32" y1="75" x2="32" y2="80.17"/><line class="cls-2" x1="64" y1="75" x2="64" y2="80.17"/><path class="cls-2" d="M38.29,56.44l8.18,9.74a2,2,0,0,0,3.06,0l8.17-9.73"/></g></g></svg>