<svg xmlns="http://www.w3.org/2000/svg" viewBox="0 0 66.57 76"><defs><style>.cls-1{fill:none;stroke:#00008f;stroke-linecap:round;stroke-linejoin:round;stroke-width:2px;}.cls-2{fill:#00008f;}</style></defs><title>Mindset</title><g id="Layer_2" data-name="Layer 2"><g id="stroke_blue_2px" data-name="stroke blue 2px"><path class="cls-1" d="M5.32,49.1A4.32,4.32,0,0,1,1,44.79a4.12,4.12,0,0,1,.32-1.63L6.83,29.34,6.94,29q.15-.4.3-.87c.33-.94.63-1.85.91-2.69L8.3,25c.51-1.56.85-2.72,1-3.39C12,10.27,24.29,1,36.88,1A28.65,28.65,0,0,1,65.57,29.61c0,8.21-4.81,18.07-11.4,23.82l3.41,19A2.17,2.17,0,0,1,55.44,75H27.14a2.18,2.18,0,0,1-2-1.28l-3.06-6.81H19.34A12.62,12.62,0,0,1,6.7,54.31V49.1Z"/><path class="cls-2" d="M42.28,9.07h0m-.41,2.18a2,2,0,0,0,1.21.88,4.56,4.56,0,0,1,1.33.55,2,2,0,0,0,1,.29,2.12,2.12,0,0,0,.44-.05,2,2,0,0,0,.24,1.47,4.88,4.88,0,0,1,.56,1.33,1.94,1.94,0,0,0,.87,1.21,2,2,0,0,0-.87,1.21,5.08,5.08,0,0,1-.56,1.34A2,2,0,0,0,45.88,21a1.61,1.61,0,0,0-.44-.05,2,2,0,0,0-1,.28,4.88,4.88,0,0,1-1.33.56,2,2,0,0,0-1.21.87,2,2,0,0,0-1.21-.87,5.08,5.08,0,0,1-1.34-.56,2,2,0,0,0-1-.28,1.73,1.73,0,0,0-.45.05,2,2,0,0,0-.23-1.47,5.08,5.08,0,0,1-.56-1.34,2,2,0,0,0-.87-1.21,1.94,1.94,0,0,0,.87-1.21,4.88,4.88,0,0,1,.56-1.33,2,2,0,0,0,.23-1.47,2.3,2.3,0,0,0,.45.05,2,2,0,0,0,1-.29,4.74,4.74,0,0,1,1.34-.55,2,2,0,0,0,1.21-.88M38,11.58h0m9.69.08h0M42.94,8.43H40.8a.53.53,0,0,0-.52.47l-.1,1.29A6.5,6.5,0,0,0,38.3,11l-1-.84A.5.5,0,0,0,37,10a.51.51,0,0,0-.36.15L35.1,11.68a.52.52,0,0,0,0,.7l.83,1a7.25,7.25,0,0,0-.78,1.88l-1.28.11a.5.5,0,0,0-.47.51V18a.52.52,0,0,0,.47.52l1.28.1a7.31,7.31,0,0,0,.78,1.89l-.83,1a.51.51,0,0,0,0,.69l1.52,1.52a.51.51,0,0,0,.36.15.5.5,0,0,0,.33-.12l1-.83a7.11,7.11,0,0,0,1.88.78l.1,1.28a.52.52,0,0,0,.52.47h2.14a.5.5,0,0,0,.51-.47l.11-1.28a7.11,7.11,0,0,0,1.88-.78l1,.83a.5.5,0,0,0,.33.12.51.51,0,0,0,.36-.15l1.52-1.52a.51.51,0,0,0,0-.69l-.83-1a7.31,7.31,0,0,0,.78-1.89l1.28-.1a.53.53,0,0,0,.47-.52V15.86a.51.51,0,0,0-.47-.51l-1.28-.11a7.25,7.25,0,0,0-.78-1.88l.83-1a.52.52,0,0,0,0-.7l-1.52-1.52a.51.51,0,0,0-.36-.15.5.5,0,0,0-.33.12l-1,.84a6.5,6.5,0,0,0-1.88-.78L43.45,8.9a.51.51,0,0,0-.51-.47Z"/><path class="cls-2" d="M52.15,26.59h0M48.77,28.8h0m7.38.09h0m-4.78,0a2.07,2.07,0,0,0,.81.41,3.29,3.29,0,0,1,.89.37,2,2,0,0,0,.87.28,2,2,0,0,0,.28.87,3.49,3.49,0,0,1,.37.89,2,2,0,0,0,.41.81,2,2,0,0,0-.41.81,3.64,3.64,0,0,1-.37.89,2,2,0,0,0-.28.87,1.86,1.86,0,0,0-.87.28,3.64,3.64,0,0,1-.89.37,2,2,0,0,0-.81.41,2,2,0,0,0-.81-.41,3.49,3.49,0,0,1-.89-.37,1.86,1.86,0,0,0-.87-.28,2,2,0,0,0-.28-.87,3.29,3.29,0,0,1-.37-.89,2.07,2.07,0,0,0-.41-.81,2.07,2.07,0,0,0,.41-.81,3.16,3.16,0,0,1,.37-.89A2,2,0,0,0,48.8,30a2,2,0,0,0,.87-.28,3.16,3.16,0,0,1,.89-.37,2.07,2.07,0,0,0,.81-.41m.82-2.87H50.55a.39.39,0,0,0-.39.36l-.08,1a5.1,5.1,0,0,0-1.44.6l-.75-.64a.42.42,0,0,0-.54,0l-1.16,1.16a.41.41,0,0,0,0,.54l.64.75a5.1,5.1,0,0,0-.6,1.44l-1,.08a.39.39,0,0,0-.36.39v1.64a.4.4,0,0,0,.36.39l1,.08a5.1,5.1,0,0,0,.6,1.44l-.64.75a.41.41,0,0,0,0,.54l1.16,1.15a.39.39,0,0,0,.28.12.43.43,0,0,0,.26-.09l.75-.64a5.1,5.1,0,0,0,1.44.6l.08,1a.39.39,0,0,0,.39.36h1.64a.4.4,0,0,0,.39-.36l.08-1a5.1,5.1,0,0,0,1.44-.6l.75.64a.43.43,0,0,0,.26.09.39.39,0,0,0,.28-.12l1.16-1.15a.41.41,0,0,0,0-.54l-.64-.75a5.1,5.1,0,0,0,.6-1.44l1-.08a.4.4,0,0,0,.36-.39V31.74a.39.39,0,0,0-.36-.39l-1-.08a5.1,5.1,0,0,0-.6-1.44l.64-.75a.41.41,0,0,0,0-.54l-1.16-1.16a.42.42,0,0,0-.54,0L54.1,28a5.1,5.1,0,0,0-1.44-.6l-.08-1a.4.4,0,0,0-.39-.36Z"/><path class="cls-2" d="M26.26,13.44h0m2.91,2.09h0m-4,.24a1.87,1.87,0,0,0,.51.2,2,2,0,0,1,.57.24,2.41,2.41,0,0,0,.5.21,1.92,1.92,0,0,0,.22.51,2.13,2.13,0,0,1,.23.56,2.28,2.28,0,0,0,.21.51,2.28,2.28,0,0,0-.21.51,2.13,2.13,0,0,1-.23.56,1.92,1.92,0,0,0-.22.51,2,2,0,0,0-.5.22,2.35,2.35,0,0,1-.57.23,1.87,1.87,0,0,0-.51.2,1.69,1.69,0,0,0-.5-.2,2.35,2.35,0,0,1-.57-.23,2,2,0,0,0-.5-.22,1.92,1.92,0,0,0-.22-.51,1.84,1.84,0,0,1-.23-.56A2.28,2.28,0,0,0,23,18a2.28,2.28,0,0,0,.21-.51,1.84,1.84,0,0,1,.23-.56,1.92,1.92,0,0,0,.22-.51,2.41,2.41,0,0,0,.5-.21,2,2,0,0,1,.57-.24,1.69,1.69,0,0,0,.5-.2M25.82,13H24.56a.31.31,0,0,0-.3.28L24.2,14a4.19,4.19,0,0,0-1.11.46L22.51,14a.26.26,0,0,0-.19-.07.31.31,0,0,0-.22.09l-.89.89a.3.3,0,0,0,0,.41l.48.58a3.92,3.92,0,0,0-.45,1.1l-.76.07a.3.3,0,0,0-.28.3v1.26a.3.3,0,0,0,.28.3l.76.07a3.92,3.92,0,0,0,.45,1.1l-.48.58a.3.3,0,0,0,0,.41l.89.89a.31.31,0,0,0,.22.09.26.26,0,0,0,.19-.07l.58-.49A4.19,4.19,0,0,0,24.2,22l.06.75a.31.31,0,0,0,.3.28h1.26a.31.31,0,0,0,.31-.28l.06-.75a4.34,4.34,0,0,0,1.11-.46l.57.49a.31.31,0,0,0,.2.07.27.27,0,0,0,.21-.09l.9-.89a.31.31,0,0,0,0-.41l-.49-.58a4,4,0,0,0,.46-1.1l.76-.07a.3.3,0,0,0,.27-.3V17.37a.3.3,0,0,0-.27-.3L29.16,17a4,4,0,0,0-.46-1.1l.49-.58a.31.31,0,0,0,0-.41l-.9-.89a.27.27,0,0,0-.21-.09.31.31,0,0,0-.2.07l-.57.49A4.34,4.34,0,0,0,26.19,14l-.06-.75a.31.31,0,0,0-.31-.28Z"/></g></g></svg>