<svg xmlns="http://www.w3.org/2000/svg" viewBox="0 0 96 96"><path fill="currentColor" d="M0 0h96v96H0z"/><g fill="none" stroke="#00008f" stroke-miterlimit="10" stroke-width="2"><path d="M34.63 31.12v10.34a13.37 13.37 0 1 0 26.74 0V31.12"/><path d="M57.34 51.4v8.82h6.51s15.86 0 15.86 15.39v7.65S79.71 91 48 91s-31.71-7.74-31.71-7.74v-7.65c0-15.39 15.86-15.39 15.86-15.39h6.51V51.4"/><path d="M57.34 60.22S56.83 66 48 66s-9.34-5.81-9.34-5.81m26.7-29.07H30.64c-1.1 0 0-.9 0-2v-2.35a2 2 0 0 1 2-2h30.7a2 2 0 0 1 2 2v2.35c0 1.1 1.12 2 .02 2z"/><path d="M32.57 24.77H42.9V8.17c-6.01 2.08-10.33 7.91-10.33 16.6zM53.1 8.17v16.6h10.33c0-8.69-4.32-14.52-10.33-16.6z"/><path d="M42.9 24.77V8.17A3 3 0 0 1 45.64 5h4.72a3 3 0 0 1 2.74 3.17v16.6"/><circle cx="33.43" cy="83.82" r="2.07"/><circle cx="62.57" cy="83.82" r="2.07"/><path d="M63.46 60.33v12.86a3.06 3.06 0 0 1-3.05 3.06H35.76a3.06 3.06 0 0 1-3-3.06V60.33m-10.2 27.91a14.55 14.55 0 0 1 3.45-8s1.51-1.76 1.49-6.57V60.73m45.94 27.51a14.55 14.55 0 0 0-3.45-8s-1.29-1.76-1.27-6.57V60.73"/></g></svg>