<svg xmlns="http://www.w3.org/2000/svg" viewBox="0 0 96 96"><defs><style>.cls-1{fill:#fff;}.cls-2{fill:none;stroke:#00008f;stroke-linecap:round;stroke-linejoin:round;stroke-width:2px;}</style></defs><title>Suitcase</title><g id="Layer_2" data-name="Layer 2"><g id="icons"><rect class="cls-1" width="96" height="96"/><path class="cls-2" d="M20,50V74a4,4,0,0,0,4,4H72a4,4,0,0,0,4-4V50"/><path class="cls-2" d="M63,21l-2-2.5c-1.62-1.92-2.6-2.5-5.39-2.5H40.39c-2.79,0-3.77.58-5.39,2.5L33,21"/><line class="cls-2" x1="33" y1="21" x2="29" y2="26"/><line class="cls-2" x1="63" y1="21" x2="67" y2="26"/><rect class="cls-2" x="44" y="44" width="8" height="12" rx="2" transform="translate(-2 98) rotate(-90)"/><line class="cls-2" x1="54" y1="32" x2="42" y2="32"/><line class="cls-2" x1="69" y1="72" x2="27" y2="72"/><line class="cls-2" x1="33" y1="21" x2="63" y2="21"/><path class="cls-2" d="M42,50H21a4,4,0,0,1-4-4V30a4,4,0,0,1,4-4H75a4,4,0,0,1,4,4V46a4,4,0,0,1-4,4H54"/></g></g></svg>