<svg xmlns="http://www.w3.org/2000/svg" viewBox="0 0 96 96"><g fill="none" stroke="#00008f" stroke-linecap="round" stroke-linejoin="round" stroke-width="2"><path d="M20 50v24a4 4 0 0 0 4 4h48a4 4 0 0 0 4-4V50M63 21l-2-2.5c-1.62-1.92-2.6-2.5-5.39-2.5H40.39c-2.79 0-3.77.58-5.39 2.5L33 21m0 0l-4 5m34-5l4 5"/><rect x="44" y="44" width="8" height="12" rx="2" transform="rotate(-90 48 50)"/><path d="M54 32H42m27 40H27m6-51h30M42 50H21a4 4 0 0 1-4-4V30a4 4 0 0 1 4-4h54a4 4 0 0 1 4 4v16a4 4 0 0 1-4 4H54"/></g></svg>