<svg xmlns="http://www.w3.org/2000/svg" viewBox="0 0 96 96"><defs><style>.cls-1{fill:#fff;}.cls-2{fill:none;stroke:#00008f;stroke-linecap:round;stroke-linejoin:round;stroke-width:2px;}</style></defs><title>Woman Elderly</title><g id="Layer_2" data-name="Layer 2"><g id="icons"><rect class="cls-1" width="96" height="96"/><path class="cls-2" d="M41.34,52.9l-9,2.53C25,58,21,61.81,21,68.16v6.69a4,4,0,0,0,3.37,3.94l11.07,2a68.43,68.43,0,0,0,25.12,0l11.07-2A4,4,0,0,0,75,74.85V68.16C75,61.81,71,58,63.69,55.43l-9-2.53"/><line class="cls-2" x1="48" y1="55" x2="56" y2="62.13"/><line class="cls-2" x1="48" y1="55" x2="40" y2="62.13"/><line class="cls-2" x1="40" y1="62.13" x2="37.96" y2="53.85"/><line class="cls-2" x1="56" y1="62.13" x2="58.04" y2="53.85"/><line class="cls-2" x1="48" y1="65" x2="48" y2="66"/><line class="cls-2" x1="48" y1="60" x2="48" y2="61"/><line class="cls-2" x1="48" y1="70" x2="48" y2="71"/><line class="cls-2" x1="48" y1="75" x2="48" y2="76"/><line class="cls-2" x1="48" y1="80" x2="48" y2="82"/><line class="cls-2" x1="30" y1="74" x2="30" y2="79.83"/><line class="cls-2" x1="66" y1="74" x2="66" y2="79.83"/><path class="cls-2" d="M48,31c0,2.76-4.92,5-11,5v7.07C37,49.71,41,55,48,55s11-5.29,11-11.93V36C52.92,36,48,33.76,48,31Z"/><path class="cls-2" d="M58.36,47.44C63,44.91,66,40.73,66,36c0-7.73-8.06-14-18-14S30,28.27,30,36c0,4.73,3,8.91,7.64,11.44"/><path class="cls-2" d="M54.7,23a7,7,0,1,0-13.4,0"/></g></g></svg>