<svg xmlns="http://www.w3.org/2000/svg" viewBox="0 0 96 96"><defs><style>.cls-2{fill:none;stroke:#00008f;stroke-linecap:round;stroke-linejoin:round;stroke-width:2px}</style></defs><g id="Layer_2" ><g id="icons"><path class="cls-2" d="M41.34 52.9l-9 2.53C25 58 21 61.81 21 68.16v6.69a4 4 0 0 0 3.37 3.94l11.07 2a68.43 68.43 0 0 0 25.12 0l11.07-2A4 4 0 0 0 75 74.85v-6.69c0-6.35-4-10.16-11.31-12.73l-9-2.53M48 55l8 7.13M48 55l-8 7.13M40 62.13l-2.04-8.28M56 62.13l2.04-8.28M48 65v1M48 60v1M48 70v1M48 75v1M48 80v2M30 74v5.83M66 74v5.83"/><path class="cls-2" d="M48 31c0 2.76-4.92 5-11 5v7.07C37 49.71 41 55 48 55s11-5.29 11-11.93V36c-6.08 0-11-2.24-11-5z"/><path class="cls-2" d="M58.36 47.44C63 44.91 66 40.73 66 36c0-7.73-8.06-14-18-14s-18 6.27-18 14c0 4.73 3 8.91 7.64 11.44M54.7 23a7 7 0 1 0-13.4 0"/></g></g></svg>