<svg xmlns="http://www.w3.org/2000/svg" viewBox="0 0 96 96"><defs><style>.cls-2{fill:none;stroke:#00008f;stroke-linecap:round;stroke-linejoin:round;stroke-width:2px}</style></defs><g id="Layer_2" data-name="Layer 2"><g id="icons"><path fill="currentColor" d="M0 0h96v96H0z"/><path class="cls-2" d="M53 31h-9a11 11 0 0 0-7 3v7c0 6.64 4 12 11 12s11-5.39 11-12V28s-3 3-6 3z"/><path class="cls-2" d="M31 29.31A14.29 14.29 0 0 1 45.27 15h2.19A14.32 14.32 0 0 1 60 22a4.71 4.71 0 0 1 5 5v18a7.94 7.94 0 0 0 4 7 8.82 8.82 0 0 1-6.41 4.74L61 57M41 50.69v5.41M55 50.69v5.41M55 56.18l8.11 1.25A12.88 12.88 0 0 1 74 70.16v4.69a4 4 0 0 1-3.24 3.94l-10.67 2a63.45 63.45 0 0 1-24.18 0l-10.67-2A4 4 0 0 1 22 74.85v-4.69a12.88 12.88 0 0 1 10.89-12.73L41 56.18"/><path class="cls-2" d="M37 57l2.87 6a9 9 0 0 0 16.26 0L59 57M33 75v5.17M63 75v5.17M35 57l-1.59-.26A8.82 8.82 0 0 1 27 52a7.94 7.94 0 0 0 4-7V29"/></g></g></svg>