<svg xmlns="http://www.w3.org/2000/svg" viewBox="0 0 96 96"><defs><style>.cls-1{fill:#fff;}.cls-2{fill:none;stroke:#00008f;stroke-linecap:round;stroke-linejoin:round;stroke-width:2px;}</style></defs><title>Woman Shirt</title><g id="Layer_2" data-name="Layer 2"><g id="icons"><rect class="cls-1" width="96" height="96"/><path class="cls-2" d="M53,31H44a11,11,0,0,0-7,3v7c0,6.64,4,12,11,12s11-5.39,11-12V28S56,31,53,31Z"/><path class="cls-2" d="M31,29.31A14.29,14.29,0,0,1,45.27,15h2.19A14.32,14.32,0,0,1,60,22a4.71,4.71,0,0,1,5,5V45a7.94,7.94,0,0,0,4,7h0a8.82,8.82,0,0,1-6.41,4.74L61,57"/><line class="cls-2" x1="41" y1="51.09" x2="41" y2="56.1"/><line class="cls-2" x1="55" y1="51.09" x2="55" y2="56.1"/><path class="cls-2" d="M41,56.18l-8.11,1.25A12.88,12.88,0,0,0,22,70.16v4.69a4,4,0,0,0,3.24,3.94l10.67,2a63.45,63.45,0,0,0,24.18,0l10.67-2A4,4,0,0,0,74,74.85V70.16A12.88,12.88,0,0,0,63.11,57.43L55,56.18"/><line class="cls-2" x1="41" y1="56.1" x2="48" y2="74.15"/><polyline class="cls-2" points="38 57.11 33 68.14 40 66.13 48 74.15"/><polyline class="cls-2" points="58 57.11 63 68.14 56 66.13 48 74.15 55 56.1"/><line class="cls-2" x1="33" y1="75" x2="33" y2="80.17"/><line class="cls-2" x1="63" y1="75" x2="63" y2="80.17"/><line class="cls-2" x1="48" y1="74" x2="48" y2="82"/><path class="cls-2" d="M35,57l-1.59-.26A8.82,8.82,0,0,1,27,52h0a7.94,7.94,0,0,0,4-7V29"/></g></g></svg>