<svg width="30" height="30" xmlns="http://www.w3.org/2000/svg">
  <g fill="none" fill-rule="evenodd">
    <path
      d="M21.687 9.03a1.394 1.394 0 0 0-1.057-.364 1.413 1.413 0 0 0-.997.539l-6.7 8.478-2.982-3.88a1.411 1.411 0 0 0-1-.548c-.387-.03-.77.102-1.056.365a1.549 1.549 0 0 0-.156 2.092l3.781 4.942a1.81 1.81 0 0 0 2.842 0l7.492-9.508a1.55 1.55 0 0 0-.167-2.116zm-.174 1.838l-7.491 9.507a1.388 1.388 0 0 1-2.178 0L8.062 15.45a1.122 1.122 0 0 1 .11-1.517.976.976 0 0 1 .661-.26h.082a.993.993 0 0 1 .702.385l3.148 4.094c.04.052.101.082.167.083.064 0 .125-.03.164-.08l6.865-8.686a.978.978 0 0 1 1.44-.129c.433.401.481 1.068.112 1.528z"
      fill-rule="nonzero" fill="currentColor"/>
    <path
      d="M15 30C6.716 30 0 23.284 0 15 0 6.716 6.716 0 15 0c.765 0 1.523.057 2.27.17C24.55 1.277 30 7.562 30 15c0 8.284-6.716 15-15 15zm0-.423c8.05 0 14.577-6.526 14.577-14.577 0-7.23-5.295-13.337-12.37-14.412A14.694 14.694 0 0 0 15 .423C6.95.423.423 6.949.423 15c0 8.05 6.526 14.577 14.577 14.577z"
      fill="currentColor" fill-rule="nonzero"/>
  </g>
</svg>
