<?xml version="1.0" encoding="utf-8"?><svg xmlns="http://www.w3.org/2000/svg" xmlns:xlink="http://www.w3.org/1999/xlink"><symbol viewBox="0 0 24 24" id="src--assets--icons--add" xmlns="http://www.w3.org/2000/svg"><path fill="currentColor" d="M19 13h-6v6h-2v-6H5v-2h6V5h2v6h6v2z"/></symbol><symbol viewBox="0 0 32 32" id="src--assets--icons--angle-bracket-down" xmlns="http://www.w3.org/2000/svg"><path fill="currentColor" d="M16 28.067c-.533 0-1-.2-1.4-.6l-14-14c-1.8-1.8 1-4.667 2.8-2.8L16 23.2l12.6-12.533c1.8-1.8 4.667 1 2.8 2.8l-14 14c-.333.4-.867.6-1.4.6z"/></symbol><symbol class="cicon" viewBox="0 0 32 32" id="src--assets--icons--arrow" xmlns="http://www.w3.org/2000/svg"><path fill="currentColor" d="M30.533 16.8c.333-.533.267-1.267-.2-1.667l-11.4-11.4c-1.2-1.2-3.133.667-1.867 1.867l9.133 9.133H2.666c-1.733 0-1.733 2.667 0 2.667h23.533l-9.133 9.133c-1.2 1.2.667 3.133 1.867 1.867l11.4-11.4.2-.2z"/></symbol><symbol viewBox="0 0 24 24" id="src--assets--icons--baseline-phone-24px" xmlns="http://www.w3.org/2000/svg"><path d="M6.62 10.79c1.44 2.83 3.76 5.14 6.59 6.59l2.2-2.2c.27-.27.67-.36 1.02-.24 1.12.37 2.33.57 3.57.57.55 0 1 .45 1 1V20c0 .55-.45 1-1 1-9.39 0-17-7.61-17-17 0-.55.45-1 1-1h3.5c.55 0 1 .45 1 1 0 1.25.2 2.45.57 3.57.11.35.03.74-.25 1.02l-2.2 2.2z"/></symbol><symbol viewBox="0 0 24 24" id="src--assets--icons--baseline-place-24px" xmlns="http://www.w3.org/2000/svg"><path d="M12 2C8.13 2 5 5.13 5 9c0 5.25 7 13 7 13s7-7.75 7-13c0-3.87-3.13-7-7-7zm0 9.5a2.5 2.5 0 0 1 0-5 2.5 2.5 0 0 1 0 5z"/></symbol><symbol viewBox="0 0 30 30" id="src--assets--icons--checkmark" xmlns="http://www.w3.org/2000/svg"><g fill="currentColor" fill-rule="nonzero"><path d="M21.687 9.03a1.394 1.394 0 0 0-1.057-.364 1.413 1.413 0 0 0-.997.539l-6.7 8.478-2.982-3.88a1.411 1.411 0 0 0-1-.548 1.4 1.4 0 0 0-1.056.365 1.549 1.549 0 0 0-.156 2.092l3.781 4.942a1.81 1.81 0 0 0 2.842 0l7.492-9.508a1.55 1.55 0 0 0-.167-2.116zm-.174 1.838l-7.491 9.507a1.388 1.388 0 0 1-2.178 0L8.062 15.45a1.122 1.122 0 0 1 .11-1.517.976.976 0 0 1 .661-.26h.082a.993.993 0 0 1 .702.385l3.148 4.094a.209.209 0 0 0 .331.003l6.865-8.686a.978.978 0 0 1 1.44-.129c.433.401.481 1.068.112 1.528z"/><path d="M15 30C6.716 30 0 23.284 0 15 0 6.716 6.716 0 15 0c.765 0 1.523.057 2.27.17C24.55 1.277 30 7.562 30 15c0 8.284-6.716 15-15 15zm0-.423c8.05 0 14.577-6.526 14.577-14.577 0-7.23-5.295-13.337-12.37-14.412A14.694 14.694 0 0 0 15 .423C6.95.423.423 6.949.423 15c0 8.05 6.526 14.577 14.577 14.577z"/></g></symbol><symbol viewBox="0 0 10 6" id="src--assets--icons--chevron-down" xmlns="http://www.w3.org/2000/svg"><path d="M1.175 0L5 3.712 8.825 0 10 1.148 5 6 0 1.148z" fill="currentColor"/></symbol><symbol id="src--assets--icons--company_blue" viewBox="0 0 96 96" xmlns="http://www.w3.org/2000/svg"><defs><style>.hcls-1{fill:#00008f}</style></defs><path class="hcls-1" d="M35.1 84.08h25.8a1 1 0 0 0 1-1V21.47a1 1 0 0 0-1-1h-3.5v-3a1 1 0 0 0-1-1H49v-3.55a1 1 0 0 0-2 0v3.59h-7.4a1 1 0 0 0-1 1v3h-3.5a1 1 0 0 0-1 1v61.57a1 1 0 0 0 1 1zm5.5-65.57h14.8v2H40.6zm10.15 52.12v11.45h-5.49V70.63zM36.1 22.47h23.8v59.61h-7.15V70.63h1.81a1 1 0 0 0 0-2H41.45a1 1 0 0 0 0 2h1.81v11.45H36.1z"/><path class="hcls-1" d="M54.82 30.5a3 3 0 1 0-3-3 3 3 0 0 0 3 3zm0-4a1 1 0 1 1-1 1 1 1 0 0 1 1-.98zM48 30.5a3 3 0 1 0-3-3 3 3 0 0 0 3 3zm0-4a1 1 0 1 1-1 1 1 1 0 0 1 1-.98zM41 30.49h.17a3 3 0 0 0 3-2.82 3 3 0 0 0-2.82-3.15 2.91 2.91 0 0 0-2.16.75A3 3 0 0 0 41 30.49zm-.82-3a1 1 0 0 1 1-.93h.06a1 1 0 0 1 .6 1.73.94.94 0 0 1-.71.25 1 1 0 0 1-.93-1zM54.82 40.41a3 3 0 1 0-3-3 3 3 0 0 0 3 3zm0-4a1 1 0 1 1-1 1 1 1 0 0 1 1-.98zM48 40.41a3 3 0 1 0-3-3 3 3 0 0 0 3 3zm0-4a1 1 0 1 1-1 1 1 1 0 0 1 1-.98zM41.35 34.43a3 3 0 0 0-3.15 2.82A3 3 0 0 0 41 40.4h.17a3 3 0 0 0 .16-6zm.49 3.72a1 1 0 1 1 .33-.68 1 1 0 0 1-.33.68zM54.82 50.32a3 3 0 1 0-3-3 3 3 0 0 0 3 3zm0-4a1 1 0 1 1-1 1 1 1 0 0 1 1-.98zM48 50.32a3 3 0 1 0-3-3 3 3 0 0 0 3 3zm0-4a1 1 0 1 1-1 1 1 1 0 0 1 1-.98zM41.35 44.34a3 3 0 0 0-.34 6h.17a3 3 0 0 0 .17-6zm-.22 4a1 1 0 0 1-.93-1 1 1 0 0 1 1-.93h.06a1 1 0 1 1-.11 2zM54.82 60.23a3 3 0 1 0-3-3 3 3 0 0 0 3 3zm0-4a1 1 0 1 1-1 1 1 1 0 0 1 1-.98zM48 60.23a3 3 0 1 0-3-3 3 3 0 0 0 3 3zm0-4a1 1 0 1 1-1 1 1 1 0 0 1 1-.98zM41.18 60.22a3 3 0 0 0 .17-6 2.91 2.91 0 0 0-2.16.75A3 3 0 0 0 41 60.22zm-1-3a1 1 0 0 1 1-.93h.06a1 1 0 0 1 .93 1 1 1 0 0 1-1 .93 1 1 0 0 1-.98-1.04z"/></symbol><symbol viewBox="0 0 32 32" id="src--assets--icons--cross-gap" xmlns="http://www.w3.org/2000/svg"><path fill="currentColor" d="M12 13.333c-.333 0-.667-.133-.933-.4L1.734 3.6c-1.2-1.2.667-3.133 1.867-1.867l9.333 9.333c.8.8.2 2.267-.933 2.267zM29.333 30.667c-.333 0-.667-.133-.933-.4l-9.333-9.333c-1.2-1.2.667-3.133 1.867-1.867l9.333 9.333c.8.8.2 2.267-.933 2.267zM2.667 30.667c-1.133 0-1.733-1.467-.933-2.267L28.401 1.733c1.2-1.2 3.133.667 1.867 1.867L3.601 30.267c-.267.267-.6.4-.933.4z"/></symbol><symbol viewBox="0 0 24 24" id="src--assets--icons--datepicker" xmlns="http://www.w3.org/2000/svg"><path fill="none" d="M0 0h24v24H0z"/><path d="M19 3h-1V1h-2v2H8V1H6v2H5c-1.11 0-1.99.9-1.99 2L3 19a2 2 0 0 0 2 2h14c1.1 0 2-.9 2-2V5c0-1.1-.9-2-2-2zm0 16H5V8h14v11zM7 10h5v5H7z"/></symbol><symbol viewBox="0 0 14 17" id="src--assets--icons--download" xmlns="http://www.w3.org/2000/svg"><path fill="currentColor" d="M0 17h14v-2H0v2zM14 6h-4V0H4v6H0l7 7 7-7z"/></symbol><symbol viewBox="0 0 16 16" id="src--assets--icons--facebook" xmlns="http://www.w3.org/2000/svg"><path fill="currentColor" d="M6.39 5.88H4.77v2.17h1.62v6.51h2.72V8.05h2l.19-2.17H9.11V5c0-.52.1-.72.6-.72h1.57V1.54H9.21c-2 0-2.82.86-2.82 2.5z"/></symbol><symbol id="src--assets--icons--house_blue" viewBox="0 0 96 96" xmlns="http://www.w3.org/2000/svg"><defs><style>.mcls-1{fill:#00008f}</style></defs><path class="mcls-1" d="M86.3 31.58L51.46 5.16a5.74 5.74 0 0 0-6.92 0L9.67 31.61A4.18 4.18 0 0 0 8 35a4.3 4.3 0 0 0 4.73 4.28V81a1 1 0 0 0 1 1h68.54a1 1 0 0 0 1-1V39.28a4.24 4.24 0 0 0 .42 0A4.31 4.31 0 0 0 88 35a4.21 4.21 0 0 0-1.7-3.42zM57.64 80H38.36V48.88h19.28zm23.64 0H59.64V47.88a1 1 0 0 0-1-1H37.36a1 1 0 0 0-1 1V80H14.73V38.54l.17-.11 33-25a.18.18 0 0 1 .22 0l33 25 .17.11zm3.45-42.93a2.25 2.25 0 0 1-2.41-.23l-33-25a2.19 2.19 0 0 0-2.64 0l-33 25A2.3 2.3 0 0 1 10 35a2.18 2.18 0 0 1 .91-1.83L45.75 6.76a3.74 3.74 0 0 1 4.5 0l34.81 26.39A2.19 2.19 0 0 1 86 35a2.26 2.26 0 0 1-1.28 2.07z"/><path class="mcls-1" d="M48 26.45a5.73 5.73 0 1 0 5.73 5.73A5.74 5.74 0 0 0 48 26.45zm0 9.46a3.73 3.73 0 1 1 3.73-3.73A3.73 3.73 0 0 1 48 35.92zM43.27 65.44h2.36a1 1 0 0 0 0-2h-2.36a1 1 0 0 0 0 2z"/></symbol><symbol id="src--assets--icons--industry_blue" viewBox="0 0 96 96" xmlns="http://www.w3.org/2000/svg"><defs><style>.ncls-1{fill:#00008f}</style></defs><path class="ncls-1" d="M78.31 43.41l-1.53-25.93a1 1 0 0 0-1-.94h-5.92a1 1 0 0 0-1 .94l-1.47 25H18.7a1 1 0 0 0-1 1v31.23c0 3.4 2.36 6.16 5.25 6.16h50.12c2.89 0 5.25-2.76 5.25-6.16V43.46s0-.04-.01-.05zM70.48 23.9h4.68l.09 1.55h-4.86zm4.36-5.36L75 21.9h-4.4l.2-3.36zm-4.57 8.91h5.1l.89 15h-6.87zm-50.58 17h56.63V54H19.7zm38.54 34.43V70h8.6v8.92zm18.09-4.16c0 2.29-1.46 4.16-3.25 4.16h-4.24V69a1 1 0 0 0-1-1h-10.6a1 1 0 0 0-1 1v9.92H22.95c-1.79 0-3.25-1.87-3.25-4.16V56h56.62zM18.66 19.64a2.52 2.52 0 0 0 1.57.55H33a2.56 2.56 0 0 0 2.53 2.34h19.2a2.55 2.55 0 0 0 0-5.09H42a2.56 2.56 0 0 0-2.53-2.31H20.22a2.54 2.54 0 0 0-1.78 4.35 1 1 0 0 0 .22.16zm1.58-2.51h19.18a.55.55 0 0 1 .55.54.51.51 0 0 1-.07.26 1 1 0 0 0 .86 1.51h14a.55.55 0 0 1 0 1.09H35.54a.57.57 0 0 1-.55-.6.52.52 0 0 1 .06-.27 1 1 0 0 0-.89-1.46H20.23a.53.53 0 0 1-.38-.16l-.08-.04a.54.54 0 0 1-.08-.29.59.59 0 0 1 .55-.58z"/><path class="ncls-1" d="M31.31 74a4.36 4.36 0 1 0-4.36-4.36A4.37 4.37 0 0 0 31.31 74zm0-6.72a2.36 2.36 0 1 1-2.36 2.36 2.36 2.36 0 0 1 2.36-2.35zM44.62 74a4.36 4.36 0 1 0-4.36-4.36A4.37 4.37 0 0 0 44.62 74zm0-6.72a2.36 2.36 0 1 1-2.36 2.36 2.36 2.36 0 0 1 2.36-2.35z"/></symbol><symbol viewBox="0 0 24 24" id="src--assets--icons--info-close" xmlns="http://www.w3.org/2000/svg"><path d="M0 0h24v24H0z" fill="none"/><path d="M12 2C6.48 2 2 6.48 2 12s4.48 10 10 10 10-4.48 10-10S17.52 2 12 2zm1 15h-2v-6h2v6zm0-8h-2V7h2v2z"/>s</symbol><symbol viewBox="0 0 24 24" id="src--assets--icons--info-open" xmlns="http://www.w3.org/2000/svg"><path d="M0 0h24v24H0z" fill="none"/><path d="M11 17h2v-6h-2v6zm1-15C6.48 2 2 6.48 2 12s4.48 10 10 10 10-4.48 10-10S17.52 2 12 2zm0 18c-4.41 0-8-3.59-8-8s3.59-8 8-8 8 3.59 8 8-3.59 8-8 8zM11 9h2V7h-2v2z"/></symbol><symbol viewBox="0 0 16 16" id="src--assets--icons--instagram" xmlns="http://www.w3.org/2000/svg"><circle fill="currentColor" cx="8" cy="8" r="2.12"/><path fill="currentColor" d="M14.32 5.38a3.51 3.51 0 0 0-3.7-3.7H5.38a3.51 3.51 0 0 0-3.7 3.7v5.24a3.51 3.51 0 0 0 3.7 3.7h5.24a3.51 3.51 0 0 0 3.7-3.7V8c0-1.73.03-1.94 0-2.62zM8 11.46A3.46 3.46 0 1 1 11.46 8 3.46 3.46 0 0 1 8 11.46zm3.59-6.28a.76.76 0 1 1 .76-.76.76.76 0 0 1-.76.76z"/></symbol><symbol viewBox="0 0 16 16" id="src--assets--icons--linkedin" xmlns="http://www.w3.org/2000/svg"><path fill="currentColor" d="M4.36 3.31A1.29 1.29 0 1 1 3.07 2a1.29 1.29 0 0 1 1.29 1.31zm0 2.34H1.77V14h2.6zm4.14 0H5.93V14h2.58V9.62c0-2.43 3.13-2.63 3.13 0V14h2.59V8.71c0-4.1-4.63-4-5.72-1.93z"/></symbol><symbol viewBox="0 0 283.467 283.467" id="src--assets--icons--logo-AXA" xmlns="http://www.w3.org/2000/svg"><path fill="#00008f" d="M.003.003h283.464v283.464H.003z"/><path fill="#ff1721" d="M175.659 139.99L283.467 0h-15.923L159.38 139.99h16.279z"/><path fill="#fff" d="M216.597 202.461c4.941 13.823 15.122 49.795 19.17 52.661h-26.729a44.571 44.571 0 0 0-1.254-9.434c-1.153-4.111-10.821-35.214-10.821-35.214h-42.456l-6.675 9.463s8.018 25.097 8.515 26.327c.865 2.217 4.693 8.858 4.693 8.858h-25.615s-.664-3.833-.913-5.43c-.2-1.289-2.427-8.349-2.427-8.349s-5.806 6.362-7.388 9.312c-1.596 2.943-2.304 4.467-2.304 4.467h-20.04s-.668-3.833-.917-5.43c-.196-1.289-2.647-8.916-2.647-8.916s-5.61 6.812-7.207 9.756c-1.587 2.95-2.27 4.59-2.27 4.59h-19.82s5.601-5.332 7.559-7.622c3.3-3.882 15.6-19.956 15.6-19.956l-4.931-17.07H45.586s-24.023 31.567-24.97 32.543c-.957.962-7.96 11.011-8.116 12.105H0v-7.949a5.987 5.987 0 0 1 .493-.479c.386-.283 18.213-22.412 34.59-44.233 14.717-19.029 28.526-37.535 29.737-39.297 2.934-4.263 7.163-13.467 7.163-13.467h21.781s.675 8.467 1.31 10.522c.565 1.817 13.837 45.362 14.15 45.831l7.338-9.385-12.543-38.614s-2.94-7.265-3.897-8.354h25.445a22.166 22.166 0 0 0 .83 6.919c1.034 3.184 6.489 22.866 6.489 22.866s17.354-21.753 18.369-23.315a14.1 14.1 0 0 0 2.143-6.47H174.6s-3.881 2.837-10.683 11.44c-2.285 2.896-24.673 31.348-24.673 31.348s1.953 6.66 2.905 9.976c.26.952.44 1.597.44 1.665 0 .03.493-.576 1.343-1.665 5.776-7.32 32.05-41.772 33.643-44.722 1.284-2.382 3.173-5.092 4.282-8.041h20.683s.478 6.176 1.109 7.885zm-31.475-32.612c-3.037 6.533-20.913 28.296-20.913 28.296h28.31s-5.488-16.9-6.445-20.709a30.233 30.233 0 0 1-.557-7.402c0-.346-.063-.908-.395-.185zm-108.775 0c-3.036 6.533-20.912 28.296-20.912 28.296h28.31s-5.483-16.9-6.44-20.709a30.233 30.233 0 0 1-.557-7.402c0-.346-.068-.908-.4-.185zm42.623 65.986l7.793-10.703c-.718-.772-5.107-14.082-5.107-14.082l-7.535 9.775z"/></symbol><symbol viewBox="0 0 32 32" id="src--assets--icons--menu" xmlns="http://www.w3.org/2000/svg"><path fill="currentColor" d="M30.667 6.667H1.334C-.399 6.667-.399 4 1.334 4h29.333c1.733 0 1.733 2.667 0 2.667zM30.667 17.333H1.334c-1.733 0-1.733-2.667 0-2.667h29.333c1.733 0 1.733 2.667 0 2.667zM30.667 28H1.334c-1.733 0-1.733-2.667 0-2.667h29.333c1.733 0 1.733 2.667 0 2.667z"/></symbol><symbol viewBox="0 0 24 24" id="src--assets--icons--more" xmlns="http://www.w3.org/2000/svg"><path fill="currentColor" d="M6 10c-1.1 0-2 .9-2 2s.9 2 2 2 2-.9 2-2-.9-2-2-2zm12 0c-1.1 0-2 .9-2 2s.9 2 2 2 2-.9 2-2-.9-2-2-2zm-6 0c-1.1 0-2 .9-2 2s.9 2 2 2 2-.9 2-2-.9-2-2-2z"/></symbol><symbol viewBox="0 0 32 32" id="src--assets--icons--search-left" xmlns="http://www.w3.org/2000/svg"><path fill="currentColor" d="M18.2 0C10.333 0 3.867 6.867 4.4 14.733c.2 2.667 1.133 5.2 2.733 7.333l-6.6 6.6c-1.8 1.8 1 4.6 2.8 2.8l6.6-6.6c6 4.467 14.6 3.267 19.133-2.6 4.133-5.333 3.733-13.133-1-18-2.533-2.733-6.133-4.267-9.867-4.267zm0 23.667c-4.067 0-7.867-2.667-9.267-6.467-1.4-3.867-.2-8.333 3-11s7.867-3 11.4-.8c3.467 2.133 5.333 6.333 4.533 10.333-.933 4.533-5 7.933-9.667 7.933z"/></symbol><symbol viewBox="0 0 16 16" id="src--assets--icons--twitter" xmlns="http://www.w3.org/2000/svg"><path fill="currentColor" d="M14.45 4.83a5.29 5.29 0 0 1-1.52.42 2.65 2.65 0 0 0 1.17-1.47 5.3 5.3 0 0 1-1.68.64A2.65 2.65 0 0 0 7.9 6.84a7.52 7.52 0 0 1-5.45-2.77 2.65 2.65 0 0 0 .82 3.54 2.64 2.64 0 0 1-1.2-.33 2.65 2.65 0 0 0 2.12 2.63A2.65 2.65 0 0 1 3 10a2.65 2.65 0 0 0 2.47 1.84 5.32 5.32 0 0 1-3.92 1.1A7.53 7.53 0 0 0 13.13 6.2a5.39 5.39 0 0 0 1.32-1.37z"/></symbol><symbol viewBox="0 0 24 24" id="src--assets--icons--xing" xmlns="http://www.w3.org/2000/svg"><path fill="currentColor" d="M17.67 2c-.43 0-.62.27-.77.55 0 0-6.22 11.02-6.4 11.38l4.08 7.52c.14.26.36.55.8.55h2.88c.18 0 .31-.07.38-.18.08-.13.08-.29 0-.45l-4.07-7.45 6.39-11.29a.48.48 0 0 0 .01-.45.458.458 0 0 0-.39-.18M5.55 5.95c-.17 0-.32.05-.39.18-.08.13-.07.28.02.44l1.94 3.4-3.06 5.4c-.06.16-.06.32 0 .45.07.12.2.18.37.18h2.89c.43 0 .64-.28.79-.55 0 0 2.99-5.29 3.11-5.5L9.24 6.5c-.14-.26-.36-.55-.81-.55"/></symbol><symbol viewBox="0 0 16 16" id="src--assets--icons--youtube" xmlns="http://www.w3.org/2000/svg"><path fill="currentColor" d="M12.39 2.92c-2.08-.14-6.7-.14-8.78 0C1.36 3.07 1.1 4.43 1.08 8s.28 4.93 2.53 5.08c2.07.14 6.7.14 8.78 0 2.25-.15 2.51-1.51 2.53-5.08s-.28-4.93-2.53-5.08zm-6.12 7.39V5.69L10.88 8z"/></symbol></svg>