<svg xmlns="http://www.w3.org/2000/svg" viewBox="0 0 24 24" id="xing" width="100%" height="100%">
    <path fill="currentColor" d="M17.67 2c-.43 0-.62.27-.77.55 0 0-6.22 11.02-6.4 11.38l4.08 7.52c.14.26.36.55.8.55h2.88c.18 0 .31-.07.38-.18.08-.13.08-.29 0-.45l-4.07-7.45 6.39-11.29a.48.48 0 0 0 .01-.45.458.458 0 0 0-.39-.18M5.55 5.95c-.17 0-.32.05-.39.18-.08.13-.07.28.02.44l1.94 3.4-3.06 5.4c-.06.16-.06.32 0 .45.07.12.2.18.37.18h2.89c.43 0 .64-.28.79-.55 0 0 2.99-5.29 3.11-5.5L9.24 6.5c-.14-.26-.36-.55-.81-.55"></path>
</svg>
