<svg width="25" height="24" viewBox="0 0 25 24" fill="none" xmlns="http://www.w3.org/2000/svg">
<path fill-rule="evenodd" clip-rule="evenodd" d="M5.34278 4.04C6.59226 1.64 9.11121 0 12 0C15.6385 0 18.6672 2.59 19.3569 6.04C21.9459 6.22 23.995 8.36 23.995 11C23.995 13.76 21.7559 16 18.9971 16H6.00251C2.69388 16 0.00500488 13.31 0.00500488 10C0.00500488 6.91 2.34403 4.36 5.34278 4.04ZM17.3978 6.43C16.888 3.86 14.6089 2 12 2C9.94086 2 8.07164 3.14 7.13204 4.97L6.63224 5.92L5.56269 6.03C3.53353 6.24 2.00417 7.95 2.00417 10C2.00417 12.21 3.79343 14 6.00251 14H18.9971C20.6464 14 21.9958 12.65 21.9958 11C21.9958 9.45 20.7764 8.15 19.217 8.04L17.6976 7.93L17.3978 6.43Z" fill="currentColor"/>
<path fill-rule="evenodd" clip-rule="evenodd" d="M7.70521 22.7053L3.99997 19L5.41418 17.5858L9.11942 21.2911L7.70521 22.7053Z" fill="currentColor"/>
<path fill-rule="evenodd" clip-rule="evenodd" d="M17.7052 22.7053L14 19L15.4142 17.5858L19.1194 21.2911L17.7052 22.7053Z" fill="currentColor"/>
<path fill-rule="evenodd" clip-rule="evenodd" d="M12.7052 22.7053L8.99997 19L10.4142 17.5858L14.1194 21.2911L12.7052 22.7053Z" fill="currentColor"/>
<path fill-rule="evenodd" clip-rule="evenodd" d="M22.7052 22.7053L19 19L20.4142 17.5858L24.1194 21.2911L22.7052 22.7053Z" fill="currentColor"/>
</svg>
