<svg viewBox="0 0 96 96" fill="none" xmlns="http://www.w3.org/2000/svg"><path d="M44 75a22 22 0 1017-36 22.538 22.538 0 00-4.45.45 22 22 0 01-17.1 17.1A22.545 22.545 0 0039 61a21.931 21.931 0 002 9.07M52 21a21.87 21.87 0 103 4.89L52 21z" stroke="currentColor" stroke-width="2" stroke-linecap="round" stroke-linejoin="round"/><path d="M44 81v-6h6m2-60v6h-6m-3 22V26l-7 12h10m-13 5h-9l7.66-10.5a4.18 4.18 0 00-6.436-5.276A4.18 4.18 0 0024 30.18M57 54h9l-8 17" stroke="currentColor" stroke-width="2" stroke-linecap="round" stroke-linejoin="round"/></svg>