<svg viewBox="0 0 96 96" fill="none" xmlns="http://www.w3.org/2000/svg"><path d="M74.41 60.78h16.43V41.76m0 14.21H72.99m17.85-22.86V28.3h-5.19c-3.84 0-6.91.36-11.28 4.38l-7.5 6.8-11.57 4a4.13 4.13 0 00-3.36 4.07v7.75" stroke="currentColor" stroke-width="2" stroke-linecap="round" stroke-linejoin="round"/><path d="M67.5 67.7a6.92 6.92 0 100-13.84 6.92 6.92 0 000 13.84z" stroke="currentColor" stroke-width="2" stroke-linecap="round" stroke-linejoin="round"/><path d="M67.5 63.37a2.59 2.59 0 100-5.18 2.59 2.59 0 000 5.18zM51.94 49.54a6.26 6.26 0 004.32-2 15.07 15.07 0 002.59-4.94m31.99-9.48h-5.17A11.25 11.25 0 0078.11 36l-6.29 5.72m-.07.04h19.09m-5.19 4.32h1.73M47.61 33.12l-.07 6.05m6.51-3.46l-3.26 3.79m-9.76-3.79l3.25 3.79M21.59 60.78H5.16V41.76m0 14.21h17.85M5.16 33.11V28.3h5.19c3.84 0 6.91.36 11.28 4.38l7.5 6.8 11.57 4a4.13 4.13 0 013.36 4.07v7.75m16.52 5.48h-8.21a2.51 2.51 0 010-5h10l-1.79 5z" stroke="currentColor" stroke-width="2" stroke-linecap="round" stroke-linejoin="round"/><path d="M28.5 67.7a6.92 6.92 0 100-13.84 6.92 6.92 0 000 13.84z" stroke="currentColor" stroke-width="2" stroke-linecap="round" stroke-linejoin="round"/><path d="M28.5 63.37a2.59 2.59 0 100-5.18 2.59 2.59 0 000 5.18zm15.56-13.83a6.26 6.26 0 01-4.32-2 15.069 15.069 0 01-2.59-4.94M5.16 33.12h5.17A11.25 11.25 0 0117.89 36l6.29 5.72m-.3.04H5.16m5.19 4.32H8.62m26.8 14.7h8.21a2.51 2.51 0 000-5h-10l1.79 5z" stroke="currentColor" stroke-width="2" stroke-linecap="round" stroke-linejoin="round"/></svg>