<svg viewBox="0 0 96 96" fill="none" xmlns="http://www.w3.org/2000/svg"><path d="M70.978 69c0 3.87-10.31 7-23 7s-23-3.13-23-7m17-52.5L24.958 69l17.02-52.5zM70.998 69l-17.02-52.5L70.998 69zm-23.02-50c3.314 0 6-1.12 6-2.5s-2.686-2.5-6-2.5c-3.313 0-6 1.12-6 2.5s2.687 2.5 6 2.5z" stroke="currentColor" stroke-width="2" stroke-linecap="round" stroke-linejoin="round"/><path d="M27.528 61h-4.64a3 3 0 00-2.73 1.76l-7 16.46a2 2 0 001.82 2.78h66a2 2 0 001.84-2.78l-7-16.46a3 3 0 00-2.75-1.76h-4.67m-4.6-14.21c-2.5 2.46-8.64 4.21-15.82 4.21s-13.33-1.74-15.82-4.21M58.358 30c-2.08 1.78-6 3-10.38 3-4.38 0-8.3-1.2-10.38-3" stroke="currentColor" stroke-width="2" stroke-linecap="round" stroke-linejoin="round"/><path d="M68.368 60.91c-3.28 2.98-11.17 5.09-20.39 5.09s-17.11-2.11-20.39-5.09" stroke="currentColor" stroke-width="2" stroke-linecap="round" stroke-linejoin="round"/></svg>