<svg viewBox="0 0 96 96" fill="none" xmlns="http://www.w3.org/2000/svg"><path d="M71.25 18.84a7.75 7.75 0 10-7.81 7.66 7.72 7.72 0 007.81-7.66v0z" stroke="currentColor" stroke-width="2" stroke-linecap="round" stroke-linejoin="round"/><path d="M29.85 60.54C28 61.24 23 62 14.84 62.8a4.13 4.13 0 00-3.6 4.65A4.19 4.19 0 0016 71c7.77-.66 13.18-1.48 16.12-2.46 3.83-1.27 8.81-4.46 12.66-8 4.3 1.64 10.68 6 12.81 8.57 1.26 1.55 3.55 6 6.92 13.51A4.14 4.14 0 0070 84.57 4.19 4.19 0 0071.89 79c-3.1-7.16-5.6-12-7.46-14.49-2.43-3.24-7-6.94-11.61-9.46a359.69 359.69 0 018-15.42c8.89 2.9 17.29-.51 23.23-9.38a4 4 0 00-1.24-5.83A4.061 4.061 0 0077 25.59c-4.3 6.72-10.77 7.93-17.92 3.41-.17-.11-.61-.35-1.4-.78l-.45-.22-.46-.26-.58-.32c-10.76-6.75-21.68-4.24-29 6.67a3.76 3.76 0 001.23 5.58 3.999 3.999 0 005.68-1.18 11.29 11.29 0 0114-5.43c-2.21 4.07-7.73 15.17-8.3 16.66l-.08.21c-2.13 4.13-2.42 7.59-9.87 10.61z" stroke="currentColor" stroke-width="2" stroke-miterlimit="10"/></svg>