<svg viewBox="0 0 96 96" fill="none" xmlns="http://www.w3.org/2000/svg"><path d="M28.62 64.46h34.52m-32.66 5.31h30.79-30.79zm-8.49 8.49a8.49 8.49 0 100-16.98 8.49 8.49 0 000 16.98z" stroke="currentColor" stroke-width="2" stroke-linecap="round" stroke-linejoin="round"/><path d="M21.99 72.96a3.19 3.19 0 100-6.38 3.19 3.19 0 000 6.38zm47.78 5.3a8.49 8.49 0 100-16.98 8.49 8.49 0 000 16.98z" stroke="currentColor" stroke-width="2" stroke-linecap="round" stroke-linejoin="round"/><path d="M69.77 72.96a3.19 3.19 0 100-6.38 3.19 3.19 0 000 6.38zm8.49-3.19h10.09A2.66 2.66 0 0091 67.11a2.65 2.65 0 00-2.65-2.65h-12m-62.86 5.31H7.65A2.66 2.66 0 015 67.11a2.65 2.65 0 012.65-2.65h7.71m73.52 0V50.65l-5.69-18.49a12.9 12.9 0 00-12.34-9.11H57v41.41" stroke="currentColor" stroke-width="2" stroke-linecap="round" stroke-linejoin="round"/><path d="M7.12 64.46V23.05a5.31 5.31 0 015.31-5.31h39.29A5.3 5.3 0 0157 23.05m31.88 29.73h-3.19A3.181 3.181 0 0082.51 56a3.18 3.18 0 003.18 3.19h3.19m-2.29-13.84h-17a5.1 5.1 0 01-5.09-5.1v-8.71a2.119 2.119 0 012.12-2.12H82l4.59 15.93z" stroke="currentColor" stroke-width="2" stroke-linecap="round" stroke-linejoin="round"/><path d="M11.89 48.62V33.25h5.29c.8-.005 1.597.076 2.38.24a5.359 5.359 0 011.93.83 4 4 0 011.31 1.53c.34.735.505 1.54.48 2.35a5.3 5.3 0 01-.48 2.33 4.48 4.48 0 01-1.31 1.63 5.59 5.59 0 01-1.91.94 8.214 8.214 0 01-2.31.31h-1.91v5.21h-3.47zm3.47-8h1.7c1.88 0 2.83-.82 2.83-2.45a1.87 1.87 0 00-.76-1.7A3.93 3.93 0 0017 36h-1.6l-.04 4.62zM32 48.9a5.86 5.86 0 01-4.58-1.76c-1.05-1.19-1.58-3.06-1.58-5.64v-8.25h3.49v8.6A5.34 5.34 0 0030 45a2.32 2.32 0 002 .9 2.4 2.4 0 002-.9 5.25 5.25 0 00.71-3.16v-8.6h3.35v8.26c0 2.58-.52 4.45-1.55 5.64A5.69 5.69 0 0132 48.9zm9.63-.28V33.25h5.26a13.01 13.01 0 012.23.17c.63.101 1.236.315 1.79.63.495.283.908.69 1.2 1.18a3.53 3.53 0 01.44 1.84 3.67 3.67 0 01-.15 1 3.612 3.612 0 01-.4 1 3.497 3.497 0 01-.62.8 2.16 2.16 0 01-.84.52v.1c.383.089.75.234 1.09.43.327.2.62.449.87.74.258.312.458.667.59 1.05a4.68 4.68 0 01-.25 3.41 4 4 0 01-1.27 1.4 5.859 5.859 0 01-1.9.83 9.63 9.63 0 01-2.34.27h-5.7zm3.46-9.22h1.63a2.8 2.8 0 001.85-.5 1.64 1.64 0 00.58-1.32 1.4 1.4 0 00-.59-1.27 3.44 3.44 0 00-1.81-.38h-1.66v3.47zm0 6.53h2c1.9 0 2.86-.69 2.86-2.07a1.57 1.57 0 00-.71-1.45 4.19 4.19 0 00-2.19-.41h-2l.04 3.93z" fill="currentColor"/></svg>