<svg viewBox="0 0 96 96" fill="none" xmlns="http://www.w3.org/2000/svg"><path d="M48 75.44l1 1a4.74 4.74 0 006.45.47 5 5 0 00.34-7.17 4.61 4.61 0 006.65 0 5 5 0 000-6.85 4.61 4.61 0 006.95-.35 5.11 5.11 0 00-.45-6.65L57.6 44.23m22.14 0L63.5 27.48a2.21 2.21 0 010-3l3.69-3.81a2.049 2.049 0 013 0l16.2 16.71a2.21 2.21 0 010 3l-3.69 3.85a2.05 2.05 0 01-2.96 0v0zM9.61 37.38l16.24-16.75a2.049 2.049 0 013 0l3.69 3.81a2.21 2.21 0 010 3L16.26 44.23a2.05 2.05 0 01-3 0l-3.65-3.81a2.21 2.21 0 010-3.04v0z" stroke="currentColor" stroke-width="2" stroke-linecap="round" stroke-linejoin="round"/><path d="M48 34.33c-3.41-3.51-8.07-4.13-12.55-2.28l-3.69-3.81L17 43.47l11.07 11.42" stroke="currentColor" stroke-width="2" stroke-linecap="round" stroke-linejoin="round"/><path d="M27 56l1.48-1.52a4.58 4.58 0 016.64 0 4.94 4.94 0 010 6.85l-1.52 1.55a4.599 4.599 0 01-6.64 0A5 5 0 0127 56v0z" stroke="currentColor" stroke-width="2" stroke-linecap="round" stroke-linejoin="round"/><path d="M33.6 62.88l1.48-1.52a4.58 4.58 0 016.64 0 4.94 4.94 0 010 6.85l-1.47 1.52a4.608 4.608 0 01-6.65 0 5 5 0 010-6.85v0z" stroke="currentColor" stroke-width="2" stroke-linecap="round" stroke-linejoin="round"/><path d="M40.25 69.73l1.47-1.52a4.608 4.608 0 016.65 0 5 5 0 010 6.85l-1.48 1.52a4.599 4.599 0 01-6.64 0 4.94 4.94 0 010-6.85v0zM79 43.47L64.24 28.24l-3.69 3.81a11.78 11.78 0 00-13 2.75l-7.16 7.38a5.1 5.1 0 00-.45 6.64 4.6 4.6 0 007 .36l5.54-5.71a3.07 3.07 0 014.43 0l11.02 11.42L79 43.47z" stroke="currentColor" stroke-width="2" stroke-linecap="round" stroke-linejoin="round"/></svg>