<svg viewBox="0 0 96 96" fill="none" xmlns="http://www.w3.org/2000/svg"><path d="M74.35 26.73v16.65M91 30.43H57.71 91zM72.44 60.02h3.82a1.79 1.79 0 001.79-1.79V45.16a1.79 1.79 0 00-1.79-1.79h-3.82a1.79 1.79 0 00-1.79 1.79v13.07c0 .989.801 1.79 1.79 1.79zM21.65 26.73v16.65M5 30.43h33.29H5zm18.56 12.95h-3.82a1.79 1.79 0 00-1.79 1.79v13.07c0 .989.801 1.79 1.79 1.79h3.82a1.79 1.79 0 001.79-1.79V45.17a1.79 1.79 0 00-1.79-1.79zm36.92 24.04c0-4.07-3.33-11.1-7.39-11.1m9.24 11.16h-3.7m-23.11-.06c0-4.07 3.33-11.1 7.39-11.1m-9.24 11.16h3.7" stroke="currentColor" stroke-width="2" stroke-linecap="round" stroke-linejoin="round"/><path d="M60.51 47.08H35.49a.9.9 0 00-.9.9v7.45a.9.9 0 00.9.9h25.02a.9.9 0 00.9-.9v-7.45a.9.9 0 00-.9-.9zM48 69.27a3.7 3.7 0 100-7.4 3.7 3.7 0 000 7.4zM61.41 51.7h9.25M48 56.32v5.55-5.55zM25.34 51.7h9.25-9.25z" stroke="currentColor" stroke-width="2" stroke-linecap="round" stroke-linejoin="round"/></svg>