<svg viewBox="0 0 96 96" fill="none" xmlns="http://www.w3.org/2000/svg"><path d="M41.5 53.4a2.6 2.6 0 11-2.6 2.6 2.61 2.61 0 012.6-2.6zm-8 11a2.6 2.6 0 11-2.6 2.6 2.61 2.61 0 012.6-2.6v0zm16 0a2.6 2.6 0 11-2.6 2.6 2.61 2.61 0 012.6-2.6z" stroke="currentColor" stroke-width="2" stroke-miterlimit="10"/><path d="M22.21 63.93c1 13.81 8.24 16.64 18.84 16.64 7.29 0 13.8-3.56 17-9.3v-.08c.47-.76 1.72-2.72 3.17-5 2.65-4.16 6.65-10.44 7.11-11.31a16 16 0 013.77-4.94 7 7 0 001.59-2.13 2.57 2.57 0 00-.17-1.6.66.66 0 00-.67-.33 9.68 9.68 0 00-5 1.67 18.53 18.53 0 00-5.58 6.2c-.69 1.19-.86 2-2.14 2.23a2 2 0 01-2.33-2V25.24c0-1.47-2.19-1.66-3.67-1.66a2.66 2.66 0 00-2.66 2.66v18.21a2.61 2.61 0 01-2.61 2.6c-1.43 0-1.6-1.17-1.6-2.6V17.1c0-1.47-2.19-1.67-3.67-1.67A2.67 2.67 0 0041 18.1v26.35a2.61 2.61 0 01-2.61 2.6c-1.43 0-1.6-1.17-1.6-2.6V22.37c0-1.15-1.93-1.09-3.08-1.09a2.09 2.09 0 00-2.08 2.09v23.42a2.6 2.6 0 01-2.63 2.6c-1.43 0-1.6-1.16-1.6-2.6V31.15c0-1.15-1.94-1.08-3.09-1.08a2.08 2.08 0 00-2.08 2.08l-.02 31.78z" stroke="currentColor" stroke-width="2" stroke-linecap="round" stroke-linejoin="round"/></svg>