<svg viewBox="0 0 96 96" fill="none" xmlns="http://www.w3.org/2000/svg"><path d="M30.24 67h32.52M32 72h29-29zm-8 8a8 8 0 100-16 8 8 0 000 16z" stroke="currentColor" stroke-width="2" stroke-linecap="round" stroke-linejoin="round"/><path d="M24 75a3 3 0 100-6 3 3 0 000 6zm45 5a8 8 0 100-16 8 8 0 000 16z" stroke="currentColor" stroke-width="2" stroke-linecap="round" stroke-linejoin="round"/><path d="M69 75a3 3 0 100-6 3 3 0 000 6zm18-8V54l-5.36-17.42A12.15 12.15 0 0070 28H57v39m20 5h9.5a2.5 2.5 0 000-5H75.24L77 72zm-61 0h-5.5a2.5 2.5 0 010-5h7.26L16 72z" stroke="currentColor" stroke-width="2" stroke-linecap="round" stroke-linejoin="round"/><path d="M65 54h2M10 67V28a5 5 0 015-5h37a5 5 0 015 5m30 28h-3a3 3 0 000 6h3m-2.15-13h-16A4.801 4.801 0 0164 44.2V36a2 2 0 012-2h14.5l4.35 15z" stroke="currentColor" stroke-width="2" stroke-linecap="round" stroke-linejoin="round"/><path d="M63 28v-1a4 4 0 118 0v1M44 41h-6v-6a1 1 0 00-1-1h-6a1 1 0 00-1 1v6h-6a1 1 0 00-1 1v6a1 1 0 001 1h6v6a1 1 0 001 1h6a1 1 0 001-1v-6h6a1 1 0 001-1v-6a1 1 0 00-1-1z" stroke="currentColor" stroke-width="2" stroke-linecap="round" stroke-linejoin="round"/></svg>