<svg viewBox="0 0 96 96" fill="none" xmlns="http://www.w3.org/2000/svg"><path d="M48.44 11a6.92 6.92 0 10-.337 13.836A6.92 6.92 0 0048.44 11v0z" stroke="currentColor" stroke-width="2" stroke-miterlimit="10"/><path d="M57.9 29H38.66a3.47 3.47 0 00-3.44 2.92l-4 18.29a.901.901 0 000 .43c-.01.16-.01.32 0 .48a3.514 3.514 0 007 .62l2.73-13.58v29a3.51 3.51 0 107 0v-7.11h.84V81.5a3.51 3.51 0 007 0V38.19l2.18 13.59a3.514 3.514 0 007-.63c.01-.163.01-.327 0-.49a.889.889 0 000-.43L61.35 32a3.48 3.48 0 00-3.45-3v0z" stroke="currentColor" stroke-width="2" stroke-linecap="round" stroke-linejoin="round"/></svg>