<svg viewBox="0 0 96 96" fill="none" xmlns="http://www.w3.org/2000/svg"><path d="M55.68 73v-.5h-15.1v18h15.1V73zM35.8 32.85v-.5h-6v6h6v-5.5zm0 13.35v-.5h-6v5.95h6V46.2zm0 13.34v-.5h-6v6h6v-5.5zm15.59-26.69v-.5h-6v6h6v-5.5zm0 13.35v-.5h-6v5.95h6V46.2zm0 13.34v-.5h-6v6h6v-5.5zm15.58-26.69v-.5h-6v6h6v-5.5zm0 13.35v-.5h-6v5.95h6V46.2zm0 13.34v-.5h-6v6h6v-5.5zM39.58 91.5v-20h17.1v20h-17.1zM28.8 39.35v-8h8v8h-8zm0 13.3V44.7h8v7.95h-8zm0 13.39v-8h8v8h-8zm15.59-26.69v-8h8v8h-8zm0 13.3V44.7h8v7.95h-8zm0 13.39v-8h8v8h-8zm15.58-26.69v-8h8v8h-8zm0 13.3V44.7h8v7.95h-8zm0 13.39v-8h8v8h-8z" stroke="currentColor"/><path d="M48.308 5.5h-.015a1.5 1.5 0 00-1.08.48l-.01.01-.009.012a.998.998 0 01-.193.18h0l-.01.007-26.93 20-1.213.901H21a1.5 1.5 0 011.5 1.5V90.5h51.27V28.59a1.5 1.5 0 011.5-1.5h1.889l-1.187-.899-26.25-19.87h0l-.01-.007a1.21 1.21 0 01-.255-.247l-.004-.006-.005-.006a1.5 1.5 0 00-1.14-.555zm-.008-1h.004a2.5 2.5 0 011.95.908l.038.045.046.035 27.614 20.935a1.16 1.16 0 01-1.026 1.667H74.79v62.268a1.15 1.15 0 01-1.15 1.142h-51c-.331 0-.599-.115-.788-.327-.194-.216-.352-.586-.352-1.173V28.09h-2.406a1.16 1.16 0 01-1.027-1.665L46.398 5.402l.043-.033.036-.04A2.42 2.42 0 0148.3 4.5z" stroke="currentColor"/></svg>