<svg viewBox="0 0 96 96" fill="none" xmlns="http://www.w3.org/2000/svg"><path d="M47.63 5v6.76m-4.02 4.92h8l1.25-10.91A17.66 17.66 0 0047.63 5a18 18 0 00-5.23.79l1.21 10.89z" stroke="currentColor" stroke-width="2" stroke-linecap="round" stroke-linejoin="round"/><path d="M28.86 26.94v1.82c0 4.54 2.34 9.72 5.86 12.07m34-18.72H66.3A19 19 0 0047.55 5a18.72 18.72 0 00-18.48 17.11h-2.42v4.62h42.07v-4.62zm-34 4.78v12.77c0 7.79 4.69 14.1 12.89 14.1s12.9-6.31 12.9-14.1V27l-25.79-.11z" stroke="currentColor" stroke-width="2" stroke-linecap="round" stroke-linejoin="round"/><path d="M60.51 40.83a13.84 13.84 0 005.86-11.75v-2.35M39.41 50.94v6.23m16.41-6.23v6.23" stroke="currentColor" stroke-width="2" stroke-linecap="round" stroke-linejoin="round"/><path d="M68.44 86.55l-5.94-.98m-.5 3.96l3.57-21.59a.68.68 0 01.21-.38l2.87-4.25a.66.66 0 011 .21l1.38 4.93a.58.58 0 01.05.39l-3.52 21.61a.66.66 0 01-.76.54l-4.24-.7a.67.67 0 01-.56-.76v0zm9-20.1l-5.97-.98 5.97.98z" stroke="currentColor" stroke-width="2" stroke-miterlimit="10"/><path d="M68.88 84.84l6.33-1a4.75 4.75 0 003.94-4.61v-5.45a15.24 15.24 0 00-13.23-14.89l-10.16-1.67m-16.37 0l-10.16 1.67A15.24 15.24 0 0016 73.78v5.48a4.74 4.74 0 003.94 4.61" stroke="currentColor" stroke-width="2" stroke-linecap="round" stroke-linejoin="round"/><path d="M36.22 57.73l9.56 11.39a2.352 2.352 0 003.59 0l9.55-11.38M26.87 89.55l-.63-3.03m5.83 1.96l-.83-4.04m6.03 2.97l-.62-3.03m5.82 1.96l-.83-4.04m6.03 2.97l-.62-3.03m5.83 1.96l-.84-4.04m6.04 2.97l-.63-3.03m-30.8-57.99h42.07m-3.9 49.02l-43.93 9.33a1.56 1.56 0 00-1.2 1.83l1.55 7.52A1.531 1.531 0 0023.06 91l40.06-8.16 1.7-11.71z" stroke="currentColor" stroke-width="2" stroke-linecap="round" stroke-linejoin="round"/></svg>