<svg width="96" height="96" viewBox="0 0 96 96" fill="none" xmlns="http://www.w3.org/2000/svg">
<path d="M48 76.5C63.1878 76.5 75.5 64.1878 75.5 49C75.5 33.8122 63.1878 21.5 48 21.5C32.8122 21.5 20.5 33.8122 20.5 49C20.5 64.1878 32.8122 76.5 48 76.5Z" stroke="#00008F" stroke-width="2" stroke-miterlimit="10"/>
<path d="M48 81.5C65.9493 81.5 80.5 66.9493 80.5 49C80.5 31.0507 65.9493 16.5 48 16.5C30.0507 16.5 15.5 31.0507 15.5 49C15.5 66.9493 30.0507 81.5 48 81.5Z" stroke="#00008F" stroke-width="2" stroke-miterlimit="10"/>
<path d="M38.55 38.44C38.55 39.1296 38.8239 39.7909 39.3115 40.2785C39.7991 40.7661 40.4604 41.04 41.15 41.04H52.07L35.44 57.68C35.1668 57.9532 34.9502 58.2775 34.8023 58.6343C34.6545 58.9912 34.5784 59.3737 34.5784 59.76C34.5784 60.1463 34.6545 60.5288 34.8023 60.8857C34.9502 61.2426 35.1668 61.5669 35.44 61.84C35.7131 62.1132 36.0374 62.3298 36.3943 62.4777C36.7512 62.6255 37.1337 62.7016 37.52 62.7016C37.9063 62.7016 38.2888 62.6255 38.6457 62.4777C39.0026 62.3298 39.3268 62.1132 39.6 61.84L56.23 45.2V56.12C56.23 56.8096 56.5039 57.4709 56.9915 57.9585C57.4791 58.4461 58.1404 58.72 58.83 58.72C59.5196 58.72 60.1809 58.4461 60.6685 57.9585C61.1561 57.4709 61.43 56.8096 61.43 56.12V38.44C61.43 37.7505 61.1561 37.0891 60.6685 36.6015C60.1809 36.114 59.5196 35.84 58.83 35.84H41.15C40.4612 35.8427 39.8015 36.1174 39.3144 36.6045C38.8274 37.0915 38.5526 37.7513 38.55 38.44Z" stroke="#00008F" stroke-width="2" stroke-linecap="round" stroke-linejoin="round"/>
</svg>
