<svg viewBox="0 0 96 96" fill="none" xmlns="http://www.w3.org/2000/svg"><path d="M48 76.5c15.188 0 27.5-12.312 27.5-27.5S63.188 21.5 48 21.5 20.5 33.812 20.5 49 32.812 76.5 48 76.5z" stroke="currentColor" stroke-width="2" stroke-miterlimit="10"/><path d="M48 81.5c17.95 0 32.5-14.55 32.5-32.5S65.95 16.5 48 16.5 15.5 31.05 15.5 49 30.05 81.5 48 81.5z" stroke="currentColor" stroke-width="2" stroke-miterlimit="10"/><path d="M38.55 38.44a2.6 2.6 0 002.6 2.6h10.92L35.44 57.68a2.943 2.943 0 00.954 4.798 2.942 2.942 0 003.206-.638L56.23 45.2v10.92a2.6 2.6 0 105.2 0V38.44a2.6 2.6 0 00-2.6-2.6H41.15a2.61 2.61 0 00-2.6 2.6z" stroke="currentColor" stroke-width="2" stroke-linecap="round" stroke-linejoin="round"/></svg>