<svg viewBox="0 0 96 96" fill="none" xmlns="http://www.w3.org/2000/svg"><path d="M48 70c15.464 0 28-12.536 28-28S63.464 14 48 14 20 26.536 20 42s12.536 28 28 28z" stroke="currentColor" stroke-width="2" stroke-linecap="round" stroke-linejoin="round"/><path d="M48 64c12.15 0 22-9.85 22-22s-9.85-22-22-22-22 9.85-22 22 9.85 22 22 22zm-3-30v18-18zm6-4v22-22zM40 52h16-16zm11-22l-10 6 10-6zm1.56 39.63l6.92 16 4.74-9.69 10.31 3.16-7.26-16.79a28 28 0 01-14.71 7.32v0zm-23.24-6.78l-7.11 16.4 9.84-3.36 4.28 9.49 6.85-15.8a27.91 27.91 0 01-13.86-6.73v0z" stroke="currentColor" stroke-width="2" stroke-linecap="round" stroke-linejoin="round"/></svg>