<svg width="96" height="96" viewBox="0 0 96 96" fill="none" xmlns="http://www.w3.org/2000/svg">
<path d="M48 70C63.464 70 76 57.464 76 42C76 26.536 63.464 14 48 14C32.536 14 20 26.536 20 42C20 57.464 32.536 70 48 70Z" stroke="#00008F" stroke-width="2" stroke-linecap="round" stroke-linejoin="round"/>
<path d="M48 64C60.1503 64 70 54.1503 70 42C70 29.8497 60.1503 20 48 20C35.8497 20 26 29.8497 26 42C26 54.1503 35.8497 64 48 64Z" stroke="#00008F" stroke-width="2" stroke-linecap="round" stroke-linejoin="round"/>
<path d="M45 34V52V34ZM51 30V52V30ZM40 52H56H40ZM51 30L41 36L51 30ZM52.56 69.63L59.48 85.63L64.22 75.94L74.53 79.1L67.27 62.31C63.209 66.1661 58.085 68.7159 52.56 69.63V69.63ZM29.32 62.85L22.21 79.25L32.05 75.89L36.33 85.38L43.18 69.58C38.02 68.6816 33.217 66.3494 29.32 62.85V62.85Z" stroke="#00008F" stroke-width="2" stroke-linecap="round" stroke-linejoin="round"/>
</svg>
