<svg viewBox="0 0 80 80" xmlns="http://www.w3.org/2000/svg" xmlns:xlink="http://www.w3.org/1999/xlink"><defs><path id="a" d="M0 80h80V0H0z"/></defs><g fill-rule="evenodd"><mask id="b" fill="#fff"><use xlink:href="#a"/></mask><path fill="#00008F" mask="url(#b)" d="M0 80h80V0H0z"/><path fill="#FF1721" mask="url(#b)" d="M49.592 39L80 0h-4.491L45 39h4.592"/><path d="M33.304 66.512l2.182-3.046c-.201-.22-1.43-4.007-1.43-4.007l-2.11 2.781 1.358 4.272zM21.373 47.735c-.85 1.859-5.855 8.051-5.855 8.051h7.925s-1.535-4.809-1.802-5.892c-.214-.863-.156-1.973-.156-2.107 0-.098-.02-.258-.112-.052zm30.45 0c-.85 1.859-5.855 8.051-5.855 8.051h7.926s-1.537-4.809-1.805-5.892c-.213-.863-.156-1.973-.156-2.107 0-.098-.017-.258-.11-.052zm8.81 9.28C62.018 60.948 64.868 71.185 66 72h-7.482s-.028-1.512-.352-2.685c-.322-1.17-3.029-10.02-3.029-10.02H43.252l-1.868 2.693s2.244 7.141 2.384 7.492c.242.63 1.313 2.52 1.313 2.52h-7.17s-.186-1.09-.256-1.545c-.056-.367-.68-2.376-.68-2.376s-1.625 1.81-2.068 2.65A26.333 26.333 0 0 0 34.262 72h-5.61s-.187-1.09-.256-1.545c-.055-.367-.741-2.537-.741-2.537s-1.57 1.938-2.018 2.776c-.444.839-.636 1.306-.636 1.306h-5.547s1.567-1.517 2.115-2.169c.925-1.105 4.367-5.679 4.367-5.679l-1.38-4.857H12.761s-6.725 8.983-6.99 9.26C5.503 68.83 3.543 71.69 3.5 72H0v-2.262c.067-.07.115-.12.138-.136.108-.08 5.099-6.378 9.683-12.587 4.12-5.415 7.985-10.681 8.324-11.183C18.967 44.62 20.15 42 20.15 42h6.098s.189 2.41.366 2.994c.16.517 3.874 12.908 3.962 13.042l2.054-2.67-3.511-10.988S28.296 42.31 28.028 42h7.123s-.056 1.063.232 1.969c.29.906 1.817 6.507 1.817 6.507s4.858-6.19 5.142-6.635c.534-.746.6-1.841.6-1.841h5.935s-1.087.807-2.99 3.256c-.64.823-6.908 8.92-6.908 8.92s.547 1.895.814 2.839c.072.27.123.454.123.473 0 .009.138-.163.376-.473 1.617-2.083 8.972-11.887 9.417-12.727.36-.678.889-1.449 1.199-2.288h5.79s.134 1.758.31 2.244l3.626 12.77z" fill="#FFF" mask="url(#b)"/></g></svg>
