<svg viewBox="0 0 96 96" fill="none" xmlns="http://www.w3.org/2000/svg"><path d="M34.11 74.27v4.6m34.5-48.23A21.21 21.21 0 0048 15.5a21.23 21.23 0 00-20.53 15.07m41.14.07c.254-.05.511-.08.77-.09A5.92 5.92 0 0175 36.71a5.92 5.92 0 01-5.62 6.16c-.4 0-.8-.048-1.19-.14m.42-12.09a19.36 19.36 0 01-.42 12.09m-40.29.07a21.61 21.61 0 0040.29-.07" stroke="currentColor" stroke-width="2" stroke-linecap="round" stroke-linejoin="round"/><path d="M27.31 42.87c.198-.009.395-.032.59-.07a19.34 19.34 0 01-.43-12.23h-.16m29.51-8.23c-2.77 0-5-3.45-5-6.47m2.49 10.58c-4.85 0-8.79-5.29-8.79-10.58M24.33 76.94l12.84 2.53a61.279 61.279 0 0022.35 0l12.84-2.53m-9.78-2.67v4.6" stroke="currentColor" stroke-width="2" stroke-linecap="round" stroke-linejoin="round"/><path d="M24.33 76.94c0-13.26 10.75-20.46 24-20.46s24 7.2 24 20.46M54.57 57.37a6.23 6.23 0 11-12.45 0M27.81 42.73c-.39.092-.79.14-1.19.14A5.92 5.92 0 0121 36.71a5.92 5.92 0 015.65-6.16c.259.01.516.04.77.09" stroke="currentColor" stroke-width="2" stroke-linecap="round" stroke-linejoin="round"/></svg>