<svg viewBox="0 0 96 96" fill="none" xmlns="http://www.w3.org/2000/svg"><path d="M28.73 23.93l6.36 7.24M51.2 30a6.42 6.42 0 00-3.06.82c-4 2.15-8 4.37-12 6.49a5.6 5.6 0 00-3.27 5.4v31.77a5.189 5.189 0 00.51 2.3 4.14 4.14 0 003.72 2.14 4.55 4.55 0 001.09-.14 4.23 4.23 0 003.08-4.2V48.76A2.25 2.25 0 0142.1 47c2.61-1.63 5.28-3.15 8.2-4.84a.48.48 0 01.26-.07.54.54 0 01.53.54v4a2.75 2.75 0 00.47 1.6c2 2.25 4 4.45 6.08 6.61a2.54 2.54 0 001.84.82 2.7 2.7 0 001.77-.7 2.34 2.34 0 00.27-3.53c-1.34-1.67-2.8-3.25-4.07-5a4.6 4.6 0 01-.9-2.42c-.11-2.78 0-5.56 0-8.34-.07-3.41-2.44-5.67-5.35-5.67v0zm10.63-10.14A5.57 5.57 0 1061.71 31a5.53 5.53 0 005.51-5.5 5.41 5.41 0 00-5.33-5.61l-.06-.03zm-28.85-2.02l5.24 8.99-5.24-8.99zm7.41-.7l3.05 8.83-3.05-8.83z" stroke="currentColor" stroke-width="2" stroke-linecap="round" stroke-linejoin="round"/></svg>