<svg viewBox="0 0 96 96" fill="none" xmlns="http://www.w3.org/2000/svg"><path d="M19 73v-5h58v5m-53-5l1-30-1 30zm7-30l1 30-1-30zm20 0l1 30-1-30zm-7 30l1-30-1 30zm4-40a3 3 0 100-6 3 3 0 000 6z" stroke="currentColor" stroke-width="2" stroke-linecap="round" stroke-linejoin="round"/><path d="M19 33v5h40m-40-5l29-17 13.05 7.65-3 9.35H19zm53 35l-.9-23.01m-6.08-1.45L64 68m-49 5h66v5H15v-5z" stroke="currentColor" stroke-width="2" stroke-linecap="round" stroke-linejoin="round"/><path d="M71 45c7.18 0 13-5.82 13-13s-5.82-13-13-13-13 5.82-13 13 5.82 13 13 13z" stroke="currentColor" stroke-width="2" stroke-linecap="round" stroke-linejoin="round"/><path d="M66 37h10m-5-6v10-10zm-5-6l5 6 5-6H66zm0 7h10-10z" stroke="currentColor" stroke-width="2" stroke-linecap="round" stroke-linejoin="round"/></svg>