<svg viewBox="0 0 96 96" fill="none" xmlns="http://www.w3.org/2000/svg"><path d="M19 73v-5h58v5m-53-5l1-30-1 30zm7-30l1 30-1-30zm20 0l1 30-1-30zm-7 30l1-30-1 30zm4-40a3 3 0 100-6 3 3 0 000 6zm-29 5v5h40M15 73h66v5H15v-5zm56-28c7.18 0 13-5.82 13-13s-5.82-13-13-13-13 5.82-13 13 5.82 13 13 13z" stroke="currentColor" stroke-width="2" stroke-linecap="round" stroke-linejoin="round"/><path d="M67.07 36.38A3.84 3.84 0 0071 39c2.21 0 4-1.41 4-3.15a2 2 0 00-.18-.8 3.19 3.19 0 00-1.2-1.33L71 32l-2.62-1.72a3.19 3.19 0 01-1.2-1.28 2 2 0 01-.18-.8c0-1.79 1.79-3.2 4-3.2a3.83 3.83 0 013.93 2.63M58 32a13 13 0 013-8.35L48 16 19 33h39.05c-.05-.33-.05-.66-.05-1zm14 36l-.9-23.01L72 68zm-6.98-24.46L64 68l1.02-24.46zM71 23v18-18z" stroke="currentColor" stroke-width="2" stroke-linecap="round" stroke-linejoin="round"/></svg>