<svg viewBox="0 0 96 96" fill="none" xmlns="http://www.w3.org/2000/svg"><path d="M19 73v-5h58v5m-53-5l1-30-1 30zm7-30l1 30-1-30zm20 0l1 30-1-30zm-7 30l1-30-1 30zm4-40a3 3 0 100-6 3 3 0 000 6zm-29 5v5h40.29M15 73h66v5H15v-5z" stroke="currentColor" stroke-width="2" stroke-linecap="round" stroke-linejoin="round"/><path d="M71 45c7.18 0 13-5.82 13-13s-5.82-13-13-13-13 5.82-13 13 5.82 13 13 13z" stroke="currentColor" stroke-width="2" stroke-linecap="round" stroke-linejoin="round"/><path d="M64 30h7m-7 4h7m4-7.44A4.841 4.841 0 0071.54 25C68.48 25 66 28.13 66 32s2.48 7 5.54 7A4.84 4.84 0 0075 37.44M72 68l-.9-23.01m-6.08-1.44L64 68m-6-36a13 13 0 013-8.35L48 16 19 33h39.05c-.05-.33-.05-.66-.05-1z" stroke="currentColor" stroke-width="2" stroke-linecap="round" stroke-linejoin="round"/></svg>