<svg width="96" height="96" viewBox="0 0 96 96" fill="none" xmlns="http://www.w3.org/2000/svg">
<path d="M19 73V68H77V73M24 68L25 38L24 68ZM31 38L32 68L31 38ZM51 38L52 68L51 38ZM44 68L45 38L44 68Z" stroke="#00008F" stroke-width="2" stroke-linecap="round" stroke-linejoin="round"/>
<path d="M48 28C49.6569 28 51 26.6569 51 25C51 23.3431 49.6569 22 48 22C46.3431 22 45 23.3431 45 25C45 26.6569 46.3431 28 48 28Z" stroke="#00008F" stroke-width="2" stroke-linecap="round" stroke-linejoin="round"/>
<path d="M19 33V38H59M19 33L48 16L61 23.65C59.0517 25.9954 57.9898 28.951 58 32C58 32.34 58 32.67 58.05 33H19ZM72 68L71.1 44.99M65.02 43.54L64 68M15 73H81V78H15V73Z" stroke="#00008F" stroke-width="2" stroke-linecap="round" stroke-linejoin="round"/>
<path d="M71 45C78.1797 45 84 39.1797 84 32C84 24.8203 78.1797 19 71 19C63.8203 19 58 24.8203 58 32C58 39.1797 63.8203 45 71 45Z" stroke="#00008F" stroke-width="2" stroke-linecap="round" stroke-linejoin="round"/>
<path d="M75 38H66L66.27 37.6C67.3976 35.9054 67.9995 33.9155 68 31.88V28C68 27.2044 68.3161 26.4413 68.8787 25.8787C69.4413 25.3161 70.2044 25 71 25C71.7956 25 72.5587 25.3161 73.1213 25.8787C73.6839 26.4413 74 27.2044 74 28M66 32H72" stroke="#00008F" stroke-width="2" stroke-linecap="round" stroke-linejoin="round"/>
</svg>
