<svg viewBox="0 0 96 96" fill="none" xmlns="http://www.w3.org/2000/svg"><path d="M19 73v-5h58v5m-53-5l1-30-1 30zm7-30l1 30-1-30zm20 0l1 30-1-30zm-7 30l1-30-1 30zm4-40a3 3 0 100-6 3 3 0 000 6z" stroke="currentColor" stroke-width="2" stroke-linecap="round" stroke-linejoin="round"/><path d="M19 33v5h40m-40-5l29-17 13 7.65A13 13 0 0058 32c0 .34 0 .67.05 1H19zm53 35l-.9-23.01m-6.08-1.45L64 68m-49 5h66v5H15v-5z" stroke="currentColor" stroke-width="2" stroke-linecap="round" stroke-linejoin="round"/><path d="M71 45c7.18 0 13-5.82 13-13s-5.82-13-13-13-13 5.82-13 13 5.82 13 13 13z" stroke="currentColor" stroke-width="2" stroke-linecap="round" stroke-linejoin="round"/><path d="M75 38h-9l.27-.4A10.33 10.33 0 0068 31.88V28a3 3 0 016 0m-8 4h6" stroke="currentColor" stroke-width="2" stroke-linecap="round" stroke-linejoin="round"/></svg>