<svg viewBox="0 0 96 96" fill="none" xmlns="http://www.w3.org/2000/svg"><path d="M75 35H11a1 1 0 00-1 1v34a1 1 0 001 1h64a1 1 0 001-1V36a1 1 0 00-1-1z" stroke="currentColor" stroke-width="2" stroke-linecap="round" stroke-linejoin="round"/><path d="M15 35v-4a1 1 0 011-1h64a1 1 0 011 1v34a1 1 0 01-1 1h-4" stroke="currentColor" stroke-width="2" stroke-linecap="round" stroke-linejoin="round"/><path d="M20 30v-4a1 1 0 011-1h64a1 1 0 011 1v34a1 1 0 01-1 1h-4" stroke="currentColor" stroke-width="2" stroke-linecap="round" stroke-linejoin="round"/><path d="M25 53h-4m46-13H19a4 4 0 01-4 4v18a4 4 0 014 4h48a4 4 0 014-4V44a4 4 0 01-4-4zm-2 13h-4 4z" stroke="currentColor" stroke-width="2" stroke-linecap="round" stroke-linejoin="round"/><path d="M43 66c7.18 0 13-5.82 13-13s-5.82-13-13-13-13 5.82-13 13 5.82 13 13 13z" stroke="currentColor" stroke-width="2" stroke-linecap="round" stroke-linejoin="round"/><path d="M38 58h10m-5-6v10-10zm-5-6l5 6 5-6H38zm0 7h10-10z" stroke="currentColor" stroke-width="2" stroke-linecap="round" stroke-linejoin="round"/></svg>