<svg width="96" height="96" viewBox="0 0 96 96" fill="none" xmlns="http://www.w3.org/2000/svg">
<path d="M71.26 21.57C71.8205 21.5727 72.3572 21.7972 72.7526 22.1945C73.148 22.5918 73.37 23.1295 73.37 23.69V82.89C73.3674 83.4488 73.1442 83.984 72.7491 84.3791C72.354 84.7743 71.8188 84.9974 71.26 85H27.91C26.5087 84.9974 25.1658 84.4389 24.1759 83.4471C23.186 82.4553 22.63 81.1113 22.63 79.71V16.29M32.8 48H63.2H32.8ZM41.51 40.6H56.49H41.51Z" stroke="#00008F" stroke-width="2" stroke-linecap="round" stroke-linejoin="round"/>
<path d="M71.85 21.57H27.91C26.5105 21.5674 25.169 21.0102 24.1794 20.0206C23.1898 19.031 22.6326 17.6895 22.63 16.29C22.63 14.8887 23.186 13.5447 24.1759 12.5529C25.1658 11.5612 26.5087 11.0026 27.91 11H66C65.8311 13.1571 66.298 15.3163 67.343 17.2109C68.3881 19.1054 69.9654 20.6522 71.88 21.66" stroke="#00008F" stroke-width="2" stroke-linecap="round" stroke-linejoin="round"/>
</svg>
