<svg viewBox="0 0 96 96" fill="none" xmlns="http://www.w3.org/2000/svg"><path d="M32.15 48.2a17 17 0 0031.78-.06m-32.44-9.59a4.88 4.88 0 00.2 9.7c.153.01.307.01.46 0-.44-1.2-.58-12.22-.74-18.36" stroke="currentColor" stroke-width="2" stroke-linecap="round" stroke-linejoin="round"/><path d="M64.68 32.9a1.78 1.78 0 001-1.59V20.19c0-.63-4.26-7.25-18.31-7.25-15.56 0-19.22 18.31-19.22 18.31a21.405 21.405 0 013.13-1.44m33.23 8.74a4.88 4.88 0 01-.2 9.7 3.53 3.53 0 01-.46 0c.39-1.06.67-9.13.83-15.33l-.17 5.63z" stroke="currentColor" stroke-width="2" stroke-linecap="round" stroke-linejoin="round"/><path d="M31.26 29.81a23.34 23.34 0 0116.09-.39 15.08 15.08 0 0011.91-.69v2.58A1.77 1.77 0 0061 33.08h2.9c.27-.003.536-.064.78-.18M42.9 23c-8.92-.72-14.37 7.61-14.37 7.61m5.24 46.23v4.6M24 79.51L36.83 82a61.229 61.229 0 0022.34 0L72 79.51m-9.77-2.67v4.6" stroke="currentColor" stroke-width="2" stroke-linecap="round" stroke-linejoin="round"/><path d="M24 79.51c0-13.27 10.76-20.46 24-20.46s24 7.19 24 20.46M54.23 59.94a6.23 6.23 0 01-12.46 0" stroke="currentColor" stroke-width="2" stroke-linecap="round" stroke-linejoin="round"/></svg>