<svg viewBox="0 0 96 96" fill="none" xmlns="http://www.w3.org/2000/svg"><path d="M30.24 67h32.52M32 72h29-29zm-8 8a8 8 0 100-16 8 8 0 000 16z" stroke="currentColor" stroke-width="2" stroke-linecap="round" stroke-linejoin="round"/><path d="M24 75a3 3 0 100-6 3 3 0 000 6zm45 5a8 8 0 100-16 8 8 0 000 16z" stroke="currentColor" stroke-width="2" stroke-linecap="round" stroke-linejoin="round"/><path d="M69 75a3 3 0 100-6 3 3 0 000 6zm8-3h9.5a2.5 2.5 0 000-5H75.24M16 72h-5.5a2.5 2.5 0 010-5h7.26M87 67V54l-7.23-28a4 4 0 00-3.87-3H61a4 4 0 00-4 4v40" stroke="currentColor" stroke-width="2" stroke-linecap="round" stroke-linejoin="round"/><path d="M65 52h2m-10 6H13a3 3 0 00-3 3v6m10-51l20 42h13L27.47 18.34A5.002 5.002 0 0023.24 16H20zm0 0v25a4 4 0 11-3.46 6m68.65 0H65V34a4 4 0 014-4h11.81l4.38 17zM87 56h-3a3 3 0 000 6h3v-6z" stroke="currentColor" stroke-width="2" stroke-linecap="round" stroke-linejoin="round"/></svg>