<svg viewBox="0 0 96 96" fill="none" xmlns="http://www.w3.org/2000/svg"><path d="M41 57H8m33 5h-7m-9 15c4.41 0 7-10 7-10M22 77h22" stroke="currentColor" stroke-width="2" stroke-linecap="round" stroke-linejoin="round"/><path d="M41 67H12a4 4 0 01-4-4V24a4 4 0 014-4h52a4 4 0 014 4v3" stroke="currentColor" stroke-width="2" stroke-linecap="round" stroke-linejoin="round"/><path d="M70 77H44a3 3 0 01-3-3V30a3 3 0 013-3h28a3 3 0 013 3v8m-7 29H41m34-34H41m21 39h-8m34-3H68m20-26H68m11 30h-2" stroke="currentColor" stroke-width="2" stroke-linecap="round" stroke-linejoin="round"/><path d="M86 38H70a2 2 0 00-2 2v35a2 2 0 002 2h16a2 2 0 002-2V40a2 2 0 00-2-2z" stroke="currentColor" stroke-width="2" stroke-linecap="round" stroke-linejoin="round"/></svg>