<svg width="96" height="96" viewBox="0 0 96 96" fill="none" xmlns="http://www.w3.org/2000/svg">
<path d="M14 15L42 40L32 46H28L6 37M72 18L51 43L49 38L52 12L72 18ZM40 14L43 26L39 30L23 23L40 14Z" stroke="#00008F" stroke-width="2" stroke-linecap="round" stroke-linejoin="round"/>
<path d="M50.36 26.1901L57.76 34.9501M41.8 21.1801L46 23.0001L50.86 21.8701M17.75 41.8101L27.47 65.3801M32.42 60.9201L41.76 64.4801M34.53 44.4801L39 55.0001L9 82.0001L34.53 44.4801ZM32 84.0001L43 62.0001L51 53.0001L54 65.0001L78 81.0001L32 84.0001ZM71 60.0001L62 53.0001L60 47.0001L65 41.0001L85 51.0001L71 60.0001ZM60 32.2901L59 42.0001L90 36.0001L60 32.2901Z" stroke="#00008F" stroke-width="2" stroke-linecap="round" stroke-linejoin="round"/>
<path d="M64.21 71.81L58 61L59 59L68.49 58.05" stroke="#00008F" stroke-width="2" stroke-linecap="round" stroke-linejoin="round"/>
</svg>
