<svg viewBox="0 0 96 96" fill="none" xmlns="http://www.w3.org/2000/svg"><path d="M62.907 65.74H29.296c-2.398 0-4.671-1.386-5.084-3.17l-6.395-27.455c-.724-3.108 1.4-5.766 4.76-5.766h47.05c3.36 0 5.483 2.645 4.759 5.753L67.99 62.569c-.412 1.785-2.686 3.172-5.084 3.172v0zM82.18 89.83a4.185 4.185 0 01-2.488.172 4.27 4.27 0 01-2.161-1.278 4.466 4.466 0 01-1.108-2.297 4.53 4.53 0 01.32-2.543 4.382 4.382 0 011.64-1.93 4.208 4.208 0 012.407-.67 4.22 4.22 0 012.364.816 4.404 4.404 0 011.524 2.03 4.53 4.53 0 01-.099 3.383 4.416 4.416 0 01-.975 1.404 4.28 4.28 0 01-1.424.914zm2.148-1.501l6.757-5.458-6.757 5.458zM8.438 43.474a4.457 4.457 0 00-1.18 2.262 4.533 4.533 0 00.244 2.553 4.394 4.394 0 001.582 1.984 4.213 4.213 0 002.388.745c.85 0 1.681-.259 2.388-.745a4.393 4.393 0 001.583-1.984c.325-.807.41-1.696.243-2.553a4.457 4.457 0 00-1.178-2.262 4.238 4.238 0 00-3.036-1.29c-1.138 0-2.23.464-3.035 1.29v0zM7.6 44.643L4.915 53.94 7.6 44.643zm3.06-2.62l7.595-4.122-7.595 4.122zm29.577 23.718h11.729v9.49H40.237v-9.49zm-3.46 21.098a9.154 9.154 0 013.46.642V71.275h-6.92v16.206a9.154 9.154 0 013.46-.642v0z" stroke="currentColor" stroke-width="2" stroke-linecap="round" stroke-linejoin="round"/><path d="M36.778 86.838c-3.485 0-6.333 1.747-6.533 3.968v.244H43.31c0-2.324-2.923-4.212-6.532-4.212zm18.648 0a9.152 9.152 0 013.46.642V71.275h-6.92V87.48a9.202 9.202 0 013.46-.642v0z" stroke="currentColor" stroke-width="2" stroke-linecap="round" stroke-linejoin="round"/><path d="M23.126 29.349c0-13.034 10.292-24.399 23.007-24.399 12.715 0 22.945 11.365 22.945 24.399m-13.652 57.49c-3.485 0-6.32 1.746-6.52 3.968a1.603 1.603 0 000 .243H61.97c0-2.324-2.935-4.211-6.545-4.211z" stroke="currentColor" stroke-width="2" stroke-linecap="round" stroke-linejoin="round"/><path d="M34.567 15.968h23.082v6.33H34.567v-6.33z" stroke="currentColor" stroke-width="2" stroke-linecap="round" stroke-linejoin="round"/></svg>