<svg viewBox="0 0 96 96" fill="none" xmlns="http://www.w3.org/2000/svg"><path d="M56.18 67.25l-3.35 4.79-.96-.95-1.45-2.88-1.44-2.4-2.39 2.88-2.4-3.36-3.84 2.88V66.3l-1.91 1.44L37 66.58 37.01 85l22.06-.01-.01-17.94-1.44 2.59-1.44-2.39zM48.81 28.7L45.76 11l-7.56 1.31 3 17.69a11.08 11.08 0 00-5.33 11.41l2.5 14.46 1.61.89 1.7-1.76.32 1.91 3.3-3.49 2.93 2.9 1.87-3.25 1.83 2.12 2-11 1 14.43 2.5-5.3 1.82 2.12 1-2.8-2.59-14.98a11.06 11.06 0 00-8.85-8.96v0z" stroke="currentColor" stroke-width="2" stroke-linecap="round" stroke-linejoin="round"/></svg>