<svg viewBox="0 0 96 96" fill="none" xmlns="http://www.w3.org/2000/svg"><path d="M14 15l28 25-10 6h-4L6 37m66-19L51 43l-2-5 3-26 20 6zm-32-4l3 12-4 4-16-7 17-9z" stroke="currentColor" stroke-width="2" stroke-linecap="round" stroke-linejoin="round"/><path d="M50.36 26.19l7.4 8.76M41.8 21.18L46 23l4.86-1.13M17.75 41.81l9.72 23.57m4.95-4.46l9.34 3.56m-7.23-20L39 55 9 82l25.53-37.52zM32 84l11-22 8-9 3 12 24 16-46 3zm39-24l-9-7-2-6 5-6 20 10-14 9zM60 32.29L59 42l31-6-30-3.71z" stroke="currentColor" stroke-width="2" stroke-linecap="round" stroke-linejoin="round"/><path d="M64.21 71.81L58 61l1-2 9.49-.95" stroke="currentColor" stroke-width="2" stroke-linecap="round" stroke-linejoin="round"/></svg>