<svg width="96" height="96" viewBox="0 0 96 96" fill="none" xmlns="http://www.w3.org/2000/svg">
<path d="M27.9 17.2H53.7V78.8H27.9V17.2Z" stroke="#00008F" stroke-width="2" stroke-linecap="round" stroke-linejoin="round"/>
<path d="M47.6 25.2C48.7046 25.2 49.6 24.3045 49.6 23.2C49.6 22.0954 48.7046 21.2 47.6 21.2C46.4954 21.2 45.6 22.0954 45.6 23.2C45.6 24.3045 46.4954 25.2 47.6 25.2Z" stroke="#00008F" stroke-width="2" stroke-linecap="round" stroke-linejoin="round"/>
<path d="M40.8 25.2C41.9046 25.2 42.8 24.3045 42.8 23.2C42.8 22.0954 41.9046 21.2 40.8 21.2C39.6954 21.2 38.8 22.0954 38.8 23.2C38.8 24.3045 39.6954 25.2 40.8 25.2Z" stroke="#00008F" stroke-width="2" stroke-linecap="round" stroke-linejoin="round"/>
<path d="M33.92 25.1799C35.0246 25.1799 35.92 24.2845 35.92 23.1799C35.92 22.0754 35.0246 21.1799 33.92 21.1799C32.8154 21.1799 31.92 22.0754 31.92 23.1799C31.92 24.2845 32.8154 25.1799 33.92 25.1799Z" stroke="#00008F" stroke-width="2" stroke-linecap="round" stroke-linejoin="round"/>
<path d="M47.6 35.2C48.7046 35.2 49.6 34.3045 49.6 33.2C49.6 32.0954 48.7046 31.2 47.6 31.2C46.4954 31.2 45.6 32.0954 45.6 33.2C45.6 34.3045 46.4954 35.2 47.6 35.2Z" stroke="#00008F" stroke-width="2" stroke-linecap="round" stroke-linejoin="round"/>
<path d="M40.8 35.2C41.9046 35.2 42.8 34.3045 42.8 33.2C42.8 32.0954 41.9046 31.2 40.8 31.2C39.6954 31.2 38.8 32.0954 38.8 33.2C38.8 34.3045 39.6954 35.2 40.8 35.2Z" stroke="#00008F" stroke-width="2" stroke-linecap="round" stroke-linejoin="round"/>
<path d="M33.92 35.1C35.0246 35.1 35.92 34.2045 35.92 33.1C35.92 31.9954 35.0246 31.1 33.92 31.1C32.8154 31.1 31.92 31.9954 31.92 33.1C31.92 34.2045 32.8154 35.1 33.92 35.1Z" stroke="#00008F" stroke-width="2" stroke-linecap="round" stroke-linejoin="round"/>
<path d="M47.6 45.1C48.7046 45.1 49.6 44.2045 49.6 43.1C49.6 41.9954 48.7046 41.1 47.6 41.1C46.4954 41.1 45.6 41.9954 45.6 43.1C45.6 44.2045 46.4954 45.1 47.6 45.1Z" stroke="#00008F" stroke-width="2" stroke-linecap="round" stroke-linejoin="round"/>
<path d="M40.8 45.1C41.9046 45.1 42.8 44.2045 42.8 43.1C42.8 41.9954 41.9046 41.1 40.8 41.1C39.6954 41.1 38.8 41.9954 38.8 43.1C38.8 44.2045 39.6954 45.1 40.8 45.1Z" stroke="#00008F" stroke-width="2" stroke-linecap="round" stroke-linejoin="round"/>
<path d="M33.91 45.09C35.0146 45.09 35.91 44.1945 35.91 43.09C35.91 41.9854 35.0146 41.09 33.91 41.09C32.8054 41.09 31.91 41.9854 31.91 43.09C31.91 44.1945 32.8054 45.09 33.91 45.09Z" stroke="#00008F" stroke-width="2" stroke-linecap="round" stroke-linejoin="round"/>
<path d="M47.6 55C48.7046 55 49.6 54.1046 49.6 53C49.6 51.8954 48.7046 51 47.6 51C46.4954 51 45.6 51.8954 45.6 53C45.6 54.1046 46.4954 55 47.6 55Z" stroke="#00008F" stroke-width="2" stroke-linecap="round" stroke-linejoin="round"/>
<path d="M40.8 55C41.9046 55 42.8 54.1046 42.8 53C42.8 51.8954 41.9046 51 40.8 51C39.6954 51 38.8 51.8954 38.8 53C38.8 54.1046 39.6954 55 40.8 55Z" stroke="#00008F" stroke-width="2" stroke-linecap="round" stroke-linejoin="round"/>
<path d="M33.89 54.99C34.9946 54.99 35.89 54.0946 35.89 52.99C35.89 51.8854 34.9946 50.99 33.89 50.99C32.7854 50.99 31.89 51.8854 31.89 52.99C31.89 54.0946 32.7854 54.99 33.89 54.99Z" stroke="#00008F" stroke-width="2" stroke-linecap="round" stroke-linejoin="round"/>
<path d="M44.5 65.3V78.5V65.3ZM37 65.3V78.5V65.3ZM47.3 65.3H34.2H47.3ZM53.7 78.8H68.1V43.0999L53.7 32.2V78.8V78.8Z" stroke="#00008F" stroke-width="2" stroke-linecap="round" stroke-linejoin="round"/>
<path d="M60.9 48.7999C61.7284 48.7999 62.4 48.1284 62.4 47.2999C62.4 46.4715 61.7284 45.7999 60.9 45.7999C60.0716 45.7999 59.4 46.4715 59.4 47.2999C59.4 48.1284 60.0716 48.7999 60.9 48.7999Z" stroke="#00008F" stroke-width="2" stroke-linecap="round" stroke-linejoin="round"/>
<path d="M60.9 56.2999C61.7284 56.2999 62.4 55.6284 62.4 54.7999C62.4 53.9715 61.7284 53.2999 60.9 53.2999C60.0716 53.2999 59.4 53.9715 59.4 54.7999C59.4 55.6284 60.0716 56.2999 60.9 56.2999Z" stroke="#00008F" stroke-width="2" stroke-linecap="round" stroke-linejoin="round"/>
<path d="M60.9 63.7999C61.7284 63.7999 62.4 63.1284 62.4 62.2999C62.4 61.4715 61.7284 60.7999 60.9 60.7999C60.0716 60.7999 59.4 61.4715 59.4 62.2999C59.4 63.1284 60.0716 63.7999 60.9 63.7999Z" stroke="#00008F" stroke-width="2" stroke-linecap="round" stroke-linejoin="round"/>
<path d="M53.7 69.3999H68.1" stroke="#00008F" stroke-width="2" stroke-linecap="round" stroke-linejoin="round"/>
</svg>
