<svg width="96" height="96" viewBox="0 0 96 96" fill="none" xmlns="http://www.w3.org/2000/svg">
<path d="M55.3729 8.00012H22.0001V87.6808H55.3729V8.00012Z" stroke="#00008F" stroke-width="2" stroke-linecap="round" stroke-linejoin="round"/>
<path d="M47.4823 18.348C48.9111 18.348 50.0693 17.1898 50.0693 15.761C50.0693 14.3322 48.9111 13.174 47.4823 13.174C46.0535 13.174 44.8953 14.3322 44.8953 15.761C44.8953 17.1898 46.0535 18.348 47.4823 18.348Z" stroke="#00008F" stroke-width="2" stroke-linecap="round" stroke-linejoin="round"/>
<path d="M38.6863 18.348C40.1151 18.348 41.2733 17.1898 41.2733 15.761C41.2733 14.3322 40.1151 13.174 38.6863 13.174C37.2575 13.174 36.0992 14.3322 36.0992 15.761C36.0992 17.1898 37.2575 18.348 38.6863 18.348Z" stroke="#00008F" stroke-width="2" stroke-linecap="round" stroke-linejoin="round"/>
<path d="M29.7869 18.3226C31.2156 18.3226 32.3739 17.1644 32.3739 15.7356C32.3739 14.3068 31.2156 13.1486 29.7869 13.1486C28.3581 13.1486 27.1998 14.3068 27.1998 15.7356C27.1998 17.1644 28.3581 18.3226 29.7869 18.3226Z" stroke="#00008F" stroke-width="2" stroke-linecap="round" stroke-linejoin="round"/>
<path d="M47.4823 31.2834C48.9111 31.2834 50.0693 30.1252 50.0693 28.6964C50.0693 27.2676 48.9111 26.1094 47.4823 26.1094C46.0535 26.1094 44.8953 27.2676 44.8953 28.6964C44.8953 30.1252 46.0535 31.2834 47.4823 31.2834Z" stroke="#00008F" stroke-width="2" stroke-linecap="round" stroke-linejoin="round"/>
<path d="M38.6863 31.2834C40.1151 31.2834 41.2733 30.1252 41.2733 28.6964C41.2733 27.2676 40.1151 26.1094 38.6863 26.1094C37.2575 26.1094 36.0992 27.2676 36.0992 28.6964C36.0992 30.1252 37.2575 31.2834 38.6863 31.2834Z" stroke="#00008F" stroke-width="2" stroke-linecap="round" stroke-linejoin="round"/>
<path d="M29.7869 31.1537C31.2156 31.1537 32.3739 29.9954 32.3739 28.5666C32.3739 27.1379 31.2156 25.9796 29.7869 25.9796C28.3581 25.9796 27.1998 27.1379 27.1998 28.5666C27.1998 29.9954 28.3581 31.1537 29.7869 31.1537Z" stroke="#00008F" stroke-width="2" stroke-linecap="round" stroke-linejoin="round"/>
<path d="M47.4823 44.0892C48.9111 44.0892 50.0693 42.931 50.0693 41.5022C50.0693 40.0734 48.9111 38.9152 47.4823 38.9152C46.0535 38.9152 44.8953 40.0734 44.8953 41.5022C44.8953 42.931 46.0535 44.0892 47.4823 44.0892Z" stroke="#00008F" stroke-width="2" stroke-linecap="round" stroke-linejoin="round"/>
<path d="M38.6863 44.0892C40.1151 44.0892 41.2733 42.931 41.2733 41.5022C41.2733 40.0734 40.1151 38.9152 38.6863 38.9152C37.2575 38.9152 36.0992 40.0734 36.0992 41.5022C36.0992 42.931 37.2575 44.0892 38.6863 44.0892Z" stroke="#00008F" stroke-width="2" stroke-linecap="round" stroke-linejoin="round"/>
<path d="M29.7747 44.0765C31.2035 44.0765 32.3618 42.9183 32.3618 41.4895C32.3618 40.0607 31.2035 38.9025 29.7747 38.9025C28.3459 38.9025 27.1877 40.0607 27.1877 41.4895C27.1877 42.9183 28.3459 44.0765 29.7747 44.0765Z" stroke="#00008F" stroke-width="2" stroke-linecap="round" stroke-linejoin="round"/>
<path d="M47.4823 56.8949C48.9111 56.8949 50.0693 55.7366 50.0693 54.3079C50.0693 52.8791 48.9111 51.7208 47.4823 51.7208C46.0535 51.7208 44.8953 52.8791 44.8953 54.3079C44.8953 55.7366 46.0535 56.8949 47.4823 56.8949Z" stroke="#00008F" stroke-width="2" stroke-linecap="round" stroke-linejoin="round"/>
<path d="M38.6863 56.8949C40.1151 56.8949 41.2733 55.7366 41.2733 54.3079C41.2733 52.8791 40.1151 51.7208 38.6863 51.7208C37.2575 51.7208 36.0992 52.8791 36.0992 54.3079C36.0992 55.7366 37.2575 56.8949 38.6863 56.8949Z" stroke="#00008F" stroke-width="2" stroke-linecap="round" stroke-linejoin="round"/>
<path d="M29.7488 56.8822C31.1776 56.8822 32.3358 55.7239 32.3358 54.2952C32.3358 52.8664 31.1776 51.7081 29.7488 51.7081C28.32 51.7081 27.1617 52.8664 27.1617 54.2952C27.1617 55.7239 28.32 56.8822 29.7488 56.8822Z" stroke="#00008F" stroke-width="2" stroke-linecap="round" stroke-linejoin="round"/>
<path d="M43.4724 70.2183V87.2927" stroke="#00008F" stroke-width="2" stroke-linecap="round" stroke-linejoin="round"/>
<path d="M33.7712 70.2183V87.2927" stroke="#00008F" stroke-width="2" stroke-linecap="round" stroke-linejoin="round"/>
<path d="M47.095 70.2183H30.15" stroke="#00008F" stroke-width="2" stroke-linecap="round" stroke-linejoin="round"/>
<path d="M55.3732 87.681H73.9998V41.5024L55.3732 27.4031V87.681Z" stroke="#00008F" stroke-width="2" stroke-linecap="round" stroke-linejoin="round"/>
<path d="M64.6861 48.8754C65.7577 48.8754 66.6263 48.0067 66.6263 46.9352C66.6263 45.8636 65.7577 44.9949 64.6861 44.9949C63.6145 44.9949 62.7458 45.8636 62.7458 46.9352C62.7458 48.0067 63.6145 48.8754 64.6861 48.8754Z" stroke="#00008F" stroke-width="2" stroke-linecap="round" stroke-linejoin="round"/>
<path d="M64.6861 58.5768C65.7577 58.5768 66.6263 57.7081 66.6263 56.6366C66.6263 55.565 65.7577 54.6963 64.6861 54.6963C63.6145 54.6963 62.7458 55.565 62.7458 56.6366C62.7458 57.7081 63.6145 58.5768 64.6861 58.5768Z" stroke="#00008F" stroke-width="2" stroke-linecap="round" stroke-linejoin="round"/>
<path d="M64.6861 68.278C65.7577 68.278 66.6263 67.4093 66.6263 66.3377C66.6263 65.2662 65.7577 64.3975 64.6861 64.3975C63.6145 64.3975 62.7458 65.2662 62.7458 66.3377C62.7458 67.4093 63.6145 68.278 64.6861 68.278Z" stroke="#00008F" stroke-width="2" stroke-linecap="round" stroke-linejoin="round"/>
<path d="M55.3732 75.5221H73.9998" stroke="#00008F" stroke-width="2" stroke-linecap="round" stroke-linejoin="round"/>
</svg>
