<svg width="96" height="96" viewBox="0 0 96 96" fill="none" xmlns="http://www.w3.org/2000/svg"><path d="M27.9 17.2h25.8v61.6H27.9V17.2z" stroke="#00008F" stroke-width="2" stroke-linecap="round" stroke-linejoin="round"/><path d="M47.6 25.2a2 2 0 100-4 2 2 0 000 4zM40.8 25.2a2 2 0 100-4 2 2 0 000 4zM33.92 25.18a2 2 0 100-4 2 2 0 000 4zM47.6 35.2a2 2 0 100-4 2 2 0 000 4zM40.8 35.2a2 2 0 100-4 2 2 0 000 4zM33.92 35.1a2 2 0 100-4 2 2 0 000 4zM47.6 45.1a2 2 0 100-4 2 2 0 000 4zM40.8 45.1a2 2 0 100-4 2 2 0 000 4zM33.91 45.09a2 2 0 100-4 2 2 0 000 4zM47.6 55a2 2 0 100-4 2 2 0 000 4zM40.8 55a2 2 0 100-4 2 2 0 000 4zM33.89 54.99a2 2 0 100-4 2 2 0 000 4zM44.5 65.3v13.2-13.2zm-7.5 0v13.2-13.2zm10.3 0H34.2h13.1zm6.4 13.5h14.4V43.1L53.7 32.2v46.6z" stroke="#00008F" stroke-width="2" stroke-linecap="round" stroke-linejoin="round"/><path d="M60.9 48.8a1.5 1.5 0 100-3 1.5 1.5 0 000 3zM60.9 56.3a1.5 1.5 0 100-3 1.5 1.5 0 000 3zM60.9 63.8a1.5 1.5 0 100-3 1.5 1.5 0 000 3zM53.7 69.4h14.4" stroke="#00008F" stroke-width="2" stroke-linecap="round" stroke-linejoin="round"/></svg>