<svg viewBox="0 0 96 96" fill="none" xmlns="http://www.w3.org/2000/svg"><path d="M55.373 8H22v79.68h33.373V8z" stroke="currentColor" stroke-width="2" stroke-linecap="round" stroke-linejoin="round"/><path d="M47.482 18.348a2.587 2.587 0 100-5.174 2.587 2.587 0 000 5.174zm-8.796 0a2.587 2.587 0 100-5.174 2.587 2.587 0 000 5.174zm-8.899-.025a2.587 2.587 0 100-5.174 2.587 2.587 0 000 5.174zm17.695 12.96a2.587 2.587 0 100-5.173 2.587 2.587 0 000 5.173zm-8.796 0a2.587 2.587 0 100-5.173 2.587 2.587 0 000 5.173zm-8.899-.129a2.587 2.587 0 100-5.174 2.587 2.587 0 000 5.174zM47.482 44.09a2.587 2.587 0 100-5.175 2.587 2.587 0 000 5.174zm-8.796 0a2.587 2.587 0 100-5.175 2.587 2.587 0 000 5.174zm-8.911-.013a2.587 2.587 0 100-5.175 2.587 2.587 0 000 5.175zm17.707 12.818a2.587 2.587 0 100-5.174 2.587 2.587 0 000 5.174zm-8.796 0a2.587 2.587 0 100-5.174 2.587 2.587 0 000 5.174zm-8.937-.013a2.587 2.587 0 100-5.174 2.587 2.587 0 000 5.174zm13.723 13.336v17.075m-9.701-17.075v17.075m13.324-17.075H30.15m25.223 17.463H74V41.502L55.373 27.403v60.278z" stroke="currentColor" stroke-width="2" stroke-linecap="round" stroke-linejoin="round"/><path d="M64.686 48.875a1.94 1.94 0 100-3.88 1.94 1.94 0 000 3.88zm0 9.702a1.94 1.94 0 100-3.88 1.94 1.94 0 000 3.88zm0 9.701a1.94 1.94 0 100-3.88 1.94 1.94 0 000 3.88zm-9.313 7.244H74" stroke="currentColor" stroke-width="2" stroke-linecap="round" stroke-linejoin="round"/></svg>