<svg viewBox="0 0 96 96" fill="none" xmlns="http://www.w3.org/2000/svg"><path d="M43.17 45.7c-4.85-1.34-7.68-9-9.36-8.43-1 .35.53 4 .53 4M61.41 40s-8.33-13.64-10-12.43c-1.48 1.1 4.23 14.22 5.37 16.8" stroke="currentColor" stroke-width="2" stroke-linecap="round" stroke-linejoin="round"/><path d="M8.08 60.46v-.05S5 57.66 5 51.32c0-2.54 2.32-7.22 6.82-7.9l19.56-4.17s9.07 7.49 17.81 7.49A13.75 13.75 0 0061.41 40L83 44.67c6.82 1 8.69 6.07 7.69 10-1 3.93-1.69 5.85-5.44 5.89m-43.46-.13V45.22m4.9 5.37H45" stroke="currentColor" stroke-width="2" stroke-linecap="round" stroke-linejoin="round"/><path d="M23.63 51.33a8.679 8.679 0 00-8.79 8.58 8.55 8.55 0 00.16 1.68 8.44 8.44 0 001.27 3 8.88 8.88 0 0014.69 0 8.268 8.268 0 001.44-4.68 8.68 8.68 0 00-8.77-8.58v0z" stroke="currentColor" stroke-width="2" stroke-linecap="round" stroke-linejoin="round"/><path d="M23.63 63.81a4 4 0 01-3.72-2.51 3.782 3.782 0 01-.27-1.39 4 4 0 018 0c.002.476-.086.947-.26 1.39a4 4 0 01-3.75 2.51v0zm45.7-12.48a8.67 8.67 0 00-8.78 8.58c.003.564.056 1.126.16 1.68a8.44 8.44 0 001.27 3 8.89 8.89 0 0014.7 0 8.417 8.417 0 001.26-3 8.547 8.547 0 00.17-1.68 8.68 8.68 0 00-8.78-8.58v0z" stroke="currentColor" stroke-width="2" stroke-linecap="round" stroke-linejoin="round"/><path d="M5.25 50.88c6.09.95 7.49-5.06 3.15-5.72m60.91 18.65a3.909 3.909 0 01-4-3.9 4 4 0 018 0A3.77 3.77 0 0173 61.3a4 4 0 01-3.69 2.51v0zm-36.76-3.25h27.79-27.79zM77.1 64H89a1.74 1.74 0 100-3.48H78.26L77.1 64zm-45.66.04h30.21-30.21zm-16.61-3.48H8.59a1.74 1.74 0 000 3.48h7l-.76-3.48z" stroke="currentColor" stroke-width="2" stroke-linecap="round" stroke-linejoin="round"/></svg>