<svg viewBox="0 0 96 96" fill="none" xmlns="http://www.w3.org/2000/svg"><path d="M69 80H18a2 2 0 01-2-2V20a2 2 0 012-2h11m38 0h11a2 2 0 012 2v49M35 18h26M16 30h64m-39-6h14" stroke="currentColor" stroke-width="2" stroke-linecap="round" stroke-linejoin="round"/><path d="M35 15a3 3 0 10-6 0v6a3 3 0 106 0v-6zm32 0a3 3 0 10-6 0v6a3 3 0 106 0v-6zm2 65v-9a2 2 0 012-2h9L69 80zM31 41a4 4 0 10-8 0 4 4 0 008 0zm14 0a4 4 0 10-8 0 4 4 0 008 0zm14 0a4 4 0 10-8 0 4 4 0 008 0zm14 0a4 4 0 10-8 0 4 4 0 008 0zM31 55a4 4 0 10-8 0 4 4 0 008 0zm14 0a4 4 0 10-8 0 4 4 0 008 0zm14 0a4 4 0 10-8 0 4 4 0 008 0zm14 0a4 4 0 10-8 0 4 4 0 008 0zM31 69a4 4 0 10-8 0 4 4 0 008 0zm14 0a4 4 0 10-8 0 4 4 0 008 0zm14 0a4 4 0 10-8 0 4 4 0 008 0z" stroke="currentColor" stroke-width="2" stroke-linecap="round" stroke-linejoin="round"/></svg>