<svg width="96" height="96" viewBox="0 0 96 96" fill="none" xmlns="http://www.w3.org/2000/svg">
<path d="M69 80H18C17.4696 80 16.9609 79.7893 16.5858 79.4142C16.2107 79.0391 16 78.5304 16 78V20C16 19.4696 16.2107 18.9609 16.5858 18.5858C16.9609 18.2107 17.4696 18 18 18H29M67 18H78C78.5304 18 79.0391 18.2107 79.4142 18.5858C79.7893 18.9609 80 19.4696 80 20V69M35 18H61M16 30H80M41 24H55" stroke="#00008F" stroke-width="2" stroke-linecap="round" stroke-linejoin="round"/>
<path d="M35 15C35 13.3431 33.6569 12 32 12C30.3431 12 29 13.3431 29 15V21C29 22.6569 30.3431 24 32 24C33.6569 24 35 22.6569 35 21V15Z" stroke="#00008F" stroke-width="2" stroke-linecap="round" stroke-linejoin="round"/>
<path d="M67 15C67 13.3431 65.6569 12 64 12C62.3431 12 61 13.3431 61 15V21C61 22.6569 62.3431 24 64 24C65.6569 24 67 22.6569 67 21V15Z" stroke="#00008F" stroke-width="2" stroke-linecap="round" stroke-linejoin="round"/>
<path d="M69 80V71C69 70.4696 69.2107 69.9609 69.5858 69.5858C69.9609 69.2107 70.4696 69 71 69H80L69 80Z" stroke="#00008F" stroke-width="2" stroke-linecap="round" stroke-linejoin="round"/>
<path d="M31 41C31 38.7909 29.2091 37 27 37C24.7909 37 23 38.7909 23 41C23 43.2091 24.7909 45 27 45C29.2091 45 31 43.2091 31 41Z" stroke="#00008F" stroke-width="2" stroke-linecap="round" stroke-linejoin="round"/>
<path d="M45 41C45 38.7909 43.2091 37 41 37C38.7909 37 37 38.7909 37 41C37 43.2091 38.7909 45 41 45C43.2091 45 45 43.2091 45 41Z" stroke="#00008F" stroke-width="2" stroke-linecap="round" stroke-linejoin="round"/>
<path d="M59 41C59 38.7909 57.2091 37 55 37C52.7909 37 51 38.7909 51 41C51 43.2091 52.7909 45 55 45C57.2091 45 59 43.2091 59 41Z" stroke="#00008F" stroke-width="2" stroke-linecap="round" stroke-linejoin="round"/>
<path d="M73 41C73 38.7909 71.2091 37 69 37C66.7909 37 65 38.7909 65 41C65 43.2091 66.7909 45 69 45C71.2091 45 73 43.2091 73 41Z" stroke="#00008F" stroke-width="2" stroke-linecap="round" stroke-linejoin="round"/>
<path d="M31 55C31 52.7909 29.2091 51 27 51C24.7909 51 23 52.7909 23 55C23 57.2091 24.7909 59 27 59C29.2091 59 31 57.2091 31 55Z" stroke="#00008F" stroke-width="2" stroke-linecap="round" stroke-linejoin="round"/>
<path d="M45 55C45 52.7909 43.2091 51 41 51C38.7909 51 37 52.7909 37 55C37 57.2091 38.7909 59 41 59C43.2091 59 45 57.2091 45 55Z" stroke="#00008F" stroke-width="2" stroke-linecap="round" stroke-linejoin="round"/>
<path d="M59 55C59 52.7909 57.2091 51 55 51C52.7909 51 51 52.7909 51 55C51 57.2091 52.7909 59 55 59C57.2091 59 59 57.2091 59 55Z" stroke="#00008F" stroke-width="2" stroke-linecap="round" stroke-linejoin="round"/>
<path d="M73 55C73 52.7909 71.2091 51 69 51C66.7909 51 65 52.7909 65 55C65 57.2091 66.7909 59 69 59C71.2091 59 73 57.2091 73 55Z" stroke="#00008F" stroke-width="2" stroke-linecap="round" stroke-linejoin="round"/>
<path d="M31 69C31 66.7909 29.2091 65 27 65C24.7909 65 23 66.7909 23 69C23 71.2091 24.7909 73 27 73C29.2091 73 31 71.2091 31 69Z" stroke="#00008F" stroke-width="2" stroke-linecap="round" stroke-linejoin="round"/>
<path d="M45 69C45 66.7909 43.2091 65 41 65C38.7909 65 37 66.7909 37 69C37 71.2091 38.7909 73 41 73C43.2091 73 45 71.2091 45 69Z" stroke="#00008F" stroke-width="2" stroke-linecap="round" stroke-linejoin="round"/>
<path d="M59 69C59 66.7909 57.2091 65 55 65C52.7909 65 51 66.7909 51 69C51 71.2091 52.7909 73 55 73C57.2091 73 59 71.2091 59 69Z" stroke="#00008F" stroke-width="2" stroke-linecap="round" stroke-linejoin="round"/>
</svg>
