<svg width="96" height="96" viewBox="0 0 96 96" fill="none" xmlns="http://www.w3.org/2000/svg"><path d="M69 80H18a2 2 0 01-2-2V20a2 2 0 012-2h11m38 0h11a2 2 0 012 2v49M35 18h26M16 30h64m-39-6h14" stroke="#00008F" stroke-width="2" stroke-linecap="round" stroke-linejoin="round"/><path d="M35 15a3 3 0 10-6 0v6a3 3 0 106 0v-6zM67 15a3 3 0 10-6 0v6a3 3 0 106 0v-6zM69 80v-9a2 2 0 012-2h9L69 80zM31 41a4 4 0 10-8 0 4 4 0 008 0zM45 41a4 4 0 10-8 0 4 4 0 008 0zM59 41a4 4 0 10-8 0 4 4 0 008 0zM73 41a4 4 0 10-8 0 4 4 0 008 0zM31 55a4 4 0 10-8 0 4 4 0 008 0zM45 55a4 4 0 10-8 0 4 4 0 008 0zM59 55a4 4 0 10-8 0 4 4 0 008 0zM73 55a4 4 0 10-8 0 4 4 0 008 0zM31 69a4 4 0 10-8 0 4 4 0 008 0zM45 69a4 4 0 10-8 0 4 4 0 008 0zM59 69a4 4 0 10-8 0 4 4 0 008 0z" stroke="#00008F" stroke-width="2" stroke-linecap="round" stroke-linejoin="round"/></svg>