<svg viewBox="0 0 96 96" fill="none" xmlns="http://www.w3.org/2000/svg"><path d="M10.2 55.21l1.18-20.32S12.8 25.67 21.77 25h53.29s4.36-.05 4.36 5.87c0 1.48-.94 5.58-4.47 5.58H11.29" stroke="currentColor" stroke-width="2" stroke-linecap="round" stroke-linejoin="round"/><path d="M10.27 54C5.07 53.79 5 50.48 5 50.48L5.71 38c.71-3.55 5.67-3.07 5.67-3.07m15.47 36.1a8.74 8.74 0 100-17.48 8.74 8.74 0 000 17.48z" stroke="currentColor" stroke-width="2" stroke-linecap="round" stroke-linejoin="round"/><path d="M26.85 66.07a3.78 3.78 0 100-7.56 3.78 3.78 0 000 7.56zm44.78 4.96a8.74 8.74 0 100-17.48 8.74 8.74 0 000 17.48z" stroke="currentColor" stroke-width="2" stroke-linecap="round" stroke-linejoin="round"/><path d="M71.63 66.07a3.78 3.78 0 100-7.56 3.78 3.78 0 000 7.56zM7.13 53.3S6 64 10.67 64.42h7.72m17-.24h27.7m17.07 0h9.42S91 62.77 91 61.59l-.24-6.38h-14m-38.86 0h22.28m7.67-18.83s8.34 10.95 10.55 11.11c0 0 10.71.51 10.71 7.72M59.34 41.5v7.25h12s-2.4-7.25-12-7.25zm-26.88 0h20.26v7.72H32.46V41.5zm-16.54 0l-.23 7.72h9.75V41.5h-9.52z" stroke="currentColor" stroke-width="2" stroke-linecap="round" stroke-linejoin="round"/></svg>