<svg viewBox="0 0 96 96" fill="none" xmlns="http://www.w3.org/2000/svg"><path d="M65 38.85v37.58a4.2 4.2 0 01-4.34 4H28.82a4.21 4.21 0 01-4.34-4V73.5m0-50.02v-4.1a4.21 4.21 0 014.34-4h31.83a4.4 4.4 0 013.9 2.25V18" stroke="currentColor" stroke-width="2" stroke-linecap="round" stroke-linejoin="round"/><path d="M55.7 41.3H43.31a2 2 0 00-2 2v15.4a2 2 0 002 2H55.7a2 2 0 002-2V43.3a2 2 0 00-2-2z" stroke="currentColor" stroke-width="2" stroke-linecap="round" stroke-linejoin="round"/><path d="M45.75 55.85h7.5m-7.5-9.7h7.5-7.5zm0 4.85h7.5-7.5z" stroke="currentColor" stroke-width="1.82" stroke-linecap="round" stroke-linejoin="round"/><path d="M34.41 15.36V80M21 27.48a3.5 3.5 0 017 0m-7 7.06a3.5 3.5 0 017 0m-7 7.07a3.5 3.5 0 017 0m-7 7.06a3.5 3.5 0 017 0m-7 7.07a3.5 3.5 0 017 0m-7 7.06a3.5 3.5 0 017 0m-3.52 10.7A3.54 3.54 0 1128 70m32.83-45.47l7.78 7.78m-7.78 0l7.78-7.78m-3.45 14.33h-.44a10.47 10.47 0 11.44 0z" stroke="currentColor" stroke-width="2" stroke-linecap="round" stroke-linejoin="round"/></svg>