<svg viewBox="0 0 96 96" fill="none" xmlns="http://www.w3.org/2000/svg"><path d="M71.18 79.81h6.47a1.63 1.63 0 001.69-1.61V39.06a1.69 1.69 0 00-1.69-1.61H70.3M36.08 79.81h23.63M25.55 37.45h-7.2a1.63 1.63 0 00-1.69 1.61V78.2a1.68 1.68 0 001.69 1.61h6.7m36.21-42.36H34.63M29.74 69.1V49.17M65.91 69.1V49.54m8.89 18.59h-8.58m-17.23.44h-2.13m27.94-8.9l-17.58-.29m17.58-9.03h-8.81M29.22 68.56h-8.36m18.36-9.18H20.86m8.5-9.45h-8.5m28 0H46.9m1.1.74V42.3m0 32.8v-6.8M32.75 23.48a3.81 3.81 0 11-7.62 0V13.31a3.811 3.811 0 017.62 0v10.17zM70 13.31a3.81 3.81 0 10-7.62 0v10.17a3.81 3.81 0 107.62 0V13.31zM86.12 23v59.35a4.17 4.17 0 01-4.24 4.15H14.12a4.17 4.17 0 01-4.24-4.15V23a4.17 4.17 0 014.24-4.15h6.77v4.66c0 3.64.89 8.21 8.05 8.21C36.1 31.72 37 27 37 23.48v-4.66h21.16v4.66c0 3.64 1.34 8.21 8 8.21s8.05-4.66 8.05-8.21v-4.66h7.59A4.3 4.3 0 0186.12 23z" stroke="currentColor" stroke-width="2" stroke-linecap="round" stroke-linejoin="round"/><path d="M61.76 37.39L48 51.15 34.24 37.39a5.724 5.724 0 10-8.09 8.1l13.76 13.75L26.15 73a5.72 5.72 0 108.09 8.09L48 67.34l13.76 13.75A5.72 5.72 0 1069.85 73L56.09 59.24l13.76-13.75a5.725 5.725 0 00-8.09-8.1v0z" stroke="currentColor" stroke-width="2" stroke-linecap="round" stroke-linejoin="round"/></svg>