<svg viewBox="0 0 96 96" fill="none" xmlns="http://www.w3.org/2000/svg"><path d="M61.55 70.77c-3.79 1.08-5.43.38-6.16.19-.137-.04-.27-.09-.4-.15-.8-.38-3.17-.48-7-7.41m19.48 4.95c6.07-3.86 14.15-12.45 20.65-29.73a2.17 2.17 0 00-2.25-2.92 45.4 45.4 0 01-18-2.44 45.571 45.571 0 01-15.79-8.95 2.189 2.189 0 00-3.29.4" stroke="currentColor" stroke-width="2" stroke-linecap="round" stroke-linejoin="round"/><path d="M58.18 59.31l7.18 2.52a2.18 2.18 0 002.54-3.23 13.27 13.27 0 00-7-5.41 15.458 15.458 0 00-2.44-.59m-7.34-12.49a88.299 88.299 0 00-2.68-14.86m24.64 21.12a5.15 5.15 0 00-3.2 0 1.93 1.93 0 000 3.66l3.56 1.2a1.93 1.93 0 002.2-2.92 5.15 5.15 0 00-2.56-1.94zM51.51 44.1h2a2.17 2.17 0 001.28-3.85c-.11-.09-.23-.15-.34-.23a5.75 5.75 0 00-3-1.08l.06 5.16zm-11.21 6l-11.56 3.8a2.18 2.18 0 00-.09 4.1 13.28 13.28 0 008.81.16 12.33 12.33 0 006.43-4.65L40.3 50.1zM26 42.36a5.18 5.18 0 00-2.62.17A5.3 5.3 0 0021.12 44a2.18 2.18 0 002.26 3.58l2.88-1a2.17 2.17 0 00-.26-4.22zm25.32 2.76c0 2.22-.173 4.437-.52 6.63l.52-6.63zm-10.85-3.35l1.5-.42a2.18 2.18 0 00-.38-4.23 5.17 5.17 0 00-2.17.22 5.1 5.1 0 00-1.79 1 1.308 1.308 0 00-.2.21l3.04 3.22z" stroke="currentColor" stroke-width="2" stroke-linecap="round" stroke-linejoin="round"/><path d="M48.44 25.25c-.28-1.05-.57-2.12-.89-3.22A2.18 2.18 0 0044 21a45.41 45.41 0 01-15.85 8.85 45.439 45.439 0 01-18 2.31 2.181 2.181 0 00-2.26 2.94C17.45 60.89 29 66.43 35.47 67.48m15.65-27.37c.14 1.78.21 3.44.2 5" stroke="currentColor" stroke-width="2" stroke-linecap="round" stroke-linejoin="round"/><path d="M44.56 46l-3.67-3.6-3.08-3-1.56-1.54a2.76 2.76 0 10-3.87 3.93l8.62 8.4 3.22 3.17.67.66L47 56.18l-1.5 1.52-9.11 9.3-3.78 3.83a2.749 2.749 0 002 4.69 2.73 2.73 0 002-.82l11.03-11.28L51 60.05 61.47 70.4l4.15 4.08a2.75 2.75 0 003.89 0 2.752 2.752 0 000-3.9l-2.65-2.61-8.33-8.2-3.67-3.62L58 53l11.26-11.53a2.761 2.761 0 10-3.93-3.87L50.9 52.25 44.56 46z" stroke="currentColor" stroke-width="2" stroke-linecap="round" stroke-linejoin="round"/></svg>