<svg viewBox="0 0 96 96" fill="none" xmlns="http://www.w3.org/2000/svg"><path d="M88.88 63.9V53.14a5.08 5.08 0 00-4.14-5l-14.2-3.66-9.22-8.35c-5.36-4.94-9.13-6-13.85-6H26.16c-2.77 0-5.4 2.29-7.19 4.42L9.78 45.46c-.32.35-.7.64-1.12.86a3 3 0 00-1.54 2.6v15m21.24 5.48h32.91-32.91zm-1.77-5.3h36.43-36.43z" stroke="currentColor" stroke-width="2" stroke-linecap="round" stroke-linejoin="round"/><path d="M19.86 77.89a8.49 8.49 0 100-16.98 8.49 8.49 0 000 16.98z" stroke="currentColor" stroke-width="2" stroke-linecap="round" stroke-linejoin="round"/><path d="M19.86 72.59a3.19 3.19 0 100-6.38 3.19 3.19 0 000 6.38zm49.91 5.3a8.49 8.49 0 100-16.98 8.49 8.49 0 000 16.98z" stroke="currentColor" stroke-width="2" stroke-linecap="round" stroke-linejoin="round"/><path d="M69.77 72.59a3.19 3.19 0 100-6.38 3.19 3.19 0 000 6.38zM7.12 53.48c5.94 0 7.39-7.43 2-7.43M78.26 69.4h10.09a2.65 2.65 0 100-5.3H76.4l1.86 5.3zm-66.89 0H7.65a2.65 2.65 0 110-5.3h5.58l-1.86 5.3zm8.49-23.35l8-8.86a5.29 5.29 0 013.94-1.76h15.64A13.8 13.8 0 0156.73 39l7.73 7-44.6.05zm44.6 0h-44.6 44.6zM41.1 64.1V35.43 64.1zm6.37-12.75h-2.12 2.12zm22.45-25.06a3.02 3.02 0 100-6.04 3.02 3.02 0 000 6.04zm12.6-2.88a2.65 2.65 0 100-5.3 2.65 2.65 0 000 5.3zm3.01 13.22a3.02 3.02 0 100-6.04 3.02 3.02 0 000 6.04z" stroke="currentColor" stroke-width="2" stroke-linecap="round" stroke-linejoin="round"/></svg>