<svg viewBox="0 0 96 96" fill="none" xmlns="http://www.w3.org/2000/svg"><path d="M51.39 57.92v-5.43a2.81 2.81 0 00-2.29-2.76l-7.86-2-5.09-4.62c-3-2.73-5-4.32-7.66-4.32H16.7c-1.53 0-3.42 2.38-4.41 3.56l-4.65 5.9a1.998 1.998 0 01-.62.47 1.65 1.65 0 00-.85 1.44v7.12m11.75 4.21h18.2-18.2zm-.98-3.57h20.15-20.15z" stroke="currentColor" stroke-width="2" stroke-linecap="round" stroke-linejoin="round"/><path d="M13.22 66.19a4.7 4.7 0 100-9.4 4.7 4.7 0 000 9.4z" stroke="currentColor" stroke-width="2" stroke-linecap="round" stroke-linejoin="round"/><path d="M13.22 62.49a1 1 0 100-2 1 1 0 000 2zm27.6 3.7a4.7 4.7 0 100-9.4 4.7 4.7 0 000 9.4z" stroke="currentColor" stroke-width="2" stroke-linecap="round" stroke-linejoin="round"/><path d="M40.82 62.49a1 1 0 100-2 1 1 0 000 2zm4.69-1h5.58A1.47 1.47 0 0052.56 60c0-.81-.66-2-1.47-2h-6.61M8.52 61.49h-2A1.471 1.471 0 015 60v-.29A1.72 1.72 0 016.47 58h3.08m41.84-4.14a4.23 4.23 0 01-2.94-1.35 10.311 10.311 0 01-1.76-3.35m-33.47-.88l3.9-4.28a2.591 2.591 0 011.93-.86h7.66a6.73 6.73 0 014.54 1.75L35 48.28H13.22zm0 0h21.82m-11.43 9.64V43.09m4.88 9.42h-1.18m-21.14.17c3.29 0 4.09-4.11 1.1-4.11M52.54 59.2h16.98m-17.3-3.84h18.56m18.69-.14v-7.78a3.67 3.67 0 00-3-3.61l-10.25-3.65-6.66-6c-3.87-3.57-6.6-4.34-10-4.34H44.15C40.27 29.81 34 40.7 34 40.7m41.66 24.64a6.14 6.14 0 100-12.28 6.14 6.14 0 000 12.28z" stroke="currentColor" stroke-width="2" stroke-linecap="round" stroke-linejoin="round"/><path d="M75.66 61.5a2.3 2.3 0 100-4.6 2.3 2.3 0 000 4.6zm6.13-2.3h7.29a1.92 1.92 0 100-3.84h-8.63m9.02-6.14a5.56 5.56 0 01-3.84-1.75 13.438 13.438 0 01-2.3-4.38M54.72 55.36V34.65m4.83 11.51h-1.54m-17.74-3.84l4.1-6.4a3.81 3.81 0 012.85-1.27h11.31a10 10 0 016.71 2.59l5.58 5.08H40.27z" stroke="currentColor" stroke-width="2" stroke-linecap="round" stroke-linejoin="round"/></svg>