<svg viewBox="0 0 96 96" fill="none" xmlns="http://www.w3.org/2000/svg"><path d="M87 60.82V50.68A4.78 4.78 0 0083.11 46l-13.38-3.48-8.68-7.87C56 30 52.45 29 48 29H27.93c-2.61 0-5.08 2.16-6.77 4.16L12.5 43.45a3.69 3.69 0 01-1.06.81A2.79 2.79 0 0010 46.7v14.12M30 66h31-31zm-1.67-5h34.32-34.32z" stroke="currentColor" stroke-width="2" stroke-linecap="round" stroke-linejoin="round"/><path d="M22 74a8 8 0 100-16 8 8 0 000 16z" stroke="currentColor" stroke-width="2" stroke-linecap="round" stroke-linejoin="round"/><path d="M22 69a3 3 0 100-6 3 3 0 000 6zm47 5a8 8 0 100-16 8 8 0 000 16z" stroke="currentColor" stroke-width="2" stroke-linecap="round" stroke-linejoin="round"/><path d="M69 69a3 3 0 100-6 3 3 0 000 6zm8-3h9.5a2.5 2.5 0 000-5H75.25M14 66h-3.5a2.5 2.5 0 010-5h5.26M87 53a7.23 7.23 0 01-5-2.29A17.4 17.4 0 0179 45M42 61V34m6 15h-2m-36 2c5.6 0 7-7 1.87-7M22 44l7.51-8.34A5 5 0 0133.23 34H48a13 13 0 018.75 3.38L64 44H22z" stroke="currentColor" stroke-width="2" stroke-linecap="round" stroke-linejoin="round"/></svg>