<svg viewBox="0 0 96 96" fill="none" xmlns="http://www.w3.org/2000/svg"><path d="M15.78 28.73h30.27A1.93 1.93 0 0148 30.66V46.4a2.24 2.24 0 01-2.24 2.24H15.38a2.52 2.52 0 01-2.52-2.52V31.64a2.912 2.912 0 012.92-2.91v0zm39.22 0h12.39a4.11 4.11 0 014.11 4.11v26.87H55v-31 .02z" stroke="currentColor" stroke-width="2" stroke-linecap="round" stroke-linejoin="round"/><path d="M41.2 66.71h44.47v-3H93v-5h-7.33v-12.5a25.39 25.39 0 00-25.39-25.39H14.4A7.4 7.4 0 007 28.23v38.48h16" stroke="currentColor" stroke-width="2" stroke-linecap="round" stroke-linejoin="round"/><path d="M32.02 70.73a4 4 0 100-8 4 4 0 000 8z" stroke="currentColor" stroke-width="2" stroke-linecap="round" stroke-linejoin="round"/><path d="M32.08 75.75a9 9 0 100-18 9 9 0 000 18z" stroke="currentColor" stroke-width="2" stroke-linecap="round" stroke-linejoin="round"/></svg>