<svg viewBox="0 0 48 48" fill="none" xmlns="http://www.w3.org/2000/svg"><path d="M33.856 32.096l-1.952 1.952-.704-.704c-.384-.384-.288-1.088.192-1.536l.192-.192c.448-.48 1.152-.576 1.536-.224l.736.704zm10.272 10.24l-1.952 1.952-10.24-10.24 1.952-1.952 10.24 10.24z" stroke="currentColor" stroke-miterlimit="10" stroke-linejoin="round"/><path d="M25.504 19.808c.448-.384.672-.768.672-1.184 0-.416-.256-.832-.672-1.184V8.512v-.32c.448-.384.704-.768.704-1.216 0-1.92-4.992-3.456-11.168-3.456-6.176 0-11.168 1.536-11.168 3.456 0 .448.288.896.832 1.312V17.312c-.512.384-.8.832-.8 1.28 0 .448.288.896.8 1.28v10.176c-.512.416-.8.832-.8 1.28 0 1.92 4.992 3.456 11.168 3.456 6.176 0 11.104-1.504 11.104-3.424 0-.416-.256-.832-.704-1.216V19.808h.032z" stroke="currentColor" stroke-miterlimit="10"/><path d="M4.992 8.512s9.888 4.096 20.384-.16M4.736 19.968s9.92 4.736 20.64-.032M4.96 30.496s9.792 4.736 20.384-.032M31.968 34.272c-2.432-.672-2.848-4.512-2.88-6.048 0-3.168 2.016-4.544 2.144-4.608.032-.032.096-.032.128-.032h.192c.16.032.288.192.256.384-.224 1.184.288 3.104.736 3.52.064.064.16.096.224.064.992-.352 1.344-4 1.28-6.496 0-.096.032-.192.096-.256.128-.128.32-.096.448.032a11.01 11.01 0 012.432 7.04c0 2.496-.736 4.032-1.568 4.96" stroke="currentColor" stroke-miterlimit="10" stroke-linecap="round"/><path d="M15.136 13.472l-3.104 5.376h6.208l-3.104-5.376z" stroke="currentColor" stroke-miterlimit="10" stroke-linecap="round" stroke-linejoin="round"/><path d="M18.784 8.256c1.52 0 2.752-.444 2.752-.992s-1.232-.992-2.752-.992c-1.52 0-2.752.444-2.752.992s1.232.992 2.752.992z" stroke="currentColor" stroke-miterlimit="10"/></svg>