<svg width="96" height="96" viewBox="0 0 96 96" fill="none" xmlns="http://www.w3.org/2000/svg">
<path d="M58.6007 54.4464L58.6916 54.5258L58.7433 54.5388C58.8009 54.5939 58.8448 54.6623 58.8708 54.7385C58.9052 54.8391 58.9065 54.9481 58.8748 55.0495C58.843 55.1509 58.7797 55.2396 58.6941 55.3027C58.6087 55.3656 58.5053 55.3997 58.3992 55.4001C58.399 55.4001 58.3989 55.4001 58.3988 55.4001H20.4011C20.401 55.4001 20.4009 55.4001 20.4007 55.4001C19.3919 55.3976 18.4253 54.9952 17.7128 54.281C17.0002 53.5668 16.6 52.599 16.6 51.5901V46.2501H16.6L16.6 46.2476C16.5994 46.1232 16.6451 46.003 16.7283 45.9106C16.8115 45.8182 16.926 45.7601 17.0496 45.7476C17.0497 45.7476 17.0499 45.7476 17.05 45.7476L20.7973 45.3778L20.7991 45.3776L22.7955 45.188C22.7958 45.188 22.7961 45.1879 22.7964 45.1879C25.9598 44.8985 29.7344 44.5699 32.3561 44.4001H32.4H32.4147L32.4294 44.3992C36.3088 44.1707 40.7764 45.3857 44.9451 47.0711C49.1034 48.7523 52.9131 50.8801 55.4604 52.4274L55.4631 52.429C56.9129 53.2972 57.9504 53.9968 58.4109 54.3073C58.4632 54.3426 58.508 54.3728 58.5451 54.3977L58.6007 54.4464ZM20.41 54.3901H21.601L21.591 54.4101H22.4H31.4H31.9V53.9101V46.0001V45.4613L31.3628 45.5014L26.9428 45.8314L26.9428 45.8314L26.9382 45.8318C25.5073 45.9519 24.0457 46.082 22.7133 46.2122L20.7152 46.3921L20.7152 46.3921L20.7112 46.3924L18.0612 46.6524L17.61 46.6967V47.1501V51.5801C17.61 52.3232 17.9044 53.0361 18.4287 53.5627C18.9531 54.0894 19.6647 54.3868 20.4078 54.3901H20.41ZM32.91 53.8901V54.3898L33.4098 54.3901L54.9598 54.4001L56.7278 54.4009L55.222 53.4742C54.3032 52.9088 53.186 52.2647 51.9519 51.5825L51.951 51.582C47.85 49.3259 42.2633 46.6839 37.0617 45.7485C35.859 45.5161 34.6373 45.3961 33.4124 45.3901L32.91 45.3876V45.8901V53.8901ZM60.5984 68.5593L60.5993 68.5489L60.5996 68.5385C60.6333 67.6275 61.0162 66.7644 61.669 66.128C62.3209 65.4924 63.192 65.1316 64.1024 65.1201C65.0229 65.1226 65.9068 65.4817 66.5683 66.122C67.2306 66.7631 67.6185 67.6361 67.6503 68.5573L67.6507 68.5693L67.6517 68.5813C67.6544 68.6138 67.6544 68.6464 67.6517 68.6788L67.6501 68.6986L67.65 68.7185C67.6492 68.9584 67.6256 69.1977 67.5795 69.4332C67.5196 69.7351 67.4174 70.0269 67.276 70.3002L67.2758 70.3001L67.2709 70.3103C66.98 70.9048 66.5288 71.4061 65.9681 71.7577C65.4084 72.1086 64.762 72.2964 64.1015 72.3C63.4476 72.2926 62.8088 72.1021 62.2575 71.75C61.7053 71.3973 61.2631 70.8967 60.9814 70.3051L60.9761 70.294L60.9703 70.2832C60.8268 70.0164 60.7261 69.7287 60.6719 69.4307L60.672 69.4306L60.6706 69.4238C60.6244 69.1881 60.6008 68.9486 60.6 68.7085L60.5999 68.6896L60.5984 68.6708C60.5955 68.6337 60.5955 68.5964 60.5984 68.5593ZM65.3769 70.9548L65.3839 70.9508L65.3908 70.9466C65.8626 70.6581 66.2344 70.2318 66.456 69.7252C66.6004 69.4126 66.6829 69.075 66.6991 68.7311C66.705 68.6543 66.7052 68.5771 66.6999 68.5002C66.6947 67.8351 66.4282 67.1983 65.9575 66.7275C65.4821 66.2521 64.8373 65.9851 64.165 65.9851C63.4927 65.9851 62.8479 66.2521 62.3725 66.7275C61.9017 67.1983 61.6353 67.8351 61.6301 68.5002C61.6251 68.5725 61.625 68.6451 61.6299 68.7174C61.6295 69.1593 61.7408 69.5942 61.9537 69.9817C62.1701 70.3756 62.4842 70.7072 62.8659 70.9446L62.8724 70.9487L62.8791 70.9526C63.2589 71.1729 63.69 71.2893 64.1291 71.2901L64.1354 71.29C64.571 71.2853 64.9982 71.17 65.3769 70.9548Z" stroke="#00008F"/>
<mask id="path-3-inside-1" fill="white">
<path d="M83.89 38.32C85.8287 38.9815 87.6167 40.0216 89.15 41.38C87.7151 41.3796 86.2999 41.0462 85.0158 40.4058C83.7317 39.7655 82.6137 38.8359 81.75 37.69C82.4755 37.8563 83.1901 38.0667 83.89 38.32ZM29.94 29.52V36.06H26.88C27.5607 33.7368 28.5926 31.5313 29.94 29.52ZM11.44 46V52.54H8.38C9.06072 50.2168 10.0926 48.0113 11.44 46ZM69.74 69.51C69.7035 69.8504 69.6297 70.1857 69.52 70.51C69.1612 71.6657 68.442 72.6763 67.4677 73.3939C66.4934 74.1116 65.3151 74.4988 64.105 74.4988C62.8949 74.4988 61.7166 74.1116 60.7423 73.3939C59.768 72.6763 59.0488 71.6657 58.69 70.51C58.5777 70.1859 58.5006 69.8506 58.46 69.51C58.4198 69.2453 58.3997 68.9778 58.4 68.71C58.395 68.6468 58.395 68.5833 58.4 68.52C58.4616 67.0509 59.0885 65.6624 60.1498 64.6447C61.2111 63.627 62.6246 63.0587 64.095 63.0587C65.5654 63.0587 66.9789 63.627 68.0402 64.6447C69.1015 65.6624 69.7284 67.0509 69.79 68.52C69.795 68.5799 69.795 68.6401 69.79 68.7C69.7992 68.9776 69.7824 69.2555 69.74 69.53V69.51ZM70.65 57.86C69.2151 57.8596 67.7999 57.5262 66.5158 56.8858C65.2317 56.2455 64.1137 55.3159 63.25 54.17C63.9755 54.3363 64.6901 54.5467 65.39 54.8C67.3304 55.4675 69.1184 56.5145 70.65 57.88V57.86ZM14.1 64.62C13.06 64.6322 12.0646 65.0439 11.3199 65.7699C10.5753 66.496 10.1384 67.4807 10.1 68.52C10.095 68.5833 10.095 68.6468 10.1 68.71C10.1009 68.982 10.1277 69.2532 10.18 69.52C10.2435 69.8696 10.3616 70.2071 10.53 70.52C10.852 71.1961 11.3573 71.7683 11.9884 72.1714C12.6196 72.5745 13.3512 72.7923 14.1 72.8C14.855 72.7967 15.5941 72.5824 16.2337 72.1813C16.8734 71.7802 17.3882 71.2082 17.72 70.53C17.8832 70.2148 18.001 69.8782 18.07 69.53C18.1223 69.2632 18.1491 68.992 18.15 68.72C18.155 68.6601 18.155 68.5999 18.15 68.54C18.1138 67.4894 17.6714 66.4938 16.9161 65.7627C16.1607 65.0316 15.1512 64.622 14.1 64.62ZM16 69.52C15.8197 69.9349 15.5159 70.2841 15.13 70.52C14.8249 70.6933 14.4808 70.7862 14.13 70.79C13.7787 70.7894 13.4338 70.6963 13.13 70.52C12.8212 70.3279 12.567 70.0596 12.3919 69.7408C12.2168 69.4221 12.1266 69.0637 12.13 68.7C12.125 68.6401 12.125 68.5799 12.13 68.52C12.13 67.9803 12.3444 67.4627 12.726 67.0811C13.1077 66.6994 13.6253 66.485 14.165 66.485C14.7047 66.485 15.2223 66.6994 15.604 67.0811C15.9856 67.4627 16.2 67.9803 16.2 68.52C16.205 68.5799 16.205 68.6401 16.2 68.7C16.1876 68.9838 16.1197 69.2624 16 69.52ZM56.62 70.52C56.9966 72.2287 57.9453 73.7576 59.3092 74.8536C60.6731 75.9496 62.3703 76.547 64.12 76.547C65.8697 76.547 67.5669 75.9496 68.9308 74.8536C70.2947 73.7576 71.2434 72.2287 71.62 70.52H73.68C74.4756 70.52 75.2387 70.204 75.8013 69.6413C76.3639 69.0787 76.68 68.3157 76.68 67.52C76.7864 64.1386 75.7273 60.8234 73.68 58.13L73.51 58C72.1412 56.332 70.4379 54.9693 68.51 54H75.06C75.4366 55.7087 76.3853 57.2376 77.7492 58.3336C79.1131 59.4296 80.8103 60.027 82.56 60.027C84.3097 60.027 86.0069 59.4296 87.3708 58.3336C88.7347 57.2376 89.6834 55.7087 90.06 54H92.12C92.9156 54 93.6787 53.684 94.2413 53.1213C94.8039 52.5587 95.12 51.7957 95.12 51C95.2264 47.6186 94.1673 44.3034 92.12 41.61L92 41.49C88.09 36.65 81.85 35.6 80.51 35.42C78.68 34.27 65.51 26.05 59.08 24.77L58.74 24.7C56.1587 24.1719 53.5222 23.9636 50.89 24.08C44.141 24.2136 37.4132 24.8824 30.77 26.08C30.7006 26.0893 30.6331 26.1095 30.57 26.14C30.5034 26.1707 30.4398 26.2075 30.38 26.25L30.25 26.35C26.32 29.28 24.25 37.49 23.58 40.85C23.3435 40.913 23.1153 41.0036 22.9 41.12C19.66 41.4467 16.1267 41.93 12.3 42.57C12.2306 42.5793 12.1631 42.5995 12.1 42.63C12.0334 42.6607 11.9698 42.6975 11.91 42.74L11.78 42.84C7.8 45.8 5.75 54 5.06 57.37C4.25172 57.5951 3.53939 58.0787 3.03194 58.7468C2.52449 59.415 2.24984 60.231 2.25 61.07V68.12C2.25521 68.4418 2.32375 68.7593 2.45172 69.0546C2.57968 69.3499 2.76455 69.617 2.99578 69.8408C3.22701 70.0646 3.50005 70.2407 3.79933 70.3589C4.09861 70.4772 4.41825 70.5353 4.74 70.53H6.61C6.98659 72.2387 7.93534 73.7676 9.29921 74.8636C10.6631 75.9596 12.3603 76.557 14.11 76.557C15.8597 76.557 17.5569 75.9596 18.9208 74.8636C20.2847 73.7676 21.2334 72.2387 21.61 70.53H56.66L56.62 70.52ZM19.74 69.53C19.7035 69.8704 19.6297 70.2057 19.52 70.53C19.1612 71.6857 18.442 72.6963 17.4677 73.4139C16.4934 74.1316 15.3151 74.5188 14.105 74.5188C12.8949 74.5188 11.7166 74.1316 10.7423 73.4139C9.76796 72.6963 9.04882 71.6857 8.69 70.53C8.57775 70.2059 8.50064 69.8706 8.46 69.53C8.41978 69.2653 8.39972 68.9978 8.4 68.73C8.39502 68.6668 8.39502 68.6033 8.4 68.54C8.46157 67.0709 9.0885 65.6824 10.1498 64.6647C11.2111 63.6469 12.6246 63.0787 14.095 63.0787C15.5654 63.0787 16.9789 63.6469 18.0402 64.6647C19.1015 65.6824 19.7284 67.0709 19.79 68.54C19.795 68.5999 19.795 68.6601 19.79 68.72C19.7979 68.991 19.7812 69.2621 19.74 69.53ZM56.66 68.53H21.81C21.7381 66.5346 20.8948 64.6448 19.4577 63.2586C18.0206 61.8723 16.1017 61.0977 14.105 61.0977C12.1082 61.0977 10.1894 61.8723 8.75226 63.2586C7.31515 64.6448 6.4719 66.5346 6.4 68.53H4.74C4.62112 68.5385 4.50361 68.5005 4.41221 68.424C4.32081 68.3475 4.26265 68.2385 4.25 68.12V61.07C4.24444 60.5958 4.42423 60.1381 4.75109 59.7944C5.07795 59.4507 5.52606 59.2482 6 59.23C6.19107 59.2178 6.37461 59.151 6.52883 59.0376C6.68305 58.9241 6.80147 58.7688 6.87 58.59C6.90049 58.4993 6.92062 58.4053 6.93 58.31C7.05 57.65 7.35 56.25 7.81 54.56H12.46C12.7252 54.56 12.9796 54.4547 13.1671 54.2671C13.3546 54.0796 13.46 53.8252 13.46 53.56V44.43C16.1267 43.9967 18.63 43.64 20.97 43.36C21.85 43.25 22.69 43.16 23.52 43.08C26.83 42.75 29.8 42.58 32.41 42.58C34.9006 42.4718 37.3951 42.6632 39.84 43.15L40.2 43.23C44.87 44.17 53.82 49.29 58.36 52.01L60.36 53.24C60.48 53.5067 60.61 53.7667 60.75 54.02C61.7217 55.7981 63.1553 57.281 64.8994 58.3123C66.6436 59.3437 68.6337 59.8853 70.66 59.88C71.2188 59.8795 71.7769 59.8394 72.33 59.76C73.912 62.0364 74.7249 64.7589 74.65 67.53C74.6495 67.6623 74.6227 67.7932 74.5712 67.9151C74.5197 68.037 74.4445 68.1474 74.35 68.24C74.1637 68.4248 73.9123 68.5289 73.65 68.53H71.81C71.7381 66.5346 70.8949 64.6448 69.4577 63.2586C68.0206 61.8723 66.1018 61.0977 64.105 61.0977C62.1083 61.0977 60.1894 61.8723 58.7523 63.2586C57.3152 64.6448 56.4719 66.5346 56.4 68.53H21.29H56.66ZM88.24 53C88.197 53.3412 88.1165 53.6765 88 54C87.6412 55.1557 86.922 56.1663 85.9477 56.8839C84.9734 57.6016 83.7951 57.9888 82.585 57.9888C81.3749 57.9888 80.1966 57.6016 79.2223 56.8839C78.248 56.1663 77.5288 55.1557 77.17 54C77.0781 53.6736 77.0211 53.3384 77 53C76.9598 52.7353 76.9397 52.4678 76.94 52.2C76.935 52.1368 76.935 52.0733 76.94 52.01C77.0584 50.5858 77.7074 49.258 78.7586 48.2897C79.8097 47.3214 81.1862 46.7833 82.6154 46.7821C84.0446 46.7808 85.422 47.3165 86.4749 48.2829C87.5277 49.2493 88.1791 50.576 88.3 52C88.305 52.0599 88.305 52.1201 88.3 52.18C88.3052 52.4546 88.2851 52.7291 88.24 53ZM92.86 51.71C92.6737 51.8948 92.4223 51.9989 92.16 52H90.31C90.2381 50.0046 89.3949 48.1148 87.9577 46.7286C86.5206 45.3423 84.6018 44.5676 82.605 44.5676C80.6083 44.5676 78.6894 45.3423 77.2523 46.7286C75.8151 48.1148 74.9719 50.0046 74.9 52H62.64L62.02 51.9C60.19 50.75 47.02 42.53 40.59 41.25L40.25 41.18C37.6687 40.6519 35.0322 40.4436 32.4 40.56C30.34 40.56 28.0733 40.6634 25.6 40.87C25.75 40.14 25.99 39.15 26.29 38.04H30.94C31.2052 38.04 31.4596 37.9347 31.6471 37.7471C31.8346 37.5596 31.94 37.3052 31.94 37.04V27.93C38.2154 26.8191 44.5681 26.2005 50.94 26.08C53.4306 25.9718 55.9251 26.1632 58.37 26.65L58.73 26.73C64.27 27.84 75.83 34.84 78.91 36.73C79.8033 38.7125 81.251 40.3942 83.0786 41.5724C84.9062 42.7505 87.0356 43.3748 89.21 43.37C89.7688 43.3695 90.3269 43.3294 90.88 43.25C92.4437 45.5257 93.2423 48.2401 93.16 51C93.1635 51.1374 93.1387 51.274 93.0871 51.4013C93.0355 51.5286 92.9582 51.6439 92.86 51.74V51.71Z"/>
</mask>
<path d="M83.89 38.32C85.8287 38.9815 87.6167 40.0216 89.15 41.38C87.7151 41.3796 86.2999 41.0462 85.0158 40.4058C83.7317 39.7655 82.6137 38.8359 81.75 37.69C82.4755 37.8563 83.1901 38.0667 83.89 38.32ZM29.94 29.52V36.06H26.88C27.5607 33.7368 28.5926 31.5313 29.94 29.52ZM11.44 46V52.54H8.38C9.06072 50.2168 10.0926 48.0113 11.44 46ZM69.74 69.51C69.7035 69.8504 69.6297 70.1857 69.52 70.51C69.1612 71.6657 68.442 72.6763 67.4677 73.3939C66.4934 74.1116 65.3151 74.4988 64.105 74.4988C62.8949 74.4988 61.7166 74.1116 60.7423 73.3939C59.768 72.6763 59.0488 71.6657 58.69 70.51C58.5777 70.1859 58.5006 69.8506 58.46 69.51C58.4198 69.2453 58.3997 68.9778 58.4 68.71C58.395 68.6468 58.395 68.5833 58.4 68.52C58.4616 67.0509 59.0885 65.6624 60.1498 64.6447C61.2111 63.627 62.6246 63.0587 64.095 63.0587C65.5654 63.0587 66.9789 63.627 68.0402 64.6447C69.1015 65.6624 69.7284 67.0509 69.79 68.52C69.795 68.5799 69.795 68.6401 69.79 68.7C69.7992 68.9776 69.7824 69.2555 69.74 69.53V69.51ZM70.65 57.86C69.2151 57.8596 67.7999 57.5262 66.5158 56.8858C65.2317 56.2455 64.1137 55.3159 63.25 54.17C63.9755 54.3363 64.6901 54.5467 65.39 54.8C67.3304 55.4675 69.1184 56.5145 70.65 57.88V57.86ZM14.1 64.62C13.06 64.6322 12.0646 65.0439 11.3199 65.7699C10.5753 66.496 10.1384 67.4807 10.1 68.52C10.095 68.5833 10.095 68.6468 10.1 68.71C10.1009 68.982 10.1277 69.2532 10.18 69.52C10.2435 69.8696 10.3616 70.2071 10.53 70.52C10.852 71.1961 11.3573 71.7683 11.9884 72.1714C12.6196 72.5745 13.3512 72.7923 14.1 72.8C14.855 72.7967 15.5941 72.5824 16.2337 72.1813C16.8734 71.7802 17.3882 71.2082 17.72 70.53C17.8832 70.2148 18.001 69.8782 18.07 69.53C18.1223 69.2632 18.1491 68.992 18.15 68.72C18.155 68.6601 18.155 68.5999 18.15 68.54C18.1138 67.4894 17.6714 66.4938 16.9161 65.7627C16.1607 65.0316 15.1512 64.622 14.1 64.62ZM16 69.52C15.8197 69.9349 15.5159 70.2841 15.13 70.52C14.8249 70.6933 14.4808 70.7862 14.13 70.79C13.7787 70.7894 13.4338 70.6963 13.13 70.52C12.8212 70.3279 12.567 70.0596 12.3919 69.7408C12.2168 69.4221 12.1266 69.0637 12.13 68.7C12.125 68.6401 12.125 68.5799 12.13 68.52C12.13 67.9803 12.3444 67.4627 12.726 67.0811C13.1077 66.6994 13.6253 66.485 14.165 66.485C14.7047 66.485 15.2223 66.6994 15.604 67.0811C15.9856 67.4627 16.2 67.9803 16.2 68.52C16.205 68.5799 16.205 68.6401 16.2 68.7C16.1876 68.9838 16.1197 69.2624 16 69.52ZM56.62 70.52C56.9966 72.2287 57.9453 73.7576 59.3092 74.8536C60.6731 75.9496 62.3703 76.547 64.12 76.547C65.8697 76.547 67.5669 75.9496 68.9308 74.8536C70.2947 73.7576 71.2434 72.2287 71.62 70.52H73.68C74.4756 70.52 75.2387 70.204 75.8013 69.6413C76.3639 69.0787 76.68 68.3157 76.68 67.52C76.7864 64.1386 75.7273 60.8234 73.68 58.13L73.51 58C72.1412 56.332 70.4379 54.9693 68.51 54H75.06C75.4366 55.7087 76.3853 57.2376 77.7492 58.3336C79.1131 59.4296 80.8103 60.027 82.56 60.027C84.3097 60.027 86.0069 59.4296 87.3708 58.3336C88.7347 57.2376 89.6834 55.7087 90.06 54H92.12C92.9156 54 93.6787 53.684 94.2413 53.1213C94.8039 52.5587 95.12 51.7957 95.12 51C95.2264 47.6186 94.1673 44.3034 92.12 41.61L92 41.49C88.09 36.65 81.85 35.6 80.51 35.42C78.68 34.27 65.51 26.05 59.08 24.77L58.74 24.7C56.1587 24.1719 53.5222 23.9636 50.89 24.08C44.141 24.2136 37.4132 24.8824 30.77 26.08C30.7006 26.0893 30.6331 26.1095 30.57 26.14C30.5034 26.1707 30.4398 26.2075 30.38 26.25L30.25 26.35C26.32 29.28 24.25 37.49 23.58 40.85C23.3435 40.913 23.1153 41.0036 22.9 41.12C19.66 41.4467 16.1267 41.93 12.3 42.57C12.2306 42.5793 12.1631 42.5995 12.1 42.63C12.0334 42.6607 11.9698 42.6975 11.91 42.74L11.78 42.84C7.8 45.8 5.75 54 5.06 57.37C4.25172 57.5951 3.53939 58.0787 3.03194 58.7468C2.52449 59.415 2.24984 60.231 2.25 61.07V68.12C2.25521 68.4418 2.32375 68.7593 2.45172 69.0546C2.57968 69.3499 2.76455 69.617 2.99578 69.8408C3.22701 70.0646 3.50005 70.2407 3.79933 70.3589C4.09861 70.4772 4.41825 70.5353 4.74 70.53H6.61C6.98659 72.2387 7.93534 73.7676 9.29921 74.8636C10.6631 75.9596 12.3603 76.557 14.11 76.557C15.8597 76.557 17.5569 75.9596 18.9208 74.8636C20.2847 73.7676 21.2334 72.2387 21.61 70.53H56.66L56.62 70.52ZM19.74 69.53C19.7035 69.8704 19.6297 70.2057 19.52 70.53C19.1612 71.6857 18.442 72.6963 17.4677 73.4139C16.4934 74.1316 15.3151 74.5188 14.105 74.5188C12.8949 74.5188 11.7166 74.1316 10.7423 73.4139C9.76796 72.6963 9.04882 71.6857 8.69 70.53C8.57775 70.2059 8.50064 69.8706 8.46 69.53C8.41978 69.2653 8.39972 68.9978 8.4 68.73C8.39502 68.6668 8.39502 68.6033 8.4 68.54C8.46157 67.0709 9.0885 65.6824 10.1498 64.6647C11.2111 63.6469 12.6246 63.0787 14.095 63.0787C15.5654 63.0787 16.9789 63.6469 18.0402 64.6647C19.1015 65.6824 19.7284 67.0709 19.79 68.54C19.795 68.5999 19.795 68.6601 19.79 68.72C19.7979 68.991 19.7812 69.2621 19.74 69.53ZM56.66 68.53H21.81C21.7381 66.5346 20.8948 64.6448 19.4577 63.2586C18.0206 61.8723 16.1017 61.0977 14.105 61.0977C12.1082 61.0977 10.1894 61.8723 8.75226 63.2586C7.31515 64.6448 6.4719 66.5346 6.4 68.53H4.74C4.62112 68.5385 4.50361 68.5005 4.41221 68.424C4.32081 68.3475 4.26265 68.2385 4.25 68.12V61.07C4.24444 60.5958 4.42423 60.1381 4.75109 59.7944C5.07795 59.4507 5.52606 59.2482 6 59.23C6.19107 59.2178 6.37461 59.151 6.52883 59.0376C6.68305 58.9241 6.80147 58.7688 6.87 58.59C6.90049 58.4993 6.92062 58.4053 6.93 58.31C7.05 57.65 7.35 56.25 7.81 54.56H12.46C12.7252 54.56 12.9796 54.4547 13.1671 54.2671C13.3546 54.0796 13.46 53.8252 13.46 53.56V44.43C16.1267 43.9967 18.63 43.64 20.97 43.36C21.85 43.25 22.69 43.16 23.52 43.08C26.83 42.75 29.8 42.58 32.41 42.58C34.9006 42.4718 37.3951 42.6632 39.84 43.15L40.2 43.23C44.87 44.17 53.82 49.29 58.36 52.01L60.36 53.24C60.48 53.5067 60.61 53.7667 60.75 54.02C61.7217 55.7981 63.1553 57.281 64.8994 58.3123C66.6436 59.3437 68.6337 59.8853 70.66 59.88C71.2188 59.8795 71.7769 59.8394 72.33 59.76C73.912 62.0364 74.7249 64.7589 74.65 67.53C74.6495 67.6623 74.6227 67.7932 74.5712 67.9151C74.5197 68.037 74.4445 68.1474 74.35 68.24C74.1637 68.4248 73.9123 68.5289 73.65 68.53H71.81C71.7381 66.5346 70.8949 64.6448 69.4577 63.2586C68.0206 61.8723 66.1018 61.0977 64.105 61.0977C62.1083 61.0977 60.1894 61.8723 58.7523 63.2586C57.3152 64.6448 56.4719 66.5346 56.4 68.53H21.29H56.66ZM88.24 53C88.197 53.3412 88.1165 53.6765 88 54C87.6412 55.1557 86.922 56.1663 85.9477 56.8839C84.9734 57.6016 83.7951 57.9888 82.585 57.9888C81.3749 57.9888 80.1966 57.6016 79.2223 56.8839C78.248 56.1663 77.5288 55.1557 77.17 54C77.0781 53.6736 77.0211 53.3384 77 53C76.9598 52.7353 76.9397 52.4678 76.94 52.2C76.935 52.1368 76.935 52.0733 76.94 52.01C77.0584 50.5858 77.7074 49.258 78.7586 48.2897C79.8097 47.3214 81.1862 46.7833 82.6154 46.7821C84.0446 46.7808 85.422 47.3165 86.4749 48.2829C87.5277 49.2493 88.1791 50.576 88.3 52C88.305 52.0599 88.305 52.1201 88.3 52.18C88.3052 52.4546 88.2851 52.7291 88.24 53ZM92.86 51.71C92.6737 51.8948 92.4223 51.9989 92.16 52H90.31C90.2381 50.0046 89.3949 48.1148 87.9577 46.7286C86.5206 45.3423 84.6018 44.5676 82.605 44.5676C80.6083 44.5676 78.6894 45.3423 77.2523 46.7286C75.8151 48.1148 74.9719 50.0046 74.9 52H62.64L62.02 51.9C60.19 50.75 47.02 42.53 40.59 41.25L40.25 41.18C37.6687 40.6519 35.0322 40.4436 32.4 40.56C30.34 40.56 28.0733 40.6634 25.6 40.87C25.75 40.14 25.99 39.15 26.29 38.04H30.94C31.2052 38.04 31.4596 37.9347 31.6471 37.7471C31.8346 37.5596 31.94 37.3052 31.94 37.04V27.93C38.2154 26.8191 44.5681 26.2005 50.94 26.08C53.4306 25.9718 55.9251 26.1632 58.37 26.65L58.73 26.73C64.27 27.84 75.83 34.84 78.91 36.73C79.8033 38.7125 81.251 40.3942 83.0786 41.5724C84.9062 42.7505 87.0356 43.3748 89.21 43.37C89.7688 43.3695 90.3269 43.3294 90.88 43.25C92.4437 45.5257 93.2423 48.2401 93.16 51C93.1635 51.1374 93.1387 51.274 93.0871 51.4013C93.0355 51.5286 92.9582 51.6439 92.86 51.74V51.71Z" stroke="#00008F" stroke-width="2" mask="url(#path-3-inside-1)"/>
<path d="M77.1467 37.9821L77.2211 38.0332L77.2433 38.0388C77.3009 38.0939 77.3448 38.1623 77.3708 38.2385C77.4052 38.3391 77.4065 38.4481 77.3748 38.5495C77.343 38.6509 77.2797 38.7396 77.1941 38.8027C77.1087 38.8656 77.0053 38.8997 76.8992 38.9001C76.899 38.9001 76.8989 38.9001 76.8988 38.9001H38.9012C38.901 38.9001 38.9009 38.9001 38.9007 38.9001C37.892 38.8976 36.9253 38.4952 36.2128 37.781C35.5002 37.0668 35.1 36.099 35.1 35.0901V29.7501H35.1L35.1 29.7476C35.0994 29.6232 35.1451 29.503 35.2283 29.4106C35.3115 29.3181 35.4262 29.26 35.55 29.2476L35.5543 29.2471C35.8158 29.2209 45.6361 28.2376 50.8556 27.9101H50.9H50.9147L50.9294 27.9092C56.2252 27.5974 62.5965 29.9735 67.7798 32.5334C72.902 35.063 76.7738 37.7256 77.1388 37.9766L77.1467 37.9821ZM49.9 37.8901H50.4V37.3901V29.4801V28.9433L49.8646 28.9813C45.4872 29.2918 38.9315 29.9124 36.5498 30.1526L36.1 30.1979V30.6501V35.0801C36.1 35.8232 36.3944 36.5361 36.9187 37.0627C37.4431 37.5894 38.1547 37.8868 38.8978 37.8901H38.9H49.9ZM51.4 37.3901V37.8901H51.9H73.45H75.2398L73.7091 36.9624C71.3634 35.5409 67.8033 33.5277 63.8941 31.8685C59.9947 30.2135 55.7007 28.8901 51.9 28.8901H51.4V29.3901V37.3901ZM79.0984 52.0593L79.0993 52.0489L79.0996 52.0385C79.1333 51.1275 79.5162 50.2644 80.169 49.628C80.8209 48.9924 81.6921 48.6315 82.6024 48.6201C83.5187 48.6224 84.3988 48.9778 85.0596 49.6125C85.7212 50.248 86.112 51.1144 86.1504 52.031L86.1509 52.0412L86.1517 52.0513C86.1544 52.0838 86.1544 52.1164 86.1517 52.1488L86.1501 52.1686L86.15 52.1884C86.1492 52.4284 86.1256 52.6677 86.0795 52.9032C86.0196 53.2051 85.9174 53.4969 85.776 53.7702L85.7724 53.7771L85.7691 53.784C85.4819 54.3834 85.0323 54.8901 84.4713 55.2465C83.9112 55.6024 83.2627 55.7941 82.5992 55.8C81.9388 55.796 81.293 55.6051 80.7364 55.2495C80.1789 54.8934 79.7338 54.3864 79.4526 53.7876L79.4495 53.7809L79.4462 53.7744C79.3132 53.5114 79.2212 53.2297 79.1734 52.9389L79.1721 52.9314L79.1706 52.9238C79.1244 52.6881 79.1008 52.4486 79.1 52.2085L79.0999 52.1896L79.0984 52.1708C79.0955 52.1337 79.0955 52.0964 79.0984 52.0593ZM83.867 54.4348L83.874 54.4308L83.8808 54.4266C84.3526 54.1381 84.7244 53.7118 84.946 53.2052C85.0904 52.8926 85.1729 52.555 85.1891 52.2111C85.195 52.1343 85.1952 52.0571 85.1899 51.9802C85.1847 51.3151 84.9182 50.6783 84.4475 50.2075C83.9721 49.7321 83.3273 49.4651 82.655 49.4651C81.9827 49.4651 81.3379 49.7321 80.8625 50.2075C80.3917 50.6783 80.1253 51.3151 80.1201 51.9802C80.1151 52.0525 80.115 52.1251 80.1199 52.1974C80.1195 52.6393 80.2308 53.0742 80.4437 53.4617C80.6601 53.8556 80.9742 54.1872 81.3559 54.4246L81.3624 54.4287L81.3691 54.4326C81.7489 54.6529 82.18 54.7693 82.6191 54.7701L82.6254 54.77C83.061 54.7653 83.4882 54.65 83.867 54.4348Z" stroke="#00008F"/>
</svg>
