<svg viewBox="0 0 48 48" fill="none" xmlns="http://www.w3.org/2000/svg"><path d="M25.695 28.96v-2.715a1.405 1.405 0 00-1.145-1.38l-3.93-1-2.545-2.31c-1.5-1.365-2.5-2.16-3.83-2.16H8.35c-.765 0-1.71 1.19-2.205 1.78l-2.325 2.95a1 1 0 01-.31.235.825.825 0 00-.425.72v3.56m5.875 2.105h9.1-9.1zm-.49-1.785h10.075H8.47z" stroke="currentColor" stroke-linecap="round" stroke-linejoin="round"/><path d="M6.61 33.095a2.35 2.35 0 100-4.7 2.35 2.35 0 000 4.7z" stroke="currentColor" stroke-linecap="round" stroke-linejoin="round"/><path d="M6.61 31.245a.5.5 0 100-1 .5.5 0 000 1zM20.41 33.095a2.35 2.35 0 100-4.7 2.35 2.35 0 000 4.7z" stroke="currentColor" stroke-linecap="round" stroke-linejoin="round"/><path d="M20.41 31.245a.5.5 0 100-1 .5.5 0 000 1zM22.755 30.745h2.79A.735.735 0 0026.28 30c0-.405-.33-1-.735-1H22.24M4.26 30.745h-1A.734.734 0 012.5 30v-.145A.86.86 0 013.235 29h1.54m20.92-2.07a2.115 2.115 0 01-1.47-.675 5.154 5.154 0 01-.88-1.675M6.61 24.14L8.56 22a1.295 1.295 0 01.965-.43h3.83c.84-.002 1.649.31 2.27.875L17.5 24.14H6.61zm0 0h10.91m-5.715 4.82v-7.415m2.44 4.71h-.59m-10.57.085c1.645 0 2.045-2.055.55-2.055M26.27 29.6h8.49m-8.65-1.92h9.28m9.345-.07v-3.89a1.835 1.835 0 00-1.5-1.805L38.11 20.09l-3.33-3c-1.935-1.785-3.3-2.17-5-2.17h-7.705C20.135 14.905 17 20.35 17 20.35M37.83 32.67a3.07 3.07 0 100-6.14 3.07 3.07 0 000 6.14z" stroke="currentColor" stroke-linecap="round" stroke-linejoin="round"/><path d="M37.83 30.75a1.15 1.15 0 100-2.3 1.15 1.15 0 000 2.3zM40.895 29.6h3.645a.96.96 0 100-1.92h-4.315m4.51-3.07a2.78 2.78 0 01-1.92-.875 6.72 6.72 0 01-1.15-2.19M27.36 27.68V17.325m2.415 5.755h-.77m-8.87-1.92l2.05-3.2a1.905 1.905 0 011.425-.635h5.655a5 5 0 013.355 1.295l2.79 2.54H20.135z" stroke="currentColor" stroke-linecap="round" stroke-linejoin="round"/></svg>