<svg width="96" height="96" viewBox="0 0 96 96" fill="none" xmlns="http://www.w3.org/2000/svg"><path d="M58.6 54.446l.092.08.051.013a.5.5 0 01-.344.861s0 0 0 0H20.4s0 0 0 0a3.81 3.81 0 01-3.801-3.81v-5.34h0v-.002a.5.5 0 01.45-.5s0 0 0 0l3.747-.37h.002l1.997-.19s0 0 0 0c3.164-.29 6.938-.618 9.56-.788h.073c3.88-.23 8.347.986 12.516 2.671 4.158 1.681 7.968 3.81 10.515 5.356l.003.002c1.45.868 2.487 1.568 2.948 1.878l.134.09.056.05zm-38.19-.056h1.191l-.01.02H31.9v-8.949l-.537.04-4.42.33h0-.005c-1.43.12-2.892.251-4.225.381l-1.998.18h0-.004l-2.65.26-.451.045v4.883a2.81 2.81 0 002.798 2.81h.002zm12.5-.5v.5h.5l21.55.01h1.768l-1.506-.926a83.434 83.434 0 00-3.27-1.891l-.001-.001c-4.101-2.256-9.688-4.898-14.89-5.834a19.745 19.745 0 00-3.649-.358l-.502-.002v8.502zm27.688 14.67l.001-.011v-.01a3.55 3.55 0 013.503-3.419 3.56 3.56 0 013.548 3.437v.012l.002.012a.588.588 0 010 .098l-.002.02v.02c0 .24-.024.479-.07.714-.06.302-.163.594-.304.867h0l-.005.01a3.55 3.55 0 01-3.17 1.99 3.5 3.5 0 01-3.12-1.995l-.005-.011-.006-.01a2.892 2.892 0 01-.298-.853h0l-.001-.007a3.784 3.784 0 01-.071-.716v-.018l-.002-.02a.716.716 0 010-.11zm4.779 2.395l.007-.004.007-.004a2.7 2.7 0 001.065-1.222A2.67 2.67 0 0066.7 68.5a2.535 2.535 0 00-5.07 0 1.59 1.59 0 000 .217 2.62 2.62 0 001.236 2.228l.006.004.007.004c.38.22.811.336 1.25.337h.006c.436-.005.863-.12 1.242-.335z" stroke="#00008F"/><mask id="a" fill="#fff"><path d="M83.89 38.32a15.461 15.461 0 015.26 3.06 9.269 9.269 0 01-7.4-3.69c.725.166 1.44.377 2.14.63zm-53.95-8.8v6.54h-3.06a23.748 23.748 0 013.06-6.54zM11.44 46v6.54H8.38A23.749 23.749 0 0111.44 46zm58.3 23.51c-.036.34-.11.676-.22 1a5.67 5.67 0 01-10.83 0 4.784 4.784 0 01-.23-1 5.29 5.29 0 01-.06-.8 1.205 1.205 0 010-.19 5.7 5.7 0 0111.39 0c.005.06.005.12 0 .18.01.278-.008.555-.05.83v-.02zm.91-11.65a9.269 9.269 0 01-7.4-3.69c.725.166 1.44.377 2.14.63a15.462 15.462 0 015.26 3.08v-.02zM14.1 64.62a4.05 4.05 0 00-4 3.9 1.205 1.205 0 000 .19c0 .272.028.543.08.81.063.35.182.687.35 1a4 4 0 003.57 2.28 4.05 4.05 0 003.62-2.27c.163-.315.281-.652.35-1 .052-.267.08-.538.08-.81a4.06 4.06 0 00-4.05-4.1zm1.9 4.9a2.2 2.2 0 01-.87 1 2.07 2.07 0 01-1 .27 2 2 0 01-1-.27 2.12 2.12 0 01-1-1.82 1.082 1.082 0 010-.18 2.035 2.035 0 114.07 0 2.17 2.17 0 01-.2 1zm40.62 1a7.68 7.68 0 0015 0h2.06a3 3 0 003-3 14.75 14.75 0 00-3-9.39l-.17-.13a15.44 15.44 0 00-5-4h6.55a7.68 7.68 0 0015 0h2.06a3 3 0 003-3 14.75 14.75 0 00-3-9.39l-.12-.12c-3.91-4.84-10.15-5.89-11.49-6.07-1.83-1.15-15-9.37-21.43-10.65l-.34-.07a32.091 32.091 0 00-7.85-.62c-6.749.134-13.477.802-20.12 2a.661.661 0 00-.2.06c-.067.03-.13.067-.19.11l-.13.1c-3.93 2.93-6 11.14-6.67 14.5a3.116 3.116 0 00-.68.27c-3.24.327-6.773.81-10.6 1.45a.661.661 0 00-.2.06c-.067.03-.13.067-.19.11l-.13.1C7.8 45.8 5.75 54 5.06 57.37a3.84 3.84 0 00-2.81 3.7v7.05a2.45 2.45 0 002.49 2.41h1.87a7.68 7.68 0 0015 0h35.05l-.04-.01zm-36.88-.99c-.037.34-.11.676-.22 1a5.67 5.67 0 01-10.83 0 4.79 4.79 0 01-.23-1 5.29 5.29 0 01-.06-.8 1.21 1.21 0 010-.19 5.7 5.7 0 0111.39 0c.005.06.005.12 0 .18.008.271-.009.542-.05.81zm36.92-1H21.81a7.71 7.71 0 00-15.41 0H4.74a.46.46 0 01-.49-.41v-7.05A1.82 1.82 0 016 59.23a1 1 0 00.87-.64c.03-.09.05-.185.06-.28.12-.66.42-2.06.88-3.75h4.65a1 1 0 001-1v-9.13c2.667-.433 5.17-.79 7.51-1.07.88-.11 1.72-.2 2.55-.28 3.31-.33 6.28-.5 8.89-.5a31.13 31.13 0 017.43.57l.36.08c4.67.94 13.62 6.06 18.16 8.78l2 1.23a11.26 11.26 0 0010.3 6.64c.559 0 1.117-.04 1.67-.12a13 13 0 012.32 7.77 1 1 0 01-.3.71 1 1 0 01-.7.29h-1.84a7.71 7.71 0 00-15.41 0H21.29h35.37zM88.24 53a4.677 4.677 0 01-.24 1 5.67 5.67 0 01-10.83 0 4.79 4.79 0 01-.17-1 5.29 5.29 0 01-.06-.8 1.205 1.205 0 010-.19A5.7 5.7 0 0188.3 52c.005.06.005.12 0 .18.005.275-.015.55-.06.82zm4.62-1.29a1 1 0 01-.7.29h-1.85a7.71 7.71 0 00-15.41 0H62.64l-.62-.1c-1.83-1.15-15-9.37-21.43-10.65l-.34-.07a32.091 32.091 0 00-7.85-.62c-2.06 0-4.327.103-6.8.31.15-.73.39-1.72.69-2.83h4.65a1 1 0 001-1v-9.11a122.26 122.26 0 0119-1.85 31.13 31.13 0 017.43.57l.36.08c5.54 1.11 17.1 8.11 20.18 10a11.27 11.27 0 0010.3 6.64c.559 0 1.117-.04 1.67-.12A13 13 0 0193.16 51a1 1 0 01-.3.74v-.03z"/></mask><path d="M83.89 38.32a15.461 15.461 0 015.26 3.06 9.269 9.269 0 01-7.4-3.69c.725.166 1.44.377 2.14.63zm-53.95-8.8v6.54h-3.06a23.748 23.748 0 013.06-6.54zM11.44 46v6.54H8.38A23.749 23.749 0 0111.44 46zm58.3 23.51c-.036.34-.11.676-.22 1a5.67 5.67 0 01-10.83 0 4.784 4.784 0 01-.23-1 5.29 5.29 0 01-.06-.8 1.205 1.205 0 010-.19 5.7 5.7 0 0111.39 0c.005.06.005.12 0 .18.01.278-.008.555-.05.83v-.02zm.91-11.65a9.269 9.269 0 01-7.4-3.69c.725.166 1.44.377 2.14.63a15.462 15.462 0 015.26 3.08v-.02zM14.1 64.62a4.05 4.05 0 00-4 3.9 1.205 1.205 0 000 .19c0 .272.028.543.08.81.063.35.182.687.35 1a4 4 0 003.57 2.28 4.05 4.05 0 003.62-2.27c.163-.315.281-.652.35-1 .052-.267.08-.538.08-.81a4.06 4.06 0 00-4.05-4.1zm1.9 4.9a2.2 2.2 0 01-.87 1 2.07 2.07 0 01-1 .27 2 2 0 01-1-.27 2.12 2.12 0 01-1-1.82 1.082 1.082 0 010-.18 2.035 2.035 0 114.07 0 2.17 2.17 0 01-.2 1zm40.62 1a7.68 7.68 0 0015 0h2.06a3 3 0 003-3 14.75 14.75 0 00-3-9.39l-.17-.13a15.44 15.44 0 00-5-4h6.55a7.68 7.68 0 0015 0h2.06a3 3 0 003-3 14.75 14.75 0 00-3-9.39l-.12-.12c-3.91-4.84-10.15-5.89-11.49-6.07-1.83-1.15-15-9.37-21.43-10.65l-.34-.07a32.091 32.091 0 00-7.85-.62c-6.749.134-13.477.802-20.12 2a.661.661 0 00-.2.06c-.067.03-.13.067-.19.11l-.13.1c-3.93 2.93-6 11.14-6.67 14.5a3.116 3.116 0 00-.68.27c-3.24.327-6.773.81-10.6 1.45a.661.661 0 00-.2.06c-.067.03-.13.067-.19.11l-.13.1C7.8 45.8 5.75 54 5.06 57.37a3.84 3.84 0 00-2.81 3.7v7.05a2.45 2.45 0 002.49 2.41h1.87a7.68 7.68 0 0015 0h35.05l-.04-.01zm-36.88-.99c-.037.34-.11.676-.22 1a5.67 5.67 0 01-10.83 0 4.79 4.79 0 01-.23-1 5.29 5.29 0 01-.06-.8 1.21 1.21 0 010-.19 5.7 5.7 0 0111.39 0c.005.06.005.12 0 .18.008.271-.009.542-.05.81zm36.92-1H21.81a7.71 7.71 0 00-15.41 0H4.74a.46.46 0 01-.49-.41v-7.05A1.82 1.82 0 016 59.23a1 1 0 00.87-.64c.03-.09.05-.185.06-.28.12-.66.42-2.06.88-3.75h4.65a1 1 0 001-1v-9.13c2.667-.433 5.17-.79 7.51-1.07.88-.11 1.72-.2 2.55-.28 3.31-.33 6.28-.5 8.89-.5a31.13 31.13 0 017.43.57l.36.08c4.67.94 13.62 6.06 18.16 8.78l2 1.23a11.26 11.26 0 0010.3 6.64c.559 0 1.117-.04 1.67-.12a13 13 0 012.32 7.77 1 1 0 01-.3.71 1 1 0 01-.7.29h-1.84a7.71 7.71 0 00-15.41 0H21.29h35.37zM88.24 53a4.677 4.677 0 01-.24 1 5.67 5.67 0 01-10.83 0 4.79 4.79 0 01-.17-1 5.29 5.29 0 01-.06-.8 1.205 1.205 0 010-.19A5.7 5.7 0 0188.3 52c.005.06.005.12 0 .18.005.275-.015.55-.06.82zm4.62-1.29a1 1 0 01-.7.29h-1.85a7.71 7.71 0 00-15.41 0H62.64l-.62-.1c-1.83-1.15-15-9.37-21.43-10.65l-.34-.07a32.091 32.091 0 00-7.85-.62c-2.06 0-4.327.103-6.8.31.15-.73.39-1.72.69-2.83h4.65a1 1 0 001-1v-9.11a122.26 122.26 0 0119-1.85 31.13 31.13 0 017.43.57l.36.08c5.54 1.11 17.1 8.11 20.18 10a11.27 11.27 0 0010.3 6.64c.559 0 1.117-.04 1.67-.12A13 13 0 0193.16 51a1 1 0 01-.3.74v-.03z" stroke="#00008F" stroke-width="2" mask="url(#a)"/><path d="M77.147 37.982l.074.051.022.006a.5.5 0 01-.344.861s0 0 0 0H38.9s0 0 0 0a3.81 3.81 0 01-3.801-3.81v-5.34h0v-.002a.5.5 0 01.45-.5h.004c.262-.027 10.082-1.01 15.302-1.338h.073c5.296-.313 11.667 2.064 16.85 4.623 5.123 2.53 8.995 5.193 9.36 5.444l.008.005zM49.9 37.89h.5V28.943l-.535.038c-4.378.31-10.934.931-13.315 1.172l-.45.045v4.882a2.81 2.81 0 002.798 2.81H49.9zm1.5-.5v.5h23.84l-1.53-.928c-2.347-1.421-5.907-3.434-9.816-5.094-3.9-1.654-8.193-2.978-11.994-2.978h-.5v8.5zm27.698 14.67l.001-.011v-.01a3.55 3.55 0 013.503-3.419 3.56 3.56 0 013.548 3.411v.01l.002.01a.588.588 0 010 .098l-.002.02v.02c0 .24-.024.479-.07.714-.06.302-.163.594-.304.867l-.004.007-.003.007A3.55 3.55 0 0182.6 55.8a3.5 3.5 0 01-3.146-2.012l-.004-.007-.003-.007a2.89 2.89 0 01-.273-.835v-.008l-.002-.007a3.784 3.784 0 01-.071-.715v-.02l-.002-.018a.716.716 0 010-.112zm4.769 2.375l.007-.004.007-.004a2.7 2.7 0 001.065-1.222 2.67 2.67 0 00.244-1.225 2.535 2.535 0 00-5.07 0 1.59 1.59 0 000 .217 2.62 2.62 0 001.236 2.228l.006.004.007.004c.38.22.811.336 1.25.337h.006a2.57 2.57 0 001.242-.335z" stroke="#00008F"/></svg>