<svg viewBox="0 0 96 96" fill="none" xmlns="http://www.w3.org/2000/svg"><path d="M39.39 44.22v-.5h-6.24v12.83h6.24V44.22zm11.67 0v-.5h-6.24v12.83h6.24V44.22zm11.69 0v-.5H56.5v12.83h6.25V44.22zM32.28 57.5V42.83h8V57.5h-8zm11.68 0V42.83h8V57.5h-8zm11.67 0V42.83h8V57.5h-8z" stroke="currentColor"/><path d="M48.059 21.34a.96.96 0 00-.668.292l-.01.01-.01.011c-.059.07-.126.131-.199.185h0l-18.68 13.86-.202.15V76.6H42.1v-9.14c0-3.632 2.662-6.5 5.84-6.5 3.177 0 5.84 2.887 5.84 6.5v9.1h13.93V36.092l-.198-.15-18.45-14-.003-.003a1.38 1.38 0 01-.257-.25m-.743-.349l.011.5-.012-.5s0 0 0 0zm0 0a.921.921 0 01.743.35m0 0l-.392.31.393-.31h-.001zM67.71 32.142L78.36 14.95l10.63 17.192V77.5h-82V32.142L17.64 14.95l10.65 17.193v2.561l.798-.591 17.55-13 .04-.03.032-.036a1.85 1.85 0 011.362-.606h0a1.8 1.8 0 011.433.697l.04.051.052.04 17.31 13.17.803.61v-2.866zM26.89 76.6h.5V32.368l-.075-.122-9.25-14.91-.425-.684-.425.684-9.25 14.91-.075.121V76.6h19zm25.49-.04h.5v-9.1c0-3.011-2.163-5.58-4.94-5.58-2.777 0-4.94 2.569-4.94 5.58v9.1h9.38zm35.23 0h.5V32.368l-.075-.122-9.25-14.91-.425-.684-.425.684-9.25 14.91-.075.121V76.56h19z" stroke="currentColor"/><path d="M20.65 44.22v-.5h-6.24v12.83h6.24V44.22zm61.27 0v-.5h-6.23v12.83h6.23V44.22zM13.5 57.5V42.83h8V57.5h-8zm61.32 0V42.83h8V57.5h-8z" stroke="currentColor"/></svg>