<svg viewBox="0 0 48 48" fill="none" xmlns="http://www.w3.org/2000/svg"><path d="M7.776 24.224c1.216 0 2.208.992 2.208 2.208a2.752 2.752 0 01-2.752 2.752 3.442 3.442 0 01-3.456-3.456c-.032-2.368 1.92-4.288 4.288-4.288 2.976 0 5.312 2.848 5.312 5.824v12.224h-4.8V28.896m31.52-4.672a2.212 2.212 0 00-2.208 2.208 2.752 2.752 0 002.752 2.752 3.442 3.442 0 003.456-3.456c0-2.4-1.952-4.32-4.32-4.32-2.976 0-5.312 2.848-5.312 5.824v12.224h4.832v-10.56" stroke="currentColor" stroke-miterlimit="10" stroke-linecap="round"/><path d="M13.44 30.112h21.056v6.848h-21.12l.064-6.848z" stroke="currentColor" stroke-miterlimit="10" stroke-linecap="round"/><path d="M34.496 30.112H13.44c0-3.008-.16-6.336-2.4-7.712v-9.056c0-2.592 2.688-4.704 5.984-4.704h13.792c3.264 0 5.984 2.144 5.984 4.704v9.088c-2.624 2.336-2.304 4.544-2.304 7.68z" stroke="currentColor" stroke-miterlimit="10" stroke-linecap="round"/></svg>