<svg width="96" height="96" viewBox="0 0 96 96" fill="none" xmlns="http://www.w3.org/2000/svg">
<path d="M58.6366 47.7408V35.0186H37.3636V47.7408H12.858V67.2323H83.1421V47.7408H58.6366Z" stroke="#00008F" stroke-width="2" stroke-linecap="round" stroke-linejoin="round"/>
<path d="M87.1391 42.2222H85.6196C84.2513 42.2222 83.142 43.239 83.142 44.4934V70.4702C83.142 71.7246 84.2513 72.7414 85.6196 72.7414H87.1391C88.5075 72.7414 89.6168 71.7246 89.6168 70.4702V44.4934C89.6168 43.239 88.5075 42.2222 87.1391 42.2222Z" stroke="#00008F" stroke-width="2" stroke-linecap="round" stroke-linejoin="round"/>
<path d="M10.3802 42.2222H8.86071C7.49234 42.2222 6.38306 43.239 6.38306 44.4934V70.4702C6.38306 71.7246 7.49234 72.7414 8.86071 72.7414H10.3802C11.7486 72.7414 12.8579 71.7246 12.8579 70.4702V44.4934C12.8579 43.239 11.7486 42.2222 10.3802 42.2222Z" stroke="#00008F" stroke-width="2" stroke-linecap="round" stroke-linejoin="round"/>
<path d="M64.6468 32.7566V31.3637C64.6468 30.1094 63.5375 29.0925 62.1691 29.0925H33.8309C32.4626 29.0925 31.3533 30.1094 31.3533 31.3637V32.7566C31.3533 34.011 32.4626 35.0278 33.8309 35.0278H62.1691C63.5375 35.0278 64.6468 34.011 64.6468 32.7566Z" stroke="#00008F" stroke-width="2" stroke-linecap="round" stroke-linejoin="round"/>
<path d="M39.6766 24H56.3233M47.9999 24V29.0836V24Z" stroke="#00008F" stroke-width="2" stroke-linecap="round" stroke-linejoin="round"/>
</svg>
