<svg viewBox="0 0 96 96" fill="none" xmlns="http://www.w3.org/2000/svg"><path d="M43.006 81.081a27 27 0 1020.92-44.18 26.715 26.715 0 00-5.47.56 27 27 0 01-21 21 27.07 27.07 0 001.84 16.62m13.55-60.24a27 27 0 103.74 6l-3.74-6z" stroke="currentColor" stroke-width="2" stroke-linecap="round" stroke-linejoin="round"/><path d="M43.016 88.501v-7.37h7.37m2.45-73.71v7.37h-7.37m-13.51 0v34.4m-7.52-8.84c.61 2.84 3.73 5 7.52 5 4.22 0 7.64-2.7 7.64-6a3.92 3.92 0 00-.34-1.54 6.15 6.15 0 00-2.33-2.54l-5-3.31-5-3.28a6.08 6.08 0 01-2.3-2.54 3.932 3.932 0 01-.35-1.54c0-3.32 3.43-6 7.65-6 3.78 0 6.91 2.17 7.51 5m24.46 26.57v27.52m-5.97-7.07c.49 2.28 3 4 6 4 3.38 0 6.12-2.15 6.12-4.81a3.068 3.068 0 00-.28-1.23 4.78 4.78 0 00-1.84-2l-4-2.62-4-2.62a4.92 4.92 0 01-1.84-2 3 3 0 01-.27-1.22c0-2.66 2.73-4.82 6.11-4.82 3 0 5.53 1.74 6 4" stroke="currentColor" stroke-width="2" stroke-linecap="round" stroke-linejoin="round"/></svg>