<svg viewBox="0 0 96 96" fill="none" xmlns="http://www.w3.org/2000/svg"><path d="M58.637 47.74V35.02H37.364v12.72H12.858v19.491h70.284v-19.49H58.637zm28.503-5.518h-1.52c-1.369 0-2.478 1.017-2.478 2.271V70.47c0 1.255 1.11 2.271 2.478 2.271h1.52c1.367 0 2.477-1.016 2.477-2.27V44.492c0-1.254-1.11-2.27-2.478-2.27zm-76.76 0H8.86c-1.368 0-2.477 1.017-2.477 2.271V70.47c0 1.255 1.11 2.271 2.478 2.271h1.52c1.368 0 2.477-1.016 2.477-2.27V44.492c0-1.254-1.11-2.27-2.478-2.27z" stroke="currentColor" stroke-width="2" stroke-linecap="round" stroke-linejoin="round"/><path d="M64.647 32.757v-1.393c0-1.255-1.11-2.271-2.478-2.271H33.831c-1.368 0-2.478 1.016-2.478 2.27v1.394c0 1.254 1.11 2.27 2.478 2.27h28.338c1.369 0 2.478-1.016 2.478-2.27zM39.677 24h16.646M48 24v5.084V24z" stroke="currentColor" stroke-width="2" stroke-linecap="round" stroke-linejoin="round"/></svg>