<svg viewBox="0 0 96 96" fill="none" xmlns="http://www.w3.org/2000/svg"><path d="M42 43c5 0 7-2 7-5m-9 3h-2a2 2 0 100 4h2a2 2 0 100-4zm30 12a2 2 0 100-4 2 2 0 000 4zm-8 0a2 2 0 100-4 2 2 0 000 4zm16 0a2 2 0 100-4 2 2 0 000 4z" stroke="currentColor" stroke-width="2" stroke-linecap="round" stroke-linejoin="round"/><path d="M54 73v5.32M70 35a16 16 0 00-14 23.82L54 67l8.18-2A16 16 0 1070 35v0zM32 49v5-5zm13 0v5-5zM23 73v5.32V73z" stroke="currentColor" stroke-width="2" stroke-linecap="round" stroke-linejoin="round"/><path d="M32 54l-8.9 1.53c-6.38.93-11.1 6.09-11.1 12.16v5.48a3.89 3.89 0 003.31 3.76l10.86 2a69.499 69.499 0 0024.66 0l10.86-2A3.89 3.89 0 0065 73.17v-7M45 54l8.9 1.53.85.3L45 54z" stroke="currentColor" stroke-width="2" stroke-linecap="round" stroke-linejoin="round"/><path d="M28.46 54.61l7.68 10.09a2.901 2.901 0 002.41 1.3 2.91 2.91 0 002.32-1.16L48.5 54.6M43.27 29h-8.59A12.74 12.74 0 0028 31v8c0 6.64 3.82 12 10.5 12S49 45.71 49 39.07V26s-2.86 3-5.73 3z" stroke="currentColor" stroke-width="2" stroke-linecap="round" stroke-linejoin="round"/><path d="M26 55l-1.59-.26A8.82 8.82 0 0118 50a7.94 7.94 0 004-7V28.31A14.29 14.29 0 0136.27 14h1.19A14.32 14.32 0 0150 21a4.71 4.71 0 015 5v17c0 .64.07 1.276.21 1.9" stroke="currentColor" stroke-width="2" stroke-linecap="round" stroke-linejoin="round"/></svg>