<svg width="96" height="96" viewBox="0 0 96 96" fill="none" xmlns="http://www.w3.org/2000/svg">
<path d="M48 52C50.2091 52 52 50.2091 52 48C52 45.7909 50.2091 44 48 44C45.7909 44 44 45.7909 44 48C44 50.2091 45.7909 52 48 52Z" stroke="#00008F" stroke-width="2" stroke-linecap="round" stroke-linejoin="round"/>
<path d="M34 52C36.2091 52 38 50.2091 38 48C38 45.7909 36.2091 44 34 44C31.7909 44 30 45.7909 30 48C30 50.2091 31.7909 52 34 52Z" stroke="#00008F" stroke-width="2" stroke-linecap="round" stroke-linejoin="round"/>
<path d="M62 52C64.2091 52 66 50.2091 66 48C66 45.7909 64.2091 44 62 44C59.7909 44 58 45.7909 58 48C58 50.2091 59.7909 52 62 52Z" stroke="#00008F" stroke-width="2" stroke-linecap="round" stroke-linejoin="round"/>
<path d="M48 16C42.42 16.0023 36.9376 17.4637 32.0968 20.2391C27.256 23.0145 23.2251 27.0074 20.404 31.8217C17.583 36.6361 16.0698 42.1044 16.0147 47.6841C15.9596 53.2638 17.3645 58.7609 20.09 63.63L16 80L32.37 75.91C36.6372 78.3033 41.3964 79.6863 46.2817 79.9526C51.1671 80.2189 56.0484 79.3614 60.5505 77.4461C65.0526 75.5308 69.0555 72.6087 72.2517 68.9044C75.4478 65.2001 77.752 60.8122 78.9871 56.0781C80.2222 51.344 80.3553 46.3898 79.3762 41.5962C78.3971 36.8026 76.3318 32.2973 73.3392 28.4267C70.3466 24.5561 66.5063 21.4233 62.1136 19.269C57.7208 17.1147 52.8926 15.9964 48 16V16Z" stroke="#00008F" stroke-width="2" stroke-linecap="round" stroke-linejoin="round"/>
</svg>
