<svg viewBox="0 0 96 96" fill="none" xmlns="http://www.w3.org/2000/svg"><path d="M49 30c-2.76 0-5.93-1.45-7-4-1.73 3.68-3.75 6-9 6h-5v7.68C28 45.93 31.82 51 38.5 51S49 45.93 49 39.68V30z" stroke="currentColor" stroke-width="2" stroke-linecap="round" stroke-linejoin="round"/><path d="M49 41a12.43 12.43 0 005-10v-5a4.09 4.09 0 00-4-4 13.91 13.91 0 00-12-7h-1c-7.74 0-14.2 6.12-14.2 13.67V31c0 3.7 2 7.92 4.9 9.84M32 49v5l-8.9 1.53c-6.38.93-11.1 6.09-11.1 12.16v5.48a3.89 3.89 0 003.31 3.76l10.86 2a69.499 69.499 0 0024.66 0l10.86-2A3.89 3.89 0 0065 73.17v-7M45 49v5m0 0l8.9 1.53.85.3L45 54zM23 73v5.32M54 73v5.32M42 43c5 0 7-2 7-5" stroke="currentColor" stroke-width="2" stroke-linecap="round" stroke-linejoin="round"/><path d="M40 41h-2a2 2 0 100 4h2a2 2 0 100-4zm30 12a2 2 0 100-4 2 2 0 000 4zm-8 0a2 2 0 100-4 2 2 0 000 4zm16 0a2 2 0 100-4 2 2 0 000 4z" stroke="currentColor" stroke-width="2" stroke-linecap="round" stroke-linejoin="round"/><path d="M28.46 54.61l7.68 10.09a2.9 2.9 0 002.41 1.3 2.91 2.91 0 002.32-1.16L48.5 54.6M70 35a16 16 0 00-14 23.82L54 67l8.18-2A16 16 0 1070 35v0z" stroke="currentColor" stroke-width="2" stroke-linecap="round" stroke-linejoin="round"/></svg>