<svg viewBox="0 0 96 96" fill="none" xmlns="http://www.w3.org/2000/svg"><path d="M48.16 30.44h17.65M62 20.47V9H22.33A2.31 2.31 0 0020 11.29v73.42A2.31 2.31 0 0022.33 87h51.34A2.32 2.32 0 0076 84.71V22.76H64.33A2.301 2.301 0 0162 20.47v0zM62 9l14 13.76L62 9z" stroke="currentColor" stroke-width="2" stroke-linecap="round" stroke-linejoin="round"/><path d="M39.16 27.59l-6.15 5.7-2.83-3.63m17.98 11.41h17.65m-26.65-2.86l-6.15 5.71-2.83-3.63m17.98 11.4h17.65m-26.65-2.85l-6.15 5.7-2.83-3.63m17.98 12.53h17.65m-26.65-2.85l-6.15 5.7-2.83-3.63m17.98 12.53h17.65m-26.65-2.85l-6.15 5.7-2.83-3.62" stroke="currentColor" stroke-width="2" stroke-linecap="round" stroke-linejoin="round"/></svg>