<svg viewBox="0 0 96 96" fill="none" xmlns="http://www.w3.org/2000/svg"><path d="M16.79 74c4.97 0 9-4.065 9-9.08s-4.03-9.08-9-9.08-9 4.065-9 9.08 4.03 9.08 9 9.08z" stroke="currentColor" stroke-width="2" stroke-linecap="round" stroke-linejoin="round"/><path d="M16.79 69.04c2.253 0 4.08-1.845 4.08-4.12 0-2.275-1.827-4.12-4.08-4.12s-4.08 1.845-4.08 4.12c0 2.275 1.827 4.12 4.08 4.12zM77.5 74c4.97 0 9-4.065 9-9.08s-4.03-9.08-9-9.08-9 4.065-9 9.08 4.03 9.08 9 9.08z" stroke="currentColor" stroke-width="2" stroke-linecap="round" stroke-linejoin="round"/><path d="M77.5 69.04c2.253 0 4.08-1.845 4.08-4.12 0-2.275-1.827-4.12-4.08-4.12s-4.08 1.845-4.08 4.12c0 2.275 1.827 4.12 4.08 4.12zM35.86 56.25h28.57M31.4 65.99h37.1-37.1z" stroke="currentColor" stroke-width="2" stroke-linecap="round" stroke-linejoin="round"/><path d="M77.5 74c4.97 0 9-4.065 9-9.08s-4.03-9.08-9-9.08-9 4.065-9 9.08 4.03 9.08 9 9.08zM7.3 66H5a2 2 0 01-2-1.88v-9.4a3.81 3.81 0 013.83-3.8h9.25c11.14 0 15.15 8.49 15.15 15.08H26" stroke="currentColor" stroke-width="2" stroke-linecap="round" stroke-linejoin="round"/><path d="M6.57 50.93c.67-3.41 3.4-21.46 8.76-25.27C26 23.89 32.29 23 39.44 23c7.15 0 9 .54 10.71.89C59.08 25.66 76 40.08 76 40.08S93 42 93 63.35A2.67 2.67 0 0190.32 66h-3.83" stroke="currentColor" stroke-width="2" stroke-linecap="round" stroke-linejoin="round"/><path d="M15.33 25.66v16.19H8.82m80.31 7.7c-.931.19-1.88.284-2.83.28-5.73 0-8.86-5.23-11-10.17M39.44 27.44v15.3m30.35 0H26a4.418 4.418 0 01-4.43-4.41v-9.12s10.73-1.33 17.86-1.77c14.29-.89 30.36 15.3 30.36 15.3z" stroke="currentColor" stroke-width="2" stroke-linecap="round" stroke-linejoin="round"/></svg>