<svg viewBox="0 0 96 96" fill="none" xmlns="http://www.w3.org/2000/svg"><path d="M73 15.22H19a2.5 2.5 0 00-2.5 2.5v1.56a2.5 2.5 0 002.5 2.5h54a2.5 2.5 0 002.5-2.5v-1.56a2.5 2.5 0 00-2.5-2.5zm-4.74 6.56H21.75a2.5 2.5 0 00-2.5 2.5v1.56a2.5 2.5 0 002.5 2.5h46.51a2.5 2.5 0 002.5-2.5v-1.56a2.5 2.5 0 00-2.5-2.5z" stroke="currentColor" stroke-width="2" stroke-linecap="round" stroke-linejoin="round"/><path d="M64.44 28.33H29.17a2.5 2.5 0 00-2.5 2.5v1.55a2.5 2.5 0 002.5 2.5h35.27a2.5 2.5 0 002.5-2.5v-1.55a2.5 2.5 0 00-2.5-2.5zm-2.81 6.56H32.92a2.5 2.5 0 00-2.5 2.5v1.56a2.5 2.5 0 002.5 2.5h28.71a2.5 2.5 0 002.5-2.5v-1.56a2.5 2.5 0 00-2.5-2.5z" stroke="currentColor" stroke-width="2" stroke-linecap="round" stroke-linejoin="round"/><path d="M58.83 41.44H31.05a2.5 2.5 0 00-2.5 2.5v1.56a2.5 2.5 0 002.5 2.5h27.78a2.5 2.5 0 002.5-2.5v-1.56a2.5 2.5 0 00-2.5-2.5zm-1 6.56H27.24a2.5 2.5 0 00-2.5 2.5v1.56a2.5 2.5 0 002.5 2.5h30.59a2.5 2.5 0 002.5-2.5V50.5a2.5 2.5 0 00-2.5-2.5zm-2.94 6.56H28.05a2.5 2.5 0 00-2.5 2.5v1.56a2.5 2.5 0 002.5 2.5h26.84a2.5 2.5 0 002.5-2.5v-1.56a2.5 2.5 0 00-2.5-2.5z" stroke="currentColor" stroke-width="2" stroke-linecap="round" stroke-linejoin="round"/><path d="M56.95 61.11H38.54a2.5 2.5 0 00-2.5 2.5v1.55a2.5 2.5 0 002.5 2.5h18.41a2.5 2.5 0 002.5-2.5v-1.55a2.5 2.5 0 00-2.5-2.5zm2 6.56H45.22a2.5 2.5 0 00-2.5 2.5v1.56a2.5 2.5 0 002.5 2.5h13.73a2.5 2.5 0 002.5-2.5v-1.56a2.5 2.5 0 00-2.5-2.5z" stroke="currentColor" stroke-width="2" stroke-linecap="round" stroke-linejoin="round"/><path d="M54.58 74.22h-2.56a2.5 2.5 0 00-2.5 2.5v1.56a2.5 2.5 0 002.5 2.5h2.56a2.5 2.5 0 002.5-2.5v-1.56a2.5 2.5 0 00-2.5-2.5z" stroke="currentColor" stroke-width="2" stroke-linecap="round" stroke-linejoin="round"/></svg>