<svg width="96" height="96" viewBox="0 0 96 96" fill="none" xmlns="http://www.w3.org/2000/svg"><path d="M73 15.22H19a2.5 2.5 0 00-2.5 2.5v1.56a2.5 2.5 0 002.5 2.5h54a2.5 2.5 0 002.5-2.5v-1.56a2.5 2.5 0 00-2.5-2.5zM68.26 21.78H21.75a2.5 2.5 0 00-2.5 2.5v1.56a2.5 2.5 0 002.5 2.5h46.51a2.5 2.5 0 002.5-2.5v-1.56a2.5 2.5 0 00-2.5-2.5z" stroke="#00008F" stroke-width="2" stroke-linecap="round" stroke-linejoin="round"/><path d="M64.44 28.33H29.17a2.5 2.5 0 00-2.5 2.5v1.55a2.5 2.5 0 002.5 2.5h35.27a2.5 2.5 0 002.5-2.5v-1.55a2.5 2.5 0 00-2.5-2.5zM61.63 34.89H32.92a2.5 2.5 0 00-2.5 2.5v1.56a2.5 2.5 0 002.5 2.5h28.71a2.5 2.5 0 002.5-2.5v-1.56a2.5 2.5 0 00-2.5-2.5z" stroke="#00008F" stroke-width="2" stroke-linecap="round" stroke-linejoin="round"/><path d="M58.83 41.44H31.05a2.5 2.5 0 00-2.5 2.5v1.56a2.5 2.5 0 002.5 2.5h27.78a2.5 2.5 0 002.5-2.5v-1.56a2.5 2.5 0 00-2.5-2.5zM57.83 48H27.24a2.5 2.5 0 00-2.5 2.5v1.56a2.5 2.5 0 002.5 2.5h30.59a2.5 2.5 0 002.5-2.5V50.5a2.5 2.5 0 00-2.5-2.5zM54.89 54.56H28.05a2.5 2.5 0 00-2.5 2.5v1.56a2.5 2.5 0 002.5 2.5h26.84a2.5 2.5 0 002.5-2.5v-1.56a2.5 2.5 0 00-2.5-2.5z" stroke="#00008F" stroke-width="2" stroke-linecap="round" stroke-linejoin="round"/><path d="M56.95 61.11H38.54a2.5 2.5 0 00-2.5 2.5v1.55a2.5 2.5 0 002.5 2.5h18.41a2.5 2.5 0 002.5-2.5v-1.55a2.5 2.5 0 00-2.5-2.5zM58.95 67.67H45.22a2.5 2.5 0 00-2.5 2.5v1.56a2.5 2.5 0 002.5 2.5h13.73a2.5 2.5 0 002.5-2.5v-1.56a2.5 2.5 0 00-2.5-2.5z" stroke="#00008F" stroke-width="2" stroke-linecap="round" stroke-linejoin="round"/><path d="M54.58 74.22h-2.56a2.5 2.5 0 00-2.5 2.5v1.56a2.5 2.5 0 002.5 2.5h2.56a2.5 2.5 0 002.5-2.5v-1.56a2.5 2.5 0 00-2.5-2.5z" stroke="#00008F" stroke-width="2" stroke-linecap="round" stroke-linejoin="round"/></svg>