<svg viewBox="0 0 96 96" fill="none" xmlns="http://www.w3.org/2000/svg"><path d="M48 81c18.225 0 33-14.775 33-33S66.225 15 48 15 15 29.775 15 48s14.775 33 33 33z" stroke="currentColor" stroke-width="2" stroke-linecap="round" stroke-linejoin="round"/><path d="M48 52a4 4 0 100-8 4 4 0 000 8zm27-4h-7M48 21v7-7zM38 38l7.17 7.17L38 38zm-9-9l1 1-1-1zm38 0l-1 1 1-1zM29 67l1-1-1 1zm38 0l-1-1 1 1zM23.18 37.72l1.3.54-1.3-.54zm35.1-14.54l-.54 1.3.54-1.3zM37.72 72.82l.54-1.3-.54 1.3zm35.1-14.54l-1.3-.54 1.3.54zm-35.1-35.1l.54 1.3-.54-1.3zm35.1 14.54l-1.3.54 1.3-.54zM23.18 58.28l1.3-.54-1.3.54zm35.1 14.54l-.54-1.3.54 1.3zM61 35L50.83 45.17 61 35zM48 68v7-7zM28 48h-7 7z" stroke="currentColor" stroke-width="2" stroke-linecap="round" stroke-linejoin="round"/></svg>