<svg viewBox="0 0 96 96" fill="none" xmlns="http://www.w3.org/2000/svg"><path d="M47.04 52.93v34.7m.03-34.71L82 16.37a1.12 1.12 0 00-.06-1.58 1.09 1.09 0 00-.76-.3h-68.3a1.11 1.11 0 00-1.15 1.09c-.005.3.106.59.31.81l35 36.54.03-.01z" stroke="currentColor" stroke-width="2" stroke-linecap="round" stroke-linejoin="round"/><path d="M67.76 31H26.05m14.53 12.29a6.51 6.51 0 1013 .14A6.48 6.48 0 0047.16 37a6.352 6.352 0 00-6.58 6.25v.04zm-9.53 44.43h32-32zm19.61-49.8L79.61 6.28 50.66 37.92z" stroke="currentColor" stroke-width="2" stroke-linecap="round" stroke-linejoin="round"/></svg>