<svg viewBox="0 0 96 96" fill="none" xmlns="http://www.w3.org/2000/svg"><path d="M59.6 67.45v.72a3.209 3.209 0 01-3.31 3.12h-17.1a3.22 3.22 0 01-3.31-3.12V52.91H59.6v2.91M25 15h46a10 10 0 0110 10v16.19H15V25a10 10 0 0110-10v0zm52.79 65.99H18.21A3.21 3.21 0 0115 77.77v-6.45h66v6.45a3.21 3.21 0 01-3.21 3.21v.01z" stroke="currentColor" stroke-width="2" stroke-linecap="round" stroke-linejoin="round"/><path d="M22.73 41.22h50.53v30.11H22.73V41.22z" stroke="currentColor" stroke-width="2" stroke-linecap="round" stroke-linejoin="round"/><path d="M73.01 32.47h-8.25m-25.53 8.75h17.53v5.85H39.23v-5.85zM59.6 59.15v-3.33a5.83 5.83 0 110 11.63v-9.69 1.39zM23.51 23.26v9.69-9.69zm8.25 0v9.69-9.69zm41.25.48h-8.25 8.25zM48.26 34.89c3.988 0 7.22-3.04 7.22-6.79s-3.232-6.79-7.22-6.79c-3.987 0-7.22 3.04-7.22 6.79s3.233 6.79 7.22 6.79z" stroke="currentColor" stroke-width="2" stroke-linecap="round" stroke-linejoin="round"/></svg>