<svg viewBox="0 0 96 96" fill="none" xmlns="http://www.w3.org/2000/svg"><path d="M39 29h-3a1 1 0 01-1-1v-6a1 1 0 011-1h40a1 1 0 011 1v7H39zm0 0a1 1 0 00-1 1v3l9.58 4H79a1 1 0 001-1v-6a1 1 0 00-1-1H39zm36 8v8m2 8v6.86A1.08 1.08 0 0176 61H56.12M75 61v8m-23 0h25a1.08 1.08 0 011 1.14v5.72A1.08 1.08 0 0177 77H35m19.6-32H79a1.08 1.08 0 011 1.14v5.72A1.08 1.08 0 0179 53H57l-2.4-8z" stroke="currentColor" stroke-width="2" stroke-linecap="round" stroke-linejoin="round"/><path d="M35 77c12.15 0 22-9.85 22-22s-9.85-22-22-22-22 9.85-22 22 9.85 22 22 22z" stroke="currentColor" stroke-width="2" stroke-linecap="round" stroke-linejoin="round"/><path d="M35 71c8.837 0 16-7.163 16-16s-7.163-16-16-16-16 7.163-16 16 7.163 16 16 16z" stroke="currentColor" stroke-width="2" stroke-linecap="round" stroke-linejoin="round"/><path d="M35 61V47l-4 3m8 11h-8 8z" stroke="currentColor" stroke-width="2" stroke-linecap="round" stroke-linejoin="round"/></svg>