<svg viewBox="0 0 96 96" fill="none" xmlns="http://www.w3.org/2000/svg"><path d="M39 29h-3a1 1 0 01-1-1v-6a1 1 0 011-1h40a1 1 0 011 1v7H39zm0 0a1 1 0 00-1 1v3l9.65 4H79a1 1 0 001-1v-6a1 1 0 00-1-1H39zm36 8v8m2 8v6.86A1.08 1.08 0 0176 61H56.17M75 61v8m-23 0h25a1.08 1.08 0 011 1.14v5.72A1.08 1.08 0 0177 77H35m19.6-32H79a1.08 1.08 0 011 1.14v5.72A1.08 1.08 0 0179 53H57l-2.4-8z" stroke="currentColor" stroke-width="2" stroke-linecap="round" stroke-linejoin="round"/><path d="M35 77c12.15 0 22-9.85 22-22s-9.85-22-22-22-22 9.85-22 22 9.85 22 22 22z" stroke="currentColor" stroke-width="2" stroke-linecap="round" stroke-linejoin="round"/><path d="M35 72c9.389 0 17-7.611 17-17s-7.611-17-17-17-17 7.611-17 17 7.611 17 17 17z" stroke="currentColor" stroke-width="2" stroke-linecap="round" stroke-linejoin="round"/><path d="M30.08 60c.4 1.7 2.44 3 4.92 3 2.76 0 5-1.61 5-3.6a2.16 2.16 0 00-.23-.92 3.77 3.77 0 00-1.5-1.48L35 55l-3.27-2a3.77 3.77 0 01-1.5-1.52 2.159 2.159 0 01-.23-.88c0-2 2.24-3.6 5-3.6 2.48 0 4.52 1.3 4.92 3M35 44v22-22z" stroke="currentColor" stroke-width="2" stroke-linecap="round" stroke-linejoin="round"/></svg>