<svg viewBox="0 0 96 96" fill="none" xmlns="http://www.w3.org/2000/svg"><path d="M39 29h-3a1 1 0 01-1-1v-6a1 1 0 011-1h40a1 1 0 011 1v7H39zm0 0a1 1 0 00-1 1v3.2l9.65 3.8H79a1 1 0 001-1v-6a1 1 0 00-1-1H39zm36 8v8m2 8v6.86A1.08 1.08 0 0176 61H56.17M75 61v8m-23 0h25a1.08 1.08 0 011 1.14v5.72A1.08 1.08 0 0177 77H35m19.6-32H79a1.08 1.08 0 011 1.14v5.72A1.08 1.08 0 0179 53H57l-2.4-8z" stroke="currentColor" stroke-width="2" stroke-linecap="round" stroke-linejoin="round"/><path d="M35 77c12.15 0 22-9.85 22-22s-9.85-22-22-22-22 9.85-22 22 9.85 22 22 22z" stroke="currentColor" stroke-width="2" stroke-linecap="round" stroke-linejoin="round"/><path d="M35 72c9.389 0 17-7.611 17-17s-7.611-17-17-17-17 7.611-17 17 7.611 17 17 17z" stroke="currentColor" stroke-width="2" stroke-linecap="round" stroke-linejoin="round"/><path d="M29 61h12m-6-8v13-13zm-6-7l6 7 6-7H29zm0 10h12-12z" stroke="currentColor" stroke-width="2" stroke-linecap="round" stroke-linejoin="round"/></svg>