<svg width="96" height="96" viewBox="0 0 96 96" fill="none" xmlns="http://www.w3.org/2000/svg">
<path d="M60.34 32.0699H35.65C34.678 32.0699 33.89 32.8579 33.89 33.8299V49.1099C33.89 50.082 34.678 50.8699 35.65 50.8699H60.34C61.312 50.8699 62.1 50.082 62.1 49.1099V33.8299C62.1 32.8579 61.312 32.0699 60.34 32.0699Z" stroke="#00008F" stroke-width="2" stroke-linecap="round" stroke-linejoin="round"/>
<path d="M48 45.9V42.59M39.13 31.2V28.85C39.13 26.4285 40.0919 24.1063 41.8041 22.3941C43.5163 20.6819 45.8386 19.72 48.26 19.72C50.6814 19.72 53.0037 20.6819 54.7159 22.3941C56.4281 24.1063 57.39 26.4285 57.39 28.85V31.2H39.13Z" stroke="#00008F" stroke-width="2" stroke-linecap="round" stroke-linejoin="round"/>
<path d="M48 41.59C49.2592 41.59 50.28 40.5692 50.28 39.31C50.28 38.0508 49.2592 37.03 48 37.03C46.7408 37.03 45.72 38.0508 45.72 39.31C45.72 40.5692 46.7408 41.59 48 41.59Z" stroke="#00008F" stroke-width="2" stroke-linecap="round" stroke-linejoin="round"/>
<path d="M84 14H12C9.79086 14 8 15.7909 8 18V64.88C8 67.0891 9.79086 68.88 12 68.88H84C86.2091 68.88 88 67.0891 88 64.88V18C88 15.7909 86.2091 14 84 14Z" stroke="#00008F" stroke-width="2" stroke-linecap="round" stroke-linejoin="round"/>
<path d="M88 56.95H8M51.53 62.91H44.47M31.53 82C37.41 82 39.76 68.8799 39.76 68.8799M64.47 82C58.59 82 56.24 68.8799 56.24 68.8799M26.82 82H69.18" stroke="#00008F" stroke-width="2" stroke-linecap="round" stroke-linejoin="round"/>
</svg>
