<svg width="96" height="96" viewBox="0 0 96 96" fill="none" xmlns="http://www.w3.org/2000/svg">
<path d="M35.1 21.4701H60.9V83.0801H35.1V21.4701Z" stroke="#00008F" stroke-width="2" stroke-linecap="round" stroke-linejoin="round"/>
<path d="M54.82 29.5C55.919 29.5 56.81 28.6091 56.81 27.51C56.81 26.411 55.919 25.52 54.82 25.52C53.7209 25.52 52.83 26.411 52.83 27.51C52.83 28.6091 53.7209 29.5 54.82 29.5Z" stroke="#00008F" stroke-width="2" stroke-linecap="round" stroke-linejoin="round"/>
<path d="M48 29.5C49.099 29.5 49.99 28.6091 49.99 27.51C49.99 26.411 49.099 25.52 48 25.52C46.9009 25.52 46.0099 26.411 46.0099 27.51C46.0099 28.6091 46.9009 29.5 48 29.5Z" stroke="#00008F" stroke-width="2" stroke-linecap="round" stroke-linejoin="round"/>
<path d="M41.18 29.5C42.2791 29.5 43.17 28.6091 43.17 27.51C43.17 26.411 42.2791 25.52 41.18 25.52C40.081 25.52 39.19 26.411 39.19 27.51C39.19 28.6091 40.081 29.5 41.18 29.5Z" stroke="#00008F" stroke-width="2" stroke-linecap="round" stroke-linejoin="round"/>
<path d="M54.82 39.4101C55.919 39.4101 56.81 38.5191 56.81 37.4201C56.81 36.321 55.919 35.4301 54.82 35.4301C53.7209 35.4301 52.83 36.321 52.83 37.4201C52.83 38.5191 53.7209 39.4101 54.82 39.4101Z" stroke="#00008F" stroke-width="2" stroke-linecap="round" stroke-linejoin="round"/>
<path d="M48 39.4101C49.099 39.4101 49.99 38.5191 49.99 37.4201C49.99 36.321 49.099 35.4301 48 35.4301C46.9009 35.4301 46.0099 36.321 46.0099 37.4201C46.0099 38.5191 46.9009 39.4101 48 39.4101Z" stroke="#00008F" stroke-width="2" stroke-linecap="round" stroke-linejoin="round"/>
<path d="M41.18 39.4C42.2791 39.4 43.17 38.5091 43.17 37.41C43.17 36.311 42.2791 35.42 41.18 35.42C40.081 35.42 39.19 36.311 39.19 37.41C39.19 38.5091 40.081 39.4 41.18 39.4Z" stroke="#00008F" stroke-width="2" stroke-linecap="round" stroke-linejoin="round"/>
<path d="M54.82 49.3201C55.919 49.3201 56.81 48.4291 56.81 47.3301C56.81 46.231 55.919 45.3401 54.82 45.3401C53.7209 45.3401 52.83 46.231 52.83 47.3301C52.83 48.4291 53.7209 49.3201 54.82 49.3201Z" stroke="#00008F" stroke-width="2" stroke-linecap="round" stroke-linejoin="round"/>
<path d="M48 49.3201C49.099 49.3201 49.99 48.4291 49.99 47.3301C49.99 46.231 49.099 45.3401 48 45.3401C46.9009 45.3401 46.0099 46.231 46.0099 47.3301C46.0099 48.4291 46.9009 49.3201 48 49.3201Z" stroke="#00008F" stroke-width="2" stroke-linecap="round" stroke-linejoin="round"/>
<path d="M41.1899 49.3101C42.289 49.3101 43.18 48.4191 43.18 47.3201C43.18 46.221 42.289 45.3301 41.1899 45.3301C40.0909 45.3301 39.2 46.221 39.2 47.3201C39.2 48.4191 40.0909 49.3101 41.1899 49.3101Z" stroke="#00008F" stroke-width="2" stroke-linecap="round" stroke-linejoin="round"/>
<path d="M54.82 59.23C55.919 59.23 56.81 58.339 56.81 57.24C56.81 56.141 55.919 55.25 54.82 55.25C53.7209 55.25 52.83 56.141 52.83 57.24C52.83 58.339 53.7209 59.23 54.82 59.23Z" stroke="#00008F" stroke-width="2" stroke-linecap="round" stroke-linejoin="round"/>
<path d="M48 59.23C49.099 59.23 49.99 58.339 49.99 57.24C49.99 56.141 49.099 55.25 48 55.25C46.9009 55.25 46.0099 56.141 46.0099 57.24C46.0099 58.339 46.9009 59.23 48 59.23Z" stroke="#00008F" stroke-width="2" stroke-linecap="round" stroke-linejoin="round"/>
<path d="M41.18 59.22C42.2791 59.22 43.17 58.329 43.17 57.23C43.17 56.1309 42.2791 55.24 41.18 55.24C40.081 55.24 39.19 56.1309 39.19 57.23C39.19 58.329 40.081 59.22 41.18 59.22Z" stroke="#00008F" stroke-width="2" stroke-linecap="round" stroke-linejoin="round"/>
<path d="M48 12.92V17.23M51.75 69.63V82.73V69.63ZM44.26 69.63V82.73V69.63ZM54.56 69.63H41.45H54.56ZM39.6 17.51H56.4V21.46H39.6V17.51Z" stroke="#00008F" stroke-width="2" stroke-linecap="round" stroke-linejoin="round"/>
</svg>
