<svg viewBox="0 0 96 96" fill="none" xmlns="http://www.w3.org/2000/svg"><path d="M60.34 32.07H35.65a1.76 1.76 0 00-1.76 1.76v15.28c0 .972.788 1.76 1.76 1.76h24.69a1.76 1.76 0 001.76-1.76V33.83a1.76 1.76 0 00-1.76-1.76zM48 45.9v-3.31M39.13 31.2v-2.35a9.13 9.13 0 1118.26 0v2.35H39.13z" stroke="currentColor" stroke-width="2" stroke-linecap="round" stroke-linejoin="round"/><path d="M48 41.59a2.28 2.28 0 100-4.56 2.28 2.28 0 000 4.56z" stroke="currentColor" stroke-width="2" stroke-linecap="round" stroke-linejoin="round"/><path d="M84 14H12a4 4 0 00-4 4v46.88a4 4 0 004 4h72a4 4 0 004-4V18a4 4 0 00-4-4z" stroke="currentColor" stroke-width="2" stroke-linecap="round" stroke-linejoin="round"/><path d="M88 56.95H8m43.53 5.96h-7.06M31.53 82c5.88 0 8.23-13.12 8.23-13.12M64.47 82c-5.88 0-8.23-13.12-8.23-13.12M26.82 82h42.36" stroke="currentColor" stroke-width="2" stroke-linecap="round" stroke-linejoin="round"/></svg>