<svg viewBox="0 0 96 96" fill="none" xmlns="http://www.w3.org/2000/svg"><path d="M35.1 21.47h25.8v61.61H35.1V21.47z" stroke="currentColor" stroke-width="2" stroke-linecap="round" stroke-linejoin="round"/><path d="M54.82 29.5a1.99 1.99 0 100-3.98 1.99 1.99 0 000 3.98zm-6.82 0a1.99 1.99 0 100-3.98 1.99 1.99 0 000 3.98zm-6.82 0a1.99 1.99 0 100-3.98 1.99 1.99 0 000 3.98zm13.64 9.91a1.99 1.99 0 100-3.98 1.99 1.99 0 000 3.98zm-6.82 0a1.99 1.99 0 100-3.98 1.99 1.99 0 000 3.98zm-6.82-.01a1.99 1.99 0 100-3.98 1.99 1.99 0 000 3.98zm13.64 9.92a1.99 1.99 0 100-3.98 1.99 1.99 0 000 3.98zm-6.82 0a1.99 1.99 0 100-3.98 1.99 1.99 0 000 3.98zm-6.81-.01a1.99 1.99 0 100-3.98 1.99 1.99 0 000 3.98zm13.63 9.92a1.99 1.99 0 100-3.98 1.99 1.99 0 000 3.98zm-6.82 0a1.99 1.99 0 100-3.98 1.99 1.99 0 000 3.98zm-6.82-.01a1.99 1.99 0 100-3.98 1.99 1.99 0 000 3.98zM48 12.92v4.31m3.75 52.4v13.1-13.1zm-7.49 0v13.1-13.1zm10.3 0H41.45h13.11zM39.6 17.51h16.8v3.95H39.6v-3.95z" stroke="currentColor" stroke-width="2" stroke-linecap="round" stroke-linejoin="round"/></svg>