<svg viewBox="0 0 96 96" fill="none" xmlns="http://www.w3.org/2000/svg"><path d="M69.49 24.47v53.88A3.5 3.5 0 0166 81.84H30a3.5 3.5 0 01-3.49-3.49v-60.7A3.5 3.5 0 0130 14.16h29" stroke="currentColor" stroke-width="2" stroke-linecap="round" stroke-linejoin="round"/><path d="M30.78 52.89h34.44M53.88 72.43l2.83 3.65a1.202 1.202 0 001.88 0l5.6-7-10.31 3.35zm15.61-47.96h-8.6A1.86 1.86 0 0159 22.64v-8.48l10.49 10.31zm-37.99-1.4h14.62H31.5zm19.1 6.29h14.62H50.6zM30.78 43.59h34.44-34.44zm0 4.41h34.44-34.44z" stroke="currentColor" stroke-width="2" stroke-linecap="round" stroke-linejoin="round"/></svg>