<svg viewBox="0 0 96 96" fill="none" xmlns="http://www.w3.org/2000/svg"><path d="M68.75 25.29v52a3.38 3.38 0 01-3.37 3.36H30.62a3.38 3.38 0 01-3.37-3.36V18.7a3.38 3.38 0 013.37-3.36h28" stroke="currentColor" stroke-width="2" stroke-linecap="round" stroke-linejoin="round"/><path d="M61.72 75l-6.14-6.14m13.17-43.57h-8.31a1.79 1.79 0 01-1.79-1.79v-8.16l10.1 9.95zm-36.68-1.35h14.11-14.11zm18.44 6.07h14.11-14.11zM31.38 43.75h33.24-33.24zm0 4.25h33.24-33.24zm0 4.72h33.24-33.24zm30.34 16.14L55.58 75l6.14-6.14z" stroke="currentColor" stroke-width="2" stroke-linecap="round" stroke-linejoin="round"/></svg>