<svg width="48" height="48" viewBox="0 0 48 48" fill="none" xmlns="http://www.w3.org/2000/svg">
<path d="M39 10H9C7.89543 10 7 10.8954 7 12V31C7 32.1046 7.89543 33 9 33H39C40.1046 33 41 32.1046 41 31V12C41 10.8954 40.1046 10 39 10Z" stroke="currentColor" stroke-linecap="round" stroke-linejoin="round"/>
<path d="M41 28H7M25.5 30.5H22.5M17 38.5C19.5 38.5 20.5 33 20.5 33M31 38.5C28.5 38.5 27.5 33 27.5 33M15 38.5H33" stroke="currentColor" stroke-linecap="round" stroke-linejoin="round"/>
<path d="M26 13V14.7647C26 14.8583 26.0351 14.9481 26.0976 15.0143C26.1601 15.0805 26.2449 15.1176 26.3333 15.1176H28M26 13H20.3333C20.2449 13 20.1601 13.0372 20.0976 13.1034C20.0351 13.1696 20 13.2593 20 13.3529V24.6471C20 24.7407 20.0351 24.8304 20.0976 24.8966C20.1601 24.9628 20.2449 25 20.3333 25H27.6667C27.7551 25 27.8399 24.9628 27.9024 24.8966C27.9649 24.8304 28 24.7407 28 24.6471V15.1176M26 13L28 15.1176" stroke="currentColor" stroke-linecap="round" stroke-linejoin="round"/>
<path d="M23 18.1922C23 16.8366 25 16.3846 25 18.1922C25 19.3222 24 19.4183 24 21" stroke="currentColor"/>
<line x1="23.5" y1="22.5" x2="24.5" y2="22.5" stroke="currentColor"/>
</svg>
