<svg width="96" height="96" viewBox="0 0 96 96" fill="none" xmlns="http://www.w3.org/2000/svg">
<path d="M77 26H19C16.7909 26 15 27.7909 15 30V66C15 68.2091 16.7909 70 19 70H77C79.2091 70 81 68.2091 81 66V30C81 27.7909 79.2091 26 77 26Z" stroke="#00008F" stroke-width="2" stroke-linecap="round" stroke-linejoin="round"/>
<path d="M15 34H81H15ZM15 41H81H15ZM21 57H35H21ZM21 48H27H21ZM32 48H42H32ZM21 62H44H21ZM63 52H75V62H63V52Z" stroke="#00008F" stroke-width="2" stroke-linecap="round" stroke-linejoin="round"/>
</svg>
