<svg width="96" height="96" viewBox="0 0 96 96" fill="none" xmlns="http://www.w3.org/2000/svg">
<path d="M74 51.3C77.285 47.6092 79.0682 42.8217 78.9978 37.8812C78.9275 32.9407 77.0088 28.2058 73.62 24.61C71.9824 22.8698 70.012 21.4761 67.8258 20.5116C65.6395 19.5471 63.2818 19.0314 60.8925 18.995C58.5032 18.9586 56.1309 19.4024 53.9163 20.2999C51.7017 21.1974 49.6898 22.5305 48 24.22C46.3105 22.5336 44.2999 21.2031 42.0871 20.3074C39.8744 19.4117 37.5045 18.9689 35.1176 19.0053C32.7307 19.0416 30.3754 19.5564 28.1909 20.5191C26.0065 21.4818 24.0373 22.8729 22.4 24.61C19.0084 28.2033 17.0861 32.9368 17.0121 37.8773C16.938 42.8178 18.7176 47.6068 22 51.3L47.28 77.69C47.3733 77.7868 47.4851 77.8638 47.6088 77.9164C47.7325 77.969 47.8656 77.9961 48 77.9961C48.1344 77.9961 48.2675 77.969 48.3912 77.9164C48.5149 77.8638 48.6267 77.7868 48.72 77.69L74 51.3Z" stroke="#00008F" stroke-width="2" stroke-linecap="round" stroke-linejoin="round"/>
<path d="M58.39 43H46L43 36L37 56L30 28L25 43H11.61" stroke="#00008F" stroke-width="2" stroke-linecap="round" stroke-linejoin="round"/>
</svg>
