<svg viewBox="0 0 96 96" fill="none" xmlns="http://www.w3.org/2000/svg"><path d="M34.64 29.27a16.11 16.11 0 0132.19 1.1M64.82 75.7c10.013 0 18.13-8.117 18.13-18.13 0-10.013-8.117-18.13-18.13-18.13-10.013 0-18.13 8.117-18.13 18.13 0 10.013 8.117 18.13 18.13 18.13z" stroke="currentColor" stroke-width="2" stroke-linecap="round" stroke-linejoin="round"/><path d="M40.68 58.81a15.31 15.31 0 111.74-10.4m35.49-11.16v-4.79a2.1 2.1 0 00-2.09-2.09h-22a2.1 2.1 0 00-2.1 2.09v4.79a24.18 24.18 0 1026.19 0zm-7.05-2.85h2.02-2.02z" stroke="currentColor" stroke-width="2" stroke-linecap="round" stroke-linejoin="round"/><path d="M45.85 42.59a20.64 20.64 0 00-2.7-4.29l1.24-3.84a1.78 1.78 0 00-1.14-2.22l-17.66-5.68a1.76 1.76 0 00-2.22 1.14l-1.24 3.84A20.38 20.38 0 1042 65.48m-3.77-31.29l1.61.52" stroke="currentColor" stroke-width="2" stroke-linecap="round" stroke-linejoin="round"/></svg>