<svg width="96" height="96" viewBox="0 0 96 96" fill="none" xmlns="http://www.w3.org/2000/svg">
<path d="M45.41 20.47L14.62 73.47C14.3495 73.9262 14.2048 74.446 14.2006 74.9763C14.1964 75.5067 14.3329 76.0287 14.5961 76.4891C14.8594 76.9495 15.24 77.3319 15.6991 77.5973C16.1583 77.8628 16.6796 78.0017 17.21 78H78.79C79.3174 77.9996 79.8354 77.8602 80.2917 77.5958C80.748 77.3314 81.1266 76.9514 81.3893 76.494C81.6519 76.0367 81.7893 75.5182 81.7877 74.9908C81.7861 74.4634 81.6455 73.9458 81.38 73.49L50.59 20.49C50.3274 20.0367 49.9506 19.6601 49.4972 19.3976C49.0438 19.1351 48.5296 18.9959 48.0057 18.9939C47.4819 18.9919 46.9666 19.1271 46.5112 19.3861C46.0558 19.645 45.6761 20.0188 45.41 20.47V20.47Z" stroke="#00008F" stroke-width="2" stroke-linecap="round" stroke-linejoin="round"/>
<path d="M51 41C51 39.3431 49.6569 38 48 38C46.3431 38 45 39.3431 45 41V54C45 55.6569 46.3431 57 48 57C49.6569 57 51 55.6569 51 54V41Z" stroke="#00008F" stroke-width="2" stroke-linecap="round" stroke-linejoin="round"/>
<path d="M48 70C50.2091 70 52 68.2091 52 66C52 63.7909 50.2091 62 48 62C45.7909 62 44 63.7909 44 66C44 68.2091 45.7909 70 48 70Z" stroke="#00008F" stroke-width="2" stroke-linecap="round" stroke-linejoin="round"/>
</svg>
