<svg viewBox="0 0 96 96" fill="none" xmlns="http://www.w3.org/2000/svg"><path d="M87.5 42.73v42.14H76.97l-1.14-7.38H20.17l-1.14 7.38H8.5V42.73h79z" stroke="currentColor" stroke-width="2" stroke-linecap="round" stroke-linejoin="round"/><path d="M8.5 42.73h79v7.37h-79v-7.37z" stroke="currentColor" stroke-width="2" stroke-linecap="round" stroke-linejoin="round"/><path d="M79 42.73h-3.41a2.75 2.75 0 01-2.73-2.4l-.77-6.09a2.74 2.74 0 012.73-3.09H80a2.75 2.75 0 012.71 3.21l-1 6.09A2.75 2.75 0 0179 42.73z" stroke="currentColor" stroke-width="2" stroke-linecap="round" stroke-linejoin="round"/><path d="M8.5 77.49h79" stroke="currentColor" stroke-width="2" stroke-linecap="square" stroke-linejoin="round"/><path d="M31.25 24.43l.57-5.72c0-4.18 4.53-7.58 10.1-7.58h9.9c5.58 0 10.1 3.4 10.1 7.58l2.41 24H29.42" stroke="currentColor" stroke-width="2" stroke-linecap="round" stroke-linejoin="round"/><path d="M12.5 24.43h26.54v18.31H12.5V24.43z" stroke="currentColor" stroke-width="2" stroke-linecap="round" stroke-linejoin="round"/></svg>