<svg viewBox="0 0 96 96" fill="none" xmlns="http://www.w3.org/2000/svg"><path d="M52.58 26.584c-3.65 0-7.15-2.82-8.56-6.13-2.28 4.79-5 8.59-12 8.59h-6.88v9.81c0 8.13 5 14.73 13.85 14.73s13.85-6.63 13.85-14.73v-12.27h-.26z" stroke="currentColor" stroke-width="2" stroke-linecap="round" stroke-linejoin="round"/><path d="M52.84 40.084a14.399 14.399 0 006.29-12.27v-7.36a5 5 0 00-5-4.91 18.15 18.15 0 00-15.82-8.59h-1.49a17.74 17.74 0 00-18 17.51v3c0 4.74 2.52 10.16 6.29 12.61m5.07 10.56v6.5l-10.94 1.75C11.05 60.074 5 66.684 5 74.464v5.74a5 5 0 004.24 4.82l13.94 2.52a89.342 89.342 0 0031.62 0l13.94-2.52a5 5 0 004.26-4.82v-5.74c0-7.78-6.05-14.39-14.24-15.58l-10.96-1.75v-6.5" stroke="currentColor" stroke-width="2" stroke-linecap="round" stroke-linejoin="round"/><path d="M55.24 58.324l2.48 10.34-5.43 4.29 4.37 2.54-6.07 12.2m-8.16 1.08l5.37-31.64m-24.98 1.18l-2.51 10.44 5.43 4.29-4.38 2.54 6.08 12.2m8.16 1.08l-5.37-31.64m1.74 10.27h14.07m44.02-37.44h-6.61v-6.67a1 1 0 00-1-.95H75a.941.941 0 00-.94.95v6.67H67.4a1 1 0 00-.95 1v7.63a1 1 0 00.95 1H74v6.67a1 1 0 00.94 1h7.56a1 1 0 001-1v-6.76h6.61a1 1 0 00.94-1v-7.58a1 1 0 00-.99-.96z" stroke="currentColor" stroke-width="2" stroke-linecap="round" stroke-linejoin="round"/></svg>