<svg viewBox="0 0 96 96" fill="none" xmlns="http://www.w3.org/2000/svg"><path d="M53.44 58.53l2.54 10.4-5.43 4.22 4.37 2.5-6.07 11.98m-8.16 1.05l5.32-31.28m-24.87 1.14l-2.56 10.48L24 73.24l-4.37 2.49 6.07 11.98m8.16 1.06L28.61 57.4m2.1 10.39h13M90.06 31h-6.61v-6.53a.94.94 0 00-1-.94H75a.94.94 0 00-.94.94V31H67.4a.94.94 0 00-.94.94v7.49a.94.94 0 00.94.94H74v6.55a.94.94 0 00.94.94h7.56a.94.94 0 001-.94v-6.53h6.61a.94.94 0 00.94-.94V32a.94.94 0 00-.99-1zm-46.54-4.37H32.34c-5 0-8.7 3.68-8.7 3.68v8.59c0 8.13 5 14.73 13.67 14.73S51 47 51 38.9V23s-3.75 3.63-7.48 3.63z" stroke="currentColor" stroke-width="2" stroke-linecap="round" stroke-linejoin="round"/><path d="M16.18 24.51A17.63 17.63 0 0133.92 7h2.72c6.65 0 21.8 1.34 21.8 14.72v22a9.7 9.7 0 005 8.56 10.94 10.94 0 01-7.92 5.91l-2.05.34m-24.86-7.85v6.63m17.4-6.63v6.63" stroke="currentColor" stroke-width="2" stroke-linecap="round" stroke-linejoin="round"/><path d="M46 57.4l10.07 1.53a15.83 15.83 0 0113.55 15.58v5.74a4.92 4.92 0 01-4 4.82l-13.28 2.52a80.807 80.807 0 01-30.06 0L9 85.07a4.92 4.92 0 01-4-4.82v-5.74a15.83 15.83 0 0113.54-15.58l10.07-1.53" stroke="currentColor" stroke-width="2" stroke-linecap="round" stroke-linejoin="round"/><path d="M21.15 58.54l-2-.33a11.07 11.07 0 01-8-5.93 9.7 9.7 0 005-8.56V24.13" stroke="currentColor" stroke-width="2" stroke-linecap="round" stroke-linejoin="round"/></svg>