<svg width="96" height="96" viewBox="0 0 96 96" fill="none" xmlns="http://www.w3.org/2000/svg">
<path d="M79 59.5V76.5C79 77.163 78.7366 77.7989 78.2678 78.2678C77.7989 78.7366 77.163 79 76.5 79H19.5C18.837 79 18.2011 78.7366 17.7322 78.2678C17.2634 77.7989 17 77.163 17 76.5V59.5C17 58.837 17.2634 58.2011 17.7322 57.7322C18.2011 57.2634 18.837 57 19.5 57C20.163 57 20.7989 57.2634 21.2678 57.7322C21.7366 58.2011 22 58.837 22 59.5V74H74V59.5C74 58.837 74.2634 58.2011 74.7322 57.7322C75.2011 57.2634 75.837 57 76.5 57C77.163 57 77.7989 57.2634 78.2678 57.7322C78.7366 58.2011 79 58.837 79 59.5Z" stroke="#00008F" stroke-width="2" stroke-linecap="round" stroke-linejoin="round"/>
<path d="M67.5 40.5C66.8364 39.8381 65.9373 39.4663 65 39.4663C64.0627 39.4663 63.1636 39.8381 62.5 40.5L52 51V19C52 17.9391 51.5786 16.9217 50.8284 16.1716C50.0783 15.4214 49.0609 15 48 15C46.9391 15 45.9217 15.4214 45.1716 16.1716C44.4214 16.9217 44 17.9391 44 19V51L33.5 40.5C32.8264 39.8909 31.9446 39.564 31.0368 39.5868C30.129 39.6096 29.2647 39.9804 28.6225 40.6225C27.9804 41.2647 27.6096 42.129 27.5868 43.0368C27.564 43.9446 27.8909 44.8264 28.5 45.5L45.5 62.5C46.1636 63.1619 47.0627 63.5337 48 63.5337C48.9373 63.5337 49.8364 63.1619 50.5 62.5L67.5 45.5C68.1619 44.8364 68.5337 43.9373 68.5337 43C68.5337 42.0627 68.1619 41.1636 67.5 40.5Z" stroke="#00008F" stroke-width="2" stroke-linecap="round" stroke-linejoin="round"/>
</svg>
