<svg width="96" height="96" viewBox="0 0 96 96" fill="none" xmlns="http://www.w3.org/2000/svg">
<path d="M31.17 83.46C30.9763 83.4874 30.779 83.4486 30.61 83.35C30.3905 83.2119 30.2263 83.0012 30.1459 82.7546C30.0655 82.508 30.074 82.241 30.17 82L42.66 52.22H31.17C30.9718 52.2086 30.7787 52.1522 30.6055 52.0552C30.4322 51.9582 30.2833 51.8231 30.17 51.66C30.0603 51.4957 30.0018 51.3026 30.0018 51.105C30.0018 50.9075 30.0603 50.7144 30.17 50.55L46.9 17.08C47.0053 16.9094 47.1525 16.7685 47.3274 16.6705C47.5024 16.5725 47.6994 16.5207 47.9 16.52H65.76C65.9609 16.5188 66.1587 16.5697 66.334 16.6679C66.5093 16.7661 66.6561 16.9081 66.76 17.08C66.8696 17.2444 66.9281 17.4375 66.9281 17.635C66.9281 17.8326 66.8696 18.0257 66.76 18.19L53.71 38.83H66.87C67.0843 38.8299 67.2939 38.8935 67.472 39.0128C67.6501 39.1321 67.7886 39.3017 67.87 39.5C67.9638 39.6961 68.0031 39.9137 67.9837 40.1301C67.9644 40.3466 67.8871 40.5538 67.76 40.73L32.06 83.13C31.8177 83.3518 31.4983 83.4703 31.17 83.46V83.46Z" stroke="#00008F" stroke-width="2" stroke-linecap="round" stroke-linejoin="round"/>
</svg>
