<svg viewBox="0 0 96 96" fill="none" xmlns="http://www.w3.org/2000/svg"><path d="M63.04 5v21.96M47 74.04V91 74.04zM20.26 27v20.48A26.65 26.65 0 0047 74a26.65 26.65 0 0026.74-26.52V27H20.26zm10.7-22v21.96V5z" stroke="currentColor" stroke-width="2" stroke-linecap="round" stroke-linejoin="round"/><path d="M39.15 64.86a.35.35 0 01-.24 0 .49.49 0 01-.2-.59L44.18 51h-5a.58.58 0 01-.44-.25.44.44 0 010-.49L46 35.44a.51.51 0 01.44-.24h7.81a.51.51 0 01.516.49.45.45 0 01-.076.25L49 45.08h5.76a.48.48 0 01.44.3.54.54 0 01-.05.54L39.54 64.71a.54.54 0 01-.39.15v0z" stroke="currentColor" stroke-width="2" stroke-linecap="round" stroke-linejoin="round"/></svg>