<svg viewBox="0 0 96 96" fill="none" xmlns="http://www.w3.org/2000/svg"><path d="M79.25 10h-62.5A5.75 5.75 0 0011 15.75v64.5A5.75 5.75 0 0016.75 86h62.5A5.75 5.75 0 0085 80.25v-64.5A5.75 5.75 0 0079.25 10z" stroke="currentColor" stroke-width="2" stroke-linecap="round" stroke-linejoin="round"/><path d="M30.5 28.71h35a2.37 2.37 0 012.37 2.37V86H28.12V31.08a2.37 2.37 0 012.37-2.37h.01zM48 86V28.71 86zM32.8 15.67h28.06v6.28H32.8v-6.28zm40.71 32.16h5.8v5.92h-5.8v-5.92zm0-5.93h5.8v5.92h-5.8V41.9z" stroke="currentColor" stroke-width="2" stroke-linecap="round" stroke-linejoin="round"/></svg>