<svg viewBox="0 0 96 96" fill="none" xmlns="http://www.w3.org/2000/svg"><path d="M49.29 28.72c-3.16 0-6.2-2.55-7.42-5.54-2 4.32-4.37 7.75-10.38 7.75h-6v8.86c0 7.34 4.37 13.29 12 13.29s12-5.95 12-13.29V28.72h-.2z" stroke="currentColor" stroke-width="2" stroke-linecap="round" stroke-linejoin="round"/><path d="M49.52 40.9A13.079 13.079 0 0055 29.82v-6.64a4.399 4.399 0 00-4.37-4.43A15.62 15.62 0 0036.91 11h-1.3A15.699 15.699 0 0020 26.8v2.72c0 4.28 2.18 9.16 5.46 11.38m4.39 9.52v5.98l-9.49 1.47A14.33 14.33 0 008 71.93v5.17a4.45 4.45 0 003.68 4.35l12.1 2.27a73.999 73.999 0 0027.44 0l12.1-2.27A4.45 4.45 0 0067 77.1v-5.17a14.33 14.33 0 00-12.36-14.06l-9.49-1.47v-5.98" stroke="currentColor" stroke-width="2" stroke-linecap="round" stroke-linejoin="round"/><path d="M37.5 62.91l7.65-6.51 3.4.55-2.31 10.52-8.74-4.56zm0 0l-8.74 4.56-2.31-10.52 3.4-.55 7.65 6.51zm-4.37 2.35l2.18 4.42m0 0l-2.3 15.18m2.3-15.18h4.38m2.18-4.42l-2.18 4.42m0 0l2.3 15.18m-21.97-7.59v5.71m34.96-5.71v5.71M88 32.52v5h-9.5v9.5h-5v-9.5H64v-5h9.5v-9.5h5v9.5H88z" stroke="currentColor" stroke-width="2" stroke-linecap="round" stroke-linejoin="round"/></svg>