<svg viewBox="0 0 96 96" fill="none" xmlns="http://www.w3.org/2000/svg"><path d="M42 28.72h-9.88c-4.39 0-7.68 3.32-7.68 3.32v7.75c0 7.34 4.39 13.29 12.06 13.29 7.67 0 12.06-5.95 12.06-13.29v-14.4s-3.29 3.33-6.56 3.33z" stroke="currentColor" stroke-width="2" stroke-linecap="round" stroke-linejoin="round"/><path d="M17.87 26.8A15.72 15.72 0 0133.51 11h2.4a15.67 15.67 0 0113.74 7.75 5.179 5.179 0 015.48 5.53v19.85a8.781 8.781 0 004.39 7.74 9.649 9.649 0 01-7 5.23l-1.74.29m-21.95-6.97v5.98m15.34-5.98v5.98m0 .08l8.89 1.39A14.17 14.17 0 0165 71.93v5.17a4.41 4.41 0 01-3.56 4.35l-11.68 2.27a69.19 69.19 0 01-26.52 0l-11.68-2.27A4.41 4.41 0 018 77.1v-5.17a14.17 14.17 0 0111.94-14.06l8.89-1.39" stroke="currentColor" stroke-width="2" stroke-linecap="round" stroke-linejoin="round"/><path d="M24.44 57.17l3.15 6.89a9.83 9.83 0 0017.82 0l3.34-6.86M20.06 77.27v5.71m32.88-5.71v5.71M22.25 57.39l-1.74-.29a9.65 9.65 0 01-7-5.23 8.78 8.78 0 004.39-7.74V26.46M76 47v-6.55H64v-10.9h12V23l12 12-12 12z" stroke="currentColor" stroke-width="2" stroke-linecap="round" stroke-linejoin="round"/></svg>