<svg viewBox="0 0 96 96" fill="none" xmlns="http://www.w3.org/2000/svg"><path d="M52.21 15.38a18.731 18.731 0 0115.93 6.17m-22.39-.05c3.28 3.82 8.33 5.62 14.18 2.11a8.41 8.41 0 003-11.48c-2.35-3.92-6.6-4.27-11.26-3.86-7.55.67-15.58 5.49-15.58 5.49s3.09.1 9.66 7.74zm31.56 29.95h-8.99l1.53-25.93h5.93l1.53 25.93zm0 11.55v19.7c0 2.84-1.91 5.16-4.25 5.16H22.94c-2.34 0-4.25-2.32-4.25-5.16V63h58.62z" stroke="currentColor" stroke-width="2" stroke-linecap="round" stroke-linejoin="round"/><path d="M31.3 80.99a3.36 3.36 0 100-6.72 3.36 3.36 0 000 6.72zm13.31 0a3.36 3.36 0 100-6.72 3.36 3.36 0 000 6.72zM18.69 51.45h58.62v11.58H18.69V51.45z" stroke="currentColor" stroke-width="2" stroke-linecap="round" stroke-linejoin="round"/></svg>