<svg viewBox="0 0 96 96" fill="none" xmlns="http://www.w3.org/2000/svg"><path d="M41 72.38c2.5 0 2.5.61 5 .61s2.5-.61 5-.61 2.5.61 5 .61m-15 3.72c2.5 0 2.5.6 5 .6s2.5-.6 5-.6 2.5.6 5 .6M32.7 12.66h30.61v29.51H32.7V12.66zm46.76 54.82L63.3 42.17H32.69L16.54 67.48h62.92zm-14.9 7.07a2.17 2.17 0 11-4.34 0 2.17 2.17 0 014.34 0zm7.76 0a2.17 2.17 0 11-4.34 0 2.17 2.17 0 014.34 0zm7.76 0a2.17 2.17 0 11-4.34 0 2.17 2.17 0 014.34 0z" stroke="currentColor" stroke-width="2" stroke-linecap="round" stroke-linejoin="round"/><path d="M11.23 67.75h73.55v13.59H11.23V67.75z" stroke="currentColor" stroke-width="2" stroke-linecap="round" stroke-linejoin="round"/></svg>