<svg width="96" height="96" viewBox="0 0 96 96" fill="none" xmlns="http://www.w3.org/2000/svg">
<path d="M48 62.5277C56.3602 62.5277 63.1376 55.7503 63.1376 47.39C63.1376 39.0298 56.3602 32.2524 48 32.2524C39.6397 32.2524 32.8624 39.0298 32.8624 47.39C32.8624 55.7503 39.6397 62.5277 48 62.5277Z" stroke="#00008F" stroke-width="2" stroke-linecap="round" stroke-linejoin="round"/>
<path d="M47.9999 54.1204C51.7171 54.1204 54.7305 51.107 54.7305 47.3898C54.7305 43.6726 51.7171 40.6592 47.9999 40.6592C44.2827 40.6592 41.2693 43.6726 41.2693 47.3898C41.2693 51.107 44.2827 54.1204 47.9999 54.1204Z" stroke="#00008F" stroke-width="2" stroke-linecap="round" stroke-linejoin="round"/>
<path d="M88.6484 47.3897C88.6484 47.3897 70.448 62.7794 48 62.7794C25.552 62.7794 7.35156 47.3897 7.35156 47.3897C7.35156 47.3897 25.552 32 48 32C70.448 32 88.6484 47.3897 88.6484 47.3897Z" stroke="#00008F" stroke-width="2" stroke-linecap="round" stroke-linejoin="round"/>
</svg>
