<svg viewBox="0 0 96 96" fill="none" xmlns="http://www.w3.org/2000/svg"><path d="M84.187 50.55l.209-.292-.21-.29C73.408 35.043 55.621 32.83 46 32.83c-7.534 0-13.967 1.318-19.585 4.13-5.62 2.813-10.393 7.105-14.631 13.008l-.21.292.21.291c9.128 12.751 22.29 20.09 36.216 20.09s27.087-7.339 36.187-20.09zm-73.599-.681l.001-.002c4.693-6.685 9.948-11.186 15.813-14.02C32.272 33.01 38.78 31.83 46 31.83c14.488 0 30.009 4.71 39.31 17.957l.01.013.01.012a.72.72 0 01.052.823C76.022 64.005 62.38 71.64 48 71.64c-14.384 0-28.02-7.63-37.41-21.007l-.002-.002a.66.66 0 010-.762z" stroke="currentColor"/><path d="M17.34 33.86c7.92-6.87 17.18-10 27.93-10a52.81 52.81 0 0128.44 8.06" stroke="currentColor" stroke-width="2" stroke-linecap="round" stroke-linejoin="round"/><path d="M66.33 41.87a20.927 20.927 0 00-4.5-6.68c-1.9-1.91-9.06-2.83-15.6-2.78-6.54.05-13.7.87-15.6 2.78a21.001 21.001 0 000 29.7 22.83 22.83 0 0031.2 0 21 21 0 004.5-23v-.02z" stroke="currentColor" stroke-width="2" stroke-linecap="round" stroke-linejoin="round"/><path d="M56.505 47.37l-.009-.005a.5.5 0 00-.27-.075h-.01v0a.5.5 0 00-.172.029 4.199 4.199 0 01-1.324.27l-.01.001h-.01a4.06 4.06 0 01-4.06-4.06v-.017a3.93 3.93 0 01.644-2.025.612.612 0 00.051-.47.63.63 0 00-.332-.359 9.88 9.88 0 00-3.802-.75l9.303 7.46zm0 0l.008.005m-.008-.005l.008.005m0 0a.57.57 0 01.277.383c.123.627.186 1.264.19 1.903a9.75 9.75 0 11-9.779-9.751l9.312 7.465zm-6.55-5.467l.21-.518-.538-.151a8.792 8.792 0 00-2.406-.33H47.2a8.75 8.75 0 108.75 8.751v-1.22l-.582.097c-.22.036-.443.054-.666.053h-.001a5.07 5.07 0 01-5.061-5.059 4.401 4.401 0 01.323-1.623z" stroke="currentColor"/></svg>