<svg viewBox="0 0 96 96" fill="none" xmlns="http://www.w3.org/2000/svg"><path d="M37 27a5.33 5.33 0 01-5-3c-1.34 2.75-2.93 5-7 5h-4v6c0 4.67 2.81 9 8 9 5.19 0 8-4.33 8-9v-8z" stroke="currentColor" stroke-width="2" stroke-linecap="round" stroke-linejoin="round"/><path d="M37 37s5-2 5-9v-2c0-3 0-7-4-7-1.87-3.12-4-5-9-5h-1a12.16 12.16 0 00-12 12v2c0 7 5 9 5 9m2 4.27V46l-5.62.61a9.38 9.38 0 00-8.38 9v3.32a2.92 2.92 0 002.5 2.79l8.2 1.45a53.308 53.308 0 0018.6 0l3.7-.64m-7-21.35V46l3.63.4M17 58v4.7" stroke="currentColor" stroke-width="2" stroke-linecap="round" stroke-linejoin="round"/><path d="M23 46l4.29 7.14a2 2 0 003.42 0L35 46m26-4.73V46l-3.63.4M73 41.18V46l5.62.62a9.38 9.38 0 018.38 9v3.32a2.92 2.92 0 01-2.49 2.79l-8.2 1.45a53.308 53.308 0 01-18.6 0L54 62.53M79 58v4.7M59 32v3c0 4.67 2.81 9 8 9 5.19 0 8-4.33 8-9V25s-2 3-5 3h-6c-4 0-5 2-5 2v2z" stroke="currentColor" stroke-width="2" stroke-linecap="round" stroke-linejoin="round"/><path d="M80 46.91c3.16-.6 4-3.91 4-3.91s-4-2-4-6V25c0-2-1-4-3-4-1.89-3.09-4-6-10-6h-1c-7 0-12 6-12 13v9a6.74 6.74 0 01-2.78 5.2" stroke="currentColor" stroke-width="2" stroke-linecap="round" stroke-linejoin="round"/><path d="M77.6 46.5C76.32 50.25 72.06 53 67 53a12.32 12.32 0 01-8.12-2.88M51 50c-1.15 2.4-2.5 4-6 4h-4v4c0 4.07 2.55 8 7 8s7-3.93 7-8v-5a4.37 4.37 0 01-4-3z" stroke="currentColor" stroke-width="2" stroke-linecap="round" stroke-linejoin="round"/><path d="M54.17 61.89A10.28 10.28 0 0059 53v-1a10.24 10.24 0 00-10-10h-2a10.24 10.24 0 00-10 10v1a10.28 10.28 0 004.83 8.89M43 64v4m0 0l-4.88 1A8.06 8.06 0 0031 76.76v2.87A2.51 2.51 0 0033.12 82l7 1.25c5.23.95 10.59.95 15.82 0l7-1.25A2.51 2.51 0 0065 79.63v-2.87A8.06 8.06 0 0057.88 69L53 68m-10 0a5 5 0 1010 0m0-4v4M38 79v3.92M58 79v3.92" stroke="currentColor" stroke-width="2" stroke-linecap="round" stroke-linejoin="round"/></svg>