<svg viewBox="0 0 96 96" fill="none" xmlns="http://www.w3.org/2000/svg"><path d="M41.35 38.7v5.34l-4.06.45m17.63-5.89v5.44l4.42.49M41.55 64a60.498 60.498 0 0017.1-.55l4.46-.79m-1.41-5.05v3.61M48.13 41.78c5.87 0 9-4.89 9-10.17V20.3s-2.26 3.4-5.66 3.4h-6.73c-4.52 0-5.65 2.26-5.65 2.26v5.65c0 5.28 3.18 10.17 9.04 10.17z" stroke="currentColor" stroke-width="2" stroke-linecap="round" stroke-linejoin="round"/><path d="M30.29 39.74a7.58 7.58 0 003.15-5.87V23.7C33.44 15.78 39.09 9 47 9h1.13c6.79 0 9.17 3.29 11.31 6.78 2.26 0 3.39 2.26 3.39 4.52v13.57a7.61 7.61 0 003.27 6m-8.51 8.56A14.48 14.48 0 0139 48.7m18.59-.27c-.192.785-.29 1.591-.29 2.4V52a11.41 11.41 0 004.4 9.26m-4.11-12.83a11.44 11.44 0 011.75-3.9m-1.75 3.9l1.75-3.9M76.71 62a11.61 11.61 0 005.46-10v-1.17a11.59 11.59 0 00-11.31-11.31H68.6c-.843.006-1.681.11-2.5.31m0 0a11.76 11.76 0 00-6.76 4.7m6.76-4.7l-6.76 4.7M41.55 64c.32.24.54.37.54.37-1.44 2.89-4.73 4.39-6.92 5.1" stroke="currentColor" stroke-width="2" stroke-linecap="round" stroke-linejoin="round"/><path d="M41.55 64a6.811 6.811 0 01-2.85-5.26V47.43a3.1 3.1 0 00-1.41-2.94 4 4 0 00-2-.45c-1.87-3.19-4.52-4.52-9-4.52h-1.15a11.33 11.33 0 00-11.31 11.31v7.91c0 3.69-3.39 5.65-3.39 5.65 1.44 2.89 4.73 4.39 6.92 5.1m14.56-5.1v4.52L37.43 70a9.11 9.11 0 018 8.81v3.24a2.83 2.83 0 01-2.39 2.73l-5.52 1m-22.51 0l-5.51-1a2.84 2.84 0 01-2.4-2.73v-3.24a9.11 9.11 0 018-8.81l2.37-.46 3.14-.63" stroke="currentColor" stroke-width="2" stroke-linecap="round" stroke-linejoin="round"/><path d="M15 85.77l2.33.43a50.203 50.203 0 0017.88 0l2.36-.43v-4.42m-2.51-11.81l-2 5c-2.41 5.06-11.16 5.06-13.57 0l-2-5m-.02 0v-.01m3.14-5.14v4.52m-5.65 12.44v4.42m55.36-33.65a7.931 7.931 0 002.8-3.55A5 5 0 0077.65 52v5.65c0 4.6-2.88 9-7.92 9a7.4 7.4 0 01-6.62-4m-44.76-5.04c0 4.52 2.88 9 7.92 9s7.91-4.52 7.91-9v-9a8.65 8.65 0 01-5.65 2.26h-5.65a6 6 0 00-4.53 2.26v4.48z" stroke="currentColor" stroke-width="2" stroke-linecap="round" stroke-linejoin="round"/><path d="M70.32 52.12a7.24 7.24 0 01-4 1h-4.5v4.52a10.44 10.44 0 001.29 5.07m.97 1.68v4.52L58.57 70a9.11 9.11 0 00-8 8.81v3.24a2.83 2.83 0 002.39 2.73l5.52 1m16.91-16.87v-4.52" stroke="currentColor" stroke-width="2" stroke-linecap="round" stroke-linejoin="round"/><path d="M81 85.77l-2.37.43a50.198 50.198 0 01-17.88 0l-2.36-.43" stroke="currentColor" stroke-width="2" stroke-linecap="round" stroke-linejoin="round"/><path d="M80.99 85.78l5.51-1a2.84 2.84 0 002.4-2.73v-3.24a9.11 9.11 0 00-8-8.81l-5.51-1.09a5.658 5.658 0 01-7.876 5.444 5.66 5.66 0 01-3.434-5.444m-5.65 12.44v4.42m22.61-4.42v4.42" stroke="currentColor" stroke-width="2" stroke-linecap="round" stroke-linejoin="round"/></svg>