<svg viewBox="0 0 96 96" fill="none" xmlns="http://www.w3.org/2000/svg"><path d="M72.77 49.11c-1.29 2.67-2.79 4.46-6.69 4.46h-4.46V58c0 4.53 2.84 8.91 7.8 8.91s7.8-4.38 7.8-8.91v-5.54a4.86 4.86 0 01-4.45-3.35z" stroke="currentColor" stroke-width="2" stroke-linecap="round" stroke-linejoin="round"/><path d="M76.3 62.36a11.45 11.45 0 005.38-9.9v-1.12A11.42 11.42 0 0070.54 40.2h-2.23a11.42 11.42 0 00-11.14 11.14v1.12a11.42 11.42 0 005.38 9.9m1.3 2.35v4.46l-5.43 1.08a8.999 8.999 0 00-7.94 8.68v3.2a2.78 2.78 0 002.36 2.68l7.77 1.4a49.67 49.67 0 0017.62 0l7.77-1.4a2.79 2.79 0 002.37-2.68v-3.2a9 9 0 00-7.94-8.68L75 69.17a5.57 5.57 0 01-11.14 0m11.13-4.46v4.46M58.28 81.43v4.36m22.29-4.36v4.36" stroke="currentColor" stroke-width="2" stroke-linecap="round" stroke-linejoin="round"/><path d="M48.25 42.43c5.78 0 8.92-4.82 8.92-10v-8.94a6 6 0 01-5.58-3.35c-1.49 3.07-3.26 5.57-7.8 5.57h-4.45v6.69c0 5.21 3.13 10.03 8.91 10.03z" stroke="currentColor" stroke-width="2" stroke-miterlimit="10"/><path d="M57.17 34.63s5.57-2.23 5.57-10v-2.26c0-3.34 0-7.8-4.46-7.8C56.2 11.1 53.82 9 48.25 9h-1.11a13.55 13.55 0 00-13.37 13.37v2.23c0 7.8 5.57 10 5.57 10m2.23 10.06v-5.27m0 5.27l-4.11.45m4.11-.45l4.77 8a2.22 2.22 0 003.82 0l4.78-8m0-5.37v5.37m0 0l4.04.44M41.62 64.33c5.663.64 11.388.46 17-.53l4.12-.73m-21.12 1.26a6.71 6.71 0 01-2.79-5.19V48a3.07 3.07 0 00-1.37-2.89m4.16 19.22c.179.138.366.265.56.38-1.43 2.85-4.67 4.33-6.82 5m2.1-24.6a3.76 3.76 0 00-2-.45c-1.81-3.15-4.46-4.46-8.88-4.46h-1.12a11.17 11.17 0 00-11.14 11.14v7.8c0 3.65-3.34 5.57-3.34 5.57 1.42 2.85 4.66 4.33 6.82 5" stroke="currentColor" stroke-width="2" stroke-miterlimit="10"/><path d="M32.15 64.71v4.46l5.43 1.08a9 9 0 017.94 8.68v3.2a2.78 2.78 0 01-2.36 2.68l-7.77 1.4a49.674 49.674 0 01-17.62 0L10 84.81a2.79 2.79 0 01-2.38-2.68v-3.2a9 9 0 017.94-8.68L21 69.17m16.72 12.26v4.36" stroke="currentColor" stroke-width="2" stroke-linecap="round" stroke-linejoin="round"/><path d="M17.91 69.78l2 5c2.37 5 11 5 13.37 0l2-5m-14.27-5.07v4.46m-5.58 12.26v4.36m13.38-34.45h-5.58a5.88 5.88 0 00-4.45 2.23V58c0 4.46 2.83 8.91 7.8 8.91s7.8-4.45 7.8-8.91v-8.89a8.53 8.53 0 01-5.57 2.23z" stroke="currentColor" stroke-width="2" stroke-linecap="round" stroke-linejoin="round"/></svg>