<svg viewBox="0 0 96 96" fill="none" xmlns="http://www.w3.org/2000/svg"><path d="M37 27a5.33 5.33 0 01-5-3c-1.34 2.75-2.93 5-7 5h-4v6c0 4.67 2.81 9 8 9 5.19 0 8-4.33 8-9v-8z" stroke="currentColor" stroke-width="2" stroke-linecap="round" stroke-linejoin="round"/><path d="M37 37s5-2 5-9v-2c0-3 0-7-4-7-1.87-3.12-4-5-9-5h-1a12.16 12.16 0 00-12 12v2c0 7 5 9 5 9m2 4.27V46l-5.62.61a9.38 9.38 0 00-8.38 9v3.32a2.92 2.92 0 002.5 2.79l8.2 1.45a53.143 53.143 0 0014.63.55M35 41.18V46l3.63.4M17 58v4.7" stroke="currentColor" stroke-width="2" stroke-linecap="round" stroke-linejoin="round"/><path d="M23 46l4.29 7.14a2 2 0 003.42 0L35 46m40-19a5.33 5.33 0 01-5-3c-1.34 2.75-2.93 5-7 5h-4v6c0 4.67 2.81 9 8 9 5.19 0 8-4.33 8-9v-8z" stroke="currentColor" stroke-width="2" stroke-linecap="round" stroke-linejoin="round"/><path d="M75 37s5-2 5-9v-2c0-3 0-7-4-7-1.87-3.12-4-5-9-5h-1a12.16 12.16 0 00-12 12v2c0 7 5 9 5 9m14.01 4.27V46m-12-4.82V46l-3.17.35M73 46l5.61.61c4.83.69 8.39 4.51 8.39 9v3.32a2.92 2.92 0 01-2.5 2.79l-8.2 1.45a52.997 52.997 0 01-14.83.53M79.01 58v4.7" stroke="currentColor" stroke-width="2" stroke-linecap="round" stroke-linejoin="round"/><path d="M73 46l-4.29 7.14a1.999 1.999 0 01-3.43 0L61 46M43 64v4l-4.88 1A8.06 8.06 0 0031 76.76v2.87A2.51 2.51 0 0033.12 82l7 1.25c5.23.95 10.59.95 15.82 0l7-1.25A2.51 2.51 0 0065 79.63v-2.87A8.06 8.06 0 0057.88 69L53 68v-4M38 79v3.92M58 79v3.92M50 52h-5a5.27 5.27 0 00-4 2v4c0 4 2.55 8 7 8s7-4 7-8v-8a7.65 7.65 0 01-5 2z" stroke="currentColor" stroke-width="2" stroke-linecap="round" stroke-linejoin="round"/><path d="M40.12 68.51c-1.93-.62-4.84-2-6.12-4.51a6.26 6.26 0 003-5v-7a10 10 0 0110-10h1c4 0 6.35 1.18 8 4a2.67 2.67 0 013 3v10a6.26 6.26 0 003 5c-1.28 2.55-4.19 3.89-6.12 4.51m-15.66.03L42 73c2.13 4.48 9.87 4.48 12 0l1.78-4.45" stroke="currentColor" stroke-width="2" stroke-linecap="round" stroke-linejoin="round"/></svg>