<svg viewBox="0 0 96 96" fill="none" xmlns="http://www.w3.org/2000/svg"><path d="M13.96 42.6V79h52.2V42.27m0 36.73h20.25-20.25zm20.25-4.6H66.16h20.25z" stroke="currentColor" stroke-width="2" stroke-miterlimit="10"/><path d="M86.41 68.26H66.16M20.41 79V57.25h19.65V79H20.41zm0-21.75L40.06 79 20.41 57.25zm19.65 0L59.7 79 40.06 57.25zm19.64 0L40.06 79 59.7 57.25zm-19.64 0L20.41 79l19.65-21.75zM23.73 42.48h7.71v9.31h-7.71v-9.31zm12.74-.03h7.71v9.31h-7.71v-9.31zm12.53 0h7.71v9.31H49v-9.31zm-5.39-8.89A3.56 3.56 0 1140.06 30a3.55 3.55 0 013.55 3.56v0zm27.6 29.8h5.04V79h-5.04V63.36zm10.16 0h5.04V79h-5.04V63.36z" stroke="currentColor" stroke-width="2" stroke-miterlimit="10"/><path d="M9.59 40.43a2.5 2.5 0 011-2.06l27.23-20.62a3.71 3.71 0 014.47 0L69.5 38.37a2.51 2.51 0 011 2.06 2.57 2.57 0 01-4.13 2L40.61 23a.92.92 0 00-1.11 0L13.72 42.48a2.569 2.569 0 01-4.13-2.05v0z" stroke="currentColor" stroke-width="2" stroke-linecap="round" stroke-linejoin="round"/></svg>