<svg width="96" height="96" viewBox="0 0 96 96" fill="none" xmlns="http://www.w3.org/2000/svg">
<path d="M77 51.8398H17C13.134 51.8398 10 54.9739 10 58.8398V77.8398C10 81.7058 13.134 84.8398 17 84.8398H77C80.866 84.8398 84 81.7058 84 77.8398V58.8398C84 54.9739 80.866 51.8398 77 51.8398Z" stroke="#00008F" stroke-width="2" stroke-miterlimit="10"/>
<path d="M31 35.9999H63M25 52.1599V13.1599C25 12.6295 25.2107 12.1208 25.5858 11.7457C25.9609 11.3706 26.4696 11.1599 27 11.1599H67C67.5304 11.1599 68.0391 11.3706 68.4142 11.7457C68.7893 12.1208 69 12.6295 69 13.1599V52.1599H25ZM31 17.9999H63H31Z" stroke="#00008F" stroke-width="2" stroke-miterlimit="10"/>
<path d="M73.28 67.9099H20.72C19.6154 67.9099 18.72 68.8053 18.72 69.9099V73.9999C18.72 75.1045 19.6154 75.9999 20.72 75.9999H73.28C74.3845 75.9999 75.28 75.1045 75.28 73.9999V69.9099C75.28 68.8053 74.3845 67.9099 73.28 67.9099Z" stroke="#00008F" stroke-width="2" stroke-miterlimit="10"/>
<path d="M31 45H63M31 27H63H31Z" stroke="#00008F" stroke-width="2" stroke-miterlimit="10"/>
</svg>
