<svg viewBox="0 0 96 96" fill="none" xmlns="http://www.w3.org/2000/svg"><path d="M16.52 57.93v-37.5m59.64 0v21.96-21.96zm3.03-5.52H13.5a2.5 2.5 0 00-2.5 2.5v.51a2.5 2.5 0 002.5 2.5h65.69a2.5 2.5 0 002.5-2.5v-.51a2.5 2.5 0 00-2.5-2.5zM21 26.15l13.61 13.23 6.07-5.51L54.7 47.31m3.75 16.13H13.76A2.76 2.76 0 0111 60.68a2.76 2.76 0 012.76-2.75h42.69l2 5.51zM46.34 14.91V10.5v4.41zm0 70.59V63.44 85.5zm-24.3 0l23.2-22.06-23.2 22.06zm48.6 0L47.45 63.44 70.64 85.5z" stroke="currentColor" stroke-width="2" stroke-linecap="round" stroke-linejoin="round"/><path d="M46.97 47.31h7.73v-7.72m15.94 30.47c7.93 0 14.36-6.42 14.36-14.34s-6.43-14.34-14.36-14.34-14.36 6.42-14.36 14.34 6.43 14.34 14.36 14.34z" stroke="currentColor" stroke-width="2" stroke-linecap="round" stroke-linejoin="round"/><path d="M75.06 49.72A5.353 5.353 0 0071.24 48c-3.38 0-6.12 3.46-6.12 7.72s2.74 7.72 6.12 7.72a5.37 5.37 0 003.82-1.71m-12.15-8.22h7.73-7.73zm0 4.42h7.73-7.73z" stroke="currentColor" stroke-width="2" stroke-linecap="round" stroke-linejoin="round"/></svg>