<svg viewBox="0 0 96 96" fill="none" xmlns="http://www.w3.org/2000/svg"><path d="M16.41 68.13l.02-52.33m62.64 0v40.72V15.8zm3.53-5.51H13.41a2.5 2.5 0 00-2.5 2.5v.51a2.5 2.5 0 002.5 2.5H82.6a2.5 2.5 0 002.5-2.5v-.51a2.5 2.5 0 00-2.5-2.5zM43.41 31.77l11.61 11.24 6.07-5.52 14.02 13.44m-6.76 23.14H13.67a2.76 2.76 0 010-5.52h50.69l3.99 5.52zm-20.6-63.78V5.88v4.41zm0 79.83V74.07v16.05zm-24.3 0l23.2-16.05-23.2 16.05zm48.6.01l-23.2-16.06 23.2 16.06z" stroke="currentColor" stroke-width="2" stroke-linecap="round" stroke-linejoin="round"/><path d="M67.38 50.93h7.73v-7.72m-.15 33.36c5.54 0 10.03-4.576 10.03-10.22 0-5.644-4.49-10.22-10.03-10.22-5.54 0-10.03 4.575-10.03 10.22 0 5.644 4.49 10.22 10.03 10.22z" stroke="currentColor" stroke-width="2" stroke-linecap="round" stroke-linejoin="round"/><path d="M69.55 64.77h5.41m-5.41 3.15h5.41M78 62.07a3.658 3.658 0 00-2.67-1.23c-2.36 0-4.27 2.47-4.27 5.51 0 3.04 1.91 5.5 4.27 5.5A3.69 3.69 0 0078 70.63M25.46 59.08h9.1m-7.18 9.1v-9.1m5.25 9.1v-9.1m-2.62-39.55v2.8m-9.1 4.81h18.2v41.4h-18.2v-41.4zm3.15-4.46h11.9v4.45h-11.9v-4.45z" stroke="currentColor" stroke-width="2" stroke-linecap="round" stroke-linejoin="round"/><path d="M25.35 33.08a1.4 1.4 0 100-2.8 1.4 1.4 0 000 2.8zm4.72 0a1.4 1.4 0 100-2.8 1.4 1.4 0 000 2.8zm4.73 0a1.4 1.4 0 100-2.8 1.4 1.4 0 000 2.8zm-9.45 6.89a1.4 1.4 0 100-2.8 1.4 1.4 0 000 2.8zm4.72 0a1.4 1.4 0 100-2.8 1.4 1.4 0 000 2.8zm4.73 0a1.4 1.4 0 100-2.8 1.4 1.4 0 000 2.8zm-9.45 6.88a1.4 1.4 0 100-2.8 1.4 1.4 0 000 2.8zm4.72 0a1.4 1.4 0 100-2.8 1.4 1.4 0 000 2.8zm4.73 0a1.4 1.4 0 100-2.8 1.4 1.4 0 000 2.8zm-9.45 6.88a1.4 1.4 0 100-2.8 1.4 1.4 0 000 2.8zm4.72 0a1.4 1.4 0 100-2.8 1.4 1.4 0 000 2.8zm4.73 0a1.4 1.4 0 100-2.8 1.4 1.4 0 000 2.8z" stroke="currentColor" stroke-width="2" stroke-linecap="round" stroke-linejoin="round"/></svg>