<svg width="96" height="96" viewBox="0 0 96 96" fill="none" xmlns="http://www.w3.org/2000/svg">
<path d="M36.1111 85.5542L36.111 85.5514C36.11 85.48 36.1241 85.4092 36.1526 85.3437C36.1807 85.2788 36.2222 85.2205 36.2744 85.1727C44.2401 78.0619 49.3731 68.3161 50.7308 57.7249L50.7309 57.7249L50.732 57.7149C50.7458 57.5864 50.8068 57.4676 50.9032 57.3816C50.9996 57.2955 51.1245 57.2483 51.2537 57.249V57.249H51.2566H51.3477C51.4059 57.2569 51.4622 57.2756 51.5136 57.3044C51.5705 57.3363 51.6201 57.3797 51.6592 57.4319L51.6638 57.4381L51.6686 57.4442C51.7556 57.553 51.7962 57.6917 51.7818 57.8302C50.3727 68.6597 45.1061 78.6181 36.9481 85.8785L36.92 85.9036L36.8959 85.9326C36.8377 86.0026 36.7582 86.0512 36.67 86.0713H36.6328C36.4952 86.0713 36.3632 86.0169 36.2655 85.9201C36.1678 85.8233 36.1123 85.6917 36.1111 85.5542Z" stroke="#00008F"/>
<path d="M30.5048 83.3928C30.416 83.4658 30.3049 83.5062 30.1899 83.5074H30.1738L30.1462 83.5012C30.0118 83.4711 29.8947 83.3891 29.8205 83.273L29.3992 83.5422L29.8205 83.273C29.7464 83.1569 29.7211 83.0162 29.7502 82.8816L29.7616 82.8293V82.7758V82.7754C29.9368 82.0046 30.3402 81.3041 30.9198 80.7656C40.6639 72.1724 45.4069 60.3195 43.898 48.239L43.8978 48.2379C43.7666 47.2047 44.0485 46.1613 44.6824 45.3349C45.313 44.5127 46.2411 43.9713 47.2666 43.8267C47.4261 43.8162 47.5861 43.8166 47.7455 43.8278L47.7624 43.829L47.7793 43.8291C48.7339 43.8318 49.6554 44.1791 50.3742 44.8072L50.6994 44.435L50.3742 44.8072C51.0922 45.4345 51.5598 46.2998 51.6913 47.244C51.9416 49.2574 52.053 51.2857 52.0247 53.3144C52.0187 53.4527 51.9598 53.5835 51.8602 53.6797C51.7604 53.7759 51.6275 53.8301 51.4891 53.8311C51.4219 53.8294 51.3558 53.8145 51.2944 53.7873C51.2317 53.7595 51.1753 53.7195 51.1284 53.6695L51.1285 53.6694L51.12 53.6608C51.0734 53.6136 51.0371 53.5573 51.0131 53.4955C50.9891 53.4337 50.9781 53.3676 50.9807 53.3014L50.981 53.294L50.981 53.2866C50.9995 51.3115 50.8886 49.3372 50.6493 47.3766C50.5695 46.6539 50.2244 45.9865 49.6807 45.5036C49.1422 45.0254 48.447 44.762 47.7275 44.763C47.6057 44.7534 47.4833 44.7541 47.3616 44.7651L47.3616 44.7651L47.3548 44.7658C46.9655 44.8064 46.5882 44.9249 46.2457 45.1144C45.9031 45.3038 45.6021 45.5603 45.3607 45.8684L45.7543 46.1768L45.3607 45.8684C45.1193 46.1766 44.9423 46.5303 44.8405 46.9082C44.7386 47.2859 44.7138 47.6802 44.7675 48.0677C46.4489 60.4684 41.6608 72.6764 31.5956 81.5606C31.1353 81.9617 30.8147 82.499 30.6805 83.0946L30.6804 83.0946L30.6783 83.1046C30.6552 83.2177 30.594 83.3194 30.5048 83.3928ZM40.7453 86.6304L40.7453 86.6282C40.7444 86.5612 40.7569 86.4947 40.7821 86.4326C40.8072 86.3706 40.8445 86.3141 40.8918 86.2666L40.8927 86.2657C44.772 82.3456 47.9786 77.8128 50.3835 72.8497C50.4261 72.7624 50.4922 72.6886 50.5744 72.6369L50.3079 72.2138L50.5744 72.6368C50.6567 72.585 50.7519 72.5572 50.8492 72.5566L50.8492 72.5567L50.8625 72.5563C50.9326 72.554 51.0021 72.5696 51.0645 72.6016L51.0644 72.6018L51.0758 72.6073C51.1377 72.6371 51.1931 72.6789 51.2388 72.7302L51.6122 72.3977L51.2388 72.7302C51.2845 72.7816 51.3196 72.8414 51.3421 72.9063C51.3646 72.9713 51.3741 73.04 51.3699 73.1086C51.3658 73.1772 51.3482 73.2443 51.318 73.306L51.317 73.3081C48.8716 78.3781 45.6088 83.0112 41.6595 87.022C41.5594 87.1007 41.4362 87.1449 41.3085 87.1473H41.2475C41.1144 87.1423 40.9882 87.0866 40.8948 86.9915L40.538 87.3418L40.8948 86.9915C40.8001 86.8951 40.7465 86.7656 40.7453 86.6304Z" stroke="#00008F"/>
<path d="M25.911 81.723C26.0979 81.9117 26.3505 82.0209 26.616 82.0279H26.6707C26.8793 82.0279 27.0828 81.9641 27.2541 81.8451C27.4253 81.726 27.556 81.5574 27.6286 81.3619C28.0017 80.422 28.5926 79.584 29.3528 78.9171C34.5904 74.4011 38.4507 68.5017 40.4917 61.894L25.911 81.723ZM25.911 81.723C25.724 81.5344 25.6171 81.2808 25.6125 81.0153L25.911 81.723ZM52.707 69.3034V69.3034L52.6991 69.3035C52.6335 69.3046 52.5685 69.292 52.508 69.2668C52.4475 69.2415 52.3929 69.204 52.3475 69.1567L52.3477 69.1565L52.3377 69.1466C52.2894 69.099 52.251 69.0421 52.2249 68.9795C52.1987 68.9169 52.1853 68.8497 52.1853 68.7818H52.1853L52.1852 68.7756C52.1846 68.722 52.1944 68.6688 52.2141 68.6189L52.2142 68.619L52.2184 68.6075C54.769 61.6672 55.6167 54.2161 54.6902 46.8802C54.4848 45.2028 53.6698 43.6595 52.4002 42.5441C51.1309 41.4289 49.4958 40.8193 47.8062 40.8314C47.5169 40.8315 47.2279 40.8512 46.9413 40.8902C46.0419 41 45.173 41.2862 44.3844 41.7324C43.5947 42.1793 42.9011 42.7778 42.3435 43.4935C41.7859 44.2093 41.3752 45.0282 41.1351 45.9032C40.895 46.7782 40.8302 47.692 40.9444 48.5922L40.9447 48.5944C41.3222 51.464 41.3222 54.3706 40.9447 57.2401L40.9446 57.2401L40.9433 57.2517C40.9296 57.3794 40.8692 57.4975 40.7738 57.5835C40.6785 57.6693 40.555 57.717 40.4268 57.7176C40.4266 57.7176 40.4264 57.7176 40.4262 57.7176L40.313 57.7176C40.2505 57.7082 40.1902 57.6877 40.1348 57.6571C40.0729 57.6229 40.0184 57.5766 39.9747 57.521C39.9309 57.4654 39.8987 57.4016 39.8799 57.3334C39.8611 57.2652 39.8562 57.1939 39.8654 57.1238L39.8654 57.1233C40.2242 54.3557 40.2243 51.5534 39.8656 48.7859C39.6087 46.6936 40.1916 44.5848 41.4866 42.9215C42.7818 41.2577 44.6839 40.1754 46.7759 39.9117L46.7761 39.9117C47.1026 39.8704 47.4314 39.8504 47.7604 39.8518L47.7658 39.8517C49.7048 39.8388 51.5818 40.5335 53.0452 41.8057C54.5081 43.0774 55.4571 44.8389 55.7143 46.7601C56.6657 54.2581 55.7995 61.8748 53.1889 68.9676C53.1507 69.0619 53.0866 69.1436 53.0039 69.2031C52.9229 69.2614 52.8274 69.2961 52.7281 69.3034H52.707ZM40.0136 61.7477C38.0002 68.2651 34.1925 74.084 29.0263 78.5384L29.0231 78.5412C28.2033 79.2604 27.5661 80.1639 27.1639 81.1775L27.1638 81.1775L27.1599 81.1878C27.1228 81.2877 27.0561 81.3738 26.9687 81.4346C26.8812 81.4953 26.7773 81.5279 26.6708 81.5279H26.6236C26.489 81.5229 26.3611 81.4669 26.2661 81.3711L25.9119 81.7221L26.2661 81.3711C26.171 81.2751 26.1161 81.1466 26.1125 81.0116C26.1133 80.9442 26.1264 80.8774 26.151 80.8146L26.151 80.8146L26.153 80.8094C26.5991 79.6329 27.3215 78.5809 28.2593 77.7421C33.2741 73.4312 36.9841 67.8045 38.9707 61.4969L38.9708 61.4969L38.9737 61.487C39.0064 61.3753 39.0743 61.2771 39.1674 61.2071C39.2604 61.1371 39.3736 61.099 39.49 61.0986L39.5142 61.0985L39.5382 61.0961C39.5832 61.0916 39.6285 61.0904 39.6737 61.0926C39.7279 61.1128 39.7787 61.1415 39.8241 61.1777C39.8806 61.2228 39.9277 61.2785 39.9626 61.3419L39.9626 61.3419L39.9675 61.3505C40.002 61.4102 40.0239 61.4763 40.0317 61.5448C40.0396 61.613 40.0334 61.682 40.0136 61.7477ZM45.7629 87.1138L45.7629 87.109C45.7628 86.9867 45.808 86.8688 45.8899 86.7779L45.8931 86.7742C47.3962 85.0716 48.7915 83.2769 50.071 81.4004C50.1209 81.3299 50.1868 81.2722 50.2633 81.2319C50.3391 81.1919 50.4233 81.1702 50.509 81.1687C50.6156 81.1703 50.7195 81.202 50.8089 81.26C50.864 81.2965 50.9109 81.3439 50.9471 81.3992C50.9834 81.4548 51.0079 81.5173 51.0191 81.5829L51.0205 81.5916L51.0223 81.6003C51.0359 81.6657 51.0361 81.7332 51.0228 81.7987C51.0096 81.8641 50.9832 81.9262 50.9452 81.9812L50.9432 81.9843C49.6458 83.8953 48.2326 85.7252 46.7116 87.4637C46.6628 87.519 46.6028 87.5633 46.5355 87.5938C46.468 87.6243 46.3948 87.6401 46.3208 87.6401H46.2782C46.2102 87.6393 46.1431 87.6252 46.0806 87.5987C46.0176 87.5719 45.9604 87.5329 45.9124 87.4841C45.8644 87.4352 45.8264 87.3773 45.8008 87.3138C45.7751 87.2502 45.7622 87.1823 45.7629 87.1138Z" stroke="#00008F"/>
<path d="M58.6766 46.4058L58.6767 46.4063C60.0166 57.2524 57.8098 68.2409 52.3863 77.7286C52.3203 77.8509 52.3039 77.994 52.3407 78.128C52.3769 78.2599 52.4618 78.373 52.5779 78.4446C52.6375 78.4752 52.7009 78.4973 52.7664 78.5103L52.7838 78.5068L52.8414 78.5087C52.9347 78.5117 53.0269 78.4891 53.1083 78.4436C53.1897 78.398 53.2571 78.3311 53.3032 78.2501L53.3036 78.2494C58.8458 68.5531 61.0966 57.3219 59.7188 46.2387L58.6766 46.4058ZM58.6766 46.4058C58.3484 43.7701 57.0699 41.3447 55.0808 39.5844C53.0918 37.8242 50.5288 36.8501 47.8728 36.8449L47.8697 36.8449M58.6766 46.4058L47.8697 36.8449M47.8697 36.8449C47.4166 36.8468 46.964 36.8721 46.5135 36.9208L46.5135 36.9206M47.8697 36.8449L46.5135 36.9206M46.5135 36.9206L46.5031 36.922M46.5135 36.9206L46.5031 36.922M46.5031 36.922C44.6492 37.1616 42.8867 37.8686 41.3811 38.9765L41.3695 38.9851M46.5031 36.922L41.3695 38.9851M41.3695 38.9851L41.3584 38.9943M41.3695 38.9851L41.3584 38.9943M41.3584 38.9943C41.2638 39.0726 41.1451 39.1158 41.0224 39.1164C40.9523 39.1156 40.883 39.1008 40.8186 39.073C40.7535 39.0448 40.6946 39.0039 40.6456 38.9527C40.5965 38.9015 40.5583 38.8409 40.533 38.7746C40.5083 38.7097 40.4965 38.6406 40.4984 38.5712C40.5067 38.4349 40.5647 38.3065 40.6612 38.2102C40.6877 38.1889 40.7164 38.1704 40.7466 38.1549L40.7836 38.136M41.3584 38.9943L40.7836 38.136M40.7836 38.136L40.8169 38.1113M40.7836 38.136L40.8169 38.1113M40.8169 38.1113C42.8411 36.6088 45.2957 35.7988 47.8165 35.8014L47.8192 35.8014M40.8169 38.1113L47.8192 35.8014M47.8192 35.8014C50.7348 35.7888 53.5543 36.8432 55.7463 38.7658M47.8192 35.8014L55.7463 38.7658M55.7463 38.7658C57.9379 40.6881 59.3508 43.3455 59.7187 46.2374L55.7463 38.7658ZM23.3711 79.0375L23.2134 79.0366C23.1978 79.0305 23.1825 79.0234 23.1677 79.0154L23.1594 79.0109L23.1509 79.0068C23.0283 78.9465 22.9342 78.8405 22.8889 78.7115C22.8443 78.5846 22.8505 78.4455 22.906 78.3231C23.5877 76.9775 24.5192 75.7739 25.651 74.7766L25.6526 74.7751C30.1349 70.7909 37.5789 62.156 35.9427 49.2238C35.6039 46.5461 36.1842 43.8327 37.5887 41.5278L37.5951 41.5172L37.6011 41.5063C37.646 41.4235 37.7129 41.3547 37.7944 41.3075C37.8758 41.2602 37.9687 41.2363 38.0629 41.2384L38.0629 41.2386L38.0767 41.2385C38.187 41.2379 38.2947 41.2723 38.3843 41.3368C38.4735 41.401 38.5401 41.4917 38.5747 41.596C38.6172 41.7285 38.6069 41.8723 38.5459 41.9974L38.5335 42.0228C38.5288 42.0286 38.5237 42.035 38.5184 42.0419C38.5068 42.0572 38.4919 42.0778 38.4767 42.1029C37.2049 44.1979 36.6821 46.6627 36.994 49.0935C38.6333 62.4186 31.022 71.3908 26.303 75.5593L26.3013 75.5609C25.2847 76.4673 24.4499 77.5589 23.8414 78.7773C23.7932 78.8553 23.7262 78.92 23.6464 78.9655C23.5626 79.0133 23.4676 79.0381 23.3711 79.0375Z" stroke="#00008F"/>
<path d="M20.6797 76.8013C20.7609 76.7959 20.8401 76.7725 20.9115 76.7325C20.9952 76.6856 21.0652 76.6175 21.1145 76.5351L21.1171 76.5308C21.9259 75.2073 22.9454 74.0246 24.1352 73.0294C25.3616 71.9237 26.5005 70.7245 27.5415 69.4427L27.5466 69.4364L27.5467 69.4365C27.6108 69.36 27.6517 69.2668 27.6645 69.1678C27.6773 69.0688 27.6614 68.9683 27.6187 68.878C27.5761 68.7878 27.5084 68.7117 27.4238 68.6588C27.3392 68.6058 27.2412 68.5783 27.1414 68.5793L27.1371 68.5794C27.0601 68.5795 26.9842 68.5964 26.9144 68.6289C26.8451 68.6611 26.7836 68.7079 26.734 68.7661C26.7337 68.7665 26.7334 68.7669 26.7331 68.7673L26.3514 68.4443C25.34 69.6563 24.2358 70.7879 23.049 71.8288L20.6797 76.8013ZM20.6797 76.8013C20.5951 76.7956 20.513 76.7701 20.4399 76.7267L20.4358 76.7243C20.3775 76.6904 20.3265 76.6453 20.2857 76.5917C20.2448 76.538 20.215 76.4768 20.1978 76.4116C20.1806 76.3464 20.1765 76.2785 20.1857 76.2117C20.1948 76.1449 20.217 76.0805 20.2511 76.0223L20.2522 76.0204C21.0817 74.5881 22.1376 73.2994 23.3789 72.2045L20.6797 76.8013ZM62.0433 45.951L62.0431 45.9501C61.8566 44.4425 61.4278 42.975 60.7732 41.6043C60.7488 41.5417 60.7363 41.4751 60.7364 41.4079C60.7365 41.3369 60.7506 41.2666 60.7779 41.201C60.8051 41.1355 60.8451 41.0759 60.8954 41.0258C60.9448 40.9766 61.0033 40.9374 61.0677 40.9105C61.1291 40.8867 61.1942 40.8743 61.26 40.8736L61.2631 40.8735C61.3583 40.872 61.452 40.896 61.5347 40.9431C61.6128 40.9876 61.6782 41.0512 61.7249 41.1278C62.4279 42.6114 62.8901 44.1976 63.0942 45.8267C63.9949 53.2017 63.4068 60.6823 61.3647 67.8259C59.3226 74.9692 55.8681 81.6303 51.2057 87.4147C51.1573 87.4743 51.0961 87.5222 51.0266 87.5549C50.9571 87.5877 50.8811 87.6044 50.8042 87.6038L50.6693 87.6028L50.6268 87.6271C50.5492 87.6094 50.4761 87.5744 50.4132 87.5241C50.3082 87.4376 50.2412 87.3134 50.2265 87.1782C50.2118 87.0431 50.2503 86.9076 50.3339 86.8006C54.9203 81.1226 58.32 74.5815 60.3314 67.5651C62.3432 60.5477 62.9253 53.1977 62.0433 45.951ZM29.6611 66.0962L29.6369 66.0932L29.6125 66.0925C29.4773 66.0889 29.3489 66.033 29.2542 65.9365L28.8974 66.2869L29.2541 65.9365C29.1605 65.8411 29.107 65.7135 29.1047 65.5799C29.1064 65.4809 29.1324 65.3838 29.1805 65.2972C32.0995 60.63 33.3125 55.096 32.6132 49.6355C32.1272 45.5888 33.2663 41.5144 35.7804 38.3063C38.2948 35.0979 41.9792 33.0179 46.0253 32.5227C46.6414 32.4492 47.2612 32.4108 47.8817 32.4077C49.9761 32.4129 52.0477 32.8439 53.9704 33.6746C55.8936 34.5056 57.6277 35.7191 59.0671 37.2414L59.0708 37.2452C59.1664 37.3442 59.2198 37.4764 59.2198 37.614C59.2198 37.7516 59.1664 37.8838 59.0708 37.9828L59.0708 37.9827L59.0666 37.9872C58.9719 38.0877 58.8413 38.1465 58.7034 38.1509C58.571 38.1551 58.4423 38.1088 58.3431 38.0219L58.2678 37.939L58.2678 37.939L58.2614 37.9321C56.9183 36.5096 55.3001 35.3748 53.5051 34.5967C51.71 33.8186 49.7756 33.4133 47.8192 33.4056L47.8171 33.4056C47.2256 33.4057 46.6348 33.4436 46.0481 33.5191C42.2794 33.9936 38.8529 35.9441 36.5208 38.9425C34.1886 41.9411 33.1416 45.7425 33.6095 49.5123L33.61 49.5158C34.3579 55.2138 33.1168 60.9951 30.0965 65.8838C30.0475 65.9486 29.9847 66.0017 29.9126 66.0393C29.8449 66.0746 29.7706 66.0954 29.6945 66.1004L29.6611 66.0962ZM55.9511 85.9677L55.9539 85.9637C60.0858 80.0571 63.0899 73.4373 64.8148 66.4383L64.8151 66.4371C64.8436 66.3201 64.9104 66.2161 65.0048 66.1414C65.0992 66.0668 65.2158 66.0258 65.3362 66.025L65.3782 66.0247L65.4195 66.0174C65.4368 66.0144 65.4544 66.0138 65.4718 66.0158C65.535 66.0326 65.5947 66.0608 65.6479 66.099C65.7055 66.1403 65.7544 66.1926 65.7917 66.2529C65.8291 66.3132 65.8543 66.3802 65.8658 66.4502L66.3592 66.3692L65.8658 66.4502C65.8771 66.5193 65.8749 66.5899 65.8592 66.6582C64.0979 73.7911 61.0319 80.5366 56.8161 86.5538C56.7664 86.6213 56.7017 86.6763 56.627 86.7145C56.5512 86.7532 56.4674 86.7734 56.3824 86.7736L56.2867 86.7738L56.2679 86.7813C56.2055 86.7681 56.1457 86.7435 56.0918 86.7085L55.8196 87.128L56.0917 86.7085C56.0127 86.6572 55.949 86.5855 55.9075 86.501C55.8659 86.4164 55.848 86.3222 55.8557 86.2283C55.8634 86.1344 55.8963 86.0443 55.9511 85.9677Z" stroke="#00008F"/>
<path d="M66.0207 45.456L66.0202 45.4522C65.4283 41.0297 63.2431 36.975 59.8747 34.0488C56.5062 31.1226 52.1859 29.5258 47.724 29.5581C43.2621 29.5903 38.9653 31.2493 35.6395 34.2238C32.3136 37.1984 30.1873 41.2842 29.6593 45.7148L29.6593 45.7148L29.6587 45.7204C29.6449 45.8481 29.5845 45.9662 29.4891 46.0522C29.3939 46.138 29.2703 46.1858 29.1421 46.1863C29.1419 46.1863 29.1417 46.1863 29.1416 46.1863L29.054 46.1863C28.9928 46.1776 28.9335 46.158 28.879 46.1285C28.8183 46.0956 28.7648 46.051 28.7214 45.9973C28.6781 45.9435 28.6459 45.8818 28.6266 45.8155C28.6073 45.7492 28.6014 45.6798 28.6091 45.6112L28.6092 45.6109C29.1407 40.8826 31.3965 36.5161 34.9452 33.3465C38.4937 30.1769 43.0861 28.4265 47.844 28.4299C48.5817 28.4315 49.3188 28.4732 50.052 28.5546C54.3693 29.0369 58.3983 30.9593 61.4894 34.0116C64.5806 37.0641 66.5535 41.0687 67.0902 45.3796L67.0903 45.3802C67.8018 51.042 67.69 56.7768 66.7583 62.4065C66.7303 62.5181 66.6667 62.6177 66.577 62.6902C66.4846 62.7647 66.3699 62.8062 66.2512 62.8079H66.1503C66.0865 62.7979 66.025 62.7765 65.9687 62.7448C65.9056 62.7091 65.8503 62.6612 65.8061 62.6037C65.7619 62.5462 65.7297 62.4805 65.7115 62.4103C65.6935 62.3413 65.6894 62.2694 65.6994 62.1988C66.6152 56.6628 66.7234 51.0231 66.0207 45.456ZM17.8747 73.8594L17.8474 73.856L17.8198 73.8556C17.7182 73.8542 17.6188 73.8259 17.5317 73.7738C17.4229 73.6948 17.348 73.5773 17.3224 73.445L16.8317 73.54L17.3224 73.445C17.296 73.309 17.324 73.168 17.4002 73.0522C18.3391 71.6274 19.4662 70.3359 20.7509 69.2127L20.754 69.21C24.1644 66.1785 29.8067 59.6329 28.6267 50.155L28.6263 50.1517C28.6173 50.0832 28.6222 50.0137 28.6408 49.9471C28.6593 49.8806 28.6911 49.8186 28.7342 49.7647C28.7774 49.7108 28.8309 49.6661 28.8917 49.6334C28.947 49.6037 29.0072 49.5844 29.0693 49.5764H29.1869C29.3083 49.5775 29.4253 49.6216 29.5172 49.7008L29.8438 49.3222L29.5173 49.7008C29.608 49.7791 29.6684 49.8865 29.6881 50.0045C30.9486 60.0918 25.1051 66.8437 21.4801 70.001L21.4787 70.0022C20.2668 71.0654 19.1984 72.2819 18.3005 73.6209L18.2977 73.6253C18.2509 73.6967 18.1877 73.7557 18.1132 73.7974L18.3577 74.2336L18.1132 73.7974C18.0483 73.8338 17.9766 73.8561 17.9027 73.8629L17.8747 73.8594ZM65.1708 77.6576L65.1787 77.6395L65.1852 77.6209C65.2197 77.5212 65.2847 77.4349 65.3709 77.3741C65.4571 77.3133 65.5603 77.2812 65.6658 77.2822L65.7027 77.2825L65.7394 77.2774C65.7797 77.2719 65.8204 77.2704 65.8609 77.2731C65.9146 77.2946 65.9647 77.3246 66.009 77.362L66.3316 76.98L66.009 77.362C66.0639 77.4084 66.109 77.4652 66.1416 77.5291C66.1742 77.5931 66.1938 77.6629 66.1991 77.7345L66.6977 77.6974L66.1991 77.7345C66.2043 77.8044 66.1958 77.8747 66.1742 77.9414C66.159 77.983 66.1405 78.0233 66.1189 78.0621L66.1077 78.0821L66.0984 78.1031C65.0961 80.365 63.9599 82.565 62.6956 84.6915L62.6954 84.6914L62.6894 84.7021C62.6494 84.7734 62.5928 84.8341 62.5246 84.8791L62.7996 85.2966L62.5246 84.8791C62.4563 84.9241 62.3782 84.9521 62.2969 84.9607L62.2742 84.9632L62.2654 84.9649C62.1414 84.9537 62.0247 84.899 61.9364 84.8099C61.8392 84.7119 61.7841 84.58 61.7826 84.4422C61.7858 84.3509 61.8103 84.2616 61.8542 84.1814C63.085 82.0729 64.1924 79.8946 65.1708 77.6576ZM67.7555 73.8982C67.7083 73.932 67.6559 73.9572 67.6007 73.973L67.5812 73.9575L67.4084 73.9559C67.2708 73.9547 67.1393 73.8992 67.0424 73.8015C66.9456 73.7037 66.8913 73.5717 66.8913 73.4342L66.8913 73.4326C66.8911 73.3699 66.9007 73.3076 66.9197 73.2478C70.1307 64.1807 71.1726 54.4872 69.9617 44.9448L69.9614 44.9428C69.9523 44.8735 69.9573 44.803 69.9759 44.7357L69.4941 44.6022L69.9759 44.7357C69.9946 44.6683 70.0266 44.6054 70.0701 44.5506C70.1135 44.4959 70.1675 44.4504 70.2289 44.417C70.2842 44.3868 70.3445 44.3669 70.4068 44.3582L70.5045 44.3582C70.5048 44.3582 70.505 44.3582 70.5052 44.3582C70.635 44.3587 70.7601 44.4067 70.8569 44.4931C70.9539 44.5797 71.0158 44.6989 71.0307 44.828L71.0307 44.828L71.0314 44.8336C72.2663 54.5424 71.2093 64.4056 67.9452 73.6323L67.945 73.6322L67.941 73.6446C67.9078 73.7467 67.8428 73.8356 67.7555 73.8982Z" stroke="#00008F"/>
<path d="M69.521 39.9803C69.4725 40.0267 69.4155 40.0632 69.3531 40.0879C69.334 40.0948 69.3146 40.1008 69.2951 40.1061L69.1944 40.1019C69.0924 40.0977 68.994 40.0636 68.9112 40.004C68.8284 39.9444 68.7649 39.8618 68.7285 39.7665L68.7281 39.7654C66.6021 34.2263 62.3648 29.7573 56.9467 27.3395C51.5285 24.9217 45.3724 24.7528 39.8298 26.8699L39.8285 26.8704C38.6986 27.3056 37.6062 27.8325 36.5622 28.4459C36.4917 28.4782 36.4153 28.4956 36.3377 28.4972C36.2336 28.4925 36.1331 28.4568 36.0494 28.3944C35.9634 28.3303 35.8993 28.2413 35.8657 28.1395C35.8321 28.0377 35.8307 27.928 35.8616 27.8254C35.8899 27.7318 35.9438 27.6482 36.017 27.5839C38.6563 26.037 41.5741 25.0237 44.6044 24.602C47.6476 24.1785 50.7446 24.3598 53.7176 25.1357C56.6906 25.9115 59.4812 27.2665 61.9295 29.1231C64.3778 30.9796 66.4355 33.3012 67.9846 35.9546L67.9856 35.9563C68.6353 37.0591 69.1907 38.2147 69.6459 39.4109L69.6472 39.414C69.672 39.478 69.684 39.5462 69.6824 39.6147C69.6809 39.6833 69.6658 39.7508 69.6381 39.8136C69.6104 39.8763 69.5706 39.933 69.521 39.9803L69.8663 40.342L69.521 39.9803ZM15.4863 70.444C15.4156 70.4814 15.3378 70.5032 15.258 70.5078C15.1962 70.5067 15.1351 70.4946 15.0774 70.4721C15.0125 70.4467 14.9533 70.4086 14.9033 70.3599C14.8534 70.3113 14.8137 70.2531 14.7866 70.1889C14.7595 70.1247 14.7456 70.0557 14.7456 69.986L14.7456 69.9824C14.7449 69.8743 14.781 69.7692 14.848 69.6843L14.848 69.6843L14.8527 69.6782C15.8067 68.4298 16.884 67.2808 18.0682 66.2483L18.0682 66.2483L18.0731 66.244C21.5179 63.1604 25.5649 57.9096 24.6214 50.6905C24.1546 47.0789 24.5407 43.4082 25.7489 39.9729C26.9572 36.5374 28.9538 33.4329 31.5787 30.9086L31.5788 30.9086L31.5847 30.9027C31.6317 30.856 31.6874 30.8191 31.7486 30.7939C31.8099 30.7688 31.8755 30.756 31.9417 30.7563L31.9466 30.7563C32.0511 30.7557 32.1534 30.7864 32.2402 30.8446C32.3269 30.9028 32.3943 30.9856 32.4334 31.0825C32.4726 31.1794 32.4817 31.2858 32.4597 31.3879C32.4377 31.49 32.3856 31.5832 32.31 31.6553L32.3087 31.6566C29.8096 34.0604 27.9072 37.0153 26.7534 40.2853C25.5997 43.5553 25.2266 47.0497 25.6639 50.4895C26.6284 58.2087 22.4777 63.6864 18.7691 66.9644C17.6251 67.9623 16.587 69.0755 15.6714 70.2863L15.671 70.2868C15.6217 70.3521 15.5587 70.4058 15.4863 70.444ZM68.0316 81.3254L68.0315 81.3195C68.0306 81.2426 68.0477 81.1665 68.0814 81.0973L68.0827 81.0946C71.007 74.9984 72.97 68.4863 73.9018 61.7895L73.9019 61.7895L73.9032 61.7781C73.9182 61.649 73.98 61.5298 74.077 61.4432C74.174 61.3566 74.2994 61.3086 74.4294 61.3083H74.5038C74.6361 61.3299 74.7559 61.4001 74.8396 61.5055C74.9272 61.616 74.9682 61.7562 74.9538 61.8963C74.0045 68.7106 72.0041 75.3364 69.024 81.5375C68.9813 81.6262 68.9148 81.7013 68.8319 81.7544C68.7489 81.8075 68.6528 81.8364 68.5543 81.838L68.4645 81.8395C68.4266 81.8329 68.3894 81.8222 68.3536 81.8074C68.2903 81.7812 68.2328 81.7427 68.1843 81.6943L67.8308 82.0478L68.1843 81.6943C68.1359 81.6458 68.0975 81.5883 68.0712 81.525C68.045 81.4617 68.0315 81.3939 68.0316 81.3254Z" stroke="#00008F"/>
<path d="M74.0398 44.4816L74.0396 44.4804C73.3565 39.0317 70.9879 33.9326 67.2648 29.8961C63.5417 25.8596 58.6503 23.0873 53.2744 21.967L53.2745 21.9669L53.2657 21.9652C53.1351 21.9404 53.0185 21.8675 52.9391 21.7609C52.8596 21.6543 52.8231 21.5217 52.8367 21.3895C52.8502 21.2572 52.9129 21.1348 53.0124 21.0466C53.1119 20.9583 53.2408 20.9106 53.3738 20.9129V20.913H53.3823H53.5486C59.1048 22.1017 64.1543 24.9892 67.9969 29.176C71.8513 33.3756 74.2992 38.6733 74.9996 44.3303L74.9996 44.3307C75.5362 48.6379 75.6577 52.9866 75.3625 57.317C75.3484 57.4423 75.2886 57.5581 75.1944 57.6422C75.0987 57.7277 74.9743 57.7741 74.8459 57.7724L74.6353 57.7694C74.5849 57.7397 74.5393 57.7014 74.501 57.6557C74.4141 57.5523 74.3707 57.4193 74.3799 57.2846C74.6756 53.0158 74.5617 48.7286 74.0398 44.4816ZM15.4866 63.2014L15.4878 63.2004C18.221 60.8019 21.4134 56.7101 20.7173 51.1312L20.7171 51.13C20.2278 47.2806 20.5631 43.3712 21.7008 39.6613C22.8385 35.9515 24.7526 32.5262 27.3159 29.613C29.8791 26.6997 33.0329 24.3653 36.5678 22.7646C40.1025 21.164 43.9374 20.3338 47.8177 20.3291H48.5556C48.692 20.3355 48.8207 20.3943 48.915 20.4932L48.9149 20.4933L48.9209 20.4994C48.9675 20.5466 49.0038 20.6029 49.0278 20.6647C49.0517 20.7265 49.0628 20.7926 49.0602 20.8588L49.0598 20.8686L49.0598 20.8784C49.0599 21.0096 49.0087 21.1356 48.9172 21.2297C48.8271 21.3224 48.7048 21.3767 48.5757 21.3817H47.9184C46.7989 21.3786 45.6803 21.45 44.5703 21.5956C37.6443 22.4536 31.3418 26.0246 27.0462 31.5249C22.7502 37.0256 20.8126 44.0063 21.6588 50.9344L21.659 50.9361C22.4138 56.9477 19.0863 61.3582 16.0878 63.9808L16.0877 63.9808L16.0816 63.9863C15.145 64.8332 14.2668 65.7425 13.4529 66.7078L13.4509 66.7103C13.4029 66.7679 13.3429 66.8143 13.2751 66.8463C13.2075 66.878 13.1339 66.8947 13.0593 66.8951C13.059 66.8951 13.0586 66.8951 13.0583 66.8951L13.0533 66.8951C12.9854 66.8942 12.9183 66.8801 12.8558 66.8536C12.7927 66.8268 12.7355 66.7878 12.6875 66.739C12.6395 66.6901 12.6016 66.6322 12.5759 66.5687C12.551 66.507 12.5381 66.4411 12.538 66.3746C12.5433 66.2511 12.5865 66.1323 12.6615 66.0341C13.5364 65.0255 14.4804 64.079 15.4866 63.2014Z" stroke="#00008F"/>
<path d="M17.1511 51.0728C17.0919 51.082 17.0348 51.1017 16.9824 51.1311C16.924 51.1638 16.8727 51.2078 16.8315 51.2605C16.7462 51.3735 16.7069 51.5148 16.7218 51.6556C16.7219 51.6565 16.722 51.6574 16.7221 51.6583L16.2251 51.7132C16.5809 54.596 15.322 57.3419 12.4757 59.8507C11.7824 60.4619 11.1073 61.1187 10.4687 61.7938L17.1511 51.0728ZM17.1511 51.0728L17.2469 51.0728L17.2493 51.0728C17.3769 51.0722 17.5002 51.1192 17.595 51.2046C17.6898 51.29 17.7493 51.4077 17.762 51.5346L17.7618 51.5347L17.7635 51.548C18.1935 54.9368 16.8085 58.1218 13.5144 61.0256C12.8556 61.601 12.2159 62.222 11.6043 62.8795C11.5551 62.9284 11.4969 62.9673 11.4329 62.9942C11.4036 63.0065 11.3733 63.0161 11.3424 63.0231L11.3237 63.0118L11.191 63.009C11.0561 63.0061 10.9277 62.9511 10.8326 62.8557C10.7444 62.7568 10.6956 62.6289 10.6956 62.4962C10.6956 62.3624 10.7453 62.2333 10.8351 62.134M17.1511 51.0728L10.8351 62.134M10.8351 62.134C11.4633 61.4701 12.1264 60.8251 12.8063 60.2257L10.8351 62.134ZM74.3934 76.3995L74.4002 76.384L74.406 76.368C78.1334 66.0202 79.3523 54.9356 77.9623 44.025C77.2712 38.3353 74.9745 32.9599 71.3407 28.5274C71.2541 28.4192 71.2137 28.281 71.2286 28.1432C71.2435 28.0047 71.3128 27.8778 71.4212 27.7904C71.5297 27.7031 71.6684 27.6623 71.8068 27.6772C71.9453 27.6921 72.0722 27.7614 72.1596 27.8699L72.162 27.8729C75.9082 32.4498 78.2806 37.9947 79.0042 43.8649L79.0044 43.8667C80.4081 54.9344 79.1668 66.1773 75.3826 76.6723C75.3441 76.772 75.2764 76.8579 75.1883 76.9186C75.0993 76.9799 74.9938 77.0126 74.8857 77.0123H74.8843H74.6146C74.5177 76.96 74.4392 76.878 74.3914 76.7775C74.3662 76.7185 74.3533 76.655 74.3533 76.5909C74.3533 76.525 74.3669 76.4599 74.3934 76.3995ZM17.2442 49.6796C17.2092 49.6958 17.1726 49.7079 17.1351 49.7158L17.0992 49.6888L16.9623 49.6742C16.8385 49.6611 16.7236 49.604 16.6381 49.5135C16.5527 49.4229 16.5025 49.3048 16.4965 49.1805L15.9971 49.2044L16.4965 49.1811C16.3046 45.0662 16.9251 40.9537 18.3226 37.0786C19.7201 33.2034 21.8673 29.6416 24.6416 26.5963C27.4158 23.5511 30.7627 21.0822 34.4912 19.3306C38.2162 17.5806 42.2491 16.5808 46.3601 16.3882L47.8354 16.3882L47.8357 16.3882C55.654 16.3835 63.1911 19.3048 68.964 24.5773L68.9698 24.5826L68.9758 24.5877C69.08 24.6771 69.1456 24.8033 69.1587 24.94C69.1718 25.0755 69.1322 25.2108 69.0484 25.318C68.9982 25.3787 68.9354 25.4278 68.8643 25.4618C68.7931 25.4958 68.7153 25.5137 68.6364 25.5144C68.521 25.5129 68.4094 25.4738 68.3183 25.4033L68.2518 25.3443C68.251 25.3435 68.2501 25.3427 68.2493 25.342C65.3121 22.6588 61.8752 20.5805 58.1348 19.2255C54.3934 17.8702 50.4215 17.2653 46.4462 17.4453C42.4709 17.6253 38.57 18.5868 34.9664 20.2748C31.3628 21.9627 28.127 24.3441 25.4439 27.2829L25.4431 27.2837C20.0188 33.2519 17.1778 41.1247 17.541 49.1813L17.5413 49.1861C17.545 49.2542 17.5351 49.3224 17.5122 49.3866C17.4893 49.4508 17.4537 49.5098 17.4077 49.5601L17.7767 49.8975L17.4077 49.5601C17.3617 49.6104 17.3061 49.6511 17.2442 49.6796L17.4305 50.0834L17.2442 49.6796ZM80.7394 68.5264V68.5252C82.1534 61.9936 82.6749 55.3002 82.2894 48.6282L82.2894 48.6273C82.2813 48.4917 82.3255 48.3582 82.4129 48.2542C82.4965 48.1547 82.6135 48.0895 82.7416 48.0705C82.871 48.0693 82.9968 48.1146 83.0959 48.1985C83.1962 48.2836 83.262 48.4022 83.281 48.532C83.6991 55.3526 83.1773 62.1982 81.7303 68.8766L81.7302 68.8772C81.7067 68.9864 81.6487 69.0851 81.5649 69.1589C81.5219 69.1968 81.4732 69.227 81.4209 69.2488H81.0789C81.0281 69.2328 80.9801 69.2091 80.9364 69.1784C80.8801 69.1389 80.8323 69.0888 80.7955 69.0308C80.7587 68.9728 80.7337 68.9081 80.722 68.8404C80.7102 68.7728 80.712 68.7034 80.7271 68.6365L80.7394 68.5821V68.5264Z" stroke="#00008F"/>
<path d="M82.4032 43.9332C82.4028 43.9332 82.4025 43.9332 82.4022 43.9332C82.2741 43.9325 82.1508 43.8848 82.0556 43.7991C81.9602 43.7131 81.8998 43.595 81.8861 43.4673L81.8861 43.4673L81.8851 43.4593C81.0947 37.0907 78.5311 31.0722 74.4865 26.0897C70.442 21.1072 65.079 17.3611 59.0089 15.2783L59.0063 15.2774C58.9409 15.2554 58.8806 15.2207 58.8288 15.1752C58.7769 15.1297 58.7346 15.0744 58.7043 15.0124C58.674 14.9504 58.6562 14.8831 58.6521 14.8143C58.6479 14.7454 58.6575 14.6764 58.6802 14.6113L58.6805 14.6106C58.7264 14.4782 58.8228 14.3693 58.9486 14.3077C59.0741 14.2463 59.2187 14.2368 59.3511 14.2813C65.6055 16.4375 71.1295 20.3049 75.2955 25.444C79.4618 30.5835 82.1027 36.7888 82.918 43.3544C82.9262 43.423 82.9207 43.4926 82.9019 43.559C82.8829 43.6258 82.8508 43.6882 82.8074 43.7424C82.764 43.7967 82.7102 43.8417 82.6492 43.8749C82.5943 43.9047 82.5345 43.9245 82.4727 43.9332L82.4032 43.9332ZM19.535 26.6944H19.535L19.535 26.6893C19.535 26.5792 19.5717 26.4723 19.6394 26.3854L19.6394 26.3854L19.6438 26.3796C22.4876 22.6155 26.0579 19.4604 30.1431 17.101C34.2284 14.7417 38.7455 13.2261 43.4271 12.644L43.4275 12.6439C44.8868 12.4611 46.356 12.368 47.8267 12.365C49.4514 12.3663 51.0741 12.4805 52.683 12.7068L52.7177 12.7117H52.7527H52.8156C52.9438 12.7122 53.0673 12.76 53.1625 12.8458C53.2579 12.9317 53.3183 13.0498 53.332 13.1775L53.3329 13.1855L53.334 13.1935C53.3437 13.2623 53.3393 13.3324 53.321 13.3994C53.3028 13.4664 53.2711 13.5291 53.2279 13.5835C53.1847 13.6379 53.1309 13.683 53.0698 13.716C53.0141 13.746 52.9534 13.7655 52.8907 13.7734H52.7709V13.7732L52.7573 13.7736C52.6979 13.7752 52.6388 13.7639 52.5842 13.7406L52.5222 13.7141L52.4554 13.705C50.9213 13.4956 49.3748 13.3904 47.8265 13.3902L47.826 13.3902C46.3874 13.3915 44.9502 13.4811 43.5226 13.6586L43.5205 13.6589C38.992 14.2412 34.6255 15.723 30.6779 18.0172C26.7321 20.3103 23.2844 23.3687 20.5372 27.0128C20.4878 27.0743 20.4253 27.124 20.3543 27.1583C20.2818 27.1933 20.2024 27.2114 20.1219 27.2112H20.1206H20.0152C19.886 27.203 19.7645 27.1462 19.6753 27.052C19.584 26.9555 19.5337 26.8273 19.535 26.6944ZM9.74636 58.7306L9.62313 58.7356C9.54945 58.7091 9.48186 58.6664 9.42573 58.6097C9.32909 58.5122 9.27401 58.3811 9.27198 58.2439C9.27275 58.1696 9.28858 58.0962 9.31854 58.0282C9.34858 57.96 9.3922 57.8987 9.44673 57.8478C9.44736 57.8473 9.44799 57.8467 9.44863 57.8461L10.1696 57.1972C10.1703 57.1966 10.171 57.196 10.1716 57.1954C11.5873 55.9491 12.2707 54.8567 12.5789 53.9656C12.8891 53.0685 12.8026 52.4196 12.762 52.1154L12.7619 52.1149C12.7619 52.1144 12.7618 52.114 12.7617 52.1135C11.8672 45.1262 13.0971 38.0316 16.2912 31.7532C16.3383 31.6728 16.4055 31.6059 16.4862 31.5591C16.5686 31.5113 16.6622 31.4862 16.7575 31.4862C16.8552 31.4885 16.9509 31.5144 17.0364 31.5617C17.1396 31.628 17.2168 31.7281 17.2547 31.845C17.2916 31.959 17.2888 32.0819 17.2471 32.1938C14.1235 38.2875 12.9047 45.1799 13.7494 51.9755L14.2456 51.9138L13.7491 51.9732L13.7493 51.9744C13.7968 52.3721 13.8867 53.1238 13.5701 54.1326C13.2528 55.1436 12.5129 56.4548 10.8249 57.9224L10.8249 57.9224L10.819 57.9276L10.1075 58.5662L10.0991 58.5737L10.0911 58.5816C9.99866 58.6723 9.87579 58.7255 9.74636 58.7306Z" stroke="#00008F"/>
<path d="M32.5458 11.9926C32.6224 12.184 32.7546 12.348 32.9253 12.4634C33.0961 12.5789 33.2975 12.6405 33.5036 12.6404C33.6317 12.6391 33.7585 12.6143 33.8777 12.5674M32.5458 11.9926L86.5341 53.273C86.3638 53.1892 86.2205 53.0593 86.1205 52.898C86.0205 52.7367 85.9678 52.5505 85.9685 52.3607C85.9445 49.2465 85.7373 46.1364 85.3482 43.0464C84.6265 37.3196 82.605 31.8336 79.4382 27.0079C76.2713 22.1821 72.0429 18.1444 67.0763 15.2033C62.1097 12.2623 56.5364 10.4958 50.7824 10.0389C45.0284 9.58206 39.2462 10.4469 33.8777 12.5674M32.5458 11.9926C32.4938 11.87 32.4671 11.7381 32.4671 11.6049C32.4671 11.4717 32.4938 11.3399 32.5458 11.2172M32.5458 11.9926V11.2172M33.8777 12.5674L33.694 12.1023C39.1334 9.95387 44.992 9.0776 50.822 9.54049C56.6519 10.0034 62.2989 11.7932 67.3311 14.7731C72.3633 17.753 76.6475 21.8441 79.8562 26.7336C83.0649 31.6231 85.1131 37.1815 85.8442 42.984C86.2358 46.0933 86.4443 49.223 86.4685 52.3569L86.4685 52.3625C86.4682 52.4586 86.4948 52.5529 86.5454 52.6345C86.5961 52.7162 86.6686 52.782 86.7548 52.8244L87.0173 52.9535C87.1391 52.9429 87.2538 52.8898 87.3409 52.8027C87.4383 52.7053 87.4932 52.5734 87.4937 52.4358C87.4664 49.2471 87.2545 46.0627 86.859 42.8986L86.8589 42.8975C86.2284 37.7624 84.591 32.8022 82.0404 28.3009C79.4899 23.7997 76.0763 19.8459 71.9952 16.666C67.9141 13.4862 63.2457 11.1427 58.2575 9.77002C53.2693 8.3973 48.0592 8.02224 42.9258 8.66632C39.6217 9.08165 36.383 9.911 33.286 11.1349L33.2792 11.1375L33.2792 11.1375C33.2185 11.1605 33.1632 11.1958 33.1169 11.2413C33.0707 11.2869 33.0344 11.3415 33.0104 11.4018L33.0063 11.4122L33.0062 11.4122C32.9804 11.4731 32.9671 11.5387 32.9671 11.6049C32.9671 11.6712 32.9804 11.7367 33.0062 11.7977L33.01 11.8068L33.0099 11.8068C33.0494 11.9053 33.1175 11.9898 33.2054 12.0493C33.2927 12.1083 33.3956 12.14 33.5009 12.1403C33.5672 12.1394 33.6327 12.1265 33.6944 12.1022L33.8777 12.5674ZM32.5458 11.2172C32.5954 11.0923 32.6705 10.9791 32.7663 10.8849C32.8621 10.7906 32.9765 10.7174 33.1022 10.6698M32.5458 11.2172L33.1022 10.6698M33.1022 10.6698C36.2383 9.43057 39.5178 8.59076 42.8636 8.17021C48.0622 7.51794 53.3385 7.89777 58.3902 9.28794C63.4418 10.6781 68.1695 13.0513 72.3025 16.2716C76.4355 19.4919 79.8925 23.4959 82.4755 28.0544C85.0585 32.6129 86.7167 37.6362 87.3552 42.8366L33.1022 10.6698ZM41.2182 74.0986L41.2112 74.1092C38.9735 77.533 36.28 80.6362 33.205 83.3333M41.2182 74.0986L32.8742 82.9584M41.2182 74.0986L41.2246 74.0876C41.2714 74.0074 41.339 73.9414 41.4204 73.8967L41.1794 73.4586L41.4204 73.8967C41.5017 73.8519 41.5937 73.8301 41.6864 73.8336L41.6928 73.8338C41.7813 73.8359 41.8681 73.8581 41.9467 73.8986C42.0499 73.9722 42.1231 74.081 42.152 74.205C42.1818 74.3324 42.1625 74.4663 42.0982 74.5801L42.0428 74.6673L42.4622 74.9395L42.0403 74.6711L42.0416 74.6692C39.7681 78.1714 37.0287 81.348 33.8987 84.1116M41.2182 74.0986L33.8987 84.1116M33.205 83.3333C33.2046 83.3336 33.2043 83.334 33.2039 83.3343L32.8742 82.9584M33.205 83.3333C33.2053 83.333 33.2056 83.3327 33.206 83.3325L32.8742 82.9584M33.205 83.3333C33.1529 83.3797 33.1111 83.4365 33.0821 83.4999C33.053 83.5636 33.0375 83.6327 33.0366 83.7027M32.8742 82.9584C32.7695 83.0512 32.6854 83.1649 32.6273 83.2922C32.5692 83.4194 32.5383 83.5574 32.5366 83.6973M33.0366 83.7027C33.0366 83.7024 33.0366 83.7021 33.0366 83.7018L32.5366 83.6973M33.0366 83.7027C33.0356 83.8424 33.0896 83.9769 33.1871 84.077C33.2839 84.1764 33.4158 84.2339 33.5545 84.2373M33.0366 83.7027C33.0366 83.7029 33.0366 83.703 33.0366 83.7032L32.5366 83.6973M32.5366 83.6973L33.5545 84.2373M33.5545 84.2373C33.5546 84.2373 33.5548 84.2374 33.555 84.2374C33.5553 84.2374 33.5556 84.2373 33.5559 84.2373M33.5545 84.2373L33.5553 84.3956L33.5584 84.7373V84.2373H33.5559M33.5545 84.2373H33.5559M33.5545 84.2373L33.8987 84.1116M33.5559 84.2373C33.6812 84.2357 33.8022 84.1913 33.8987 84.1116M33.8987 84.1116C33.8969 84.1131 33.8952 84.1146 33.8935 84.1162L34.2243 84.491L33.9024 84.1084C33.9012 84.1095 33.8999 84.1105 33.8987 84.1116ZM28.042 13.8346C28.1508 13.9133 28.2428 14.0128 28.3128 14.1274L8.2884 52.6162C7.37495 45.0447 8.64184 37.3698 11.9402 30.4936C15.2385 23.6174 20.4312 17.8256 26.9079 13.7989C27.0214 13.7273 27.1481 13.6789 27.2805 13.6566C27.4129 13.6343 27.5484 13.6385 27.6791 13.6691C27.8098 13.6997 27.9332 13.7559 28.042 13.8346ZM9.2919 53.2839H9.2197C9.17325 53.2756 9.12781 53.2622 9.08424 53.2437C9.00018 53.1961 8.92914 53.1283 8.87755 53.0464L8.45466 53.3128L8.87755 53.0464C8.82477 52.9626 8.79412 52.8669 8.7884 52.7681V52.6162V52.5861L8.7848 52.5563C7.88275 45.0793 9.13383 37.5002 12.391 30.7098C15.6482 23.9194 20.776 18.1999 27.1719 14.2236L27.1749 14.2217C27.2323 14.1854 27.2965 14.1609 27.3635 14.1496C27.4305 14.1383 27.4991 14.1405 27.5653 14.156C27.6315 14.1714 27.6939 14.1999 27.749 14.2397C27.8041 14.2796 27.8507 14.3299 27.8861 14.388L27.886 14.388L27.89 14.3943C27.9263 14.4518 27.9508 14.5159 27.9621 14.5829L28.4552 14.4999L27.9621 14.5829C27.9734 14.65 27.9713 14.7186 27.9558 14.7847C27.9403 14.8509 27.9118 14.9134 27.872 14.9684C27.8322 15.0235 27.7818 15.0701 27.7238 15.1055L27.7238 15.1055L27.7203 15.1077C21.4852 18.9852 16.487 24.5628 13.3138 31.1842C10.145 37.7966 8.92772 45.1753 9.80452 52.4547V52.7074V52.7222L9.8054 52.737C9.81333 52.8709 9.76936 53.0028 9.6826 53.1052C9.60061 53.2019 9.48636 53.2653 9.36142 53.2839H9.2919ZM44.0151 71.227C43.9726 71.2525 43.9269 71.2717 43.8794 71.2842L43.7528 71.2831C43.6716 71.2824 43.5919 71.2609 43.5214 71.2208L43.5125 71.2157L43.5034 71.211C43.3831 71.1489 43.2922 71.0416 43.2506 70.9127C43.2094 70.7845 43.2202 70.6453 43.2807 70.5251C46.9328 63.5485 48.3399 55.6139 47.3094 47.8069L47.3088 47.8027C47.2993 47.7348 47.3037 47.6657 47.3218 47.5996C47.3399 47.5335 47.3713 47.4718 47.4141 47.4182L47.4143 47.418C47.4968 47.3147 47.6141 47.2454 47.7438 47.2229H47.8322C47.9606 47.2249 48.084 47.2733 48.1794 47.3593C48.2754 47.4458 48.3365 47.5643 48.3514 47.6927L48.3513 47.6927L48.3524 47.7008C49.4131 55.7158 47.9656 63.8625 44.2089 71.0216L44.2088 71.0218C44.1643 71.1067 44.0973 71.1777 44.0151 71.227ZM48.514 46.9878C48.7005 47.1558 48.8192 47.3859 48.8481 47.6352L48.514 46.9878Z" stroke="#00008F"/>
</svg>
