<svg width="96" height="96" viewBox="0 0 96 96" fill="none" xmlns="http://www.w3.org/2000/svg"><path d="M36.111 85.554v-.003a.503.503 0 01.163-.378 44.353 44.353 0 0014.457-27.448h0l.001-.01a.521.521 0 01.522-.466v0h.093a.468.468 0 01.312.183l.005.006.005.006a.53.53 0 01.113.386A45.387 45.387 0 0136.948 85.88l-.028.025-.024.029a.413.413 0 01-.226.138h-.037a.522.522 0 01-.522-.517zM30.505 83.393a.504.504 0 01-.315.114h-.016l-.028-.006a.522.522 0 01-.326-.228l-.42.27.42-.27a.522.522 0 01-.07-.391l.012-.053v-.053 0a3.933 3.933 0 011.158-2.01c9.744-8.594 14.487-20.447 12.978-32.527v-.001a3.952 3.952 0 013.369-4.411c.16-.01.32-.01.478 0l.017.002h.017a3.96 3.96 0 012.595.978l.325-.372-.325.372a3.962 3.962 0 011.317 2.437c.25 2.013.362 4.042.334 6.07a.54.54 0 01-.536.517.513.513 0 01-.36-.162h0l-.009-.008a.485.485 0 01-.14-.36l.001-.007v-.007a45.28 45.28 0 00-.332-5.91 2.936 2.936 0 00-2.922-2.614 2.17 2.17 0 00-.365.002h0-.007a2.916 2.916 0 00-1.994 1.103l.393.309-.393-.309a2.917 2.917 0 00-.593 2.2c1.68 12.4-3.107 24.608-13.172 33.493-.46.4-.781.938-.916 1.534h0l-.002.01a.504.504 0 01-.173.288zm10.24 3.237v-.002a.502.502 0 01.147-.361v-.001a50.184 50.184 0 009.491-13.416.522.522 0 01.191-.213l-.266-.423.266.423a.522.522 0 01.275-.08h.014c.07-.003.14.013.202.045h0l.01.005c.063.03.118.072.164.123l.373-.332-.373.332a.523.523 0 01.079.576l-.001.002a51.327 51.327 0 01-9.657 13.714.586.586 0 01-.351.125h-.061a.522.522 0 01-.353-.156l-.357.35.357-.35a.522.522 0 01-.15-.36z" stroke="#00008F"/><path d="M25.911 81.723c.187.189.44.298.705.305h.055a1.022 1.022 0 00.958-.666 6.387 6.387 0 011.724-2.445 36.828 36.828 0 0011.139-17.023L25.91 81.723zm0 0a1.03 1.03 0 01-.299-.708l.299.708zm26.796-12.42v0h-.008a.476.476 0 01-.352-.146h0l-.01-.01a.51.51 0 01-.152-.365h0v-.006c0-.054.01-.107.03-.157h0l.003-.011A46.204 46.204 0 0054.69 46.88a6.886 6.886 0 00-7.749-5.99 6.887 6.887 0 00-5.997 7.702v.002c.378 2.87.378 5.777 0 8.646h0v.012a.522.522 0 01-.517.466s0 0 0 0h-.114a.532.532 0 01-.448-.594h0c.36-2.768.36-5.57 0-8.338a7.966 7.966 0 016.91-8.874h.001c.327-.042.655-.062.984-.06h.006a7.966 7.966 0 017.948 6.908 47.12 47.12 0 01-2.525 22.208.54.54 0 01-.46.335h-.022zm-12.693-7.555a36.329 36.329 0 01-10.988 16.79l-.003.003a6.885 6.885 0 00-1.86 2.636h0l-.003.01a.522.522 0 01-.49.34h-.046a.531.531 0 01-.358-.156l-.354.351.354-.35a.53.53 0 01-.153-.36c0-.068.013-.135.038-.197h0l.002-.006a7.849 7.849 0 012.106-3.067 35.476 35.476 0 0010.712-16.245h0l.003-.01a.54.54 0 01.516-.388h.024l.024-.003a.915.915 0 01.136-.003.549.549 0 01.289.249h0l.005.008a.502.502 0 01.046.398zm5.749 25.366v-.005c0-.122.045-.24.127-.331l.003-.004a54.575 54.575 0 004.178-5.374.549.549 0 01.438-.231c.107.001.21.033.3.091a.486.486 0 01.21.323l.002.009.001.008a.493.493 0 01-.077.381l-.002.003a56.627 56.627 0 01-4.231 5.48.522.522 0 01-.391.176h-.043a.522.522 0 01-.515-.526z" stroke="#00008F"/><path d="M58.677 46.406h0a50.611 50.611 0 01-6.29 31.323.54.54 0 00.19.716.72.72 0 00.19.065l.017-.003.057.002a.513.513 0 00.462-.259h0a51.663 51.663 0 006.416-32.011l-1.042.167zm0 0a10.909 10.909 0 00-10.804-9.561h-.003m10.807 9.56l-10.807-9.56m0 0a13.13 13.13 0 00-1.356.076h0m1.356-.076l-1.356.076m0 0l-.01.001m.01-.001l-.01.001m0 0c-1.855.24-3.617.947-5.123 2.055l-.011.008m5.133-2.063l-5.133 2.063m0 0l-.012.01m.012-.01l-.012.01m0 0a.531.531 0 01-.336.121.53.53 0 01-.524-.545.558.558 0 01.163-.36.503.503 0 01.086-.056l.037-.019m.574.858l-.574-.858m0 0l.033-.025m-.033.025l.033-.025m0 0a11.724 11.724 0 017-2.31h.002m-7.002 2.31l7.002-2.31m0 0a11.943 11.943 0 017.927 2.965M47.82 35.8l7.927 2.965m0 0a11.943 11.943 0 013.973 7.471l-3.973-7.471zM23.371 79.037h-.158a.411.411 0 01-.045-.022l-.009-.004-.008-.004a.522.522 0 01-.245-.684 11.887 11.887 0 012.745-3.546l.002-.002c4.482-3.984 11.926-12.619 10.29-25.551a11.915 11.915 0 011.646-7.696l.006-.01.006-.012a.512.512 0 01.462-.268h.014a.522.522 0 01.469.76l-.013.025a.933.933 0 00-.056.08 10.818 10.818 0 00-1.483 6.99c1.64 13.326-5.972 22.298-10.691 26.466l-.002.002a10.736 10.736 0 00-2.46 3.216.549.549 0 01-.47.26z" stroke="#00008F"/><path d="M20.68 76.801a.549.549 0 00.434-.266l.003-.004a14.257 14.257 0 013.018-3.502 31.943 31.943 0 003.406-3.586l.006-.007h0a.523.523 0 00-.406-.857h-.004a.529.529 0 00-.403.187v.001l-.383-.323a30.465 30.465 0 01-3.302 3.385l-2.37 4.972zm0 0a.54.54 0 01-.24-.074l-.004-.003a.512.512 0 01-.185-.702l.001-.002a15.338 15.338 0 013.127-3.816l-2.7 4.597zm41.363-30.85h0a14.102 14.102 0 00-1.27-4.347.539.539 0 01.295-.694.548.548 0 01.192-.036h.003a.532.532 0 01.462.254 15.462 15.462 0 011.37 4.699 55.542 55.542 0 01-11.89 41.588.51.51 0 01-.4.189l-.136-.001-.042.024a.521.521 0 01-.293-.826 54.524 54.524 0 0011.71-40.85zM29.661 66.096l-.024-.003h-.024a.521.521 0 01-.359-.157l-.357.35.357-.35a.522.522 0 01-.074-.639 23.828 23.828 0 003.433-15.661 15.392 15.392 0 0115.269-17.228 15.449 15.449 0 0111.185 4.833l.004.004a.53.53 0 010 .738h0l-.004.004a.522.522 0 01-.724.035l-.075-.083h0l-.007-.007a14.44 14.44 0 00-10.442-4.526h-.002A14.339 14.339 0 0033.61 49.513l.001.003a24.961 24.961 0 01-3.514 16.368.548.548 0 01-.401.216l-.034-.004zm26.29 19.872l.003-.004a58.473 58.473 0 008.86-19.526h.001a.54.54 0 01.521-.413h.042l.041-.008a.183.183 0 01.053-.001.54.54 0 01.394.434l.493-.08-.493.08a.54.54 0 01-.007.208 59.554 59.554 0 01-9.043 19.896.54.54 0 01-.434.22h-.095l-.02.007a.522.522 0 01-.175-.073l-.272.42.272-.42a.522.522 0 01-.14-.74z" stroke="#00008F"/><path d="M66.02 45.456v-.004a18.326 18.326 0 00-36.36.263h0l-.001.005a.522.522 0 01-.517.466s0 0 0 0h-.088a.522.522 0 01-.445-.575h0A19.341 19.341 0 0147.844 28.43c.738.002 1.475.043 2.208.125A19.333 19.333 0 0167.09 45.38h0c.712 5.662.6 11.397-.332 17.026a.531.531 0 01-.507.402h-.1a.54.54 0 01-.452-.61 58.047 58.047 0 00.322-16.742zM17.876 73.859l-.028-.003h-.027a.577.577 0 01-.288-.082.531.531 0 01-.21-.329l-.49.095.49-.095a.53.53 0 01.078-.393 18.951 18.951 0 013.35-3.84l.004-.002c3.41-3.031 9.053-9.577 7.873-19.055v-.003a.512.512 0 01.442-.576h.118a.513.513 0 01.33.125l.327-.379-.327.379c.091.078.151.185.171.303 1.26 10.088-4.583 16.84-8.208 19.997l-.001.001a18.58 18.58 0 00-3.178 3.619l-.003.004a.53.53 0 01-.185.172l.245.437-.245-.437a.53.53 0 01-.21.066l-.028-.004zm47.296 3.799l.008-.019.006-.018a.504.504 0 01.48-.339h.038l.036-.005a.602.602 0 01.122-.004.542.542 0 01.148.089l.323-.382-.323.382a.54.54 0 01.19.373l.499-.038-.499.037a.541.541 0 01-.08.328l-.011.02-.01.021a62.204 62.204 0 01-3.402 6.589h0l-.007.01a.513.513 0 01-.164.177l.275.418-.275-.418a.512.512 0 01-.228.082l-.023.002-.009.002a.53.53 0 01-.482-.523.586.586 0 01.071-.26 63.088 63.088 0 003.317-6.524zm2.584-3.76a.504.504 0 01-.154.075l-.02-.016-.173-.001a.522.522 0 01-.517-.522v-.001c0-.063.01-.125.029-.185a61.567 61.567 0 003.042-28.303v-.002a.523.523 0 01.014-.207l-.482-.134.482.134a.522.522 0 01.43-.378h.099a.531.531 0 01.526.47h0v.006a62.648 62.648 0 01-3.086 28.798h0l-.004.013a.504.504 0 01-.186.253z" stroke="#00008F"/><path d="M69.521 39.98a.52.52 0 01-.226.126l-.1-.004a.521.521 0 01-.466-.335v-.002a22.394 22.394 0 00-28.9-12.895h0c-1.13.436-2.223.962-3.267 1.576a.567.567 0 01-.224.051.522.522 0 01-.321-.913 23.347 23.347 0 0131.968 8.37v.002a22.736 22.736 0 011.66 3.455l.002.003a.522.522 0 01-.126.566l.345.362-.345-.362zM15.486 70.444a.557.557 0 01-.228.064.523.523 0 01-.512-.522v-.004c-.001-.108.035-.213.102-.298h0l.005-.006a23.405 23.405 0 013.215-3.43h0l.005-.004c3.445-3.084 7.492-8.334 6.548-15.553a23.3 23.3 0 016.958-19.782h0l.006-.006a.505.505 0 01.357-.147h.005a.522.522 0 01.363.9h-.001a22.24 22.24 0 00-6.645 18.834c.964 7.719-3.186 13.196-6.895 16.474a22.083 22.083 0 00-3.098 3.322h0a.557.557 0 01-.185.158zm52.546 10.881v-.005c-.001-.077.016-.153.05-.223v-.002a65.51 65.51 0 005.82-19.306h0l.001-.01a.531.531 0 01.526-.47h.075a.54.54 0 01.45.587 66.54 66.54 0 01-5.93 19.641.531.531 0 01-.47.301l-.09.002a.527.527 0 01-.28-.146l-.353.354.353-.354a.525.525 0 01-.152-.369z" stroke="#00008F"/><path d="M74.04 44.482v-.002a26.344 26.344 0 00-20.766-22.513h0l-.008-.002a.53.53 0 01.108-1.052v0H53.549a27.388 27.388 0 0121.45 23.417h0c.537 4.308.659 8.657.364 12.987a.513.513 0 01-.517.455l-.21-.003a.519.519 0 01-.256-.484 67.005 67.005 0 00-.34-12.803zm-58.553 18.72V63.2c2.734-2.398 5.926-6.49 5.23-12.069v-.001a27.353 27.353 0 0127.1-30.8h.739a.531.531 0 01.359.163h0l.006.006a.485.485 0 01.14.36l-.001.01v.01a.503.503 0 01-.484.503h-.658a25.208 25.208 0 00-3.348.214A26.344 26.344 0 0021.66 50.934v.002c.755 6.012-2.573 10.422-5.571 13.045h0l-.006.005a28.02 28.02 0 00-2.63 2.722l-.001.002a.515.515 0 01-.392.185s0 0 0 0h-.006a.524.524 0 01-.515-.52.604.604 0 01.123-.34 28.8 28.8 0 012.826-2.834z" stroke="#00008F"/><path d="M17.151 51.073a.502.502 0 00-.32.188.558.558 0 00-.109.397l-.497.055c.356 2.883-.903 5.629-3.75 8.138a30.999 30.999 0 00-2.006 1.943l6.682-10.721zm0 0h.098a.513.513 0 01.513.462h0l.002.013c.43 3.389-.956 6.574-4.25 9.478a25.747 25.747 0 00-1.91 1.853.54.54 0 01-.262.144l-.018-.011-.133-.003a.522.522 0 01-.358-.153.54.54 0 01.002-.722m6.316-11.061l-6.316 11.061m0 0a30.502 30.502 0 011.971-1.908l-1.97 1.908zM74.393 76.4l.007-.016.006-.016a69.514 69.514 0 003.556-32.343 30.185 30.185 0 00-6.621-15.498.525.525 0 01.819-.657l.002.003a31.293 31.293 0 016.842 15.992v.002a70.547 70.547 0 01-3.621 32.805.532.532 0 01-.497.34h-.272a.521.521 0 01-.223-.234.475.475 0 01.002-.379zM17.244 49.68a.51.51 0 01-.109.036l-.036-.027-.137-.015a.522.522 0 01-.465-.493l-.5.023.5-.023A31.367 31.367 0 0146.36 16.388h1.475a31.302 31.302 0 0121.129 8.19l.006.005.006.005a.53.53 0 01.072.73.543.543 0 01-.412.196.531.531 0 01-.318-.11l-.066-.06-.003-.002a30.295 30.295 0 00-42.805 1.94v.002A30.514 30.514 0 0017.54 49.18v.005a.514.514 0 01-.133.374l.369.337-.37-.337a.512.512 0 01-.163.12l.186.403-.186-.403zM80.74 68.526v0a73.893 73.893 0 001.55-19.898h0a.53.53 0 01.453-.557.54.54 0 01.539.461 74.538 74.538 0 01-1.55 20.345h0a.522.522 0 01-.31.372h-.342a.519.519 0 01-.352-.612l.012-.055v-.056z" stroke="#00008F"/><path d="M82.403 43.933s0 0 0 0a.522.522 0 01-.517-.466h0v-.008a34.254 34.254 0 00-22.877-28.18l-.003-.002a.52.52 0 01-.326-.666h0a.53.53 0 01.671-.33 35.362 35.362 0 0123.567 29.073.523.523 0 01-.445.58h-.07zM19.535 26.694h0v-.005c0-.11.037-.217.104-.304h0l.005-.005a35.261 35.261 0 0123.783-13.736h0a35.984 35.984 0 014.4-.279c1.624.001 3.247.115 4.856.342l.035.005h.098a.521.521 0 01.516.466v.007l.002.008a.51.51 0 01-.443.58h-.12v0h-.014a.413.413 0 01-.173-.032l-.062-.027-.067-.009a34.26 34.26 0 00-4.628-.315h-.001c-1.439.002-2.876.091-4.303.269h-.003a34.253 34.253 0 00-22.983 13.354.53.53 0 01-.415.198h-.107a.513.513 0 01-.48-.517zM9.746 58.731l-.123.005a.53.53 0 01-.351-.492.55.55 0 01.175-.396l.002-.002.72-.649.003-.002c1.415-1.246 2.099-2.338 2.407-3.23.31-.897.224-1.545.183-1.85h0v-.002a35.078 35.078 0 013.53-20.36.54.54 0 01.744-.191.532.532 0 01.211.632 34.135 34.135 0 00-3.498 19.781l.497-.061-.497.06h0c.048.398.138 1.15-.179 2.159-.317 1.01-1.057 2.322-2.745 3.79h0l-.006.005-.712.638-.008.008-.008.008a.522.522 0 01-.345.149z" stroke="#00008F"/><path d="M32.546 11.993a1.03 1.03 0 001.332.574m-1.332-.574l53.988 41.28a1.013 1.013 0 01-.566-.912 79.453 79.453 0 00-.62-9.315 37.861 37.861 0 00-51.47-30.479m-1.332-.574a.993.993 0 010-.776m0 .776v-.776m1.332 1.35l-.184-.465a38.36 38.36 0 0152.15 30.882c.392 3.11.6 6.239.625 9.373v.005a.513.513 0 00.286.462l.262.13a.522.522 0 00.477-.518 82.595 82.595 0 00-.635-9.537v-.002a39.33 39.33 0 00-43.933-34.23 39.7 39.7 0 00-9.64 2.468l-.007.002h0a.468.468 0 00-.269.265l-.004.01h0a.494.494 0 000 .386l.004.009h0a.532.532 0 00.49.333.548.548 0 00.194-.038l.184.465zm-1.332-1.35a.966.966 0 01.556-.547m-.556.547l.556-.547m0 0a40.206 40.206 0 019.762-2.5 39.83 39.83 0 0144.491 34.667L33.102 10.67zm8.116 63.429l-.007.01a45.061 45.061 0 01-8.006 9.224m8.013-9.234l-8.344 8.86m8.344-8.86l.007-.011a.512.512 0 01.195-.191l-.24-.438.24.438a.511.511 0 01.266-.063h.007a.585.585 0 01.254.065.522.522 0 01.151.681l-.055.087.42.272-.423-.268.002-.002a46.032 46.032 0 01-8.143 9.443m7.32-10.013l-7.32 10.013m-.694-.779l-.001.001-.33-.376m.331.375h.001l-.332-.375m.331.375a.503.503 0 00-.168.37m-.163-.745a1.002 1.002 0 00-.337.74m.5.005v-.001l-.5-.005m.5.006a.53.53 0 00.517.534m-.517-.534s0 0 0 0l-.5-.006m0 0l1.017.54m0 0h.001s0 0 0 0m0 0v.159l.003.341v-.5h-.002m-.002 0h.002m-.002 0l.345-.125m-.343.125a.55.55 0 00.343-.125m0 0a.114.114 0 00-.005.004l.33.375-.322-.383-.003.004zm-5.857-70.277c.109.078.2.178.27.292L8.289 52.617a40.058 40.058 0 0118.62-38.818 1.014 1.014 0 011.134.036zM9.292 53.284H9.22a.63.63 0 01-.136-.04.585.585 0 01-.206-.198l-.423.267.423-.267a.586.586 0 01-.09-.278v-.182l-.003-.03a39.558 39.558 0 0118.387-38.332l.003-.002a.512.512 0 01.711.166h0l.004.006c.036.058.06.122.072.189l.493-.083-.493.083a.512.512 0 01-.238.522h0l-.004.003A38.551 38.551 0 009.805 52.455V52.737a.522.522 0 01-.444.547h-.07zm34.723 17.943a.522.522 0 01-.136.057h-.126a.477.477 0 01-.232-.063l-.008-.005-.01-.005a.513.513 0 01-.222-.686 38.205 38.205 0 004.028-22.718v-.004a.504.504 0 01.105-.385h0a.54.54 0 01.33-.195h.088a.53.53 0 01.52.47h0v.008a39.138 39.138 0 01-4.143 23.32h0a.522.522 0 01-.194.206zm4.499-24.24c.186.169.305.399.334.648l-.334-.647z" stroke="#00008F"/></svg>