<svg width="48" height="48" viewBox="0 0 48 48" fill="none" xmlns="http://www.w3.org/2000/svg">
    <path d="M9.09533 10.6589C5.03455 15.1988 3.09024 21.5301 4.38683 27.9605" stroke="currentColor" stroke-miterlimit="10" stroke-linecap="round" stroke-linejoin="round"/>
    <path d="M35.3406 7.53278C31.0328 4.56647 25.5739 3.28305 20.0416 4.39852C17.028 5.00616 14.3102 6.26155 12.0042 7.99047" stroke="currentColor" stroke-miterlimit="10" stroke-linecap="round" stroke-linejoin="round"/>
    <path d="M43.6026 20.0531C42.8067 16.1058 40.8996 12.6663 38.2727 9.99438" stroke="currentColor" stroke-miterlimit="10" stroke-linecap="round" stroke-linejoin="round"/>
    <path d="M44.008 24.4091C44.0355 22.9749 43.9085 21.5154 43.6133 20.0509" stroke="currentColor" stroke-miterlimit="10" stroke-linecap="round" stroke-linejoin="round"/>
    <path d="M4.39771 27.9584C4.45566 28.2455 4.51945 28.53 4.58908 28.8118" stroke="currentColor" stroke-miterlimit="10" stroke-linecap="round" stroke-linejoin="round"/>
    <path d="M18.8308 43.3337C23.312 38.2333 25.4455 31.1743 24.0001 24.0057" stroke="currentColor" stroke-miterlimit="10" stroke-linecap="round" stroke-linejoin="round"/>
    <path d="M29.2764 25.3965C29.187 24.6057 29.0628 23.8122 28.9026 23.0175L28.9082 23.0154C28.3611 20.3019 25.718 18.5456 23.0045 19.0928C20.291 19.64 18.5348 22.2832 19.0821 24.9968C19.2265 26.2098 20.8027 34.7877 13.8818 41.2629" stroke="currentColor" stroke-miterlimit="10" stroke-linecap="round" stroke-linejoin="round"/>
    <path d="M24.6338 44.0001C27.5179 39.7854 29.2349 34.7764 29.4315 29.5026" stroke="currentColor" stroke-miterlimit="10" stroke-linecap="round" stroke-linejoin="round"/>
    <path d="M14.3476 21.332C13.9391 22.8015 13.8614 24.3869 14.1836 25.9846L14.1952 25.9823C15.1439 30.6867 13.3187 35.3052 9.84766 38.1484" stroke="currentColor" stroke-miterlimit="10" stroke-linecap="round" stroke-linejoin="round"/>
    <path d="M31.1713 42.6788C34.1865 36.4895 35.2706 29.2985 33.8049 22.0289C33.45 20.3034 30.5483 12.4744 22.0168 14.1946C19.6947 14.6628 17.7236 15.8996 16.3152 17.5868" stroke="currentColor" stroke-miterlimit="10" stroke-linecap="round" stroke-linejoin="round"/>
    <path d="M20.6649 9.37463C12.7485 11.1727 7.67184 18.9703 9.28532 26.9726L9.29305 26.9707C9.85379 29.7523 8.80035 32.484 6.77832 34.1974" stroke="currentColor" stroke-miterlimit="10" stroke-linecap="round" stroke-linejoin="round"/>
    <path d="M38.1939 38.0967C39.6338 32.696 39.8867 26.8905 38.7072 21.0406L38.7044 21.0404C37.3132 14.1404 31.3958 9.3083 24.667 9.01196" stroke="currentColor" stroke-miterlimit="10" stroke-linecap="round" stroke-linejoin="round"/>
</svg>
