<svg viewBox="0 0 48 48" fill="none" xmlns="http://www.w3.org/2000/svg"><path d="M9.095 10.659C5.035 15.199 3.09 21.53 4.387 27.96M35.34 7.533a19.943 19.943 0 00-15.298-3.134 19.925 19.925 0 00-8.038 3.591M43.603 20.053a19.91 19.91 0 00-5.33-10.059M44.008 24.41a20.09 20.09 0 00-.395-4.36M4.398 27.958c.058.288.121.572.191.854M18.83 43.334c4.482-5.1 6.616-12.16 5.17-19.328" stroke="currentColor" stroke-miterlimit="10" stroke-linecap="round" stroke-linejoin="round"/><path d="M29.276 25.396c-.089-.79-.213-1.584-.373-2.379l.005-.002a5.012 5.012 0 10-9.826 1.982c.145 1.213 1.72 9.79-5.2 16.266M24.634 44a27.49 27.49 0 004.797-14.497M14.348 21.332a9.968 9.968 0 00-.164 4.653l.011-.003c.949 4.705-.876 9.323-4.347 12.166" stroke="currentColor" stroke-miterlimit="10" stroke-linecap="round" stroke-linejoin="round"/><path d="M31.171 42.679a32.378 32.378 0 002.634-20.65c-.355-1.726-3.257-9.555-11.788-7.834a9.967 9.967 0 00-5.702 3.392" stroke="currentColor" stroke-miterlimit="10" stroke-linecap="round" stroke-linejoin="round"/><path d="M20.665 9.375c-7.916 1.798-12.993 9.595-11.38 17.598l.008-.002a7.516 7.516 0 01-2.515 7.226M38.194 38.097a37.364 37.364 0 00.513-17.056h-.003c-1.39-6.9-7.308-11.733-14.037-12.029" stroke="currentColor" stroke-miterlimit="10" stroke-linecap="round" stroke-linejoin="round"/></svg>