<svg viewBox="0 0 96 96" fill="none" xmlns="http://www.w3.org/2000/svg"><path d="M44 85c-3.6-2.43-7.2-7.28-7.2-17a33.51 33.51 0 017.36-21.28S43.61 66.21 48.82 68c4.81 1.22 2.4-12.13 2.4-12.13s8.41 4 8.41 13.35c-.19 5.72-1.2 10.91-6 15.77C66.83 85 74 66.74 74 51c0 0-4.8 9.7-7.2 7.28-2.4-2.42 2.4-7.28 2.4-14.56a25.58 25.58 0 00-6.81-16.68c2 11.16-10 19.11-10 19.11s6-23-9-35.18c3 19.41-7.45 19.47-9.34 30.9 0 0-5.1-4.12-5.81-12.89C16.41 42.53 32 69.22 27.22 66.79c-2.4-1.21-4.8-3.64-7.21-8.49C18.88 78.92 39.22 85 44 85z" stroke="currentColor" stroke-width="2" stroke-linecap="round" stroke-linejoin="round"/></svg>