<svg width="96" height="96" viewBox="0 0 96 96" fill="none" xmlns="http://www.w3.org/2000/svg">
<path d="M44 85C40.4 82.57 36.8 77.72 36.8 68C36.7254 60.27 39.3256 52.752 44.16 46.72C44.16 46.72 43.61 66.21 48.82 68C53.63 69.22 51.22 55.87 51.22 55.87C51.22 55.87 59.63 59.87 59.63 69.22C59.44 74.94 58.43 80.13 53.63 84.99C66.83 85 74 66.74 74 51C74 51 69.2 60.7 66.8 58.28C64.4 55.86 69.2 51 69.2 43.72C69.028 37.5181 66.6077 31.5901 62.39 27.04C64.39 38.2 52.39 46.15 52.39 46.15C52.39 46.15 58.39 23.15 43.39 10.97C46.39 30.38 35.94 30.44 34.05 41.87C34.05 41.87 28.95 37.75 28.24 28.98C16.41 42.53 32 69.22 27.22 66.79C24.82 65.58 22.42 63.15 20.01 58.3C18.88 78.92 39.22 85 44 85Z" stroke="#00008F" stroke-width="2" stroke-linecap="round" stroke-linejoin="round"/>
</svg>
