<svg viewBox="0 0 48 48" fill="none" xmlns="http://www.w3.org/2000/svg"><path d="M9.8 12.915v10c0 3.275 1.5 5.84 4.695 5.84 3.195 0 5.195-2.065 5.195-5.34v-4.08l-3.125 4.545H17.9M9.8 5.815v4" stroke="currentColor" stroke-linecap="round" stroke-linejoin="round"/><path d="M9.76 12.795a1.415 1.415 0 100-2.83 1.415 1.415 0 000 2.83z" stroke="currentColor" stroke-miterlimit="10"/><path d="M22 30.5c-.4-.2-.167-2.583 0-3.75l3 1.5c3-1.75 6.5-3 8-9 .5-6.75-6.25-5.417-9.75-4 .2-1.2 1.917-2.833 2.75-3.5-1.2-1.2-1.667-3.167-1.75-4 18 3 15.667 18.25 12.25 25.5.6.6 1.75-.083 2.25-.5 1 3.5-.75 4-1.75 4.25-.549.137-2.333.167-3.25 0-6.4 6.2-13 4.917-15.5 3.5.167-.417.6-1.3 1-1.5.4-.2-1-.583-1.75-.75 1.5-6.25 5-7.5 4.5-7.75z" stroke="currentColor"/><circle cx="25.25" cy="34.75" r=".75" stroke="currentColor"/></svg>