<svg width="96" height="96" viewBox="0 0 96 96" fill="none" xmlns="http://www.w3.org/2000/svg"><path d="M19.6 25.83v20c0 6.55 3 11.68 9.39 11.68 6.39 0 10.39-4.13 10.39-10.68v-8.16l-6.25 9.09h2.67M19.6 11.63v8" stroke="currentColor" stroke-width="2" stroke-linecap="round" stroke-linejoin="round"/><mask id="a"><path d="M49.54 16.66c3.72.3 12.72 2 20.94 11.15 7 7.77 6.86 22.5 5.61 27.05a48.411 48.411 0 01-4 10.16 2 2 0 001.77 3 1.9 1.9 0 00.74-.15 13.13 13.13 0 002.49-1.31 5.87 5.87 0 01-.7 4.55 3.71 3.71 0 01-2.77 2.13 28.667 28.667 0 01-5.51-.58 1.837 1.837 0 00-.41 0 2.002 2.002 0 00-1.45.62 28.17 28.17 0 01-20.44 9.19 16.11 16.11 0 01-7.61-2c.24-.318.457-.652.65-1a2 2 0 00-.93-2.8 9.91 9.91 0 00-1.66-.53c1-3.46 3.39-9.76 8-14a2 2 0 00.61-1.84 13.229 13.229 0 01-.16-5.6l1 .79C48 57.24 49 57.8 49.92 57.8c.153.015.307.015.46 0 .197-.038.386-.11.56-.21l.18-.1h.06C57.24 53.89 64.12 49.89 67 39c.048-.172.072-.35.07-.53 0-3-1.08-7.11-3.4-9.44a5.708 5.708 0 00-4.07-1.79c-2.14 0-7.53 1.09-10.95 1.82a16.358 16.358 0 013.5-4.06 2 2 0 00.4-2.82 24.001 24.001 0 01-3-5.49l-.01-.03zm-1.4-2.07H48a1 1 0 00-.77.41 1 1 0 00-.13.88 27.66 27.66 0 003.9 7.48c-2.46 1.82-4.52 5.43-5.24 6.69a1 1 0 00.85 1.47h.22c4.87-1.11 10.81-2.29 12.83-2.29a3.689 3.689 0 012.65 1.2c1.92 1.93 2.8 5.5 2.82 8.05-2.73 10.1-8.93 13.7-14.96 17.2l-.19.11h-.06c-.55 0-2.16-1.3-3-1.93-.588-.5-1.206-.965-1.85-1.39l-.2-.12h-.23a1.87 1.87 0 00-1.4.73c-1.36 1.72-.6 6.34-.38 7.5-5.54 5.09-8 12.85-8.9 16.17a.81.81 0 00.09.59.83.83 0 00.52.37 13 13 0 012.51.68 9.4 9.4 0 01-.9 1.27c-.26.34-.66.67-.6 1.14a.81.81 0 00.35.56 18.5 18.5 0 009.85 3 30.161 30.161 0 0021.89-9.81c1.947.407 3.93.618 5.92.63 1.68 0 3.36-1.17 4.5-3.13a7.41 7.41 0 00.43-7.2 1.241 1.241 0 00-.84-.6 1.103 1.103 0 00-.31 0c-.36 0-.711.115-1 .33-.77.57-1.607 1.047-2.49 1.42A50.548 50.548 0 0078 55.39c1.37-5 1.57-20.46-6-28.92-10.22-11.3-21.45-11.88-23.86-11.88z"/></mask><path d="M49.54 16.66c3.72.3 12.72 2 20.94 11.15 7 7.77 6.86 22.5 5.61 27.05a48.411 48.411 0 01-4 10.16 2 2 0 001.77 3 1.9 1.9 0 00.74-.15 13.13 13.13 0 002.49-1.31 5.87 5.87 0 01-.7 4.55 3.71 3.71 0 01-2.77 2.13 28.667 28.667 0 01-5.51-.58 1.837 1.837 0 00-.41 0 2.002 2.002 0 00-1.45.62 28.17 28.17 0 01-20.44 9.19 16.11 16.11 0 01-7.61-2c.24-.318.457-.652.65-1a2 2 0 00-.93-2.8 9.91 9.91 0 00-1.66-.53c1-3.46 3.39-9.76 8-14a2 2 0 00.61-1.84 13.229 13.229 0 01-.16-5.6l1 .79C48 57.24 49 57.8 49.92 57.8c.153.015.307.015.46 0 .197-.038.386-.11.56-.21l.18-.1h.06C57.24 53.89 64.12 49.89 67 39c.048-.172.072-.35.07-.53 0-3-1.08-7.11-3.4-9.44a5.708 5.708 0 00-4.07-1.79c-2.14 0-7.53 1.09-10.95 1.82a16.358 16.358 0 013.5-4.06 2 2 0 00.4-2.82 24.001 24.001 0 01-3-5.49l-.01-.03zm-1.4-2.07H48a1 1 0 00-.77.41 1 1 0 00-.13.88 27.66 27.66 0 003.9 7.48c-2.46 1.82-4.52 5.43-5.24 6.69a1 1 0 00.85 1.47h.22c4.87-1.11 10.81-2.29 12.83-2.29a3.689 3.689 0 012.65 1.2c1.92 1.93 2.8 5.5 2.82 8.05-2.73 10.1-8.93 13.7-14.96 17.2l-.19.11h-.06c-.55 0-2.16-1.3-3-1.93-.588-.5-1.206-.965-1.85-1.39l-.2-.12h-.23a1.87 1.87 0 00-1.4.73c-1.36 1.72-.6 6.34-.38 7.5-5.54 5.09-8 12.85-8.9 16.17a.81.81 0 00.09.59.83.83 0 00.52.37 13 13 0 012.51.68 9.4 9.4 0 01-.9 1.27c-.26.34-.66.67-.6 1.14a.81.81 0 00.35.56 18.5 18.5 0 009.85 3 30.161 30.161 0 0021.89-9.81c1.947.407 3.93.618 5.92.63 1.68 0 3.36-1.17 4.5-3.13a7.41 7.41 0 00.43-7.2 1.241 1.241 0 00-.84-.6 1.103 1.103 0 00-.31 0c-.36 0-.711.115-1 .33-.77.57-1.607 1.047-2.49 1.42A50.548 50.548 0 0078 55.39c1.37-5 1.57-20.46-6-28.92-10.22-11.3-21.45-11.88-23.86-11.88z" stroke="currentColor" stroke-width="2" mask="url(#a)"/><path d="M51.619 67.5v0h.001a3.13 3.13 0 013.13 3.13v.001a3.14 3.14 0 11-3.131-3.131zm1.444 1.682a2.14 2.14 0 10-3.143 2.907 2.14 2.14 0 003.143-2.907z" stroke="currentColor"/><path d="M19.52 25.59a2.83 2.83 0 100-5.66 2.83 2.83 0 000 5.66z" stroke="currentColor" stroke-width="2" stroke-miterlimit="10"/></svg>