<svg viewBox="0 0 96 96" fill="none" xmlns="http://www.w3.org/2000/svg"><path d="M39.82 63.67V45.34h16.36v18.33m18.18-1.54V37.2v24.93zm-52.72-24.9v24.9-24.9zM18 34.86a2.492 2.492 0 011-2l26.8-20.13a3.69 3.69 0 014.4 0L77 32.87a2.49 2.49 0 011 2 2.58 2.58 0 01-4.14 2l-25.31-19a.9.9 0 00-1.1 0L22 37a2.52 2.52 0 01-4-2v-.14z" stroke="currentColor" stroke-width="2" stroke-linecap="round" stroke-linejoin="round"/><path d="M48.92 36.317c1.944-.51 3.11-2.487 2.605-4.415-.506-1.929-2.492-3.079-4.437-2.57-1.944.51-3.11 2.487-2.605 4.416.505 1.928 2.492 3.079 4.436 2.569zM86 61.48a8.83 8.83 0 01-12.35 0L71 58.74a2.58 2.58 0 00-3.62 0l-2.63 2.74a8.83 8.83 0 01-12.35 0l-2.62-2.74a2.58 2.58 0 00-3.62 0l-2.62 2.74a8.83 8.83 0 01-12.35 0l-2.63-2.74a2.58 2.58 0 00-3.62 0l-2.62 2.74a8.83 8.83 0 01-12.35 0m76.03 9a8.83 8.83 0 01-12.35 0L71 67.74a2.58 2.58 0 00-3.62 0l-2.63 2.74a8.83 8.83 0 01-12.35 0l-2.62-2.74a2.58 2.58 0 00-3.62 0l-2.62 2.74a8.83 8.83 0 01-12.35 0l-2.63-2.74a2.58 2.58 0 00-3.62 0l-2.62 2.74a8.83 8.83 0 01-12.35 0m76.03 9a8.83 8.83 0 01-12.35 0L71 76.74a2.58 2.58 0 00-3.62 0l-2.63 2.74a8.83 8.83 0 01-12.35 0l-2.62-2.74a2.58 2.58 0 00-3.62 0l-2.62 2.74a8.83 8.83 0 01-12.35 0l-2.63-2.74a2.58 2.58 0 00-3.62 0l-2.62 2.74a8.83 8.83 0 01-12.35 0" stroke="currentColor" stroke-width="2" stroke-linecap="round" stroke-linejoin="round"/></svg>