<svg viewBox="0 0 48 48" fill="none" xmlns="http://www.w3.org/2000/svg"><path d="M14.738 29.933l-2.921-2.711c-.133-.148-.372-.222-.585-.222-.451 0-.823.37-.823.789 0 .197.08.394.24.542l1.407 1.306H3.902c-.505.025-.903.395-.903.888 0 .443.398.813.903.838h8.152l-1.407 1.306c-.319.296-.319.789 0 1.11.319.295.85.295 1.195 0l2.921-2.712c.319-.345.319-.838-.026-1.134z" stroke="currentColor" stroke-miterlimit="10"/><path fill-rule="evenodd" clip-rule="evenodd" d="M29.87 5h.008a.33.33 0 01.258.12l.074.09.093.07 11.367 8.618h-.839V42h-7.549v-7.42h-6.648V42h-7.863V13.898h-.939l11.659-8.652.086-.064.071-.081a.293.293 0 01.1-.075l-.411-.905.411.905A.294.294 0 0129.87 5zm11.745 37.787a.73.73 0 00.216-.514V14.898h.727a.735.735 0 00.625-1.108L30.907 4.483a1.33 1.33 0 00-1.573-.367 1.293 1.293 0 00-.44.327L16.3 13.79a.737.737 0 00.625 1.108h.847v27.216c0 .598.323.886.727.886H41.1a.731.731 0 00.515-.213zm-17.31-26.264H21.43v2.875h2.875v-2.875zm-2.875-1h-1v4.875h4.875v-4.875H21.43zm2.875 7.204H21.43v2.875h2.875v-2.875zm-2.875-1h-1v4.875h4.875v-4.875H21.43zm0 7.205h2.875v2.875H21.43v-2.875zm-1-1h4.875v4.875H20.43v-4.875zm10.966-11.41H28.52v2.876h2.875v-2.875zm-2.875-1h-1v4.877h4.875v-4.875H28.52zm0 7.205h2.875v2.875H28.52v-2.875zm-1-1h4.875v4.875H27.52v-4.875zm3.875 7.205H28.52v2.875h2.875v-2.875zm-2.875-1h-1v4.875h4.875v-4.875H28.52zm-.887 7.648h4.648V42h-4.648v-6.42zm10.853-19.057h-2.875v2.875h2.875v-2.875zm-2.875-1h-1v4.875h4.875v-4.875h-3.875zm0 7.204h2.875v2.875h-2.875v-2.875zm-1-1h4.875v4.875h-4.875v-4.875zm3.875 7.205h-2.875v2.875h2.875v-2.875zm-2.875-1h-1v4.875h4.875v-4.875h-3.875z" fill="currentColor"/><path d="M29.878 5l-.008-1 .008 1zm-.008 0h-1v1.01L29.878 6l-.008-1zm.15.03l.423-.906-.423.907zm.116.09l-.772.636.771-.636zm.074.09l-.771.636.074.09.093.07.604-.796zm.093.07l.604-.797-.604.797zm11.367 8.618v1h2.974l-2.37-1.797-.604.797zm-.839 0v-1h-1v1h1zm0 28.102v1h1v-1h-1zm-7.549 0h-1v1h1v-1zm0-7.42h1v-1h-1v1zm-6.648 0v-1h-1v1h1zm0 7.42v1h1v-1h-1zm-7.863 0h-1v1h1v-1zm0-28.102h1v-1h-1v1zm-.939 0l-.596-.803-2.43 1.803h3.026v-1zm11.659-8.652l.596.803-.596-.803zm.086-.064l.596.803.087-.064.07-.081-.753-.658zm.071-.081l-.753-.658.753.658zm.1-.075l.414.91.91-.413-.414-.91-.91.413zm0 0l-.91.414.413.91.91-.413-.413-.91zM29.87 5h1V4h-1v1zm11.96 37.273l1 .006v-.006h-1zm-.216.514l.705.71-.705-.71zm.216-27.89v-1h-1v1h1zm.727 0v1.001h.013l-.013-1zm.365-.102l.51.86-.51-.86zm.266-.271l.871.49-.87-.49zm.095-.368l1-.009-1 .009zm-.101-.366l.862-.506-.1-.171-.158-.12-.604.797zM30.907 4.483l-.771.637.074.09.093.07.604-.797zm-.464-.359l.422-.906-.422.906zM29.87 4v1h.008l-.008-1zm-.536.116l.414.91-.414-.91zm-.44.327l.597.803.086-.064.071-.081-.753-.658zM16.3 13.79l-.595-.803-.164.121-.103.176.862.506zm-.1.366l-1-.009 1 .009zm.094.368l.871-.492-.87.492zm.266.271l.51-.86-.51.86zm.365.103l-.013 1h.013v-1zm.847 0h1v-1h-1v1zM41.1 43v-1 1zM21.43 16.523v-1h-1v1h1zm2.875 0h1v-1h-1v1zm-2.875 2.875h-1v1h1v-1zm2.875 0v1h1v-1h-1zm-3.875-3.875v-1h-1v1h1zm0 4.875h-1v1h1v-1zm4.875 0v1h1v-1h-1zm0-4.875h1v-1h-1v1zm-3.875 7.204v-1h-1v1h1zm2.875 0h1v-1h-1v1zm-2.875 2.875h-1v1h1v-1zm2.875 0v1h1v-1h-1zm-3.875-3.875v-1h-1v1h1zm0 4.875h-1v1h1v-1zm4.875 0v1h1v-1h-1zm0-4.875h1v-1h-1v1zm-1 7.205h1v-1h-1v1zm-2.875 0v-1h-1v1h1zm2.875 2.875v1h1v-1h-1zm-2.875 0h-1v1h1v-1zm-1-3.875v-1h-1v1h1zm4.875 0h1v-1h-1v1zm0 4.875v1h1v-1h-1zm-4.875 0h-1v1h1v-1zm8.09-16.284v-1h-1v1h1zm2.876 0h1v-1h-1v1zm-2.875 2.875h-1v1h1v-1zm2.875 0v1h1v-1h-1zm-3.875-3.875v-1h-1v1h1zm0 4.875h-1v1h1v-1zm4.875 0v1h1v-1h-1zm0-4.875h1v-1h-1v1zm-1 7.204h1v-1h-1v1zm-2.875 0v-1h-1v1h1zm2.875 2.875v1h1v-1h-1zm-2.875 0h-1v1h1v-1zm-1-3.875v-1h-1v1h1zm4.875 0h1v-1h-1v1zm0 4.875v1h1v-1h-1zm-4.875 0h-1v1h1v-1zm1 2.33v-1h-1v1h1zm2.875 0h1v-1h-1v1zm-2.875 2.875h-1v1h1v-1zm2.875 0v1h1v-1h-1zm-3.875-3.875v-1h-1v1h1zm0 4.875h-1v1h1v-1zm4.875 0v1h1v-1h-1zm0-4.875h1v-1h-1v1zm-.114 7.648h1v-1h-1v1zm-4.648 0v-1h-1v1h1zM32.282 42v1h1v-1h-1zm-4.648 0h-1v1h1v-1zm7.978-25.477v-1h-1v1h1zm2.875 0h1v-1h-1v1zm-2.875 2.875h-1v1h1v-1zm2.875 0v1h1v-1h-1zm-3.875-3.875v-1h-1v1h1zm0 4.875h-1v1h1v-1zm4.875 0v1h1v-1h-1zm0-4.875h1v-1h-1v1zm-1 7.204h1v-1h-1v1zm-2.875 0v-1h-1v1h1zm2.875 2.875v1h1v-1h-1zm-2.875 0h-1v1h1v-1zm-1-3.875v-1h-1v1h1zm4.875 0h1v-1h-1v1zm0 4.875v1h1v-1h-1zm-4.875 0h-1v1h1v-1zm1 2.33v-1h-1v1h1zm2.875 0h1v-1h-1v1zm-2.875 2.875h-1v1h1v-1zm2.875 0v1h1v-1h-1zm-3.875-3.875v-1h-1v1h1zm0 4.875h-1v1h1v-1zm4.875 0v1h1v-1h-1zm0-4.875h1v-1h-1v1zM29.87 4h-.01l.018 2h.01l-.018-2zm.573.124A1.33 1.33 0 0029.87 4l.017 2a.67.67 0 01-.289-.063l.845-1.813zm.464.36a1.33 1.33 0 00-.464-.36l-.845 1.813a.67.67 0 01-.234-.18l1.543-1.274zm.074.089l-.074-.09-1.543 1.273.075.09 1.542-1.273zm-.074-.09l-.093-.07-1.208 1.593.092.07 1.209-1.593zm11.367 8.618L30.907 4.483l-1.209 1.594 11.368 8.618 1.208-1.594zm-1.443 1.797h.839v-2h-.839v2zm1 0v-1h-2v1h2zm0 27.102V14.898h-2V42h2zm-8.549 1h7.55v-2h-7.55v2zm1-1h-2 2zm0 0v-6.42h-2V42h2zm0-6.42v-1h-2v1h2zm-1-2h-1v2h1v-2zm-1 0h-4.648v2h4.648v-2zm-4.648 0h-1v2h1v-2zm-2 1v1h2v-1h-2zm0 1V42h2v-6.42h-2zm0 6.42h2-2zm-6.863 1h7.863v-2h-7.863v2zm-1-28.102V42h2V14.898h-2zm0-1v1h2v-1h-2zm.061 1h.939v-2h-.939v2zM28.895 4.443l-11.659 8.652 1.192 1.606 11.659-8.652-1.192-1.606zm.086-.064l-.086.064 1.192 1.606.086-.064-1.192-1.606zm-.086.064l-.071.081L30.33 5.84l.07-.082-1.506-1.315zm.44-.327a1.293 1.293 0 00-.44.327L30.4 5.758a.707.707 0 01-.24.179l-.827-1.82zm-.909.42l.412.904 1.82-.827-.411-.905-1.82.827zm2.232.077l-.411-.905-1.82.827.41.905 1.821-.827zM29.87 4c-.185 0-.368.04-.536.116l.828 1.82A.706.706 0 0129.87 6V4zm1 1h-2 2zm9.961 37.267a.27.27 0 01.08-.189l1.41 1.419c.324-.323.507-.76.51-1.218l-2-.012zm0-26.37v26.376h2V15.898h-2zm0-1v1h2v-1h-2zm1.727-1h-.727v2h.727v-2zm-.145.038a.264.264 0 01.132-.037l.026 2c.304-.004.601-.088.863-.243l-1.02-1.72zm-.095.097a.264.264 0 01.096-.097l1.02 1.72c.26-.155.477-.375.626-.64l-1.742-.983zm-.034.133c0-.047.011-.092.034-.133l1.742.983c.15-.265.227-.564.224-.868l-2 .018zm.036.131a.264.264 0 01-.036-.131l2-.018a1.736 1.736 0 00-.239-.863l-1.725 1.012zM30.303 5.28l12.276 9.307 1.208-1.594-12.276-9.307-1.208 1.594zm-.283-.25a.352.352 0 01.116.09l1.542-1.274a2.33 2.33 0 00-.813-.628L30.02 5.03zM29.878 5a.33.33 0 01.142.03l.845-1.812A2.33 2.33 0 0029.861 3l.017 2zm-.13.026A.294.294 0 0129.87 5V3c-.328 0-.652.07-.95.206l.828 1.82zm-.1.075a.293.293 0 01.1-.075l-.828-1.82a2.295 2.295 0 00-.779.58L29.648 5.1zm-12.753 9.492l12.596-9.347-1.192-1.606-12.595 9.347 1.191 1.606zm.303-.428a.265.265 0 01-.036.131l-1.725-1.012c-.154.262-.236.56-.239.863l2 .018zm-.034-.133c.023.04.035.086.034.133l-2-.018c-.002.304.075.603.224.868l1.742-.983zm-.095-.097c.04.024.072.057.095.097l-1.742.983c.15.264.365.485.627.64l1.02-1.72zm-.132-.037c.047 0 .092.013.132.037l-1.02 1.72c.261.155.559.239.862.243l.026-2zm.834 0h-.847v2h.847v-2zm1 2v-1h-2v1h2zm0 26.216V15.898h-2v26.216h2zM18.498 42c.018 0 .055.004.101.023a.36.36 0 01.13.092c.073.082.042.122.042-.001h-2c0 .475.13.957.467 1.334a1.67 1.67 0 001.26.552v-2zM41.1 42H18.498v2H41.1v-2zm-.19.078A.269.269 0 0141.1 42v2c.457 0 .896-.18 1.22-.503l-1.41-1.419zM21.43 17.523h2.875v-2H21.43v2zm1 1.875v-2.875h-2v2.875h2zm1.875-1H21.43v2h2.875v-2zm-1-1.875v2.875h2v-2.875h-2zm-2.875 0h1v-2h-1v2zm1 0v-1h-2v1h2zm0 2.875v-2.875h-2v2.875h2zm0 1v-1h-2v1h2zm0-1h-1v2h1v-2zm2.875 0H21.43v2h2.875v-2zm1 0h-1v2h1v-2zm-1 0v1h2v-1h-2zm0-2.875v2.875h2v-2.875h-2zm0-1v1h2v-1h-2zm0 1h1v-2h-1v2zm-2.875 0h2.875v-2H21.43v2zm0 7.204h2.875v-2H21.43v2zm1 1.875v-2.875h-2v2.875h2zm1.875-1H21.43v2h2.875v-2zm-1-1.875v2.875h2v-2.875h-2zm-2.875 0h1v-2h-1v2zm1 0v-1h-2v1h2zm0 2.875v-2.875h-2v2.875h2zm0 1v-1h-2v1h2zm0-1h-1v2h1v-2zm2.875 0H21.43v2h2.875v-2zm1 0h-1v2h1v-2zm-1 0v1h2v-1h-2zm0-2.875v2.875h2v-2.875h-2zm0-1v1h2v-1h-2zm0 1h1v-2h-1v2zm-2.875 0h2.875v-2H21.43v2zm2.875 5.205H21.43v2h2.875v-2zm1 3.875v-2.875h-2v2.875h2zm-3.875 1h2.875v-2H21.43v2zm-1-3.875v2.875h2v-2.875h-2zm1-2h-1v2h1v-2zm2.875 0H21.43v2h2.875v-2zm1 0h-1v2h1v-2zm1 2v-1h-2v1h2zm0 2.875v-2.875h-2v2.875h2zm0 1v-1h-2v1h2zm-2 1h1v-2h-1v2zm-2.875 0h2.875v-2H21.43v2zm-1 0h1v-2h-1v2zm-1-2v1h2v-1h-2zm0-2.875v2.875h2v-2.875h-2zm0-1v1h2v-1h-2zm9.09-10.41h2.876v-2H28.52v2zm1 1.876v-2.875h-2v2.875h2zm1.876-1H28.52v2h2.875v-2zm-1-1.875v2.875h2v-2.875h-2zm-2.875 0h1v-2h-1v2zm1 0v-1h-2v1h2zm0 2.875v-2.875h-2v2.875h2zm0 1v-1h-2v1h2zm0-1h-1v2h1v-2zm2.875 0H28.52v2h2.875v-2zm1 0h-1v2h1v-2zm-1 0v1h2v-1h-2zm0-2.875v2.875h2v-2.875h-2zm0-1v1h2v-1h-2zm0 1h1v-2h-1v2zm-2.875 0h2.875v-2H28.52v2zm2.875 5.204H28.52v2h2.875v-2zm1 3.875v-2.875h-2v2.875h2zm-3.875 1h2.875v-2H28.52v2zm-1-3.875v2.875h2v-2.875h-2zm1-2h-1v2h1v-2zm2.875 0H28.52v2h2.875v-2zm1 0h-1v2h1v-2zm1 2v-1h-2v1h2zm0 2.875v-2.875h-2v2.875h2zm0 1v-1h-2v1h2zm-2 1h1v-2h-1v2zm-2.875 0h2.875v-2H28.52v2zm-1 0h1v-2h-1v2zm-1-2v1h2v-1h-2zm0-2.875v2.875h2v-2.875h-2zm0-1v1h2v-1h-2zm2 8.205h2.875v-2H28.52v2zm1 1.875v-2.875h-2v2.875h2zm1.875-1H28.52v2h2.875v-2zm-1-1.875v2.875h2v-2.875h-2zm-2.875 0h1v-2h-1v2zm1 0v-1h-2v1h2zm0 2.875v-2.875h-2v2.875h2zm0 1v-1h-2v1h2zm0-1h-1v2h1v-2zm2.875 0H28.52v2h2.875v-2zm1 0h-1v2h1v-2zm-1 0v1h2v-1h-2zm0-2.875v2.875h2v-2.875h-2zm0-1v1h2v-1h-2zm0 1h1v-2h-1v2zm-2.875 0h2.875v-2H28.52v2zm3.761 5.648h-4.648v2h4.648v-2zm1 7.42v-6.42h-2V42h2zm-5.648 1h4.648v-2h-4.648v2zm-1-7.42V42h2v-6.42h-2zm8.978-18.057h2.875v-2h-2.875v2zm1 1.875v-2.875h-2v2.875h2zm1.875-1h-2.875v2h2.875v-2zm-1-1.875v2.875h2v-2.875h-2zm-2.875 0h1v-2h-1v2zm1 0v-1h-2v1h2zm0 2.875v-2.875h-2v2.875h2zm0 1v-1h-2v1h2zm0-1h-1v2h1v-2zm2.875 0h-2.875v2h2.875v-2zm1 0h-1v2h1v-2zm-1 0v1h2v-1h-2zm0-2.875v2.875h2v-2.875h-2zm0-1v1h2v-1h-2zm0 1h1v-2h-1v2zm-2.875 0h2.875v-2h-2.875v2zm2.875 5.204h-2.875v2h2.875v-2zm1 3.875v-2.875h-2v2.875h2zm-3.875 1h2.875v-2h-2.875v2zm-1-3.875v2.875h2v-2.875h-2zm1-2h-1v2h1v-2zm2.875 0h-2.875v2h2.875v-2zm1 0h-1v2h1v-2zm1 2v-1h-2v1h2zm0 2.875v-2.875h-2v2.875h2zm0 1v-1h-2v1h2zm-2 1h1v-2h-1v2zm-2.875 0h2.875v-2h-2.875v2zm-1 0h1v-2h-1v2zm-1-2v1h2v-1h-2zm0-2.875v2.875h2v-2.875h-2zm0-1v1h2v-1h-2zm2 8.205h2.875v-2h-2.875v2zm1 1.875v-2.875h-2v2.875h2zm1.875-1h-2.875v2h2.875v-2zm-1-1.875v2.875h2v-2.875h-2zm-2.875 0h1v-2h-1v2zm1 0v-1h-2v1h2zm0 2.875v-2.875h-2v2.875h2zm0 1v-1h-2v1h2zm0-1h-1v2h1v-2zm2.875 0h-2.875v2h2.875v-2zm1 0h-1v2h1v-2zm-1 0v1h2v-1h-2zm0-2.875v2.875h2v-2.875h-2zm0-1v1h2v-1h-2zm0 1h1v-2h-1v2zm-2.875 0h2.875v-2h-2.875v2z" mask="url(#a)"/></svg>