<svg viewBox="0 0 96 96" fill="none" xmlns="http://www.w3.org/2000/svg"><path d="M21.03 43.57L17.6 47m0-3.43L21.03 47m13.18-5.2a13.54 13.54 0 00-1.11 5.33 14 14 0 001.53 6.26M41 39.86a23.45 23.45 0 00.42 15.46m34.5-7.67a80.8 80.8 0 0015-19.4v-.1a121.477 121.477 0 00-1.82 18.31c-.002 7.172.634 14.33 1.9 21.39a78.501 78.501 0 00-15.08-20.2zM24.78 35.11a50.319 50.319 0 011.56 12.54 50.341 50.341 0 01-1.56 12.55A55.63 55.63 0 015 47.65a56.39 56.39 0 0119.78-12.54zm22.99 2.81a36.28 36.28 0 00.42 19.33M54.55 37A43.74 43.74 0 0055 58.21M61.34 35a60.099 60.099 0 00-1.12 11.56c0 4.563.514 9.112 1.53 13.56m6.37-22.68A39.664 39.664 0 0067 46.78c0 3.703.512 7.387 1.52 10.95M27.07 47.61h49.12" stroke="currentColor" stroke-width="2" stroke-linecap="round" stroke-linejoin="round"/></svg>