<svg xmlns="http://www.w3.org/2000/svg" width="25" height="25" viewBox="0 0 25 25"><g transform="translate(1 1)" fill="currentColor"><circle cx="10.931" cy="10.931" r="3.644"/><path d="M21.794 6.428a6.033 6.033 0 0 0-6.36-6.36H6.428a6.033 6.033 0 0 0-6.36 6.36v9.006a6.033 6.033 0 0 0 6.36 6.36h9.006a6.033 6.033 0 0 0 6.36-6.36v-4.503c0-2.973.051-3.334 0-4.503zm-16.81 4.503a5.947 5.947 0 1 1 11.894 0 5.947 5.947 0 0 1-11.894 0zm10.91-5.653a1.306 1.306 0 1 1 2.414-1 1.306 1.306 0 0 1-2.413 1z"/></g></svg>
