<svg viewBox="0 0 96 96" fill="none" xmlns="http://www.w3.org/2000/svg"><path d="M66.23 37.53l13.78 5.93M47.92 81.01l.02-9-.02 9zm0 0l.16-66.04-.16 66.04zM36.06 17.94l11.99 9.04L60.08 18l-24.02-.06zm11.99 9.04L60.08 18l-12.03 8.98zm11.89 51.06L47.95 69l-12.03 8.98 24.02.06zm-11.99-9.03l-12.03 8.97 12.03-8.97zm28.61-4.44L19.44 31.41l57.12 33.16zM16.01 43.3l13.82-5.86-1.76-14.91L16.01 43.3zm13.82-5.86l-1.76-14.91 1.76 14.91zm50.16 15.24l-13.82 5.86 1.76 14.91 12.06-20.77zm-13.82 5.86l1.76 14.91-1.76-14.91zm10.47-26.99L19.36 64.43l57.28-32.88zm-48.7 41.8l1.83-14.9-13.79-5.93 11.96 20.83zm1.83-14.9l-13.78-5.93 13.78 5.93zm38.29-35.82l-1.84 14.9 13.8 5.93-11.96-20.83z" stroke="currentColor" stroke-width="2" stroke-linecap="round" stroke-linejoin="round"/></svg>