<svg width="96" height="96" viewBox="0 0 96 96" fill="none" xmlns="http://www.w3.org/2000/svg">
<path d="M66.23 37.53L80.01 43.46M47.92 81.01L47.94 72.01L47.92 81.01ZM47.92 81.01L48.08 14.97L47.92 81.01ZM36.06 17.94L48.05 26.98L60.08 18L36.06 17.94ZM48.05 26.98L60.08 18L48.05 26.98ZM59.94 78.04L47.95 69L35.92 77.98L59.94 78.04ZM47.95 69.01L35.92 77.98L47.95 69.01ZM76.56 64.57L19.44 31.41L76.56 64.57ZM16.01 43.3L29.83 37.44L28.07 22.53L16.01 43.3ZM29.83 37.44L28.07 22.53L29.83 37.44ZM79.99 52.68L66.17 58.54L67.93 73.45L79.99 52.68ZM66.17 58.54L67.93 73.45L66.17 58.54ZM76.64 31.55L19.36 64.43L76.64 31.55ZM27.94 73.35L29.77 58.45L15.98 52.52L27.94 73.35ZM29.77 58.45L15.99 52.52L29.77 58.45ZM68.06 22.63L66.22 37.53L80.02 43.46L68.06 22.63Z" stroke="#00008F" stroke-width="2" stroke-linecap="round" stroke-linejoin="round"/>
</svg>
