<svg viewBox="0 0 96 96" fill="none" xmlns="http://www.w3.org/2000/svg"><path d="M72.11 42.39H23.9c-6.478 0-11.73 5.252-11.73 11.73v15.06c0 6.478 5.252 11.73 11.73 11.73h48.21c6.478 0 11.73-5.252 11.73-11.73V54.12c0-6.478-5.252-11.73-11.73-11.73z" stroke="currentColor" stroke-width="2" stroke-linecap="round" stroke-linejoin="round"/><path d="M83.83 53.14H91h-7.17zM5 53.14h7.17H5zm19.94 20.93a2.36 2.36 0 11-4.72 0 2.36 2.36 0 014.72 0v0zm9.44 0a2.36 2.36 0 11-4.72 0 2.36 2.36 0 014.72 0v0zM19.33 42.88v-5.61h57.34v6.05l-57.34-.44zm0-15.83h57.33v5.11H19.33v-5.11z" stroke="currentColor" stroke-width="2" stroke-linecap="round" stroke-linejoin="round"/><path d="M55.17 15.09h29.46m-65.3 17.07h57.33v5.11H19.33v-5.11zm0-10.22h57.33v5.11H19.33v-5.11zm7.17 0v20.45-20.45zm7.17 0v20.45-20.45zm7.16 0v20.45-20.45zm7.17 0v20.45-20.45zm7.17-6.85v27.3-27.3zm7.16 0v27.3-27.3zm7.17 6.85v20.45-20.45z" stroke="currentColor" stroke-width="2" stroke-linecap="round" stroke-linejoin="round"/></svg>