<svg viewBox="0 0 96 96" fill="none" xmlns="http://www.w3.org/2000/svg"><path d="M61.23 14H34.79a2 2 0 00-2 2v34.49a2 2 0 002 2h26.44a2 2 0 002-2V16a2 2 0 00-2-2zm-35.5 37.21v9a2.57 2.57 0 002.57 2.56h4.3m30.8-.02h4.32a2.56 2.56 0 002.56-2.56v-9M47.76 66.6V82M48 60.19v-7.7m-24.38-1.92h2.57m43.62 0h2.57M63.23 66.6v-3.85a2.57 2.57 0 00-2.57-2.56h-25.3a2.57 2.57 0 00-2.57 2.56v3.85h30.44zM32.79 82v-1.28a2.58 2.58 0 012.57-2.57h25.3a2.58 2.58 0 012.57 2.57V82H32.79z" stroke="currentColor" stroke-width="2" stroke-linecap="round" stroke-linejoin="round"/></svg>