<svg viewBox="0 0 96 96" fill="none" xmlns="http://www.w3.org/2000/svg"><path d="M80.91 68.73v-7a3.86 3.86 0 00-3.1-3.83l-10.63-2.85-6.89-6.4c-4-3.79-6.83-4.6-10.37-4.6H37.54M35.8 74.06h24.06H35.8zm-.03-4.97h25-25zm30.84 11a6.75 6.75 0 100-13.5 6.75 6.75 0 000 13.5z" stroke="currentColor" stroke-width="2" stroke-linecap="round" stroke-linejoin="round"/><path d="M66.61 75.84a2.5 2.5 0 100-5 2.5 2.5 0 000 5zM74 74.06h6.49a2 2 0 002-2v-1a2 2 0 00-2-2h-8.11m8.53-5.32a5.75 5.75 0 01-4-1.82 13.75 13.75 0 01-2.38-4.54m-38.15-8.74H48.9a10.33 10.33 0 017 2.69l5.78 5.26m-.05 0H35.95m9.21 12.5V48.64" stroke="currentColor" stroke-width="2" stroke-linecap="round" stroke-linejoin="round"/><path d="M35.66 69.12V44.91a15.82 15.82 0 000-29v12.92H23V15.91a15.82 15.82 0 000 29v28.91a6.34 6.34 0 0012.68 0v-4.7h-.02z" stroke="currentColor" stroke-width="2" stroke-linecap="round" stroke-linejoin="round"/></svg>