<svg viewBox="0 0 48 48" fill="none" xmlns="http://www.w3.org/2000/svg"><path d="M20.75 30.5H6.25a1.75 1.75 0 00-1.75 1.75v0c0 .967.784 1.75 1.75 1.75h36.5a1.75 1.75 0 001.75-1.75v0a1.75 1.75 0 00-1.75-1.75h-14" stroke="currentColor"/><path d="M43.264 30.75c-1.43-9.016-9.175-16.25-18.514-16.25-9.339 0-17.083 7.234-18.513 16.25" stroke="currentColor"/><path d="M30 34c-.406-3.052-2.602-5.5-5.25-5.5s-4.844 2.448-5.25 5.5" stroke="currentColor"/><path d="M27.5 34c-.212-1.664-1.363-3-2.75-3s-2.538 1.336-2.75 3" stroke="currentColor"/><path stroke="currentColor" stroke-linecap="round" d="M10.686 25.328l1.643.986M33.172 19.686l-.986 1.642M25 17.5v2M38.828 25.686l-1.642.986"/><path d="M20.75 30.5l-3.161-7.081c-.477-1.067.952-1.945 1.69-1.038L24.25 28.5" stroke="currentColor"/></svg>