<svg width="96" height="96" viewBox="0 0 96 96" fill="none" xmlns="http://www.w3.org/2000/svg"><path d="M51.876 63.732a4.12 4.12 0 00-1.297-.716h0l-.006-.002a4.05 4.05 0 00-1.244-.194h-.003a4.04 4.04 0 00-3.499 2.08 3.697 3.697 0 00-.41.973l-.165.627h8.196l-.176-.634a4.2 4.2 0 00-1.396-2.134zm0 0s0 0 0 0l-.316.388.317-.387h-.001zM45.9 66a3.2 3.2 0 01.176-.5H45.9v.5zm0 0l.484.126A2.65 2.65 0 0146.42 66h-.52zm6.89 0l-.482.134a3.118 3.118 0 00-.04-.134h.522zm0 0v-.5h-.178c.07.161.13.329.178.5zm1.625.507l-.077-.417a5.18 5.18 0 00-1.176-2.453l-.01-.01-.007-.011-.227-.293a3.004 3.004 0 00-.415-.371l-.012-.008h0a5.09 5.09 0 00-1.82-.911l-.005-.001a4.99 4.99 0 00-1.336-.182h0a5.032 5.032 0 00-3.581 1.498 4.719 4.719 0 00-.902 1.345l-.005.011-.006.012a4.36 4.36 0 00-.406 1.224l.092.54h-4.755l.056-.55a9.596 9.596 0 01.878-3.15 2.7 2.7 0 01.171-.352c.192-.365.412-.714.658-1.045.157-.238.33-.466.515-.683l.195-.242.008-.011.009-.01a9.55 9.55 0 015.55-3.06h.005a9.727 9.727 0 011.244-.117H49.34v.5c.354 0 .708.02 1.06.06l4.015 8.687zm0 0l.424-.007 3.54-.06.546-.01-.058-.543a9.388 9.388 0 00-.884-3.1 8.908 8.908 0 00-1.351-2.11l-2.217 5.83zm32.57-4.82l.058.433h.294a3 3 0 01-1.835 5.38H12.5a3 3 0 01-1.063-5.803l.275-.105.042-.29a37.98 37.98 0 0175.23.385zM38.31 66.5h.456l.042-.454c.09-.982.312-1.947.66-2.87l.255-.676H12.5a2 2 0 000 4h25.81zm2.975-7.482l.291.637.508-.483a10.42 10.42 0 014.543-2.528l.742-.195-.478-.6-14-17.59-.846.519 9.24 20.24zm7.125-2.976l.15.188h.78a10.5 10.5 0 018.953 5.03l.146.24h27.479l-.094-.58a36.97 36.97 0 00-72.988 0l-.094.58H40.302l.14-.267c.086-.163.18-.322.283-.475l.156-.232-.116-.254-9.62-21.06-.012-.027-.016-.025a1.58 1.58 0 01.428-2.105 1.62 1.62 0 012.125.547l.014.02.016.02 14.71 18.4zm11.472 10l.039.458H85.5a2 2 0 000-4H58.992l.249.673c.341.924.557 1.889.64 2.87z" stroke="#00008F"/><path d="M65.763 38.36h0a.5.5 0 11.864.5h0l-2 3.46-.001.002a.502.502 0 01-.685.185.5.5 0 01-.18-.684l.002-.003 2-3.46zm8.433 13.925l.004-.002 3.467-1.998h.001a.5.5 0 01.5.863l-.002.001-3.466 1.998h0l-.005.003a.5.5 0 01-.555-.032.5.5 0 01.056-.833zm-49.286-.002h0l.005.003a.502.502 0 01.185.69h0l-.002.003a.499.499 0 01-.685.18l-.003-.002-3.47-2h0a.503.503 0 01.119-.923l-.13-.483.13.483a.502.502 0 01.382.05l3.47 2z" stroke="#00008F"/></svg>