<svg viewBox="0 0 96 96" fill="none" xmlns="http://www.w3.org/2000/svg"><path d="M67 53.45a9.45 9.45 0 100-18.9 9.45 9.45 0 000 18.9z" stroke="currentColor" stroke-width="2" stroke-linecap="round" stroke-linejoin="round"/><path d="M91 47v-6a1.45 1.45 0 00-1.33-1.44l-3.62-.31a19.717 19.717 0 00-2.2-5.31l2.34-2.77a1.46 1.46 0 00-.08-2l-4.28-4.28a1.46 1.46 0 00-2-.08l-2.77 2.34A19.721 19.721 0 0071.78 25l-.31-3.62A1.45 1.45 0 0070 20h-6a1.45 1.45 0 00-1.44 1.33L62.22 25a19.723 19.723 0 00-5.31 2.2l-2.77-2.34a1.46 1.46 0 00-2 .08l-4.28 4.28a1.46 1.46 0 00-.08 2l2.34 2.77A19.724 19.724 0 0048 39.22l-3.62.31A1.45 1.45 0 0043 41v6a1.45 1.45 0 001.33 1.44l3.62.31a19.72 19.72 0 002.2 5.31l-2.34 2.77a1.46 1.46 0 00.08 2l4.28 4.28a1.46 1.46 0 002 .08l2.77-2.34a19.72 19.72 0 005.31 2.2l.31 3.62A1.45 1.45 0 0064 68h6a1.45 1.45 0 001.44-1.33l.31-3.62a19.717 19.717 0 005.31-2.2l2.77 2.34a1.46 1.46 0 002-.08l4.28-4.28a1.46 1.46 0 00.08-2l-2.34-2.77a19.714 19.714 0 002.2-5.31l3.62-.31A1.45 1.45 0 0091 47v0zM23.35 70.93a7.28 7.28 0 100-14.56 7.28 7.28 0 000 14.56z" stroke="currentColor" stroke-width="2" stroke-linecap="round" stroke-linejoin="round"/><path d="M40.21 71.55l1.44-4.43a1.12 1.12 0 00-.65-1.38l-2.58-1.08a14.77 14.77 0 00-.35-4.41l2.37-1.48a1.11 1.11 0 00.41-1.46l-2.12-4.15a1.13 1.13 0 00-1.42-.52l-2.58 1.06a14.81 14.81 0 00-3.37-2.87l.64-2.72a1.13 1.13 0 00-.75-1.32l-4.43-1.44a1.12 1.12 0 00-1.38.64l-1.08 2.58a14.77 14.77 0 00-4.41.35l-1.48-2.37a1.11 1.11 0 00-1.47-.41l-4.14 2.12a1.12 1.12 0 00-.53 1.42l1.06 2.59a15.065 15.065 0 00-2.87 3.37L7.81 55a1.13 1.13 0 00-1.32.75l-1.44 4.43a1.13 1.13 0 00.64 1.38l2.58 1.08a14.77 14.77 0 00.35 4.41l-2.37 1.48A1.12 1.12 0 005.84 70L8 74.13a1.12 1.12 0 001.42.53L12 73.6a15.06 15.06 0 003.37 2.87l-.64 2.72a1.13 1.13 0 00.75 1.32l4.4 1.49a1.13 1.13 0 001.38-.64l1.08-2.58a14.77 14.77 0 004.41-.35l1.48 2.37a1.12 1.12 0 001.46.41L33.84 79a1.13 1.13 0 00.52-1.42L33.3 75a14.807 14.807 0 002.87-3.37l2.72.64a1.13 1.13 0 001.32-.72z" stroke="currentColor" stroke-width="2" stroke-linecap="round" stroke-linejoin="round"/></svg>