<svg viewBox="0 0 96 96" fill="none" xmlns="http://www.w3.org/2000/svg"><path d="M31.27 59a20 20 0 0127.36-27.95m8.94 12.81a20 20 0 01-23.7 23.71" stroke="currentColor" stroke-width="2" stroke-linecap="round" stroke-linejoin="round"/><path d="M48 61c7.18 0 13-5.82 13-13s-5.82-13-13-13-13 5.82-13 13 5.82 13 13 13z" stroke="currentColor" stroke-width="2" stroke-linecap="round" stroke-linejoin="round"/><path d="M81 52.16v-8.32a2 2 0 00-1.83-2l-5-.42a26.88 26.88 0 00-3-7.31l3.23-3.81a2 2 0 00-.11-2.7l-5.89-5.89a2 2 0 00-2.7-.11l-3.81 3.23a26.883 26.883 0 00-7.31-3l-.42-5a2 2 0 00-2-1.83h-8.32a2 2 0 00-2 1.83l-.42 5a26.884 26.884 0 00-7.31 3L30.3 21.6a2 2 0 00-2.7.11l-5.89 5.89a2 2 0 00-.11 2.7l3.23 3.81a26.884 26.884 0 00-3 7.31l-5 .42a2 2 0 00-1.83 2v8.32a2 2 0 001.83 2l5 .42a26.883 26.883 0 003 7.31L21.6 65.7a2 2 0 00.11 2.7l5.89 5.89a2 2 0 002.7.11l3.81-3.23a26.88 26.88 0 007.31 3l.42 5a2 2 0 002 1.83h8.32a2 2 0 002-1.83l.42-5a26.88 26.88 0 007.31-3l3.81 3.23a2 2 0 002.7-.11l5.89-5.89a2 2 0 00.11-2.7l-3.23-3.81a26.88 26.88 0 003-7.31l5-.42a2 2 0 001.83-2z" stroke="currentColor" stroke-width="2" stroke-linecap="round" stroke-linejoin="round"/></svg>