<svg width="96" height="96" viewBox="0 0 96 96" fill="none" xmlns="http://www.w3.org/2000/svg">
<path d="M38 60H22M30 50V69V50Z" stroke="#00008F" stroke-width="2" stroke-linecap="round" stroke-linejoin="round"/>
<path d="M30 50C38.8366 50 46 42.8366 46 34C46 25.1634 38.8366 18 30 18C21.1634 18 14 25.1634 14 34C14 42.8366 21.1634 50 30 50Z" stroke="#00008F" stroke-width="2" stroke-linecap="round" stroke-linejoin="round"/>
<path d="M57 36L66 27L75 36" stroke="#00008F" stroke-width="2" stroke-linecap="round" stroke-linejoin="round"/>
<path d="M66 78C74.8366 78 82 70.8366 82 62C82 53.1634 74.8366 46 66 46C57.1634 46 50 53.1634 50 62C50 70.8366 57.1634 78 66 78Z" stroke="#00008F" stroke-width="2" stroke-linecap="round" stroke-linejoin="round"/>
<path d="M66 46V27" stroke="#00008F" stroke-width="2" stroke-linecap="round" stroke-linejoin="round"/>
</svg>
