<svg viewBox="0 0 96 96" fill="none" stroke="currentColor" xmlns="http://www.w3.org/2000/svg"><path d="M56.44 48.37L44.526 58.682m18.504-7.164l-7.797 6.947M43.812 15.263L31.897 25.575M50.4 18.411l-7.797 6.947" stroke-width="2" stroke-miterlimit="10" stroke-linecap="round"/><path d="M24.843 85.5a1 1 0 102 0h-2zm44.614 0a1 1 0 102 0h-2zm.46-10.274H26.383v2h43.534v-2zm-43.534 0c.12 0 .226.044.305.117.09.083.155.211.155.352h-2c0 .95.801 1.531 1.54 1.531v-2zm.46-62.919a.464.464 0 01-.46.47v-2c-.924 0-1.54.762-1.54 1.53h2zm-.46.47h43.534v-2H26.383v2zm43.534 0a.445.445 0 01-.305-.118.485.485 0 01-.155-.352h2c0-.95-.801-1.53-1.54-1.53v2zm-.44 62.719a.238.238 0 01.066-.124.518.518 0 01.374-.146v2c.479 0 .847-.236 1.076-.477.227-.24.38-.544.444-.854l-1.96-.4zm-44.634.2V85.5h2v-9.805h-2zm44.614 0V85.5h2v-9.805h-2zM26.843 28.8V12.307h-2V28.8h2zm42.614-16.493V28.8h2V12.307h-2zM25.843 29.8h44.614v-2H25.843v2zm1 15.8V28.8h-2v16.8h2zm42.614-16.8v16.8h2V28.8h-2zM25.843 46.6h44.614v-2H25.843v2zm1 29.095V61.8h-2v13.895h2zm0-13.895V45.6h-2v16.2h2zm42.614-16.2v16.2h2V45.6h-2zm0 16.2v13.895h2V61.8h-2zm-43.614 1h44.614v-2H25.843v2z" fill="currentColor"/></svg>