<svg viewBox="0 0 96 96" fill="none" xmlns="http://www.w3.org/2000/svg"><path d="M48 15v66-66zm33 33H15h66zm-3.66-15H18.6h58.74zm.06 30H18.6h58.8zM48 15a41.52 41.52 0 00-16 33 41.52 41.52 0 0016 33 41.52 41.52 0 0016-33 41.52 41.52 0 00-16-33v0z" stroke="currentColor" stroke-width="2" stroke-linecap="round" stroke-linejoin="round"/><path d="M48 81c18.225 0 33-14.775 33-33S66.225 15 48 15 15 29.775 15 48s14.775 33 33 33z" stroke="currentColor" stroke-width="2" stroke-linecap="round" stroke-linejoin="round"/></svg>