<svg viewBox="0 0 96 96" fill="none" xmlns="http://www.w3.org/2000/svg"><path d="M34.82 14.61l.03 65.98m35.97-63.66l-.19-.27c-.11-.15-.23-.29-.35-.43l-.3-.29-.3-.24-.34-.24c-.11-.06-.2-.13-.31-.18a4.006 4.006 0 00-.67-.3l-.33-.1a3.911 3.911 0 00-.49-.13l-.36-.07c-.22 0-.43 0-.65-.05H29.64c-2.75 0-5 1.86-5 4.13v58.56a3.47 3.47 0 00.51 1.78c.245.402.556.76.92 1.06l.11.09c.2.158.41.302.63.43h.06c.263.142.537.263.82.36h.05c.27.092.548.163.83.21h.12c.33.058.665.088 1 .09h36.69c2.75 0 5-1.86 5-4.13v-58.5a3.48 3.48 0 00-.56-1.78v0z" stroke="currentColor" stroke-width="2" stroke-linecap="round" stroke-linejoin="round"/><path d="M47.48 41.263l-.102-.363h-4.404l-.104.362-.736 2.558h-.876l3.175-9.77h1.514l3.194 9.77h-.933l-.727-2.557zm-.9-.863h.664l-.184-.638-.38-1.32h0l-.003-.013a36.403 36.403 0 01-.503-1.736c-.052-.195-.102-.39-.152-.584-.106-.406-.21-.809-.32-1.21l-.1-.369h-.826l-.1.371c-.16.604-.31 1.207-.46 1.806l-.001.002a29.277 29.277 0 01-.492 1.72h0l-.002.006-.4 1.32-.195.645h3.454zm16.2-5.74h-4.22v-.62h6.1v.502l-5.129 7.875-.503.773H64.7v.62h-6.62v-.502l5.12-7.876.501-.772h-.921zm-10.72 5.31h2.92v.38h-2.92v-.38z" stroke="currentColor"/></svg>