<svg viewBox="0 0 96 96" fill="none" xmlns="http://www.w3.org/2000/svg"><path d="M28.62 64.46h34.52m-32.66 5.31h30.79-30.79zm-8.49 8.49a8.49 8.49 0 100-16.98 8.49 8.49 0 000 16.98z" stroke="currentColor" stroke-width="2" stroke-linecap="round" stroke-linejoin="round"/><path d="M21.99 72.96a3.19 3.19 0 100-6.38 3.19 3.19 0 000 6.38zm47.78 5.3a8.49 8.49 0 100-16.98 8.49 8.49 0 000 16.98z" stroke="currentColor" stroke-width="2" stroke-linecap="round" stroke-linejoin="round"/><path d="M69.77 72.96a3.19 3.19 0 100-6.38 3.19 3.19 0 000 6.38zm8.49-3.19h10.09A2.66 2.66 0 0091 67.11a2.65 2.65 0 00-2.65-2.65h-12m-62.86 5.31H7.65A2.66 2.66 0 015 67.11a2.65 2.65 0 012.65-2.65h7.71m73.52 0V50.65l-5.69-18.49a12.9 12.9 0 00-12.34-9.11H57v41.41" stroke="currentColor" stroke-width="2" stroke-linecap="round" stroke-linejoin="round"/><path d="M7.12 64.46V23.05a5.31 5.31 0 015.31-5.31h39.29A5.3 5.3 0 0157 23.05m31.88 29.73h-3.19A3.181 3.181 0 0082.51 56a3.18 3.18 0 003.18 3.19h3.19m-2.29-13.84h-17a5.1 5.1 0 01-5.09-5.1v-8.71a2.119 2.119 0 012.12-2.12H82l4.59 15.93z" stroke="currentColor" stroke-width="2" stroke-linecap="round" stroke-linejoin="round"/></svg>