<svg viewBox="0 0 96 96" fill="none" xmlns="http://www.w3.org/2000/svg"><path d="M7 38l39.39-17.29a4 4 0 013.22 0L89 38 49.61 55.29a4 4 0 01-3.22 0L7 38z" stroke="currentColor" stroke-width="2" stroke-linecap="round" stroke-linejoin="round"/><path d="M22.09 45L20 59.65A2.91 2.91 0 0021.07 62a41.32 41.32 0 0053.86 0A2.91 2.91 0 0076 59.65L73.91 45" stroke="currentColor" stroke-width="2" stroke-linecap="round" stroke-linejoin="round"/><path d="M21 55c3.19 2.84 11.66 11 27 11s23.8-8.16 27-11" stroke="currentColor" stroke-width="2" stroke-linecap="round" stroke-linejoin="round"/><path d="M48 38l-20 9v22m0 0l-3 11a4.24 4.24 0 006 0l-3-11z" stroke="currentColor" stroke-width="2" stroke-linecap="round" stroke-linejoin="round"/></svg>