<svg viewBox="0 0 96 96" fill="none" xmlns="http://www.w3.org/2000/svg"><path d="M16 40.83a2.531 2.531 0 011-2.08l27.69-21a3.78 3.78 0 014.54 0l27.69 21a2.52 2.52 0 011 2.08 2.62 2.62 0 01-4.2 2.09L47.54 23.05a.94.94 0 00-1.13 0L20.18 42.92A2.62 2.62 0 0116 40.83v0z" stroke="currentColor" stroke-width="2" stroke-linecap="round" stroke-linejoin="round"/><path d="M75.15 43.46V79v-.01H18.79V43.45" stroke="currentColor" stroke-width="2" stroke-linecap="round" stroke-linejoin="round"/><path d="M41.68 62.35s10-9.84-7.65-13.08c0 0-4.43 13.75 7.27 12.87m11.6-3.01S42 52 58.78 40.11c0 0 10.73 17.22-5.56 19l-.32.02z" stroke="currentColor" stroke-width="2" stroke-miterlimit="10"/><path d="M47 68.24a38 38 0 006.72-11 40.061 40.061 0 001.84-6m-8.56 17a30.72 30.72 0 01-6.28-7.37 32.092 32.092 0 01-2.17-4.21M47 68.24v4.27M33 78.9s13.63-14.39 28 0" stroke="currentColor" stroke-width="2" stroke-linecap="round" stroke-linejoin="round"/></svg>