<svg viewBox="0 0 96 96" fill="none" xmlns="http://www.w3.org/2000/svg"><path d="M20 57V23m54 0v19.92V23zm2.5-5h-59a2.5 2.5 0 000 5h59a2.5 2.5 0 000-5zM27 51l13-12 5.49 5L60 30m-2 32H17.5a2.5 2.5 0 010-5h38.65L58 62zM47 18v-4 4zm0 64V62v20zm-22 0l21-20-21 20zm44 0L48 62l21 20z" stroke="currentColor" stroke-width="2" stroke-linecap="round" stroke-linejoin="round"/><path d="M53 30h7v7m9 31c7.18 0 13-5.82 13-13s-5.82-13-13-13-13 5.82-13 13 5.82 13 13 13z" stroke="currentColor" stroke-width="2" stroke-linecap="round" stroke-linejoin="round"/><path d="M73 49.56A4.841 4.841 0 0069.54 48C66.48 48 64 51.13 64 55s2.48 7 5.54 7A4.84 4.84 0 0073 60.44M62 53h7-7zm0 4h7-7z" stroke="currentColor" stroke-width="2" stroke-linecap="round" stroke-linejoin="round"/></svg>