<svg width="96" height="96" viewBox="0 0 96 96" fill="none" xmlns="http://www.w3.org/2000/svg">
<path d="M21 57V23M75 23V57V23Z" stroke="#00008F" stroke-width="2" stroke-linecap="round" stroke-linejoin="round"/>
<path d="M77.5 18H18.5C17.1193 18 16 19.1193 16 20.5C16 21.8807 17.1193 23 18.5 23H77.5C78.8807 23 80 21.8807 80 20.5C80 19.1193 78.8807 18 77.5 18Z" stroke="#00008F" stroke-width="2" stroke-linecap="round" stroke-linejoin="round"/>
<path d="M77.5 57H18.5C17.1193 57 16 58.1193 16 59.5C16 60.8807 17.1193 62 18.5 62H77.5C78.8807 62 80 60.8807 80 59.5C80 58.1193 78.8807 57 77.5 57Z" stroke="#00008F" stroke-width="2" stroke-linecap="round" stroke-linejoin="round"/>
<path d="M29 50L45.65 38.19L52.47 43.52L67 32.15M48 18V14V18ZM48 82V62V82ZM26 82L47 62L26 82ZM70 82L49 62L70 82Z" stroke="#00008F" stroke-width="2" stroke-linecap="round" stroke-linejoin="round"/>
<path d="M60.46 31L67 32.15L65.89 38.78" stroke="#00008F" stroke-width="2" stroke-linecap="round" stroke-linejoin="round"/>
</svg>
