<svg viewBox="0 0 96 96" fill="none" xmlns="http://www.w3.org/2000/svg"><path d="M21 57V23m54 0v19.92V23zm2.5-5h-59a2.5 2.5 0 000 5h59a2.5 2.5 0 000-5zM28 51l13-12 5.49 5L61 30m-2 32H18.5a2.5 2.5 0 010-5h38.65L59 62zM48 18v-4 4zm0 64V62v20zm-22 0l21-20-21 20zm44 0L49 62l21 20z" stroke="currentColor" stroke-width="2" stroke-linecap="round" stroke-linejoin="round"/><path d="M54 30h7v7m9 31c7.18 0 13-5.82 13-13s-5.82-13-13-13-13 5.82-13 13 5.82 13 13 13z" stroke="currentColor" stroke-width="2" stroke-linecap="round" stroke-linejoin="round"/><path d="M66.07 59.38A3.84 3.84 0 0070 62c2.21 0 4-1.41 4-3.15a2 2 0 00-.18-.8 3.19 3.19 0 00-1.2-1.33L70 55l-2.62-1.72a3.19 3.19 0 01-1.2-1.28 2 2 0 01-.18-.8c0-1.79 1.79-3.2 4-3.2a3.83 3.83 0 013.93 2.63M70 46v18-18z" stroke="currentColor" stroke-width="2" stroke-linecap="round" stroke-linejoin="round"/></svg>