<svg viewBox="0 0 96 96" fill="none" xmlns="http://www.w3.org/2000/svg"><path d="M21 57V23m54 0v19.92V23zm2.5-5h-59a2.5 2.5 0 000 5h59a2.5 2.5 0 000-5zM28 51l13-12 5.49 5L61 30m-2 32H18.5a2.5 2.5 0 010-5h38.65L59 62zM48 18v-4 4zm0 64V62v20zm-22 0l21-20-21 20zm44 0L49 62l21 20z" stroke="currentColor" stroke-width="2" stroke-linecap="round" stroke-linejoin="round"/><path d="M54 30h7v7m9 31c7.18 0 13-5.82 13-13s-5.82-13-13-13-13 5.82-13 13 5.82 13 13 13z" stroke="currentColor" stroke-width="2" stroke-linecap="round" stroke-linejoin="round"/><path d="M65 60h10m-5-6v10-10zm-5-6l5 6 5-6H65zm0 7h10-10z" stroke="currentColor" stroke-width="2" stroke-linecap="round" stroke-linejoin="round"/></svg>