<svg viewBox="0 0 96 96" fill="none" xmlns="http://www.w3.org/2000/svg"><path d="M21 57V23m54 0v34-34zm2.5-5h-59a2.5 2.5 0 000 5h59a2.5 2.5 0 000-5zm0 39h-59a2.5 2.5 0 000 5h59a2.5 2.5 0 000-5zM29 50l16.65-11.81 6.82 5.33L67 32.15M48 18v-4 4zm0 64V62v20zm-22 0l21-20-21 20zm44 0L49 62l21 20z" stroke="currentColor" stroke-width="2" stroke-linecap="round" stroke-linejoin="round"/><path d="M60.46 31L67 32.15l-1.11 6.63" stroke="currentColor" stroke-width="2" stroke-linecap="round" stroke-linejoin="round"/></svg>