<svg viewBox="0 0 96 96" fill="none" xmlns="http://www.w3.org/2000/svg"><path d="M43.36 61.39l9.32 1.3a8.604 8.604 0 002.21 0h.4a4 4 0 002.78-3.48 4 4 0 00-3.68-4.29l-12.85-1.66a15.28 15.28 0 00-12.28 3.91l-7.78 7.15-.57.43m26.71-19.91a.54.54 0 00.76 0L61.66 31a10.37 10.37 0 00-.2-14A9.372 9.372 0 0048 16.74a9.37 9.37 0 00-13.46.26 10.37 10.37 0 00-.2 14l13.28 13.84z" stroke="currentColor" stroke-width="2" stroke-linecap="round" stroke-linejoin="round"/><path d="M38.61 72.69c.68 0 15.58 2.89 15.58 2.89a6.76 6.76 0 004.81-.87l11.74-7.21 11.55-10.9a2.27 2.27 0 00.23-3.05 4 4 0 00-5.64-.7l-9.55 7.44-12 2.38M38.61 72.69a4.86 4.86 0 00-3.22 1.13l-3.86 3.28 7.08-4.41zM55 26h-8l-3.06 6.11-3.29-12.16L37.3 26H27m-7.06 37.62a2 2 0 00-2.82-.22l-3.42 2.9a2 2 0 00-.22 2.81L25.54 83.3a1.999 1.999 0 002.82.22l3.42-2.9a2 2 0 00.22-2.81L19.94 63.62z" stroke="currentColor" stroke-width="2" stroke-linecap="round" stroke-linejoin="round"/></svg>