<svg viewBox="0 0 96 96" fill="none" xmlns="http://www.w3.org/2000/svg"><path d="M43.36 61.39l9.32 1.3a8.604 8.604 0 002.21 0h.4a4 4 0 002.78-3.48 4 4 0 00-3.68-4.29l-12.85-1.66a15.28 15.28 0 00-12.28 3.91l-7.78 7.15-.57.43M62 23h-8v-8a1 1 0 00-1-1H43a1 1 0 00-1 1v8h-8a1 1 0 00-1 1v10a1 1 0 001 1h8v8a1 1 0 001 1h10a1 1 0 001-1v-8h8a1 1 0 001-1V24a1 1 0 00-1-1z" stroke="currentColor" stroke-width="2" stroke-linecap="round" stroke-linejoin="round"/><path d="M38.61 72.69c.68 0 15.58 2.89 15.58 2.89a6.76 6.76 0 004.81-.87l11.74-7.21 11.55-10.9a2.27 2.27 0 00.23-3.05 4.002 4.002 0 00-5.64-.7l-9.55 7.44-12 2.38M38.61 72.69a4.86 4.86 0 00-3.22 1.13l-3.86 3.28 7.08-4.41zm-18.67-9.07a2 2 0 00-2.82-.22l-3.42 2.9a2 2 0 00-.22 2.81L25.54 83.3a2 2 0 002.82.22l3.42-2.9a2 2 0 00.22-2.81L19.94 63.62z" stroke="currentColor" stroke-width="2" stroke-linecap="round" stroke-linejoin="round"/></svg>