<svg viewBox="0 0 96 96" fill="none" xmlns="http://www.w3.org/2000/svg"><path d="M43.36 61.39l9.32 1.3a8.595 8.595 0 002.21 0h.4a4 4 0 002.78-3.48 4 4 0 00-3.68-4.29l-12.85-1.66a15.281 15.281 0 00-12.28 3.91l-7.78 7.15-.57.43" stroke="currentColor" stroke-width="2" stroke-linecap="round" stroke-linejoin="round"/><path d="M38.61 72.69c.68 0 15.58 2.89 15.58 2.89a6.76 6.76 0 004.81-.87l11.74-7.21 11.55-10.9a2.27 2.27 0 00.23-3.05 4 4 0 00-5.64-.7l-9.55 7.44-12 2.38M38.61 72.69a4.86 4.86 0 00-3.22 1.13l-3.86 3.28 7.08-4.41zM48.72 28.1A23.45 23.45 0 0035.53 45M19.94 63.62a2 2 0 00-2.82-.22l-3.42 2.9a2 2 0 00-.22 2.81L25.54 83.3a2 2 0 002.82.22l3.42-2.9a2 2 0 00.22-2.81L19.94 63.62zm39.7-33.11c-1.07 6.22-5.35 11.41-13.93 11.41A10.55 10.55 0 0135 31.55c0-5.73 4.35-8.84 9.64-11.4C53.21 16 65 16 65 16s-3.21 2.07-5.36 14.51z" stroke="currentColor" stroke-width="2" stroke-linecap="round" stroke-linejoin="round"/></svg>