<svg viewBox="0 0 96 96" fill="none" xmlns="http://www.w3.org/2000/svg"><path d="M61 24l-3-3.5c-1.62-1.92-2.6-2.5-5.39-2.5h-9.22c-2.79 0-3.77.58-5.39 2.5L35 24h26zm-1 19h-7v-7a1 1 0 00-1-1h-8a1 1 0 00-1 1v7h-7a1 1 0 00-1 1v8a1 1 0 001 1h7v7a1 1 0 001 1h8a1 1 0 001-1v-7h7a1 1 0 001-1v-8a1 1 0 00-1-1z" stroke="currentColor" stroke-width="2" stroke-linecap="round" stroke-linejoin="round"/><path d="M75 24H21a5 5 0 00-5 5v38a5 5 0 005 5h54a5 5 0 005-5V29a5 5 0 00-5-5z" stroke="currentColor" stroke-width="2" stroke-linecap="round" stroke-linejoin="round"/><path d="M72 72v5H62v-5M34 24v3a3 3 0 01-3 3h-4a3 3 0 01-3-3v-3h10zm38 0v3a3 3 0 01-3 3h-4a3 3 0 01-3-3v-3h10zM34 72v5H24v-5h10z" stroke="currentColor" stroke-width="2" stroke-linecap="round" stroke-linejoin="round"/></svg>