<svg viewBox="0 0 96 96" fill="none" xmlns="http://www.w3.org/2000/svg"><path d="M25.02 64.53l7.97-7.62m13.01.2a5.12 5.12 0 002.21.42 4.999 4.999 0 002.79-.79 3.5 3.5 0 001.3-2.26 8.45 8.45 0 00.11-1.1v-2.11c-.038-.282 0-.568.11-.83a4.09 4.09 0 01.5-.68l.14-.16c.056-.055.106-.115.15-.18.18-.22.37-.48.58-.79.21-.31.39-.6.56-.89.17-.29.39-.64.57-1a.886.886 0 00.14-.24 7.88 7.88 0 00.46-2.66 7.48 7.48 0 00-.6-3A7.69 7.69 0 0051 36.75a7.63 7.63 0 00-5.93 0 7.651 7.651 0 00-2.42 1.65A7.912 7.912 0 0041 40.84a7.65 7.65 0 00-.59 3L46 57.11zm19.02-30.58l6-6-6 6z" stroke="currentColor" stroke-width="2" stroke-linecap="round" stroke-linejoin="round"/><path d="M44.36 73.32a7.23 7.23 0 004.08 1c1.56 0 4.87-.6 6.43-1.79a7.94 7.94 0 002.94-5.16c.15-.825.233-1.661.25-2.5 0-1 0-2.63-.06-4.78a3.73 3.73 0 01.25-1.9c.23-.42 5.16-6.6 6-9a15.68 15.68 0 001-6A17.26 17.26 0 0064 36.32a17.769 17.769 0 00-3.71-5.55A17.3 17.3 0 0054.76 27a17.38 17.38 0 00-13.48 0 17.23 17.23 0 00-5.51 3.74 18 18 0 00-3.7 5.55 17.251 17.251 0 00-1.36 6.78" stroke="currentColor" stroke-width="2" stroke-linecap="round" stroke-linejoin="round"/></svg>