<svg viewBox="0 0 96 96" fill="none" xmlns="http://www.w3.org/2000/svg"><path d="M35.98 57.19l2.39 2.49M74 51.3a19.76 19.76 0 00-.38-26.69A17.85 17.85 0 0048 24.22a17.85 17.85 0 00-25.6.39A19.76 19.76 0 0022 51.3l25.28 26.39a1 1 0 001.44 0L74 51.3zM37.38 24.49a12.653 12.653 0 00-3.93.2l3.93-.2z" stroke="currentColor" stroke-width="2" stroke-linecap="round" stroke-linejoin="round"/><path d="M29.58 26.2a12.717 12.717 0 00-2.76 2.2 14 14 0 00-.27 18.94l6.23 6.51" stroke="currentColor" stroke-width="2" stroke-linecap="round" stroke-linejoin="round"/></svg>