<svg width="96" height="96" viewBox="0 0 96 96" fill="none" xmlns="http://www.w3.org/2000/svg"><path d="M22.17 16.35H13.3a2.4 2.4 0 00-2.4 2.4v55.18a2.4 2.4 0 002.4 2.4h8.87a2.4 2.4 0 002.4-2.4V18.75a2.4 2.4 0 00-2.4-2.4zM36.08 16.35h-8.87a2.4 2.4 0 00-2.4 2.4v55.18a2.4 2.4 0 002.4 2.4h8.87a2.4 2.4 0 002.4-2.4V18.75a2.4 2.4 0 00-2.4-2.4zM49.99 16.35h-8.87a2.4 2.4 0 00-2.4 2.4v55.18a2.4 2.4 0 002.4 2.4h8.87a2.4 2.4 0 002.4-2.4V18.75a2.4 2.4 0 00-2.4-2.4zM63.9 16.35h-8.87a2.4 2.4 0 00-2.4 2.4v55.18a2.4 2.4 0 002.4 2.4h8.87a2.4 2.4 0 002.4-2.4V18.75a2.4 2.4 0 00-2.4-2.4zM77.8 16.35h-8.87a2.4 2.4 0 00-2.4 2.4v55.18a2.4 2.4 0 002.4 2.4h8.87a2.4 2.4 0 002.4-2.4V18.75a2.4 2.4 0 00-2.4-2.4zM80.3 23.31h4.8v9.56h-4.8v-9.56zM17.74 81.65a2.66 2.66 0 100-5.32 2.66 2.66 0 000 5.32zM73.37 81.65a2.66 2.66 0 100-5.32 2.66 2.66 0 000 5.32z" stroke="#00008F" stroke-width="2" stroke-linecap="round" stroke-linejoin="round"/></svg>