<svg viewBox="0 0 96 96" fill="none" xmlns="http://www.w3.org/2000/svg"><path d="M57 25h-5v-5a1 1 0 00-1-1h-6a1 1 0 00-1 1v5h-5a1 1 0 00-1 1v6a1 1 0 001 1h5v5a1 1 0 001 1h6a1 1 0 001-1v-5h5a1 1 0 001-1v-6a1 1 0 00-1-1z" stroke="currentColor" stroke-width="2" stroke-linecap="round" stroke-linejoin="round"/><path d="M80 83h-7m-8-45h7a2 2 0 012 2v43H22V40a2 2 0 012-2h7V19.05a3 3 0 01.66-1.87l2.44-3A3 3 0 0136.44 13h23.12a3 3 0 012.34 1.13l2.44 3a3 3 0 01.66 1.92V38zM23 83h-7 7z" stroke="currentColor" stroke-width="2" stroke-linecap="round" stroke-linejoin="round"/><path d="M48 70v13m-4-25h8v6h-8v-6zm15 0h8v6h-8v-6zm-30 0h8v6h-8v-6zm15-12h8v6h-8v-6zm15 0h8v6h-8v-6zm-30 0h8v6h-8v-6zm5 37V70h28v13H34z" stroke="currentColor" stroke-width="2" stroke-linecap="round" stroke-linejoin="round"/></svg>