<svg viewBox="0 0 96 96" fill="none" xmlns="http://www.w3.org/2000/svg"><path d="M81.33 67.55H88m-6.67 0V79.1a2 2 0 002 2H86a2 2 0 002-2V67.55m-6.67 0H14.67m73.33 0v-6.78m0 0H14.67m73.33 0c0-6.06-2.39-13.86-10.93-15.06l-30.49-1.33M14.8 38.92c7.51 0 14.84 2.16 18.16 5.59M14.8 49.85H34M11 26.9h.67a3 3 0 013 3v49.2a2 2 0 01-2 2H10a2 2 0 01-2-2V29.9a3 3 0 013-3z" stroke="currentColor" stroke-width="2" stroke-linecap="round" stroke-linejoin="round"/><path d="M26.89 37.27a5.33 5.33 0 1010.65.12 5.3 5.3 0 00-5.27-5.28 5.181 5.181 0 00-5.38 5.11v.05zm25.82 12.56L34 49.85a2.224 2.224 0 01-.46 0 2.78 2.78 0 01-2.24-3.21 2.7 2.7 0 012.82-2.19l12.5-.07 6.09 5.45z" stroke="currentColor" stroke-width="2" stroke-linecap="round" stroke-linejoin="round"/><path d="M46.58 44.38S43.27 40 39.57 40c-3.07 0-5.16 1.85-5.49 4.31" stroke="currentColor" stroke-width="2" stroke-linecap="round" stroke-linejoin="round"/></svg>