<svg viewBox="0 0 96 96" fill="none" xmlns="http://www.w3.org/2000/svg"><path d="M19 41.99V80h58V41.99" stroke="currentColor" stroke-width="2" stroke-linecap="round" stroke-linejoin="round"/><path d="M39 80V51.99h18V80M15 39.38a2.71 2.71 0 011.11-2.23l29.47-22.34a4 4 0 014.84 0l29.47 22.34A2.7 2.7 0 0181 39.38a2.79 2.79 0 01-4.48 2.22L48.6 20.44a1 1 0 00-1.2 0L19.48 41.6A2.79 2.79 0 0115 39.38v0z" stroke="currentColor" stroke-width="2" stroke-linecap="round" stroke-linejoin="round"/><path d="M48 40.99a4 4 0 100-8 4 4 0 000 8zM46 66h-2" stroke="currentColor" stroke-width="2" stroke-linecap="round" stroke-linejoin="round"/></svg>