<svg width="96" height="96" viewBox="0 0 96 96" fill="none" xmlns="http://www.w3.org/2000/svg">
<path d="M19 41.99V80H77V41.99" stroke="#00008F" stroke-width="2" stroke-linecap="round" stroke-linejoin="round"/>
<path d="M39 80V51.99H57V80M15 39.38C14.9932 38.9466 15.0905 38.5179 15.2836 38.1299C15.4767 37.7419 15.7601 37.4058 16.11 37.15L45.58 14.81C46.2759 14.2812 47.1259 13.9949 48 13.9949C48.8741 13.9949 49.724 14.2812 50.42 14.81L79.89 37.15C80.2405 37.4052 80.5243 37.7412 80.7175 38.1293C80.9107 38.5175 81.0076 38.9465 81 39.38C81 39.8998 80.8548 40.4093 80.5807 40.8511C80.3066 41.2928 79.9146 41.6491 79.4488 41.88C78.983 42.1108 78.462 42.2069 77.9445 42.1574C77.427 42.1079 76.9336 41.9149 76.52 41.6L48.6 20.44C48.4269 20.3101 48.2164 20.24 48 20.24C47.7836 20.24 47.5731 20.3101 47.4 20.44L19.48 41.6C19.0664 41.9149 18.573 42.1079 18.0555 42.1574C17.538 42.2069 17.017 42.1108 16.5512 41.88C16.0854 41.6491 15.6934 41.2928 15.4193 40.8511C15.1452 40.4093 15 39.8998 15 39.38V39.38Z" stroke="#00008F" stroke-width="2" stroke-linecap="round" stroke-linejoin="round"/>
<path d="M48 40.99C50.2091 40.99 52 39.1991 52 36.99C52 34.7809 50.2091 32.99 48 32.99C45.7909 32.99 44 34.7809 44 36.99C44 39.1991 45.7909 40.99 48 40.99Z" stroke="#00008F" stroke-width="2" stroke-linecap="round" stroke-linejoin="round"/>
<path d="M46 66H44" stroke="#00008F" stroke-width="2" stroke-linecap="round" stroke-linejoin="round"/>
</svg>
