<svg viewBox="0 0 96 96" fill="none" xmlns="http://www.w3.org/2000/svg"><path d="M29.94 11a11.1 11.1 0 00-11.17 11v52a11.1 11.1 0 0011.17 11h36.12a11.1 11.1 0 0011.17-11V22a11.1 11.1 0 00-11.17-11H29.94zm18.39 60h15.34-15.34zm-13.99 0H43h-8.66zm7.26-28.5a4.08 4.08 0 00-4.08 3.5L37 51a2.151 2.151 0 00.53 1.76 2.21 2.21 0 001.67.74h17.56a2.26 2.26 0 001.68-.76A2.12 2.12 0 0059 51l-.54-5a4.1 4.1 0 00-4.08-3.5H41.6zM48 27.08a5 5 0 100 10 5 5 0 000-10v0z" stroke="currentColor" stroke-width="2" stroke-miterlimit="10" stroke-linecap="round"/></svg>