<svg viewBox="0 0 96 96" fill="none" xmlns="http://www.w3.org/2000/svg"><path d="M18.2 39.94A16.5 16.5 0 0151 42.5V67m-33 0v-7 7z" stroke="currentColor" stroke-width="2" stroke-linecap="round" stroke-linejoin="round"/><path d="M34 26h33.5A16.5 16.5 0 0184 42.5V72H51m-8 9v-9m16 0v9m-3-60v10m0-10h10v-6H56v6z" stroke="currentColor" stroke-width="2" stroke-linecap="round" stroke-linejoin="round"/><path d="M12 43l15 11 15-11M12.65 59.35l9.16-9.16m19.55 9.17l-9.17-9.17" stroke="currentColor" stroke-width="2" stroke-linecap="round" stroke-linejoin="round"/><path d="M40 40H14a2 2 0 00-2 2v16a2 2 0 002 2h26a2 2 0 002-2V42a2 2 0 00-2-2zm11.5 27h-34a2.5 2.5 0 000 5h34a2.5 2.5 0 000-5z" stroke="currentColor" stroke-width="2" stroke-linecap="round" stroke-linejoin="round"/></svg>