<svg viewBox="0 0 96 96" fill="none" xmlns="http://www.w3.org/2000/svg"><path d="M77.32 43.47h-8.99l1.53-25.93h5.93l1.53 25.93zM69.64 22.9h6.37-6.37zm0 3.55h6.37-6.37zm-50.49-7.71a1.58 1.58 0 001.09.45h13.93A1.47 1.47 0 0034 20a1.55 1.55 0 001.54 1.54h19.19a1.55 1.55 0 000-3.09h-14c.133-.235.205-.5.21-.77a1.55 1.55 0 00-1.54-1.54H20.24a1.54 1.54 0 00-1.56 1.52 1.58 1.58 0 00.47 1.12v-.04zm58.17 36.31v19.67c0 2.84-1.91 5.16-4.25 5.16H23c-2.34 0-4.25-2.32-4.25-5.16V55.05h58.57z" stroke="currentColor" stroke-width="2" stroke-linecap="round" stroke-linejoin="round"/><path d="M57.23 68.96h10.6v10.92h-10.6V68.96zm-25.92 4.05a3.36 3.36 0 100-6.72 3.36 3.36 0 000 6.72zm13.31 0a3.36 3.36 0 100-6.72 3.36 3.36 0 000 6.72zM18.7 43.47h58.62v11.58H18.7V43.47z" stroke="currentColor" stroke-width="2" stroke-linecap="round" stroke-linejoin="round"/></svg>