<svg viewBox="0 0 96 96" fill="none" xmlns="http://www.w3.org/2000/svg"><path d="M50.63 25.61a2 2 0 00.31-1.08v-1.08a2.05 2.05 0 001.18-1.86v-8.53A2.07 2.07 0 0050.06 11h-4.12a2.07 2.07 0 00-2.06 2.06v8.53a2.05 2.05 0 001.18 1.86v1.08a2 2 0 00.31 1.08c-9.16.29-16.2 2.33-16.2 10.27V80.5c0 2.48 3.18 4.5 7.06 4.5h23.54c3.88 0 7.06-2 7.06-4.5V35.88c0-7.94-7.04-9.98-16.2-10.27v0z" stroke="currentColor" stroke-width="2" stroke-linecap="round" stroke-linejoin="round"/><path d="M46.54 73.41C44.78 72.23 43 69.88 43 65.17a16.14 16.14 0 013.61-10.32s-.28 9.45 2.27 10.32c2.36.59 1.18-5.88 1.18-5.88a7.51 7.51 0 014.12 6.47c-.09 2.78-.59 5.29-2.94 7.65 6.47 0 10-8.85 10-16.48 0 0-2.35 4.71-3.53 3.53-1.18-1.18 1.18-3.53 1.18-7.06a12.35 12.35 0 00-3.34-8.08c1 5.41-4.9 9.26-4.9 9.26s2.95-11.18-4.38-17.06c1.45 9.41-3.65 9.45-4.58 15a9.16 9.16 0 01-2.84-6.25c-5.84 6.56 1.81 19.5-.55 18.32-1.17-.59-2.3-1.77-3.53-4.13-.55 10 9.42 12.95 11.77 12.95" stroke="currentColor" stroke-width="2" stroke-linecap="round" stroke-linejoin="round"/></svg>