<svg viewBox="0 0 96 96" fill="none" xmlns="http://www.w3.org/2000/svg"><path d="M41.71 22.51h12.3M41.71 9.54h12.3-12.3zm-6.25 19.31a1.26 1.26 0 01-1.23-1.23v-3.88a1.26 1.26 0 011.23-1.23h6.25v-13h-1.14a2.25 2.25 0 01-2.27-2.24A2.3 2.3 0 0140.57 5h14.57a2.27 2.27 0 010 4.54H54v13h6.53a1.26 1.26 0 011.23 1.23v3.88a1.26 1.26 0 01-1.23 1.23l-25.07-.03zm22.71 0v31.4a6.43 6.43 0 01-5.11 6.29c-1.656.23-3.33.31-5 .24a30.514 30.514 0 01-5.36-.37 6.15 6.15 0 01-4.86-6.16v-31.4h20.33z" stroke="currentColor" stroke-width="2" stroke-linejoin="round"/><path d="M49.47 78.64h-2.98M37.83 54h11.64c.75 0 1.32.5 1.32 2s-.66 2-1.32 2H37.83v-4zm0-8.94h11.64c.75 0 1.32.5 1.32 2s-.66 2-1.32 2H37.83v-4zm0-8.98h11.64c.75 0 1.32.5 1.32 2s-.66 2-1.32 2H37.83v-4zm4.97 30.46l.09 5.46a.64.64 0 00.66.66h1V78a.65.65 0 00.67.66h1.23v11.2A1.088 1.088 0 0047.62 91h.72a1.09 1.09 0 001.13-1.14V78.64h1.23a.68.68 0 00.47-.19.73.73 0 00.19-.47v-5.3h1A.65.65 0 0053 72v-5.44l-10.2-.02zm8.56 6.14h-6.77 6.77z" stroke="currentColor" stroke-width="2" stroke-linejoin="round"/></svg>