<svg viewBox="0 0 96 96" fill="none" xmlns="http://www.w3.org/2000/svg"><path d="M48 14c-9.23 0-10.39 0-14 .2-12.36.57-19.23 7.42-19.79 19.8C14 37.61 14 38.77 14 48s0 10.39.2 14c.57 12.37 7.42 19.23 19.8 19.8 3.63.16 4.79.2 14 .2s10.39 0 14-.2c12.36-.57 19.23-7.42 19.79-19.8.17-3.63.21-4.79.21-14s0-10.39-.2-14c-.56-12.35-7.42-19.23-19.8-19.79C58.39 14 57.23 14 48 14zm18.15 11.77a4.08 4.08 0 100 8.16 4.08 4.08 0 000-8.16v0z" stroke="currentColor" stroke-width="2" stroke-linecap="round" stroke-linejoin="round"/><path d="M48 32a16 16 0 100 32 16 16 0 000-32v0z" stroke="currentColor" stroke-width="2" stroke-linecap="round" stroke-linejoin="round"/><path d="M48 38a10 10 0 100 20 10 10 0 000-20v0z" stroke="currentColor" stroke-width="2" stroke-linecap="round" stroke-linejoin="round"/></svg>