<svg viewBox="0 0 96 96" fill="none" xmlns="http://www.w3.org/2000/svg"><path d="M78.07 11H17.93a4.15 4.15 0 00-4.15 4.15v41.4a4.15 4.15 0 004.15 4.15h60.14a4.15 4.15 0 004.15-4.15v-41.4A4.15 4.15 0 0078.07 11zM64.56 80.58H90.5 64.56zm-59.06 0h25.94H5.5zM44.69 60.7h6.62v14.36h-6.62V60.7zm17.32 14.36H33.99a2.55 2.55 0 00-2.55 2.55v4.84A2.55 2.55 0 0033.99 85h28.02a2.55 2.55 0 002.55-2.55v-4.84a2.55 2.55 0 00-2.55-2.55z" stroke="currentColor" stroke-width="2" stroke-linecap="round" stroke-linejoin="round"/><path d="M13.78 49.66h68.44-68.44zm15.45-22.09h37.53v7.73H29.23v-7.73z" stroke="currentColor" stroke-width="2" stroke-linecap="round" stroke-linejoin="round"/><path d="M29.23 27.57h15.71v7.73H29.23v-7.73z" stroke="currentColor" stroke-width="2" stroke-miterlimit="10"/></svg>