<svg width="96" height="96" viewBox="0 0 96 96" fill="none" xmlns="http://www.w3.org/2000/svg">
<path d="M78.07 11H17.93C15.638 11 13.78 12.858 13.78 15.15V56.55C13.78 58.842 15.638 60.7 17.93 60.7H78.07C80.362 60.7 82.22 58.842 82.22 56.55V15.15C82.22 12.858 80.362 11 78.07 11Z" stroke="#00008F" stroke-width="2" stroke-linecap="round" stroke-linejoin="round"/>
<path d="M64.56 80.58H90.5H64.56ZM5.5 80.58H31.44H5.5ZM44.69 60.7H51.31V75.0599H44.69V60.7Z" stroke="#00008F" stroke-width="2" stroke-linecap="round" stroke-linejoin="round"/>
<path d="M62.01 75.0601H33.99C32.5817 75.0601 31.44 76.2017 31.44 77.6101V82.4501C31.44 83.8584 32.5817 85.0001 33.99 85.0001H62.01C63.4183 85.0001 64.56 83.8584 64.56 82.4501V77.6101C64.56 76.2017 63.4183 75.0601 62.01 75.0601Z" stroke="#00008F" stroke-width="2" stroke-linecap="round" stroke-linejoin="round"/>
<path d="M13.78 49.6601H82.22H13.78ZM29.23 27.5701H66.76V35.3001H29.23V27.5701Z" stroke="#00008F" stroke-width="2" stroke-linecap="round" stroke-linejoin="round"/>
<path d="M29.23 27.5701H44.94V35.3001H29.23V27.5701Z" stroke="#00008F" stroke-width="2" stroke-miterlimit="10"/>
</svg>
