<svg viewBox="0 0 96 96" fill="none" xmlns="http://www.w3.org/2000/svg"><path d="M46.946 24.795a4.14 4.14 0 10-8.28-.098 4.14 4.14 0 008.28.098z" stroke="currentColor" stroke-width="2" stroke-linecap="round" stroke-linejoin="round"/><path d="M31.05 66.4l6.96-19.26m-9.35-3.72l-4.8 6.32L27.11 59l-4.33 2.83 3 7.05L20 72.6l4.72 9.4 7.59-3.86L43.21 48a17.58 17.58 0 10-14.55-4.56v-.02z" stroke="currentColor" stroke-width="2" stroke-linecap="round" stroke-linejoin="round"/><path d="M43.69 47.91a17.756 17.756 0 004.53 1.68A18.49 18.49 0 0051 50l.37 7.88 8.42 5-1.49 4.92 6.77 3.5-2 6.49L72.66 82 76 74.18l-10.94-30a17.5 17.5 0 00-15.79-29m18.26 50.84l-6.99-19.15" stroke="currentColor" stroke-width="2" stroke-linecap="round" stroke-linejoin="round"/></svg>