<svg viewBox="0 0 96 96" fill="none" xmlns="http://www.w3.org/2000/svg"><path d="M11.81 59.73V17.45a5 5 0 015-5h56.86a6 6 0 016 6v6.36M8.44 59.73h55a.86.86 0 01.86.86v4.55a.86.86 0 01-.86.86H3.89a.86.86 0 01-.89-.86 5.41 5.41 0 015.41-5.41h.03z" stroke="currentColor" stroke-width="2" stroke-linecap="round" stroke-linejoin="round"/><path d="M64.32 53.59H18.8a.86.86 0 01-.86-.86V19.51a.87.87 0 01.86-.87h53.85a.87.87 0 01.86.87v5.84" stroke="currentColor" stroke-width="2" stroke-linecap="round" stroke-linejoin="round"/><path d="M85.51 25.35H67.78a3.46 3.46 0 00-3.46 3.46V66a3.46 3.46 0 003.46 3.46h17.73A3.46 3.46 0 0088.97 66V28.81a3.46 3.46 0 00-3.46-3.46zm3.46 37.62H64.32h24.65zm0-31.41H64.32h24.65zM77.94 66.21h-2.59 2.59zm-.65-37.24H76h1.29zM47.27 15.62h-2.6 2.6zM7 81.26c0-4 2.28-8.26 7.25-8.26h21.4a.87.87 0 01.87.86v14.79a.87.87 0 01-.87.87H14.22C9.25 89.52 7 85.26 7 81.26z" stroke="currentColor" stroke-width="2" stroke-linecap="round" stroke-linejoin="round"/><path d="M30.52 83.98h-16.3m22.27.02H72a.86.86 0 01.39.09l4.89 2.43a.87.87 0 00.77 0l6.46-3.19a.86.86 0 00.48-.78V80a.88.88 0 00-.48-.78L78 76a.87.87 0 00-.77 0l-4.81 2.43a.89.89 0 01-.39.09H36.49V84zm-5.97-5.46h-16.3 16.3z" stroke="currentColor" stroke-width="2" stroke-linecap="round" stroke-linejoin="round"/></svg>