<svg viewBox="0 0 96 96" fill="none" xmlns="http://www.w3.org/2000/svg"><path d="M21 77h26.7a6 6 0 016 6H15a6 6 0 016-6v0zm2.1-6.05h22.5a2 2 0 012 2v4H21.1v-4a2 2 0 012-2v0zm37.78-36.28l-15.49-17.1L24.21 36.5 39.7 53.6l21.18-18.93z" stroke="currentColor" stroke-width="2" stroke-linecap="round" stroke-linejoin="round"/><path d="M55.43 54.34l4.54-4.05m20.26 22.42l-27.67-30.6-4.54 4 27.67 30.6A3.052 3.052 0 0080 77a2.998 2.998 0 00.23-4.29zM40 54L23.87 36.13A2.55 2.55 0 0020.3 36a2.5 2.5 0 00-.21 3.54l16.16 17.81a2.54 2.54 0 003.58.17A2.5 2.5 0 0040 54v0zm25-22.33L48.84 13.82a2.56 2.56 0 00-4.174.61 2.491 2.491 0 00.394 2.76L61.22 35a2.53 2.53 0 003.57.17 2.49 2.49 0 00.21-3.5v0z" stroke="currentColor" stroke-width="2" stroke-linecap="round" stroke-linejoin="round"/></svg>