<svg viewBox="0 0 96 96" fill="none" xmlns="http://www.w3.org/2000/svg"><path d="M48 24.5a5.84 5.84 0 100-11.68 5.84 5.84 0 000 11.68zM18.85 43.81l9.74-20.7 8.52 20.7m35.06 34.68H53a6.43 6.43 0 00-2.61-10V26.92A2.42 2.42 0 0048 24.51a2.41 2.41 0 00-2.41 2.41v41.57a6.428 6.428 0 00-2.61 10H23.83a2.42 2.42 0 000 4.83h48.34a2.422 2.422 0 002.576-2.415 2.419 2.419 0 00-2.576-2.415v0zM23.03 24.11l18.55-4.05-18.55 4.05zm31.4-6.85l18.8-4.44-18.8 4.44z" stroke="currentColor" stroke-width="2" stroke-linecap="round" stroke-linejoin="round"/><path d="M58.85 34.99l9.74-20.69 8.52 20.69M38.93 45A11 11 0 1117 45h21.93zm40-8.79a11.001 11.001 0 01-19.077 8.413 11.001 11.001 0 01-2.833-8.413h21.91z" stroke="currentColor" stroke-width="2" stroke-linecap="round" stroke-linejoin="round"/></svg>