<svg width="48" height="48" viewBox="0 0 48 48" fill="none" xmlns="http://www.w3.org/2000/svg">
    <path d="M7 21.2916H10.4167" stroke="currentColor" stroke-miterlimit="10" stroke-linecap="round"/>
    <path d="M8.79175 29.7916L12.7084 27.2916" stroke="currentColor" stroke-miterlimit="10" stroke-linecap="round"/>
    <path d="M10.5042 11.0043L12.9197 13.4199" stroke="currentColor" stroke-miterlimit="10" stroke-linecap="round"/>
    <path d="M23.7917 5V8.41667" stroke="currentColor" stroke-miterlimit="10" stroke-linecap="round"/>
    <path d="M37.0792 11.5043L34.6636 13.9199" stroke="currentColor" stroke-miterlimit="10" stroke-linecap="round"/>
    <path d="M41.0834 21.2916H37.6667" stroke="currentColor" stroke-miterlimit="10" stroke-linecap="round"/>
    <path d="M37.7917 29.7916L34.7917 27.2916" stroke="currentColor" stroke-miterlimit="10" stroke-linecap="round"/>
    <path d="M34.0417 21.2916C34.0417 15.6311 29.4523 11.0416 23.7917 11.0416C18.1312 11.0416 13.5417 15.6311 13.5417 21.2916C13.5417 25.7529 16.3964 29.5369 20.3751 30.9454V35.8125H27.2084V30.9454C31.1871 29.5369 34.0417 25.7529 34.0417 21.2916Z" stroke="currentColor" stroke-miterlimit="10" stroke-linecap="square"/>
    <path d="M20.375 38.0834H27.2083" stroke="currentColor" stroke-miterlimit="10" stroke-linecap="round"/>
    <path d="M20.375 40.0834H27.2083" stroke="currentColor" stroke-miterlimit="10" stroke-linecap="round"/>
    <path d="M21 42H26.5" stroke="currentColor" stroke-miterlimit="10" stroke-linecap="round"/>
    <path d="M22.5 44H25" stroke="currentColor" stroke-miterlimit="10" stroke-linecap="round"/>
    <path d="M15.7917 21.2916C15.8751 19.2083 17.7501 14.75 21.0001 13.75" stroke="currentColor" stroke-miterlimit="10" stroke-linecap="round"/>
    <path d="M22.5 13.0417C23 12.875 23.75 12.75 24.5417 13.0416" stroke="currentColor" stroke-miterlimit="10" stroke-linecap="round"/>
</svg>
