<svg width="96" height="96" viewBox="0 0 96 96" fill="none" xmlns="http://www.w3.org/2000/svg"><mask id="a"><path d="M24.84 22.43a1 1 0 00.59.19 1 1 0 00.59-1.8l-6.5-4.75a1.002 1.002 0 10-1.18 1.62l6.5 4.74zm-2.13 11.82a1 1 0 00-1-1h-7.38a1 1 0 100 2h7.38a1 1 0 001-1zm2.82 11.9l-7.18 5.05a1 1 0 00.58 1.8.92.92 0 00.57-.18l7.18-5a1 1 0 00.24-1.4 1 1 0 00-1.39-.27zM71 22.62a1 1 0 00.59-.19l6.5-4.74a1.002 1.002 0 10-1.18-1.62l-6.5 4.75a1 1 0 00.59 1.8zm11.1 10.63h-7.38a1 1 0 100 2h7.38a1 1 0 000-2zm-11.2 12.9a1 1 0 00-1.562.99 1 1 0 00.412.65l7.17 5a1 1 0 00.58.18 1 1 0 00.57-1.81l-7.17-5.01zM56.23 67.91H40.31a1 1 0 100 2h15.92a1 1 0 000-2zm0 4H40.31a1 1 0 100 2h15.92a1 1 0 000-2zm0 4H40.31a1 1 0 100 2h15.92a1 1 0 000-2zm-3 4h-9.92a1 1 0 100 2h9.92a1 1 0 000-2zM69.71 34.7a21.72 21.72 0 10-34.82 18c1.52 1.15 2.42 4.75 2.4 9.62a3 3 0 003 3.06h15.16a3.002 3.002 0 003-3.1c-.09-4.93.83-8.47 2.46-9.46 5.67-3.38 9.03-10.34 8.8-18.12zm-9.8 16.46c-3 1.8-3.5 7.09-3.43 11.21a1.05 1.05 0 01-.633.98c-.126.054-.26.08-.397.08H40.32a1 1 0 01-.73-.31 1 1 0 01-.3-.74c0-4-.53-9.2-3.2-11.23a19.59 19.59 0 01-7.81-15.72 19.84 19.84 0 0119.24-19.72H48a19.72 19.72 0 0119.71 19c.21 7.12-2.78 13.4-7.8 16.45z"/></mask><path d="M24.84 22.43a1 1 0 00.59.19 1 1 0 00.59-1.8l-6.5-4.75a1.002 1.002 0 10-1.18 1.62l6.5 4.74zm-2.13 11.82a1 1 0 00-1-1h-7.38a1 1 0 100 2h7.38a1 1 0 001-1zm2.82 11.9l-7.18 5.05a1 1 0 00.58 1.8.92.92 0 00.57-.18l7.18-5a1 1 0 00.24-1.4 1 1 0 00-1.39-.27zM71 22.62a1 1 0 00.59-.19l6.5-4.74a1.002 1.002 0 10-1.18-1.62l-6.5 4.75a1 1 0 00.59 1.8zm11.1 10.63h-7.38a1 1 0 100 2h7.38a1 1 0 000-2zm-11.2 12.9a1 1 0 00-1.562.99 1 1 0 00.412.65l7.17 5a1 1 0 00.58.18 1 1 0 00.57-1.81l-7.17-5.01zM56.23 67.91H40.31a1 1 0 100 2h15.92a1 1 0 000-2zm0 4H40.31a1 1 0 100 2h15.92a1 1 0 000-2zm0 4H40.31a1 1 0 100 2h15.92a1 1 0 000-2zm-3 4h-9.92a1 1 0 100 2h9.92a1 1 0 000-2zM69.71 34.7a21.72 21.72 0 10-34.82 18c1.52 1.15 2.42 4.75 2.4 9.62a3 3 0 003 3.06h15.16a3.002 3.002 0 003-3.1c-.09-4.93.83-8.47 2.46-9.46 5.67-3.38 9.03-10.34 8.8-18.12zm-9.8 16.46c-3 1.8-3.5 7.09-3.43 11.21a1.05 1.05 0 01-.633.98c-.126.054-.26.08-.397.08H40.32a1 1 0 01-.73-.31 1 1 0 01-.3-.74c0-4-.53-9.2-3.2-11.23a19.59 19.59 0 01-7.81-15.72 19.84 19.84 0 0119.24-19.72H48a19.72 19.72 0 0119.71 19c.21 7.12-2.78 13.4-7.8 16.45z" stroke="#00008F" stroke-width="2" mask="url(#a)"/><path d="M42.148 20.048h0l.004-.002a.5.5 0 01.63.33h0l.002.006a.5.5 0 01-.33.63h-.002c-5.01 1.555-7.525 4.955-8.776 8.007-1.245 3.037-1.246 5.74-1.246 5.98a.5.5 0 01-1 0h0c0-.04 0-2.96 1.343-6.282 1.343-3.315 4.015-7.01 9.375-8.67zm3.532-.772l.037-.004.036-.01a8.499 8.499 0 013.537-.212v.05l.402.08a.5.5 0 11-.255.965l-.034-.011-.036-.006a7.64 7.64 0 00-3.358.158.44.44 0 01-.089-.003l-.06-.007-.06.008a.508.508 0 01-.12-1.008z" stroke="#00008F"/></svg>