<svg viewBox="0 0 48 48" fill="none" xmlns="http://www.w3.org/2000/svg"><path d="M7 21.292h3.417M8.792 29.792l3.916-2.5M10.504 11.004l2.416 2.416M23.792 5v3.417M37.08 11.504l-2.416 2.416M41.083 21.292h-3.416M37.792 29.792l-3-2.5" stroke="currentColor" stroke-miterlimit="10" stroke-linecap="round"/><path d="M34.042 21.292c0-5.66-4.59-10.25-10.25-10.25s-10.25 4.59-10.25 10.25c0 4.46 2.854 8.245 6.833 9.653v4.867h6.833v-4.867c3.98-1.408 6.834-5.192 6.834-9.653z" stroke="currentColor" stroke-miterlimit="10" stroke-linecap="square"/><path d="M20.375 38.083h6.833M20.375 40.083h6.833M21 42h5.5M22.5 44H25M15.792 21.292c.083-2.084 1.958-6.542 5.208-7.542M22.5 13.042c.5-.167 1.25-.292 2.042 0" stroke="currentColor" stroke-miterlimit="10" stroke-linecap="round"/></svg>