<svg viewBox="0 0 48 48" fill="none" xmlns="http://www.w3.org/2000/svg"><path d="M6.894 19.754v22.748H10m31.605-22.748v22.748H38" stroke="currentColor" stroke-linecap="round" stroke-linejoin="round"/><path d="M4.5 18.192a1.622 1.622 0 01.665-1.334l17.637-13.37a2.394 2.394 0 012.896 0l17.637 13.37A1.615 1.615 0 0144 18.192a1.67 1.67 0 01-2.681 1.329L24.609 6.857a.598.598 0 00-.718 0L7.18 19.521a1.67 1.67 0 01-2.68-1.329zM23.053 34.124h-1.197" stroke="currentColor" stroke-linecap="round" stroke-linejoin="round"/><circle cx="24" cy="15" r="2.5" stroke="currentColor"/><path d="M31.381 33.83c-.384.795-.83 1.327-1.99 1.327h-1.327v1.318c0 1.348.845 2.65 2.32 2.65 1.476 0 2.321-1.302 2.321-2.65v-1.648a1.446 1.446 0 01-1.324-.997z" stroke="currentColor" stroke-linecap="round" stroke-linejoin="round"/><path d="M32.431 37.772a3.406 3.406 0 001.6-2.945v-.333a3.398 3.398 0 00-3.313-3.314h-.664a3.397 3.397 0 00-3.314 3.314v.333a3.398 3.398 0 001.6 2.945m.388.7v1.326l-1.616.321a2.678 2.678 0 00-2.362 2.582v.952a.828.828 0 00.702.798l2.312.416c1.733.313 3.508.313 5.241 0l2.312-.416a.83.83 0 00.705-.798v-.952a2.678 2.678 0 00-2.362-2.582l-1.615-.321a1.657 1.657 0 11-3.314 0m3.31-1.327v1.327m-4.97 3.647v1.297m6.63-1.297v1.297" stroke="currentColor" stroke-linecap="round" stroke-linejoin="round"/><path d="M24.087 31.843c1.72 0 2.654-1.434 2.654-2.975v-2.66a1.785 1.785 0 01-1.66-.996c-.444.913-.97 1.657-2.32 1.657h-1.325v1.99c0 1.55.931 2.984 2.65 2.984z" stroke="currentColor" stroke-miterlimit="10"/><path d="M26.74 29.523s1.658-.664 1.658-2.975v-.673c0-.993 0-2.32-1.327-2.32-.62-1.032-1.327-1.657-2.984-1.657h-.33a4.031 4.031 0 00-3.978 3.977v.664c0 2.32 1.657 2.975 1.657 2.975m.664 2.992V30.94m0 1.567l-1.223.134m1.223-.134l1.419 2.38a.66.66 0 001.136 0l1.422-2.38m0-1.597v1.597m0 0l1.202.131m-5.165 5.72c1.685.191 3.388.138 5.058-.157l1.226-.217m-6.284.375a1.995 1.995 0 01-.83-1.544V33.5a.913.913 0 00-.407-.86m1.238 5.718c.053.04.108.079.166.113-.425.848-1.39 1.288-2.029 1.487m.625-7.318a1.119 1.119 0 00-.595-.134c-.538-.937-1.327-1.326-2.642-1.326h-.333a3.322 3.322 0 00-3.314 3.314v2.32c0 1.086-.994 1.657-.994 1.657.423.848 1.387 1.288 2.03 1.487" stroke="currentColor" stroke-miterlimit="10"/><path d="M19.297 38.47v1.328l1.616.321a2.677 2.677 0 012.362 2.582v.952a.827.827 0 01-.702.797l-2.312.417a14.775 14.775 0 01-5.241 0l-2.312-.417a.83.83 0 01-.708-.797v-.952a2.677 2.677 0 012.362-2.582l1.618-.321m4.974 3.647v1.297" stroke="currentColor" stroke-linecap="round" stroke-linejoin="round"/><path d="M15.061 39.98l.595 1.487c.705 1.487 3.273 1.487 3.978 0l.595-1.488m-4.245-1.508v1.327m-1.66 3.647v1.297m3.98-10.248h-1.66a1.75 1.75 0 00-1.324.663v1.318c0 1.327.842 2.65 2.32 2.65 1.479 0 2.32-1.323 2.32-2.65V33.83a2.538 2.538 0 01-1.656.664z" stroke="currentColor" stroke-linecap="round" stroke-linejoin="round"/></svg>