<svg viewBox="0 0 48 48" fill="none" xmlns="http://www.w3.org/2000/svg"><path d="M15.5 38.5l-13 3L7 26l2-.5m6.5 13l15 4m-15-4L18 24m12.5 18.5L44 39l-3.5-9.5m-10 13L29 26m-14.5-1.5L18 24m0 0l11 2m0 0l3-.5" stroke="currentColor"/><path d="M19.999 14.117c0-1.126-.246-2.24-.72-3.27a8.138 8.138 0 00-2.04-2.716 8.593 8.593 0 00-3.012-1.701 8.875 8.875 0 00-3.474-.399c-5.005.402-8.5 5.001-7.616 9.727.16.85.469 1.667.916 2.417l7.012 10.611c.048.066.112.12.187.157a.544.544 0 00.672-.157l7.012-10.61A7.786 7.786 0 0020 14.115zM45.999 18.117c0-1.126-.246-2.24-.72-3.27a8.139 8.139 0 00-2.04-2.716 8.595 8.595 0 00-3.011-1.701 8.876 8.876 0 00-3.475-.399c-5.005.402-8.5 5.001-7.616 9.727.16.85.469 1.667.916 2.417l7.012 10.611c.048.066.112.12.187.157a.544.544 0 00.672-.157l7.012-10.61A7.786 7.786 0 0046 18.115z" stroke="currentColor" stroke-linecap="round" stroke-linejoin="round"/><path d="M11.5 17a3.5 3.5 0 100-7 3.5 3.5 0 000 7zM37.5 21a3.5 3.5 0 100-7 3.5 3.5 0 000 7z" stroke="currentColor" stroke-linecap="round" stroke-linejoin="round"/></svg>