<svg viewBox="0 0 96 96" fill="none" xmlns="http://www.w3.org/2000/svg"><path d="M41 65c13.807 0 25-11.193 25-25S54.807 15 41 15 16 26.193 16 40s11.193 25 25 25z" stroke="currentColor" stroke-width="2" stroke-linecap="round" stroke-linejoin="round"/><path d="M41 59c10.493 0 19-8.507 19-19s-8.507-19-19-19-19 8.507-19 19 8.507 19 19 19zm-6-19l6-6m13.78 27l16.6 17.25a5 5 0 007.26.31 5.5 5.5 0 00-.3-7.55L61.81 53.86 54.78 61zM35 48l14-14-14 14z" stroke="currentColor" stroke-width="2" stroke-linecap="round" stroke-linejoin="round"/></svg>