<svg viewBox="0 0 96 96" fill="none" xmlns="http://www.w3.org/2000/svg"><path d="M24.09 27.51l25.84 14.03 6.31-3.26 16.66 9.14" stroke="currentColor" stroke-width="2" stroke-linecap="round" stroke-linejoin="round"/><path d="M64.86 47.42h8.04v-4.57m5.26-21.92v37.5m-59.64 0v-37.5M30.45 31v20.11c0 .48-.7.88-1.55.88h-2.14c-.85 0-1.55-.4-1.55-.88v-23L30.45 31zm9.74 5.26v14.85c0 .48-.7.88-1.55.88H36.5c-.86 0-1.55-.4-1.55-.88v-17a.69.69 0 01.33-.55l4.91 2.7zm9.74 5.28v9.57c0 .48-.7.88-1.55.88h-2.14c-.86 0-1.55-.4-1.55-.88V38.82a.492.492 0 010-.12l5.24 2.84zm6.12 1.08h2a1.63 1.63 0 011.63 1.63v6.11A1.62 1.62 0 0158 52h-2a1.63 1.63 0 01-1.63-1.63v-6.12a1.629 1.629 0 011.68-1.63zm25.14-27.21H15.5a2.5 2.5 0 00-2.5 2.5v.51a2.5 2.5 0 002.5 2.5h65.69a2.5 2.5 0 002.5-2.5v-.51a2.5 2.5 0 00-2.5-2.5zM72.64 86L49.45 63.94m-1.11-48.53V11v4.41zm0 70.59V63.94 86zm-24.3 0l23.2-22.06L24.04 86z" stroke="currentColor" stroke-width="2" stroke-linecap="round" stroke-linejoin="round"/><path d="M81.23 58.43H15.76A2.758 2.758 0 0013 61.185a2.757 2.757 0 002.76 2.755h65.47a2.757 2.757 0 002.76-2.755 2.758 2.758 0 00-2.76-2.755z" stroke="currentColor" stroke-width="2" stroke-linecap="round" stroke-linejoin="round"/></svg>