<svg viewBox="0 0 96 96" fill="none" xmlns="http://www.w3.org/2000/svg"><path d="M39.71 31.84c-2.68 0-5.25-2.13-6.28-4.63-1.68 3.62-3.71 6.49-8.8 6.49h-5.09v7.42c0 6.15 3.71 11.13 10.18 11.13s10.18-5 10.18-11.13v-9.28h-.19z" stroke="currentColor" stroke-width="2" stroke-linecap="round" stroke-linejoin="round"/><path d="M39.9 42.05a10.93 10.93 0 004.63-9.28v-5.56a3.72 3.72 0 00-3.7-3.72A13.27 13.27 0 0029.22 17h-1.09a13.22 13.22 0 00-13.21 13.24v2.28c0 3.58 1.85 7.67 4.62 9.53m3.71 8.35v4.64M36.2 50.4v4.64m-13.2.07l-7.79 1.16A12 12 0 004.74 68.05v4.33A3.76 3.76 0 007.86 76l10.24 1.9a63.543 63.543 0 0023.25 0l5.74-1.72M48.69 58a11.319 11.319 0 00-4.45-1.69l-7.79-1.16L48.69 58z" stroke="currentColor" stroke-width="2" stroke-linecap="round" stroke-linejoin="round"/><path d="M29.72 60.49l6.48-5.45 2.78.93-1.85 8.34-7.41-3.82zm0 0l-7.4 3.82-1.85-8.34 2.78-.93 6.47 5.45zm-3.7 1.97l1.85 3.71m0 0l-1.85 12.06m1.85-12.06h3.7m1.85-3.71l-1.85 3.71m0 0l1.85 12.06m-18.5-5.71v4.79m56.91-45.47H63.5a10.23 10.23 0 00-6.5 2.78v6.5c0 6.15 3.7 11.13 10.18 11.13 6.48 0 10.18-5 10.18-11.13V29.06s-2.76 2.78-5.53 2.78z" stroke="currentColor" stroke-width="2" stroke-linecap="round" stroke-linejoin="round"/><path d="M51.47 30.24A13.218 13.218 0 0164.68 17h2a13.292 13.292 0 0111.61 6.49 4.36 4.36 0 014.62 4.64v16.63a7.349 7.349 0 003.7 6.48 8.13 8.13 0 01-5.93 4.38l-1.47.25m-18.49-5.84v5.01m12.96-5.01v5.01m0 .07l7.5 1.16a11.9 11.9 0 0110.08 11.78v4.33a3.72 3.72 0 01-3 3.65l-9.87 1.9a58.908 58.908 0 01-22.38 0L46.14 76a3.72 3.72 0 01-3-3.65v-4.3a11.9 11.9 0 0110.08-11.78l7.5-1.16" stroke="currentColor" stroke-width="2" stroke-linecap="round" stroke-linejoin="round"/><path d="M57 55.87l2.66 5.59a8.32 8.32 0 0015 0l2.66-5.59m-24 16.65v4.79m27.76-4.79v4.79M55.17 55.87l-1.47-.25a8.141 8.141 0 01-5.93-4.38 7.35 7.35 0 003.7-6.48V30" stroke="currentColor" stroke-width="2" stroke-linecap="round" stroke-linejoin="round"/></svg>