<svg viewBox="0 0 96 96" fill="none" xmlns="http://www.w3.org/2000/svg"><path d="M41 53v-4.75m14 .17V53m-14.27.18l-8.42 1.25A13 13 0 0021 67.16v6.69a4 4 0 003.37 3.94l11.07 2a68.428 68.428 0 0025.12 0l11.07-2A4 4 0 0075 73.85v-6.69a13 13 0 00-11.31-12.73l-8.42-1.25M29 55.36V78m5-23.82V79m33-23.64V78m-5-23.82V79m-6-62l6.08 2.13A6.47 6.47 0 0166 25v5c0 4-5 6-5 6V24l-2.49-1A4 4 0 0156 19.29V17zm0 0c-1.84-1.26-5.57-2-8-2-2.43 0-6.15.74-8 2m0 0l-6.08 2.13A6.47 6.47 0 0030 25v5c0 4 5 6 5 6V24l2.49-1A4 4 0 0040 19.29V17zm-5 19.07c0 6.64 4 13.93 13 14 9 .07 13-7.39 13-14M48 59v22" stroke="currentColor" stroke-width="2" stroke-linecap="round" stroke-linejoin="round"/><path d="M38 54.11l2 9.02L48 59l-7-5.9m14 0L48 59l8 4.13 2-9.02-3-1.01z" stroke="currentColor" stroke-width="2" stroke-linecap="round" stroke-linejoin="round"/></svg>