<svg viewBox="0 0 96 96" fill="none" xmlns="http://www.w3.org/2000/svg"><path d="M36 75.61l3.8-23.36L36 75.61zm24.05 6.18L58 55l2.05 26.79zM66 31a17.998 17.998 0 00-19.58-17.93c-10.6.89-18 11.09-16.13 21.57A16.854 16.854 0 0032.23 40l14.85 23.53a1.11 1.11 0 001.82 0L63.75 40A17.9 17.9 0 0066 31v0z" stroke="currentColor" stroke-width="2" stroke-linecap="round" stroke-linejoin="round"/><path d="M48 39a8 8 0 100-16 8 8 0 000 16zm-8.76 12.13l-16.11 2.8a1.81 1.81 0 00-1.41 1.15L14 80.37l20.83-4.51a5.051 5.051 0 012.32 0l21.61 5.72a5 5 0 002.48 0L82 76.4 74 51l-16 4-3.33-.61" stroke="currentColor" stroke-width="2" stroke-linecap="round" stroke-linejoin="round"/></svg>