<svg viewBox="0 0 96 96" fill="none" xmlns="http://www.w3.org/2000/svg"><path d="M42.79 42.45a10.4 10.4 0 01-6.68-10.11c0-3.18 1.63-6.13 3.23-8.57a.56.56 0 01.48-.27.63.63 0 01.53.25c.27.36.52.75.76 1.14a8.76 8.76 0 002.67 2.95 14.52 14.52 0 015.46-13.75.69.69 0 01.64 0 .59.59 0 01.34.54c-.06 4.67 2 7.22 4 9.66 1.8 2.19 3.65 4.45 3.65 8.08a10.58 10.58 0 01-6.69 10" stroke="currentColor" stroke-width="2" stroke-linecap="round" stroke-linejoin="round"/><path d="M47.3 34h-.6a3.48 3.48 0 00-3.54 3.41V41h7.68v-3.58A3.478 3.478 0 0047.3 34v0z" stroke="currentColor" stroke-width="2" stroke-linecap="round" stroke-linejoin="round"/><path d="M43.16 40.98h7.69V80h-7.69V40.98z" stroke="currentColor" stroke-width="2" stroke-linecap="round" stroke-linejoin="round"/></svg>