<svg viewBox="0 0 96 96" fill="none" xmlns="http://www.w3.org/2000/svg"><path d="M48 84.58c15.464 0 28-12.536 28-28s-12.536-28-28-28-28 12.536-28 28 12.536 28 28 28z" stroke="currentColor" stroke-width="2" stroke-linecap="round" stroke-linejoin="round"/><path d="M48 78.58c12.15 0 22-9.85 22-22s-9.85-22-22-22-22 9.85-22 22 9.85 22 22 22z" stroke="currentColor" stroke-width="2" stroke-linecap="round" stroke-linejoin="round"/><path d="M60.57 31.55L69 13M48 44l3.59 6.96L59 52.4l-5.18 5.75.98 7.85-6.8-3.41L41.2 66l.98-7.85L37 52.4l7.41-1.44L48 44zm12.57-31l-7.75 16a28 28 0 0113.86 6.72L77.49 13H60.57zm-41.9 0l10.06 23.27A28 28 0 0143.44 29l-7.02-16H18.67zM27 13l8.43 18.55L27 13z" stroke="currentColor" stroke-width="2" stroke-linecap="round" stroke-linejoin="round"/></svg>