<svg viewBox="0 0 96 96" fill="none" xmlns="http://www.w3.org/2000/svg"><path d="M38.77 70l1.91-1.35a2.32 2.32 0 013.25.54l7.24 10.14a2.34 2.34 0 01-.54 3.26l-1.91 1.31m13.82-42.08H55.2v-7.34a.92.92 0 00-.91-.92h-9.17a.921.921 0 00-.92.92v7.34h-7.34a.91.91 0 00-.91.91v9.17a.92.92 0 00.91.92h7.34v7.34a.92.92 0 00.92.91h9.17a.91.91 0 00.91-.91v-7.34h7.34a.92.92 0 00.92-.92v-9.17a.92.92 0 00-.92-.91v0zM15.26 37l1.9-1.36a2.34 2.34 0 013.26.54l7.23 10.14a2.34 2.34 0 01-.54 3.26l-1.9 1.36L15.26 37z" stroke="currentColor" stroke-width="2" stroke-linecap="round" stroke-linejoin="round"/><path d="M16.46 30a36.14 36.14 0 0130.26-19h.75a36.18 36.18 0 0137.75 34.43v.74A36.17 36.17 0 0157.24 83M38.79 70a8 8 0 00-3 6A24.85 24.85 0 0118.5 51.81a7.998 7.998 0 006.69-.89L15.27 37a8 8 0 00-2.94 5.16A32.66 32.66 0 0042.88 85a8 8 0 005.83-1.11L38.79 70z" stroke="currentColor" stroke-width="2" stroke-linecap="round" stroke-linejoin="round"/></svg>