<svg viewBox="0 0 96 96" fill="none" xmlns="http://www.w3.org/2000/svg"><path d="M40.83 74.46c2.92 2.8 7.5 4 11.43 4a15.81 15.81 0 008.21-2.08c7.67-4.29 11.53-11.61 13.2-15.6a14.47 14.47 0 001.07-5.49V50a6.82 6.82 0 002.32-5.84l-.25-2.59a5.995 5.995 0 010-1.47l1.09-6.74a3.16 3.16 0 00-2.58-3.59c-.12-6.15-1.15-9.64-2-11.44H49.11" stroke="currentColor" stroke-width="2" stroke-linecap="round" stroke-linejoin="round"/><path d="M17.49 16.41a1.51 1.51 0 00-1.49 1.5v48.48a1.55 1.55 0 00.71 1.26s9.73 8.27 20.29 8.27a5.139 5.139 0 004.22-1.81A5.93 5.93 0 0042.76 70v-5.25a.63.63 0 01.52-.63 1.49 1.49 0 001.15-1 1.47 1.47 0 00-.54-1.65l-4.22-3.07a.77.77 0 01-.29-.89.8.8 0 01.77-.56H46a1.5 1.5 0 001.51-1.5v-1.52l.29-.21 5.2-2.93a2.37 2.37 0 00.79-3.14l-4.64-8.49V17.91a1.51 1.51 0 00-1.51-1.5H17.49z" stroke="currentColor" stroke-width="2" stroke-linecap="round" stroke-linejoin="round"/><path d="M48 62.07c.06 0 6.64 3.16 12.86 0" stroke="currentColor" stroke-width="2" stroke-miterlimit="10" stroke-linecap="round"/><path d="M37.33 39.9a3.37 3.37 0 003.38-3.36c0-1.856-1.513-3.36-3.38-3.36s-3.38 1.504-3.38 3.36a3.37 3.37 0 003.38 3.36zm23.58 0a3.37 3.37 0 003.38-3.36c0-1.856-1.513-3.36-3.38-3.36s-3.38 1.504-3.38 3.36a3.37 3.37 0 003.38 3.36z" stroke="currentColor" stroke-width="2" stroke-linecap="round" stroke-linejoin="round"/></svg>