<svg viewBox="0 0 96 96" fill="none" xmlns="http://www.w3.org/2000/svg"><path d="M67.6 48.98H28.4a6.54 6.54 0 00-6.54 6.54v17.69a6.54 6.54 0 006.54 6.54h39.2a6.54 6.54 0 006.54-6.54V55.52a6.54 6.54 0 00-6.54-6.54zm-7.9 7.45v15.88M47.9 16.25v11.14-11.14zm0 11.14a7.81 7.81 0 11-7.81 7.81l7.81-7.81zm2.11 15.33l6.26 6.26-6.26-6.26zm-10.28 6.26l6.22-6.22-6.22 6.22zm-3.43 7.45v15.88-15.88zm11.7 0v15.88-15.88z" stroke="currentColor" stroke-width="2" stroke-linecap="round" stroke-linejoin="round"/></svg>