<svg viewBox="0 0 96 96" fill="none" xmlns="http://www.w3.org/2000/svg"><path d="M54.16 31.99H15a2 2 0 00-2 2v28.02a2 2 0 002 2h39.16a2 2 0 002-2V33.99a2 2 0 00-2-2zm30.71-4.95h-14.7a1 1 0 00-1 1v18a1 1 0 001 1h14.7a1 1 0 001-1v-18a1 1 0 00-1-1z" stroke="currentColor" stroke-width="2" stroke-miterlimit="10"/><path d="M73.61 37.33h0-.5m.5 0h-.5m.5 0h0m0 0l-.354.354m-.146-.354a.5.5 0 00.146.354m-.146-.354h.5m0 0l-.354.354m.354-.354l-.354.354m.354-.354h1.921m-1.921 0l1.93.5-.01-.5h.001m-1.921 0v-1h1.921a.01.01 0 01.006.003.01.01 0 01.003.006v.983m-1.93.008l1.93-.008m-.009.008a.01.01 0 00.006-.003.01.01 0 00.003-.005m-.009.008l.009-.008M73.61 31.5h1.93v.95h-1.93v-.95zm5.94 0h1.93v.95h-1.93v-.95zm0 4.83h1.93v1h-1.93v-1zm-5.94 5.01h1.921a.01.01 0 01.006.003.01.01 0 01.003.005v.983a.01.01 0 01-.003.006.01.01 0 01-.006.003H73.61v-1zm5.94 0h1.93v1h-1.93v-1z" stroke="currentColor"/><path d="M78.52 59.96a4 4 0 100-8 4 4 0 000 8z" stroke="currentColor" stroke-width="2" stroke-linejoin="round"/><path d="M85.73 65.19H71.31a.25.25 0 00-.25.25v3.42c0 .138.112.25.25.25h14.42a.25.25 0 00.25-.25v-3.42a.25.25 0 00-.25-.25z" stroke="currentColor" stroke-width="2" stroke-miterlimit="10"/><path d="M89 22.08H7a2 2 0 00-2 2v47.89a2 2 0 002 2h82a2 2 0 002-2V24.08a2 2 0 00-2-2zm-24.94.03v51.88" stroke="currentColor" stroke-width="2" stroke-miterlimit="10"/><path d="M72.99 75.92h7.25m-67.47 0h7.25-7.25z" stroke="currentColor" stroke-width="2" stroke-miterlimit="10" stroke-linecap="round"/></svg>