<svg viewBox="0 0 96 96" fill="none" xmlns="http://www.w3.org/2000/svg"><path d="M19.527 59.365a4.443 4.443 0 01-4.443-4.432 4.237 4.237 0 01.33-1.677l5.666-14.212.113-.35c.102-.274.205-.572.308-.894.34-.967.648-1.902.936-2.766l.154-.453c.525-1.604.874-2.797 1.029-3.486C26.396 19.433 39.035 9.9 51.982 9.9a29.462 29.462 0 0129.504 29.422c0 8.443-4.946 18.583-11.723 24.496l3.507 19.539A2.233 2.233 0 0171.069 86H41.966a2.243 2.243 0 01-2.057-1.317l-3.147-7.003h-2.818a12.978 12.978 0 01-12.998-12.957v-5.358h-1.42z" stroke="currentColor" stroke-width="1.882" stroke-linecap="round" stroke-linejoin="round"/><path d="M63.032 33.505a3.815 3.815 0 100-7.63 3.815 3.815 0 000 7.63z" stroke="currentColor" stroke-width="2" stroke-linecap="round" stroke-linejoin="round"/><path d="M72.721 30.9v-2.42a.585.585 0 00-.537-.582l-1.461-.125a7.964 7.964 0 00-.888-2.144l.944-1.118a.59.59 0 00-.032-.808l-1.728-1.728a.59.59 0 00-.807-.032l-1.119.945a7.963 7.963 0 00-2.131-.868l-.126-1.461a.586.586 0 00-.593-.558h-2.422a.586.586 0 00-.582.537l-.137 1.482a7.985 7.985 0 00-2.144.888l-1.118-.945a.59.59 0 00-.808.033l-1.727 1.728a.589.589 0 00-.033.807l.945 1.118a7.961 7.961 0 00-.856 2.112l-1.461.125a.585.585 0 00-.558.594v2.42a.586.586 0 00.537.581l1.462.125a7.96 7.96 0 00.888 2.144l-.945 1.119a.59.59 0 00.033.807l1.727 1.728a.59.59 0 00.808.032l1.118-.944c.668.399 1.39.698 2.144.888l.125 1.461a.586.586 0 00.582.537h2.422a.585.585 0 00.581-.537l.126-1.461a7.962 7.962 0 002.143-.889l1.119.945a.59.59 0 00.807-.032l1.728-1.728a.59.59 0 00.032-.807l-.944-1.119c.399-.667.698-1.39.888-2.144l1.461-.125a.585.585 0 00.537-.581v0zm-31.312 9.662a2.94 2.94 0 100-5.878 2.94 2.94 0 000 5.878z" stroke="currentColor" stroke-width="2" stroke-linecap="round" stroke-linejoin="round"/><path d="M48.216 40.812l.581-1.789a.452.452 0 00-.262-.557l-1.042-.436a5.966 5.966 0 00-.141-1.78l.957-.598a.448.448 0 00.165-.59l-.856-1.675a.457.457 0 00-.573-.21l-1.041.428a5.98 5.98 0 00-1.361-1.159l.258-1.098a.456.456 0 00-.302-.533l-1.789-.581a.453.453 0 00-.557.258l-.436 1.042a5.965 5.965 0 00-1.78.141l-.598-.957a.448.448 0 00-.593-.165l-1.672.856a.452.452 0 00-.214.573l.428 1.046a6.082 6.082 0 00-1.159 1.36l-1.094-.258a.456.456 0 00-.533.303l-.581 1.788a.457.457 0 00.258.557l1.042.437a5.965 5.965 0 00.141 1.78l-.957.597a.452.452 0 00-.165.594l.872 1.667a.453.453 0 00.573.214l1.042-.428c.394.451.852.842 1.36 1.159l-.258 1.098a.456.456 0 00.303.533l1.776.602a.456.456 0 00.557-.259l.436-1.041a5.965 5.965 0 001.78-.142l.598.957a.452.452 0 00.59.166l1.675-.893a.456.456 0 00.21-.573l-.428-1.041a5.977 5.977 0 001.159-1.361l1.098.258a.456.456 0 00.533-.29z" stroke="currentColor" stroke-width="2" stroke-linecap="round" stroke-linejoin="round"/></svg>