<svg width="96" height="96" viewBox="0 0 96 96" fill="none" xmlns="http://www.w3.org/2000/svg">
<path d="M20.75 30.4702V66.1602H71.75V30.4702" stroke="#00008F" stroke-width="2" stroke-linecap="round" stroke-linejoin="round"/>
<path d="M11 66.1501H85M29.12 66.1601V40.1501H45.12V66.1601H29.12ZM51.91 40.1401H63.25V51.4801H51.91V40.1401ZM15.87 66.7701V72.1501V66.7701ZM37.04 66.7701V72.1501V66.7701ZM58.21 66.7701V72.1501V66.7701ZM79.37 66.7701V72.1501V66.7701ZM83.12 56.8201V65.9001V56.8201ZM12.87 56.8201V65.9001V56.8201Z" stroke="#00008F" stroke-width="2" stroke-linecap="round" stroke-linejoin="round"/>
<path d="M74.19 23.8501H17.84C16.2881 23.8501 15.03 25.1082 15.03 26.6601C15.03 28.212 16.2881 29.4701 17.84 29.4701H74.19C75.742 29.4701 77 28.212 77 26.6601C77 25.1082 75.742 23.8501 74.19 23.8501Z" stroke="#00008F" stroke-width="2" stroke-linecap="round" stroke-linejoin="round"/>
</svg>
