<svg viewBox="0 0 96 96" fill="none" xmlns="http://www.w3.org/2000/svg"><path d="M22.41 44.55l-.25-.07a13.759 13.759 0 00-3.59-.48 13.59 13.59 0 1012.6 18.61" stroke="currentColor" stroke-width="2" stroke-miterlimit="10"/><path d="M22.51 62.13a6 6 0 11-4-10.53 6 6 0 014 1.5m50.79-8.04a13.337 13.337 0 014.17-.66 13.54 13.54 0 11-8.66 3.14m-39.25 5.37l-6.81-7.39a1.14 1.14 0 01.9-2l10.35.24a8.217 8.217 0 017.64 5.016 8.22 8.22 0 01.65 3.144v.63l-12.73.36zM17.74 34.35h15.5a7.54 7.54 0 017.54 7.54v.9a.58.58 0 01-.58.58H14.59a2.07 2.07 0 01-2.07-2.07v-1.73a5.22 5.22 0 015.22-5.22z" stroke="currentColor" stroke-width="2" stroke-miterlimit="10"/><path d="M78.3 54a3.91 3.91 0 11-4.79 4.21 3.22 3.22 0 01.36-2L65.16 40.8l-11.35 19a.72.72 0 01-.26.23.41.41 0 01-.19.08h-5.28a4.69 4.69 0 01-4.59 3.2l-21-1.2a4.89 4.89 0 01-4.88-4.9c0-2.61 2.19-4.14 4.81-4.14L44 52.5a4.34 4.34 0 014.12 3l2.6.06 11.54-19.65L57.78 28l-5.41.06a1.54 1.54 0 01-1.57-1.54v-.67a1.37 1.37 0 011.37-1.37h9c.07 0 1 1.59 2.49 4a4.3 4.3 0 014.35-4h2.86v8.43H68a4.44 4.44 0 01-2-.49C71.06 41.13 78.3 54 78.3 54z" stroke="currentColor" stroke-width="2" stroke-miterlimit="10"/></svg>