<svg width="96" height="96" viewBox="0 0 96 96" fill="none" xmlns="http://www.w3.org/2000/svg">
<path d="M48 53C50.7614 53 53 50.7614 53 48C53 45.2386 50.7614 43 48 43C45.2386 43 43 45.2386 43 48C43 50.7614 45.2386 53 48 53Z" stroke="#00008F" stroke-width="2" stroke-linecap="round" stroke-linejoin="round"/>
<path d="M30 53C32.7614 53 35 50.7614 35 48C35 45.2386 32.7614 43 30 43C27.2386 43 25 45.2386 25 48C25 50.7614 27.2386 53 30 53Z" stroke="#00008F" stroke-width="2" stroke-linecap="round" stroke-linejoin="round"/>
<path d="M66 53C68.7614 53 71 50.7614 71 48C71 45.2386 68.7614 43 66 43C63.2386 43 61 45.2386 61 48C61 50.7614 63.2386 53 66 53Z" stroke="#00008F" stroke-width="2" stroke-linecap="round" stroke-linejoin="round"/>
</svg>
