<svg viewBox="0 0 96 96" fill="none" xmlns="http://www.w3.org/2000/svg"><path d="M21 75c7.18 0 13-5.82 13-13s-5.82-13-13-13S8 54.82 8 62s5.82 13 13 13z" stroke="currentColor" stroke-width="2" stroke-linecap="round" stroke-linejoin="round"/><path d="M21 69a7 7 0 100-14 7 7 0 000 14zm54 6c7.18 0 13-5.82 13-13s-5.82-13-13-13-13 5.82-13 13 5.82 13 13 13zm7.28-29.47A18 18 0 0075 44a17.77 17.77 0 00-5.86 1" stroke="currentColor" stroke-width="2" stroke-linecap="round" stroke-linejoin="round"/><path d="M75 69a7 7 0 100-14 7 7 0 000 14zm-6-24l6 17M10 36v4s7.37 1.27 11 2c10 2 18 10 18 20v3h18v-3a17.82 17.82 0 0112-17l-5-14c-12 0-17 10-22 10s-11-8-17-8H13a3 3 0 00-3 3z" stroke="currentColor" stroke-width="2" stroke-linecap="round" stroke-linejoin="round"/><path d="M30.75 46.4L21 62h17.92M73 44v-6a3 3 0 00-3-3h-4.58M64 31l-2-6h-6m-6 23h13.68M52 53h7.38" stroke="currentColor" stroke-width="2" stroke-linecap="round" stroke-linejoin="round"/></svg>