<svg viewBox="0 0 96 96" fill="none" xmlns="http://www.w3.org/2000/svg"><path d="M32.83 51.43v29.96M47 27.46a6.43 6.43 0 10-.04-12.86A6.43 6.43 0 0047 27.46zM33.79 51.81a3.271 3.271 0 004.28-2.41l2.1-7.8-3.48 16.84a3.26 3.26 0 003.03 4.46h.36v15.23a3.26 3.26 0 106.51 0V62.9h.78v15.23a3.26 3.26 0 006.52 0V62.9h.35a3.26 3.26 0 003-4.46L53.8 41.6l2.08 7.74a3.25 3.25 0 003.2 2.66 3.21 3.21 0 003.22-4.18l-4.86-16.94a3.25 3.25 0 00-3.2-2.69H39.72a3.25 3.25 0 00-3.2 2.69s-4 13.78-4.86 16.94c-.86 3.16 1.45 3.76 2.13 3.99z" stroke="currentColor" stroke-width="2" stroke-linecap="round" stroke-linejoin="round"/></svg>