<svg viewBox="0 0 96 96" fill="none" xmlns="http://www.w3.org/2000/svg"><path d="M28 30V18a2 2 0 012-2h44a2 2 0 012 2v57a5 5 0 01-5 5H23" stroke="currentColor" stroke-width="2" stroke-linecap="round" stroke-linejoin="round"/><path d="M20 30h8v45a5 5 0 11-10 0V32a2 2 0 012-2v0zm16-6h32-32zm18 6h14-14zm0 6h14-14zm0 6h14-14zM36 30h12v12H36V30zm0 18h32-32zm0 6h32-32zm18 6h14-14zm0 6h14-14zm0 6h14-14zM36 60h12v12H36V60z" stroke="currentColor" stroke-width="2" stroke-linecap="round" stroke-linejoin="round"/></svg>