<svg viewBox="0 0 96 96" fill="none" xmlns="http://www.w3.org/2000/svg"><path d="M61.36 36.79V21.2a2.2 2.2 0 00-2.2-2.2h-45.1a2.19 2.19 0 00-2.2 2.2v61.6a2.19 2.19 0 002.2 2.2h45.1a2.201 2.201 0 002.2-2.2V55.3m-18.39-8.11H19.05h23.92zm7.7-9.62H19.05h31.62zm-7.7 19.24H19.05h23.92zm4.67 9.62H19.05h28.59z" stroke="currentColor" stroke-width="2" stroke-linecap="round" stroke-linejoin="round"/><path d="M79.57 18.44L74.37 29 67 25.32l5.56-11.39c1.26-2.41 3.88-3.57 5.91-2.57 2.03 1 2.7 3.8 1.44 6.2l-.36.88 4.57 2.14-6.2 12.56M64.7 30l7.35 3.63-11.63 23.55-.11.23L53 63l-.08-9.11c.06-.11 0-.2.12-.23L64.7 30z" stroke="currentColor" stroke-width="2" stroke-linecap="round" stroke-linejoin="round"/></svg>