<svg viewBox="0 0 48 48" fill="none" xmlns="http://www.w3.org/2000/svg"><path d="M35.456 37.76h-2.208l-13.184 6.56v-6.528l-7.456-.032V3.904h22.848V37.76z" stroke="currentColor" stroke-miterlimit="10" stroke-linejoin="round"/><path d="M33.472 37.76l-4.928 2.336-8.384 4.032V37.76h-5.536V5.92h18.848v31.84z" stroke="currentColor" stroke-miterlimit="10" stroke-linejoin="round"/><path d="M33.44 37.952l-5.152 2.464-8.192 3.872-.032-31.52L33.472 5.92l-.032 32.032z" stroke="currentColor" stroke-miterlimit="10" stroke-linejoin="round"/><path d="M24.128 27.2c-.576 0-1.024.64-1.024 1.408 0 .768.448 1.408 1.024 1.408.576 0 1.024-.64 1.024-1.408 0-.768-.448-1.408-1.024-1.408z" stroke="currentColor" stroke-miterlimit="10"/><path stroke="currentColor" d="M33.1 5.76V3.84M33.42 24.64v-1.92"/></svg>