<svg viewBox="0 0 96 96" fill="none" xmlns="http://www.w3.org/2000/svg"><path d="M52 55.81a8.26 8.26 0 003.32-3m3.49 28.31a9.9 9.9 0 01-5.51-2 9.87 9.87 0 00-5.4-1.65 9.66 9.66 0 00-5.42 1.67A9.93 9.93 0 0137 81.12c-4.58 0-9.71-4.79-14.07-13.14-3.8-7.27-6.36-16-6.36-21.73 0-10.86 9.25-19.69 20.63-19.69 1.67 0 3.5.69 6.74 2.54a8.24 8.24 0 003.25 1c.83 0 .77-.64.77-.64A14.32 14.32 0 0046.37 22a13.67 13.67 0 00-6.86-6.51.3.3 0 01.12-.58.28.28 0 01.13 0 14.36 14.36 0 017.15 6.79 15 15 0 011.65 7.66.82.82 0 00.79.74 8.79 8.79 0 003-1l1.38-.73A21.002 21.002 0 0157 27a6.89 6.89 0 012.18-.39c11 0 20.23 9 20.23 19.69 0 5.74-2.57 14.48-6.38 21.73-4.37 8.3-9.56 13.09-14.22 13.09zM39.75 52.73a7.21 7.21 0 004 3.37l-4-3.37z" stroke="currentColor" stroke-width="2" stroke-linecap="round" stroke-linejoin="round"/></svg>