<svg viewBox="0 0 96 96" fill="none" xmlns="http://www.w3.org/2000/svg"><path d="M79.4 20.24H16.6c-6.407 0-11.6 5.194-11.6 11.6V69.5c0 6.407 5.194 11.6 11.6 11.6h62.8c6.406 0 11.6-5.193 11.6-11.6V31.84c0-6.406-5.194-11.6-11.6-11.6z" stroke="currentColor" stroke-width="2" stroke-linecap="round" stroke-linejoin="round"/><path d="M70.26 76.09a3.01 3.01 0 100-6.02 3.01 3.01 0 000 6.02zm10.04 0a3.01 3.01 0 100-6.02 3.01 3.01 0 000 6.02zM68.92 48.04a3 3 0 100-6 3 3 0 000 6z" stroke="currentColor" stroke-width="2" stroke-linecap="round" stroke-linejoin="round"/><path d="M76 45c0 3.92-7.09 15.35-7.09 15.35S61.84 48.9 61.84 45A7.09 7.09 0 0176 45z" stroke="currentColor" stroke-width="2" stroke-linecap="round" stroke-linejoin="round"/><path d="M11.52 27.27h72.96v37.78H11.52V27.27z" stroke="currentColor" stroke-width="2" stroke-linecap="round" stroke-linejoin="round"/><path d="M33 19.29c0-1.87 1.21-4.4 3.9-4.4h22.18c2.69 0 3.9 2.53 3.9 4.4M78 27.27l-35.2 6.31-.52-6.31h-5.02l-.83 7.24-24.91 4.65v4.81l25.4-4.66-1.35 25.74h8.36l-1.44-26.56 41.99-8.46v-2.76H78v0z" stroke="currentColor" stroke-width="2" stroke-linecap="round" stroke-linejoin="round"/></svg>