<svg width="96" height="96" viewBox="0 0 96 96" fill="none" xmlns="http://www.w3.org/2000/svg">
<path d="M26.27 64.79C35.5429 64.79 43.06 57.2728 43.06 48C43.06 38.7271 35.5429 31.21 26.27 31.21C16.9972 31.21 9.48001 38.7271 9.48001 48C9.48001 57.2728 16.9972 64.79 26.27 64.79Z" stroke="#00008F" stroke-width="2"/>
<path d="M6.95001 39H11.95M40.95 39.16H54.95H40.95Z" stroke="#00008F" stroke-width="2" stroke-linecap="round" stroke-linejoin="round"/>
<path d="M69.73 64.79C79.0029 64.79 86.52 57.2728 86.52 48C86.52 38.7271 79.0029 31.21 69.73 31.21C60.4571 31.21 52.94 38.7271 52.94 48C52.94 57.2728 60.4571 64.79 69.73 64.79Z" stroke="#00008F" stroke-width="2"/>
<path d="M89.05 39H84.05" stroke="#00008F" stroke-width="2" stroke-linecap="round" stroke-linejoin="round"/>
</svg>
