<svg viewBox="0 0 48 48" fill="none" xmlns="http://www.w3.org/2000/svg"><path d="M38.875 5.875h-28.5a2 2 0 00-2 2v4.75a2 2 0 002 2h28.5a2 2 0 002-2v-4.75a2 2 0 00-2-2z" stroke="currentColor" stroke-miterlimit="10" stroke-linecap="square"/><path d="M5.25 10.25v8.125c0 1.036.84 1.875 1.875 1.875h15c1.036 0 1.875.84 1.875 1.875v5M25.125 27.125h-2.25a2 2 0 00-2 2v11a2 2 0 002 2h2.25a2 2 0 002-2v-11a2 2 0 00-2-2z" stroke="currentColor" stroke-miterlimit="10" stroke-linecap="round"/><path d="M35.875 27.75c0-1.726 3.125-6.25 3.125-6.25s3.125 4.524 3.125 6.25a3.125 3.125 0 01-6.25 0z" stroke="currentColor" stroke-miterlimit="10" stroke-linecap="square"/></svg>