<svg width="96" height="96" viewBox="0 0 96 96" fill="none" xmlns="http://www.w3.org/2000/svg"><mask id="a"><path d="M78.75 22.25v-10a4 4 0 00-4-4h-61a4 4 0 00-4 4v24a4 4 0 004 4h61a4 4 0 004-4v-12c4.81.12 5.5 2 5.5 4v10c0 3.35-1.52 5.1-5.24 6-2 .49-8.29 1.5-14.42 2.48-6.45 1-12.54 2-14.58 2.52-4.66 1.17-6.55 3.77-6.74 9.47h-3.52a2 2 0 00-2 2v25a2 2 0 002 2h9a2 2 0 002-2v-25a2 2 0 00-2-2h-3.48c.19-5.27 1.94-6.71 5.22-7.53 2-.49 8.29-1.5 14.42-2.48 6.45-1 12.54-2 14.58-2.52 4.61-1.15 6.76-3.68 6.76-8v-10c0-5.5-5.17-5.91-7.5-5.94zm-65-12h61a2 2 0 012 2V14a80.151 80.151 0 01-11.22 4c-2 .45-1.9 2.63-1.82 3.94v.87c0 .46-1 .5-1 .5s-1 0-1-.57v-.44c0-1.6.11-4.95-5.31-6-4.66-.93-10.71.58-16.57 2a85.213 85.213 0 01-9.25 2c-1.16.14-1.1 1.26-1 3.72 0 .66.08 1.33.08 1.84 0 .17 0 .21-.07.23a1.47 1.47 0 01-.93.2s-1-.05-1-.43 0-1.08.06-1.72c.14-2.66.19-3.76-1-3.85a21.628 21.628 0 01-7.29-2.17c-2.54-1.12-5-2.15-7.78-1.89v-3.98a2 2 0 012.1-2zm61 28h-61a2 2 0 01-2-2v-18c2.39-.28 4.53.63 7 1.71a25.31 25.31 0 007.16 2.26c0 .52 0 1.27-.07 1.82s-.07 1.35-.07 1.83c0 1.67 1.55 2.43 2.92 2.43h.21a3.23 3.23 0 002.1-.78 2.23 2.23 0 00.71-1.7c0-.54 0-1.25-.08-1.95 0-.53-.07-1.24-.08-1.73 2.77-.4 5.81-1.16 8.77-1.89 5.64-1.41 11.48-2.86 15.69-2 3.78.76 3.74 2.49 3.71 4v.42c0 1.88 1.79 2.57 3 2.57s3-.67 3-2.5v-1c-.08-1.2-.06-1.79.26-1.86a75.572 75.572 0 0010.78-3.75v20.12a2 2 0 01-2.01 2zm-26 47.5h-9v-2.42h3.5a1 1 0 000-2h-3.5v-4h3.5a1 1 0 000-2h-3.5v-4h3.5a1 1 0 000-2h-3.5v-4h3.5a1 1 0 000-2h-3.5v-2.58h9v25z"/></mask><path d="M78.75 22.25v-10a4 4 0 00-4-4h-61a4 4 0 00-4 4v24a4 4 0 004 4h61a4 4 0 004-4v-12c4.81.12 5.5 2 5.5 4v10c0 3.35-1.52 5.1-5.24 6-2 .49-8.29 1.5-14.42 2.48-6.45 1-12.54 2-14.58 2.52-4.66 1.17-6.55 3.77-6.74 9.47h-3.52a2 2 0 00-2 2v25a2 2 0 002 2h9a2 2 0 002-2v-25a2 2 0 00-2-2h-3.48c.19-5.27 1.94-6.71 5.22-7.53 2-.49 8.29-1.5 14.42-2.48 6.45-1 12.54-2 14.58-2.52 4.61-1.15 6.76-3.68 6.76-8v-10c0-5.5-5.17-5.91-7.5-5.94zm-65-12h61a2 2 0 012 2V14a80.151 80.151 0 01-11.22 4c-2 .45-1.9 2.63-1.82 3.94v.87c0 .46-1 .5-1 .5s-1 0-1-.57v-.44c0-1.6.11-4.95-5.31-6-4.66-.93-10.71.58-16.57 2a85.213 85.213 0 01-9.25 2c-1.16.14-1.1 1.26-1 3.72 0 .66.08 1.33.08 1.84 0 .17 0 .21-.07.23a1.47 1.47 0 01-.93.2s-1-.05-1-.43 0-1.08.06-1.72c.14-2.66.19-3.76-1-3.85a21.628 21.628 0 01-7.29-2.17c-2.54-1.12-5-2.15-7.78-1.89v-3.98a2 2 0 012.1-2zm61 28h-61a2 2 0 01-2-2v-18c2.39-.28 4.53.63 7 1.71a25.31 25.31 0 007.16 2.26c0 .52 0 1.27-.07 1.82s-.07 1.35-.07 1.83c0 1.67 1.55 2.43 2.92 2.43h.21a3.23 3.23 0 002.1-.78 2.23 2.23 0 00.71-1.7c0-.54 0-1.25-.08-1.95 0-.53-.07-1.24-.08-1.73 2.77-.4 5.81-1.16 8.77-1.89 5.64-1.41 11.48-2.86 15.69-2 3.78.76 3.74 2.49 3.71 4v.42c0 1.88 1.79 2.57 3 2.57s3-.67 3-2.5v-1c-.08-1.2-.06-1.79.26-1.86a75.572 75.572 0 0010.78-3.75v20.12a2 2 0 01-2.01 2zm-26 47.5h-9v-2.42h3.5a1 1 0 000-2h-3.5v-4h3.5a1 1 0 000-2h-3.5v-4h3.5a1 1 0 000-2h-3.5v-4h3.5a1 1 0 000-2h-3.5v-2.58h9v25z" stroke="currentColor" stroke-width="2" mask="url(#a)"/></svg>