<svg width="48" height="48" viewBox="0 0 48 48" fill="none" xmlns="http://www.w3.org/2000/svg">
    <path d="M38.875 5.875H10.375C9.27043 5.875 8.375 6.77043 8.375 7.875V12.625C8.375 13.7296 9.27043 14.625 10.375 14.625H38.875C39.9796 14.625 40.875 13.7296 40.875 12.625V7.875C40.875 6.77043 39.9796 5.875 38.875 5.875Z" stroke="currentColor" stroke-miterlimit="10" stroke-linecap="square"/>
    <path d="M5.25 10.25V18.375C5.25 19.4106 6.08938 20.25 7.125 20.25H22.125C23.1606 20.25 24 21.0894 24 22.125V27.125" stroke="currentColor" stroke-miterlimit="10" stroke-linecap="round"/>
    <path d="M25.125 27.125H22.875C21.7704 27.125 20.875 28.0204 20.875 29.125V40.125C20.875 41.2296 21.7704 42.125 22.875 42.125H25.125C26.2296 42.125 27.125 41.2296 27.125 40.125V29.125C27.125 28.0204 26.2296 27.125 25.125 27.125Z" stroke="currentColor" stroke-miterlimit="10" stroke-linecap="round"/>
    <path d="M35.875 27.75C35.875 26.0244 39 21.5 39 21.5C39 21.5 42.125 26.0244 42.125 27.75C42.125 29.4756 40.7256 30.875 39 30.875C37.2744 30.875 35.875 29.4756 35.875 27.75Z" stroke="currentColor" stroke-miterlimit="10" stroke-linecap="square"/>
</svg>
