<svg viewBox="0 0 96 96" fill="none" xmlns="http://www.w3.org/2000/svg"><path d="M42.25 76.54c11.736 0 21.25-9.514 21.25-21.25s-9.514-21.25-21.25-21.25S21 43.554 21 55.29s9.514 21.25 21.25 21.25z" stroke="currentColor" stroke-width="2" stroke-linecap="round" stroke-linejoin="round"/><path d="M78.72 15.6a2.72 2.72 0 00-3.67.22l-17.95 18c-4.4-3.53-8.77-4.22-14.85-4.22A25.72 25.72 0 1068 55.29a27.33 27.33 0 00-7-18L78.89 19.1a2.63 2.63 0 00-.17-3.5v0z" stroke="currentColor" stroke-width="2" stroke-linecap="round" stroke-linejoin="round"/><path d="M39.06 58.03a4.56 4.56 0 100-9.12 4.56 4.56 0 000 9.12z" stroke="currentColor" stroke-width="2" stroke-linecap="round" stroke-linejoin="round"/><path d="M51.81 54.85a6.49 6.49 0 00.88-3.28 6.6 6.6 0 00-8.94-6.14A6.59 6.59 0 0031.65 48a6.59 6.59 0 00.93 13v.62a6.59 6.59 0 0011.83 4 6.592 6.592 0 009.737-1.248 6.59 6.59 0 00-2.307-9.542l-.03.02z" stroke="currentColor" stroke-width="2" stroke-linecap="round" stroke-linejoin="round"/></svg>