<svg viewBox="0 0 96 96" fill="none" xmlns="http://www.w3.org/2000/svg"><path d="M44.5 65.17h7v17.65h-7V65.17zM37 23.68h10.4a21.667 21.667 0 014.71.47 9.841 9.841 0 013.71 1.6 7.92 7.92 0 012.46 3 10.09 10.09 0 01.9 4.51 10.23 10.23 0 01-.9 4.44 8.63 8.63 0 01-2.48 3.15 10.35 10.35 0 01-3.73 1.84c-1.515.411-3.08.613-4.65.6h-4.93v11.3H37V23.68zm10 14.63c4.54 0 6.807-1.69 6.8-5.07a3.84 3.84 0 00-1.71-3.63 10.23 10.23 0 00-5.1-1h-4.51v9.7H47z" stroke="currentColor" stroke-width="2" stroke-linecap="round" stroke-linejoin="round"/><path d="M67.87 13.17H28.13A6.13 6.13 0 0022 19.3v39.74a6.13 6.13 0 006.13 6.13h39.74A6.13 6.13 0 0074 59.04V19.3a6.13 6.13 0 00-6.13-6.13z" stroke="currentColor" stroke-width="2" stroke-linecap="round" stroke-linejoin="round"/><path d="M67 21.17a1 1 0 100-2 1 1 0 000 2zm-39 0a1 1 0 100-2 1 1 0 000 2zm39 38.88a1 1 0 100-2 1 1 0 000 2zm-39 0a1 1 0 100-2 1 1 0 000 2z" stroke="currentColor" stroke-width="2" stroke-miterlimit="10"/></svg>