<svg viewBox="0 0 48 48" fill="none" xmlns="http://www.w3.org/2000/svg"><path d="M9.444 31.35h22.921m-20.5-3.01h21.051m12.194-.218v-4.238a2.337 2.337 0 00-1.877-2.318l-6.436-1.726-4.171-3.874c-2.422-2.295-4.135-2.785-6.278-2.785H17.78M36.452 35a4.087 4.087 0 100-8.173 4.087 4.087 0 000 8.173z" stroke="currentColor" stroke-linecap="round" stroke-linejoin="round"/><path d="M36.452 32.427a1.514 1.514 0 100-3.027 1.514 1.514 0 000 3.027zM40.926 31.35h3.93a1.21 1.21 0 001.21-1.212v-.605a1.21 1.21 0 00-1.21-1.21h-4.91M45.11 25.1A3.481 3.481 0 0142.688 24a8.326 8.326 0 01-1.44-2.75M18.15 15.96h7.58a6.254 6.254 0 014.238 1.628l3.5 3.184m-.03 0H19.13m4.335 7.568V15.96" stroke="currentColor" stroke-linecap="round" stroke-linejoin="round"/><path d="M5.812 12.545H2.179v9.081h3.633" stroke="currentColor" stroke-miterlimit="10"/><path d="M5.812 21.626l2.421 8.476h.606a1.817 1.817 0 001.816-1.816v-6.054h5.449a1.816 1.816 0 001.816-1.817v-.605l-1.073-5.78a1.816 1.816 0 00-1.785-1.485h-9.25v9.081z" stroke="currentColor" stroke-miterlimit="10" stroke-linecap="square"/></svg>