<svg width="96" height="96" viewBox="0 0 96 96" fill="none" xmlns="http://www.w3.org/2000/svg">
<path d="M16.871 65.4997L16.872 65.4997C18.0915 65.4949 19.2633 65.9735 20.1307 66.8308C20.9981 67.688 21.4905 68.8541 21.5 70.0736L21.5 70.0745C21.509 70.9898 21.2459 71.887 20.7441 72.6525C20.2423 73.418 19.5244 74.0172 18.6816 74.374C17.8387 74.7309 16.9089 74.8294 16.01 74.657C15.1111 74.4846 14.2837 74.049 13.6327 73.4057C12.9817 72.7623 12.5365 71.94 12.3535 71.0432C12.1705 70.1464 12.2581 69.2155 12.605 68.3685C12.9519 67.5215 13.5426 66.7967 14.3021 66.2859C15.0616 65.7752 15.9557 65.5015 16.871 65.4997ZM16.8683 73.7397L17.37 73.7413V73.659C17.6745 73.6189 17.9733 73.54 18.2589 73.4235C18.7013 73.2432 19.1033 72.9767 19.4416 72.6395C19.7799 72.3022 20.0477 71.9011 20.2294 71.4593C20.4111 71.0176 20.5031 70.5441 20.5 70.0664L20.4999 70.0617C20.4885 69.3488 20.2668 68.6551 19.8627 68.0677C19.4585 67.4804 18.8899 67.0254 18.2282 66.76C17.5665 66.4945 16.8411 66.4303 16.1431 66.5756C15.445 66.7208 14.8054 67.0689 14.3045 67.5763C13.8035 68.0836 13.4636 68.7276 13.3272 69.4274C13.1909 70.1272 13.2642 70.8517 13.5381 71.51C13.8119 72.1683 14.274 72.7311 14.8665 73.1278C15.459 73.5244 16.1554 73.7373 16.8683 73.7397ZM77.5761 65.4997L77.5771 65.4997C78.7966 65.5068 79.9636 65.9969 80.8225 66.8626C81.6815 67.7283 82.1624 68.8991 82.16 70.1187V70.1197C82.16 71.0349 81.8881 71.9296 81.3788 72.6901C80.8696 73.4506 80.1459 74.0427 79.2996 74.3913C78.4533 74.7399 77.5225 74.8293 76.6253 74.6481C75.7282 74.4669 74.905 74.0232 74.2604 73.3735C73.6157 72.7238 73.1786 71.8972 73.0044 70.9986C72.8303 70.1001 72.9269 69.17 73.2821 68.3265C73.6374 67.483 74.2351 66.7639 74.9996 66.2607C75.7641 65.7574 76.6609 65.4925 77.5761 65.4997ZM77.5864 73.7396L78.08 73.7333V73.652C78.8408 73.541 79.5509 73.1884 80.1016 72.6395C80.7707 71.9725 81.1509 71.0692 81.16 70.1245V70.1196C81.16 69.4017 80.9464 68.7 80.5466 68.1037C80.1467 67.5075 79.5786 67.0435 78.9144 66.771C78.2502 66.4984 77.52 66.4295 76.8165 66.573C76.1131 66.7164 75.4682 67.0658 74.9638 67.5768C74.4595 68.0877 74.1184 68.737 73.984 69.4423C73.8496 70.1475 73.928 70.8768 74.2091 71.5374C74.4902 72.198 74.9614 72.7601 75.5628 73.1522C76.1642 73.5444 76.8686 73.7488 77.5864 73.7396ZM81.1775 66.5105C80.2254 65.5508 78.9318 65.0076 77.58 64.9997L82.66 70.1197C82.6627 68.7679 82.1296 67.4701 81.1775 66.5105ZM35.94 60.9097H64.51C64.6426 60.9097 64.7698 60.9623 64.8636 61.0561C64.9573 61.1499 65.01 61.2771 65.01 61.4097C65.01 61.5423 64.9573 61.6695 64.8636 61.7632C64.7698 61.857 64.6426 61.9097 64.51 61.9097H35.94C35.8074 61.9097 35.6802 61.857 35.5865 61.7632C35.4927 61.6695 35.44 61.5423 35.44 61.4097C35.44 61.2771 35.4927 61.1499 35.5865 61.0561C35.6802 60.9623 35.8074 60.9097 35.94 60.9097Z" stroke="#00008F"/>
<mask id="path-3-inside-1" fill="white">
<path d="M79.09 44.9399H79.4C80.3148 44.9487 81.2146 44.7063 82.0012 44.2391C82.7878 43.772 83.4312 43.0979 83.8613 42.2904C84.2913 41.4829 84.4916 40.5728 84.4402 39.6594C84.3889 38.7459 84.0879 37.8641 83.57 37.1099C83.5457 37.0784 83.5325 37.0397 83.5325 36.9999C83.5325 36.9601 83.5457 36.9214 83.57 36.8899C84.1289 36.063 84.4275 35.0879 84.4275 34.0899C84.4275 33.0919 84.1289 32.1167 83.57 31.2899C83.5465 31.2599 83.5337 31.2229 83.5337 31.1849C83.5337 31.1468 83.5465 31.1098 83.57 31.0799C84.1262 30.2522 84.4222 29.2771 84.42 28.2799C84.4186 27.352 84.1627 26.4423 83.68 25.6499C83.6652 25.6334 83.6571 25.612 83.6571 25.5899C83.6571 25.5677 83.6652 25.5464 83.68 25.5299C84.1384 24.7854 84.3935 23.9337 84.42 23.0599C84.4341 22.4016 84.3156 21.7472 84.0717 21.1356C83.8277 20.524 83.4633 19.9677 83 19.4999C82.4951 18.9818 81.8918 18.5699 81.2255 18.2883C80.5592 18.0067 79.8434 17.861 79.12 17.8599H67.76C64.6066 18.0299 61.6097 19.288 59.28 21.4199C59.2408 21.431 59.1992 21.431 59.16 21.4199H50.54C49.9777 21.4199 49.4385 21.6432 49.0409 22.0408C48.6433 22.4384 48.42 22.9776 48.42 23.5399V27.6299C45.4718 27.2218 42.4955 27.0512 39.52 27.1199C32.52 27.1199 26.66 27.9099 15.31 29.7899H15.25C15.1774 29.7992 15.1066 29.8194 15.04 29.8499C14.9734 29.8805 14.9098 29.9174 14.85 29.9599L14.7 30.0699C10.17 33.4999 7.52999 45.6099 5.93999 54.4699C5.93999 54.7299 5.84999 54.9699 5.80999 55.1799C4.75817 55.4257 3.82031 56.0197 3.14865 56.8657C2.47699 57.7116 2.11096 58.7597 2.10999 59.8399V69.2299C2.13847 70.0063 2.46708 70.7414 3.02663 71.2804C3.58618 71.8195 4.33303 72.1204 5.10999 72.1199H7.10999C7.58312 74.3646 8.81362 76.3783 10.5952 77.8235C12.3767 79.2687 14.601 80.0574 16.895 80.0574C19.189 80.0574 21.4133 79.2687 23.1948 77.8235C24.9763 76.3783 26.2069 74.3646 26.68 72.1199H31.34C31.3865 72.1245 31.4334 72.1245 31.48 72.1199H67.79C68.2631 74.3646 69.4936 76.3783 71.2752 77.8235C73.0567 79.2687 75.281 80.0574 77.575 80.0574C79.869 80.0574 82.0933 79.2687 83.8748 77.8235C85.6563 76.3783 86.8869 74.3646 87.36 72.1199H90.36C90.8419 72.1212 91.3194 72.0275 91.7652 71.8443C92.211 71.6611 92.6163 71.3919 92.958 71.052C93.2997 70.7122 93.5712 70.3083 93.7568 69.8635C93.9424 69.4188 94.0387 68.9418 94.04 68.4599C94.08 51.9999 84.13 46.6099 79.09 44.9399ZM88 53.8699C87.4531 53.9446 86.902 53.9847 86.35 53.9899C81.86 53.9899 79.13 50.3199 77.25 46.4799C81.5932 47.5973 85.4011 50.215 88 53.8699ZM38.48 46.8699H26.09C25.6409 46.8712 25.1959 46.784 24.7804 46.6134C24.365 46.4427 23.9873 46.1919 23.6687 45.8752C23.3502 45.5586 23.0972 45.1823 22.9241 44.7679C22.7511 44.3534 22.6613 43.909 22.66 43.4599V35.2499C25.19 34.9399 32.76 34.0599 38.51 33.6599L38.48 46.8699ZM40.48 33.5299C43.1918 33.556 45.8785 34.0535 48.42 34.9999V38.7999C48.42 39.3621 48.6433 39.9014 49.0409 40.2989C49.4385 40.6965 49.9777 40.9199 50.54 40.9199H57.35C57.5827 40.918 57.8106 40.9867 58.0034 41.1171C58.1962 41.2474 58.345 41.4332 58.43 41.6499L60.57 46.9099H40.51L40.48 33.5299ZM71.06 53.9999C70.6521 54.8058 70.0886 55.523 69.4021 56.11C68.7155 56.697 67.9195 57.1422 67.06 57.4199C67.0312 57.4226 67.0024 57.4164 66.9773 57.402C66.9522 57.3877 66.9322 57.366 66.92 57.3399L63.48 48.8499L62.67 46.8499L60.47 41.4199L60.24 40.8399C60.0084 40.2492 59.6038 39.7422 59.0792 39.3854C58.5546 39.0285 57.9344 38.8384 57.3 38.8399H50.54C50.5082 38.8399 50.4776 38.8272 50.4551 38.8047C50.4326 38.7822 50.42 38.7517 50.42 38.7199V23.5699C50.42 23.538 50.4326 23.5075 50.4551 23.485C50.4776 23.4625 50.5082 23.4499 50.54 23.4499H59.16C59.4515 23.4536 59.7406 23.3969 60.0091 23.2833C60.2776 23.1697 60.5197 23.0017 60.72 22.7899C62.6663 21.0678 65.1273 20.0377 67.72 19.8599H79.13C80.0465 19.8576 80.9269 20.2169 81.58 20.8599C82.1232 21.4235 82.4247 22.1771 82.42 22.9599C82.4217 23.4923 82.2764 24.0148 82 24.4699C81.7937 24.8034 81.6844 25.1877 81.6844 25.5799C81.6844 25.972 81.7937 26.3564 82 26.6899C82.2976 27.1628 82.4537 27.7111 82.45 28.2699C82.4526 28.8884 82.264 29.4927 81.91 29.9999C81.6658 30.3617 81.5353 30.7883 81.5353 31.2249C81.5353 31.6614 81.6658 32.088 81.91 32.4499C82.2437 32.9465 82.4213 33.5315 82.42 34.1299C82.4264 34.7289 82.2483 35.3154 81.91 35.8099C81.6649 36.1733 81.534 36.6016 81.534 37.0399C81.534 37.4782 81.6649 37.9065 81.91 38.2699C82.2437 38.7665 82.4213 39.3515 82.42 39.9499C82.4201 40.3498 82.3402 40.7457 82.1851 41.1143C82.03 41.4829 81.8027 41.8168 81.5167 42.0963C81.2307 42.3758 80.8916 42.5953 80.5195 42.7419C80.1475 42.8885 79.7498 42.9592 79.35 42.9499H72.52C72.2921 42.9498 72.0658 42.9869 71.85 43.0599C71.4423 43.2019 71.0915 43.472 70.85 43.8299C70.6573 44.1084 70.5349 44.4293 70.4931 44.7654C70.4513 45.1015 70.4914 45.4426 70.61 45.7599C71.86 49.1599 72 51.9999 71.06 53.9999ZM14.41 33.3099V45.9999H9.67999C10.82 41.3099 12.39 36.1799 14.41 33.3099ZM16.87 78.1499C15.2686 78.1657 13.6986 77.7053 12.3594 76.8272C11.0202 75.9491 9.97209 74.6927 9.34824 73.2178C8.7244 71.7428 8.55293 70.1157 8.85561 68.5431C9.15829 66.9705 9.92145 65.5234 11.0482 64.3853C12.175 63.2473 13.6145 62.4698 15.184 62.1515C16.7535 61.8332 18.3822 61.9884 19.8633 62.5976C21.3444 63.2067 22.6111 64.2422 23.5025 65.5727C24.3939 66.9031 24.8699 68.4684 24.87 70.0699C24.8806 71.1272 24.6814 72.176 24.2841 73.1559C23.8868 74.1358 23.2992 75.0271 22.5553 75.7785C21.8114 76.5299 20.9259 77.1263 19.95 77.5333C18.9742 77.9404 17.9273 78.1499 16.87 78.1499ZM26.87 70.1499V70.0599C26.87 67.4077 25.8164 64.8642 23.9411 62.9888C22.0657 61.1134 19.5222 60.0599 16.87 60.0599C14.2178 60.0599 11.6743 61.1134 9.79892 62.9888C7.92355 64.8642 6.86999 67.4077 6.86999 70.0599V70.1499H5.07999C4.83277 70.1514 4.59376 70.0612 4.40909 69.8969C4.22442 69.7325 4.10717 69.5056 4.07999 69.2599V59.8899C4.07998 59.52 4.153 59.1538 4.29484 58.8122C4.43668 58.4706 4.64456 58.1604 4.90655 57.8993C5.16854 57.6383 5.47949 57.4315 5.82157 57.2909C6.16365 57.1503 6.53013 57.0785 6.89999 57.0799H16.16C26.64 57.0799 29.91 64.8899 30.27 70.1699L26.87 70.1499ZM77.59 78.1499C75.9886 78.1657 74.4186 77.7053 73.0794 76.8272C71.7402 75.9491 70.6921 74.6927 70.0682 73.2178C69.4444 71.7428 69.2729 70.1157 69.5756 68.5431C69.8783 66.9705 70.6415 65.5234 71.7682 64.3853C72.895 63.2473 74.3345 62.4698 75.904 62.1515C77.4735 61.8332 79.1022 61.9884 80.5833 62.5976C82.0644 63.2067 83.3311 64.2422 84.2225 65.5727C85.1139 66.9031 85.5899 68.4684 85.59 70.0699C85.6006 71.128 85.4011 72.1777 85.0032 73.1582C84.6053 74.1387 84.0168 75.0306 83.2718 75.7821C82.5268 76.5336 81.6401 77.1298 80.6631 77.5362C79.6861 77.9427 78.6382 78.1512 77.58 78.1499H77.59ZM90.41 70.1499H87.57V70.0599C87.57 67.4077 86.5164 64.8642 84.6411 62.9888C82.7657 61.1134 80.2222 60.0599 77.57 60.0599C74.9178 60.0599 72.3743 61.1134 70.4989 62.9888C68.6236 64.8642 67.57 67.4077 67.57 70.0599V70.1299H32.27C32.0935 66.6298 30.8396 63.2698 28.68 60.5099C25.79 56.9499 21.46 55.0699 16.16 55.0699H7.84999V54.8499C8.12999 53.3099 8.57999 50.8499 9.19999 47.9899H15.37C15.6352 47.9899 15.8896 47.8845 16.0771 47.697C16.2646 47.5094 16.37 47.2551 16.37 46.9899V31.6599C27.1 29.8899 32.8 29.1499 39.48 29.1499C42.4568 29.0623 45.4356 29.243 48.38 29.6899V32.8599C45.5197 31.8947 42.5061 31.4641 39.49 31.5899H39.41C32.34 32.0299 21.6 33.3599 21.5 33.3699C21.2561 33.3993 21.0316 33.5176 20.8692 33.702C20.7069 33.8864 20.6182 34.1242 20.62 34.3699V43.4899C20.6253 44.9265 21.1997 46.3025 22.2174 47.3165C23.2352 48.3305 24.6133 48.8999 26.05 48.8999H61.38L65.12 58.1399C65.2774 58.5395 65.5535 58.8812 65.9111 59.119C66.2687 59.3568 66.6906 59.4793 67.12 59.4699C67.3584 59.4689 67.5949 59.4284 67.82 59.3499C68.9223 58.9822 69.9402 58.3983 70.8142 57.6325C71.6882 56.8667 72.4007 55.9343 72.91 54.8899C74.11 52.2899 73.97 48.9799 72.47 45.0599L71.55 45.4199L72.55 44.9599H74.27L74.54 45.1699C76.46 49.8299 79.84 55.9999 86.38 55.9999C87.3163 55.9957 88.2502 55.9053 89.17 55.7299C91.2078 59.6739 92.2059 64.0726 92.07 68.5099C92.0647 68.9493 91.8865 69.369 91.5738 69.6778C91.2612 69.9867 90.8395 70.1599 90.4 70.1599L90.41 70.1499Z"/>
</mask>
<path d="M79.09 44.9399H79.4C80.3148 44.9487 81.2146 44.7063 82.0012 44.2391C82.7878 43.772 83.4312 43.0979 83.8613 42.2904C84.2913 41.4829 84.4916 40.5728 84.4402 39.6594C84.3889 38.7459 84.0879 37.8641 83.57 37.1099C83.5457 37.0784 83.5325 37.0397 83.5325 36.9999C83.5325 36.9601 83.5457 36.9214 83.57 36.8899C84.1289 36.063 84.4275 35.0879 84.4275 34.0899C84.4275 33.0919 84.1289 32.1167 83.57 31.2899C83.5465 31.2599 83.5337 31.2229 83.5337 31.1849C83.5337 31.1468 83.5465 31.1098 83.57 31.0799C84.1262 30.2522 84.4222 29.2771 84.42 28.2799C84.4186 27.352 84.1627 26.4423 83.68 25.6499C83.6652 25.6334 83.6571 25.612 83.6571 25.5899C83.6571 25.5677 83.6652 25.5464 83.68 25.5299C84.1384 24.7854 84.3935 23.9337 84.42 23.0599C84.4341 22.4016 84.3156 21.7472 84.0717 21.1356C83.8277 20.524 83.4633 19.9677 83 19.4999C82.4951 18.9818 81.8918 18.5699 81.2255 18.2883C80.5592 18.0067 79.8434 17.861 79.12 17.8599H67.76C64.6066 18.0299 61.6097 19.288 59.28 21.4199C59.2408 21.431 59.1992 21.431 59.16 21.4199H50.54C49.9777 21.4199 49.4385 21.6432 49.0409 22.0408C48.6433 22.4384 48.42 22.9776 48.42 23.5399V27.6299C45.4718 27.2218 42.4955 27.0512 39.52 27.1199C32.52 27.1199 26.66 27.9099 15.31 29.7899H15.25C15.1774 29.7992 15.1066 29.8194 15.04 29.8499C14.9734 29.8805 14.9098 29.9174 14.85 29.9599L14.7 30.0699C10.17 33.4999 7.52999 45.6099 5.93999 54.4699C5.93999 54.7299 5.84999 54.9699 5.80999 55.1799C4.75817 55.4257 3.82031 56.0197 3.14865 56.8657C2.47699 57.7116 2.11096 58.7597 2.10999 59.8399V69.2299C2.13847 70.0063 2.46708 70.7414 3.02663 71.2804C3.58618 71.8195 4.33303 72.1204 5.10999 72.1199H7.10999C7.58312 74.3646 8.81362 76.3783 10.5952 77.8235C12.3767 79.2687 14.601 80.0574 16.895 80.0574C19.189 80.0574 21.4133 79.2687 23.1948 77.8235C24.9763 76.3783 26.2069 74.3646 26.68 72.1199H31.34C31.3865 72.1245 31.4334 72.1245 31.48 72.1199H67.79C68.2631 74.3646 69.4936 76.3783 71.2752 77.8235C73.0567 79.2687 75.281 80.0574 77.575 80.0574C79.869 80.0574 82.0933 79.2687 83.8748 77.8235C85.6563 76.3783 86.8869 74.3646 87.36 72.1199H90.36C90.8419 72.1212 91.3194 72.0275 91.7652 71.8443C92.211 71.6611 92.6163 71.3919 92.958 71.052C93.2997 70.7122 93.5712 70.3083 93.7568 69.8635C93.9424 69.4188 94.0387 68.9418 94.04 68.4599C94.08 51.9999 84.13 46.6099 79.09 44.9399ZM88 53.8699C87.4531 53.9446 86.902 53.9847 86.35 53.9899C81.86 53.9899 79.13 50.3199 77.25 46.4799C81.5932 47.5973 85.4011 50.215 88 53.8699ZM38.48 46.8699H26.09C25.6409 46.8712 25.1959 46.784 24.7804 46.6134C24.365 46.4427 23.9873 46.1919 23.6687 45.8752C23.3502 45.5586 23.0972 45.1823 22.9241 44.7679C22.7511 44.3534 22.6613 43.909 22.66 43.4599V35.2499C25.19 34.9399 32.76 34.0599 38.51 33.6599L38.48 46.8699ZM40.48 33.5299C43.1918 33.556 45.8785 34.0535 48.42 34.9999V38.7999C48.42 39.3621 48.6433 39.9014 49.0409 40.2989C49.4385 40.6965 49.9777 40.9199 50.54 40.9199H57.35C57.5827 40.918 57.8106 40.9867 58.0034 41.1171C58.1962 41.2474 58.345 41.4332 58.43 41.6499L60.57 46.9099H40.51L40.48 33.5299ZM71.06 53.9999C70.6521 54.8058 70.0886 55.523 69.4021 56.11C68.7155 56.697 67.9195 57.1422 67.06 57.4199C67.0312 57.4226 67.0024 57.4164 66.9773 57.402C66.9522 57.3877 66.9322 57.366 66.92 57.3399L63.48 48.8499L62.67 46.8499L60.47 41.4199L60.24 40.8399C60.0084 40.2492 59.6038 39.7422 59.0792 39.3854C58.5546 39.0285 57.9344 38.8384 57.3 38.8399H50.54C50.5082 38.8399 50.4776 38.8272 50.4551 38.8047C50.4326 38.7822 50.42 38.7517 50.42 38.7199V23.5699C50.42 23.538 50.4326 23.5075 50.4551 23.485C50.4776 23.4625 50.5082 23.4499 50.54 23.4499H59.16C59.4515 23.4536 59.7406 23.3969 60.0091 23.2833C60.2776 23.1697 60.5197 23.0017 60.72 22.7899C62.6663 21.0678 65.1273 20.0377 67.72 19.8599H79.13C80.0465 19.8576 80.9269 20.2169 81.58 20.8599C82.1232 21.4235 82.4247 22.1771 82.42 22.9599C82.4217 23.4923 82.2764 24.0148 82 24.4699C81.7937 24.8034 81.6844 25.1877 81.6844 25.5799C81.6844 25.972 81.7937 26.3564 82 26.6899C82.2976 27.1628 82.4537 27.7111 82.45 28.2699C82.4526 28.8884 82.264 29.4927 81.91 29.9999C81.6658 30.3617 81.5353 30.7883 81.5353 31.2249C81.5353 31.6614 81.6658 32.088 81.91 32.4499C82.2437 32.9465 82.4213 33.5315 82.42 34.1299C82.4264 34.7289 82.2483 35.3154 81.91 35.8099C81.6649 36.1733 81.534 36.6016 81.534 37.0399C81.534 37.4782 81.6649 37.9065 81.91 38.2699C82.2437 38.7665 82.4213 39.3515 82.42 39.9499C82.4201 40.3498 82.3402 40.7457 82.1851 41.1143C82.03 41.4829 81.8027 41.8168 81.5167 42.0963C81.2307 42.3758 80.8916 42.5953 80.5195 42.7419C80.1475 42.8885 79.7498 42.9592 79.35 42.9499H72.52C72.2921 42.9498 72.0658 42.9869 71.85 43.0599C71.4423 43.2019 71.0915 43.472 70.85 43.8299C70.6573 44.1084 70.5349 44.4293 70.4931 44.7654C70.4513 45.1015 70.4914 45.4426 70.61 45.7599C71.86 49.1599 72 51.9999 71.06 53.9999ZM14.41 33.3099V45.9999H9.67999C10.82 41.3099 12.39 36.1799 14.41 33.3099ZM16.87 78.1499C15.2686 78.1657 13.6986 77.7053 12.3594 76.8272C11.0202 75.9491 9.97209 74.6927 9.34824 73.2178C8.7244 71.7428 8.55293 70.1157 8.85561 68.5431C9.15829 66.9705 9.92145 65.5234 11.0482 64.3853C12.175 63.2473 13.6145 62.4698 15.184 62.1515C16.7535 61.8332 18.3822 61.9884 19.8633 62.5976C21.3444 63.2067 22.6111 64.2422 23.5025 65.5727C24.3939 66.9031 24.8699 68.4684 24.87 70.0699C24.8806 71.1272 24.6814 72.176 24.2841 73.1559C23.8868 74.1358 23.2992 75.0271 22.5553 75.7785C21.8114 76.5299 20.9259 77.1263 19.95 77.5333C18.9742 77.9404 17.9273 78.1499 16.87 78.1499ZM26.87 70.1499V70.0599C26.87 67.4077 25.8164 64.8642 23.9411 62.9888C22.0657 61.1134 19.5222 60.0599 16.87 60.0599C14.2178 60.0599 11.6743 61.1134 9.79892 62.9888C7.92355 64.8642 6.86999 67.4077 6.86999 70.0599V70.1499H5.07999C4.83277 70.1514 4.59376 70.0612 4.40909 69.8969C4.22442 69.7325 4.10717 69.5056 4.07999 69.2599V59.8899C4.07998 59.52 4.153 59.1538 4.29484 58.8122C4.43668 58.4706 4.64456 58.1604 4.90655 57.8993C5.16854 57.6383 5.47949 57.4315 5.82157 57.2909C6.16365 57.1503 6.53013 57.0785 6.89999 57.0799H16.16C26.64 57.0799 29.91 64.8899 30.27 70.1699L26.87 70.1499ZM77.59 78.1499C75.9886 78.1657 74.4186 77.7053 73.0794 76.8272C71.7402 75.9491 70.6921 74.6927 70.0682 73.2178C69.4444 71.7428 69.2729 70.1157 69.5756 68.5431C69.8783 66.9705 70.6415 65.5234 71.7682 64.3853C72.895 63.2473 74.3345 62.4698 75.904 62.1515C77.4735 61.8332 79.1022 61.9884 80.5833 62.5976C82.0644 63.2067 83.3311 64.2422 84.2225 65.5727C85.1139 66.9031 85.5899 68.4684 85.59 70.0699C85.6006 71.128 85.4011 72.1777 85.0032 73.1582C84.6053 74.1387 84.0168 75.0306 83.2718 75.7821C82.5268 76.5336 81.6401 77.1298 80.6631 77.5362C79.6861 77.9427 78.6382 78.1512 77.58 78.1499H77.59ZM90.41 70.1499H87.57V70.0599C87.57 67.4077 86.5164 64.8642 84.6411 62.9888C82.7657 61.1134 80.2222 60.0599 77.57 60.0599C74.9178 60.0599 72.3743 61.1134 70.4989 62.9888C68.6236 64.8642 67.57 67.4077 67.57 70.0599V70.1299H32.27C32.0935 66.6298 30.8396 63.2698 28.68 60.5099C25.79 56.9499 21.46 55.0699 16.16 55.0699H7.84999V54.8499C8.12999 53.3099 8.57999 50.8499 9.19999 47.9899H15.37C15.6352 47.9899 15.8896 47.8845 16.0771 47.697C16.2646 47.5094 16.37 47.2551 16.37 46.9899V31.6599C27.1 29.8899 32.8 29.1499 39.48 29.1499C42.4568 29.0623 45.4356 29.243 48.38 29.6899V32.8599C45.5197 31.8947 42.5061 31.4641 39.49 31.5899H39.41C32.34 32.0299 21.6 33.3599 21.5 33.3699C21.2561 33.3993 21.0316 33.5176 20.8692 33.702C20.7069 33.8864 20.6182 34.1242 20.62 34.3699V43.4899C20.6253 44.9265 21.1997 46.3025 22.2174 47.3165C23.2352 48.3305 24.6133 48.8999 26.05 48.8999H61.38L65.12 58.1399C65.2774 58.5395 65.5535 58.8812 65.9111 59.119C66.2687 59.3568 66.6906 59.4793 67.12 59.4699C67.3584 59.4689 67.5949 59.4284 67.82 59.3499C68.9223 58.9822 69.9402 58.3983 70.8142 57.6325C71.6882 56.8667 72.4007 55.9343 72.91 54.8899C74.11 52.2899 73.97 48.9799 72.47 45.0599L71.55 45.4199L72.55 44.9599H74.27L74.54 45.1699C76.46 49.8299 79.84 55.9999 86.38 55.9999C87.3163 55.9957 88.2502 55.9053 89.17 55.7299C91.2078 59.6739 92.2059 64.0726 92.07 68.5099C92.0647 68.9493 91.8865 69.369 91.5738 69.6778C91.2612 69.9867 90.8395 70.1599 90.4 70.1599L90.41 70.1499Z" stroke="#00008F" stroke-width="2" mask="url(#path-3-inside-1)"/>
</svg>
