<svg width="96" height="96" viewBox="0 0 96 96" fill="none" xmlns="http://www.w3.org/2000/svg"><path d="M16.871 65.5h.001a4.61 4.61 0 014.628 4.574h0a4.62 4.62 0 11-4.629-4.574zm-.003 8.24l.502.001v-.082a3.597 3.597 0 002.86-2.2 3.6 3.6 0 00.27-1.393v-.004a3.62 3.62 0 10-3.632 3.678zm60.708-8.24h.001a4.61 4.61 0 014.583 4.619v0a4.62 4.62 0 11-4.584-4.62zm.01 8.24l.494-.007v-.081a3.6 3.6 0 003.08-3.528v-.004a3.62 3.62 0 10-3.574 3.62zm3.591-7.23A5.11 5.11 0 0077.58 65l5.08 5.12a5.11 5.11 0 00-1.483-3.61zm-45.237-5.6h28.57a.5.5 0 110 1H35.94a.5.5 0 110-1z" stroke="#00008F"/><mask id="a"><path d="M79.09 44.94h.31a5 5 0 004.17-7.83.18.18 0 010-.22 5 5 0 000-5.6.17.17 0 010-.21 5 5 0 00.85-2.8 5.07 5.07 0 00-.74-2.63.09.09 0 010-.12 5 5 0 00.74-2.47A4.911 4.911 0 0083 19.5a5.428 5.428 0 00-3.88-1.64H67.76a13.65 13.65 0 00-8.48 3.56.22.22 0 01-.12 0h-8.62a2.12 2.12 0 00-2.12 2.12v4.09a55.557 55.557 0 00-8.9-.51c-7 0-12.86.79-24.21 2.67h-.06a.726.726 0 00-.21.06c-.067.03-.13.067-.19.11l-.15.11c-4.53 3.43-7.17 15.54-8.76 24.4 0 .26-.09.5-.13.71a4.79 4.79 0 00-3.7 4.66v9.39a3 3 0 003 2.89h2a10 10 0 0019.57 0h4.66a.712.712 0 00.14 0h36.31a10 10 0 0019.57 0h3a3.671 3.671 0 003.68-3.66c.04-16.46-9.91-21.85-14.95-23.52zM88 53.87c-.547.075-1.098.115-1.65.12-4.49 0-7.22-3.67-9.1-7.51A19 19 0 0188 53.87zm-49.52-7H26.09a3.422 3.422 0 01-3.43-3.41v-8.21c2.53-.31 10.1-1.19 15.85-1.59l-.03 13.21zm2-13.34c2.712.026 5.399.523 7.94 1.47v3.8a2.12 2.12 0 002.12 2.12h6.81a1.15 1.15 0 011.08.73l2.14 5.26H40.51l-.03-13.38zM71.06 54a6.841 6.841 0 01-4 3.42.14.14 0 01-.14-.08l-3.44-8.49-.81-2-2.2-5.43-.23-.58a3.15 3.15 0 00-2.94-2h-6.76a.12.12 0 01-.12-.12V23.57a.12.12 0 01.12-.12h8.62a2.11 2.11 0 001.56-.66 11.78 11.78 0 017-2.93h11.41a3.48 3.48 0 012.45 1 3 3 0 01.84 2.1 2.891 2.891 0 01-.42 1.51 2.11 2.11 0 000 2.22 2.93 2.93 0 01.45 1.58 3 3 0 01-.54 1.73 2.19 2.19 0 000 2.45 3 3 0 01.51 1.68 2.92 2.92 0 01-.51 1.68 2.2 2.2 0 000 2.46 3 3 0 01.51 1.68 3 3 0 01-3.07 3h-6.83a2 2 0 00-1.67.88 2.1 2.1 0 00-.24 1.93c1.25 3.4 1.39 6.24.45 8.24zM14.41 33.31V46H9.68c1.14-4.69 2.71-9.82 4.73-12.69zm2.46 44.84a8.08 8.08 0 118-8.08 8 8 0 01-8 8.08zm10-8v-.09a10 10 0 00-20 0v.09H5.08a1 1 0 01-1-.89v-9.37a2.81 2.81 0 012.82-2.81h9.26c10.48 0 13.75 7.81 14.11 13.09l-3.4-.02zm50.72 8a8.08 8.08 0 118-8.08 8 8 0 01-8.01 8.08h.01zm12.82-8h-2.84v-.09a10 10 0 00-20 0v.07h-35.3a17 17 0 00-3.59-9.62c-2.89-3.56-7.22-5.44-12.52-5.44H7.85v-.22c.28-1.54.73-4 1.35-6.86h6.17a1 1 0 001-1V31.66c10.73-1.77 16.43-2.51 23.11-2.51a49.59 49.59 0 018.9.54v3.17a24.599 24.599 0 00-8.89-1.27h-.08c-7.07.44-17.81 1.77-17.91 1.78a1 1 0 00-.88 1v9.12a5.43 5.43 0 005.43 5.41h35.33l3.74 9.24a2.1 2.1 0 002 1.33c.238-.001.475-.042.7-.12a8.74 8.74 0 005.09-4.46c1.2-2.6 1.06-5.91-.44-9.83l-.92.36 1-.46h1.72l.27.21C76.46 49.83 79.84 56 86.38 56a15.26 15.26 0 002.79-.27 26.1 26.1 0 012.9 12.78 1.67 1.67 0 01-1.67 1.65l.01-.01z"/></mask><path d="M79.09 44.94h.31a5 5 0 004.17-7.83.18.18 0 010-.22 5 5 0 000-5.6.17.17 0 010-.21 5 5 0 00.85-2.8 5.07 5.07 0 00-.74-2.63.09.09 0 010-.12 5 5 0 00.74-2.47A4.911 4.911 0 0083 19.5a5.428 5.428 0 00-3.88-1.64H67.76a13.65 13.65 0 00-8.48 3.56.22.22 0 01-.12 0h-8.62a2.12 2.12 0 00-2.12 2.12v4.09a55.557 55.557 0 00-8.9-.51c-7 0-12.86.79-24.21 2.67h-.06a.726.726 0 00-.21.06c-.067.03-.13.067-.19.11l-.15.11c-4.53 3.43-7.17 15.54-8.76 24.4 0 .26-.09.5-.13.71a4.79 4.79 0 00-3.7 4.66v9.39a3 3 0 003 2.89h2a10 10 0 0019.57 0h4.66a.712.712 0 00.14 0h36.31a10 10 0 0019.57 0h3a3.671 3.671 0 003.68-3.66c.04-16.46-9.91-21.85-14.95-23.52zM88 53.87c-.547.075-1.098.115-1.65.12-4.49 0-7.22-3.67-9.1-7.51A19 19 0 0188 53.87zm-49.52-7H26.09a3.422 3.422 0 01-3.43-3.41v-8.21c2.53-.31 10.1-1.19 15.85-1.59l-.03 13.21zm2-13.34c2.712.026 5.399.523 7.94 1.47v3.8a2.12 2.12 0 002.12 2.12h6.81a1.15 1.15 0 011.08.73l2.14 5.26H40.51l-.03-13.38zM71.06 54a6.841 6.841 0 01-4 3.42.14.14 0 01-.14-.08l-3.44-8.49-.81-2-2.2-5.43-.23-.58a3.15 3.15 0 00-2.94-2h-6.76a.12.12 0 01-.12-.12V23.57a.12.12 0 01.12-.12h8.62a2.11 2.11 0 001.56-.66 11.78 11.78 0 017-2.93h11.41a3.48 3.48 0 012.45 1 3 3 0 01.84 2.1 2.891 2.891 0 01-.42 1.51 2.11 2.11 0 000 2.22 2.93 2.93 0 01.45 1.58 3 3 0 01-.54 1.73 2.19 2.19 0 000 2.45 3 3 0 01.51 1.68 2.92 2.92 0 01-.51 1.68 2.2 2.2 0 000 2.46 3 3 0 01.51 1.68 3 3 0 01-3.07 3h-6.83a2 2 0 00-1.67.88 2.1 2.1 0 00-.24 1.93c1.25 3.4 1.39 6.24.45 8.24zM14.41 33.31V46H9.68c1.14-4.69 2.71-9.82 4.73-12.69zm2.46 44.84a8.08 8.08 0 118-8.08 8 8 0 01-8 8.08zm10-8v-.09a10 10 0 00-20 0v.09H5.08a1 1 0 01-1-.89v-9.37a2.81 2.81 0 012.82-2.81h9.26c10.48 0 13.75 7.81 14.11 13.09l-3.4-.02zm50.72 8a8.08 8.08 0 118-8.08 8 8 0 01-8.01 8.08h.01zm12.82-8h-2.84v-.09a10 10 0 00-20 0v.07h-35.3a17 17 0 00-3.59-9.62c-2.89-3.56-7.22-5.44-12.52-5.44H7.85v-.22c.28-1.54.73-4 1.35-6.86h6.17a1 1 0 001-1V31.66c10.73-1.77 16.43-2.51 23.11-2.51a49.59 49.59 0 018.9.54v3.17a24.599 24.599 0 00-8.89-1.27h-.08c-7.07.44-17.81 1.77-17.91 1.78a1 1 0 00-.88 1v9.12a5.43 5.43 0 005.43 5.41h35.33l3.74 9.24a2.1 2.1 0 002 1.33c.238-.001.475-.042.7-.12a8.74 8.74 0 005.09-4.46c1.2-2.6 1.06-5.91-.44-9.83l-.92.36 1-.46h1.72l.27.21C76.46 49.83 79.84 56 86.38 56a15.26 15.26 0 002.79-.27 26.1 26.1 0 012.9 12.78 1.67 1.67 0 01-1.67 1.65l.01-.01z" stroke="#00008F" stroke-width="2" mask="url(#a)"/></svg>