<svg viewBox="0 0 96 96" fill="none" xmlns="http://www.w3.org/2000/svg"><path d="M65.49 48.59c0-.81.31-11.22-3.79-12l.58-7.6s.09-2.71 3.8-2.46c0 0 9.33 1 9.11-11.83 0 0-5.44-2.13-8.75-2.13 0 0-2.61-4.14-5.33-4.73 0 0-13.13-2.37-15.49 9.35L45 26.64a9.001 9.001 0 01-1.18 3.43s-1.63 4.73-10.27 14.79c0 0-11.59 15-11.71 28.27l-.12 9.11S5.87 73 16.4 60.12c0 0 12.89-15.86-2.13-24.25 0 0-2.49-.6-.36 1.89 0 0 5.68 8.52-3.55 19.16 0 0-16.56 18.22 8.52 29.22a28.49 28.49 0 005 1.4c5.33 1.21 13.13.73 19.88.73m-1.97-53.74s5.36 5.12 19.91 2m-17.86-6.46s7.22 3.78 18.22 1.12" stroke="currentColor" stroke-width="2" stroke-linecap="round" stroke-linejoin="round"/><path d="M45.38 21.61s6.39 5.5 12.78 2.57a30 30 0 00-6.3-15.34" stroke="currentColor" stroke-width="2" stroke-linecap="round" stroke-linejoin="round"/><path d="M62.24 15.51a.55.55 0 100-1.1.55.55 0 000 1.1z" stroke="currentColor" stroke-width="2" stroke-miterlimit="10"/><path d="M41.74 68s-5.94 4-2.39 11.72c0 0 1.89 1.3 1.77-1.77 0 0-.95-9.94 3.31-17.75 0 0 5.68-9.81 17.39-10.76 0 0 7.22-.71 7.81-5 0 0 1.89-7.81 7.22-7.69 0 0 3.54-6.27 7.21-5.2 0 0-1.06 4.37-.35 5.79l4.85 3.08s-.48 3.31 1.89 5.09c2.37 1.78-3.55 5.2-5.21 4.25 0 0-3.31-.82-3.19 3.32v5.91a7.78 7.78 0 01-3.9 7.57s-6.84 4.73-7.78 9.7a25.76 25.76 0 00-.59 7.19s3.43.86 2.36 4.76H44s-10.78-1.39-10.78-12.12c0-2.51.09-10.11 10.27-13.9" stroke="currentColor" stroke-width="2" stroke-linecap="round" stroke-linejoin="round"/><path d="M84.85 43.303c.077-.006.13-.131.118-.28-.011-.148-.084-.264-.16-.258-.078.006-.13.132-.119.28.012.15.084.265.161.258z" stroke="currentColor" stroke-width="2" stroke-miterlimit="10"/><path d="M82.05 53.76s-8.84.67-14-6.61m-1.8 41.12c1-3.46-1.8-3.4-1.8-3.4l-7.54-.27c5.74-.53 6.66-2.92 6.66-2.92 1.68-2.93 1.51-10 1.51-10s.41-9.46-12.6-5.68m-3.65-10.87a7 7 0 00-4.72-2.55c-4.93 0-5.3 5.58-5.3 5.58-.05 1.31-1.11 1.31-1.55 1.31a1.7 1.7 0 01-1.78-1.35c.062-1.73.517-3.422 1.33-4.95 5.36-8.67 14.24-1.92 15.28-.48l-3.26 2.44z" stroke="currentColor" stroke-width="2" stroke-linecap="round" stroke-linejoin="round"/></svg>