<svg viewBox="0 0 96 96" fill="none" xmlns="http://www.w3.org/2000/svg"><path d="M22.2 19.47l2.12-2.12a3 3 0 014.24 0l11.32 11.32a3 3 0 010 4.24L37.76 35 22.2 19.47zM59 56.24l2.12-2.12a3 3 0 014.24 0l11.29 11.32a3 3 0 010 4.24l-2.12 2.12L59 56.24zm0 .02a10.33 10.33 0 00-2.55 8.29 31.88 31.88 0 01-27-27A10.33 10.33 0 0037.74 35L22.22 19.49a10.28 10.28 0 00-2.64 7.16 41.949 41.949 0 0047.77 47.77 10.28 10.28 0 007.16-2.64L59 56.26z" stroke="currentColor" stroke-width="2" stroke-linecap="round" stroke-linejoin="round"/></svg>