<svg viewBox="0 0 96 96" fill="none" xmlns="http://www.w3.org/2000/svg"><path d="M25 49a3 3 0 100-6 3 3 0 000 6zM12 61c2.21 0 4-4.477 4-10s-1.79-10-4-10-4 4.477-4 10 1.79 10 4 10zm79-18a9 9 0 01-9 9M20 35.76V27l8.33 2.08M48 39c7.18 0 13-5.82 13-13s-5.82-13-13-13-13 5.82-13 13 5.82 13 13 13z" stroke="currentColor" stroke-width="2" stroke-linecap="round" stroke-linejoin="round"/><path d="M12 61h4.37C25 71 38 74 48 74c20 0 34-12 34-23 0-11.26-8.67-20.9-21-24.95m-26 .06C26.6 28.94 19.83 34.36 16.37 41H12" stroke="currentColor" stroke-width="2" stroke-linecap="round" stroke-linejoin="round"/><path d="M37.77 34H32.5a2.5 2.5 0 000 5h31a2.5 2.5 0 000-5h-5.27M48 34a8 8 0 100-16 8 8 0 000 16zm11 39v4a2 2 0 002 2h5a2 2 0 002-2v-7.61m-39 .8V77a2 2 0 002 2h5a2 2 0 002-2v-4l-9-2.81z" stroke="currentColor" stroke-width="2" stroke-linecap="round" stroke-linejoin="round"/></svg>