<svg viewBox="0 0 96 96" fill="none" xmlns="http://www.w3.org/2000/svg"><path d="M28 39h-3.11a7 7 0 01-4.95-2l-5.77-6.58a4 4 0 00-3-1.37H8l3 12.87" stroke="currentColor" stroke-width="2" stroke-linecap="round" stroke-linejoin="round"/><path d="M58 58h26.06A4.94 4.94 0 0089 53.06a4.3 4.3 0 00-1.61-3.35L78 42.19A14.53 14.53 0 0068.89 39H26l-13.7 2.42A4 4 0 009 45.36a5.82 5.82 0 003.3 5.24c4.69 2.25 13 6.14 15.66 6.72 2.026.451 4.095.68 6.17.68H40" stroke="currentColor" stroke-width="2" stroke-linecap="round" stroke-linejoin="round"/><path d="M82.68 46H73l-4.12-7M27 45h2m5 0h2m5 0h2m5 0h2m5 0h2m5 0h2m-23 5l-4 32h3.49a6 6 0 005.23-3.06L62 50H41zm15-11L45.72 22.06A6 6 0 0040.49 19H37l3 20h16z" stroke="currentColor" stroke-width="2" stroke-linecap="round" stroke-linejoin="round"/><path d="M60.31 53H81.9c3.1 0 4.89-.79 6.29-2.19M10 48l17.29 4.52c1.802.32 3.63.48 5.46.48h7.88" stroke="currentColor" stroke-width="2" stroke-linecap="round" stroke-linejoin="round"/></svg>