<svg viewBox="0 0 96 96" fill="none" xmlns="http://www.w3.org/2000/svg"><path d="M57.92 28.12a6.619 6.619 0 01-6.2-3.72c-1.66 3.41-3.63 6.2-8.68 6.2h-5V38c0 5.79 3.49 11.16 9.92 11.16s9.96-5.33 9.96-11.16v-9.88z" stroke="currentColor" stroke-width="2" stroke-linecap="round" stroke-linejoin="round"/><path d="M57.92 40.52s6.2-2.48 6.2-11.16v-2.48c0-3.72 0-8.68-5-8.68C56.84 14.33 54.2 12 48 12h-1.24a15.08 15.08 0 00-14.88 14.88v2.48c0 8.68 6.2 11.16 6.2 11.16m2.48 5.3v5.86l3.91 6.52m10.97-12.49v5.97M59 82c9-1 16-4 16-10v-7c0-5.58-4.61-10.71-10.59-11.56l-9-1.76M65 74v6.72M31 63v3m-10 6l34-20m7 1L42 85" stroke="currentColor" stroke-width="2" stroke-linecap="round" stroke-linejoin="round"/><path d="M40.56 51.68l-9 1.76C25.61 54.29 21 59.42 21 65v7c0 6 4 13 13 13h19.5a6.5 6.5 0 100-13h-3.37" stroke="currentColor" stroke-width="2" stroke-linecap="round" stroke-linejoin="round"/></svg>