<svg width="96" height="96" viewBox="0 0 96 96" fill="none" xmlns="http://www.w3.org/2000/svg">
<path d="M48 81C66.2254 81 81 66.2254 81 48C81 29.7746 66.2254 15 48 15C29.7746 15 15 29.7746 15 48C15 66.2254 29.7746 81 48 81Z" stroke="#00008F" stroke-width="2" stroke-linecap="round" stroke-linejoin="round"/>
<path d="M61 46.2699C61.3031 46.4457 61.5547 46.6981 61.7295 47.0017C61.9044 47.3053 61.9965 47.6495 61.9965 47.9999C61.9965 48.3503 61.9044 48.6945 61.7295 48.9981C61.5547 49.3018 61.3031 49.5541 61 49.7299L52 54.9999L43 60.2499C42.6961 60.4254 42.3514 60.5178 42.0005 60.5179C41.6496 60.518 41.3049 60.4257 41.0009 60.2504C40.6969 60.0751 40.4444 59.823 40.2687 59.5192C40.093 59.2155 40.0004 58.8708 40 58.5199V37.5199C40.0004 37.169 40.093 36.8244 40.2687 36.5206C40.4444 36.2169 40.6969 35.9647 41.0009 35.7894C41.3049 35.6141 41.6496 35.5219 42.0005 35.522C42.3514 35.5221 42.6961 35.6145 43 35.7899L52 40.9999L61 46.2699Z" stroke="#00008F" stroke-width="2" stroke-linecap="round" stroke-linejoin="round"/>
</svg>
