<svg viewBox="0 0 96 96" fill="none" xmlns="http://www.w3.org/2000/svg"><path d="M80.02 29.4H15.98C9.916 29.4 5 34.316 5 40.38v15.25c0 6.064 4.916 10.98 10.98 10.98h64.04c6.064 0 10.98-4.916 10.98-10.98V40.38c0-6.064-4.916-10.98-10.98-10.98z" stroke="currentColor" stroke-width="2" stroke-linecap="round" stroke-linejoin="round"/><path d="M48 59.28c6.23 0 11.28-5.05 11.28-11.28 0-6.23-5.05-11.28-11.28-11.28-6.23 0-11.28 5.05-11.28 11.28 0 6.23 5.05 11.28 11.28 11.28z" stroke="currentColor" stroke-width="2" stroke-linecap="round" stroke-linejoin="round"/><path d="M43.76 45.61h-.75c-1.11 0-2.01.9-2.01 2.01v.75c0 1.11.9 2.01 2.01 2.01h.75c1.11 0 2.01-.9 2.01-2.01v-.75c0-1.11-.9-2.01-2.01-2.01zm9.23 0h-.75c-1.11 0-2.01.9-2.01 2.01v.75c0 1.11.9 2.01 2.01 2.01h.75c1.11 0 2.01-.9 2.01-2.01v-.75c0-1.11-.9-2.01-2.01-2.01zm22.36 13.67c6.23 0 11.28-5.05 11.28-11.28 0-6.23-5.05-11.28-11.28-11.28-6.23 0-11.28 5.05-11.28 11.28 0 6.23 5.05 11.28 11.28 11.28z" stroke="currentColor" stroke-width="2" stroke-linecap="round" stroke-linejoin="round"/><path d="M71.11 45.61h-.75c-1.11 0-2.01.9-2.01 2.01v.75c0 1.11.9 2.01 2.01 2.01h.75c1.11 0 2.01-.9 2.01-2.01v-.75c0-1.11-.9-2.01-2.01-2.01zm9.23 0h-.75c-1.11 0-2.01.9-2.01 2.01v.75c0 1.11.9 2.01 2.01 2.01h.75c1.11 0 2.01-.9 2.01-2.01v-.75c0-1.11-.9-2.01-2.01-2.01zM20.65 59.28c6.23 0 11.28-5.05 11.28-11.28 0-6.23-5.05-11.28-11.28-11.28-6.23 0-11.28 5.05-11.28 11.28 0 6.23 5.05 11.28 11.28 11.28z" stroke="currentColor" stroke-width="2" stroke-linecap="round" stroke-linejoin="round"/><path d="M16.41 45.61h-.75c-1.11 0-2.01.9-2.01 2.01v.75c0 1.11.9 2.01 2.01 2.01h.75c1.11 0 2.01-.9 2.01-2.01v-.75c0-1.11-.9-2.01-2.01-2.01zm9.22 0h-.75c-1.11 0-2.01.9-2.01 2.01v.75c0 1.11.9 2.01 2.01 2.01h.75c1.11 0 2.01-.9 2.01-2.01v-.75c0-1.11-.9-2.01-2.01-2.01z" stroke="currentColor" stroke-width="2" stroke-linecap="round" stroke-linejoin="round"/></svg>