<svg width="96" height="96" viewBox="0 0 96 96" fill="none" xmlns="http://www.w3.org/2000/svg">
<path d="M70 43H53V26C53 24.6739 52.4732 23.4021 51.5355 22.4645C50.5979 21.5268 49.3261 21 48 21C46.6739 21 45.4021 21.5268 44.4645 22.4645C43.5268 23.4021 43 24.6739 43 26V43H26C24.6739 43 23.4021 43.5268 22.4645 44.4645C21.5268 45.4021 21 46.6739 21 48C21 49.3261 21.5268 50.5979 22.4645 51.5355C23.4021 52.4732 24.6739 53 26 53H43V70C43 71.3261 43.5268 72.5979 44.4645 73.5355C45.4021 74.4732 46.6739 75 48 75C49.3261 75 50.5979 74.4732 51.5355 73.5355C52.4732 72.5979 53 71.3261 53 70V53H70C71.3261 53 72.5979 52.4732 73.5355 51.5355C74.4732 50.5979 75 49.3261 75 48C75 46.6739 74.4732 45.4021 73.5355 44.4645C72.5979 43.5268 71.3261 43 70 43V43Z" stroke="#00008F" stroke-width="2" stroke-linecap="round" stroke-linejoin="round"/>
</svg>
