<svg width="96" height="96" viewBox="0 0 96 96" fill="none" xmlns="http://www.w3.org/2000/svg">
<path d="M52.0264 14.4665C52.0361 12.2574 50.253 10.4587 48.0439 10.4491C45.8348 10.4395 44.0361 12.2225 44.0265 14.4316L43.8869 46.4313C43.8772 48.6404 45.6603 50.4391 47.8694 50.4487C50.0785 50.4584 51.8772 48.6753 51.8868 46.4662L52.0264 14.4665Z" stroke="#00008F" stroke-width="2" stroke-linecap="round" stroke-linejoin="round"/>
<path d="M35.4 27.9998C30.9347 30.7158 27.4781 34.8153 25.5554 39.6752C23.6327 44.5351 23.349 49.8898 24.7473 54.9257C26.1457 59.9615 29.1497 64.4033 33.3029 67.5761C37.4561 70.7488 42.5315 72.4791 47.7578 72.5041C52.9842 72.529 58.0758 70.8473 62.2591 67.7143C66.4424 64.5813 69.4887 60.1684 70.9351 55.1461C72.3814 50.1238 72.1488 44.7667 70.2726 39.8886C68.3963 35.0106 64.9791 30.8783 60.54 28.1198C59.8777 27.7062 59.4028 27.0508 59.2161 26.2927C59.0294 25.5346 59.1456 24.7336 59.54 24.0598C59.745 23.7115 60.0183 23.4083 60.3434 23.1682C60.6685 22.9282 61.0388 22.7563 61.4319 22.6629C61.8251 22.5695 62.2331 22.5565 62.6315 22.6247C63.0298 22.6929 63.4102 22.8409 63.75 23.0598C69.2939 26.5097 73.5609 31.6743 75.9031 37.7696C78.2454 43.8648 78.535 50.5578 76.728 56.8325C74.921 63.1073 71.1161 68.6212 65.8908 72.5371C60.6656 76.4531 54.3054 78.5573 47.7757 78.5304C41.246 78.5034 34.9034 76.3467 29.7106 72.3878C24.5179 68.4288 20.7587 62.8837 19.0036 56.5942C17.2484 50.3048 17.5933 43.6144 19.9858 37.5387C22.3783 31.463 26.6877 26.3339 32.26 22.9298C32.6043 22.7122 32.9894 22.567 33.3917 22.503C33.794 22.4391 34.2051 22.4577 34.5999 22.5578C34.9948 22.658 35.3651 22.8374 35.6883 23.0853C36.0115 23.3332 36.2809 23.6444 36.48 23.9998C36.8489 24.6774 36.9425 25.4712 36.7414 26.2161C36.5402 26.9611 36.0598 27.5998 35.4 27.9998V27.9998Z" stroke="#00008F" stroke-width="2" stroke-linecap="round" stroke-linejoin="round"/>
</svg>
