<svg viewBox="0 0 96 96" fill="none" xmlns="http://www.w3.org/2000/svg"><path d="M25 71h-6a6 6 0 01-6-6V43a6 6 0 016-6h58a6 6 0 016 6v22a6 6 0 01-6 6h-6" stroke="currentColor" stroke-width="2" stroke-linecap="round" stroke-linejoin="round"/><path d="M20 43h8m43 15v19a2 2 0 01-2 2H27a2 2 0 01-2-2V58h46zm-50 0h54-54zm30.5-7a2.5 2.5 0 100-5 2.5 2.5 0 000 5zm10 0a2.5 2.5 0 100-5 2.5 2.5 0 000 5zm10 0a2.5 2.5 0 100-5 2.5 2.5 0 000 5zM61 17l10 10M33 65h30-30zm0 5h15-15zm38-33V27h-8a2 2 0 01-2-2v-8H27a2 2 0 00-2 2v18h46z" stroke="currentColor" stroke-width="2" stroke-linecap="round" stroke-linejoin="round"/></svg>