<svg viewBox="0 0 96 96" fill="none" xmlns="http://www.w3.org/2000/svg"><path d="M37.25 41.29v-.5h-8.83v17.48h8.83V41.29zm15.3 0v-.5h-8.83v17.48h8.83V41.29zm15.34 0v-.5h-8.84v17.48h8.84V41.29zM27.42 59.27V39.79h10.83v19.48H27.42zm15.3 0V39.79h10.83v19.48H42.72zm15.33 0V39.79h10.84v19.48H58.05z" stroke="currentColor"/><path d="M48.99 11.648a1.506 1.506 0 00-.18-.073v-.115l-.49-.01a1.498 1.498 0 00-1.165.52c-.066.072-.14.138-.219.195h0l-.004.004-27.91 20.73-1.214.9h2.352a1.5 1.5 0 011.5 1.5v49.25h52.95V35.3a1.5 1.5 0 011.5-1.5h2.092l-1.19-.898-27.21-20.55h0l-.01-.007a1.21 1.21 0 01-.253-.246 1.5 1.5 0 00-.548-.45zm-1.745-.974c.181-.082.37-.143.565-.18v.013l.507-.007a2.559 2.559 0 012.008.928l.037.045.046.035 28.465 21.556A1.201 1.201 0 0177.8 34.8s0 0 0 0h-2.19v49.588a1.2 1.2 0 01-1.2 1.192H21.903a1.24 1.24 0 01-1.209-1.425l.006-.038V34.8h-2.5s0 0 0 0a1.2 1.2 0 01-1.074-1.734l29.172-21.665.045-.033.037-.043a2.5 2.5 0 01.865-.651z" stroke="currentColor"/><path d="M54.44 84.5h.5V72.23c0-4.155-2.997-7.65-6.81-7.65-3.803 0-6.81 3.494-6.81 7.65V84.5h13.12zM40.32 72.23c0-4.8 3.55-8.65 7.81-8.65 4.268 0 7.81 3.878 7.81 8.65V85.5H40.32V72.23z" stroke="currentColor"/></svg>