<svg viewBox="0 0 96 96" fill="none" xmlns="http://www.w3.org/2000/svg"><path d="M45 67.72a2.58 2.58 0 002 0l7.34-2.94.49 4.72a5.25 5.25 0 001.4 3.06l5.8 6.11a.16.16 0 010 .19.19.19 0 01-.16.1H31.44a.23.23 0 01-.22-.15.22.22 0 010-.26L37 72a3.39 3.39 0 00.83-2.23v-5.25l7.17 3.2zM33.18 31.61a30.57 30.57 0 00-1.36 9.11c0 12 6.64 21.75 14.83 21.75C52.19 62.47 57 58 59.56 51.4L33.18 31.61z" stroke="currentColor" stroke-width="2" stroke-linecap="round" stroke-linejoin="round"/><path d="M33.17 25.9l30.65 22.73L33.17 25.9zm31.64 13.84l-17.3-13.49 17.3 13.49zM47 17a10.08 10.08 0 00-4 .85l17.94 14.08C58.86 23.22 53.41 17 47 17z" stroke="currentColor" stroke-width="2" stroke-miterlimit="10"/><path d="M46.52 31.2l18.29 13.34" stroke="currentColor" stroke-width="2" stroke-linejoin="round"/><path d="M19.42 61.89l-.69-5a4.749 4.749 0 010-1.19v-.22a2.14 2.14 0 014.17.49l.89 6.9a8.2 8.2 0 01-2.1 6.6l-3.85 4.18-.23.31" stroke="currentColor" stroke-width="2" stroke-linecap="round" stroke-linejoin="round"/><path d="M13.35 64.45c0-.37-1.55-8.38-1.55-8.38a3.6 3.6 0 01.47-2.56l3.87-6.34L22 41a1.23 1.23 0 011.64-.13 2.18 2.18 0 01.38 3L20 49l-1.28 6.47m-5.37 8.98a2.56 2.56 0 01-.6 1.72L11 68.25l2.35-3.8zm63.23-2.56l.69-5a4.74 4.74 0 000-1.19v-.22a2.14 2.14 0 00-4.17.49l-.89 6.9a8.2 8.2 0 002.1 6.6l3.85 4.18.23.31m-60.16.52a1.09 1.09 0 01.12 1.52l-1.56 1.83a1.06 1.06 0 01-1.51.12l-7.63-6.48A1.09 1.09 0 017.53 70l1.56-1.83A1.058 1.058 0 0110.6 68l7.63 6.48z" stroke="currentColor" stroke-width="2" stroke-linecap="round" stroke-linejoin="round"/><path d="M82.65 64.45c0-.37 1.55-8.38 1.55-8.38a3.6 3.6 0 00-.47-2.56l-3.87-6.34L74 41a1.23 1.23 0 00-1.64-.13 2.18 2.18 0 00-.38 3L76 49l1.28 6.47m5.37 8.98a2.56 2.56 0 00.6 1.72L85 68.25l-2.35-3.8zm-4.88 10.03a1.09 1.09 0 00-.12 1.52l1.56 1.83a1.06 1.06 0 001.51.12l7.63-6.48a1.09 1.09 0 00.12-1.47l-1.56-1.83A1.059 1.059 0 0085.4 68l-7.63 6.48z" stroke="currentColor" stroke-width="2" stroke-linecap="round" stroke-linejoin="round"/></svg>