<svg viewBox="0 0 96 96" fill="none" xmlns="http://www.w3.org/2000/svg"><path d="M16.13 58.63h11.53v3.55h12.05v3.56h12.05v3.55h12.06v3.56h12.05v3.56M71.76 61.6c.17.43-.1 1-.69 1.56a7.63 7.63 0 01-1.81 1.26l-.17.09c-.29.14-.59.28-.91.4m6.87-.79c.23.61-.15 1.39-1 2.19a11.067 11.067 0 01-2.52 1.75l-.24.12c-.4.2-.82.39-1.26.56M31.56 33.36c-1.29 2.65 0 5.32 2.33 6.76L46.78 48a3.94 3.94 0 002.38.53C54.56 51 57.91 55.07 60.1 61c1.33 3.6 6.93 1.59 5.6-2-2.18-5.88-5.51-10.6-10.34-13.81a12.11 12.11 0 015.64-4.8c.305-.136.586-.322.83-.55 1.813-.09 3.629.065 5.4.46a2.885 2.885 0 001.61-5.54 25.463 25.463 0 00-7.73-.64 3.33 3.33 0 00-2.21 1c-.213.046-.42.113-.62.2a17.001 17.001 0 00-6 4.4 6.787 6.787 0 00-1-.79l-4.36-2.67a17.33 17.33 0 002.34-9c0-3.85-6-3.47-5.94.34a10.69 10.69 0 01-1.47 5.54l-2.45-1.45a69.07 69.07 0 005.11-10.57c1.31-3.48-4.24-5.12-5.51-1.61a65.797 65.797 0 01-6.85 13 4.333 4.333 0 00-.55.86l-.04-.01z" stroke="currentColor" stroke-width="2" stroke-linecap="round" stroke-linejoin="round"/><path d="M26.71 34.9a5.69 5.69 0 100-11.38 5.69 5.69 0 000 11.38z" stroke="currentColor" stroke-width="2" stroke-linecap="round" stroke-linejoin="round"/></svg>