<svg viewBox="0 0 96 96" fill="none" xmlns="http://www.w3.org/2000/svg"><path d="M74 12a5 5 0 11-8 0H56v10a5 5 0 100 8v10h10a5 5 0 118 0h10V12H74zM42 82h28V72a5 5 0 110-8V54H60a5 5 0 10-8 0H42v28zm-3-47a5 5 0 013 1V26H14v10a5 5 0 110 8v10h10a5 5 0 108 0h10V44a5 5 0 11-3-9z" stroke="currentColor" stroke-width="2" stroke-linecap="round" stroke-linejoin="round"/><path d="M14 54v28h10a5 5 0 118 0h10V72a5 5 0 100-8" stroke="currentColor" stroke-width="2" stroke-linecap="round" stroke-linejoin="round"/></svg>