<svg width="96" height="96" viewBox="0 0 96 96" fill="none" xmlns="http://www.w3.org/2000/svg">
<path d="M48 82C51.866 82 55 78.866 55 75C55 71.134 51.866 68 48 68C44.134 68 41 71.134 41 75C41 78.866 44.134 82 48 82Z" stroke="#00008F" stroke-width="2" stroke-linecap="round" stroke-linejoin="round"/>
<path d="M54 54.0002V56.0002C54.0401 56.7987 53.9124 57.5968 53.6251 58.3429C53.3378 59.0891 52.8972 59.7667 52.3319 60.3321C51.7665 60.8974 51.0889 61.338 50.3427 61.6253C49.5966 61.9126 48.7985 62.0403 48 62.0002C47.2015 62.0403 46.4034 61.9126 45.6572 61.6253C44.9111 61.338 44.2335 60.8974 43.6681 60.3321C43.1028 59.7667 42.6622 59.0891 42.3749 58.3429C42.0876 57.5968 41.9598 56.7987 42 56.0002V49.0002C42 42.0002 49.29 40.0002 49.89 39.8502C51.733 39.2917 53.2905 38.0456 54.2399 36.3701C55.1894 34.6947 55.4579 32.7182 54.99 30.8502C54.6947 29.5442 54.0445 28.3452 53.111 27.3853C52.1776 26.4254 50.9972 25.7419 49.7 25.4102C48.0827 25.0179 46.3791 25.203 44.8837 25.9333C43.3883 26.6637 42.195 27.8935 41.51 29.4102C41.1083 30.3573 40.4395 31.1671 39.5854 31.7406C38.7313 32.3142 37.7287 32.6267 36.7 32.6402H36.14C35.2934 32.6229 34.4636 32.4006 33.7216 31.9925C32.9797 31.5843 32.3477 31.0025 31.8798 30.2967C31.4119 29.5909 31.122 28.7822 31.035 27.9399C30.9479 27.0976 31.0663 26.2467 31.38 25.4602C32.8101 21.7766 35.4164 18.6683 38.7941 16.6178C42.1719 14.5673 46.1321 13.6893 50.06 14.1202C54.14 14.6765 57.9157 16.5846 60.7835 19.5395C63.6514 22.4944 65.4458 26.3254 65.88 30.4202C66.88 39.7202 61.94 47.4202 54 50.0002V54.0002Z" stroke="#00008F" stroke-width="2" stroke-linecap="round" stroke-linejoin="round"/>
</svg>
