<svg width="96" height="96" viewBox="0 0 96 96" fill="none" xmlns="http://www.w3.org/2000/svg">
<path d="M78.86 34.8403H17.14C10.4353 34.8403 5 40.2756 5 46.9803V68.9103C5 75.6151 10.4353 81.0503 17.14 81.0503H78.86C85.5647 81.0503 91 75.6151 91 68.9103V46.9803C91 40.2756 85.5647 34.8403 78.86 34.8403Z" stroke="#00008F" stroke-width="2" stroke-linecap="round" stroke-linejoin="round"/>
<path d="M29.95 34.8402L58.18 14.9502" stroke="#00008F" stroke-width="2" stroke-linecap="round" stroke-linejoin="round"/>
<path d="M69.82 69.5004C76.1989 69.5004 81.37 64.3293 81.37 57.9504C81.37 51.5715 76.1989 46.4004 69.82 46.4004C63.4411 46.4004 58.27 51.5715 58.27 57.9504C58.27 64.3293 63.4411 69.5004 69.82 69.5004Z" stroke="#00008F" stroke-width="2" stroke-linecap="round" stroke-linejoin="round"/>
<path d="M19.76 67.5703H44.15M19.76 48.3203H44.15H19.76ZM19.76 57.9503H44.15H19.76Z" stroke="#00008F" stroke-width="2" stroke-linecap="round" stroke-linejoin="round"/>
</svg>
