<svg viewBox="0 0 96 96" fill="none" xmlns="http://www.w3.org/2000/svg"><path d="M78.86 34.84H17.14C10.435 34.84 5 40.276 5 46.98v21.93c0 6.705 5.435 12.14 12.14 12.14h61.72c6.705 0 12.14-5.435 12.14-12.14V46.98c0-6.704-5.435-12.14-12.14-12.14zm-48.91 0l28.23-19.89" stroke="currentColor" stroke-width="2" stroke-linecap="round" stroke-linejoin="round"/><path d="M69.82 69.5c6.379 0 11.55-5.17 11.55-11.55 0-6.379-5.171-11.55-11.55-11.55-6.379 0-11.55 5.172-11.55 11.55 0 6.38 5.171 11.55 11.55 11.55zm-50.06-1.93h24.39M19.76 48.32h24.39-24.39zm0 9.63h24.39-24.39z" stroke="currentColor" stroke-width="2" stroke-linecap="round" stroke-linejoin="round"/></svg>