<svg viewBox="0 0 96 96" fill="none" xmlns="http://www.w3.org/2000/svg"><path d="M28.14 39.27h37.72M34.88 81.34h3.03-3.03zm21.21 0h3.03-3.03zM35 55.84a1.76 1.76 0 01-1.76-1.76V46a1.77 1.77 0 013.53 0v8.08A1.77 1.77 0 0135 55.84v0zm0-21.53a1.77 1.77 0 01-1.76-1.77v-8.07a1.77 1.77 0 113.53 0v8.07A1.78 1.78 0 0135 34.31v0z" stroke="currentColor" stroke-width="2" stroke-linecap="round" stroke-linejoin="round"/><path d="M65.44 17.32a3.649 3.649 0 00-.23-.39 1.65 1.65 0 00-.11-.17 3.167 3.167 0 00-.37-.45l-.16-.16c-.13-.11-.26-.22-.4-.32a.832.832 0 00-.17-.13 3.083 3.083 0 00-.59-.33l-.16-.06a3.235 3.235 0 00-.53-.16l-.2-.05a4.392 4.392 0 00-.72-.07H32.18a4.05 4.05 0 00-4 4v57.35c.004.604.148 1.2.42 1.74.064.135.137.265.22.39l.12.17c.111.153.232.3.36.44l.17.17.39.32.15.11c.189.13.39.24.6.33h.16c.172.071.349.128.53.17h.2c.238.044.479.067.72.07h29.6a4.05 4.05 0 004-4V19.07a4 4 0 00-.38-1.75v0z" stroke="currentColor" stroke-width="2" stroke-linecap="round" stroke-linejoin="round"/></svg>