<svg viewBox="0 0 96 96" fill="none" xmlns="http://www.w3.org/2000/svg"><path d="M60.55 21.31L43.34 43.08l-7.88-10.25a3 3 0 00-4.4-.4 3.35 3.35 0 00-.33 4.57l9.47 12.33a4 4 0 006.29 0l18.78-23.86a3.35 3.35 0 00-.34-4.54 3 3 0 00-4.38.38v0z" stroke="currentColor" stroke-width="2" stroke-linecap="round" stroke-linejoin="round"/><path d="M84 14H12a4 4 0 00-4 4v46.88a4 4 0 004 4h72a4 4 0 004-4V18a4 4 0 00-4-4z" stroke="currentColor" stroke-width="2" stroke-linecap="round" stroke-linejoin="round"/><path d="M88 56.95H8m43.53 5.96h-7.06M31.53 82c5.88 0 8.23-13.12 8.23-13.12M64.47 82c-5.88 0-8.23-13.12-8.23-13.12M26.82 82h42.36" stroke="currentColor" stroke-width="2" stroke-linecap="round" stroke-linejoin="round"/></svg>