<svg viewBox="0 0 96 96" fill="none" xmlns="http://www.w3.org/2000/svg"><path d="M48.5 11h-.99c-7.318 0-13.25 5.932-13.25 13.25v47.5c0 7.318 5.932 13.25 13.25 13.25h.99c7.318 0 13.25-5.932 13.25-13.25v-47.5C61.75 16.932 55.818 11 48.5 11z" stroke="currentColor" stroke-width="2" stroke-linecap="round" stroke-linejoin="round"/><path d="M48 75.61a5.52 5.52 0 100-11.04 5.52 5.52 0 000 11.04zM50.21 48h3.31M42.48 29.22h3.31-3.31zm7.73 0h3.31-3.31zm-7.73 8.84h3.31-3.31zm7.73 0h3.31-3.31zM42.48 48h3.31-3.31z" stroke="currentColor" stroke-width="2" stroke-linecap="round" stroke-linejoin="round"/></svg>