<svg viewBox="0 0 96 96" fill="none" xmlns="http://www.w3.org/2000/svg"><path d="M19 79.85a2.49 2.49 0 01-3.51-3.53 2.46 2.46 0 013.51 0 2.5 2.5 0 010 3.53v0zm64.63-6.41l-16.89-16.9a.59.59 0 00-.83 0c-.68.68-3.14-1.78-2.47-2.46a.579.579 0 000-.85L61.14 51a.57.57 0 00-.71-.09l-8.81 8.8a.59.59 0 00.09.71l2.3 2.3a.58.58 0 00.84 0c.67-.67 3.13 1.79 2.46 2.47a.59.59 0 000 .82l16.91 16.9a6.67 6.67 0 009.42-9.43l-.01-.04z" stroke="currentColor" stroke-width="2" stroke-linecap="round" stroke-linejoin="round"/><path d="M67.06 34.89c1.71.67 3.549.947 5.38.81a12.502 12.502 0 0011.48-13.45 5.59 5.59 0 00-.41-2.37L76.22 29 68 28l-1-9 9.08-7.29a5.619 5.619 0 00-2.37-.42 12.52 12.52 0 00-13.45 11.49 12.25 12.25 0 00.81 5.38l-15 14-18.93-18.89-1.28-4.14-8.24-6-4.22 4.19 6.25 8.12 4.26 1.17 18.77 18.78-30.3 28.4a6.53 6.53 0 00.17 9.34c2.62 2.6 6.64 1.88 9.24-.85L50 52.73 53.28 56l3.25-3.36-3.29-3.28 13.82-14.47z" stroke="currentColor" stroke-width="2" stroke-linecap="round" stroke-linejoin="round"/></svg>