<svg viewBox="0 0 96 96" fill="none" xmlns="http://www.w3.org/2000/svg"><path d="M26.5 76.25a2.5 2.5 0 100-5 2.5 2.5 0 000 5zm48.03-50.67a12 12 0 00-8-11.3v8h-8v-8a12 12 0 00-2 21.68v10.62h12V36a12 12 0 006-10.42z" stroke="currentColor" stroke-width="2" stroke-linecap="round" stroke-linejoin="round"/><path d="M56.56 36v10.62H71c2 0 3.65 1.71 3.84 6.92a7.08 7.08 0 01-1.08 3.9 4.66 4.66 0 01.07 6.33 5.904 5.904 0 01-.75.75 4.74 4.74 0 01-.23 6 5.15 5.15 0 01-.81.8 4.94 4.94 0 01-1.42 5.14c-.83.8-1.55 1.89-4.67 1.89H34m.21-32.67h4.12c9.79 0 9.45-9.44 9.45-9.44v-6.13a4.38 4.38 0 012.68-4M19 42.72h15v39H19v-39z" stroke="currentColor" stroke-width="2" stroke-linecap="round" stroke-linejoin="round"/></svg>