<svg viewBox="0 0 96 96" fill="none" xmlns="http://www.w3.org/2000/svg"><path d="M89.96 28.684a24.101 24.101 0 00-.603-3.659L76.314 40.728l-17.657-.489-5.897-18.713L68.224 6.13c-1.63-.19-3.273-.22-4.909-.09a24.678 24.678 0 00-22.723 26.518 24.417 24.417 0 002.601 9.204L6.994 77.768a3.534 3.534 0 000 4.988l6.272 6.249a3.568 3.568 0 005.022 0l36.188-36.029s.068-.09.114-.125a24.746 24.746 0 0035.37-24.167v0zM17.697 82.165a2.704 2.704 0 01-3.829 0 2.68 2.68 0 010-3.806 2.727 2.727 0 013.829 0 2.683 2.683 0 010 3.806v0z" stroke="currentColor" stroke-width="2" stroke-linecap="round" stroke-linejoin="round"/></svg>