<svg viewBox="0 0 96 96" fill="none" xmlns="http://www.w3.org/2000/svg"><path d="M56.85 35.34A20.41 20.41 0 1139 35.4m-3.4-3.63a25.24 25.24 0 1024.69-.07" stroke="currentColor" stroke-width="2" stroke-linecap="round" stroke-linejoin="round"/><path d="M29.26 25.07l6.34 6.7L39 35.4l9 9.32h.13l8.77-9.38 3.44-3.64 6.44-6.81a.37.37 0 000-.47L62 17.06a.21.21 0 00-.12-.06H34.21c-.06 0-.13.06-.19.06l-4.93 7.58a.2.2 0 000 .25l.17.18" stroke="currentColor" stroke-width="2" stroke-linecap="round" stroke-linejoin="round"/><path d="M65.72 25.07H29.26m19.16-7.5l6.44 7.07 6.5-7.07H48.42zm-13.71 0l6.51 7.07 6.44-7.07H34.71zm6.82 7.64l1.66 4.82 1.31 3.83 3.52 10.86 3.55-10.84 1.41-4.13 1.56-4.54H41.53zm-12.27-.14h-.02.02z" stroke="currentColor" stroke-width="2" stroke-linecap="round" stroke-linejoin="round"/></svg>