<svg width="96" height="96" viewBox="0 0 96 96" fill="none" xmlns="http://www.w3.org/2000/svg">
<path d="M34.86 80.8501L14.94 60.9301L34.86 80.8501ZM30.415 76.4051L18.408 88.4121L7.55396 77.5581L19.561 65.5501L30.415 76.4051ZM22.95 76.0301L18.04 80.9401L22.95 76.0301ZM17.27 75.6901L17.31 75.6501L17.27 75.6901ZM19.94 73.0201L17.27 75.6901L19.94 73.0201ZM88.435 18.4351L76.428 30.4421L65.574 19.5881L77.581 7.58008L88.435 18.4351Z" stroke="#00008F" stroke-width="2" stroke-linecap="round" stroke-linejoin="round"/>
<path d="M34.8599 80.8501L38.5799 71.1201L52.4799 57.2101L38.5799 43.3101L24.6699 57.2101L14.9399 60.9301M80.9699 18.0701L76.0599 22.9801L80.9699 18.0701ZM75.2899 17.7301L75.3299 17.6901L75.2899 17.7301ZM77.9599 15.0601L75.2899 17.7301L77.9599 15.0601Z" stroke="#00008F" stroke-width="2" stroke-linecap="round" stroke-linejoin="round"/>
<path d="M33.4819 55.8331L38.3619 50.9541L44.8809 57.4741L39.9999 62.3531L33.4819 55.8331ZM58.0479 31.6121L64.2069 25.4531L70.5709 31.8171L64.4119 37.9771L58.0479 31.6121Z" stroke="#00008F" stroke-width="2" stroke-linecap="round" stroke-linejoin="round"/>
<path d="M50.638 31.428L64.023 18.043L77.988 32.008L64.603 45.394L50.638 31.428ZM25.34 63.982L29.385 59.937L35.905 66.457L31.86 70.5L25.34 63.982Z" stroke="#00008F" stroke-width="2" stroke-linecap="round" stroke-linejoin="round"/>
</svg>
