<svg viewBox="0 0 96 96" fill="none" xmlns="http://www.w3.org/2000/svg"><path d="M34.86 80.85L14.94 60.93l19.92 19.92zm-4.445-4.445L18.408 88.412 7.554 77.558 19.561 65.55l10.854 10.855zm-7.465-.375l-4.91 4.91 4.91-4.91zm-5.68-.34l.04-.04-.04.04zm2.67-2.67l-2.67 2.67 2.67-2.67zm68.495-54.585L76.428 30.442 65.574 19.588 77.581 7.58l10.854 10.855z" stroke="currentColor" stroke-width="2" stroke-linecap="round" stroke-linejoin="round"/><path d="M34.86 80.85l3.72-9.73 13.9-13.91-13.9-13.9-13.91 13.9-9.73 3.72m66.03-42.86l-4.91 4.91 4.91-4.91zm-5.68-.34l.04-.04-.04.04zm2.67-2.67l-2.67 2.67 2.67-2.67z" stroke="currentColor" stroke-width="2" stroke-linecap="round" stroke-linejoin="round"/><path d="M33.482 55.833l4.88-4.879 6.519 6.52L40 62.354l-6.518-6.52zm24.566-24.22l6.159-6.16 6.364 6.364-6.16 6.16-6.363-6.365z" stroke="currentColor" stroke-width="2" stroke-linecap="round" stroke-linejoin="round"/><path d="M50.638 31.428l13.385-13.385 13.965 13.965-13.385 13.386-13.965-13.966zM25.34 63.982l4.045-4.045 6.52 6.52L31.86 70.5l-6.52-6.518z" stroke="currentColor" stroke-width="2" stroke-linecap="round" stroke-linejoin="round"/></svg>