<svg viewBox="0 0 96 96" fill="none" xmlns="http://www.w3.org/2000/svg"><path d="M48.13 21.53c-3.09 0-6.07-2.37-7.27-5.17-1.94 4-4.28 7.23-10.17 7.23h-5.88v8.27c0 6.84 4.28 12.39 11.77 12.39 7.49 0 11.77-5.55 11.77-12.39V21.53h-.22z" stroke="currentColor" stroke-width="2" stroke-linecap="round" stroke-linejoin="round"/><path d="M48.35 32.89a12.1 12.1 0 005.36-10.33v-6.2a4.209 4.209 0 00-4.29-4.13A15.46 15.46 0 0036 5h-1.27a15 15 0 00-15.27 14.74v2.54c0 4 2.14 8.55 5.35 10.61m4.28 8.88v5.48l-9.3 1.47c-7 1-12.11 6.57-12.11 13.12v4.83a4.24 4.24 0 003.61 4.06l11.85 2.11m20.93-31.07v5.48l7.8 1.25m-7.25 25.13c1.94-.2 3.49-.44 5.4-.79l11.85-2.11a4.23 4.23 0 003.61-4.06v-4.83a12.79 12.79 0 00-4.23-9.43" stroke="currentColor" stroke-width="2" stroke-linecap="round" stroke-linejoin="round"/><path d="M26.19 47.7l8.75 10a2.329 2.329 0 003.38.27m10.676-10.658l10.762 10.762-10.48 10.48-10.762-10.762 10.48-10.48z" stroke="currentColor" stroke-width="2" stroke-linecap="round" stroke-linejoin="round"/><path d="M81.907 18.754l6.406 6.407-30.738 30.737-6.406-6.406 30.738-30.738zM21.92 78.74l6.406 6.406L22.472 91l-6.407-6.407 5.855-5.853zm27.168-24.35l3.585 3.585-3.494 3.493-3.585-3.585 3.494-3.493z" stroke="currentColor" stroke-width="2" stroke-linecap="round" stroke-linejoin="round"/><path d="M34.16 62.68l10.77 10.76-10.5 10.5-2.25 5.1-14.27-14.27 5.76-1.6 10.49-10.49z" stroke="currentColor" stroke-width="2" stroke-linecap="round" stroke-linejoin="round"/><path d="M34.165 77.024L30.58 73.44l3.585-3.585 3.585 3.585-3.585 3.584z" stroke="currentColor" stroke-width="2" stroke-linecap="round" stroke-linejoin="round"/></svg>