<svg viewBox="0 0 96 96" fill="none" xmlns="http://www.w3.org/2000/svg"><path d="M84 67H25l-2 2h-5v3.1a7.759 7.759 0 007.73 7.9h43.05C75.29 80 84 74.66 84 68.14V67z" stroke="currentColor" stroke-width="2" stroke-linecap="round" stroke-linejoin="round"/><path d="M14 80v-6.93M54 60v7m-35.47 8h46.9c6.28 0 14.81.43 17.57-3M41 60V16.5a2.5 2.5 0 015 0V60m-31 7h3v6.07h-6V70a3 3 0 013-3zm26-50a110.27 110.27 0 01-10 18.49A169.057 169.057 0 0118 53h23V17zm5 38h32a45.85 45.85 0 00-11.11-24.19C56.76 19.26 46 17 46 17v38zM29 67l6-7h18.53c9 0 12.71 4.2 15.47 7H29z" stroke="currentColor" stroke-width="2" stroke-linecap="round" stroke-linejoin="round"/></svg>