<svg viewBox="0 0 96 96" fill="none" xmlns="http://www.w3.org/2000/svg"><path d="M21.79 72.13c4.694 0 8.5-3.868 8.5-8.64s-3.806-8.64-8.5-8.64-8.5 3.868-8.5 8.64 3.806 8.64 8.5 8.64z" stroke="currentColor" stroke-width="2" stroke-linecap="round" stroke-linejoin="round"/><path d="M21.79 67.41c2.132 0 3.86-1.755 3.86-3.92s-1.728-3.92-3.86-3.92c-2.132 0-3.86 1.755-3.86 3.92s1.728 3.92 3.86 3.92zm51.12 4.72c4.694 0 8.5-3.868 8.5-8.64s-3.806-8.64-8.5-8.64-8.5 3.868-8.5 8.64 3.806 8.64 8.5 8.64z" stroke="currentColor" stroke-width="2" stroke-linecap="round" stroke-linejoin="round"/><path d="M72.91 67.41c2.132 0 3.86-1.755 3.86-3.92s-1.728-3.92-3.86-3.92c-2.132 0-3.86 1.755-3.86 3.92s1.728 3.92 3.86 3.92z" stroke="currentColor" stroke-width="2" stroke-linecap="round" stroke-linejoin="round"/><path d="M30.53 65.35h33.41m18.32.02h7.09A3.65 3.65 0 0093 61.72v-8.47c0-1.87-.67-3.38-2.53-3.38 0-3-2-6.39-4.92-7.09L69.31 37.9S58 28 52.33 25.39C46.66 22.78 35 25 26 26.46 22 29 11.44 38.75 5.53 38.75v7.59A2.53 2.53 0 003 48.87V60.8a3 3 0 001.89 2.8l4.39 1.77h3.53M82 42.28c.85 3.37 3 7.59 8.44 7.59" stroke="currentColor" stroke-width="2" stroke-linecap="round" stroke-linejoin="round"/><path d="M30 60h35M3 60h11m67 0h12M41 31v29M27 35v9.12m39.78 0H18.72A163.496 163.496 0 0130 32c8.79-1.48 16.94-2.29 20-1a158.654 158.654 0 0116.78 13.12zM5.53 38.75v7.59h5.06c0-5.06-5.06-7.59-5.06-7.59z" stroke="currentColor" stroke-width="2" stroke-linecap="round" stroke-linejoin="round"/></svg>