<svg viewBox="0 0 96 96" fill="none" xmlns="http://www.w3.org/2000/svg"><path d="M23 54V38m-9-5v-9a4 4 0 014-4h60a4 4 0 014 4v44a4 4 0 01-4 4H18a4 4 0 01-4-4V33z" stroke="currentColor" stroke-width="2" stroke-linecap="round" stroke-linejoin="round"/><path d="M23 33v-7a1 1 0 011-1h52a1 1 0 011 1v40a1 1 0 01-1 1H24a1 1 0 01-1-1v-7" stroke="currentColor" stroke-width="2" stroke-linecap="round" stroke-linejoin="round"/><path d="M25.5 33h-5a2.5 2.5 0 000 5h5a2.5 2.5 0 000-5zm0 21h-5a2.5 2.5 0 000 5h5a2.5 2.5 0 000-5zM70 33v26M23 72h9v5h-9v-5zm41 0h9v5h-9v-5zM48 59c7.18 0 13-5.82 13-13s-5.82-13-13-13-13 5.82-13 13 5.82 13 13 13z" stroke="currentColor" stroke-width="2" stroke-linecap="round" stroke-linejoin="round"/><path d="M52 52h-9l.27-.4A10.33 10.33 0 0045 45.88V42a3 3 0 016 0m-8 4h6" stroke="currentColor" stroke-width="2" stroke-linecap="round" stroke-linejoin="round"/></svg>