<svg viewBox="0 0 96 96" fill="none" xmlns="http://www.w3.org/2000/svg"><path d="M61.78 49.88l-38.16-6.21a6 6 0 01-4.95-6.84L20.62 25a6 6 0 016.89-4.92L75 27.81l-11.13 21a2 2 0 01-2.09 1.07z" stroke="currentColor" stroke-width="2" stroke-linecap="round" stroke-linejoin="round"/><path d="M49.36 47.86l-.33 2a4 4 0 01-4.6 3.29l-7.91-1.29a4 4 0 01-3.31-4.58l.32-2 15.83 2.58zm-8.97-25.69l-1.62 9.84 1.62-9.84zm5.93.97l-.97 5.9.97-5.9zM24.61 37.78l1.98.32-1.98-.32zm6.92 1.12l1.98.33-1.98-.33zM73 31.53l5.28.86A2 2 0 0180 34.67l-1.65 9.83a2 2 0 01-2.3 1.65l-9.89-1.61L73 31.53zm-58 26.6h.57A9.43 9.43 0 0125 67.57 9.43 9.43 0 0115.57 77H15V58.13z" stroke="currentColor" stroke-width="2" stroke-linecap="round" stroke-linejoin="round"/><path d="M24.67 70.05h14.29l.28-.1.12-.07c.106-.045.207-.102.3-.17l.09-.07a2.05 2.05 0 00.27-.24l.07-.08c.088-.09.165-.191.23-.3a.562.562 0 000-.08c.07-.111.13-.228.18-.35v-.09c.053-.125.09-.256.11-.39l2.31-15-4.94-.8-1.94 13H24.67" stroke="currentColor" stroke-width="2" stroke-linecap="round" stroke-linejoin="round"/></svg>