<svg width="96" height="96" viewBox="0 0 96 96" fill="none" xmlns="http://www.w3.org/2000/svg">
<path d="M66 63.0002C63.4571 63.0042 61.0113 63.9768 59.16 65.7202L36.42 51.5102C37.1889 49.2402 37.1889 46.7802 36.42 44.5102L59.16 30.2802C60.8381 31.8537 63.0074 32.8005 65.3022 32.961C67.5969 33.1215 69.8769 32.486 71.7577 31.1615C73.6385 29.837 75.0052 27.9046 75.6273 25.6899C76.2495 23.4752 76.0891 21.1138 75.1731 19.0036C74.2572 16.8935 72.6417 15.1636 70.599 14.1057C68.5563 13.0477 66.2114 12.7264 63.9594 13.1958C61.7074 13.6652 59.6861 14.8967 58.2363 16.6826C56.7864 18.4686 55.9966 20.6998 56 23.0002C55.9977 24.0172 56.1494 25.0287 56.45 26.0002L33.72 40.1702C32.1759 38.6465 30.2156 37.6135 28.0859 37.2009C25.9561 36.7884 23.752 37.0148 21.7506 37.8516C19.7491 38.6885 18.0399 40.0985 16.8377 41.9042C15.6355 43.71 14.994 45.8309 14.994 48.0002C14.994 50.1695 15.6355 52.2904 16.8377 54.0962C18.0399 55.9019 19.7491 57.3119 21.7506 58.1487C23.752 58.9856 25.9561 59.212 28.0859 58.7995C30.2156 58.3869 32.1759 57.3539 33.72 55.8302L56.45 70.0002C55.8178 72.0104 55.8368 74.169 56.5044 76.1678C57.1719 78.1666 58.4537 79.9034 60.167 81.1303C61.8803 82.3573 63.9373 83.0117 66.0446 83C68.1519 82.9884 70.2016 82.3114 71.9012 81.0656C73.6008 79.8198 74.8635 78.0689 75.5089 76.0629C76.1543 74.0569 76.1495 71.8982 75.4951 69.8951C74.8408 67.8919 73.5704 66.1467 71.8652 64.9085C70.16 63.6703 68.1073 63.0024 66 63.0002V63.0002Z" stroke="#00008F" stroke-width="2" stroke-linecap="round" stroke-linejoin="round"/>
</svg>
