<svg viewBox="0 0 96 96" fill="none" xmlns="http://www.w3.org/2000/svg"><path d="M77 37c0 32-25 46-29 46S19 69 19 37V22c9 0 17-1 29-8 12 7 20 8 29 8v15z" stroke="currentColor" stroke-width="2" stroke-linecap="round" stroke-linejoin="round"/><path d="M69.48 28.67L28.96 53.82M26 28.72V37c0 25 17.18 36.62 22 38.76C52.82 73.62 70 62 70 37v-8.28A55.72 55.72 0 0148 22a55.72 55.72 0 01-22 6.72v0zm7.68 34.17l36.2-22.47-36.2 22.47z" stroke="currentColor" stroke-width="2" stroke-linecap="round" stroke-linejoin="round"/></svg>