<svg width="96" height="96" viewBox="0 0 96 96" fill="none" xmlns="http://www.w3.org/2000/svg">
<path d="M90.44 25.8198C90.1241 25.2992 89.6855 24.8639 89.1625 24.5519C88.6396 24.2399 88.0482 24.0606 87.44 24.0298L27.7 21.2898L24.86 15.0498H17.12L29.4 58.3298L26.59 68.1098H34.43L36.43 61.6298L74.23 59.8398C74.91 59.7972 75.5662 59.5735 76.1306 59.192C76.695 58.8104 77.1471 58.2849 77.44 57.6698L90.63 29.3198C90.8992 28.7686 91.023 28.1577 90.9898 27.5451C90.9565 26.9326 90.7673 26.3387 90.44 25.8198V25.8198Z" stroke="#00008F" stroke-width="2" stroke-linecap="round" stroke-linejoin="round"/>
<path d="M76.08 72.9998H79.46C79.7925 73.0002 80.1217 72.9331 80.4275 72.8026C80.7334 72.6722 81.0096 72.4811 81.2396 72.2409C81.4695 72.0006 81.6483 71.7163 81.7653 71.405C81.8822 71.0938 81.9349 70.762 81.92 70.4298C81.869 69.7756 81.5687 69.166 81.0811 68.7268C80.5936 68.2876 79.956 68.0525 79.3 68.0698H22.64C21.9742 68.0477 21.326 68.286 20.8331 68.7342C20.3401 69.1823 20.0413 69.8049 20 70.4698C19.9906 70.8004 20.0479 71.1295 20.1686 71.4374C20.2892 71.7453 20.4707 72.0258 20.7023 72.2619C20.9338 72.4981 21.2105 72.6852 21.516 72.812C21.8214 72.9388 22.1493 73.0026 22.48 72.9998H24.61M33.44 73.0398H67.25M37.45 32.6398C37.4489 32.3064 37.3806 31.9766 37.2492 31.6702C37.1178 31.3638 36.9259 31.087 36.685 30.8564C36.4442 30.6258 36.1593 30.4462 35.8475 30.3282C35.5356 30.2102 35.2032 30.1564 34.87 30.1698C34.2158 30.2256 33.6076 30.5287 33.1691 31.0174C32.7306 31.506 32.4949 32.1435 32.51 32.7998V47.2898C32.4949 47.9462 32.7306 48.5836 33.1691 49.0723C33.6076 49.5609 34.2158 49.864 34.87 49.9198C35.2032 49.9333 35.5356 49.8794 35.8475 49.7614C36.1593 49.6435 36.4442 49.4638 36.685 49.2332C36.9259 49.0027 37.1178 48.7259 37.2492 48.4195C37.3806 48.113 37.4489 47.7832 37.45 47.4498V32.6398ZM25.11 15.0498C25.443 15.0501 25.7725 14.9831 26.0789 14.8527C26.3853 14.7224 26.6622 14.5314 26.8929 14.2914C27.1236 14.0513 27.3034 13.7671 27.4215 13.4558C27.5396 13.1445 27.5935 12.8125 27.58 12.4798C27.5248 11.8344 27.2288 11.2333 26.7508 10.7961C26.2728 10.3589 25.6478 10.1175 25 10.1198H7.63001C6.97365 10.1047 6.33622 10.3404 5.84757 10.7789C5.35892 11.2174 5.05582 11.8257 5.00001 12.4798C4.98653 12.8125 5.04045 13.1445 5.15853 13.4558C5.27661 13.7671 5.45641 14.0513 5.68713 14.2914C5.91785 14.5314 6.19472 14.7224 6.5011 14.8527C6.80748 14.9831 7.13706 15.0501 7.47001 15.0498H25.11ZM47.32 32.6398C47.3203 32.306 47.253 31.9756 47.122 31.6685C46.9911 31.3614 46.7993 31.0841 46.5581 30.8532C46.317 30.6223 46.0315 30.4428 45.7191 30.3253C45.4066 30.2078 45.0735 30.155 44.74 30.1698C44.0859 30.2256 43.4776 30.5287 43.0391 31.0174C42.6006 31.506 42.3649 32.1435 42.38 32.7998V47.2898C42.3649 47.9462 42.6006 48.5836 43.0391 49.0723C43.4776 49.5609 44.0859 49.864 44.74 49.9198C45.0735 49.9347 45.4066 49.8818 45.7191 49.7643C46.0315 49.6469 46.317 49.4673 46.5581 49.2365C46.7993 49.0056 46.9911 48.7282 47.122 48.4212C47.253 48.1141 47.3203 47.7837 47.32 47.4498V32.6398ZM57.19 32.6398C57.1903 32.3069 57.1232 31.9773 56.9929 31.6709C56.8626 31.3645 56.6716 31.0877 56.4316 30.8569C56.1915 30.6262 55.9073 30.4464 55.596 30.3283C55.2847 30.2103 54.9527 30.1563 54.62 30.1698C53.9658 30.2256 53.3576 30.5287 52.9191 31.0174C52.4806 31.506 52.2449 32.1435 52.26 32.7998V47.2898C52.2449 47.9462 52.4806 48.5836 52.9191 49.0723C53.3576 49.5609 53.9658 49.864 54.62 49.9198C54.9527 49.9333 55.2847 49.8794 55.596 49.7613C55.9073 49.6432 56.1915 49.4634 56.4316 49.2327C56.6716 49.002 56.8626 48.7251 56.9929 48.4187C57.1232 48.1124 57.1903 47.7828 57.19 47.4498V32.6398ZM67.07 32.6398C67.0689 32.3064 67.0006 31.9766 66.8692 31.6702C66.7378 31.3638 66.5459 31.087 66.305 30.8564C66.0642 30.6258 65.7793 30.4462 65.4675 30.3282C65.1556 30.2102 64.8232 30.1564 64.49 30.1698C63.8358 30.2256 63.2276 30.5287 62.7891 31.0174C62.3506 31.506 62.1149 32.1435 62.13 32.7998V47.2898C62.1149 47.9462 62.3506 48.5836 62.7891 49.0723C63.2276 49.5609 63.8358 49.864 64.49 49.9198C64.8232 49.9333 65.1556 49.8794 65.4675 49.7614C65.7793 49.6435 66.0642 49.4638 66.305 49.2332C66.5459 49.0027 66.7378 48.7259 66.8692 48.4195C67.0006 48.113 67.0689 47.7832 67.07 47.4498V32.6398ZM76.57 32.6398C76.5703 32.3069 76.5032 31.9773 76.3729 31.6709C76.2426 31.3645 76.0516 31.0877 75.8116 30.8569C75.5715 30.6262 75.2873 30.4464 74.976 30.3283C74.6647 30.2103 74.3327 30.1563 74 30.1698C73.3458 30.2256 72.7376 30.5287 72.2991 31.0174C71.8606 31.506 71.6249 32.1435 71.64 32.7998V47.2898C71.6249 47.9462 71.8606 48.5836 72.2991 49.0723C72.7376 49.5609 73.3458 49.864 74 49.9198C74.3327 49.9333 74.6647 49.8794 74.976 49.7613C75.2873 49.6432 75.5715 49.4634 75.8116 49.2327C76.0516 49.002 76.2426 48.7251 76.3729 48.4187C76.5032 48.1124 76.5703 47.7828 76.57 47.4498V32.6398Z" stroke="#00008F" stroke-width="2" stroke-linecap="round" stroke-linejoin="round"/>
<path d="M29.12 85.89C33.0357 85.89 36.21 82.7157 36.21 78.8C36.21 74.8843 33.0357 71.71 29.12 71.71C25.2043 71.71 22.03 74.8843 22.03 78.8C22.03 82.7157 25.2043 85.89 29.12 85.89Z" stroke="#00008F" stroke-width="2" stroke-linecap="round" stroke-linejoin="round"/>
<path d="M71.64 85.89C75.5557 85.89 78.73 82.7157 78.73 78.8C78.73 74.8843 75.5557 71.71 71.64 71.71C67.7243 71.71 64.55 74.8843 64.55 78.8C64.55 82.7157 67.7243 85.89 71.64 85.89Z" stroke="#00008F" stroke-width="2" stroke-linecap="round" stroke-linejoin="round"/>
</svg>
