<svg viewBox="0 0 96 96" fill="none" xmlns="http://www.w3.org/2000/svg"><path d="M90.44 25.82a3.729 3.729 0 00-3-1.79L27.7 21.29l-2.84-6.24h-7.74L29.4 58.33l-2.81 9.78h7.84l2-6.48 37.8-1.79a3.82 3.82 0 003.21-2.17l13.19-28.35a3.6 3.6 0 00-.19-3.5v0z" stroke="currentColor" stroke-width="2" stroke-linecap="round" stroke-linejoin="round"/><path d="M76.08 73h3.38a2.458 2.458 0 002.46-2.57 2.56 2.56 0 00-2.62-2.36H22.64a2.56 2.56 0 00-2.64 2.4A2.46 2.46 0 0022.48 73h2.13m8.83.04h33.81m-29.8-40.4a2.48 2.48 0 00-2.58-2.47 2.58 2.58 0 00-2.36 2.63v14.49a2.58 2.58 0 002.36 2.63 2.479 2.479 0 002.58-2.47V32.64zM25.11 15.05a2.468 2.468 0 002.47-2.57A2.58 2.58 0 0025 10.12H7.63A2.58 2.58 0 005 12.48a2.47 2.47 0 002.47 2.57h17.64zm22.21 17.59a2.47 2.47 0 00-2.58-2.47 2.58 2.58 0 00-2.36 2.63v14.49a2.58 2.58 0 002.36 2.63 2.469 2.469 0 002.58-2.47V32.64zm9.87 0a2.47 2.47 0 00-2.57-2.47 2.58 2.58 0 00-2.36 2.63v14.49a2.58 2.58 0 002.36 2.63 2.47 2.47 0 002.57-2.47V32.64zm9.88 0a2.48 2.48 0 00-2.58-2.47 2.58 2.58 0 00-2.36 2.63v14.49a2.58 2.58 0 002.36 2.63 2.479 2.479 0 002.58-2.47V32.64zm9.5 0A2.47 2.47 0 0074 30.17a2.58 2.58 0 00-2.36 2.63v14.49A2.58 2.58 0 0074 49.92a2.47 2.47 0 002.57-2.47V32.64z" stroke="currentColor" stroke-width="2" stroke-linecap="round" stroke-linejoin="round"/><path d="M29.12 85.89a7.09 7.09 0 100-14.18 7.09 7.09 0 000 14.18zm42.52 0a7.09 7.09 0 100-14.18 7.09 7.09 0 000 14.18z" stroke="currentColor" stroke-width="2" stroke-linecap="round" stroke-linejoin="round"/></svg>