<svg viewBox="0 0 96 96" fill="none" xmlns="http://www.w3.org/2000/svg"><path d="M14.74 35.363a3.094 3.094 0 013.093 3.094v44.348a2.063 2.063 0 01-2.063 2.063h-2.06a2.063 2.063 0 01-2.064-2.063V38.457a3.094 3.094 0 013.094-3.094zm63.027 36.875H84v10.389a2.078 2.078 0 01-2.079 2.078h-2.076a2.08 2.08 0 01-2.078-2.078V72.238zM17.913 55.99h56.073c2.656 0 5.203 1.087 7.081 3.021C82.945 60.945 84 63.568 84 66.304H17.913V55.99zm61.076 16.248H17.913M84 72.116V66.25M17.833 45.677c10.251 0 18.564 4.621 18.564 10.314m26.357-36.1h-8.25v-8.25a1.03 1.03 0 00-1.031-1.03H43.16a1.03 1.03 0 00-1.031 1.03v8.25h-8.252a1.03 1.03 0 00-1.031 1.03v10.314a1.03 1.03 0 001.03 1.031h8.251v8.25a1.03 1.03 0 001.03 1.031h10.314a1.03 1.03 0 001.03-1.03v-8.249h8.251a1.03 1.03 0 001.03-1.03V20.923a1.03 1.03 0 00-1.028-1.033z" stroke="currentColor" stroke-width="2" stroke-linecap="round" stroke-linejoin="round"/></svg>