<svg viewBox="0 0 96 96" fill="none" xmlns="http://www.w3.org/2000/svg"><path d="M31.75 86.918l2.148-50.646m-.757-.02c1.09-.2 2.92-1.412 1.77-8.273-.197-1.26 1.905-1.957 1.164-1.985a8.565 8.565 0 00-3.493.324c-2.269.516-4.96.23-5.43 3.255 2.103 4.265-1.996 10.554.242 7.157 2.027-3.063.923-7.157.923-7.157-.922-3.818 3.993-2.415 4.386-1.48l-.242 6.833s.847.449-1.679 1.289l2.36.038zm-18.526-4.418c1.044-.276 2.647-1.603.348-8.35-.424-1.231 1.512-2.07.817-2.042-1.21-.055-2.414.139-3.433.553-2.148.668-4.885.563-4.825 3.608 2.813 4.094-.197 10.63 1.512 7.128 1.513-3.177-.317-7.176-.317-7.176-1.512-3.684 3.554-2.663 4.114-1.766l.922 6.814s.907.382-1.512 1.394l2.374-.163zm7.259 50.465l-6.518-50.503 6.518 50.503zM78.603 6.964c-2.375-.095-4.764 1.995-6.745 4.027-3.025 3.073-2.92 6.099-3.161 9.887-.121 1.804-1.377 17.426-4.537 32.982-3.403 17.884-3.448 17.894-7.623 34.222l11.48.955c2.419-16.51 2.374-16.52 6.049-34.356 3.16-15.556 8.106-30.873 8.71-32.648 1.256-3.703 2.526-6.623.833-10.068-1.104-2.32-2.602-4.724-5.006-5z" stroke="currentColor" stroke-width="2" stroke-linecap="round" stroke-linejoin="round"/><path d="M74.066 54.68c6.987 16.864 6.972 16.701 14.412 32.4l-11.236 1.91c-3.176-8.98-4.689-12.989-6.488-17.694m-6.866-16.614c-6.292-14.926-14.171-29.308-15.124-30.987-2.027-3.58-3.872-6.366-2.919-9.916.635-2.357 1.603-4.858 3.872-5.325 2.344-.296 5.142 1.584 7.562 3.435 3.599 2.797 4.159 5.803 5.187 9.544.287 1.059 1.981 6.909 4.537 14.649l-3.115 18.6z" stroke="currentColor" stroke-width="2" stroke-linecap="round" stroke-linejoin="round"/></svg>