<svg viewBox="0 0 96 96" fill="none" xmlns="http://www.w3.org/2000/svg"><path d="M25.53 20.27h-6.06A2.47 2.47 0 0017 22.74v27.13a2.47 2.47 0 002.47 2.47h6.06A2.47 2.47 0 0028 49.87V22.74a2.47 2.47 0 00-2.47-2.47zm22.57 3.7l9.9 5.94-9.9 5.94-9.89-5.94 9.89-5.94z" stroke="currentColor" stroke-width="2" stroke-linecap="round" stroke-linejoin="round"/><path d="M58 29.91v13.85l-9.9 5.94V35.85l9.9-5.94zm-19.79 0v13.85l9.89 5.94V35.85l-9.89-5.94zM76.62 20h-6.31A2.31 2.31 0 0068 22.31v1.78a2.31 2.31 0 002.31 2.31h6.31a2.31 2.31 0 002.31-2.31v-1.78A2.31 2.31 0 0076.62 20zm.07 12.3h-6.31a2.31 2.31 0 00-2.31 2.31v1.78a2.31 2.31 0 002.31 2.31h6.31A2.31 2.31 0 0079 36.39v-1.78a2.31 2.31 0 00-2.31-2.31zm-.07 12.3h-6.31A2.31 2.31 0 0068 46.91v1.78A2.31 2.31 0 0070.31 51h6.31a2.31 2.31 0 002.31-2.31v-1.78a2.31 2.31 0 00-2.31-2.31z" stroke="currentColor" stroke-width="2" stroke-linecap="round" stroke-linejoin="round"/><path d="M84 14H12a4 4 0 00-4 4v46.88a4 4 0 004 4h72a4 4 0 004-4V18a4 4 0 00-4-4z" stroke="currentColor" stroke-width="2" stroke-linecap="round" stroke-linejoin="round"/><path d="M88 56.95H8m43.53 5.96h-7.06M31.53 82c5.88 0 8.23-13.12 8.23-13.12M64.47 82c-5.88 0-8.23-13.12-8.23-13.12M26.82 82h42.36" stroke="currentColor" stroke-width="2" stroke-linecap="round" stroke-linejoin="round"/></svg>