<svg viewBox="0 0 96 96" fill="none" xmlns="http://www.w3.org/2000/svg"><path d="M40.15 14.4L20.36 63.2m21.05 12.03l.06 7.41a3.21 3.21 0 01-1.3 2.64 3.3 3.3 0 01-5.3-2.62V71.52l6.54 3.71zM16.12 60.78l40.57 23.14a5.728 5.728 0 008.15-2.81l15.5-37.85a5.74 5.74 0 00-2.45-7.15L37.25 12.72a5.742 5.742 0 00-8.18 2.83L13.65 53.64a5.74 5.74 0 002.47 7.14v0zM16 47.84L66.57 76.9 16 47.84zm3.73-9.22l50.6 29.09-50.6-29.09zm3.71-9.18l50.65 29.1-50.65-29.1zm4.12-10.17l50.55 29.05-50.55-29.05zm46.05 14.37L53.87 82.31l19.74-48.67zm-8.47-4.87l-19.76 48.7 19.76-48.7zM57 24.11L37.27 72.85 57 24.11zm-8.6-4.97L28.62 67.91 48.4 19.14z" stroke="currentColor" stroke-width="2" stroke-linecap="round" stroke-linejoin="round"/></svg>