<svg viewBox="0 0 48 48" fill="none" xmlns="http://www.w3.org/2000/svg"><path d="M3.584 5.696v36.448h40.832V5.696H3.584z" stroke="currentColor" stroke-miterlimit="10" stroke-linecap="round" stroke-linejoin="round"/><path d="M44.416 20.16H3.584v-7.232h40.832l-2.944-.064V5.856v7.008l-4.416.064v7.232h-2.208v7.232h-2.816v7.392l-4.416.032v7.328h9.44v-7.328 7.328h-18.88v-7.328h4.416v-7.424h2.816V20.16h2.208v-7.232l4.416-.064V5.696h-9.44v7.232h-4.416v7.232l-2.208.032v7.2h-2.816v7.424H8.736v7.328H3.584v-7.328h40.832l-2.944-.032v-7.392h2.944H3.584h2.944V20.16h2.208v-7.232l4.416-.064V5.856" stroke="currentColor" stroke-miterlimit="10" stroke-linejoin="round"/></svg>