<svg viewBox="0 0 48 48" fill="none" xmlns="http://www.w3.org/2000/svg"><path d="M12.5 15h6M15.5 15c.489.977 1.085 1.989 1.718 3M12.5 29h6.25c2.154.134 3.148-.347 3.387-1.25M17.217 18H33m-15.782 0c2.443 3.903 5.434 7.804 4.92 9.75M33 18l4 8.5M33 18l-10.863 9.75M33 18l-1.25-3c.75-1.167 1.95-3.7.75-4.5-1.2-.8-3.833-.833-5-.75" stroke="currentColor"/><circle cx="10" cy="29" r="8" stroke="currentColor"/><circle cx="38" cy="29" r="8" stroke="currentColor"/><circle cx="10" cy="29" r="2.5" stroke="currentColor"/><circle cx="38" cy="29" r="2.5" stroke="currentColor"/></svg>