<svg viewBox="0 0 96 96" fill="none" xmlns="http://www.w3.org/2000/svg"><path d="M23 25a4 4 0 100-8 4 4 0 000 8zm16 0a4 4 0 100-8 4 4 0 000 8zm32 50a8 8 0 100-16 8 8 0 000 16z" stroke="currentColor" stroke-width="2" stroke-linecap="round" stroke-linejoin="round"/><path d="M71 70a3 3 0 100-6 3 3 0 000 6zM43 48c0 3.31-5.37 6-12 6s-12-2.69-12-6m17 11l-.51 3.06C35.21 63.75 33 65 31 65s-4.21-1.25-4.49-2.94L26 59h10z" stroke="currentColor" stroke-width="2" stroke-linecap="round" stroke-linejoin="round"/><path d="M74 59.58V57a3 3 0 00-6 0v2.58M20.32 24A10.2 10.2 0 0019 29v20c0 6.08 5.37 11 12 11s12-4.92 12-11V29a10.2 10.2 0 00-1.32-5H20.32z" stroke="currentColor" stroke-width="2" stroke-linecap="round" stroke-linejoin="round"/><path d="M31 65c0 9 5.54 14 12.38 14C49.67 79 55 75 55 65V41a7.999 7.999 0 017.88-8.19A8.12 8.12 0 0171 40.92v13" stroke="currentColor" stroke-width="2" stroke-linecap="round" stroke-linejoin="round"/></svg>