<svg viewBox="0 0 96 96" fill="none" xmlns="http://www.w3.org/2000/svg"><path d="M20 51v24a4 4 0 004 4h48a4 4 0 004-4V51M63 22l-2-2.5c-1.62-1.92-2.6-2.5-5.39-2.5H40.39c-2.79 0-3.77.58-5.39 2.5L33 22m30 0H33m30 0l4 5m-34-5l-4 5m25 6H42m27 40H27m28.86-22H40" stroke="currentColor" stroke-width="2" stroke-linecap="round" stroke-linejoin="round"/><path d="M28 51h-7a4 4 0 01-4-4V31a4 4 0 014-4h54a4 4 0 014 4v16a4 4 0 01-4 4h-6.14" stroke="currentColor" stroke-width="2" stroke-linecap="round" stroke-linejoin="round"/><path d="M28 49v4a2 2 0 002 2h8a2 2 0 002-2v-4a2 2 0 00-2-2h-8a2 2 0 00-2 2zm28.02 0v4a2 2 0 002 2h8a2 2 0 002-2v-4a2 2 0 00-2-2h-8a2 2 0 00-2 2z" stroke="currentColor" stroke-width="2" stroke-linecap="round" stroke-linejoin="round"/></svg>