<svg viewBox="0 0 96 96" fill="none" xmlns="http://www.w3.org/2000/svg"><path d="M20 50v24a4 4 0 004 4h48a4 4 0 004-4V50M63 21l-2-2.5c-1.62-1.92-2.6-2.5-5.39-2.5H40.39c-2.79 0-3.77.58-5.39 2.5L33 21m30 0H33m30 0l4 5m-34-5l-4 5" stroke="currentColor" stroke-width="2" stroke-linecap="round" stroke-linejoin="round"/><path d="M42 48v4a2 2 0 002 2h8a2 2 0 002-2v-4a2 2 0 00-2-2h-8a2 2 0 00-2 2z" stroke="currentColor" stroke-width="2" stroke-linecap="round" stroke-linejoin="round"/><path d="M42 50H21a4 4 0 01-4-4V30a4 4 0 014-4h54a4 4 0 014 4v16a4 4 0 01-4 4H54m0-18H42h12zm15 40H27h42zM33 21h30-30z" stroke="currentColor" stroke-width="2" stroke-linecap="round" stroke-linejoin="round"/></svg>