<svg viewBox="0 0 96 96" fill="none" xmlns="http://www.w3.org/2000/svg"><path d="M48 68.31c11.217 0 20.31-9.093 20.31-20.31 0-11.217-9.093-20.31-20.31-20.31-11.217 0-20.31 9.093-20.31 20.31 0 11.217 9.093 20.31 20.31 20.31zm12.7-42.3l3.55-6.16M48 15.5v7.11-7.11zm0 57.89v7.11-7.11zM34.26 18.54l3.01 6.45-3.01-6.45zm24.47 52.47l3.01 6.45-3.01-6.45zM23.1 27.11l5.45 4.57-5.45-4.57zm44.35 37.21l5.45 4.57-5.45-4.57zM16.61 39.59l6.86 1.84-6.86-1.84zm55.92 14.98l6.86 1.84-6.86-1.84zm-56.54-.93L23 52.41l-7.01 1.23zM73 43.59l7.01-1.23L73 43.59zM21.38 66.64l5.82-4.08-5.82 4.08zm47.42-33.2l5.82-4.08-5.82 4.08zM31.75 76.15l3.55-6.16-3.55 6.16z" stroke="currentColor" stroke-width="2" stroke-linecap="round" stroke-linejoin="round"/></svg>