<svg viewBox="0 0 96 96" fill="none" xmlns="http://www.w3.org/2000/svg"><path d="M72.5 75.66c4.733 0 8.57-3.895 8.57-8.7s-3.837-8.7-8.57-8.7c-4.733 0-8.57 3.895-8.57 8.7s3.837 8.7 8.57 8.7z" stroke="currentColor" stroke-width="2" stroke-linecap="round" stroke-linejoin="round"/><path d="M72.5 75.66c4.733 0 8.57-3.895 8.57-8.7s-3.837-8.7-8.57-8.7c-4.733 0-8.57 3.895-8.57 8.7s3.837 8.7 8.57 8.7z" stroke="currentColor" stroke-width="2" stroke-linecap="round" stroke-linejoin="round"/><path d="M72.5 70.91c2.148 0 3.89-1.769 3.89-3.95 0-2.182-1.742-3.95-3.89-3.95s-3.89 1.768-3.89 3.95c0 2.181 1.742 3.95 3.89 3.95zm-49.63 4.75c4.733 0 8.57-3.895 8.57-8.7s-3.837-8.7-8.57-8.7c-4.733 0-8.57 3.895-8.57 8.7s3.837 8.7 8.57 8.7z" stroke="currentColor" stroke-width="2" stroke-linecap="round" stroke-linejoin="round"/><path d="M22.87 70.91c2.148 0 3.89-1.769 3.89-3.95 0-2.182-1.742-3.95-3.89-3.95s-3.89 1.768-3.89 3.95c0 2.181 1.742 3.95 3.89 3.95z" stroke="currentColor" stroke-width="2" stroke-linecap="round" stroke-linejoin="round"/><path d="M81.32 66.31H90a3 3 0 000-6h-5.74a13 13 0 00-23.52 0H34.63a13 13 0 00-23.52 0H7.6a3 3 0 000 6h6.23m17.86 0h31.77-31.77z" stroke="currentColor" stroke-width="2" stroke-linecap="round" stroke-linejoin="round"/><path d="M6.33 60.35v-11.5a4.25 4.25 0 014.25-4.25v-6.8c4.42-7.8 7.5-11.06 7.5-11.06s5.92-3.4 21.81-3.4C53 23.34 64 33 69.08 36.34A25.1 25.1 0 0072.63 38l11.09 3.2c6.76 1.85 7.5 7.65 7.5 7.65v11.5" stroke="currentColor" stroke-width="2" stroke-linecap="round" stroke-linejoin="round"/><path d="M10.58 37.57a3.19 3.19 0 00-3.18-3.18H6.1a3.19 3.19 0 00-3.18 3.18v11.51a3.18 3.18 0 003.18 3.17h.23m84.89-2.55h-6.65v-3a2.922 2.922 0 012.87-3h.88M42.7 30.29v12.07M22.63 31a127.652 127.652 0 0117.86-1.55c13.51 0 25.89 12.71 26 12.91H27.58C21.63 42.35 22.63 31 22.63 31z" stroke="currentColor" stroke-width="2" stroke-linecap="round" stroke-linejoin="round"/></svg>