<svg viewBox="0 0 96 96" fill="none" xmlns="http://www.w3.org/2000/svg"><path d="M69 61.2a11 11 0 00-1.27-5 16.25 16.25 0 00-6.81-6.65L51 44V29.24c4.34.72 7.37 2.91 7.88 5a5 5 0 109.7-2.42C66.89 25 59.85 20.09 51 19.17V15a3 3 0 00-6 0v4.17c-10.3 1.07-18 7.54-18 15.63a11 11 0 001.27 5 16.29 16.29 0 006.81 6.64L45 52.05v14.71c-4.34-.72-7.37-2.91-7.88-5a5 5 0 10-9.7 2.42C29.11 71 36.15 75.91 45 76.83V81a3 3 0 006 0v-4.17c10.3-1.07 18-7.54 18-15.63v0zM40 37.75a7 7 0 01-2.8-2.47 1.451 1.451 0 01-.2-.48c0-2.23 3.32-4.75 8-5.54v11.32l-5-2.83zm11 29V55.42l5 2.83a7 7 0 012.8 2.47c.088.148.149.31.18.48.02 2.23-3.3 4.8-7.98 5.54v.01z" stroke="currentColor" stroke-width="2" stroke-linecap="round" stroke-linejoin="round"/></svg>