<svg viewBox="0 0 96 96" fill="none" xmlns="http://www.w3.org/2000/svg"><path d="M61.36 65a13 13 0 01-9.18 4.29c-6.08 0-11.48-5.11-14-12.31H52a3 3 0 000-6H36.83a28.196 28.196 0 010-6H52a3 3 0 000-6H38.18c2.52-7.2 7.92-12.31 14-12.31A13 13 0 0161.36 31a5.11 5.11 0 007.07.2 4.73 4.73 0 00.21-6.84A23 23 0 0052.18 17C40.69 17 31 26.28 27.77 39H24a3 3 0 000 6h2.79a37.11 37.11 0 00-.12 3c0 1.013.04 2.013.12 3H24a3 3 0 000 6h3.77C31 69.72 40.69 79 52.18 79a23.001 23.001 0 0016.46-7.34 4.73 4.73 0 00-.21-6.84 5.12 5.12 0 00-7.07.18v0z" stroke="currentColor" stroke-width="2" stroke-miterlimit="10"/></svg>