<svg viewBox="0 0 96 96" fill="none" xmlns="http://www.w3.org/2000/svg"><path d="M40.045 56.708c2.558-.017 4.611-3.052 4.588-6.78-.023-3.727-2.115-6.736-4.672-6.72-2.557.016-4.611 3.05-4.588 6.779.024 3.727 2.116 6.736 4.672 6.72z" stroke="currentColor" stroke-width="2" stroke-miterlimit="10"/><path d="M39.69 66.87c6.307 0 11.42-7.46 11.42-16.66 0-9.201-5.113-16.66-11.42-16.66-6.307 0-11.42 7.459-11.42 16.66 0 9.2 5.113 16.66 11.42 16.66z" stroke="currentColor" stroke-width="2" stroke-miterlimit="10"/><path d="M40.17 76.517c10.057-.063 18.135-12.005 18.043-26.674-.092-14.668-8.32-26.508-18.377-26.445-10.057.064-18.135 12.006-18.042 26.674.092 14.669 8.32 26.508 18.376 26.445z" stroke="currentColor" stroke-width="2" stroke-miterlimit="10"/><path d="M40.232 86.417C54.04 86.33 65.13 69.937 65.002 49.8c-.126-20.135-11.421-36.389-25.228-36.302-13.807.087-24.897 16.48-24.77 36.617.126 20.136 11.421 36.389 25.228 36.302z" stroke="currentColor" stroke-width="2" stroke-miterlimit="10"/><path d="M40.63 86.42l-10.38.08C16.44 86.6 5.14 70.36 5 50.23 4.86 30.1 15.94 13.68 29.75 13.58l10.38-.08" stroke="currentColor" stroke-width="2" stroke-miterlimit="10"/><path d="M91 22.74L39.82 50.05" stroke="currentColor" stroke-width="2" stroke-miterlimit="10" stroke-linecap="round"/><path d="M80.6 35.1c-2.65 1.42-5.36.6-7.24-2.93-1.88-3.53-1.06-6.24 1.58-7.65l8.82-4.71 5.66 10.58-8.82 4.71z" stroke="currentColor" stroke-width="2" stroke-miterlimit="10"/></svg>