<svg viewBox="0 0 96 96" fill="none" xmlns="http://www.w3.org/2000/svg"><path d="M24.77 40h-4.2a1 1 0 00-.78 1.53l.81 2.41h4.14l.81-2.41a1 1 0 00-.78-1.53v0zm3.56 17.69l-1.08-5.24a2.52 2.52 0 00-2.54-1.87h-4.2A2.52 2.52 0 0018 52.45l-1.08 5.24c-.077.355-.11.717-.1 1.08a4.71 4.71 0 004.69 4.58h2.25a4.71 4.71 0 004.7-4.58 5.713 5.713 0 00-.13-1.08v0z" stroke="currentColor" stroke-width="2" stroke-linecap="round" stroke-linejoin="round"/><path d="M20.45 50.57c4.64 0 9.72.07 14.35.09a2 2 0 002.2-2.28v-6.55a1.44 1.44 0 00.07-.41c2.23 3.41 4.41 6.72 6.54 10.09a3.138 3.138 0 01-.81.53c-2.75 1.7-5.55 3.5-8.35 5.1a3.85 3.85 0 00-1.95 3.52V80.8a3.999 3.999 0 004.12 4.2c2.47.07 4.54-1.09 4.54-4.19V63.74c0-.46 0-.81.45-1.14C44.27 61.1 53 55.29 53 55.29c.51-.39 5.77-4.87 2.35-10.4l-8.07-13.13a8.122 8.122 0 00-.56-.92 5.21 5.21 0 01.7-.06c3.19 0 6.43.06 9.64 0a1.23 1.23 0 011.2.67c1.13 1.84 2.28 3.69 3.42 5.53a3.36 3.36 0 004.78 1.36c1.93-.93 2.34-3 1.2-4.84-1.59-2.64-3.17-5.27-4.77-7.91a2.82 2.82 0 00-2.58-1.48c-5.24 0-10.57 0-15.84.07a6 6 0 00-2.85.89c-3 1.8-5.78 3.83-8.7 5.75a4.849 4.849 0 00-2.39 4.37c0 2.58 0 5.15-.05 7.74a7.318 7.318 0 000 1c-.31.027-.62.027-.93 0h-8.68M22.92 19a7.88 7.88 0 007.93 7.78A7.87 7.87 0 1022.92 19z" stroke="currentColor" stroke-width="2" stroke-linecap="round" stroke-linejoin="round"/><path d="M20.6 43.91a3.23 3.23 0 00-3.51 3.24 3.07 3.07 0 003.36 3.42" stroke="currentColor" stroke-width="1.92" stroke-linecap="round" stroke-linejoin="round"/><path d="M51.4 56.58c1.46 3.44 4.26 9.48 5.67 12.81.81 2 1.89 2.53 4 1.64 5.36-2.21 10.64-4.46 16-6.68 2.36-.82 5.46-3 3.62-6.89-1.84-3.89-6.89-1.17-6.89-1.17-3.29 1.34-6.5 2.7-9.79 4a5.81 5.81 0 01-1 .36c-.14-.32-.27-.62-.39-.93-1.34-3.3-6.26-13-6.72-13.92" stroke="currentColor" stroke-width="2" stroke-linecap="round" stroke-linejoin="round"/></svg>