<svg width="96" height="96" viewBox="0 0 96 96" fill="none" xmlns="http://www.w3.org/2000/svg">
<path d="M70.31 22.9999L39.72 61.3299L25.72 43.3299C25.2705 42.7462 24.7048 42.262 24.0587 41.9079C23.4126 41.5539 22.7002 41.3376 21.9663 41.2727C21.2324 41.2079 20.493 41.2959 19.7949 41.5312C19.0967 41.7665 18.4549 42.144 17.91 42.6399C16.8043 43.6431 16.1264 45.033 16.0166 46.522C15.9068 48.011 16.3734 49.4852 17.32 50.6399L34.13 72.3199C34.8029 73.1565 35.6548 73.8316 36.6231 74.2954C37.5914 74.7593 38.6514 75.0001 39.725 75.0001C40.7987 75.0001 41.8586 74.7593 42.8269 74.2954C43.7952 73.8316 44.6471 73.1565 45.32 72.3199L78.69 30.3699C79.6343 29.2143 80.0994 27.7405 79.9896 26.2523C79.8799 24.764 79.2036 23.3745 78.1 22.3699V22.3699C77.558 21.8767 76.9205 21.5002 76.227 21.2636C75.5334 21.027 74.7987 20.9354 74.0683 20.9945C73.3379 21.0535 72.6275 21.262 71.981 21.607C71.3345 21.9519 70.7657 22.426 70.31 22.9999V22.9999Z" stroke="#00008F" stroke-width="2" stroke-linecap="round" stroke-linejoin="round"/>
</svg>
