<svg viewBox="0 0 96 96" fill="none" xmlns="http://www.w3.org/2000/svg"><path d="M18 77.55a8 8 0 010-11.31l17.33-17.39 11.32 11.32-17.39 17.38a8 8 0 01-11.26 0v0z" stroke="currentColor" stroke-width="2" stroke-linecap="round" stroke-linejoin="round"/><path d="M38.45 61.29L25.73 74.02m17.38-17.39l27.87-27.87 6.39-2.14 2.1-7.76-2.83-2.83-7.83 2.17-2.07 6.32-27.87 27.87 4.24 4.24zm-8.9.42L21.48 69.77l12.73-12.72z" stroke="currentColor" stroke-width="2" stroke-linecap="round" stroke-linejoin="round"/><path d="M49 42.3L36.09 29.44a10 10 0 00-13-13l5.77 5.77-5.66 5.66-5.77-5.77a10 10 0 0013 13L43.3 48l5.7-5.7zm30.52 30.56a10 10 0 00-13-13L53.2 46.54l-5.66 5.66 13.37 13.36a10 10 0 0013 13l-5.77-5.77 5.66-5.66 5.72 5.73z" stroke="currentColor" stroke-width="2" stroke-linecap="round" stroke-linejoin="round"/></svg>