<svg width="96" height="96" viewBox="0 0 96 96" fill="none" xmlns="http://www.w3.org/2000/svg">
<path d="M17.09 83.1503V77.8203H78.91V83.1503M22.42 77.8203L23.48 45.8403L22.42 77.8203ZM29.88 45.8403L30.95 77.8203L29.88 45.8403ZM65.05 77.8203L66.12 45.8403L65.05 77.8203ZM72.52 45.8403L73.58 77.8203L72.52 45.8403Z" stroke="#00008F" stroke-width="2" stroke-linecap="round" stroke-linejoin="round"/>
<path d="M48 35.1803C49.7673 35.1803 51.2 33.7476 51.2 31.9803C51.2 30.213 49.7673 28.7803 48 28.7803C46.2327 28.7803 44.8 30.213 44.8 31.9803C44.8 33.7476 46.2327 35.1803 48 35.1803Z" stroke="#00008F" stroke-width="2" stroke-linecap="round" stroke-linejoin="round"/>
<path d="M48 8.22019C48 8.22019 50.07 6.66019 54 8.22019C57.93 9.78019 58.67 7.87019 58.67 7.87019V15.0002M12.83 83.1502H83.18V88.4802H12.83V83.1502ZM17.09 40.5102V45.8402H78.91V40.5102H17.09ZM48 22.3902L17.09 40.5102H78.91L48 22.3902ZM48 22.2902V15.7102V22.2902Z" stroke="#00008F" stroke-width="2" stroke-linecap="round" stroke-linejoin="round"/>
<path d="M58.72 15.0003C58.72 15.0003 56.64 16.5503 52.72 15.0003C48.8 13.4503 48.05 15.3403 48.05 15.3403V8.28027M48 59.1503V76.6403M37.7 77.8203V59.1503H58.3V77.8203H37.7Z" stroke="#00008F" stroke-width="2" stroke-linecap="round" stroke-linejoin="round"/>
</svg>
