<svg viewBox="0 0 96 96" fill="none" xmlns="http://www.w3.org/2000/svg"><path d="M17.09 83.15v-5.33h61.82v5.33m-56.49-5.33l1.06-31.98-1.06 31.98zm7.46-31.98l1.07 31.98-1.07-31.98zm35.17 31.98l1.07-31.98-1.07 31.98zm7.47-31.98l1.06 31.98-1.06-31.98zM48 35.18a3.2 3.2 0 100-6.4 3.2 3.2 0 000 6.4z" stroke="currentColor" stroke-width="2" stroke-linecap="round" stroke-linejoin="round"/><path d="M48 8.22s2.07-1.56 6 0 4.67-.35 4.67-.35V15M12.83 83.15h70.35v5.33H12.83v-5.33zm4.26-42.64v5.33h61.82v-5.33H17.09zM48 22.39L17.09 40.51h61.82L48 22.39zm0-.1v-6.58 6.58z" stroke="currentColor" stroke-width="2" stroke-linecap="round" stroke-linejoin="round"/><path d="M58.72 15s-2.08 1.55-6 0-4.67.34-4.67.34V8.28M48 59.15v17.49m-10.3 1.18V59.15h20.6v18.67H37.7z" stroke="currentColor" stroke-width="2" stroke-linecap="round" stroke-linejoin="round"/></svg>