<svg viewBox="0 0 96 96" fill="none" xmlns="http://www.w3.org/2000/svg"><path d="M7.45 65.8A17.35 17.35 0 1024.8 48.45 17.38 17.38 0 007.45 65.8v0zm7.59 0a9.76 9.76 0 119.76 9.76A9.76 9.76 0 0115 65.8h.04z" stroke="currentColor" stroke-width="2" stroke-linejoin="round"/><path d="M6 49.7l3.32 2.39a19 19 0 0114-7.79l1-.1c12-.73 21.06 9.06 21.61 21.19h11.59c1.87-5.72 7.16-9.31 13.5-9.31s11.74 3.59 13.5 9.31h2.6c4.88 0 4.88-.73 4.88-1.87l-.21-17.45c-.31-3.43-1.24-5.92-5.19-5.92H76.52v-9.57a1.56 1.56 0 00-3.11 0v9.57H56.89L54.3 15h.52a2.08 2.08 0 000-4.15h-32.1a2.078 2.078 0 00-2.224 2.075A2.08 2.08 0 0022.72 15h1.14l-2.59 25.25A22.751 22.751 0 006 49.7v0z" stroke="currentColor" stroke-width="2" stroke-linejoin="round"/><path d="M83.07 55h8.52M45.85 69H57 45.85zm37.22-20.63h8.52-8.52zm0 3.29h8.52-8.52z" stroke="currentColor" stroke-width="2" stroke-linecap="round" stroke-linejoin="round"/><path d="M60 72a11.14 11.14 0 1011.12-11.13A11.001 11.001 0 0060 72v0zm4.84 0a6.3 6.3 0 116.29 6.29 6.282 6.282 0 01-6.3-6.29h.01z" stroke="currentColor" stroke-width="2" stroke-linejoin="round"/><path d="M71.12 74.24a2.23 2.23 0 100-4.46 2.23 2.23 0 000 4.46zM24.8 69.02a3.22 3.22 0 100-6.44 3.22 3.22 0 000 6.44zm2.37-29.23L29.61 15h20.53l2.6 25.66v11.22h-6.49c-4.33-7.47-10.12-11.42-19.08-12.09v0z" stroke="currentColor" stroke-width="2" stroke-linejoin="round"/><path d="M52.74 43.47l-6.54-5.92c-1.67 1.35-3.33 1.87-4 1.14-.83-.83 0-2.91 1.76-4.67 1.76-1.76 3.85-2.6 4.68-1.77.73.63.21 2.29-1 3.85" stroke="currentColor" stroke-width="2" stroke-linejoin="round"/></svg>