<svg viewBox="0 0 96 96" fill="none" xmlns="http://www.w3.org/2000/svg"><path d="M77 31H19a5 5 0 00-5 5v34a5 5 0 005 5h58a5 5 0 005-5V36a5 5 0 00-5-5z" stroke="currentColor" stroke-width="2" stroke-linecap="round" stroke-linejoin="round"/><path d="M22 31v44-44zm5 0v44-44zm42 0v44-44zm5 0v44-44zm-14.18-5.57L63 31l-3.18-5.57zm-23.64 0L33 31l3.18-5.57zM35 40h12v10H35V40zm17 6h9v5h-9v-5zM42 56h9v8h-9v-8zm-7-32.78a2.48 2.48 0 002.74 2.47C40.52 25.4 44.85 25 48 25c3.15 0 7.48.4 10.26.69A2.48 2.48 0 0061 23.22a2.47 2.47 0 00-2.21-2.47C56.06 20.45 51.35 20 48 20c-3.35 0-8.06.45-10.79.75A2.47 2.47 0 0035 23.22v0z" stroke="currentColor" stroke-width="2" stroke-linecap="round" stroke-linejoin="round"/></svg>