<svg width="96" height="96" viewBox="0 0 96 96" fill="none" xmlns="http://www.w3.org/2000/svg">
<path d="M84 25.8702C81.3025 27.0517 78.4448 27.8267 75.52 28.1702C78.5937 26.3487 80.8977 23.4688 82 20.0702C79.0995 21.7815 75.9268 22.9823 72.62 23.6202C70.3963 21.2703 67.463 19.715 64.2702 19.1928C61.0774 18.6707 57.8015 19.2105 54.945 20.7295C52.0886 22.2486 49.8095 24.6629 48.4574 27.602C47.1053 30.5412 46.7549 33.8427 47.46 37.0002C41.5947 36.7145 35.8541 35.2037 30.608 32.5651C25.3619 29.9265 20.7264 26.2187 17 21.6802C15.1145 24.9045 14.5374 28.7292 15.3876 32.3662C16.2378 36.0033 18.4506 39.1758 21.57 41.2302C19.2273 41.1534 16.9356 40.5265 14.88 39.4002C14.8508 42.8265 16.0203 46.1553 18.1861 48.8105C20.3519 51.4656 23.3777 53.2802 26.74 53.9402C24.5641 54.5265 22.2837 54.612 20.07 54.1902C21.0266 57.1102 22.87 59.6592 25.3436 61.4821C27.8172 63.305 30.7977 64.3111 33.87 64.3602C27.6601 69.1767 19.8032 71.3538 12 70.4202C18.7636 74.7302 26.6199 77.0135 34.64 77.0002C62.07 77.0002 77.57 54.0002 76.64 33.4502C79.5224 31.3788 82.0144 28.8124 84 25.8702V25.8702Z" stroke="#00008F" stroke-width="2" stroke-linecap="round" stroke-linejoin="round"/>
</svg>
