<svg viewBox="0 0 96 96" fill="none" xmlns="http://www.w3.org/2000/svg"><path d="M84 25.87a29.8 29.8 0 01-8.48 2.3 14.68 14.68 0 006.48-8.1 29.429 29.429 0 01-9.38 3.55A14.78 14.78 0 0047.46 37 42.059 42.059 0 0117 21.68a14.59 14.59 0 004.57 19.55 14.941 14.941 0 01-6.69-1.83 14.69 14.69 0 0011.86 14.54 14.91 14.91 0 01-6.67.25 14.77 14.77 0 0013.8 10.17A29.89 29.89 0 0112 70.42 42 42 0 0034.64 77c27.43 0 42.93-23 42-43.55A30 30 0 0084 25.87v0z" stroke="currentColor" stroke-width="2" stroke-linecap="round" stroke-linejoin="round"/></svg>