<svg width="96" height="96" viewBox="0 0 96 96" fill="none" xmlns="http://www.w3.org/2000/svg">
<path d="M59.67 53C61.64 49.37 66.12 46.83 71.34 46.83C76.56 46.83 81 49.35 83 53C82.65 32.49 67.12 16 48 16M59.67 53C57.67 49.37 53.22 46.83 48 46.83C42.78 46.83 38.29 49.37 36.33 53C34.33 49.37 29.88 46.83 24.66 46.83C19.44 46.83 15 49.35 13 53C13.35 32.52 28.88 16 48 16M59.67 53C59.46 27.22 48 16 48 16M48 16C48 16 36.54 27.22 36.34 53M48 16V13M48 47V77C48 78.5913 47.3679 80.1174 46.2426 81.2426C45.1174 82.3679 43.5913 83 42 83C40.4087 83 38.8826 82.3679 37.7574 81.2426C36.6321 80.1174 36 78.5913 36 77" stroke="#00008F" stroke-width="2" stroke-linecap="round" stroke-linejoin="round"/>
</svg>
