<svg viewBox="0 0 96 96" fill="none" xmlns="http://www.w3.org/2000/svg"><path d="M79 59.5v17a2.5 2.5 0 01-2.5 2.5h-57a2.5 2.5 0 01-2.5-2.5v-17a2.5 2.5 0 015 0V74h52V59.5a2.5 2.5 0 015 0z" stroke="currentColor" stroke-width="2" stroke-linecap="round" stroke-linejoin="round"/><path d="M67.5 38a3.54 3.54 0 01-5 0L52 27.54v32a4 4 0 11-8 0v-32L33.5 38a3.54 3.54 0 01-5-5l17-17a3.522 3.522 0 015 0l17 17a3.54 3.54 0 010 5v0z" stroke="currentColor" stroke-width="2" stroke-linecap="round" stroke-linejoin="round"/></svg>