<svg viewBox="0 0 48 48" fill="none" xmlns="http://www.w3.org/2000/svg"><path d="M6.348 25.435V43h26.803V25.435" stroke="currentColor" stroke-linecap="round" stroke-linejoin="round"/><path d="M15.59 43V30.056h8.319V43M4.5 24.229a1.252 1.252 0 01.513-1.03l13.619-10.324a1.848 1.848 0 012.236 0l13.619 10.323a1.247 1.247 0 01.513 1.03 1.289 1.289 0 01-2.07 1.027l-12.903-9.779a.462.462 0 00-.554 0L6.57 25.255a1.29 1.29 0 01-2.07-1.026v0z" stroke="currentColor" stroke-linecap="round" stroke-linejoin="round"/><path d="M19.75 24.973a1.848 1.848 0 100-3.697 1.848 1.848 0 000 3.697zM18.826 36.53h-.924M31 8.51v9.21h13V8.51m-13 0h13m-13 0V5.26h13v3.25m-1.98 5.96H40.5M35 6.5V4m5 2.5V4m-1.98 10.47H36.5m1.52-3H36.5m5.52 0H40.5m-6.48 0H32.5m1.52 3H32.5" stroke="currentColor" stroke-linecap="round" stroke-linejoin="round"/></svg>