<svg viewBox="0 0 96 96" fill="none" xmlns="http://www.w3.org/2000/svg"><path d="M91.42 63V48.56A9.77 9.77 0 0088 41.09l-17.63-13.2-.85-.7C65.07 23.74 61.53 22 55.9 22H19.07C10.36 22 8.6 23.9 8 26.55L5 41v22m8 8H7a4 4 0 01-4-4v-2a2 2 0 012-2h10l-2 8zm51.23 0H32h32.23zm17.21-8h10a2 2 0 012 2v2a4 4 0 01-4 4h-6.55l-1.45-8zM30 63h36.73H30z" stroke="currentColor" stroke-width="2" stroke-linecap="round" stroke-linejoin="round"/><path d="M53.42 45h26v-3a2 2 0 00-.74-1.59l-14.28-10A10.83 10.83 0 0057.59 28h-4.17v17zm0 0v17m38-10h-3.5a2.5 2.5 0 01-2.5-2.5V39.35M47.42 53h-33m31-13v4M6 37h2.5a2.5 2.5 0 012.5 2.5v6A2.5 2.5 0 018.5 48H5l1-11zm16.79 41.42c5.053 0 9.15-4.16 9.15-9.29 0-5.13-4.097-9.29-9.15-9.29s-9.15 4.16-9.15 9.29c0 5.13 4.097 9.29 9.15 9.29z" stroke="currentColor" stroke-width="2" stroke-linecap="round" stroke-linejoin="round"/><path d="M22.79 73.35c2.292 0 4.15-1.89 4.15-4.22s-1.858-4.22-4.15-4.22c-2.292 0-4.15 1.89-4.15 4.22s1.858 4.22 4.15 4.22zm51 5.07c5.053 0 9.15-4.16 9.15-9.29 0-5.13-4.097-9.29-9.15-9.29s-9.15 4.16-9.15 9.29c0 5.13 4.097 9.29 9.15 9.29z" stroke="currentColor" stroke-width="2" stroke-linecap="round" stroke-linejoin="round"/><path d="M73.79 73.35c2.292 0 4.15-1.89 4.15-4.22s-1.858-4.22-4.15-4.22c-2.292 0-4.15 1.89-4.15 4.22s1.858 4.22 4.15 4.22z" stroke="currentColor" stroke-width="2" stroke-linecap="round" stroke-linejoin="round"/></svg>