<svg viewBox="0 0 96 96" fill="none" xmlns="http://www.w3.org/2000/svg"><path d="M26.81 17h40.37A11.82 11.82 0 0179 28.82v40.36A11.82 11.82 0 0167.18 81H26.81A11.81 11.81 0 0115 69.19V28.81A11.81 11.81 0 0126.81 17v0z" stroke="currentColor" stroke-width="2" stroke-linecap="round" stroke-linejoin="round"/><path d="M21.93 73.14h3.71M72.07 72a3 3 0 11-6 0 3 3 0 016 0zM54.73 28.89H39.26c-6.837 0-12.38 5.543-12.38 12.38v15.47c0 6.837 5.543 12.38 12.38 12.38h15.47c6.837 0 12.38-5.543 12.38-12.38V41.27c0-6.837-5.543-12.38-12.38-12.38z" stroke="currentColor" stroke-width="2" stroke-linecap="round" stroke-linejoin="round"/><path d="M52.75 34.04H41.24a9.2 9.2 0 00-9.2 9.2v11.51a9.2 9.2 0 009.2 9.2h11.51a9.2 9.2 0 009.2-9.2V43.24a9.2 9.2 0 00-9.2-9.2z" stroke="currentColor" stroke-width="2" stroke-linecap="round" stroke-linejoin="round"/><path d="M67.11 49H26.88m16.33-9.86h7.58a6.07 6.07 0 016.07 6.07v7.58a6.07 6.07 0 01-6.07 6.07h-7.58a6.06 6.06 0 01-6.06-6.06v-7.59a6.061 6.061 0 016.06-6.07v0zM47 28.89v40.22-40.22z" stroke="currentColor" stroke-width="2" stroke-linecap="round" stroke-linejoin="round"/></svg>