<svg viewBox="0 0 96 96" fill="none" xmlns="http://www.w3.org/2000/svg"><path d="M37.92 46.66a9.05 9.05 0 11-9-9 9 9 0 019 9z" stroke="currentColor" stroke-width="2" stroke-linecap="round" stroke-linejoin="round"/><path d="M56.06 46.7A9 9 0 1147 37.65a9.051 9.051 0 019.06 9.05v0z" stroke="currentColor" stroke-width="2" stroke-linecap="round" stroke-linejoin="round"/><path d="M74.18 46.7a9.05 9.05 0 11-9.05-9.05 9.06 9.06 0 019.05 9.05v0zM47 62.31a9 9 0 11-18-.1 9 9 0 0118 .1v0zm18.06.1a9 9 0 11-17.998 0 9 9 0 0117.998 0v0z" stroke="currentColor" stroke-width="2" stroke-linecap="round" stroke-linejoin="round"/><path d="M47 37.65a52.322 52.322 0 002.2-16.46 55.758 55.758 0 00-.79-8.14M55.94 78a9 9 0 11-18-.1 9 9 0 0118 .1zm-9.35-40.5s.57-16.68-20.92-24.59c0 0-.28 19.79 20.92 24.59z" stroke="currentColor" stroke-width="2" stroke-linecap="round" stroke-linejoin="round"/></svg>