<svg width="96" height="96" viewBox="0 0 96 96" fill="none" xmlns="http://www.w3.org/2000/svg">
<path d="M37.92 46.6603C37.9299 48.4544 37.4063 50.211 36.4156 51.7069C35.425 53.2028 34.0121 54.3705 32.3564 55.0617C30.7007 55.7529 28.877 55.9363 27.1168 55.5887C25.3566 55.2411 23.7395 54.3781 22.4708 53.1095C21.2021 51.8408 20.3392 50.2237 19.9916 48.4635C19.644 46.7033 19.8274 44.8795 20.5186 43.2239C21.2098 41.5682 22.3775 40.1553 23.8734 39.1646C25.3693 38.174 27.1259 37.6504 28.92 37.6603C31.3069 37.6603 33.5961 38.6085 35.284 40.2963C36.9718 41.9842 37.92 44.2733 37.92 46.6603Z" stroke="#00008F" stroke-width="2" stroke-linecap="round" stroke-linejoin="round"/>
<path d="M56.06 46.7004C56.0501 48.4757 55.5154 50.2084 54.5231 51.6806C53.5308 53.1527 52.1253 54.2985 50.4834 54.9737C48.8415 55.649 47.0366 55.8236 45.2957 55.4755C43.5548 55.1275 41.9557 54.2723 40.6997 53.0177C39.4437 51.763 38.5867 50.1649 38.2368 48.4244C37.8868 46.6839 38.0594 44.8788 38.7328 43.2361C39.4063 41.5935 40.5505 40.1867 42.0215 39.1928C43.4926 38.1989 45.2247 37.6623 47 37.6504C48.1893 37.6491 49.3672 37.8822 50.4664 38.3364C51.5655 38.7906 52.5644 39.457 53.4058 40.2975C54.2472 41.138 54.9147 42.1362 55.3702 43.2348C55.8256 44.3334 56.06 45.5111 56.06 46.7004V46.7004Z" stroke="#00008F" stroke-width="2" stroke-linecap="round" stroke-linejoin="round"/>
<path d="M74.18 46.7004C74.18 48.4903 73.6492 50.24 72.6548 51.7283C71.6604 53.2166 70.247 54.3765 68.5933 55.0615C66.9396 55.7465 65.12 55.9257 63.3644 55.5765C61.6089 55.2273 59.9963 54.3654 58.7307 53.0997C57.465 51.834 56.6031 50.2215 56.2539 48.466C55.9047 46.7104 56.0839 44.8908 56.7689 43.2371C57.4539 41.5834 58.6138 40.17 60.1021 39.1756C61.5903 38.1812 63.3401 37.6504 65.13 37.6504C67.5294 37.653 69.8298 38.6074 71.5264 40.304C73.223 42.0006 74.1773 44.301 74.18 46.7004V46.7004ZM47 62.3104C46.9901 64.0883 46.4539 65.8234 45.459 67.2968C44.4641 68.7703 43.055 69.916 41.4096 70.5896C39.7643 71.2631 37.9563 71.4342 36.2137 71.0813C34.4712 70.7284 32.8722 69.8673 31.6186 68.6067C30.3649 67.3461 29.5127 65.7423 29.1694 63.9979C28.8262 62.2534 29.0073 60.4464 29.69 58.8048C30.3726 57.1632 31.5262 55.7605 33.0051 54.7738C34.484 53.787 36.2221 53.2604 38 53.2604C39.1861 53.2604 40.3605 53.4948 41.4557 53.9502C42.5509 54.4056 43.5453 55.0731 44.3817 55.9141C45.2181 56.7551 45.88 57.7532 46.3293 58.8509C46.7787 59.9486 47.0066 61.1243 47 62.3104V62.3104Z" stroke="#00008F" stroke-width="2" stroke-linecap="round" stroke-linejoin="round"/>
<path d="M65.06 62.4103C65.06 64.1882 64.5334 65.9263 63.5466 67.4052C62.5599 68.8841 61.1572 70.0377 59.5156 70.7203C57.874 71.403 56.0669 71.5841 54.3225 71.2408C52.578 70.8976 50.9743 70.0454 49.7137 68.7917C48.4531 67.538 47.592 65.9391 47.2391 64.1966C46.8862 62.454 47.0573 60.646 47.7308 59.0006C48.4043 57.3553 49.5501 55.9462 51.0236 54.9513C52.497 53.9564 54.2321 53.4202 56.01 53.4103C57.1961 53.4037 58.3718 53.6316 59.4695 54.081C60.5672 54.5303 61.5653 55.1922 62.4063 56.0286C63.2473 56.865 63.9147 57.8594 64.3702 58.9546C64.8256 60.0498 65.06 61.2242 65.06 62.4103V62.4103Z" stroke="#00008F" stroke-width="2" stroke-linecap="round" stroke-linejoin="round"/>
<path d="M47 37.6502C48.6049 32.3156 49.3476 26.759 49.2 21.1902C49.1363 18.4611 48.8722 15.7405 48.41 13.0502M55.94 78.0002C55.9301 79.778 55.3939 81.5131 54.399 82.9866C53.4041 84.46 51.995 85.6058 50.3496 86.2793C48.7043 86.9529 46.8963 87.124 45.1537 86.7711C43.4112 86.4182 41.8123 85.5571 40.5586 84.2965C39.3049 83.0358 38.4527 81.4321 38.1094 79.6877C37.7662 77.9432 37.9473 76.1362 38.63 74.4946C39.3126 72.8529 40.4662 71.4503 41.9451 70.4635C43.424 69.4768 45.1621 68.9502 46.94 68.9502C48.1261 68.9501 49.3005 69.1846 50.3957 69.64C51.4909 70.0954 52.4853 70.7628 53.3217 71.6038C54.1581 72.4449 54.82 73.4429 55.2693 74.5406C55.7187 75.6384 55.9466 76.8141 55.94 78.0002ZM46.59 37.5002C46.59 37.5002 47.16 20.8202 25.67 12.9102C25.67 12.9102 25.39 32.7002 46.59 37.5002Z" stroke="#00008F" stroke-width="2" stroke-linecap="round" stroke-linejoin="round"/>
</svg>
