<svg viewBox="0 0 96 96" fill="none" xmlns="http://www.w3.org/2000/svg"><path d="M13.634 42.964v44.123h68.732V42.964" stroke="currentColor" stroke-width="2" stroke-linecap="round" stroke-linejoin="round"/><path d="M26.941 87.087v-29.95H69.06v29.95M8.891 39.775a3.361 3.361 0 01.336-1.516c.229-.47.564-.878.977-1.189L45.142 9.948A4.646 4.646 0 0148 8.961c1.032 0 2.036.347 2.858.987l34.938 27.133c.413.308.747.714.976 1.183.229.47.344.987.337 1.511a3.46 3.46 0 01-.496 1.787 3.344 3.344 0 01-1.34 1.25 3.238 3.238 0 01-3.468-.332L48.712 16.768a1.154 1.154 0 00-1.424 0L14.196 42.48a3.238 3.238 0 01-3.469.332 3.341 3.341 0 01-1.34-1.25 3.46 3.46 0 01-.496-1.787v0z" stroke="currentColor" stroke-width="2" stroke-linecap="round" stroke-linejoin="round"/><path d="M32.958 72.688v-7.2h10.028v7.2M26.941 41.833H36.97v10.285H26.941V41.833zm16.045 0h10.028v10.285H42.986V41.833zm16.045 0h10.028v10.285H59.031V41.833zM32.958 87.087v-7.2h10.028v7.2H32.958zm10.028 0v-7.2h10.028v7.2H42.986zm10.028 0v-7.2h10.028v7.2H53.014zm-20.056-7.2v-7.199h10.028v7.2H32.958z" stroke="currentColor" stroke-width="2" stroke-linecap="round" stroke-linejoin="round"/></svg>