<svg width="96" height="96" viewBox="0 0 96 96" fill="none" xmlns="http://www.w3.org/2000/svg">
<path d="M70.82 15.1802H24.82C22.6109 15.1802 20.82 16.971 20.82 19.1802V77.1802C20.82 79.3893 22.6109 81.1802 24.82 81.1802H70.82C73.0291 81.1802 74.82 79.3893 74.82 77.1802V19.1802C74.82 16.971 73.0291 15.1802 70.82 15.1802Z" stroke="#00008F" stroke-width="2" stroke-linecap="round" stroke-linejoin="round"/>
<path d="M66.9 21.9304L68.9 21.9204M20.93 28.1004L27.93 28.0704L20.93 28.1004ZM39.93 28.0304L74.93 27.9004L39.93 28.0304ZM52.9 21.9804L54.9 21.9704L52.9 21.9804ZM59.9 21.9604L61.9 21.9504L59.9 21.9604Z" stroke="#00008F" stroke-width="2" stroke-linecap="round" stroke-linejoin="round"/>
<path d="M33.93 34.0503C37.2437 34.0503 39.93 31.364 39.93 28.0503C39.93 24.7366 37.2437 22.0503 33.93 22.0503C30.6163 22.0503 27.93 24.7366 27.93 28.0503C27.93 31.364 30.6163 34.0503 33.93 34.0503Z" stroke="#00008F" stroke-width="2" stroke-linecap="round" stroke-linejoin="round"/>
<path d="M48.02 71C57.4089 71 65.02 63.3888 65.02 54C65.02 44.6112 57.4089 37 48.02 37C38.6312 37 31.02 44.6112 31.02 54C31.02 63.3888 38.6312 71 48.02 71Z" stroke="#00008F" stroke-width="2" stroke-linecap="round" stroke-linejoin="round"/>
<path d="M48.02 65C54.0952 65 59.02 60.0751 59.02 54C59.02 47.9249 54.0952 43 48.02 43C41.9449 43 37.02 47.9249 37.02 54C37.02 60.0751 41.9449 65 48.02 65Z" stroke="#00008F" stroke-width="2" stroke-linecap="round" stroke-linejoin="round"/>
<path d="M37.18 55.8402L37.47 55.5702C40.62 52.7002 44.52 52.1202 48 54.0002C51.5 55.8802 55.4 55.3002 58.55 52.4302L58.85 52.1602" stroke="#00008F" stroke-width="2" stroke-linecap="round" stroke-linejoin="round"/>
</svg>
