<svg viewBox="0 0 96 96" fill="none" xmlns="http://www.w3.org/2000/svg"><path d="M70.82 15.18h-46a4 4 0 00-4 4v58a4 4 0 004 4h46a4 4 0 004-4v-58a4 4 0 00-4-4z" stroke="currentColor" stroke-width="2" stroke-linecap="round" stroke-linejoin="round"/><path d="M66.9 21.93l2-.01M20.93 28.1l7-.03-7 .03zm19-.07l35-.13-35 .13zm12.97-6.05l2-.01-2 .01zm7-.02l2-.01-2 .01z" stroke="currentColor" stroke-width="2" stroke-linecap="round" stroke-linejoin="round"/><path d="M33.93 34.05a6 6 0 100-12 6 6 0 000 12zM48.02 71c9.389 0 17-7.611 17-17s-7.611-17-17-17-17 7.611-17 17 7.611 17 17 17z" stroke="currentColor" stroke-width="2" stroke-linecap="round" stroke-linejoin="round"/><path d="M48.02 65c6.075 0 11-4.925 11-11s-4.925-11-11-11-11 4.925-11 11 4.925 11 11 11z" stroke="currentColor" stroke-width="2" stroke-linecap="round" stroke-linejoin="round"/><path d="M37.18 55.84l.29-.27C40.62 52.7 44.52 52.12 48 54c3.5 1.88 7.4 1.3 10.55-1.57l.3-.27" stroke="currentColor" stroke-width="2" stroke-linecap="round" stroke-linejoin="round"/></svg>