<svg width="96" height="96" viewBox="0 0 96 96" fill="none" xmlns="http://www.w3.org/2000/svg">
<path d="M70.8 70.2V72.6M21.6 27.53H45.6V81H21.6V27.53ZM28.8 22.2H38.4V27.53H28.8V22.2ZM64.8 46.2H74.4V51.53H64.8V46.2ZM23.36 22.2H43.89V15H23.36C23.36 15 23.25 22.11 23.36 22.2V22.2ZM23.31 15H64.8H23.31ZM45.6 37.8H74.4V46.2H45.6C45.6 46.2 45.71 37.69 45.6 37.8ZM70.8 52.2V54.6V52.2ZM70.8 58.2V60.6V58.2ZM70.8 64.2V66.6V64.2Z" stroke="#00008F" stroke-width="2" stroke-linecap="round" stroke-linejoin="round"/>
</svg>
