<svg viewBox="0 0 96 96" fill="none" xmlns="http://www.w3.org/2000/svg"><path d="M30.34 56.91h35.32M40.27 67.44c-.004.286.026.571.09.85l3.09 12.78a1.49 1.49 0 001.45.93h6.2a1.49 1.49 0 001.45-.93l3.09-12.78c.063-.279.094-.564.09-.85 4.81-2.07 8.07-6 8.07-10.53H32.2c0 4.52 3.26 8.46 8.07 10.53zm1.41-49.31h12.64a3 3 0 013 1.9l6.31 26.1c.78 3.24-.69 6.16-3.36 6.16h-24.5c-2.67 0-4.14-2.92-3.36-6.16L38.72 20a3 3 0 012.96-1.87v0zm2.77-.58a3.55 3.55 0 117.1 0h-7.1z" stroke="currentColor" stroke-width="2" stroke-linecap="round" stroke-linejoin="round"/></svg>