<svg width="96" height="96" viewBox="0 0 96 96" fill="none" xmlns="http://www.w3.org/2000/svg">
<path d="M89 57.83C89 46.33 77.81 37 64 37C50.19 37 39 46.33 39 57.83C39 69.33 50.19 78.67 64 78.67C67.2168 78.6735 70.4125 78.1499 73.46 77.12L82 82L80 73.86C85.48 70 89 64.28 89 57.83Z" stroke="#00008F" stroke-width="2" stroke-linecap="round" stroke-linejoin="round"/>
<path d="M27 35C29.2091 35 31 33.2091 31 31C31 28.7909 29.2091 27 27 27C24.7909 27 23 28.7909 23 31C23 33.2091 24.7909 35 27 35Z" stroke="#00008F" stroke-width="2" stroke-linecap="round" stroke-linejoin="round"/>
<path d="M47 35C49.2091 35 51 33.2091 51 31C51 28.7909 49.2091 27 47 27C44.7909 27 43 28.7909 43 31C43 33.2091 44.7909 35 47 35Z" stroke="#00008F" stroke-width="2" stroke-linecap="round" stroke-linejoin="round"/>
<path d="M56 55C57.6569 55 59 53.6569 59 52C59 50.3431 57.6569 49 56 49C54.3431 49 53 50.3431 53 52C53 53.6569 54.3431 55 56 55Z" stroke="#00008F" stroke-width="2" stroke-linecap="round" stroke-linejoin="round"/>
<path d="M72 55C73.6569 55 75 53.6569 75 52C75 50.3431 73.6569 49 72 49C70.3431 49 69 50.3431 69 52C69 53.6569 70.3431 55 72 55Z" stroke="#00008F" stroke-width="2" stroke-linecap="round" stroke-linejoin="round"/>
<path d="M66.8 37.13C65.1 24.67 52.4 15 37 15C20.43 15 7 26.19 7 40C7 47.6 11.08 54.41 17.5 59L15 69L25.4 63.06C29.1301 64.3543 33.0518 65.0102 37 65C38.17 65 39.32 64.94 40.45 64.84" stroke="#00008F" stroke-width="2" stroke-linecap="round" stroke-linejoin="round"/>
</svg>
