<svg viewBox="0 0 96 96" fill="none" xmlns="http://www.w3.org/2000/svg"><path d="M89 57.83C89 46.33 77.81 37 64 37s-25 9.33-25 20.83c0 11.5 11.19 20.84 25 20.84 3.217.004 6.412-.52 9.46-1.55L82 82l-2-8.14c5.48-3.86 9-9.58 9-16.03zM27 35a4 4 0 100-8 4 4 0 000 8zm20 0a4 4 0 100-8 4 4 0 000 8z" stroke="currentColor" stroke-width="2" stroke-linecap="round" stroke-linejoin="round"/><path d="M56 55a3 3 0 100-6 3 3 0 000 6zm16 0a3 3 0 100-6 3 3 0 000 6z" stroke="currentColor" stroke-width="2" stroke-linecap="round" stroke-linejoin="round"/><path d="M66.8 37.13C65.1 24.67 52.4 15 37 15 20.43 15 7 26.19 7 40c0 7.6 4.08 14.41 10.5 19L15 69l10.4-5.94A35.11 35.11 0 0037 65c1.17 0 2.32-.06 3.45-.16" stroke="currentColor" stroke-width="2" stroke-linecap="round" stroke-linejoin="round"/></svg>