<svg width="96" height="96" viewBox="0 0 96 96" fill="none" xmlns="http://www.w3.org/2000/svg">
<path d="M28.79 68.45C28.79 68.45 13.13 60.69 22.35 44.77C22.35 44.77 38.73 52.33 28.79 68.45ZM20.06 85L49.95 32.02L20.06 85ZM29.55 69C29.55 69 44.27 78.43 53.16 62.32C53.16 62.29 38.24 52.15 29.55 69V69Z" stroke="#00008F" stroke-width="2" stroke-miterlimit="10"/>
<path d="M36.13 55.66C36.13 55.66 20.46 47.91 29.68 32C29.68 32 46.06 39.54 36.13 55.66ZM36.88 56.19C36.88 56.19 51.6 65.61 60.49 49.51C60.49 49.51 45.57 39.37 36.88 56.19Z" stroke="#00008F" stroke-width="2" stroke-miterlimit="10"/>
<path d="M43.42 42.73C43.42 42.73 27.75 35 37 19.06C37 19.06 53.35 26.62 43.42 42.73V42.73ZM44.17 43.26C44.17 43.26 58.9 52.69 67.79 36.58C67.79 36.58 52.87 26.44 44.17 43.26ZM49.71 32.34C49.71 32.34 66.81 28.71 61.83 11C61.83 11 44.09 14.26 49.71 32.34V32.34Z" stroke="#00008F" stroke-width="2" stroke-miterlimit="10"/>
<path d="M50.06 32.7199C56.4425 31.7728 62.6335 29.8149 68.4 26.9199C71.2297 25.4991 73.9564 23.8818 76.56 22.0799M49.54 32.5699C47.5509 28.8121 46.1736 24.7613 45.46 20.5699C45.1074 18.5172 44.9036 16.4418 44.85 14.3599" stroke="#00008F" stroke-width="2" stroke-linecap="round" stroke-linejoin="round"/>
</svg>
