<svg viewBox="0 0 96 96" fill="none" xmlns="http://www.w3.org/2000/svg"><path d="M28.79 68.45s-15.66-7.76-6.44-23.68c0 0 16.38 7.56 6.44 23.68zM20.06 85l29.89-52.98L20.06 85zm9.49-16s14.72 9.43 23.61-6.68c0-.03-14.92-10.17-23.61 6.68v0z" stroke="currentColor" stroke-width="2" stroke-miterlimit="10"/><path d="M36.13 55.66S20.46 47.91 29.68 32c0 0 16.38 7.54 6.45 23.66zm.75.53s14.72 9.42 23.61-6.68c0 0-14.92-10.14-23.61 6.68z" stroke="currentColor" stroke-width="2" stroke-miterlimit="10"/><path d="M43.42 42.73S27.75 35 37 19.06c0 0 16.35 7.56 6.42 23.67v0zm.75.53s14.73 9.43 23.62-6.68c0 0-14.92-10.14-23.62 6.68zm5.54-10.92S66.81 28.71 61.83 11c0 0-17.74 3.26-12.12 21.34v0z" stroke="currentColor" stroke-width="2" stroke-miterlimit="10"/><path d="M50.06 32.72a60.752 60.752 0 0018.34-5.8 67.793 67.793 0 008.16-4.84M49.54 32.57a40.001 40.001 0 01-4.08-12 43.258 43.258 0 01-.61-6.21" stroke="currentColor" stroke-width="2" stroke-linecap="round" stroke-linejoin="round"/></svg>