<svg viewBox="0 0 96 96" fill="none" xmlns="http://www.w3.org/2000/svg"><path d="M58.39 59c3.76-.19 7.15-.35 7.71-.35l3.72 11.62A4.22 4.22 0 0075.44 73a4.39 4.39 0 002.4-5.35s-5-16.26-5-16.45c-.47-2.06-1.64-3.61-6.29-3.61H48.22l-1.6-7.31h7.68a4.38 4.38 0 004.43-3.85 4.23 4.23 0 00-4.21-4.6h-9.76l-1-4.58a7.13 7.13 0 00-8.49-5.45l-.8.18A7.13 7.13 0 0029 30.32l3.6 16.56" stroke="currentColor" stroke-width="2" stroke-linecap="round" stroke-linejoin="round"/><path d="M31.14 40.17h23.7a7.43 7.43 0 017.09 5.25l8.9 28.13m-41.98-45.4h-8.26M27 11a8.288 8.288 0 0012.122 9.361A8.29 8.29 0 0043 15.34a8.23 8.23 0 00-5.85-10A8 8 0 0027 10.89V11z" stroke="currentColor" stroke-width="2" stroke-linecap="round" stroke-linejoin="round"/><path d="M38.19 91c12.156 0 22.01-9.877 22.01-22.06 0-12.183-9.854-22.06-22.01-22.06-12.156 0-22.01 9.877-22.01 22.06C16.18 81.123 26.034 91 38.19 91zm34.82-.08c4.86 0 8.8-3.95 8.8-8.82 0-4.871-3.94-8.82-8.8-8.82-4.86 0-8.8 3.949-8.8 8.82 0 4.87 3.94 8.82 8.8 8.82z" stroke="currentColor" stroke-width="2" stroke-linecap="round" stroke-linejoin="round"/></svg>