<svg viewBox="0 0 96 96" fill="none" xmlns="http://www.w3.org/2000/svg"><path d="M37 80c11.046 0 20-8.954 20-20s-8.954-20-20-20-20 8.954-20 20 8.954 20 20 20z" stroke="currentColor" stroke-width="2" stroke-linecap="round" stroke-linejoin="round"/><path d="M37 75c8.284 0 15-6.716 15-15 0-8.284-6.716-15-15-15-8.284 0-15 6.716-15 15 0 8.284 6.716 15 15 15z" stroke="currentColor" stroke-width="2" stroke-linecap="round" stroke-linejoin="round"/><path d="M37 65a5 5 0 100-10 5 5 0 000 10z" stroke="currentColor" stroke-width="2" stroke-linecap="round" stroke-linejoin="round"/><path d="M37 65a5 5 0 100-10 5 5 0 000 10zm35 9a3 3 0 100-6 3 3 0 000 6z" stroke="currentColor" stroke-width="2" stroke-linecap="round" stroke-linejoin="round"/><path d="M72 79a8 8 0 100-16 8 8 0 000 16zM34 40l-6-22h6l6 22m-3 15V45v10zm0 20V65v10zm5-15h10-10zm-20 0h10-10zm18.54-3.54l7.07-7.07-7.07 7.07zM26.39 70.61l7.07-7.07-7.07 7.07zm14.15-7.07l7.07 7.07-7.07-7.07zM26.39 49.39l7.07 7.07-7.07-7.07zM52.2 47h16.3a2.5 2.5 0 000-5H45.73l6.47 5z" stroke="currentColor" stroke-width="2" stroke-linecap="round" stroke-linejoin="round"/><path d="M61 42l-2.53-8.24A6.76 6.76 0 0052 29H37m33 34l-2-7m-3 0l-3-9M28 18h-7m36 38h19" stroke="currentColor" stroke-width="2" stroke-linecap="round" stroke-linejoin="round"/></svg>