<svg viewBox="0 0 96 96" fill="none" xmlns="http://www.w3.org/2000/svg"><path d="M27 84h8.78a6 6 0 005.94-5.17l3.66-26.34a7 7 0 005.24 0l3.66 26.34A6 6 0 0060.22 84H69" stroke="currentColor" stroke-width="2" stroke-linecap="round" stroke-linejoin="round"/><path d="M48 53a7 7 0 100-14 7 7 0 000 14z" stroke="currentColor" stroke-width="2" stroke-linecap="round" stroke-linejoin="round"/><path d="M53 41l-2.79-27a2.22 2.22 0 00-4.42 0L43 41m8.94 10.78l27.39 5.59a2.21 2.21 0 001.29-4.22l-26.85-11.1m-11.47-.11L15.55 53a2.21 2.21 0 001.29 4.22l27.09-5.53M36 84h24m-2.18-15a25.25 25.25 0 0010.53-8.5m-40.7 0A25.05 25.05 0 0038.19 69m2.08-46.77A25 25 0 0025.19 35.8M73 45a24.94 24.94 0 00-9.75-18.83m3.34 15.89a19.069 19.069 0 00-9.82-12.91m-17.54.01a19.07 19.07 0 00-9.35 11.12m-6.36.72a25.135 25.135 0 00-.52 4l.52-4zm35.73-17.33a25.206 25.206 0 00-3.52-1.44l3.52 1.44zM57 62.73a19.082 19.082 0 004.1-2.95L57 62.73zm-23-3.91a18.726 18.726 0 003.1 2.73L34 58.82z" stroke="currentColor" stroke-width="2" stroke-linecap="round" stroke-linejoin="round"/></svg>