<svg viewBox="0 0 96 96" fill="none" xmlns="http://www.w3.org/2000/svg"><path d="M46.99 20.94l-.03 7m-.17 40l-.03 7M26.88 47.86l-7-.04m53.99.24l-7-.03m5.14-30.98l-.04 9-9-.03m-35.01 2.84l.99 1m-1.16 37l1.01-1m36.99 1.17l-.99-1.01M22.1 37.55l1.3.55m13.08 34.62l.55-1.3m34.62-13.08l-1.3-.55M36.7 23.07l.54 1.31M22.01 58.12l1.3-.54m33.74 15.23l-.54-1.3M52 56H42m29.56-29.95a33 33 0 104.77 7l-4.77-7z" stroke="currentColor" stroke-width="2" stroke-linecap="round" stroke-linejoin="round"/><path d="M47 56V38l-5 4" stroke="currentColor" stroke-width="2" stroke-linecap="round" stroke-linejoin="round"/></svg>