<svg viewBox="0 0 96 96" fill="none" xmlns="http://www.w3.org/2000/svg"><path d="M53 31h-9a11 11 0 00-7 3v7c0 6.64 4 12 11 12s11-5.39 11-12V28s-3 3-6 3z" stroke="currentColor" stroke-width="2" stroke-linecap="round" stroke-linejoin="round"/><path d="M31 29.31A14.291 14.291 0 0145.27 15h2.19A14.32 14.32 0 0160 22a4.71 4.71 0 015 5v18a7.94 7.94 0 004 7 8.82 8.82 0 01-6.41 4.74L61 57m-20-5.91v5.01l7 18.05m7-23.06v5.01m-14 .08l-8.11 1.25A12.88 12.88 0 0022 70.16v4.69a4 4 0 003.24 3.94l10.67 2a63.45 63.45 0 0024.18 0l10.67-2A4 4 0 0074 74.85v-4.69a12.88 12.88 0 00-10.89-12.73L55 56.18" stroke="currentColor" stroke-width="2" stroke-linecap="round" stroke-linejoin="round"/><path d="M38 57.11l-5 11.03 7-2.01 8 8.02m0 0l8-8.02 7 2.01-5-11.03-3-1.01-7 18.05zM33 75v5.17M63 75v5.17M48 74v8M35 57l-1.59-.26A8.82 8.82 0 0127 52a7.94 7.94 0 004-7V29" stroke="currentColor" stroke-width="2" stroke-linecap="round" stroke-linejoin="round"/></svg>