<svg viewBox="0 0 96 96" fill="none" xmlns="http://www.w3.org/2000/svg"><path d="M53 31h-9a11 11 0 00-7 3v7c0 6.64 4 12 11 12s11-5.39 11-12V28s-3 3-6 3z" stroke="currentColor" stroke-width="2" stroke-linecap="round" stroke-linejoin="round"/><path d="M31 29.31A14.291 14.291 0 0145.27 15h2.19A14.32 14.32 0 0160 22a4.71 4.71 0 015 5v18a7.94 7.94 0 004 7 8.82 8.82 0 01-6.41 4.74L61 57m-20-6.31v5.41m14-5.41v5.41m0 .08l8.11 1.25A12.88 12.88 0 0174 70.16v4.69a4 4 0 01-3.24 3.94l-10.67 2a63.45 63.45 0 01-24.18 0l-10.67-2A4 4 0 0122 74.85v-4.69a12.88 12.88 0 0110.89-12.73L41 56.18" stroke="currentColor" stroke-width="2" stroke-linecap="round" stroke-linejoin="round"/><path d="M37 57l2.87 6a9 9 0 0016.26 0L59 57M33 75v5.17M63 75v5.17M35 57l-1.59-.26A8.82 8.82 0 0127 52a7.94 7.94 0 004-7V29" stroke="currentColor" stroke-width="2" stroke-linecap="round" stroke-linejoin="round"/></svg>