<svg viewBox="0 0 96 96" fill="none" xmlns="http://www.w3.org/2000/svg"><path d="M48 81c18.225 0 33-14.775 33-33S66.225 15 48 15 15 29.775 15 48s14.775 33 33 33z" stroke="currentColor" stroke-width="2" stroke-linecap="round" stroke-linejoin="round"/><path d="M68.5 22.14A23.36 23.36 0 0062 25c-3 2-4 3-6 3s-8-2-10 3a1 1 0 01-1 1c-1 0-4-2-5 1s2 2 1 3c-2.46 2.46-2 5 2 3a3.53 3.53 0 014.72 0c2.49 2.09 3.59 1 4.34.6s3.1-.6 3.53 1.4c.43 2 .07 2.56-2.09 3.72a7.18 7.18 0 01-4.9.88 7.84 7.84 0 01-3-1.85c-1-.84-3.75-.53-5.22.28-1.47.81-4.13 3.47-4.69 6.13a3.91 3.91 0 002.06 4.62c1.1.47 4.31.66 5.53.94A4.8 4.8 0 0147.09 60c.29 2.91-.06 5.81.13 7.63.19 1.82 1 3.65 1.72 4.18.72.53 2.31 2.07 4.47-1.06a29.511 29.511 0 003.47-6.65c.53-1.35 2.81-5.44 3.43-7 .62-1.56 1-3.9.35-5.28a20.432 20.432 0 00-1.13-2.09c.932.117 1.874.138 2.81.06 1-.15 1.72-.56 1.57-2.28-.15-1.72-.32-3.19-.32-3.19a11.09 11.09 0 012.94 2.63 18.06 18.06 0 002.72 3.65c1.06.94 2.22 1.6 4.34-.15 2.12-1.75 3.22-2.66 3.6-3.5.38-.84 1.69-4.72 3.19-5.35M30.37 20.1s1 1.74 1.37 2.3c.37.56 1.33 1.8 1.18 2.54-.15.74-1.77 1.06-2.06 2a3.31 3.31 0 00.59 2.71 6.73 6.73 0 011 3.27c0 1.15-.2 3-1 3.9a24.563 24.563 0 00-2.29 2.46c-.41.65-1.71.68-3.12-.44-1.41-1.12-2-2.06-3.16-.24-1.16 1.82-1.73 1.86-1.79 4.63-.06 2.77.2 4.65 1.94 6.45 1.74 1.8 3.1 3.12 5 3.39s3.33-.15 4.06 1.79c.73 1.94 1.18 3.15.42 5.25s-3.11 4.66-3.74 6.24a9.91 9.91 0 00-.48 5.07c.27 1.47.59 3.49.59 3.49m32.86-4.78a3 3 0 01-.63-3.26c.6-1.52 1.56-3.09 2.79-3 1.23.09 2.31 1.08 1.6 2.9a10 10 0 01-1.11 2.52c-1.39 1.84-2.65.84-2.65.84zM37 25.88c.15-.595.347-1.177.59-1.74a5.85 5.85 0 012.06-3 8 8 0 013.6-.71 1.829 1.829 0 011.47 2.7c-.83 1.57-2 1.69-2.8 2.19-.8.5-2.06 1.44-2.77 1.88-.71.44-2.9 1.04-2.15-1.32z" stroke="currentColor" stroke-width="2" stroke-linecap="round" stroke-linejoin="round"/></svg>