<svg width="128" height="128" viewBox="0 0 128 128" fill="none" xmlns="http://www.w3.org/2000/svg">
<path d="M63.5 89.0338C77.0496 89.0338 88.0338 78.0496 88.0338 64.5C88.0338 50.9503 77.0496 39.9661 63.5 39.9661C49.9503 39.9661 38.9661 50.9503 38.9661 64.5C38.9661 78.0496 49.9503 89.0338 63.5 89.0338Z" fill="#333333"/>
<path d="M63.5 99C82.5538 99 98 83.5538 98 64.5C98 45.4462 82.5538 30 63.5 30C44.4462 30 29 45.4462 29 64.5C29 83.5538 44.4462 99 63.5 99Z" stroke="#333333" stroke-width="1.88182"/>
<path d="M88.0339 46.0996C91.4213 46.0996 94.1673 43.3535 94.1673 39.9661C94.1673 36.5787 91.4213 33.8326 88.0339 33.8326C84.6464 33.8326 81.9004 36.5787 81.9004 39.9661C81.9004 43.3535 84.6464 46.0996 88.0339 46.0996Z" fill="#333333"/>
</svg>
