<svg xmlns="http://www.w3.org/2000/svg" width="41" height="27" viewBox="0 0 41 27">
    <path fill="#333" d="M38.5 0h-36C1.12 0 0 1.12 0 2.5v22C0 25.88 1.12 27 2.5 27h36c1.38 0 2.5-1.12 2.5-2.5v-22C41 1.12 39.88 0 38.5 0zM40 24.5c-.003.228-.058.452-.16.655L27.95 13.5 40 3.905V24.5zM2.5 1h36c.828 0 1.5.672 1.5 1.5v.125L20.5 18.18 1 2.625V2.5C1 1.672 1.672 1 2.5 1zM1.16 25.155c-.102-.203-.157-.427-.16-.655V3.905L13.05 13.5 1.16 25.155zM2.5 26c-.218-.002-.433-.051-.63-.145l11.965-11.71 6.35 5.065c.183.146.442.146.625 0l6.35-5.065 11.97 11.71c-.197.094-.412.143-.63.145h-36z"/>
</svg>
