<svg width="128" height="128" viewBox="0 0 128 128" fill="none" xmlns="http://www.w3.org/2000/svg">
<path d="M45.576 97.8177C54.5417 96.2368 60.5296 87.6947 58.9503 78.7385C57.3711 69.7822 48.8228 63.8033 39.8571 65.3842C30.8914 66.9651 24.9034 75.5072 26.4827 84.4634C28.0619 93.4197 36.6103 99.3986 45.576 97.8177Z" fill="#333333"/>
<path d="M27.7801 99.4014C37.5533 107.602 52.1633 106.281 60.4125 96.4496C68.6616 86.6186 67.4261 72.0011 57.6529 63.8004C47.8797 55.5997 33.2697 56.9213 25.0205 66.7522C16.7714 76.5832 18.0069 91.2007 27.7801 99.4014Z" stroke="#333333" stroke-width="2.00652"/>
<path d="M67.251 57.6943C58.1618 58.4896 50.1524 51.8065 49.3616 42.7673C48.5707 33.7281 55.2979 25.7557 64.3872 24.9605C73.4764 24.1653 81.4858 30.8484 82.2766 39.8876C83.0674 48.9268 76.3403 56.8991 67.251 57.6943Z" fill="#333333"/>
<path d="M88.2642 35.3133C91.5662 47.6366 84.194 60.3193 71.7979 63.6408C59.4018 66.9623 46.676 59.6649 43.374 47.3416C40.072 35.0183 47.4442 22.3357 59.8403 19.0142C72.2364 15.6926 84.9622 22.99 88.2642 35.3133Z" stroke="#333333" stroke-width="2.00652"/>
<path d="M58.0994 60.4022C58.6864 62.593 57.3759 64.8476 55.1722 65.4381C52.9686 66.0285 50.7064 64.7312 50.1193 62.5404C49.5323 60.3496 50.8428 58.095 53.0465 57.5045C55.2501 56.9141 57.5124 58.2114 58.0994 60.4022Z" fill="#333333"/>
<path d="M88.9184 98.1107C79.8395 98.1107 72.4796 90.7178 72.4796 81.5983C72.4796 72.4788 79.8395 65.0859 88.9184 65.0859C97.9973 65.0859 105.357 72.4788 105.357 81.5983C105.357 90.7178 97.9973 98.1107 88.9184 98.1107Z" fill="#333333"/>
<path d="M80.9709 103.434C68.9823 99.0703 62.8218 85.7569 67.2111 73.6975C71.6003 61.638 84.8772 55.3993 96.8659 59.7628C108.854 64.1263 115.015 77.4397 110.626 89.4991C106.236 101.559 92.9595 107.797 80.9709 103.434Z" stroke="#333333" stroke-width="2.00652"/>
<path d="M77.7212 64.3338C75.5899 63.5581 74.4947 61.1914 75.2749 59.0476C76.0552 56.9038 78.4155 55.7948 80.5468 56.5705C82.678 57.3463 83.7733 59.713 82.993 61.8567C82.2127 64.0005 79.8524 65.1095 77.7212 64.3338Z" fill="#333333"/>
<path d="M64.4282 82.9625C62.2969 82.1868 61.2017 79.8201 61.982 77.6763C62.7623 75.5326 65.1226 74.4235 67.2538 75.1993C69.3851 75.975 70.4803 78.3417 69.7 80.4855C68.9198 82.6292 66.5595 83.7383 64.4282 82.9625Z" fill="#333333"/>
</svg>
