<svg height="39" viewBox="0 0 39 39" width="39" xmlns="http://www.w3.org/2000/svg"><path d="m37.454 26.15c1.16-1.418 1.224-3.35.258-4.574.386-.773.58-1.61.58-2.447-.13-4.187-1.804-5.088-3.092-5.088h-5.539v-9.983c0-1.933-1.546-3.478-3.478-3.478s-3.478 1.545-3.478 3.478v3.992s.064 2.383-1.481 3.993c-.902.966-2.255 1.417-3.993 1.417h-5.282v-1.288c0-.387-.257-.644-.644-.644h-9.66c-.387 0-.645.257-.645.644v25.119c0 .386.258.644.644.644h9.661c.387 0 .644-.258.644-.644v-1.546h19.902c2.06 0 2.77-.709 3.285-1.224l.128-.129c1.03-.966 1.482-2.318 1.224-3.542l.322-.322c1.03-1.288 1.224-2.963.515-4.187 0-.064.065-.128.13-.193zm-26.793 10.561h-8.373v-23.83h8.373zm25.763-11.336-.387.387c-.129.129-.193.257-.193.45 0 .194.064.323.129.451.708.773.644 2.061-.193 3.092l-.451.45c-.193.194-.258.452-.193.71.322.837 0 1.931-.773 2.64l-.194.193c-.45.451-.837.837-2.383.837h-19.836v-19.771h5.217c2.061 0 3.736-.645 4.895-1.868 1.932-1.997 1.803-4.766 1.803-4.895v-3.929c0-1.224.967-2.19 2.19-2.19 1.224 0 2.19.966 2.19 2.19v10.627c0 .193.064.322.193.451.13.129.258.193.451.193h6.248c1.095 0 1.739 1.288 1.803 3.865.064.901-.322 1.674-.58 2.125-.128.258-.128.58.13.837.772.709.772 2.126-.065 3.156z" fill="#333" stroke="#333"/></svg>